<svg width="23" height="23" viewBox="0 0 23 23" fill="none" xmlns="http://www.w3.org/2000/svg">
<path d="M22.7539 11.2437C22.7202 11.5607 22.5079 11.7238 22.1544 11.7201C21.8347 11.7165 21.6297 11.5817 21.5978 11.2427C21.4675 9.87887 21.2343 8.53869 20.7787 7.23768C19.9005 4.72769 18.2095 3.02399 15.7369 2.08559C14.5288 1.62732 13.2825 1.31664 11.9896 1.21005C11.371 1.15903 11.1433 0.886619 11.3155 0.404663C11.4303 0.0794115 11.7018 0.00197057 12.0051 0.000148433C13.1722 -0.00531798 14.3193 0.139542 15.4171 0.544057C19.0431 1.87786 21.4347 4.37055 22.4751 8.11778C22.681 8.85939 22.7776 9.61375 22.7548 10.3954C22.7913 10.6706 22.784 10.9576 22.7548 11.2437H22.7539Z" fill="#B7B7B7"/>
<path d="M19.9487 9.61172C19.9323 9.83037 19.9487 10.0326 19.9058 10.2358C19.8357 10.5702 19.6088 10.6913 19.3082 10.6886C19.0166 10.6868 18.8135 10.5574 18.7725 10.2276C18.6668 9.36482 18.4891 8.51661 18.2149 7.68845C17.7238 6.20249 16.7417 5.20578 15.2813 4.65641C14.4285 4.33571 13.5511 4.12434 12.6592 3.95306C12.2328 3.87107 12.0743 3.67063 12.1198 3.33171C12.1763 2.90351 12.3859 2.70399 12.815 2.72859C16.1349 2.919 18.9893 5.03906 19.7665 8.13578C19.8885 8.62412 19.9368 9.12429 19.9487 9.61172Z" fill="#B7B7B7"/>
<path d="M17.2909 8.91131C17.2927 9.05708 17.2526 9.19465 17.2253 9.33587C17.1643 9.65839 16.9602 9.82056 16.6568 9.83696C16.3352 9.85336 16.1466 9.64563 16.0673 9.35591C15.9644 8.97782 15.9325 8.58242 15.7749 8.21708C15.3594 7.25499 14.5395 6.87507 13.5856 6.68284C13.2922 6.62362 12.9734 6.5808 12.9688 6.17264C12.9652 5.81732 13.172 5.58773 13.5892 5.5112C14.3664 5.36816 15.0278 5.68066 15.6273 6.10977C16.4919 6.73021 17.0868 7.54835 17.2663 8.62524C17.2818 8.71999 17.2827 8.81656 17.2909 8.91131Z" fill="#B7B7B7"/>
<path d="M22.4627 20.3697C21.692 21.626 20.5868 22.4815 19.1437 22.8888C18.382 23.1047 17.6951 22.8833 17.0291 22.6027C12.9211 20.8671 9.26406 18.4637 6.1974 15.203C3.65825 12.5026 1.71312 9.41495 0.354716 5.97202C-0.751323 3.17139 0.848515 1.04496 3.49973 0.363478C3.63639 0.328858 3.7858 0.341613 3.92884 0.332502C4.43175 0.325213 4.86633 0.493761 5.23805 0.829946C6.66752 2.12275 7.79177 3.64788 8.6336 5.37618C9.03812 6.20799 8.8231 6.91316 8.03047 7.55273C7.82548 7.71763 7.60592 7.86431 7.40093 8.03013C6.64474 8.64054 6.42973 9.35027 6.76864 10.2622C7.50114 12.232 8.77664 13.7835 10.4967 14.9725C11.334 15.551 12.2059 16.0794 13.2026 16.34C13.8941 16.5204 14.4708 16.3008 14.9154 15.7332C15.2607 15.2914 15.5851 14.8313 16.1026 14.5552C16.9398 14.1088 17.7352 14.3019 18.4832 14.7374C19.8306 15.5228 21.0916 16.4393 22.2605 17.4697C23.2025 18.2997 23.1952 19.1771 22.4627 20.3697Z" fill="#B7B7B7"/>
</svg>
