<svg width="23" height="24" viewBox="0 0 23 24" fill="none" xmlns="http://www.w3.org/2000/svg">
<path d="M22.661 8.71121C21.4685 3.7612 17.0228 0.114033 11.7273 0.00272124C9.61232 -0.0418037 7.61935 0.459585 5.79093 1.54173C2.4322 3.53083 0.532149 6.49368 0.0743173 10.349C-0.176377 12.4687 0.2137 14.5149 1.14582 16.445C1.23487 16.6299 1.2581 16.8109 1.21841 17.0025C0.969655 18.2095 0.71896 19.4165 0.467298 20.6236C0.335659 21.2556 0.191437 21.8857 0.0685097 22.5207C-0.0186042 22.9737 0.231122 23.2505 0.624103 23.1586C2.4535 22.7288 4.28289 22.3019 6.10744 21.8557C6.31651 21.8044 6.48106 21.8267 6.65819 21.9099C8.18462 22.6262 9.78849 22.9892 11.5472 22.9834C13.0611 23.0037 14.5904 22.6998 16.0365 22.0648C21.274 19.7631 24.0026 14.2759 22.661 8.71121ZM13.5673 20.2586C11.4524 20.7523 9.39647 20.519 7.46835 19.522C6.88179 19.2181 6.36588 19.1939 5.76189 19.3643C4.91011 19.6034 4.04284 19.7834 3.12814 20.0021C3.35851 18.8822 3.56468 17.8165 3.80376 16.7576C3.86764 16.476 3.83377 16.2514 3.70019 16.0075C2.87648 14.4994 2.44091 12.8975 2.51931 11.1649C2.64418 8.446 3.76601 6.22265 5.85384 4.49683C7.49158 3.14366 9.41099 2.47772 11.5221 2.49031C15.7664 2.51547 19.2878 5.35539 20.2683 9.39941C21.4453 14.2565 18.4321 19.1252 13.5673 20.2586Z" fill="#B7B7B7"/>
<path d="M17.562 15.2088C16.8767 16.3606 15.9581 17.1678 14.5033 17.0953C13.2383 17.0488 12.0825 16.6384 11.0188 15.9628C9.22424 14.8235 7.69587 13.4084 6.5692 11.5887C6.1075 10.8434 5.82389 10.0303 5.72323 9.15918C5.62837 8.33934 5.85487 7.60855 6.37852 6.97068C6.61663 6.6803 6.87797 6.41219 7.16545 6.17311C7.6165 5.79755 8.21662 5.90693 8.47022 6.43832C8.80706 7.14394 9.10325 7.86893 9.41976 8.58326C9.55043 8.87848 9.48848 9.15047 9.31813 9.40213C9.20294 9.57152 9.06743 9.72736 8.94354 9.88997C8.59121 10.3517 8.55153 10.6488 8.89417 11.1018C9.86598 12.3853 11.0517 13.4374 12.4523 14.236C12.8627 14.4702 13.2257 14.3967 13.5635 14.0463C14.514 13.059 14.4743 13.2797 15.5468 13.5555C16.0453 13.6833 16.5399 13.8314 17.0325 13.9814C17.6017 14.1547 17.8611 14.7064 17.562 15.2088Z" fill="#B7B7B7"/>
</svg>
