<svg xmlns="http://www.w3.org/2000/svg" width="29" height="30" viewBox="0 0 29 30">
  <g id="Group_23110" data-name="Group 23110" transform="translate(-342 -47)">
    <rect id="Rectangle_56" data-name="Rectangle 56" width="29" height="30" rx="6" transform="translate(342 47)" fill="#2a8138"/>
    <g id="call-answer" transform="translate(349.84 55)">
      <g id="Group_8" data-name="Group 8" transform="translate(0 0)">
        <g id="Group_7" data-name="Group 7">
          <g id="Group_6" data-name="Group 6">
            <path id="Path_3" data-name="Path 3" d="M12.823,10.745,10.8,8.719a1.056,1.056,0,0,0-1.489.028L8.287,9.768l-.2-.112A10.156,10.156,0,0,1,5.631,7.88,10.213,10.213,0,0,1,3.852,5.421c-.038-.068-.074-.134-.11-.2l.685-.684L4.764,4.2a1.055,1.055,0,0,0,.027-1.489L2.765.688A1.055,1.055,0,0,0,1.276.716L.705,1.29l.016.015a3.3,3.3,0,0,0-.47.83,3.44,3.44,0,0,0-.209.842c-.267,2.218.746,4.244,3.5,6.994,3.8,3.8,6.865,3.514,7,3.5a3.423,3.423,0,0,0,.844-.212,3.29,3.29,0,0,0,.827-.468l.012.011.578-.566A1.057,1.057,0,0,0,12.823,10.745Z" transform="translate(0 -0.394)" fill="#fff"/>
          </g>
        </g>
      </g>
    </g>
  </g>
</svg>
