<?xml version="1.0" encoding="utf-8"?>
<!-- Generator: Adobe Illustrator 24.2.3, SVG Export Plug-In . SVG Version: 6.00 Build 0)  -->
<svg version="1.1" id="Layer_1" xmlns="http://www.w3.org/2000/svg" xmlns:xlink="http://www.w3.org/1999/xlink" x="0px" y="0px"
	 viewBox="0 0 684.6 189.8" style="enable-background:new 0 0 684.6 189.8;" xml:space="preserve">
<style type="text/css">
	.st0{fill:#252E60;}
</style>
<path class="st0" d="M549.2,7.9c21.8,0.6,40.4,6.4,56.5,19.4c2,1.6,4.2,2.5,6.9,2.3c12.3-0.9,24.1,1.2,35,6.9
	c18.3,9.5,30,24.7,34.4,44.6c4.1,18.8,1,36.9-9.8,53.1c-9.8,14.7-23.9,23.7-41,27.5c-6.2,1.4-12.9,2.6-19.4,1
	c-3.3-0.8-5.1,1.8-7.2,3.4c-10.9,8.6-23.2,13.8-36.7,16.7c-8.3,1.8-16.7,2-25,1.4c-17.2-1.3-33.1-6.9-46.8-17.7
	c-10.5-8.2-19-18.1-24.8-30c-4.9-10-7.6-20.6-8.7-31.8c-1.4-13.6,0.3-26.6,4.9-39.2c6.8-18.9,18.9-33.7,36-44.3
	c10.3-6.4,21.5-10.3,33.4-12.1C541.3,8.3,545.9,7.4,549.2,7.9z M596.8,32.3c-0.6-1.6-1.6-2.1-2.7-2.8
	c-17.4-11.7-36.4-15.7-57.2-12.3c-16,2.6-29.6,9.7-41.1,20.6c-7.3,6.9-12.8,15.3-16.9,24.5c-6.9,15.4-8.5,31.5-6,47.9
	c1.5,10.2,5.2,19.9,10.6,28.8c9.4,15.5,22.5,26.6,39.4,32.8c11.8,4.3,24,5.7,36.7,4.2c14.1-1.7,26.3-7,37.8-15
	c-31.6-10.3-52.1-39.2-46.9-75.7C554.3,59.1,573.6,38.7,596.8,32.3z M617.4,154.9c34.9-1.3,60.8-31.1,55.5-68.2
	c-4-28.2-28.9-49.6-54.8-48.4C645.5,77.3,645.4,116.1,617.4,154.9z"/>
<path class="st0" d="M249.1,125.4c-6.4,7.6-14.4,11.1-23.6,12.2c-0.9,0.1-1.9,0-2.9,0c-6.4,0-13.3-1.4-19.2,0.4
	c-5.7,1.7-5.6,9.6-9.1,14.3c-12.7,17.3-29.7,23.9-50.6,22.4c-2.7-0.2-3-1.5-2.9-3.6c0.1-2.8,0-5.7,0-8.6c15.3,3,38.1-4.1,45.6-24.5
	c-8.1-1.8-16.2,0.3-24.3-1.7c-14.4-3.5-22.8-13.1-25.2-26.5c-2.5-13.9,1.5-26.5,14.3-35.4c19-13.1,46-3.6,51.8,19.2
	c1.9,7.6,0.8,16.1,0.5,24.1c-0.2,4.6,1.3,5.8,5.6,5.4c4-0.4,8.1-0.1,12.1-0.1c12.5,0,19.6-7,19.5-19.4c-0.1-20,15.3-35.4,35.1-34.7
	c16.7,0.6,31.4,12,33.2,31.3c1.6,16.7-9.4,31.7-25.9,35.6C269.2,139.5,261.8,137,249.1,125.4z M176.8,123.3c14.2,0,14.2,0,14.2-13.6
	c0-2.1,0.1-4.3,0-6.4c-0.4-10-8.9-19.3-18-19.9c-14.3-1-19.6,6.3-23.2,18.3c-2.1,7,6.4,17.4,15.1,20.7
	C169.1,124,173.2,122.6,176.8,123.3z M255.2,103.4c0,11.1,8.6,19.8,19.7,19.9c10.8,0.1,20.2-9.1,20.3-19.6
	c0.1-11.4-9.2-20.4-21-20.3C262.6,83.4,255.2,91.2,255.2,103.4z"/>
<path class="st0" d="M116.7,103.8c-1.1,10.9,1.6,24-2.7,37c-6.2,18.5-25.2,32.6-42.5,34.2c-25.7,2.4-49.3-13.2-55.5-37.5
	c-3.6-14.1-2-28.6-2-43c0-5,4.3-2,6.6-2.6c6.1-1.4,7.8,1,7.8,7.4c-0.1,12.3-1.9,24.8,2.5,37c5.2,14.4,18.5,24.8,33.6,25.1
	c14.7,0.3,26.6-6.3,33.9-20.2c3.8-7.3,5.4-14.7,5.4-22.7c0.1-14.7,0.4-29.5-0.1-44.2c-0.2-6.3,3.3-5.2,7-5.4
	c4.2-0.3,6.4,0.4,6.2,5.5C116.3,83.6,116.7,92.6,116.7,103.8z"/>
<path class="st0" d="M339.2,136.2c-5.5,0-11-0.4-16.4,0.1c-6.1,0.6-5-3.5-4.7-6.8c0.3-3-2.6-8,4.5-7.7c10.2,0.4,20.4,0.1,30.6,0.1
	c8.1,0,15.6-4.9,17.5-11.3c2.2-7.3-1-15.2-8.2-20.1c-9.9-6.7-19.8-13.5-29.7-20.3c-2.6-1.8-4.2-4.9-1.3-6.4
	c3.1-1.6,0.8-10.2,7.2-6.1c13.1,8.2,26.8,15.7,38,26.6c9.9,9.6,10.5,22.7,5.9,33.4c-4.9,11.6-14.6,17.6-27.1,18.4
	C350.2,136.5,344.7,136.2,339.2,136.2z"/>
<path class="st0" d="M418,83.2c0,15.4-0.3,30.9,0.2,46.3c0.2,5.9-1.8,7.1-7.1,6.8c-4.6-0.2-7.6,0.2-7.5-6.4
	c0.4-31.6,0.5-63.2,0-94.8c-0.1-7.3,3.8-5.6,7.9-6c5.1-0.5,6.9,0.7,6.8,6.4C417.7,51.3,418,67.2,418,83.2z"/>
<path class="st0" d="M66.2,106.2c-7.3,0.1-10.8-3-10.9-9.7c-0.1-6.7,3.1-10.2,9.4-10.3c6.6-0.1,11.9,4.3,12,9.9
	C76.6,101.2,71.5,106.1,66.2,106.2z"/>
</svg>
