<?xml version="1.0" encoding="utf-8"?>
<!-- Generator: Adobe Illustrator 22.1.0, SVG Export Plug-In . SVG Version: 6.00 Build 0)  -->
<svg version="1.1" id="Layer_1" xmlns="http://www.w3.org/2000/svg" xmlns:xlink="http://www.w3.org/1999/xlink" x="0px" y="0px"
	 viewBox="0 0 62.5 55.1" style="enable-background:new 0 0 62.5 55.1;" xml:space="preserve">
<style type="text/css">
	.st0{opacity:8.000000e-02;}
	.st1{fill:none;stroke:#000000;stroke-width:2;}
	.st2{fill:none;}
</style>
<g id="Group_12248" transform="translate(-8135.5 -11624.032)">
	<g id="Group_101" transform="translate(1245 3180)" class="st0">
		<g id="Group_99">
			<line id="Line_40" class="st1" x1="6895.5" y1="8455.5" x2="6895.5" y2="8445.5"/>
			<line id="Line_41" class="st1" x1="6890.5" y1="8450.5" x2="6900.5" y2="8450.5"/>
		</g>
		<g id="Union_12" transform="translate(6891 8446)">
			<path class="st2" d="M4,10V6H0V4h4V0h2v4h4v2H6v4H4z"/>
			<path class="st2" d="M5.8,9.7V6V5.8H6h3.7V4.2H6H5.8V4V0.3H4.2V4v0.3H4H0.2v1.5H4h0.3V6v3.7H5.8 M6,10H4V6H0V4h4V0h2v4h4v2H6V10z
				"/>
		</g>
	</g>
	<g id="Group_179" transform="translate(1245 3208)" class="st0">
		<g id="Group_99-2">
			<line id="Line_40-2" class="st1" x1="6895.5" y1="8455.5" x2="6895.5" y2="8445.5"/>
			<line id="Line_41-2" class="st1" x1="6890.5" y1="8450.5" x2="6900.5" y2="8450.5"/>
		</g>
		<g id="Union_12-2" transform="translate(6891 8446)">
			<path class="st2" d="M4,10V6H0V4h4V0h2v4h4v2H6v4H4z"/>
			<path class="st2" d="M5.8,9.7V6V5.8H6h3.7V4.2H6H5.8V4V0.3H4.2V4v0.3H4H0.2v1.5H4h0.3V6v3.7H5.8 M6,10H4V6H0V4h4V0h2v4h4v2H6V10z
				"/>
		</g>
	</g>
	<g id="Group_138" transform="translate(1245 3193)" class="st0">
		<g id="Group_99-3">
			<line id="Line_40-3" class="st1" x1="6895.5" y1="8455.5" x2="6895.5" y2="8445.5"/>
			<line id="Line_41-3" class="st1" x1="6890.5" y1="8450.5" x2="6900.5" y2="8450.5"/>
		</g>
		<g id="Union_12-3" transform="translate(6891 8446)">
			<path class="st2" d="M4,10V6H0V4h4V0h2v4h4v2H6v4H4z"/>
			<path class="st2" d="M5.8,9.7V6V5.8H6h3.7V4.2H6H5.8V4V0.3H4.2V4v0.3H4H0.2v1.5H4h0.3V6v3.7H5.8 M6,10H4V6H0V4h4V0h2v4h4v2H6V10z
				"/>
		</g>
	</g>
	<g id="Group_180" transform="translate(1245 3221)" class="st0">
		<g id="Group_99-4">
			<line id="Line_40-4" class="st1" x1="6895.5" y1="8455.5" x2="6895.5" y2="8445.5"/>
			<line id="Line_41-4" class="st1" x1="6890.5" y1="8450.5" x2="6900.5" y2="8450.5"/>
		</g>
		<g id="Union_12-4" transform="translate(6891 8446)">
			<path class="st2" d="M4,10V6H0V4h4V0h2v4h4v2H6v4H4z"/>
			<path class="st2" d="M5.8,9.7V6V5.8H6h3.7V4.2H6H5.8V4V0.3H4.2V4v0.3H4H0.2v1.5H4h0.3V6v3.7H5.8 M6,10H4V6H0V4h4V0h2v4h4v2H6V10z
				"/>
		</g>
	</g>
	<g id="Group_104" transform="translate(1271 3180)" class="st0">
		<g id="Group_99-5">
			<line id="Line_40-5" class="st1" x1="6895.5" y1="8455.5" x2="6895.5" y2="8445.5"/>
			<line id="Line_41-5" class="st1" x1="6890.5" y1="8450.5" x2="6900.5" y2="8450.5"/>
		</g>
		<g id="Union_12-5" transform="translate(6891 8446)">
			<path class="st2" d="M4,10V6H0V4h4V0h2v4h4v2H6v4H4z"/>
			<path class="st2" d="M5.8,9.7V6V5.8H6h3.7V4.2H6H5.8V4V0.3H4.2V4v0.3H4H0.2v1.5H4h0.3V6v3.7H5.8 M6,10H4V6H0V4h4V0h2v4h4v2H6V10z
				"/>
		</g>
	</g>
	<g id="Group_175" transform="translate(1271 3208)" class="st0">
		<g id="Group_99-6">
			<line id="Line_40-6" class="st1" x1="6895.5" y1="8455.5" x2="6895.5" y2="8445.5"/>
			<line id="Line_41-6" class="st1" x1="6890.5" y1="8450.5" x2="6900.5" y2="8450.5"/>
		</g>
		<g id="Union_12-6" transform="translate(6891 8446)">
			<path class="st2" d="M4,10V6H0V4h4V0h2v4h4v2H6v4H4z"/>
			<path class="st2" d="M5.8,9.7V6V5.8H6h3.7V4.2H6H5.8V4V0.3H4.2V4v0.3H4H0.2v1.5H4h0.3V6v3.7H5.8 M6,10H4V6H0V4h4V0h2v4h4v2H6V10z
				"/>
		</g>
	</g>
	<g id="Group_139" transform="translate(1271 3193)" class="st0">
		<g id="Group_99-7">
			<line id="Line_40-7" class="st1" x1="6895.5" y1="8455.5" x2="6895.5" y2="8445.5"/>
			<line id="Line_41-7" class="st1" x1="6890.5" y1="8450.5" x2="6900.5" y2="8450.5"/>
		</g>
		<g id="Union_12-7" transform="translate(6891 8446)">
			<path class="st2" d="M4,10V6H0V4h4V0h2v4h4v2H6v4H4z"/>
			<path class="st2" d="M5.8,9.7V6V5.8H6h3.7V4.2H6H5.8V4V0.3H4.2V4v0.3H4H0.2v1.5H4h0.3V6v3.7H5.8 M6,10H4V6H0V4h4V0h2v4h4v2H6V10z
				"/>
		</g>
	</g>
	<g id="Group_176" transform="translate(1271 3221)" class="st0">
		<g id="Group_99-8">
			<line id="Line_40-8" class="st1" x1="6895.5" y1="8455.5" x2="6895.5" y2="8445.5"/>
			<line id="Line_41-8" class="st1" x1="6890.5" y1="8450.5" x2="6900.5" y2="8450.5"/>
		</g>
		<g id="Union_12-8" transform="translate(6891 8446)">
			<path class="st2" d="M4,10V6H0V4h4V0h2v4h4v2H6v4H4z"/>
			<path class="st2" d="M5.8,9.7V6V5.8H6h3.7V4.2H6H5.8V4V0.3H4.2V4v0.3H4H0.2v1.5H4h0.3V6v3.7H5.8 M6,10H4V6H0V4h4V0h2v4h4v2H6V10z
				"/>
		</g>
	</g>
	<g id="Group_106" transform="translate(1297 3180)" class="st0">
		<g id="Group_99-9">
			<line id="Line_40-9" class="st1" x1="6895.5" y1="8455.5" x2="6895.5" y2="8445.5"/>
			<line id="Line_41-9" class="st1" x1="6890.5" y1="8450.5" x2="6900.5" y2="8450.5"/>
		</g>
		<g id="Union_12-9" transform="translate(6891 8446)">
			<path class="st2" d="M4,10V6H0V4h4V0h2v4h4v2H6v4H4z"/>
			<path class="st2" d="M5.8,9.7V6V5.8H6h3.7V4.2H6H5.8V4V0.3H4.2V4v0.3H4H0.2v1.5H4h0.3V6v3.7H5.8 M6,10H4V6H0V4h4V0h2v4h4v2H6V10z
				"/>
		</g>
	</g>
	<g id="Group_171" transform="translate(1297 3208)" class="st0">
		<g id="Group_99-10">
			<line id="Line_40-10" class="st1" x1="6895.5" y1="8455.5" x2="6895.5" y2="8445.5"/>
			<line id="Line_41-10" class="st1" x1="6890.5" y1="8450.5" x2="6900.5" y2="8450.5"/>
		</g>
		<g id="Union_12-10" transform="translate(6891 8446)">
			<path class="st2" d="M4,10V6H0V4h4V0h2v4h4v2H6v4H4z"/>
			<path class="st2" d="M5.8,9.7V6V5.8H6h3.7V4.2H6H5.8V4V0.3H4.2V4v0.3H4H0.2v1.5H4h0.3V6v3.7H5.8 M6,10H4V6H0V4h4V0h2v4h4v2H6V10z
				"/>
		</g>
	</g>
	<g id="Group_130" transform="translate(1297 3193)" class="st0">
		<g id="Group_99-11">
			<line id="Line_40-11" class="st1" x1="6895.5" y1="8455.5" x2="6895.5" y2="8445.5"/>
			<line id="Line_41-11" class="st1" x1="6890.5" y1="8450.5" x2="6900.5" y2="8450.5"/>
		</g>
		<g id="Union_12-11" transform="translate(6891 8446)">
			<path class="st2" d="M4,10V6H0V4h4V0h2v4h4v2H6v4H4z"/>
			<path class="st2" d="M5.8,9.7V6V5.8H6h3.7V4.2H6H5.8V4V0.3H4.2V4v0.3H4H0.2v1.5H4h0.3V6v3.7H5.8 M6,10H4V6H0V4h4V0h2v4h4v2H6V10z
				"/>
		</g>
	</g>
	<g id="Group_172" transform="translate(1297 3221)" class="st0">
		<g id="Group_99-12">
			<line id="Line_40-12" class="st1" x1="6895.5" y1="8455.5" x2="6895.5" y2="8445.5"/>
			<line id="Line_41-12" class="st1" x1="6890.5" y1="8450.5" x2="6900.5" y2="8450.5"/>
		</g>
		<g id="Union_12-12" transform="translate(6891 8446)">
			<path class="st2" d="M4,10V6H0V4h4V0h2v4h4v2H6v4H4z"/>
			<path class="st2" d="M5.8,9.7V6V5.8H6h3.7V4.2H6H5.8V4V0.3H4.2V4v0.3H4H0.2v1.5H4h0.3V6v3.7H5.8 M6,10H4V6H0V4h4V0h2v4h4v2H6V10z
				"/>
		</g>
	</g>
	<g id="Group_102" transform="translate(1274 3180)" class="st0">
		<g id="Group_99-13" transform="translate(7979.301 -2400.864) rotate(45)">
			<line id="Line_40-13" class="st1" x1="6895.5" y1="8455.5" x2="6895.5" y2="8445.5"/>
			<line id="Line_41-13" class="st1" x1="6890.5" y1="8450.5" x2="6900.5" y2="8450.5"/>
		</g>
		<g id="Union_12-13" transform="translate(6879.75 8444.032) rotate(45)">
			<path class="st2" d="M4,10V6H0l0-2h4V0l2,0v4h4v2H6v4H4z"/>
			<path class="st2" d="M5.8,9.7V6V5.8H6h3.7V4.2H6H5.8V4V0.2H4.2V4v0.2H4H0.2v1.5H4h0.2V6v3.7H5.8 M6,10H4V6H0V4h4V0l2,0v4h4v2H6
				V10z"/>
		</g>
	</g>
	<g id="Group_177" transform="translate(1274 3208)" class="st0">
		<g id="Group_99-14" transform="translate(7979.301 -2400.864) rotate(45)">
			<line id="Line_40-14" class="st1" x1="6895.5" y1="8455.5" x2="6895.5" y2="8445.5"/>
			<line id="Line_41-14" class="st1" x1="6890.5" y1="8450.5" x2="6900.5" y2="8450.5"/>
		</g>
		<g id="Union_12-14" transform="translate(6879.75 8444.032) rotate(45)">
			<path class="st2" d="M4,10V6H0V4h4V0h2v4h4v2H6v4H4z"/>
			<path class="st2" d="M5.8,9.7V6V5.8H6h3.7V4.2H6H5.8V4V0.2H4.2V4v0.2H4H0.2v1.5H4h0.2V6v3.7H5.8 M6,10H4V6H0l0-2h4V0l2,0v4h4v2H6
				V10z"/>
		</g>
	</g>
	<g id="Group_140" transform="translate(1274 3193)" class="st0">
		<g id="Group_99-15" transform="translate(7979.301 -2400.864) rotate(45)">
			<line id="Line_40-15" class="st1" x1="6895.5" y1="8455.5" x2="6895.5" y2="8445.5"/>
			<line id="Line_41-15" class="st1" x1="6890.5" y1="8450.5" x2="6900.5" y2="8450.5"/>
		</g>
		<g id="Union_12-15" transform="translate(6879.75 8444.032) rotate(45)">
			<path class="st2" d="M4,10V6H0V4h4V0h2v4h4v2H6v4H4z"/>
			<path class="st2" d="M5.8,9.7V6V5.8H6h3.7V4.2H6H5.8V4V0.2H4.2V4v0.2H4H0.2v1.5H4h0.2V6v3.7H5.8 M6,10H4V6H0V4h4V0h2v4h4v2H6V10z
				"/>
		</g>
	</g>
	<g id="Group_178" transform="translate(1274 3221)" class="st0">
		<g id="Group_99-16" transform="translate(7979.301 -2400.864) rotate(45)">
			<line id="Line_40-16" class="st1" x1="6895.5" y1="8455.5" x2="6895.5" y2="8445.5"/>
			<line id="Line_41-16" class="st1" x1="6890.5" y1="8450.5" x2="6900.5" y2="8450.5"/>
		</g>
		<g id="Union_12-16" transform="translate(6879.75 8444.032) rotate(45)">
			<path class="st2" d="M4,10V6H0l0-2h4V0h2v4h4v2H6v4H4z"/>
			<path class="st2" d="M5.8,9.7V6V5.8H6h3.7V4.2H6H5.8V4V0.2H4.2V4v0.2H4H0.2v1.5H4h0.2V6v3.7H5.8 M6,10H4V6H0V4h4V0h2v4h4v2H6V10z
				"/>
		</g>
	</g>
	<g id="Group_103" transform="translate(1300 3180)" class="st0">
		<g id="Group_99-17" transform="translate(7979.301 -2400.864) rotate(45)">
			<line id="Line_40-17" class="st1" x1="6895.5" y1="8455.5" x2="6895.5" y2="8445.5"/>
			<line id="Line_41-17" class="st1" x1="6890.5" y1="8450.5" x2="6900.5" y2="8450.5"/>
		</g>
		<g id="Union_12-17" transform="translate(6879.75 8444.032) rotate(45)">
			<path class="st2" d="M4,10V6H0l0-2h4V0h2v4h4v2H6v4H4z"/>
			<path class="st2" d="M5.8,9.7V6V5.8H6h3.7V4.2H6H5.8V4V0.2H4.2V4v0.2H4H0.2v1.5H4h0.2V6v3.7H5.8 M6,10H4V6H0V4h4V0h2v4h4v2H6V10z
				"/>
		</g>
	</g>
	<g id="Group_173" transform="translate(1300 3208)" class="st0">
		<g id="Group_99-18" transform="translate(7979.301 -2400.864) rotate(45)">
			<line id="Line_40-18" class="st1" x1="6895.5" y1="8455.5" x2="6895.5" y2="8445.5"/>
			<line id="Line_41-18" class="st1" x1="6890.5" y1="8450.5" x2="6900.5" y2="8450.5"/>
		</g>
		<g id="Union_12-18" transform="translate(6879.75 8444.032) rotate(45)">
			<path class="st2" d="M4,10V6H0V4h4V0l2,0v4h4v2H6v4H4z"/>
			<path class="st2" d="M5.8,9.7V6V5.8H6h3.7V4.2H6H5.8V4V0.2H4.2V4v0.2H4H0.2v1.5H4h0.2V6v3.7H5.8 M6,10H4V6H0l0-2h4V0h2v4h4v2H6
				V10z"/>
		</g>
	</g>
	<g id="Group_137" transform="translate(1300 3193)" class="st0">
		<g id="Group_99-19" transform="translate(7979.301 -2400.864) rotate(45)">
			<line id="Line_40-19" class="st1" x1="6895.5" y1="8455.5" x2="6895.5" y2="8445.5"/>
			<line id="Line_41-19" class="st1" x1="6890.5" y1="8450.5" x2="6900.5" y2="8450.5"/>
		</g>
		<g id="Union_12-19" transform="translate(6879.75 8444.032) rotate(45)">
			<path class="st2" d="M4,10V6H0V4h4V0h2v4h4v2H6v4H4z"/>
			<path class="st2" d="M5.8,9.7V6V5.8H6h3.7V4.2H6H5.8V4V0.2H4.2V4v0.2H4H0.2v1.5H4h0.2V6v3.7H5.8 M6,10H4V6H0V4h4V0h2v4h4v2H6V10z
				"/>
		</g>
	</g>
	<g id="Group_174" transform="translate(1300 3221)" class="st0">
		<g id="Group_99-20" transform="translate(7979.301 -2400.864) rotate(45)">
			<line id="Line_40-20" class="st1" x1="6895.5" y1="8455.5" x2="6895.5" y2="8445.5"/>
			<line id="Line_41-20" class="st1" x1="6890.5" y1="8450.5" x2="6900.5" y2="8450.5"/>
		</g>
		<g id="Union_12-20" transform="translate(6879.75 8444.032) rotate(45)">
			<path class="st2" d="M4,10V6H0V4h4V0h2v4h4v2H6v4H4z"/>
			<path class="st2" d="M5.8,9.7V6V5.8H6h3.7V4.2H6H5.8V4V0.2H4.2V4v0.2H4H0.2v1.5H4h0.2V6v3.7H5.8 M6,10H4V6H0V4h4V0l2,0v4h4v2H6
				V10z"/>
		</g>
	</g>
</g>
</svg>
