<svg width="477" height="227" viewBox="0 0 477 227" fill="none" xmlns="http://www.w3.org/2000/svg">
<g filter="url(#filter0_d_92_8401)">
<path d="M472.3 45.7876H475V34.9822C455.698 34.9822 441.525 19.3145 441.525 0H43.4746C43.4746 19.4496 29.3019 35.1173 10 35.1173V45.9226H12.6996C16.074 45.9226 18.7736 48.624 18.7736 52.0006C18.7736 55.3773 16.074 58.0786 12.6996 58.0786H10V68.7489H12.6996C16.074 68.7489 18.7736 71.4502 18.7736 74.8269C18.7736 78.2036 16.074 80.9049 12.6996 80.9049H10V92.7907C17.6938 92.7907 23.9028 99.0038 23.9028 106.703C23.9028 114.401 17.6938 120.614 10 120.614V132.77H12.6996C16.074 132.77 18.7736 135.472 18.7736 138.848C18.7736 142.225 16.074 144.926 12.6996 144.926H10V155.597H12.6996C16.074 155.597 18.7736 158.298 18.7736 161.675C18.7736 165.051 16.074 167.753 12.6996 167.753H10V178.288C29.3019 178.288 43.4746 193.956 43.4746 213.27H441.525C441.525 193.956 455.698 178.288 475 178.288V167.753H472.3C468.926 167.753 466.226 165.051 466.226 161.675C466.226 158.298 468.926 155.597 472.3 155.597H475V144.926H472.3C468.926 144.926 466.226 142.225 466.226 138.848C466.226 135.472 468.926 132.77 472.3 132.77H475V120.614C467.306 120.614 461.097 114.401 461.097 106.703C461.097 99.0038 467.306 92.7907 475 92.7907V80.9049H472.3C468.926 80.9049 468.926 68.7489 472.3 68.7489H475V58.0786H472.3C468.926 58.0786 466.226 55.3773 466.226 52.0006C466.226 48.624 468.926 45.9226 472.3 45.9226V45.7876Z" fill="#3C8BD9"/>
</g>
<path d="M409.536 16.208H75.5994C65.3866 16.208 57.1074 24.4926 57.1074 34.7121V178.558C57.1074 188.778 65.3866 197.062 75.5994 197.062H409.536C419.748 197.062 428.028 188.778 428.028 178.558V34.7121C428.028 24.4926 419.748 16.208 409.536 16.208Z" fill="white"/>
<path d="M111.368 77.1231C112.178 74.962 113.393 72.936 115.012 71.3152C121.896 64.6969 133.1 66.3177 137.689 74.6919C141.198 81.04 144.843 87.2531 148.487 93.4661L166.439 124.667C171.433 133.446 166.034 144.386 156.181 145.872C150.107 146.817 144.438 143.981 141.333 138.578L125.541 111.16C125.541 110.89 125.271 110.755 125.136 110.62C124.596 110.214 124.326 109.539 123.921 108.864L112.313 88.7388C110.963 86.3076 110.288 83.7413 110.423 81.04C110.423 79.6893 110.693 78.2036 111.368 76.988" fill="#3C8BD9"/>
<path d="M111.367 77.123C111.097 78.3386 110.828 79.6893 110.693 80.9049C110.693 83.8764 111.367 86.5777 112.717 89.144L124.19 108.999C124.595 109.539 124.865 110.214 125.135 110.755L118.791 121.56L110.018 136.687C109.883 136.687 109.883 136.687 109.748 136.552C109.748 136.282 109.748 136.012 109.883 135.742C111.367 130.474 110.153 125.882 106.508 121.965C104.349 119.534 101.514 118.183 98.2745 117.778C94.0902 117.238 90.4458 118.318 87.0713 120.885C86.5314 121.29 86.1265 121.965 85.4516 122.37C85.3166 122.37 85.1816 122.37 85.1816 122.235L90.1758 113.591L110.827 77.6633C110.827 77.5282 110.962 77.3932 111.097 77.2581" fill="#FABC04"/>
<path d="M85.7219 122.1L87.7466 120.344C96.2502 113.726 108.938 118.453 110.693 129.123C111.098 131.69 110.963 134.121 110.153 136.552C110.153 136.822 110.153 136.957 110.018 137.092C109.748 137.633 109.478 138.308 109.073 138.848C105.969 143.981 101.379 146.547 95.4403 146.142C88.5564 145.602 83.1573 140.469 82.2124 133.716C81.8075 130.474 82.4824 127.368 84.1021 124.396C84.5071 123.721 84.912 123.181 85.3169 122.64C85.4519 122.505 85.3169 122.235 85.7219 122.235" fill="#34A852"/>
<path d="M85.7213 122.1C85.5864 122.235 85.5864 122.506 85.3164 122.506C85.3164 122.235 85.3164 122.1 85.5864 121.965H85.7213" fill="#FABC04"/>
<path d="M109.884 137.093C109.749 136.822 109.884 136.687 110.019 136.552H110.154C110.154 136.687 109.884 137.093 109.884 137.093Z" fill="#E1C025"/>
<path d="M208.4 114.822H202.896L201.748 118.135H199.174L204.548 103.917H206.765L212.148 118.135H209.565L208.4 114.822ZM203.591 112.83H207.713L205.652 106.935L203.591 112.83ZM213.094 112.77C213.094 111.146 213.471 109.842 214.225 108.857C214.978 107.865 215.99 107.37 217.259 107.37C218.378 107.37 219.283 107.761 219.972 108.543V103.135H222.346V118.135H220.199L220.086 117.039C219.372 117.897 218.425 118.326 217.242 118.326C216.007 118.326 215.007 117.83 214.242 116.839C213.477 115.842 213.094 114.485 213.094 112.77ZM215.468 112.978C215.468 114.051 215.674 114.888 216.086 115.491C216.497 116.094 217.086 116.396 217.851 116.396C218.819 116.396 219.526 115.964 219.972 115.1V110.587C219.538 109.741 218.836 109.317 217.868 109.317C217.097 109.317 216.503 109.622 216.086 110.23C215.674 110.839 215.468 111.755 215.468 112.978ZM230.749 115.265C230.749 114.842 230.575 114.52 230.227 114.3C229.879 114.074 229.299 113.877 228.488 113.709C227.682 113.541 227.009 113.326 226.47 113.065C225.288 112.491 224.696 111.662 224.696 110.578C224.696 109.668 225.079 108.906 225.844 108.291C226.615 107.677 227.592 107.37 228.775 107.37C230.038 107.37 231.059 107.683 231.835 108.309C232.612 108.935 233.001 109.746 233.001 110.743H230.627C230.627 110.285 230.459 109.906 230.122 109.604C229.786 109.303 229.337 109.152 228.775 109.152C228.253 109.152 227.827 109.274 227.496 109.517C227.172 109.755 227.009 110.077 227.009 110.483C227.009 110.842 227.16 111.123 227.462 111.326C227.769 111.529 228.389 111.735 229.322 111.943C230.256 112.146 230.986 112.39 231.514 112.674C232.047 112.958 232.441 113.3 232.696 113.7C232.951 114.094 233.079 114.572 233.079 115.135C233.079 116.085 232.685 116.857 231.896 117.448C231.114 118.033 230.082 118.326 228.801 118.326C227.937 118.326 227.166 118.172 226.488 117.865C225.815 117.552 225.288 117.123 224.905 116.578C224.528 116.028 224.34 115.436 224.34 114.804H226.644C226.679 115.367 226.891 115.799 227.279 116.1C227.673 116.401 228.192 116.552 228.835 116.552C229.462 116.552 229.937 116.433 230.262 116.196C230.586 115.958 230.749 115.648 230.749 115.265ZM250.446 112.961C250.446 114.596 250.075 115.9 249.333 116.874C248.591 117.842 247.594 118.326 246.342 118.326C245.182 118.326 244.255 117.946 243.559 117.187V122.196H241.185V107.57H243.377L243.472 108.639C244.168 107.793 245.116 107.37 246.316 107.37C247.603 107.37 248.611 107.851 249.342 108.813C250.078 109.775 250.446 111.109 250.446 112.813V112.961ZM248.081 112.752C248.081 111.697 247.869 110.862 247.446 110.248C247.029 109.628 246.429 109.317 245.646 109.317C244.678 109.317 243.982 109.717 243.559 110.517V115.204C243.988 116.028 244.693 116.439 245.672 116.439C246.426 116.439 247.014 116.135 247.437 115.526C247.866 114.917 248.081 113.993 248.081 112.752ZM257.994 109.735C257.681 109.683 257.359 109.657 257.029 109.657C255.939 109.657 255.206 110.074 254.829 110.909V118.135H252.455V107.57H254.724L254.785 108.752C255.353 107.83 256.148 107.37 257.168 107.37C257.504 107.37 257.782 107.416 258.003 107.509L257.994 109.735ZM259.051 112.752C259.051 111.72 259.254 110.79 259.66 109.961C260.072 109.126 260.648 108.485 261.39 108.039C262.132 107.593 262.985 107.37 263.947 107.37C265.373 107.37 266.53 107.83 267.416 108.752C268.309 109.668 268.79 110.885 268.86 112.404L268.877 112.961C268.877 113.999 268.674 114.929 268.269 115.752C267.869 116.57 267.295 117.204 266.547 117.657C265.805 118.103 264.947 118.326 263.973 118.326C262.483 118.326 261.289 117.83 260.39 116.839C259.498 115.848 259.051 114.526 259.051 112.874V112.752ZM261.425 112.961C261.425 114.045 261.648 114.897 262.095 115.517C262.547 116.132 263.173 116.439 263.973 116.439C264.773 116.439 265.396 116.126 265.843 115.5C266.289 114.874 266.512 113.958 266.512 112.752C266.512 111.685 266.28 110.839 265.816 110.213C265.359 109.587 264.735 109.274 263.947 109.274C263.176 109.274 262.561 109.584 262.103 110.204C261.651 110.819 261.425 111.738 261.425 112.961ZM273.108 107.57L273.177 108.674C273.919 107.804 274.937 107.37 276.229 107.37C277.638 107.37 278.603 107.912 279.125 108.996C279.896 107.912 280.977 107.37 282.368 107.37C283.534 107.37 284.4 107.694 284.968 108.343C285.542 108.987 285.835 109.938 285.847 111.196V118.135H283.473V111.257C283.473 110.59 283.325 110.1 283.029 109.787C282.739 109.474 282.255 109.317 281.577 109.317C281.038 109.317 280.597 109.462 280.255 109.752C279.913 110.042 279.673 110.422 279.534 110.891L279.551 118.135H277.177V111.178C277.142 109.938 276.508 109.317 275.273 109.317C274.322 109.317 273.647 109.706 273.247 110.483V118.135H270.873V107.57H273.108ZM287.84 112.752C287.84 111.72 288.043 110.79 288.449 109.961C288.861 109.126 289.437 108.485 290.179 108.039C290.921 107.593 291.774 107.37 292.736 107.37C294.162 107.37 295.319 107.83 296.206 108.752C297.098 109.668 297.579 110.885 297.649 112.404L297.666 112.961C297.666 113.999 297.464 114.929 297.058 115.752C296.658 116.57 296.084 117.204 295.336 117.657C294.594 118.103 293.736 118.326 292.762 118.326C291.272 118.326 290.078 117.83 289.179 116.839C288.287 115.848 287.84 114.526 287.84 112.874V112.752ZM290.214 112.961C290.214 114.045 290.437 114.897 290.884 115.517C291.336 116.132 291.962 116.439 292.762 116.439C293.562 116.439 294.185 116.126 294.632 115.5C295.078 114.874 295.301 113.958 295.301 112.752C295.301 111.685 295.069 110.839 294.606 110.213C294.148 109.587 293.524 109.274 292.736 109.274C291.965 109.274 291.35 109.584 290.892 110.204C290.44 110.819 290.214 111.738 290.214 112.961ZM302.644 105.004V107.57H304.505V109.326H302.644V115.222C302.644 115.628 302.723 115.92 302.879 116.1C303.042 116.28 303.328 116.37 303.74 116.37C304.013 116.37 304.288 116.335 304.566 116.265V118.109C304.027 118.254 303.505 118.326 303.001 118.326C301.181 118.326 300.271 117.32 300.271 115.309V109.326H298.531V107.57H300.271V105.004H302.644ZM308.852 118.135H306.478V107.57H308.852V118.135ZM306.331 104.822C306.331 104.457 306.447 104.155 306.678 103.917C306.91 103.674 307.241 103.552 307.67 103.552C308.099 103.552 308.429 103.674 308.661 103.917C308.899 104.155 309.018 104.457 309.018 104.822C309.018 105.181 308.899 105.48 308.661 105.717C308.429 105.955 308.099 106.074 307.67 106.074C307.241 106.074 306.91 105.955 306.678 105.717C306.447 105.48 306.331 105.181 306.331 104.822ZM310.985 112.752C310.985 111.72 311.188 110.79 311.594 109.961C312.005 109.126 312.582 108.485 313.324 108.039C314.066 107.593 314.918 107.37 315.881 107.37C317.307 107.37 318.463 107.83 319.35 108.752C320.243 109.668 320.724 110.885 320.794 112.404L320.811 112.961C320.811 113.999 320.608 114.929 320.202 115.752C319.802 116.57 319.228 117.204 318.481 117.657C317.738 118.103 316.881 118.326 315.907 118.326C314.417 118.326 313.223 117.83 312.324 116.839C311.431 115.848 310.985 114.526 310.985 112.874V112.752ZM313.359 112.961C313.359 114.045 313.582 114.897 314.028 115.517C314.481 116.132 315.107 116.439 315.907 116.439C316.707 116.439 317.33 116.126 317.776 115.5C318.223 114.874 318.446 113.958 318.446 112.752C318.446 111.685 318.214 110.839 317.75 110.213C317.292 109.587 316.669 109.274 315.881 109.274C315.109 109.274 314.495 109.584 314.037 110.204C313.585 110.819 313.359 111.738 313.359 112.961ZM325.015 107.57L325.085 108.787C325.867 107.842 326.893 107.37 328.163 107.37C330.36 107.37 331.479 108.63 331.519 111.152V118.135H329.145V111.291C329.145 110.619 329.001 110.123 328.711 109.804C328.421 109.48 327.948 109.317 327.293 109.317C326.337 109.317 325.624 109.749 325.154 110.613V118.135H322.78V107.57H325.015ZM340.241 118.135C340.137 117.932 340.044 117.604 339.963 117.152C339.209 117.935 338.285 118.326 337.189 118.326C336.128 118.326 335.262 118.025 334.589 117.422C333.923 116.819 333.589 116.071 333.589 115.178C333.589 114.048 334.007 113.184 334.841 112.587C335.682 111.984 336.879 111.683 338.433 111.683H339.885V110.987C339.885 110.442 339.731 110.004 339.424 109.674C339.123 109.343 338.659 109.178 338.033 109.178C337.494 109.178 337.05 109.314 336.702 109.587C336.36 109.854 336.189 110.196 336.189 110.613H333.815C333.815 110.033 334.007 109.491 334.389 108.987C334.772 108.483 335.294 108.088 335.954 107.804C336.615 107.514 337.354 107.37 338.172 107.37C339.407 107.37 340.392 107.683 341.128 108.309C341.865 108.929 342.241 109.801 342.259 110.926V115.691C342.259 116.642 342.392 117.401 342.659 117.97V118.135H340.241ZM337.633 116.422C338.102 116.422 338.543 116.309 338.954 116.083C339.372 115.857 339.682 115.552 339.885 115.17V113.17H338.607C337.731 113.17 337.07 113.323 336.624 113.63C336.183 113.938 335.963 114.372 335.963 114.935C335.963 115.387 336.114 115.749 336.415 116.022C336.717 116.288 337.123 116.422 337.633 116.422ZM347.27 118.135H344.896V103.135H347.27V118.135ZM360.24 116.439C360.831 116.439 361.321 116.268 361.71 115.926C362.104 115.578 362.313 115.149 362.336 114.639H364.579C364.55 115.294 364.344 115.909 363.962 116.483C363.579 117.051 363.058 117.5 362.397 117.83C361.742 118.161 361.031 118.326 360.266 118.326C358.788 118.326 357.617 117.848 356.753 116.891C355.889 115.935 355.458 114.613 355.458 112.926V112.683C355.458 111.077 355.886 109.79 356.744 108.822C357.602 107.854 358.773 107.37 360.258 107.37C361.515 107.37 362.539 107.738 363.327 108.474C364.121 109.204 364.539 110.167 364.579 111.361H362.336C362.313 110.752 362.107 110.254 361.718 109.865C361.33 109.471 360.837 109.274 360.24 109.274C359.469 109.274 358.875 109.552 358.458 110.109C358.046 110.665 357.837 111.512 357.831 112.648V113.03C357.831 114.172 358.037 115.028 358.449 115.596C358.86 116.158 359.458 116.439 360.24 116.439ZM365.926 112.752C365.926 111.72 366.129 110.79 366.535 109.961C366.947 109.126 367.523 108.485 368.265 108.039C369.007 107.593 369.86 107.37 370.822 107.37C372.248 107.37 373.405 107.83 374.291 108.752C375.184 109.668 375.665 110.885 375.735 112.404L375.752 112.961C375.752 113.999 375.549 114.929 375.144 115.752C374.744 116.57 374.17 117.204 373.422 117.657C372.68 118.103 371.822 118.326 370.848 118.326C369.358 118.326 368.164 117.83 367.265 116.839C366.373 115.848 365.926 114.526 365.926 112.874V112.752ZM368.3 112.961C368.3 114.045 368.523 114.897 368.97 115.517C369.422 116.132 370.048 116.439 370.848 116.439C371.648 116.439 372.271 116.126 372.718 115.5C373.164 114.874 373.387 113.958 373.387 112.752C373.387 111.685 373.155 110.839 372.691 110.213C372.234 109.587 371.61 109.274 370.822 109.274C370.051 109.274 369.436 109.584 368.978 110.204C368.526 110.819 368.3 111.738 368.3 112.961ZM377.313 112.77C377.313 111.146 377.69 109.842 378.443 108.857C379.197 107.865 380.209 107.37 381.478 107.37C382.597 107.37 383.501 107.761 384.191 108.543V103.135H386.565V118.135H384.417L384.304 117.039C383.591 117.897 382.643 118.326 381.461 118.326C380.226 118.326 379.226 117.83 378.461 116.839C377.696 115.842 377.313 114.485 377.313 112.77ZM379.687 112.978C379.687 114.051 379.893 114.888 380.304 115.491C380.716 116.094 381.304 116.396 382.069 116.396C383.038 116.396 383.745 115.964 384.191 115.1V110.587C383.756 109.741 383.055 109.317 382.087 109.317C381.316 109.317 380.722 109.622 380.304 110.23C379.893 110.839 379.687 111.755 379.687 112.978ZM393.698 118.326C392.196 118.326 390.976 117.854 390.037 116.909C389.103 115.964 388.637 114.703 388.637 113.126V112.83C388.637 111.775 388.84 110.833 389.246 110.004C389.657 109.175 390.228 108.529 390.959 108.065C391.695 107.601 392.518 107.37 393.428 107.37C394.866 107.37 395.976 107.83 396.759 108.752C397.541 109.668 397.932 110.967 397.932 112.648V113.604H391.028C391.103 114.474 391.396 115.164 391.906 115.674C392.417 116.184 393.06 116.439 393.837 116.439C394.921 116.439 395.805 115.999 396.489 115.117L397.767 116.335C397.344 116.967 396.779 117.457 396.072 117.804C395.37 118.152 394.579 118.326 393.698 118.326ZM393.411 109.274C392.761 109.274 392.237 109.503 391.837 109.961C391.437 110.419 391.182 111.054 391.072 111.865H395.593V111.691C395.541 110.897 395.33 110.297 394.959 109.891C394.588 109.48 394.072 109.274 393.411 109.274Z" fill="#3C8BD9"/>
<defs>
<filter id="filter0_d_92_8401" x="0" y="0" width="477" height="226.27" filterUnits="userSpaceOnUse" color-interpolation-filters="sRGB">
<feFlood flood-opacity="0" result="BackgroundImageFix"/>
<feColorMatrix in="SourceAlpha" type="matrix" values="0 0 0 0 0 0 0 0 0 0 0 0 0 0 0 0 0 0 127 0" result="hardAlpha"/>
<feOffset dx="-4" dy="7"/>
<feGaussianBlur stdDeviation="3"/>
<feComposite in2="hardAlpha" operator="out"/>
<feColorMatrix type="matrix" values="0 0 0 0 0 0 0 0 0 0 0 0 0 0 0 0 0 0 0.2 0"/>
<feBlend mode="normal" in2="BackgroundImageFix" result="effect1_dropShadow_92_8401"/>
<feBlend mode="normal" in="SourceGraphic" in2="effect1_dropShadow_92_8401" result="shape"/>
</filter>
</defs>
</svg>
