<svg width="121" height="118" viewBox="0 0 121 118" fill="none" xmlns="http://www.w3.org/2000/svg">
<path d="M120.791 47.4251V51.6661C120.696 51.9175 120.57 52.1374 120.507 52.3887C119.658 56.5041 118.809 60.6509 117.96 64.7663C117.865 64.9548 117.739 65.1747 117.645 65.3632C112.864 76.4527 104.591 83.207 92.6688 85.406C91.159 85.6887 89.3974 85.4688 88.5481 87.2595C86.9438 87.982 85.3396 88.736 83.7353 89.3957C78.0418 91.6576 72.0966 92.1917 66.057 91.4691C61.1498 90.8723 56.5887 89.2072 52.405 86.6626C47.1833 83.4897 43.0626 79.2172 40.0113 73.8767C37.2117 68.9445 35.6389 63.6353 35.4502 57.9806C35.2929 52.4829 35.4187 46.9853 35.4187 41.4876C35.4187 39.0373 36.7714 37.7178 39.2249 37.7178C47.1204 37.7178 55.0159 37.7178 62.9114 37.7178C63.4147 37.7178 63.918 37.5922 64.3898 37.5293C65.7424 37.5922 67.0636 37.655 68.4162 37.7178C68.4162 49.4985 68.4162 61.2478 68.4162 73.0284C68.4162 74.6306 68.9509 76.0443 69.9261 77.2695C71.9393 79.7827 75.022 80.5995 77.9788 79.5942C80.6841 78.6518 82.5714 75.8558 82.5714 72.6829C82.5714 61.0279 82.5714 49.3728 82.5714 37.7492C84.333 37.655 86.0945 37.6864 87.8561 37.4665C88.9885 37.3408 89.6176 36.4926 89.6491 35.3303C89.6805 34.2307 88.9885 33.2883 87.8246 33.0684C87.0382 32.9113 86.1889 32.9113 85.371 32.8171C85.5912 32.7228 85.78 32.5972 86.0001 32.5029C89.303 31.0264 90.5927 27.4137 88.8941 24.2407C87.9504 22.4501 86.3462 21.539 84.4273 21.0992C88.3279 21.0992 92.197 21.0364 96.0976 21.0992C99.0859 21.1306 101.665 23.5182 101.917 26.2513C102.2 29.6127 100.344 32.1888 97.1356 32.8799C96.6952 32.9741 96.2548 33.0684 95.8774 33.1626V37.0895C97.8591 36.7125 99.7465 36.3984 101.602 35.99C105.503 35.1104 109.341 34.9533 113.052 36.8382C116.638 38.7859 119.092 41.6761 120.256 45.603C120.445 46.2313 120.633 46.8596 120.791 47.4879V47.4251ZM94.5877 75.2589C101.539 72.9342 106.887 67.9078 109.026 61.1221C110.127 57.6664 110.536 54.0223 111.196 50.441C111.826 47.2052 109.498 44.5663 106.195 44.8176C105.188 44.8805 104.182 45.1318 103.175 45.3203C100.722 45.7601 98.268 46.2313 95.7515 46.7026C95.7515 47.2366 95.7515 47.645 95.7515 48.0848C95.7515 53.5511 95.6886 58.9859 95.7515 64.4521C95.783 68.0648 95.5628 71.6148 94.5248 75.2589H94.5877ZM45.5162 58.4832C45.5162 58.6403 45.5162 58.7974 45.5162 58.9545C45.5162 60.3786 46.2082 60.9546 47.5923 60.6823C52.6567 59.677 56.1798 55.5302 56.4 50.3467C56.5258 47.1738 58.0986 44.8805 60.7724 44.0323C62.0516 43.6134 62.6912 42.7024 62.6912 41.2992C62.6912 41.2677 62.6912 41.2363 62.6912 41.1735C62.6912 38.7859 62.5968 38.7231 60.2376 39.2886C60.2062 39.2886 60.1747 39.2886 60.1118 39.32C55.0788 40.5766 51.9647 44.5663 51.6815 50.1582C51.5243 53.1112 49.7627 55.4046 46.9317 55.97C45.6105 56.2213 45.3274 56.7868 45.4847 57.9178C45.4847 58.1063 45.4847 58.2947 45.4847 58.5147L45.5162 58.4832Z" fill="#FBBF44"/>
<path d="M0 47.2056C0.0943683 46.9543 0.251649 46.7344 0.283105 46.483C1.25824 42.4305 3.49163 39.3204 7.07762 37.1842C7.32927 37.0271 7.54946 36.8072 7.80111 36.6187C8.05276 36.5559 8.33587 36.5244 8.58751 36.4302C11.3871 35.2992 14.2496 35.0479 17.2379 35.6448C19.7859 36.1789 22.3653 36.5873 24.9761 37.0585V33.1316C20.4779 32.0321 18.5906 29.9273 18.9051 26.4402C19.1568 23.4872 21.5789 21.3509 24.8503 21.1938H33.1233C32.9974 21.885 32.9031 22.2934 32.8402 22.7018C30.9213 24.2097 30.2293 26.5344 30.9843 28.8906C31.7392 31.2153 34.1928 33.0688 36.5834 33.0688C45.7372 33.0688 54.8909 33.0688 64.0446 33.0688C62.1887 34.8909 62.346 36.4616 64.4221 37.5611C63.9188 37.624 63.4155 37.7496 62.9437 37.7496C55.0482 37.7496 47.1527 37.7496 39.2572 37.7496C36.8036 37.7496 35.451 39.0691 35.451 41.5194C35.451 47.0171 35.3252 52.5147 35.4825 58.0124C35.6712 63.6671 37.244 68.9449 40.0436 73.9085C43.0634 79.249 47.2156 83.4901 52.4373 86.6944C56.6524 89.2705 61.1821 90.9355 66.0893 91.5009C72.1603 92.2235 78.074 91.6894 83.7676 89.4275C85.4033 88.7678 86.9761 88.0139 88.5804 87.2913C86.1268 90.7156 83.107 93.5743 79.4896 95.6792C76.8158 97.2499 73.8904 98.4123 71.0908 99.7631C69.9898 99.449 68.8889 98.9777 67.7564 98.8835C66.0893 98.7264 64.3906 98.7892 62.7235 98.8835C61.0248 98.9463 59.3262 99.1662 57.6276 99.3233C55.0167 99.0092 52.4059 98.6322 49.8579 99.7945C49.449 99.6375 49.0715 99.449 48.6626 99.3233C41.8681 96.9044 36.3003 92.789 31.9909 86.9772C31.3617 86.1289 30.7012 85.7834 29.6946 85.6577C21.0441 84.621 13.9351 80.7255 8.33587 74.0969C5.97666 71.3324 4.34094 68.1281 2.89396 64.8295C2.26484 62.0021 1.60426 59.2062 1.0066 56.3788C0.660578 54.8395 0.377473 53.2687 0.0629122 51.7294C0.0629122 50.2529 0.0629122 48.7449 0.0629122 47.2684L0 47.2056ZM25.0076 46.6401C21.3901 46.0118 17.8356 45.2264 14.2182 44.8495C11.2298 44.5353 9.0279 47.3627 9.5312 50.3471C9.84576 52.1378 10.1289 53.897 10.3805 55.6877C10.9782 59.7402 12.2364 63.5415 14.6585 66.8715C17.584 70.8612 21.3587 73.6571 26.1715 75.2907C25.9198 74.0655 25.5738 72.966 25.5109 71.8351C25.2907 68.725 25.0705 65.5834 25.0391 62.4419C24.9761 57.227 25.0391 52.0121 25.0391 46.6401H25.0076Z" fill="#F4AA3A"/>
<path d="M117.96 64.7666C117.645 70.6098 116.356 76.2645 114.091 81.6365C105.881 100.925 91.4739 112.769 70.9017 117.041C70.2411 117.167 69.5805 117.261 68.9199 117.356C68.9199 114.34 68.9514 111.292 68.9828 108.277C70.9646 107.962 72.2543 106.8 72.789 104.884C73.3552 102.842 72.6946 101.114 71.0589 99.7631C73.8585 98.4122 76.7839 97.2499 79.4577 95.6791C83.0752 93.5743 86.0949 90.7155 88.5485 87.2913C89.3978 85.5006 91.1279 85.7205 92.6693 85.4378C104.591 83.2387 112.864 76.4845 117.645 65.3949C117.74 65.175 117.866 64.9865 117.96 64.798V64.7666Z" fill="#56499A"/>
<path d="M93.99 13.3084C102.169 19.1517 108.365 26.6285 112.706 35.676C112.864 36.0216 112.958 36.3986 113.052 36.7756C109.341 34.8906 105.503 35.0477 101.602 35.9273C99.7465 36.3357 97.8276 36.6499 95.8774 37.0269V33.1C96.2548 33.0057 96.6952 32.9115 97.1356 32.8172C100.344 32.1575 102.232 29.5815 101.917 26.1887C101.665 23.4555 99.0859 21.0994 96.0976 21.0366C92.197 20.9737 88.3279 21.0366 84.4273 21.0366C80.6526 21.0366 76.9093 20.9737 73.1346 20.9423C72.9144 18.272 70.9327 16.3557 68.4162 16.3557C65.8997 16.3557 63.918 18.3034 63.6978 20.9737C60.5522 20.9737 57.438 20.9737 54.2924 20.9737C54.2924 20.5968 54.3239 20.1884 54.3239 19.8114C54.3868 17.0783 53.5689 14.6593 51.8388 12.5231C51.3355 11.9262 50.9581 11.8633 50.4233 12.4602C49.8256 13.12 49.1651 13.7483 48.5045 14.3766C48.0326 14.8164 47.9068 15.1933 48.3472 15.7588C49.5425 17.2982 49.8256 19.0888 49.4482 20.9737H38.2812C38.6273 20.4397 38.8789 19.8114 39.3508 19.3401C42.5907 16.1358 43.9433 10.9209 41.1123 5.73739C45.3903 4.32371 49.7627 3.19276 54.261 2.81578C54.1037 6.11437 56.8718 7.37098 58.7906 6.80551C60.5522 6.30286 61.4015 4.85777 61.3386 2.47021C64.1696 2.72154 67.0321 2.97286 69.8632 3.25559C69.7688 3.66399 69.643 4.07239 69.5486 4.5122C68.6049 8.12494 69.3284 11.3921 71.6247 14.3451C72.128 14.9734 72.5369 15.0991 73.1346 14.4394C73.6694 13.8111 74.267 13.2456 74.8962 12.6801C75.5253 12.1147 75.6196 11.6749 75.0849 10.9209C73.6065 8.78466 73.4492 6.49135 74.8647 4.22946C77.6014 5.17192 80.3381 6.08296 83.0747 7.02541C83.1691 7.37098 83.2635 7.71654 83.3578 8.0307C84.3644 12.2403 88.2021 15.7274 92.3857 16.23C93.9586 16.4185 93.99 16.3871 93.99 14.8478C93.99 14.3137 94.0215 13.7483 94.0529 13.2142L93.99 13.3084Z" fill="#56499A"/>
<path d="M82.5732 37.7806C82.5732 49.4356 82.5732 61.0906 82.5732 72.7142C82.5732 75.8558 80.6858 78.6831 77.9806 79.6256C75.0237 80.6623 71.9411 79.8141 69.9279 77.3009C68.9527 76.1071 68.418 74.662 68.418 73.0598C68.418 61.2791 68.418 49.5299 68.418 37.7492C70.7143 37.7492 73.042 37.7492 75.3383 37.7178C77.32 37.7178 79.3332 37.7178 81.315 37.7178C81.7239 37.7178 82.1328 37.7178 82.5418 37.7492L82.5732 37.7806Z" fill="#FCCB6D"/>
<path d="M94.5898 75.2589C95.5964 71.6148 95.8481 68.0649 95.8166 64.4521C95.7537 58.9859 95.8166 53.5511 95.8166 48.0848C95.8166 42.6186 95.8166 47.2366 95.8166 46.7026C98.3331 46.2313 100.787 45.7601 103.24 45.3203C104.247 45.1318 105.253 44.8805 106.26 44.8176C109.563 44.5977 111.891 47.2052 111.262 50.441C110.57 54.0223 110.161 57.6664 109.091 61.1221C106.921 67.9078 101.573 72.9342 94.6528 75.2589H94.5898Z" fill="#56489A"/>
<path d="M73.1367 21.0049C76.9114 21.0049 80.6547 21.0677 84.4295 21.0991C86.3483 21.5389 87.9525 22.45 88.8962 24.2406C90.5634 27.4136 89.3051 31.0263 86.0023 32.5028C85.7821 32.5971 85.5933 32.7227 85.3731 32.817C84.2093 32.8798 83.0454 32.9426 81.8501 32.9741C79.4909 32.9741 77.1316 32.9741 74.7724 32.9741C74.3006 32.9112 73.8602 32.7856 73.3884 32.817C70.9977 32.8484 68.607 32.9426 66.2478 33.0055C65.9333 32.8798 65.6187 32.7227 65.2727 32.5971C62.3158 31.4975 60.6801 28.4189 61.5923 25.403C62.2844 23.0469 63.983 21.7274 66.3107 21.1305C68.5756 21.0991 70.8404 21.0363 73.1367 21.0049Z" fill="#FBCB6D"/>
<path d="M45.5158 58.4833C45.5158 58.2948 45.5158 58.0749 45.5158 57.8864C45.3585 56.7554 45.6416 56.19 46.9628 55.9387C49.7938 55.3732 51.5554 53.0799 51.7126 50.1269C52.0272 44.535 55.1099 40.5452 60.1429 39.2886C60.1743 39.2886 60.2058 39.2886 60.2687 39.2572C62.6594 38.6917 62.7223 38.7546 62.7223 41.1421C62.7223 41.1735 62.7223 41.2049 62.7223 41.2678C62.7223 42.671 62.0827 43.582 60.8035 44.0009C58.1297 44.8491 56.5569 47.111 56.4311 50.3153C56.2109 55.4988 52.6878 59.6456 47.6233 60.6509C46.2393 60.9232 45.5472 60.3472 45.5472 58.9231C45.5472 58.766 45.5472 58.6089 45.5472 58.4519L45.5158 58.4833Z" fill="#EE4380"/>
<path d="M66.2793 33.0371C68.67 32.9743 71.0292 32.9115 73.4199 32.8486C73.8917 32.8486 74.3321 32.9743 74.8039 33.0057C73.7659 33.5084 73.0739 34.2623 73.1682 35.4561C73.2626 36.7755 74.1748 37.4038 75.3387 37.718C73.0424 37.718 70.7146 37.718 68.4183 37.7494C67.0657 37.6866 65.7446 37.6237 64.392 37.5609C62.2844 36.4614 62.1586 34.8906 64.0145 33.0685C64.7694 33.0685 65.5244 33.0371 66.2793 33.0057V33.0371Z" fill="#FBEB66"/>
<path d="M81.849 33.0057C83.0129 32.9429 84.1767 32.88 85.3721 32.8486C86.1899 32.9115 87.0078 32.9115 87.8257 33.1C88.9895 33.3513 89.6816 34.2623 89.6501 35.3618C89.6187 36.5242 88.9895 37.3724 87.8571 37.4981C86.127 37.718 84.334 37.6866 82.5725 37.7808C82.1636 37.7808 81.7546 37.7808 81.3457 37.7494C82.5096 37.4352 83.4218 36.8698 83.5476 35.5503C83.6735 34.2937 82.9814 33.5084 81.8805 33.0371L81.849 33.0057Z" fill="#FBEB65"/>
<path d="M24.8187 21.162C21.5788 21.3191 19.1566 23.4867 18.8735 26.4083C18.559 29.8954 20.4778 32.0002 24.9446 33.0997V37.0266C22.3337 36.5554 19.7543 36.1156 17.2064 35.613C14.2495 35.0161 11.3555 35.2674 8.55593 36.3983C8.30428 36.4926 8.02118 36.524 7.76953 36.5868C8.6503 34.7647 9.4367 32.8798 10.4433 31.152C16.4514 20.9421 24.8502 13.3082 35.4824 8.12471C35.7969 7.96763 36.1429 7.87338 36.4575 7.71631C38.4392 10.2295 38.219 13.3082 36.1115 15.8842C35.0105 17.2351 34.1612 18.8059 33.3748 20.3452C33.0602 20.9107 32.84 21.162 32.1795 21.1306C29.6944 21.1306 27.2409 21.1306 24.7558 21.1306L24.8187 21.162Z" fill="#57499A"/>
<path d="M24.8203 21.162C27.3053 21.162 29.7589 21.1306 32.244 21.162C32.8731 21.162 33.1247 20.9421 33.4393 20.3766C34.2571 18.8373 35.1065 17.2665 36.176 15.9157C38.2835 13.3396 38.5037 10.2609 36.522 7.74772C36.4591 7.62206 36.3018 7.37074 36.3332 7.33932C37.3084 6.23979 38.315 5.14026 39.353 4.10356C39.3845 4.07215 39.9192 4.41771 40.1394 4.66903C40.4854 5.04602 40.7686 5.45441 41.0831 5.86281C43.9456 11.0463 42.5616 16.2612 39.3216 19.4656C38.8812 19.9054 38.5981 20.5651 38.2521 21.0992C37.3713 22.7327 37.4342 24.3977 38.0633 26.0942C38.3464 26.911 39.1328 27.7906 38.9756 28.4503C38.7554 29.2357 37.7802 29.8326 37.1196 30.4923C37.1196 30.4923 37.0567 30.5551 37.0253 30.5865C36.0816 31.4976 35.9558 31.4976 35.1379 30.4295C33.3449 28.1676 32.7472 25.5601 32.8102 22.7327C32.9045 22.3243 32.9674 21.9159 33.0933 21.2248H24.8203V21.162Z" fill="#ED3431"/>
<path d="M74.8029 4.32365C73.3873 6.61696 73.5446 8.87885 75.023 11.0151C75.5578 11.8005 75.4634 12.2089 74.8343 12.7743C74.2052 13.3084 73.639 13.9053 73.0728 14.5336C72.5066 15.1933 72.0662 15.0676 71.5629 14.4393C69.2666 11.4863 68.5431 8.21913 69.4868 4.60639C69.5811 4.19799 69.707 3.78959 69.8013 3.34978C70.399 2.40733 71.0281 1.43346 71.6258 0.491003C72.0347 -0.105884 72.4751 -0.105885 72.9784 0.428173C73.4188 0.867985 73.8277 1.37063 74.331 1.74761C75.3376 2.50157 75.6522 3.28695 74.7714 4.32365H74.8029Z" fill="#F7E868"/>
<path d="M93.9899 13.3082C93.9899 13.8423 93.9584 14.4078 93.927 14.9418C93.927 16.4812 93.8955 16.5126 92.3227 16.3241C88.1705 15.8529 84.3014 12.3344 83.2948 8.12474C83.2005 7.77918 83.1061 7.43361 83.0117 7.11946C83.0117 6.0304 83.5674 5.48587 84.6789 5.48587C84.7104 5.48587 84.7418 5.48587 84.8047 5.48587C85.6226 5.48587 86.6292 5.23455 87.2268 5.61153C87.7616 5.9571 87.8245 6.9938 88.1076 7.74776C88.894 9.72692 90.341 11.1092 92.4485 11.5176C93.6439 11.7375 94.0528 12.2087 93.9584 13.3082H93.9899Z" fill="#ED4281"/>
<path d="M61.3067 2.5644C61.3696 4.95195 60.5203 6.39705 58.7588 6.89969C56.8399 7.46517 54.0718 6.20856 54.2291 2.90997C55.2042 0.648079 56.4625 -0.231545 58.3498 0.0511913C59.8912 0.271097 60.709 1.33921 61.3067 2.59582V2.5644Z" fill="#48BDAA"/>
<path d="M51.9035 117.356C28.3744 113.806 9.68946 96.6844 4.15319 73.4686C3.46115 70.6412 3.27242 67.6882 2.83203 64.7666C4.27901 68.0652 5.91473 71.2695 8.27394 74.0341C13.9046 80.6627 20.9822 84.5896 29.6326 85.5948C30.6392 85.7205 31.2998 86.0661 31.9289 86.9143C36.207 92.7261 41.7747 96.81 48.6007 99.2604C49.0096 99.4175 49.3871 99.5746 49.796 99.7317C49.6073 99.9201 49.4185 100.109 49.2298 100.329C47.9401 101.711 47.5311 103.313 48.1288 105.104C48.7265 106.863 49.9533 107.962 51.8406 108.245C51.8406 111.292 51.8406 114.308 51.8721 117.356H51.9035Z" fill="#56499A"/>
<path d="M25.0074 46.6398C25.0074 52.0118 24.9445 57.2267 25.0074 62.4416C25.0389 65.5831 25.2591 68.6932 25.4793 71.8348C25.5737 72.9343 25.8882 74.0338 26.1399 75.2904C21.3271 73.6882 17.5209 70.8923 14.6269 66.8712C12.2048 63.5412 10.9466 59.7399 10.3489 55.6874C10.0973 53.8967 9.81415 52.1375 9.49959 50.3468C8.99629 47.3624 11.1982 44.535 14.1865 44.8491C17.804 45.2261 21.3585 46.0429 24.976 46.6398H25.0074Z" fill="#56489A"/>
<path d="M32.8079 22.6702C32.745 25.4976 33.3427 28.105 35.1357 30.3669C35.985 31.435 36.1108 31.435 37.023 30.524C37.023 30.524 37.0859 30.4612 37.1174 30.4298C37.778 29.77 38.7531 29.1731 38.9733 28.3878C39.162 27.728 38.3756 26.8484 38.0611 26.0316C37.4319 24.3666 37.369 22.6702 38.2498 21.0366C41.9616 21.0366 45.7049 21.0366 49.4167 21.0366C51.021 21.0366 52.6567 21.0366 54.261 21.0366C57.4066 21.0366 60.5207 21.0366 63.6663 21.0366C64.5471 21.068 65.4279 21.0995 66.3086 21.1623C63.9809 21.7592 62.2823 23.0786 61.5902 25.4347C60.7095 28.4506 62.3137 31.5293 65.2706 32.6288C65.5852 32.7545 65.9312 32.9115 66.2457 33.0372C65.4908 33.0372 64.7358 33.0686 63.9809 33.1C54.8272 33.1 45.6734 33.1 36.5197 33.1C34.1605 33.1 31.6755 31.2465 30.9205 28.9218C30.1656 26.5657 30.8576 24.2096 32.7764 22.733L32.8079 22.6702Z" fill="#F9BE44"/>
<path d="M71.0286 99.7631C72.6329 101.114 73.3249 102.842 72.7587 104.884C72.2554 106.769 70.9657 107.931 68.9525 108.277C65.6182 108.277 62.2838 108.277 58.9495 108.277C58.7293 108.277 58.5091 108.214 58.2575 108.214C58.0373 108.088 57.8485 107.994 57.6283 107.868C55.1118 106.643 54.1682 103.501 55.6781 101.177C56.1499 100.454 56.9048 99.8887 57.5654 99.2604C59.264 99.1033 60.9627 98.9148 62.6613 98.8206C64.3285 98.7578 66.0271 98.6949 67.6943 98.8206C68.8267 98.9148 69.9277 99.4175 71.0286 99.7002V99.7631Z" fill="#FAEB65"/>
<path d="M57.5657 99.2918C56.9366 99.9201 56.1502 100.486 55.6784 101.208C54.1685 103.564 55.1122 106.674 57.6287 107.9C57.8488 107.994 58.0376 108.119 58.2578 108.245C57.8803 108.308 57.5343 108.465 57.1568 108.465C55.3953 108.434 53.6023 108.339 51.8407 108.277C49.9534 107.994 48.7266 106.894 48.1289 105.135C47.5312 103.344 47.9402 101.742 49.2299 100.36C49.4186 100.171 49.6073 99.9829 49.7961 99.763C52.3126 98.6007 54.9549 98.9776 57.5657 99.2918Z" fill="#FABE44"/>
<path d="M58.9492 108.308C62.2836 108.308 65.6179 108.308 68.9523 108.308C68.9523 111.323 68.9208 114.371 68.8893 117.387C65.5865 117.575 62.2521 117.764 58.9492 117.983C58.9492 114.779 58.9492 111.575 58.9492 108.339V108.308Z" fill="#FBBF45"/>
<path d="M58.9489 108.308C58.9489 111.512 58.9489 114.717 58.9489 117.952C56.5897 117.764 54.2305 117.575 51.8713 117.387C51.8713 114.34 51.8713 111.324 51.8398 108.277C53.6014 108.339 55.3944 108.434 57.1559 108.465C57.5334 108.465 57.8794 108.308 58.2569 108.245C58.4771 108.245 58.6973 108.308 58.9489 108.308Z" fill="#F5AB3A"/>
<path d="M54.2617 21.0365C52.6574 21.0365 51.0217 21.0365 49.4175 21.0365C49.7949 19.1516 49.5433 17.3609 48.3165 15.8215C47.8761 15.2561 48.0019 14.8791 48.4738 14.4393C49.1344 13.8424 49.7949 13.1827 50.3926 12.523C50.9274 11.9261 51.3048 11.9889 51.8081 12.5858C53.5382 14.722 54.3561 17.141 54.2932 19.8741C54.2932 20.2511 54.2932 20.6595 54.2617 21.0365Z" fill="#098E5E"/>
<path d="M66.3103 21.1621C65.4295 21.1307 64.5487 21.0993 63.668 21.0365C63.8882 18.3662 65.8699 16.4499 68.3864 16.4185C70.9029 16.4185 72.9161 18.3348 73.1048 21.0051C70.84 21.0365 68.5751 21.0993 66.2788 21.1307L66.3103 21.1621Z" fill="#47BDA9"/>
</svg>
