<svg xmlns="http://www.w3.org/2000/svg" viewBox="0 0 144.26 59.07"><defs><style>.cls-1{fill:#fff;}</style></defs><g id="Layer_2" data-name="Layer 2"><g id="Layer_1-2" data-name="Layer 1"><path class="cls-1" d="M45.59,29.87v.4H35.29a2.67,2.67,0,0,1-2.63-3.14l2.57-14.34A1.35,1.35,0,0,0,33.9,11.2H31c-2.62,0-3.24,3.42-3.64,6l-1.8,10.33a3.28,3.28,0,0,1-3.23,2.71H10C3.3,30.27-.91,28.45.17,21.84l1-5.24A1.61,1.61,0,0,1,2.5,15.33l4.79-.87a1.61,1.61,0,0,1,1.87,1.86h0l-1,5.52c-1.14,5.41-.91,8,1.93,8h4a3.77,3.77,0,0,0,3.71-3.12l1.62-9.23V17.4l.05-.17c1.48-5.63,6.21-6.43,11.33-6.43h9.45a2.67,2.67,0,0,1,2.63,3.14L40.4,27.69a1.85,1.85,0,0,0,1.83,2.18Z"/><path class="cls-1" d="M60.12,2.37,55.5,28.6a2,2,0,0,1-2,1.67H42.4v-.4h5L52.29,2.35A2,2,0,0,1,53.93.71L57.78,0A2,2,0,0,1,60.12,2.37Z"/><path class="cls-1" d="M72.34,24.41l-.68,3.7C70.52,34.65,66,37.78,59.37,37.9v-.46c2.22-.11,3.18-2.28,3.81-5.75l1.25-7.11,1.39-7.79A2.17,2.17,0,0,1,67.57,15l3.58-.65a2.18,2.18,0,0,1,2.53,2.52Z"/><path class="cls-1" d="M100.52,20.54l-.68,3.87-.69,3.7C98,34.65,93.52,37.78,86.86,37.9v-.4c2.27-.17,3.24-2.34,3.87-5.81L91,30.27H86.12c-6.89,0-10.36-3.19-9.17-9.73l.89-5a5.66,5.66,0,0,1,5.58-4.69h8.33C98.36,10.92,101.71,14.1,100.52,20.54Zm-7.86,0L93.29,17c.51-3.08.63-5.75-1.94-5.81H86.46l-1.65,9.34-.63,3.52c-.51,3.08-.62,5.75,1.94,5.81h4.95L92,24.41Z"/><path class="cls-1" d="M120.6,9l7.09,12.31s1.3,3.67-3,7.92-16.38,5.93-19.79.18h0a1.7,1.7,0,0,1,.19-1.91l3-3.63a1.71,1.71,0,0,1,2.79.23l.11.19c2.55,4.91,4.45,6.74,6.64,4.91l1.7-1.43h0a3.25,3.25,0,0,0,.72-4.12l-5.43-9.41a1.71,1.71,0,0,1,.17-2l3-3.54A1.7,1.7,0,0,1,120.6,9Z"/><path class="cls-1" d="M144.23,2.48l-4.59,26.06a2.08,2.08,0,0,1-2.06,1.73H134a2.09,2.09,0,0,1-2.06-2.46L136.41,2.4a2.08,2.08,0,0,1,1.7-1.7L141.8.05A2.1,2.1,0,0,1,144.23,2.48Z"/><path class="cls-1" d="M11.79,57.08l-1.43-4.23a.9.9,0,0,0-.85-.61H5.26a.89.89,0,0,0-.84.59L2.91,57.07a.89.89,0,0,0,.84,1.19h.82v.53H.3v-.53H1a.89.89,0,0,0,.84-.58l6.68-18a.9.9,0,0,1,.84-.58h1a.9.9,0,0,1,.84.59l6.6,18a.89.89,0,0,0,.84.58h.66v.53H10.21v-.53h.73A.9.9,0,0,0,11.79,57.08ZM7.05,45.58,5.31,50.43a.9.9,0,0,0,.84,1.2H8.69a.9.9,0,0,0,.85-1.18L7.92,45.59A.46.46,0,0,0,7.05,45.58Z"/><path class="cls-1" d="M38.76,58.79a2.31,2.31,0,0,1-2.28-1.95h0q-.94,2.23-3.85,2.23a4.39,4.39,0,0,1-3.72-1.73,8.42,8.42,0,0,1-1.33-5.16q0-6.94,5.53-6.94c1.63,0,2.71.45,3.23,1.37V40.08a1.7,1.7,0,0,0-1.7-1.7h0v-.51h5.27a1.71,1.71,0,0,1,1.71,1.7V58.29H43v.5Zm-5.49-1.88a1.17,1.17,0,0,0,1.13,1,1.81,1.81,0,0,0,1.43-.72,3.3,3.3,0,0,0,.6-2.15V48.92a4.05,4.05,0,0,0-.48-2,1.51,1.51,0,0,0-1.39-.83c-.62,0-1,.41-1.26,1.22a19,19,0,0,0-.33,4.3V53A15.93,15.93,0,0,0,33.27,56.91Z"/><path class="cls-1" d="M51.24,46v-.5h8.34V46H58.51a.48.48,0,0,0-.45.65l2.44,6.77a.68.68,0,0,0,1.28,0L64,46.65a.49.49,0,0,0-.46-.63H62.31v-.5h3.77V46H64.85L61,58.08a1,1,0,0,1-1,.71H58.24a1,1,0,0,1-1-.64L52.38,46Z"/><path class="cls-1" d="M76,57.22a7.11,7.11,0,0,1-1.8-5.16,6.32,6.32,0,0,1,2-5.06,7.52,7.52,0,0,1,5.15-1.76q5.59,0,6,5A1.29,1.29,0,0,1,86.1,51.6H79.55v1.09a9.43,9.43,0,0,0,.7,4.12,2.48,2.48,0,0,0,2.43,1.4c2.15,0,3.57-1.15,4.24-3.46l.5.08A5.84,5.84,0,0,1,85.51,58a6.51,6.51,0,0,1-4.14,1.11A7.19,7.19,0,0,1,76,57.22ZM79.58,51h2.87V49.67a12.17,12.17,0,0,0-.26-3.08,1,1,0,0,0-1.06-.82,1.23,1.23,0,0,0-1.17.88,8.22,8.22,0,0,0-.38,3Z"/><path class="cls-1" d="M106.11,46.3a2.19,2.19,0,0,0-1.82,1.34,6.19,6.19,0,0,0-.78,3.18v5.94a1.53,1.53,0,0,0,1.54,1.53h.44v.5h-8.7v-.5h0a1.52,1.52,0,0,0,1.53-1.53V47.55A1.53,1.53,0,0,0,96.79,46h0v-.5H102a1.53,1.53,0,0,1,1.53,1.53v1.14a3.78,3.78,0,0,1,3.74-2.95,3,3,0,0,1,2.13.74,2.66,2.66,0,0,1,.83,2.09,3.15,3.15,0,0,1-.62,2.08,2.33,2.33,0,0,1-1.88.72,2.16,2.16,0,0,1-1.87-.83,2.58,2.58,0,0,1-.15-2.32h1C107.16,46.77,107,46.3,106.11,46.3Z"/><path class="cls-1" d="M118.58,37.87h5.29a1.54,1.54,0,0,1,1.54,1.54V56.76a1.53,1.53,0,0,0,1.53,1.53h0v.5h-8.28v-.5h0a1.53,1.53,0,0,0,1.53-1.53V39.91a1.53,1.53,0,0,0-1.53-1.53h-.11Z"/><path class="cls-1" d="M135.76,45.52h5.3a1.53,1.53,0,0,1,1.53,1.53v9.71a1.53,1.53,0,0,0,1.54,1.53h0v.5h-8.28v-.5h0a1.52,1.52,0,0,0,1.53-1.53V47.55A1.53,1.53,0,0,0,135.87,46h-.11ZM140,43.59a2.61,2.61,0,0,1-2.11-.75,2.87,2.87,0,0,1-.62-1.87,2.55,2.55,0,0,1,.68-1.84A2.74,2.74,0,0,1,140,38.4a3.06,3.06,0,0,1,2.12.66,2.4,2.4,0,0,1,.72,1.87,2.71,2.71,0,0,1-.69,1.94A2.92,2.92,0,0,1,140,43.59Z"/></g></g></svg>