<svg width="65" height="65" viewBox="0 0 65 65" fill="none" xmlns="http://www.w3.org/2000/svg">
<path d="M30.0927 54.9999C29.2788 54.832 28.4485 54.7157 27.6546 54.4891C25.3763 53.8314 23.3419 52.5177 21.805 50.7116C20.2682 48.9056 19.2969 46.6872 19.0123 44.3329C18.933 43.5024 18.8989 42.6681 18.9102 41.8339C18.8972 39.7834 18.9783 37.7305 18.8878 35.6836C18.7704 33.0483 21.0851 32.0829 22.9183 32.6572C23.455 32.8251 23.9612 33.0894 24.5296 33.3301C24.5296 33.1868 24.5296 33.0342 24.5296 32.8815C24.5132 30.2744 24.4767 27.6672 24.4885 25.0613C24.4786 24.0952 24.5461 23.1299 24.6905 22.1746C24.9254 20.7195 26.3687 19.5205 27.8672 19.3937C29.6088 19.248 31.1555 20.1547 31.7427 21.7295C31.9109 22.1958 32.0014 22.6866 32.0104 23.1822C32.0457 24.5574 32.0222 25.9338 32.0222 27.3689C33.0791 26.8393 34.1361 26.6948 35.2318 27.1023C36.3275 27.5099 37.0333 28.2673 37.4807 29.3548C38.6763 28.6748 39.8988 28.5398 41.1413 29.1199C42.3838 29.7001 43.052 30.7136 43.2881 32.0688C44.1654 31.5801 45.1999 31.4565 46.1677 31.7247C46.9509 31.9409 47.6419 32.4072 48.1355 33.0526C48.6291 33.698 48.8982 34.4871 48.9017 35.2996C48.9111 37.848 48.924 40.3964 48.9017 42.9448C48.8719 45.9261 47.7488 48.7926 45.7455 51.0007C43.7422 53.2088 40.9981 54.6047 38.0339 54.9236C37.9354 54.9416 37.8384 54.9671 37.7438 54.9999H30.0927ZM26.4004 32.8991V42.4786C26.4004 43.2948 26.061 43.7469 25.4538 43.7399C24.8467 43.7328 24.5402 43.2936 24.5319 42.4586C24.5143 40.6583 24.5214 38.8556 24.4568 37.0564C24.4051 35.6155 23.5173 34.6325 22.1714 34.3965C21.2319 34.232 20.7751 34.6125 20.7751 35.5579C20.7751 37.9008 20.761 40.2449 20.7821 42.589C20.7865 43.2908 20.8446 43.9912 20.9559 44.6841C21.6841 49.1327 25.6911 52.8167 30.1702 53.0516C32.4779 53.169 34.7961 53.1021 37.1096 53.1091C37.4322 53.1066 37.7541 53.0799 38.0726 53.0293C43.3445 52.2378 47.0085 48.0076 47.0344 42.6735C47.0461 40.2567 47.0344 37.8398 47.0344 35.4229C47.0344 34.2778 46.2652 33.4499 45.1965 33.4264C44.1278 33.4029 43.3174 34.2039 43.2822 35.3383C43.2622 35.9537 43.2822 36.5691 43.2705 37.1833C43.2684 37.3981 43.1928 37.6057 43.0563 37.7715C42.9197 37.9374 42.7305 38.0514 42.52 38.0946C42.3248 38.1358 42.1214 38.1109 41.9418 38.024C41.7622 37.9371 41.6165 37.7929 41.5277 37.6143C41.4466 37.412 41.4066 37.1956 41.4102 36.9778C41.4008 35.5427 41.4243 34.1064 41.3938 32.6713C41.3888 32.2825 41.2995 31.8994 41.1319 31.5486C40.7549 30.8111 39.8647 30.4717 39.0626 30.6795C38.6691 30.78 38.3192 31.0067 38.0666 31.3248C37.8141 31.6429 37.6726 32.035 37.6639 32.4411C37.6475 33.8504 37.6639 35.2538 37.6639 36.6595C37.6639 36.791 37.6639 36.9226 37.6639 37.0553C37.6534 37.6859 37.2811 38.1122 36.7374 38.1122C36.1936 38.1122 35.7978 37.7 35.7978 37.0694C35.792 35.0048 35.7978 32.939 35.7896 30.8745C35.7934 30.568 35.749 30.2629 35.6581 29.9702C35.5182 29.5648 35.24 29.2216 34.8724 29.0009C34.5047 28.7801 34.0711 28.6959 33.6475 28.7629C32.701 28.9156 32.0457 29.6496 32.041 30.6138C32.0304 32.6795 32.041 34.7441 32.041 36.8098C32.041 37.666 31.7098 38.1204 31.0909 38.1122C30.472 38.104 30.1737 37.6648 30.1737 36.8274C30.1737 32.4039 30.1737 27.9804 30.1737 23.5569C30.1771 23.2939 30.1551 23.0311 30.1079 22.7724C30.0177 22.3702 29.8034 22.0064 29.4953 21.7325C29.1873 21.4586 28.801 21.2883 28.391 21.2457C27.9931 21.221 27.598 21.3263 27.2652 21.5457C26.9324 21.7652 26.68 22.0869 26.546 22.4623C26.4596 22.7414 26.418 23.0323 26.4227 23.3243C26.4031 26.5179 26.3957 29.7095 26.4004 32.8991Z" fill="#E9B632"/>
<path d="M16 22.1853C16.1174 16.2511 20.357 11.1965 26.1526 10.1842C27.7687 9.90015 29.4256 9.945 31.024 10.3161C32.6224 10.6871 34.1296 11.3768 35.4553 12.3438C36.7811 13.3108 37.8981 14.5353 38.7397 15.944C39.5813 17.3527 40.1301 18.9166 40.3533 20.5423C40.5651 22.0549 40.4854 23.594 40.1184 25.0766C39.9681 25.6967 39.5312 26.0161 38.9792 25.9046C38.4437 25.8024 38.1431 25.3115 38.2852 24.6844C38.5381 23.5847 38.6267 22.4536 38.5482 21.328C38.2405 16.9087 34.8184 12.9898 30.4755 12.1055C24.7738 10.9464 19.4468 14.392 18.1855 20.0678C17.8569 21.5905 17.8855 23.1687 18.2689 24.6785C18.4439 25.409 17.9706 25.9832 17.2742 25.9104C17.0743 25.901 16.884 25.8214 16.7369 25.6857C16.5898 25.55 16.4952 25.3668 16.4698 25.1682C16.2948 24.1759 16.1538 23.18 16 22.1853Z" fill="#E9B632"/>
<path d="M33.9024 22.3096C33.9552 19.0014 31.3011 16.4576 27.9788 16.5751C24.8549 16.6925 22.4169 19.4887 22.6858 22.6514C22.761 23.5439 22.4779 24.0089 21.8309 24.0524C21.2131 24.0947 20.8679 23.6801 20.7868 22.8029C20.5202 19.8751 22.162 16.9133 24.8079 15.5487C29.7897 12.9803 35.7109 16.5351 35.7779 22.137C35.7776 22.4739 35.7557 22.8105 35.7121 23.1446C35.6834 23.381 35.5649 23.5972 35.381 23.7485C35.1971 23.8997 34.9621 23.9744 34.7247 23.9571C34.4872 23.9397 34.2656 23.8316 34.1057 23.6552C33.9458 23.4788 33.86 23.2476 33.866 23.0095C33.8671 22.7606 33.8906 22.5128 33.9024 22.3096Z" fill="#E9B632"/>
<circle cx="32.5" cy="32.5" r="31.5" stroke="#E9B632" stroke-width="2"/>
</svg>
