<svg width="56" height="57" viewBox="0 0 56 57" fill="none" xmlns="http://www.w3.org/2000/svg">
<path d="M47.5482 7.76544C47.5482 6.55634 47.5482 5.37065 47.5482 4.17715C47.5373 4.0025 47.5462 3.82717 47.5747 3.65451C47.6776 3.22392 47.96 2.97586 48.4125 2.99926C48.8649 3.02266 49.1644 3.2832 49.1676 3.73408C49.1863 5.79656 49.1863 7.85905 49.1676 9.92153C49.1676 10.4098 48.8275 10.6798 48.3688 10.6844C46.3448 10.7042 44.3213 10.7042 42.2983 10.6844C41.8069 10.6844 41.5011 10.3724 41.4761 9.87161C41.4543 9.41449 41.8194 9.08062 42.3623 9.07438C43.4544 9.05878 44.5465 9.07438 45.6308 9.07438C45.8195 9.07438 46.0067 9.05722 46.3843 9.0385C45.6198 8.38169 45.0036 7.80444 44.3405 7.28804C39.1921 3.291 33.3417 1.40481 26.8391 1.67159C14.6077 2.16615 4.30307 11.1759 2.08146 23.2465C1.28578 27.5114 1.56077 31.9071 2.8818 36.0396C2.91768 36.1503 2.95356 36.2611 2.98321 36.3734C3.11894 36.8898 2.91924 37.3251 2.48241 37.4655C2.04557 37.6059 1.59314 37.3891 1.44024 36.8742C1.14382 35.8945 0.842717 34.9022 0.625859 33.8975C-0.60074 28.1957 -0.0150688 22.253 2.301 16.9003C4.61708 11.5476 8.54779 7.0524 13.5437 4.04298C19.026 0.75112 24.9747 -0.526621 31.3369 0.217558C37.3434 0.919614 42.5511 3.37057 47.024 7.41909C47.1534 7.5361 47.2861 7.64999 47.4187 7.76388C47.4296 7.77324 47.4514 7.76544 47.5482 7.76544Z" fill="white"/>
<path d="M8.59653 48.2616V49.0853C8.59653 50.0775 8.60901 51.0698 8.58873 52.062C8.57781 52.6377 8.2221 52.9981 7.74782 52.9809C7.27355 52.9638 6.96776 52.6206 6.96776 52.0651C6.95736 50.0994 6.95736 48.1336 6.96776 46.1679C6.96776 45.5548 7.25638 45.2864 7.88043 45.2833C9.82747 45.2729 11.774 45.2729 13.72 45.2833C14.3066 45.2833 14.6654 45.6094 14.6561 46.0883C14.6467 46.5673 14.2988 46.898 13.72 46.9074C12.6107 46.9245 11.5015 46.9074 10.3922 46.9074H9.76818L9.6855 47.0759C10.6543 47.8637 11.5857 48.7046 12.5982 49.4317C17.5626 52.9872 23.1197 54.6456 29.212 54.3913C41.4652 53.8796 51.7714 44.8745 53.9743 32.8101C54.7676 28.545 54.4921 24.1497 53.1724 20.0171C53.1365 19.9063 53.1006 19.7955 53.071 19.6832C52.9368 19.1684 53.1396 18.7331 53.578 18.5911C54.0164 18.4492 54.4642 18.6707 54.6186 19.1871C54.9182 20.1934 55.252 21.1965 55.4346 22.2247C57.4627 33.5995 54.0429 43.0133 45.041 50.2632C40.7382 53.7282 35.7021 55.5676 30.1777 55.9483C22.1556 56.5131 15.135 54.0683 9.11917 48.7062C8.99124 48.5908 8.85707 48.4831 8.59653 48.2616Z" fill="white"/>
<path d="M19.3177 25.5976C21.9325 23.4946 24.2633 21.17 26.151 18.2822L33.2948 30.6509C31.6349 30.9426 30.0014 31.1533 28.4054 31.5292C26.8094 31.9052 25.2399 32.4513 23.569 32.9505C22.1868 30.5635 20.7639 28.0938 19.3177 25.5976Z" fill="white"/>
<path d="M28.8267 13.0589C29.5802 13.0729 30.1824 13.5379 30.6255 14.307C32.7129 17.9473 34.8097 21.5819 36.9159 25.2107C37.6242 26.4385 38.3356 27.6648 39.0392 28.8957C39.7273 30.0986 39.4433 31.3748 38.3606 31.9801C37.2779 32.5854 36.0766 32.1923 35.3963 31.0128C32.5756 26.1359 29.7596 21.2568 26.9483 16.3757C26.045 14.8094 26.967 13.0542 28.8267 13.0589Z" fill="white"/>
<path d="M22.3116 34.0582C20.9652 34.8227 19.6984 35.6277 18.3582 36.2814C16.263 37.3017 13.6966 36.4374 12.5561 34.4092C11.4157 32.3811 11.9773 29.7804 13.8932 28.5042C15.1194 27.6882 16.4284 26.9987 17.7716 26.2092L22.3116 34.0582Z" fill="white"/>
<path d="M20.4488 37.0162L23.257 35.3875C23.3647 35.5123 23.4692 35.6199 23.5566 35.7385C24.8047 37.4234 26.0559 39.1083 27.3102 40.7933C27.7642 41.4173 27.7236 41.8058 27.176 42.316C26.8765 42.5937 26.5832 42.8792 26.2665 43.135C25.8156 43.5001 25.2821 43.4642 24.9326 43.004C23.4505 41.0429 21.9793 39.06 20.4488 37.0162Z" fill="white"/>
<path d="M42.4918 24.1935C41.9676 24.1935 41.4434 24.1935 40.9192 24.1935C40.395 24.1935 40.1048 23.894 40.0907 23.4057C40.0807 23.2971 40.0942 23.1877 40.1303 23.0848C40.1664 22.9819 40.2242 22.888 40.2999 22.8096C40.3756 22.7311 40.4673 22.6698 40.5688 22.63C40.6702 22.5902 40.7791 22.5727 40.888 22.5788C41.9551 22.5497 43.0222 22.5497 44.0893 22.5788C44.5777 22.5913 44.8944 22.8908 44.8834 23.4025C44.8725 23.9143 44.5714 24.1826 44.0644 24.1935C43.5573 24.2044 43.016 24.1935 42.4918 24.1935Z" fill="white"/>
<path d="M36.4806 16.2369C35.738 16.2572 35.2996 15.6612 35.5836 15.1214C36.1046 14.1276 36.6756 13.1588 37.2654 12.2024C37.501 11.8218 37.9128 11.775 38.2966 11.9793C38.6804 12.1837 38.8458 12.5909 38.643 12.9731C38.1063 13.981 37.5228 14.9638 36.9268 15.9374C36.8207 16.1121 36.5633 16.187 36.4806 16.2369Z" fill="white"/>
<path d="M43.0456 15.9998C43.2672 16.2088 43.6229 16.3867 43.6697 16.6238C43.729 16.8999 43.6166 17.382 43.4091 17.5209C42.5175 18.1048 41.5969 18.6432 40.6508 19.134C40.2639 19.34 39.8708 19.2011 39.6446 18.8142C39.4324 18.4585 39.4527 18.0342 39.8006 17.8204C40.7507 17.2229 41.7383 16.6831 42.7133 16.1261C42.7868 16.1017 42.8637 16.0896 42.9411 16.0902L43.0456 15.9998Z" fill="white"/>
<path d="M35.1639 18.9078C36.2045 18.9078 36.9003 19.301 37.3683 20.067C37.8645 20.8798 37.8364 21.7145 37.3387 22.6677L35.1639 18.9078Z" fill="white"/>
<path d="M26.3679 36.7478L24.6518 34.4529C24.9919 34.1642 25.2368 34.1689 25.4708 34.5371C25.7048 34.9053 26.0528 35.2673 26.2821 35.6682C26.449 35.96 26.5052 36.3157 26.6113 36.6433L26.3679 36.7478Z" fill="white"/>
</svg>
