<svg width="65" height="65" viewBox="0 0 65 65" fill="none" xmlns="http://www.w3.org/2000/svg">
<path d="M28.1382 42.3776H17.552C15.9547 42.3767 15 41.4258 15 39.8343V20.5394C15 18.947 15.9528 18 17.5549 18H47.2596C48.8841 18 49.8252 18.9411 49.8252 20.5656V39.8237C49.8252 41.4239 48.8763 42.3767 47.2829 42.3776H36.6899C36.7965 43.5407 36.8993 44.6786 37.0049 45.8456H38.7709V47H26.0495V45.8776H27.8135C27.9221 44.7116 28.0267 43.5747 28.1382 42.3776ZM48.664 36.5621V36.1647C48.664 30.954 48.664 25.743 48.664 20.5317C48.664 19.6022 48.2211 19.1631 47.2838 19.1631H17.5414C16.6031 19.1631 16.1631 19.5993 16.1631 20.5307V36.5602L48.664 36.5621ZM48.664 37.7621H16.1631V39.7781C16.1631 40.8104 16.575 41.2184 17.617 41.2184H47.2111C47.3313 41.2184 47.4534 41.2233 47.5736 41.2184C47.8547 41.2041 48.1206 41.0864 48.3202 40.888C48.5199 40.6896 48.6392 40.4245 48.6553 40.1435C48.6786 39.3536 48.6611 38.5685 48.6611 37.7601L48.664 37.7621ZM28.9882 45.8398H35.8389C35.7323 44.6767 35.6276 43.5417 35.5239 42.4048H29.3013C29.1957 43.5553 29.0929 44.6835 28.9882 45.8379V45.8398Z" fill="#E9B632"/>
<path d="M31.865 38.9026H32.968V40.0308H31.865V38.9026Z" fill="#E9B632"/>
<path d="M24.9532 29.6581C24.7148 30.1427 24.4841 30.6176 24.2486 31.0877C24.2166 31.1526 24.1693 31.2088 24.111 31.2515C24.061 31.2828 24.0011 31.2941 23.9431 31.2834C23.8851 31.2726 23.8333 31.2405 23.7979 31.1934C23.7622 31.145 23.7316 31.093 23.7068 31.0383L20.7108 24.8448C20.6934 24.8089 20.675 24.773 20.6604 24.7362C20.6385 24.6894 20.6311 24.6371 20.6391 24.586C20.6471 24.5349 20.6702 24.4874 20.7054 24.4495C20.7406 24.4116 20.7863 24.385 20.8366 24.3733C20.887 24.3615 20.9397 24.365 20.988 24.3834L21.0908 24.4183L27.7379 26.729L27.8174 26.7561C27.8705 26.7695 27.9179 26.7994 27.9528 26.8416C27.9876 26.8838 28.0081 26.936 28.0112 26.9907C28.015 27.0473 28.0005 27.1036 27.9698 27.1512C27.939 27.1989 27.8938 27.2354 27.8406 27.2553L26.6911 27.8116L26.4187 27.9435C26.4653 27.9793 26.4982 28.0065 26.5331 28.0307L28.1489 29.1657C28.365 29.3188 28.3844 29.4448 28.2216 29.6571C27.9036 30.07 27.5854 30.4829 27.2668 30.8958C27.1253 31.0809 27.0061 31.0993 26.8161 30.9646C26.2346 30.5595 25.6566 30.1534 25.0821 29.7463L24.9532 29.6581ZM23.9956 30.4335C24.0276 30.3734 24.0509 30.3365 24.0712 30.29L24.5859 29.2432C24.708 28.9951 24.8505 28.9573 25.0705 29.1143L26.853 30.3676C26.8888 30.3928 26.9247 30.416 26.9683 30.4441L27.702 29.4884L27.5799 29.4002C26.9984 28.9903 26.4168 28.5725 25.8236 28.1722C25.59 28.0142 25.6007 27.7554 25.8701 27.6391C26.2433 27.4743 26.6058 27.2853 26.9703 27.1109C27.0005 27.0956 27.0299 27.0788 27.0585 27.0605L27.041 27.0876L21.43 25.1336L23.9956 30.4335Z" fill="#E9B632"/>
<path d="M31.7215 31.3533C31.6672 31.3533 31.6139 31.3533 31.5616 31.3533C30.6167 31.3388 29.6868 31.1147 28.839 30.6971C28.7754 30.658 28.7293 30.5959 28.7103 30.5237C28.6912 30.4515 28.7007 30.3747 28.7367 30.3093C28.7727 30.2439 28.8325 30.1948 28.9037 30.1723C28.9749 30.1498 29.052 30.1555 29.1191 30.1883C29.8951 30.5592 30.7423 30.7576 31.6023 30.7698C33.5408 30.8096 35.2932 29.9537 36.8159 28.2246C40.7511 23.7602 44.2113 25.7791 45.1786 26.5041C45.2404 26.5504 45.2813 26.6193 45.2923 26.6958C45.3033 26.7722 45.2835 26.8499 45.2372 26.9117C45.191 26.9735 45.122 27.0144 45.0456 27.0254C44.9692 27.0364 44.8915 27.0166 44.8297 26.9703C43.7199 26.1368 40.7588 24.6306 37.253 28.6094C35.2719 30.858 33.1793 31.3533 31.7215 31.3533Z" fill="#E9B632"/>
<circle cx="32.5" cy="32.5" r="31.5" stroke="#E9B632" stroke-width="2"/>
</svg>
