<svg width="47" height="47" viewBox="0 0 47 47" fill="none" xmlns="http://www.w3.org/2000/svg">
<path d="M46.2521 45.5312C46.0426 46.0906 45.6238 46.2598 45.0501 46.2598C30.4352 46.2598 15.8185 46.2598 1.19977 46.2598C0.313354 46.2598 0.000670272 45.9471 0.000670272 45.0636C0.000670272 36.8879 0.000670272 28.7132 0.000670272 20.5394C-0.00594878 20.3302 0.0365321 20.1224 0.124707 19.9326C0.212883 19.7428 0.344299 19.5763 0.508423 19.4464L6.17402 14.541C6.26341 14.4622 6.35938 14.3912 6.46089 14.3288C6.63816 14.2082 6.85404 14.1581 7.06628 14.1884C7.27851 14.2186 7.47182 14.327 7.60835 14.4923C7.74948 14.6501 7.8275 14.8543 7.8275 15.066C7.8275 15.2777 7.74948 15.482 7.60835 15.6397C7.2469 16.0213 6.83955 16.3598 6.44368 16.7069C5.20251 17.8084 3.95464 18.8995 2.70008 19.98C2.61115 20.0575 2.52796 20.1435 2.41321 20.2669L18.1363 31.7071L21.9746 28.9159C22.1324 28.8011 22.2902 28.6835 22.4479 28.5717C22.9958 28.1873 23.2913 28.1844 23.8421 28.5717C25.1559 29.5279 26.4698 30.4841 27.7836 31.4403C27.8926 31.5206 28.0045 31.5952 28.1393 31.6899L28.9999 31.0645C30.8502 29.7191 32.6948 28.368 34.5537 27.0312C34.6606 26.9682 34.7476 26.8764 34.8049 26.7664C34.8622 26.6563 34.8875 26.5324 34.8778 26.4087C34.8577 25.3387 34.8778 24.2687 34.8778 23.2015C34.8778 22.8085 35.027 22.4442 35.4057 22.3409C35.5482 22.2984 35.6977 22.2849 35.8455 22.3012C35.9934 22.3174 36.1364 22.3631 36.2663 22.4356C36.4974 22.6579 36.6366 22.9589 36.6564 23.279C36.7109 23.9761 36.6736 24.6818 36.6736 25.4792L43.8969 20.2267C43.3863 19.7763 42.9043 19.3661 42.4281 18.933C41.9519 18.4998 41.4872 18.0896 41.011 17.6765C40.9037 17.6042 40.7869 17.5473 40.6639 17.5072C40.1332 17.2777 39.6082 17.0368 39.0718 16.8216C38.923 16.7571 38.7558 16.749 38.6013 16.7987C36.6736 17.6908 34.6742 17.2519 33.3947 15.5738C32.9423 15.0131 32.6544 14.3378 32.5632 13.6231C32.472 12.9084 32.5811 12.1824 32.8784 11.5261C33.1363 10.8535 33.5729 10.264 34.1411 9.82121C34.7093 9.37839 35.3875 9.099 36.1027 9.01314C36.6765 8.92162 37.2632 8.9547 37.8231 9.11013C38.3829 9.26556 38.9027 9.53969 39.3472 9.91389C39.5051 10.0288 39.6324 10.1807 39.7179 10.3562C39.8035 10.5318 39.8446 10.7256 39.8377 10.9208C39.8377 12.14 39.8377 13.3592 39.8377 14.5783C39.844 14.8436 39.9394 15.0991 40.1085 15.3036C40.2776 15.5081 40.5106 15.6498 40.7701 15.7057C41.0174 15.7466 41.2714 15.7054 41.4931 15.5883C41.7149 15.4713 41.8921 15.2848 41.9978 15.0574C42.0391 14.994 42.0664 14.9227 42.0782 14.848C42.1757 13.1038 42.19 11.3855 41.0569 9.88521C40.3544 8.92395 39.3545 8.22113 38.2121 7.8856C37.0697 7.55006 35.8486 7.60051 34.7378 8.02915C33.627 8.45779 32.6885 9.24069 32.0677 10.2566C31.4468 11.2726 31.1782 12.4649 31.3035 13.6489C31.4213 14.8439 31.9354 15.9652 32.764 16.8344C33.5926 17.7035 34.6881 18.2706 35.8761 18.4453C36.1142 18.4826 36.3552 18.4998 36.5933 18.517C37.2301 18.5629 37.6031 18.91 37.5887 19.4522C37.5744 19.9944 37.167 20.3128 36.5388 20.3128C33.4865 20.3128 30.6351 18.1125 29.7745 15.1262C29.4831 14.1453 29.4038 13.1136 29.5417 12.0996C29.6797 11.0856 30.0317 10.1126 30.5745 9.2451C31.1174 8.37762 31.8385 7.63553 32.6901 7.06812C33.5417 6.5007 34.5042 6.12093 35.5138 5.95403C36.5235 5.78713 37.557 5.83691 38.5459 6.10007C39.5348 6.36323 40.4564 6.83375 41.2495 7.48039C42.0427 8.12703 42.6891 8.93498 43.1461 9.85062C43.603 10.7663 43.8599 11.7686 43.8998 12.7912C43.9423 13.6756 43.8923 14.562 43.7506 15.4361C43.6559 15.9467 43.24 16.3971 42.89 17.0052C42.9912 17.0595 43.0872 17.1229 43.1769 17.1946C43.9973 17.9031 44.8177 18.6117 45.6238 19.3346C45.8427 19.558 46.0478 19.7946 46.2377 20.0431L46.2521 45.5312ZM3.72132 44.4153H42.5056C42.3421 44.2919 42.2417 44.2058 42.1327 44.1284C35.9383 39.6208 29.7468 35.1122 23.5581 30.6027C23.5036 30.5434 23.4376 30.4958 23.3642 30.4629C23.2908 30.4299 23.2114 30.4122 23.1309 30.4109C23.0504 30.4095 22.9705 30.4246 22.896 30.4551C22.8215 30.4856 22.7539 30.5309 22.6975 30.5883C18.7904 33.457 14.8699 36.3103 10.936 39.1484L3.72132 44.4153ZM16.5901 32.8173L1.84522 22.0885V43.5461L16.5901 32.8173ZM44.4276 22.0885L29.6626 32.8173L44.4276 43.5575V22.0885ZM38.0305 13.1124C38.0305 12.5703 38.0133 12.0281 38.0305 11.4888C38.0433 11.3786 38.017 11.2673 37.9562 11.1745C37.8954 11.0817 37.8039 11.0132 37.6977 10.981C37.3392 10.8116 36.9435 10.7359 36.5477 10.761C36.1519 10.7861 35.7689 10.9113 35.4347 11.1248C35.1005 11.3382 34.8259 11.633 34.6366 11.9815C34.4473 12.3301 34.3496 12.7209 34.3526 13.1175C34.3555 13.5141 34.4591 13.9034 34.6535 14.2491C34.848 14.5947 35.127 14.8854 35.4644 15.0938C35.8017 15.3023 36.1865 15.4217 36.5826 15.4409C36.9788 15.4601 37.3733 15.3785 37.7293 15.2037C37.828 15.1714 37.9126 15.1062 37.969 15.019C38.0254 14.9318 38.0502 14.8279 38.0391 14.7246C38.0161 14.1939 38.0305 13.6518 38.0305 13.1124Z" fill="#FFC42C"/>
<path d="M23.3974 0L27.9586 3.89277C28.7331 4.5583 29.5048 5.23243 30.2765 5.90083C30.7498 6.31105 30.8818 6.66389 30.7096 7.07124C30.5031 7.56465 30.0785 7.67366 29.5995 7.67366H11.3806V8.21297C11.3806 11.948 11.3806 15.6772 11.3806 19.4007C11.3806 20.2183 11.0651 20.6601 10.4827 20.663C9.90039 20.6658 9.57623 20.2212 9.57623 19.4065V7.14296C9.57623 6.15901 9.8631 5.87214 10.8384 5.87214H27.4767L23.1249 2.09986L20.6464 4.23701C20.3595 4.47798 20.0727 4.67878 19.6682 4.56404C19.5247 4.5306 19.3919 4.46159 19.2821 4.36337C19.1723 4.26515 19.089 4.14088 19.0399 4.002C18.9907 3.86312 18.9773 3.7141 19.0009 3.56868C19.0245 3.42326 19.0843 3.28611 19.1748 3.16987C19.2254 3.09577 19.2852 3.02831 19.3526 2.96906C20.5173 1.97651 21.6848 0.986819 22.8553 0H23.3974Z" fill="#FFC42C"/>
<path d="M18.7904 14.9972C20.2046 14.9972 21.6217 14.9771 23.0331 14.9972C23.3564 15.0044 23.6678 15.1207 23.9167 15.3271C24.0084 15.4306 24.0739 15.5547 24.1076 15.6888C24.1412 15.823 24.142 15.9633 24.1099 16.0978C24.0779 16.2323 24.0138 16.3572 23.9232 16.4617C23.8327 16.5662 23.7182 16.6474 23.5896 16.6983C23.4052 16.7615 23.2108 16.7906 23.0159 16.7844C20.1472 16.7844 17.2872 16.7844 14.4357 16.7844C13.8477 16.7844 13.4891 16.5606 13.3686 16.1389C13.1936 15.505 13.6268 14.9915 14.3669 14.9915C15.8414 14.9886 17.3159 14.9972 18.7904 14.9972Z" fill="#FFC42C"/>
<path d="M18.6555 12.2867H14.5046C14.3399 12.2925 14.1752 12.2781 14.0141 12.2437C13.8176 12.201 13.6416 12.0923 13.5154 11.9358C13.3892 11.7792 13.3204 11.5842 13.3204 11.3831C13.3204 11.182 13.3892 10.9869 13.5154 10.8304C13.6416 10.6738 13.8176 10.5652 14.0141 10.5225C14.1911 10.4914 14.3709 10.4789 14.5505 10.4852H22.7721C22.9379 10.4793 23.104 10.488 23.2684 10.511C23.4787 10.5429 23.6707 10.6491 23.8094 10.8104C23.9481 10.9718 24.0244 11.1775 24.0244 11.3902C24.0244 11.603 23.9481 11.8087 23.8094 11.97C23.6707 12.1314 23.4787 12.2376 23.2684 12.2695C23.119 12.2886 22.9685 12.2963 22.818 12.2924L18.6555 12.2867Z" fill="#FFC42C"/>
<path d="M16.6475 21.2452C15.8816 21.2452 15.1128 21.2452 14.3526 21.2452C13.7186 21.2452 13.3284 20.8837 13.3313 20.3473C13.3317 20.2228 13.3578 20.0998 13.408 19.9859C13.4582 19.872 13.5313 19.7697 13.6229 19.6854C13.7145 19.6011 13.8225 19.5366 13.9401 19.496C14.0578 19.4554 14.1826 19.4395 14.3067 19.4494C15.8997 19.4303 17.4937 19.4303 19.0887 19.4494C19.2128 19.4431 19.3369 19.4623 19.4533 19.5057C19.5697 19.5491 19.676 19.6158 19.7657 19.7018C19.8554 19.7877 19.9267 19.8911 19.975 20.0056C20.0233 20.12 20.0478 20.2431 20.0468 20.3674C20.0468 20.8837 19.6452 21.228 19.0371 21.228C18.2425 21.2538 17.445 21.2452 16.6475 21.2452Z" fill="#FFC42C"/>
<path d="M28.3229 21.228C28.0074 21.228 27.689 21.2481 27.3763 21.228C27.1647 21.2117 26.9662 21.1194 26.8175 20.968C26.6687 20.8167 26.5799 20.6165 26.5673 20.4047C26.5475 20.1927 26.61 19.9812 26.742 19.814C26.8739 19.6468 27.0651 19.5368 27.2759 19.5068C27.991 19.4509 28.7094 19.4509 29.4245 19.5068C29.5295 19.5198 29.6309 19.5537 29.7226 19.6064C29.8144 19.6591 29.8947 19.7297 29.9588 19.8138C30.0229 19.898 30.0696 19.9941 30.0961 20.0966C30.1226 20.199 30.1283 20.3057 30.113 20.4104C30.1029 20.6216 30.0154 20.8216 29.8673 20.9724C29.7191 21.1232 29.5207 21.2142 29.3098 21.228C28.9827 21.2567 28.6528 21.228 28.3229 21.228Z" fill="#FFC42C"/>
<path d="M23.4577 21.2281C23.227 21.2289 23.0053 21.1392 22.8401 20.9783C22.6749 20.8174 22.5794 20.5981 22.5741 20.3675C22.5755 20.1327 22.6676 19.9075 22.8312 19.7391C22.9948 19.5706 23.2173 19.472 23.4519 19.4639C23.6926 19.4667 23.9229 19.5622 24.095 19.7305C24.267 19.8988 24.3675 20.127 24.3756 20.3675C24.3624 20.6014 24.2597 20.8212 24.0888 20.9814C23.9179 21.1416 23.6919 21.2299 23.4577 21.2281Z" fill="#FFC42C"/>
<path d="M11.3749 23.4199C11.3619 23.6489 11.2618 23.8642 11.0951 24.0218C10.9284 24.1793 10.7078 24.2671 10.4784 24.2671C10.2491 24.2671 10.0284 24.1793 9.86172 24.0218C9.69502 23.8642 9.59493 23.6489 9.58197 23.4199C9.59493 23.1909 9.69502 22.9756 9.86172 22.8181C10.0284 22.6605 10.2491 22.5728 10.4784 22.5728C10.7078 22.5728 10.9284 22.6605 11.0951 22.8181C11.2618 22.9756 11.3619 23.1909 11.3749 23.4199Z" fill="#FFC42C"/>
</svg>
