<svg width="57" height="57" viewBox="0 0 57 57" fill="none" xmlns="http://www.w3.org/2000/svg">
<path d="M28.0489 0.00440858C35.4945 0.00440858 42.9361 0.00440858 50.3739 0.00440858C53.1249 0.00440858 55.3203 1.68849 55.9346 4.26604C56.0448 4.74798 56.0981 5.2412 56.0933 5.73556C56.1021 20.6189 56.1021 35.5023 56.0933 50.3857C56.0933 53.7127 53.6994 56.1095 50.3739 56.1168C35.4905 56.1227 20.6072 56.1227 5.72381 56.1168C2.40268 56.1021 0 53.7038 0 50.3827C0 35.4994 0 20.617 0 5.73556C0 2.40708 2.39827 0.0132257 5.73115 0.00440858C13.1679 -0.00146953 20.6072 -0.00146953 28.0489 0.00440858ZM54.8971 11.3492H1.20795C1.19766 11.5431 1.17562 11.7033 1.17562 11.8635C1.17562 24.6974 1.17562 37.5283 1.17562 50.3563C1.17562 53.1102 3.01106 54.9221 5.77377 54.9221C20.6209 54.9221 35.468 54.9221 50.3151 54.9221C50.6993 54.9323 51.0836 54.9018 51.4614 54.831C53.6025 54.3637 54.9118 52.6458 54.9133 50.3019C54.9133 37.5082 54.9133 24.7145 54.9133 11.9208C54.9206 11.7386 54.9059 11.5593 54.8971 11.3506V11.3492ZM54.9221 10.103C54.9221 8.63347 54.9221 7.19039 54.9221 5.74879C54.9207 5.41918 54.9 5.08994 54.8604 4.76274C54.8288 4.56211 54.7771 4.36518 54.7061 4.17492C54.0786 2.30275 52.4621 1.19032 50.3166 1.19032H5.78993C5.66062 1.19032 5.53277 1.19032 5.40492 1.19032C3.33583 1.26085 1.48863 2.7245 1.27702 4.7642C1.0948 6.51735 1.23881 8.30282 1.23881 10.1045L54.9221 10.103Z" fill="white"/>
<path d="M21.8225 43.1277C21.8225 44.8676 21.8225 46.609 21.8225 48.3504C21.8151 49.9154 20.9716 50.7604 19.4065 50.7618C15.9071 50.7677 12.4072 50.7677 8.90678 50.7618C7.36231 50.7618 6.4997 49.8801 6.49823 48.3342C6.49823 44.8514 6.49823 41.3696 6.49823 37.8888C6.49823 36.3223 7.37995 35.4362 8.95087 35.4362C12.4327 35.4362 15.914 35.4362 19.3948 35.4362C20.9393 35.4362 21.8136 36.3046 21.821 37.8506C21.8283 39.6096 21.8225 41.3686 21.8225 43.1277Z" fill="white"/>
<path d="M28.8027 31.2833C22.2046 31.2833 15.6059 31.2833 9.00674 31.2833C7.63273 31.2833 6.77159 30.6529 6.54528 29.492C6.51292 29.2933 6.49963 29.0921 6.5056 28.8909C6.5056 25.3886 6.5056 21.8872 6.5056 18.3868C6.5056 16.8467 7.38732 15.962 8.9215 15.962C22.1933 15.962 35.4646 15.962 48.7354 15.962C50.2328 15.962 51.1278 16.8438 51.1307 18.3574C51.1366 21.8401 51.1366 25.3229 51.1307 28.8057C51.1307 30.4222 50.2769 31.2819 48.6546 31.2833C42.0329 31.2853 35.4156 31.2853 28.8027 31.2833ZM28.8204 17.1391H8.96412C7.99864 17.1391 7.68122 17.4595 7.68122 18.425C7.68122 21.8881 7.68122 25.3523 7.68122 28.8175C7.68122 29.7976 8.01627 30.1253 9.01261 30.1253H48.6017C49.6186 30.1253 49.9448 29.7947 49.9448 28.769C49.9448 25.3783 49.9448 21.9876 49.9448 18.5969C49.9448 17.4081 49.6788 17.1391 48.4988 17.1391H28.8204Z" fill="white"/>
<path d="M38.3914 38.3341H27.5639C27.3978 38.3341 27.2333 38.3341 27.0687 38.3341C26.7042 38.3208 26.4559 38.1357 26.4544 37.7698C26.4544 37.3789 26.7013 37.182 27.0981 37.182H49.3041C49.451 37.182 49.6362 37.1291 49.7346 37.1981C49.9477 37.3451 50.2181 37.5317 50.2769 37.7507C50.3621 38.0754 50.1108 38.29 49.7684 38.3238C49.5856 38.3382 49.4022 38.3431 49.2188 38.3385L38.3914 38.3341Z" fill="white"/>
<path d="M36.7911 47.864H46.1872C46.3695 47.864 46.5943 47.8169 46.7251 47.9022C46.9147 48.0285 47.1527 48.2548 47.1571 48.4429C47.1615 48.631 46.9338 48.8647 46.7486 48.997C46.6237 49.0881 46.3959 49.0499 46.2152 49.0499H27.4214C27.2568 49.0499 27.0467 49.0969 26.9379 49.0146C26.7425 48.8676 26.4765 48.634 26.4809 48.4415C26.4853 48.249 26.7616 48.0315 26.9644 47.8904C27.0775 47.8111 27.2847 47.864 27.4493 47.864H36.7911Z" fill="white"/>
<path d="M35.2539 43.6846H27.3905C27.2259 43.6846 27.0173 43.7361 26.907 43.6552C26.7204 43.52 26.4809 43.3011 26.4779 43.1144C26.475 42.9278 26.7145 42.7074 26.8982 42.5707C27.0084 42.4884 27.2171 42.5311 27.3817 42.5311H43.1056C43.2702 42.5311 43.473 42.4943 43.5891 42.5751C43.7625 42.6956 43.9917 42.9102 43.9829 43.0748C43.9741 43.2761 43.7757 43.5156 43.5964 43.645C43.4745 43.7361 43.2423 43.6846 43.0601 43.6846H35.2539Z" fill="white"/>
<path d="M38.5016 2.87143C41.7081 2.87143 44.9146 2.86408 48.1211 2.87143C49.5583 2.87143 50.6751 3.76343 50.9499 5.07572C51.3129 6.81417 50.0756 8.36305 48.2475 8.4424C47.717 8.46592 47.185 8.4424 46.653 8.4424C40.8092 8.4424 34.9649 8.4424 29.1201 8.4424C27.6756 8.4424 26.6116 7.74291 26.206 6.54672C25.5888 4.72744 26.9114 2.8729 28.8835 2.86408C32.0856 2.85526 35.2921 2.87143 38.5016 2.87143Z" fill="white"/>
<path d="M7.91338 2.87591C8.29246 2.86132 8.67053 2.92413 9.02453 3.06051C9.37852 3.1969 9.70101 3.40398 9.97231 3.66914C10.2436 3.9343 10.458 4.25196 10.6025 4.60273C10.7469 4.95351 10.8184 5.33004 10.8125 5.70936C10.8066 6.08867 10.7235 6.4628 10.5682 6.80891C10.4129 7.15503 10.1887 7.46587 9.90928 7.72246C9.62986 7.97905 9.30109 8.17601 8.94303 8.30132C8.58496 8.42663 8.20512 8.47766 7.82668 8.45129C7.09461 8.4311 6.39903 8.12719 5.88683 7.60375C5.37463 7.08031 5.0859 6.3783 5.0816 5.64596C5.09321 4.90421 5.39724 4.19704 5.92755 3.67829C6.45786 3.15954 7.17155 2.87117 7.91338 2.87591Z" fill="white"/>
<path d="M17.383 5.66795C17.381 6.21689 17.2166 6.75294 16.9105 7.20864C16.6045 7.66433 16.1704 8.01928 15.663 8.2288C15.1557 8.43833 14.5976 8.49306 14.0592 8.3861C13.5208 8.27914 13.0261 8.01528 12.6373 7.62774C12.2485 7.2402 11.9831 6.74629 11.8745 6.20822C11.7658 5.67014 11.8188 5.11195 12.0267 4.60392C12.2346 4.09588 12.5882 3.66072 13.0429 3.35322C13.4977 3.04572 14.0332 2.87963 14.5821 2.87585C15.3231 2.87701 16.0335 3.17127 16.5583 3.69439C17.083 4.21751 17.3795 4.92699 17.383 5.66795Z" fill="white"/>
<path d="M24.1002 5.65771C24.0979 6.20606 23.9328 6.74138 23.626 7.19586C23.3192 7.65034 22.8843 8.00352 22.3766 8.21066C21.8689 8.41781 21.3111 8.4696 20.7739 8.35947C20.2367 8.24935 19.7443 7.98226 19.359 7.59204C18.9738 7.20183 18.713 6.70604 18.6097 6.16749C18.5064 5.62894 18.5653 5.07186 18.779 4.56681C18.9926 4.06177 19.3513 3.63148 19.8096 3.33046C20.268 3.02945 20.8054 2.87124 21.3537 2.87589C22.0845 2.88781 22.7815 3.18583 23.295 3.70594C23.8085 4.22606 24.0976 4.9268 24.1002 5.65771Z" fill="white"/>
</svg>
