<svg width="105" height="103" viewBox="0 0 105 103" fill="none" xmlns="http://www.w3.org/2000/svg">
<path d="M63.8131 79.498V87.7433C64.199 87.7631 64.568 87.7969 64.9399 87.7969C67.0808 87.7969 69.2245 87.7969 71.3682 87.7969C74.9035 87.8278 77.3825 89.6983 78.3684 93.0646C79.0858 95.521 79.7966 97.9802 80.5009 100.442C81.0192 102.251 80.4474 102.997 78.529 103C60.8553 103 43.1815 103 25.5078 103C23.6655 103 23.0964 102.2 23.6965 100.451C24.5847 97.8629 25.4824 95.2788 26.3895 92.6984C27.4909 89.58 29.9079 87.8363 33.2404 87.8053C35.7334 87.7828 38.2236 87.8053 40.8012 87.8053V79.56C40.4152 79.5403 40.0124 79.5008 39.6096 79.5008C29.844 79.5008 20.0785 79.5008 10.313 79.5008C5.45649 79.5008 1.6423 76.7656 0.402828 72.3739C0.13788 71.3895 0.0089796 70.3735 0.0197189 69.3541C0.00657296 49.607 0 29.86 0 10.113C0.0140849 4.20857 4.20857 0 10.0932 0C38.2386 0 66.3831 0 94.5266 0C100.476 0 104.648 4.18885 104.654 10.1721C104.669 29.8497 104.669 49.5263 104.654 69.202C104.654 75.2754 100.473 79.467 94.3858 79.4811C84.6531 79.5065 74.9204 79.4811 65.1878 79.4811L63.8131 79.498ZM52.3339 76.1937C66.2836 76.1937 80.2314 76.1937 94.1773 76.1937C94.8433 76.2173 95.5098 76.171 96.1661 76.0557C99.4395 75.3514 101.411 72.7316 101.411 69.1287C101.411 49.5976 101.411 30.0666 101.411 10.5355C101.411 5.90439 98.7239 3.24516 94.0562 3.24235H10.589C5.93256 3.23671 3.24235 5.91566 3.23953 10.5355V68.9259C3.23953 73.5317 5.89876 76.1909 10.4904 76.1937H52.3339Z" fill="#D2303A"/>
<path d="M19.9273 65.0132H24.6965V63.83C24.6965 58.9116 24.6965 53.9922 24.6965 49.0719C24.6965 47.469 25.243 46.9197 26.843 46.9084C28.2121 46.9084 29.5839 46.9084 30.953 46.9084C32.6432 46.9084 33.1728 47.4352 33.1728 49.1001C33.1728 54.1255 33.1728 59.151 33.1728 64.1765V65.354H37.9616V64.1427C37.9616 58.3097 37.9616 52.4767 37.9616 46.6436C37.9616 44.838 38.4743 44.3253 40.2659 44.3196C41.6012 44.3196 42.9364 44.3196 44.2717 44.3196C45.852 44.3196 46.4379 44.9028 46.4379 46.469C46.4379 52.3396 46.4379 58.2083 46.4379 64.0751V65.323H51.1986V64.1202C51.1986 57.0214 51.1986 49.9226 51.1986 42.8238C51.1986 40.7928 51.6324 40.3674 53.6804 40.3646C54.9818 40.3646 56.2805 40.3646 57.5819 40.3646C59.0552 40.3787 59.6975 41.0181 59.6975 42.4999C59.6975 49.5987 59.6975 56.6965 59.6975 63.7934V65.1371H64.4187V63.8864C64.4187 54.75 64.4187 45.6136 64.4187 36.4772C64.4187 34.4377 64.8554 34.001 66.8864 33.9982H70.6809C72.3711 33.9982 72.9514 34.5926 72.9514 36.2912C72.9514 45.5347 72.9514 54.7763 72.9514 64.016V65.354H77.6585V29.3474C77.6585 27.2403 78.0783 26.8121 80.1741 26.8121C81.546 26.8121 82.915 26.8121 84.2869 26.8121C85.4728 26.829 86.1038 27.4375 86.1855 28.6093C86.2081 28.9248 86.1855 29.2403 86.1855 29.5587V65.354H91.2561V13.9638C91.2561 13.5413 91.2561 13.1187 91.2843 12.699C91.3631 11.7722 91.9406 11.2905 92.8139 11.2905C93.6872 11.2905 94.2703 11.7553 94.4618 12.623C94.5066 12.9364 94.5189 13.2535 94.4984 13.5695V66.1597C94.4984 67.9935 93.9576 68.5316 92.104 68.5316C65.5737 68.5316 39.0434 68.5316 12.513 68.5316C12.1299 68.5316 11.6679 68.6048 11.3862 68.4245C10.9186 68.1428 10.3158 67.6978 10.2313 67.2414C10.1355 66.7287 10.3918 65.9005 10.7947 65.6076C11.3581 65.1935 11.4285 64.7878 11.4257 64.1991C11.4116 61.4215 11.4257 58.6468 11.4257 55.8693C11.4257 54.2382 12.0285 53.6157 13.6257 53.6157C14.9976 53.6157 16.3667 53.6157 17.7385 53.6157C19.4005 53.6157 19.9161 54.1424 19.9217 55.8411C19.9217 58.475 19.9217 61.1117 19.9217 63.7455L19.9273 65.0132Z" fill="#D2303A"/>
<path d="M75.6388 18.8344C74.5711 18.5696 73.8303 18.4118 73.1035 18.1949C72.6753 18.0654 72.1626 17.9386 71.8978 17.6315C71.5908 17.2738 71.2753 16.6428 71.3964 16.2738C71.5429 15.8428 72.1063 15.4625 72.5767 15.2568C72.9176 15.1103 73.4218 15.2315 73.8134 15.3216C75.5233 15.7047 77.2275 16.1132 78.9346 16.5245C80.4614 16.8963 80.9798 17.7611 80.6248 19.3189C80.2107 21.0936 79.7966 22.8711 79.36 24.643C79.0783 25.7698 78.2473 26.3614 77.3233 26.1247C76.4782 25.905 76.05 24.9726 76.3092 23.8993C76.405 23.4965 76.4979 23.0965 76.6332 22.4908C76.1965 22.7922 75.9092 22.9782 75.6331 23.181C72.295 25.6346 68.9456 28.0741 65.6272 30.5558C64.8736 31.134 63.9427 31.4327 62.9933 31.4009C59.0946 31.3728 55.1959 31.4009 51.2972 31.3756C50.9529 31.3564 50.6084 31.4093 50.2858 31.5311C49.9632 31.6528 49.6696 31.8407 49.4239 32.0827C46.2238 35.0884 42.959 38.0293 39.7758 41.0519C39.4888 41.3541 39.1292 41.5778 38.7312 41.7016C38.3333 41.8254 37.9102 41.8451 37.5025 41.759C33.4883 41.0885 29.4656 40.4519 25.4571 39.7533C25.0202 39.6543 24.5669 39.6519 24.129 39.7463C23.6911 39.8407 23.2791 40.0296 22.9218 40.2998C20.4344 42.0689 17.8709 43.7337 15.3159 45.4211C14.8228 45.7581 14.2994 46.0486 13.7525 46.2887C13.36 46.4548 12.9197 46.4687 12.5175 46.3275C12.1154 46.1863 11.7803 45.9003 11.5778 45.5253C11.3778 45.1673 11.3248 44.7457 11.4299 44.3493C11.535 43.953 11.7901 43.6131 12.1412 43.4013C15.6934 41.0716 19.2343 38.7279 22.8175 36.4349C23.2787 36.1969 23.8051 36.1168 24.3162 36.2067C28.5867 36.8293 32.8488 37.5194 37.1194 38.1307C37.585 38.147 38.0387 37.9813 38.3842 37.6687C41.5824 34.7165 44.7571 31.738 47.9084 28.7333C48.2286 28.4139 48.612 28.1649 49.0341 28.0024C49.4561 27.8399 49.9075 27.7674 50.3592 27.7896C54.4325 27.8234 58.5087 27.8149 62.5849 27.7896C63.0666 27.7956 63.5396 27.6605 63.9455 27.4008C67.6301 24.7078 71.2865 21.9725 74.9514 19.2513C75.0895 19.1555 75.2444 19.071 75.6388 18.8344Z" fill="#D2303A"/>
<path d="M64.9061 14.5441C63.7793 14.2624 62.9342 14.0934 62.0891 13.8596C61.1285 13.5779 60.5707 12.8088 60.7228 12.0201C60.875 11.2313 61.7285 10.7778 62.7511 10.9947C64.7399 11.4201 66.7202 11.8877 68.6949 12.3807C69.6893 12.6314 70.1851 13.4483 69.9597 14.4765C69.5184 16.5329 69.0348 18.5808 68.509 20.6203C68.4629 20.8378 68.3727 21.0435 68.2441 21.2247C68.1154 21.406 67.951 21.559 67.761 21.6743C67.571 21.7897 67.3594 21.8649 67.1392 21.8953C66.919 21.9258 66.6949 21.9108 66.4808 21.8513C65.7286 21.6485 65.261 20.8231 65.4244 19.9161C65.5145 19.409 65.6751 18.9132 65.8638 18.178C64.3173 19.3048 62.9426 20.2485 61.6102 21.257C61.3158 21.5018 60.9712 21.6792 60.6009 21.7765C60.2305 21.8739 59.8433 21.8888 59.4665 21.8204C56.2072 21.3105 52.9339 20.8767 49.6746 20.3752C49.3913 20.3102 49.0959 20.3192 48.8171 20.4017C48.5383 20.4841 48.2855 20.637 48.0831 20.8457C44.8773 23.8993 41.604 26.8937 38.4293 29.9642C38.1398 30.2644 37.7772 30.484 37.3771 30.6016C36.9771 30.7191 36.5533 30.7305 36.1475 30.6347C32.0601 29.953 27.9783 29.3023 23.888 28.6093C23.5332 28.5289 23.1656 28.5235 22.8085 28.5933C22.4515 28.6632 22.113 28.8068 21.8147 29.0149C18.9104 30.9868 15.9751 32.9136 13.0454 34.8489C12.0229 35.5222 11.0566 35.4433 10.544 34.663C9.8876 33.6686 10.0876 32.7981 11.1693 32.0685C14.3666 29.9023 17.5892 27.7726 20.7471 25.5669C21.1433 25.2826 21.5943 25.0835 22.0713 24.9822C22.5484 24.8809 23.0413 24.8795 23.519 24.9782C27.4346 25.6064 31.3586 26.181 35.2742 26.8205C35.6414 26.9051 36.0243 26.8912 36.3844 26.7804C36.7444 26.6697 37.0689 26.4658 37.325 26.1895C40.4406 23.195 43.6238 20.2738 46.7591 17.2963C47.051 16.9949 47.4139 16.7717 47.8146 16.6472C48.2153 16.5227 48.6408 16.5008 49.0521 16.5836C52.4325 17.0935 55.7903 17.5611 59.1651 18.0231C59.4987 18.0922 59.8459 18.0507 60.1538 17.9048C61.6919 16.8568 63.1933 15.7751 64.9061 14.5441Z" fill="#D2303A"/>
</svg>
