<svg width="105" height="104" viewBox="0 0 105 104" fill="none" xmlns="http://www.w3.org/2000/svg">
<path d="M16.3035 23.5773H15.0446C10.6692 23.5773 6.29387 23.5773 1.91851 23.5773C0.424854 23.5745 0.0316373 23.1841 0.0288084 21.7017C0.0231506 18.0072 0.110846 14.29 0.00334832 10.587C-0.140925 5.24038 4.39663 0.634939 9.85357 0.750924C14.5099 0.849935 19.1691 0.770726 23.8283 0.770726C38.895 0.770726 53.9636 0.770726 69.0341 0.770726C73.8857 0.779213 77.5151 3.36482 78.6184 7.67889C78.857 8.67178 78.972 9.69037 78.9607 10.7115C78.9862 19.1812 78.9749 27.6509 78.9749 36.1206V37.6454C80.8193 36.2762 82.4487 35.1333 83.999 33.8943C85.0598 33.0456 85.504 32.9862 86.545 33.8943C91.2014 38.016 96.5678 39.9227 102.814 39.1758C103.008 39.1762 103.199 39.2222 103.372 39.3101C103.545 39.3981 103.695 39.5256 103.81 39.6822C104.034 40.1525 104.145 40.669 104.132 41.19C104.155 45.3202 104.047 49.4532 104.175 53.5778C104.288 57.2101 103.148 60.3671 101.083 63.2554C97.7559 67.9089 93.4447 71.5412 88.8986 74.9133C88.0754 75.5215 87.2183 76.0845 86.412 76.7096C85.8321 77.1566 85.2663 77.2386 84.6609 76.8398C83.3993 76.0024 82.1451 75.1537 80.8985 74.2938C80.3808 73.9373 79.8971 73.5356 79.2747 73.0604V85.7904H80.4402C84.7779 85.7904 89.1155 85.7904 93.4531 85.7904C95.0543 85.7904 95.4588 86.1949 95.4617 87.7706C95.4617 90.0337 95.49 92.2969 95.4617 94.5458C95.3825 99.7821 91.7417 103.598 86.511 103.972C86.0895 104 85.6624 104 85.2409 104C65.6573 104 46.0719 104 26.4847 104C24.6232 104 22.8071 103.779 21.1692 102.851C17.9018 101.007 16.3006 98.1838 16.3006 94.427C16.3006 71.313 16.3006 48.1981 16.3006 25.0823L16.3035 23.5773ZM101.736 41.7897C95.3881 41.9878 89.9566 39.9906 85.2409 35.9367C80.5845 40.231 75.0568 42.0274 68.7908 41.7897C68.7908 45.7502 68.9408 49.5607 68.7512 53.3571C68.5589 57.2157 69.9818 60.353 72.3298 63.2328C75.8716 67.5723 80.2507 70.9641 84.7769 74.1438C85.0287 74.3192 85.6454 74.2315 85.9481 74.0392C90.1281 71.394 93.9218 68.1829 97.2212 64.4973C100.135 61.2016 102.211 57.5693 101.747 52.9384C101.685 52.3104 101.747 51.6711 101.747 51.0346L101.736 41.7897ZM34.7224 88.2148C34.7224 90.5118 34.7422 92.724 34.7224 94.9391C34.7166 97.0794 33.9403 99.146 32.5357 100.761C32.3461 100.987 32.1679 101.225 31.8539 101.61H84.9523C85.4106 101.61 85.8689 101.61 86.3272 101.57C89.3145 101.366 91.9708 99.4568 92.4885 96.5119C92.9638 93.8132 92.8308 91.0041 92.9666 88.2035L34.7224 88.2148ZM16.2865 20.9125C16.2865 16.9718 16.36 13.1613 16.2554 9.35643C16.2457 8.39429 15.9948 7.44994 15.5258 6.60979C15.0568 5.76964 14.3846 5.06052 13.5707 4.5473C11.2482 3.01404 8.77293 2.6576 6.26087 3.95324C3.74881 5.24887 2.45883 7.44975 2.43903 10.3098C2.41357 13.5885 2.43903 16.87 2.43903 20.1515C2.4561 20.4068 2.48821 20.6609 2.53521 20.9125H16.2865ZM47.7438 13.3876H66.8021C68.2166 13.3876 68.9662 12.952 68.9945 12.1033C69.0228 11.2546 68.2533 10.7596 66.7597 10.7596C54.0579 10.7596 41.3543 10.7596 28.6488 10.7596C28.3659 10.7596 28.083 10.7596 27.8001 10.7596C27.0221 10.8246 26.5243 11.2405 26.5073 12.0269C26.4903 12.8756 27.025 13.2971 27.8397 13.365C28.1537 13.3904 28.4734 13.365 28.793 13.365L47.7438 13.3876ZM47.7438 18.126H28.6884C27.1608 18.126 26.5327 18.4825 26.5016 19.3679C26.4705 20.2533 27.1777 20.7314 28.694 20.7314C41.3995 20.7314 54.1041 20.7314 66.8078 20.7314C67.1925 20.7314 67.6847 20.8361 67.9393 20.6437C68.3693 20.3241 68.887 19.8149 68.9153 19.3594C68.9379 18.986 68.3495 18.5107 67.9365 18.2052C67.696 18.0327 67.2547 18.1317 66.9011 18.1317L47.7438 18.126ZM26.4903 34.4148C26.5111 36.1442 27.2114 37.7961 28.4399 39.0135C29.6685 40.2309 31.3266 40.9162 33.0562 40.9213C33.9057 40.9231 34.7471 40.757 35.5321 40.4323C36.3171 40.1077 37.0301 39.631 37.6301 39.0297C38.2301 38.4283 38.7053 37.7143 39.0282 36.9286C39.3511 36.1429 39.5155 35.301 39.5117 34.4516C39.5088 32.7219 38.8241 31.0631 37.6061 29.835C36.388 28.6068 34.7349 27.9085 33.0053 27.8914C32.1466 27.8826 31.2948 28.0455 30.4999 28.3703C29.7049 28.6952 28.9829 29.1755 28.3761 29.7831C27.7692 30.3907 27.2898 31.1134 26.966 31.9088C26.6422 32.7041 26.4805 33.5561 26.4903 34.4148ZM32.9968 60.005C34.281 60.0049 35.5364 59.6249 36.605 58.9126C37.6736 58.2004 38.5076 57.1879 39.0018 56.0026C39.496 54.8173 39.6285 53.5123 39.3824 52.2519C39.1364 50.9915 38.5228 49.8321 37.6191 48.9197C36.7154 48.0074 35.5619 47.3828 34.3038 47.1248C33.0458 46.8667 31.7396 46.9867 30.5497 47.4697C29.3598 47.9526 28.3393 48.7769 27.617 49.8386C26.8946 50.9004 26.5026 52.1522 26.4903 53.4363C26.4925 55.1665 27.1769 56.826 28.395 58.0548C29.6131 59.2835 31.2667 59.9822 32.9968 59.9993V60.005ZM32.8553 66.3078C31.9984 66.3102 31.1507 66.4852 30.3628 66.8221C29.5749 67.1591 28.8629 67.6512 28.2692 68.2692C27.6755 68.8872 27.2123 69.6183 26.9072 70.4191C26.6021 71.2199 26.4612 72.0739 26.4931 72.9302C26.5164 74.218 26.9213 75.4698 27.6566 76.5273C28.3919 77.5847 29.4245 78.4001 30.6236 78.8702C31.8227 79.3403 33.1343 79.444 34.3924 79.1681C35.6504 78.8922 36.7983 78.2491 37.6906 77.3203C38.5829 76.3915 39.1794 75.2188 39.4047 73.9507C39.63 72.6826 39.4738 71.3762 38.9561 70.1969C38.4383 69.0176 37.5821 68.0186 36.4961 67.3262C35.4101 66.6339 34.143 66.2794 32.8553 66.3078ZM56.8642 32.4713C60.2589 32.4713 63.6366 32.4713 67.0228 32.4713C68.0581 32.4713 68.7625 31.9423 68.7908 31.1927C68.8191 30.443 68.1373 29.8971 67.0935 29.8688C66.9549 29.8688 66.8106 29.8688 66.672 29.8688C60.1127 29.8688 53.5534 29.8688 46.9942 29.8688C46.6423 29.8529 46.2897 29.8728 45.9418 29.9282C45.1073 30.1007 44.6066 31.0597 45.1299 31.7047C45.5416 32.1474 46.1102 32.4114 46.7141 32.4402C50.0748 32.5053 53.4695 32.4713 56.8642 32.4713ZM55.7326 70.834H64.3975C64.6437 70.834 64.8898 70.834 65.1359 70.834C66.0128 70.8142 66.5815 70.3644 66.5928 69.4988C66.5928 68.5794 65.9789 68.2456 65.1104 68.2484C60.637 68.2484 56.1645 68.2484 51.693 68.2484C49.8966 68.2484 48.0974 68.2031 46.3181 68.2908C46.0736 68.3233 45.8394 68.4096 45.6325 68.5437C45.4255 68.6778 45.251 68.8561 45.1214 69.066C45.0487 69.2862 45.03 69.5206 45.0669 69.7496C45.1039 69.9785 45.1953 70.1952 45.3336 70.3814C45.6165 70.6841 46.2021 70.8114 46.6575 70.817C49.659 70.851 52.6887 70.834 55.7157 70.834H55.7326ZM53.8938 38.7317C56.2503 38.7317 58.6096 38.7317 60.9661 38.7317C62.1967 38.7317 62.7228 38.3045 62.6974 37.3993C62.6747 36.5506 62.1542 36.1319 61 36.1319C56.2852 36.1319 51.5704 36.1319 46.8555 36.1319C45.7579 36.1319 45.1922 36.5987 45.1724 37.4502C45.1526 38.3017 45.6363 38.7232 46.8301 38.7289C49.1583 38.7402 51.5176 38.7317 53.8769 38.7317H53.8938ZM52.5982 58.0502C54.5784 58.0502 56.5587 58.0502 58.5389 58.0502C59.6535 58.0502 60.372 57.4845 60.3466 56.7093C60.3211 55.9342 59.628 55.4307 58.5785 55.4278C54.618 55.4278 50.6661 55.4278 46.7226 55.4278C45.7268 55.4278 44.9036 56.0898 44.9856 56.8762C45.0847 57.872 45.8343 58.0587 46.683 58.0559C48.6293 58.0446 50.6067 58.0502 52.5812 58.0502H52.5982ZM52.6322 74.5201H46.4737C45.625 74.5201 44.963 74.8482 44.9517 75.762C44.9517 76.6333 45.5458 77.1227 46.3944 77.1255C50.5586 77.1481 54.7227 77.1481 58.8868 77.1255C59.6422 77.1255 60.2051 76.6927 60.3013 75.9402C60.3918 75.1226 59.7355 74.7803 59.0736 74.5823C58.7639 74.5188 58.4469 74.4978 58.1315 74.5201C56.289 74.5144 54.4521 74.5144 52.6208 74.5201H52.6322ZM52.4143 49.1732C50.4794 49.1732 48.5444 49.1732 46.6066 49.1732C45.5995 49.1732 44.8668 49.7559 44.9772 50.531C45.0988 51.3797 45.6985 51.7588 46.5529 51.7588C50.4605 51.7588 54.3672 51.7588 58.273 51.7588C59.1782 51.7588 59.7808 51.3684 59.8911 50.4518C59.9873 49.6767 59.3593 49.1816 58.3267 49.176C56.3408 49.1647 54.3691 49.176 52.3974 49.1732H52.4143Z" fill="#D2303A"/>
<path d="M81.7585 57.2412L88.6808 50.2792C89.2041 49.7559 89.7247 49.2297 90.2508 48.7092C90.8562 48.1095 91.5521 47.8917 92.1943 48.5593C92.794 49.1845 92.5762 49.8662 92.0104 50.432C88.9231 53.5249 85.833 56.615 82.7401 59.7023C82.0866 60.3558 81.4813 60.3558 80.8334 59.7023C80.0017 58.8395 79.1361 58.005 78.2874 57.1563C77.7217 56.5905 77.518 55.8974 78.112 55.2892C78.7485 54.6414 79.4558 54.8479 80.0527 55.4646C80.5958 56.0049 81.122 56.5707 81.7585 57.2412Z" fill="#D2303A"/>
<path d="M73.4076 47.3514C72.5872 47.1845 71.88 46.9949 71.8404 46.0982C71.8064 45.2835 72.3298 44.9072 73.1615 44.7573C74.9182 44.4404 76.6608 44.0246 78.4006 43.6257C79.1559 43.4503 79.8914 43.2495 80.2535 44.2056C80.5675 45.026 80.2167 45.6371 79.122 45.9426C77.2322 46.4574 75.3114 46.8846 73.4076 47.3514Z" fill="#D2303A"/>
<path d="M83.6538 43.7954C83.1079 43.2579 82.4883 42.9015 82.3328 42.4036C82.2281 42.0613 82.6864 41.4276 83.0456 41.0882C83.4671 40.6865 84.0499 40.4517 84.5732 40.1631C85.1899 39.8237 85.7387 39.9085 86.1348 40.5139C86.4997 41.0797 86.5874 41.6455 85.999 42.1151C85.2946 42.6667 84.5478 43.1618 83.6538 43.7954Z" fill="#D2303A"/>
<path d="M69.3113 94.2602C67.1303 94.2602 64.9463 94.2602 62.7624 94.2602C61.6309 94.2602 60.9463 93.6944 60.9859 92.9023C61.0198 92.1442 61.6988 91.6406 62.7568 91.6378C67.1944 91.6378 71.6263 91.6378 76.0526 91.6378C77.0597 91.6378 77.8461 92.263 77.8546 93.0296C77.8546 93.7369 77.1219 94.2545 76.0583 94.2602C73.8206 94.2659 71.5745 94.2602 69.3113 94.2602Z" fill="#D2303A"/>
<path d="M83.8858 94.031C83.4615 94.031 83.0371 94.0621 82.6156 94.031C81.8914 93.9659 81.2917 93.5388 81.4162 92.84C81.5039 92.3365 82.0414 91.6264 82.4912 91.5274C83.4594 91.3336 84.4565 91.3336 85.4247 91.5274C85.866 91.6123 86.5167 92.3421 86.4743 92.7156C86.4233 93.1852 85.8321 93.717 85.3427 93.9801C84.9608 94.1866 84.378 94.0225 83.8858 94.0225V94.031Z" fill="#D2303A"/>
<path d="M37.0958 34.3922C37.1045 34.9297 37.006 35.4636 36.8061 35.9626C36.6061 36.4617 36.3088 36.9159 35.9314 37.2988C35.5541 37.6817 35.1042 37.9856 34.6081 38.1928C34.112 38.3999 33.5796 38.5062 33.042 38.5054C32.5034 38.5071 31.9696 38.4026 31.4713 38.198C30.973 37.9934 30.5199 37.6927 30.1378 37.313C29.7558 36.9333 29.4522 36.482 29.2445 35.985C29.0368 35.488 28.9291 34.9549 28.9274 34.4162C28.9257 33.8775 29.0302 33.3438 29.2348 32.8455C29.4394 32.3472 29.7401 31.8941 30.1198 31.512C30.4995 31.1299 30.9508 30.8264 31.4478 30.6187C31.9448 30.411 32.4779 30.3033 33.0166 30.3016C33.5547 30.2963 34.0885 30.3985 34.5865 30.6024C35.0846 30.8062 35.5369 31.1075 35.9169 31.4885C36.2969 31.8696 36.597 32.3228 36.7994 32.8214C37.0019 33.32 37.1027 33.8541 37.0958 34.3922Z" fill="#D2303A"/>
<path d="M37.0959 53.5892C37.0882 54.1291 36.9734 54.6622 36.7583 55.1575C36.5431 55.6528 36.2318 56.1005 35.8424 56.4747C35.453 56.8488 34.9932 57.142 34.4897 57.3372C33.9862 57.5324 33.4489 57.6258 32.9091 57.6118C31.8208 57.5844 30.7875 57.1281 30.0341 56.3424C29.2806 55.5566 28.8681 54.505 28.8864 53.4166C28.8952 52.8778 29.0107 52.3462 29.2262 51.8523C29.4418 51.3585 29.7531 50.9123 30.1422 50.5395C30.5312 50.1668 30.9904 49.8748 31.493 49.6806C31.9956 49.4864 32.5317 49.3938 33.0703 49.408C34.153 49.4455 35.1786 49.9029 35.9299 50.6833C36.6813 51.4637 37.0994 52.5059 37.0959 53.5892Z" fill="#D2303A"/>
<path d="M37.0987 72.8284C37.0912 73.9164 36.653 74.9571 35.88 75.7227C35.107 76.4882 34.0621 76.9164 32.9741 76.9134C31.8863 76.8956 30.8487 76.4519 30.0844 75.6775C29.3201 74.9031 28.8899 73.8599 28.8864 72.7719C28.8864 70.3899 30.6516 68.6558 33.059 68.6869C33.5977 68.6883 34.1308 68.7971 34.627 69.007C35.1231 69.2169 35.5724 69.5237 35.9486 69.9093C36.3248 70.295 36.6203 70.7518 36.8177 71.253C37.0152 71.7542 37.1107 72.2898 37.0987 72.8284Z" fill="#D2303A"/>
</svg>
