<svg width="76" height="104" viewBox="0 0 76 104" fill="none" xmlns="http://www.w3.org/2000/svg">
<path d="M8.47377 17.7199C7.56791 17.376 6.68212 17.1667 5.93107 16.7281C4.29995 15.7764 3.47149 14.2714 3.43996 12.388C3.40843 10.1721 3.41989 7.95332 3.43996 5.73742C3.45716 2.53539 5.63867 0.348145 8.85217 0.348145C19.7224 0.348145 30.5918 0.348145 41.4601 0.348145H66.4514C70.0061 0.348145 72.093 2.45512 72.1016 6.02981C72.1016 7.74979 72.1016 9.46977 72.1016 11.1898C72.1016 15.1572 70.932 16.6708 67.062 17.6454C67.2398 20.2254 68.1514 22.5445 70.0175 24.3189C73.9907 28.0943 75.5616 32.7268 75.5501 38.1046C75.5071 55.2299 75.5501 72.3551 75.5272 89.4804C75.5272 97.2862 69.4585 103.341 61.6412 103.349C45.7314 103.37 29.8216 103.37 13.9118 103.349C6.04 103.332 0 97.2719 0 89.3829C0 72.3265 0 55.2719 0 38.2192C0 35.3755 0.30673 32.5892 1.43332 29.9404C2.33631 27.8277 3.79256 26.1221 5.36347 24.4938C7.1745 22.6788 8.27755 20.2765 8.47377 17.7199ZM11.9969 17.5479C11.9367 17.8891 11.8707 18.1643 11.8392 18.4452C11.4923 21.6501 10.2626 24.5024 7.95204 26.7212C4.68121 29.8745 3.40843 33.6613 3.41989 38.0989C3.46003 55.1525 3.41989 72.2118 3.43996 89.2597C3.43996 95.4315 7.88898 99.9063 14.0465 99.9121C29.8837 99.9255 45.7219 99.9255 61.561 99.9121C67.5981 99.9121 72.0987 95.4401 72.1044 89.4231C72.1245 72.1917 72.1044 54.9575 72.1044 37.7262C72.1044 33.4807 70.8231 29.8257 67.6898 26.8473C65.7549 25.0098 64.5709 22.685 63.9632 20.0849C63.7711 19.2593 63.6765 18.4108 63.5332 17.5508L11.9969 17.5479Z" fill="#D2303A"/>
<path d="M8.59989 82.7151C8.59989 81.2503 8.66296 79.7797 8.58556 78.3177C8.46803 76.0616 9.44555 74.3904 11.1942 73.1033C13.8516 71.1482 16.9275 70.2653 20.1152 69.6805C23.6289 68.9986 27.2235 68.8344 30.7848 69.1932C31.4269 69.2649 31.8426 69.133 32.1751 68.5339C32.6768 67.6309 33.3217 66.8139 33.8119 65.8966C35.1077 63.4427 37.2519 62.577 39.8577 62.6057C43.3148 62.6429 46.5283 63.7065 49.6386 65.1168C54.8444 67.4761 59.4482 70.6838 63.2236 75.001C64.8777 76.8958 66.2938 78.9455 66.827 81.4825C66.9857 82.1441 67.0099 82.8309 66.8981 83.5021C66.7864 84.1733 66.5409 84.8152 66.1762 85.3897C64.4018 88.1961 62.6589 91.0226 60.8156 93.7889C59.4224 95.8816 57.3499 96.6556 54.8788 96.452C51.0568 96.1614 47.3387 95.0705 43.9656 93.25C43.7389 93.0933 43.4699 93.0094 43.1944 93.0094C42.9189 93.0094 42.6499 93.0933 42.4233 93.25C39.3331 95.033 35.9218 95.8042 32.4274 96.2055C27.0495 96.8218 21.7033 96.5782 16.5261 94.9184C14.6389 94.2826 12.8374 93.4161 11.1627 92.3384C9.36815 91.2147 8.47663 89.4517 8.58269 87.2358C8.64576 85.7193 8.59989 84.2144 8.59989 82.7151ZM60.6207 84.3749C60.7956 84.3606 61.0822 84.3491 61.366 84.3176C63.4214 84.0997 64.0291 83.191 63.2236 81.2703C62.7814 80.1791 62.1837 79.1576 61.4492 78.2374C57.0403 72.9141 51.5994 69.0355 44.966 67.006C43.0867 66.4516 41.1428 66.146 39.184 66.0972C37.2777 66.0399 36.604 67.1751 37.3436 68.9639C37.8266 70.1515 38.4699 71.2674 39.2557 72.2806C42.7157 76.6636 47.2106 79.7338 52.2043 82.0902C54.8186 83.3257 57.5534 84.2402 60.6064 84.3749H60.6207ZM29.5263 72.6246C29.3917 72.565 29.2515 72.5189 29.1078 72.487C24.977 72.335 20.9006 72.6618 16.9619 73.9862C15.8135 74.371 14.7124 74.8846 13.6796 75.517C11.4723 76.8872 11.4923 78.3091 13.714 79.7023C14.5917 80.246 15.5248 80.6948 16.4975 81.041C20.8691 82.609 25.407 82.9072 30.0022 82.6692C30.1836 82.6314 30.3597 82.5717 30.5268 82.4915C28.5345 79.3382 26.7256 76.2136 29.5263 72.6246Z" fill="#D2303A"/>
<path d="M37.7335 58.7129C27.4423 58.7301 18.9198 50.262 18.8883 39.988C18.8539 29.5076 27.2789 20.9564 37.636 20.9535C40.1263 20.9369 42.5953 21.413 44.9008 22.3545C47.2063 23.296 49.3028 24.6843 51.0696 26.4393C52.8364 28.1944 54.2386 30.2816 55.1954 32.5808C56.1522 34.88 56.6448 37.3457 56.6447 39.8361C56.6705 50.2276 48.1881 58.6985 37.7335 58.7129ZM39.5596 48.4474C39.7574 48.4245 39.9007 48.413 40.0411 48.3901C42.9307 47.9142 44.8227 45.6238 44.6278 42.8546C44.4328 40.0855 42.1682 38.1362 39.2385 38.1161C38.3097 38.1161 37.3809 38.1161 36.4521 38.1161C35.1163 38.1161 34.3279 37.4367 34.3537 36.3646C34.3795 35.2925 35.1363 34.6962 36.4177 34.6876C38.4903 34.6876 40.5629 34.6876 42.6355 34.6876C43.8824 34.6876 44.6564 33.9824 44.6421 32.9418C44.6278 31.9012 43.8767 31.282 42.6871 31.262C41.6608 31.2448 40.6317 31.262 39.5338 31.262C39.3732 29.8516 39.9408 27.9195 37.8138 27.8908C35.5778 27.8621 36.1999 29.8659 35.9992 31.219C35.7871 31.2476 35.6122 31.262 35.4431 31.2906C32.5764 31.7751 30.6873 34.1028 30.9224 36.8691C31.1546 39.5609 33.3906 41.5331 36.2572 41.5589C37.186 41.5589 38.1148 41.5589 39.0436 41.5589C40.4052 41.5589 41.1849 42.1867 41.1993 43.256C41.2136 44.3252 40.4195 44.9759 39.078 44.9759C37.0713 44.9759 35.0647 44.9759 33.0752 44.9759C31.7107 44.9759 30.931 45.598 30.9167 46.6673C30.9023 47.7365 31.6878 48.3872 33.0294 48.4044C34.0155 48.4044 35.0045 48.4044 35.9763 48.4044C36.2429 51.1879 36.5983 51.8444 37.7822 51.8272C38.9662 51.81 39.293 51.1908 39.5596 48.4474Z" fill="#D2303A"/>
</svg>
