<svg width="49" height="46" viewBox="0 0 49 46" fill="none" xmlns="http://www.w3.org/2000/svg">
<path d="M0.00281574 39.918C0.0816565 39.6167 0.149234 39.3126 0.236522 39.0142C0.568275 37.879 1.23751 36.8716 2.15535 36.1257C3.07319 35.3799 4.1962 34.9309 5.37525 34.8384L5.65682 34.8074V10.7103C5.65682 8.89981 6.35231 7.94809 8.08399 7.37086C8.98503 7.06958 9.88606 6.75984 10.804 6.45011C10.804 5.04224 10.804 3.63437 10.804 2.24621C10.7897 1.7455 10.9489 1.25524 11.2548 0.858549C11.5607 0.461856 11.9943 0.183137 12.4822 0.0696453C12.988 -0.0591486 13.5229 -0.00826359 13.9954 0.213604C14.4679 0.435471 14.8487 0.814547 15.0727 1.28605C15.2112 1.64574 15.2855 2.02695 15.2923 2.41234C15.3233 3.22327 15.2923 4.03421 15.2923 4.9099C16.275 4.58609 17.1901 4.28481 18.108 3.97789C21.042 2.98957 23.9788 2.00687 26.9072 1.00166C27.0937 0.921765 27.3005 0.902432 27.4985 0.946384C27.6966 0.990336 27.8758 1.09535 28.011 1.24662C30.1265 3.30775 32.2412 5.35948 34.3548 7.40183C34.6784 7.69946 34.9348 8.06255 35.1072 8.46696C35.2795 8.87138 35.3638 9.30784 35.3544 9.74734C35.3432 12.5218 35.3432 15.2953 35.3544 18.0679C35.3544 18.4621 35.2671 18.7915 34.8645 18.9323C34.7553 18.9667 34.6394 18.9741 34.5267 18.9537C34.4141 18.9334 34.308 18.8861 34.2177 18.8157C34.1274 18.7454 34.0556 18.6541 34.0083 18.5498C33.9611 18.4456 33.9399 18.3314 33.9466 18.2171C33.924 17.6061 33.9466 16.9951 33.9466 16.384C33.9466 14.2047 33.9466 12.0281 33.9466 9.84871C33.9566 9.56793 33.9051 9.28834 33.7957 9.02957C33.6862 8.77079 33.5215 8.5391 33.313 8.35074C31.5954 6.70353 29.8863 5.04506 28.1124 3.33309V20.8892H28.7234C32.4983 20.8892 36.2742 20.8892 40.0511 20.8892C41.8025 20.8892 42.6725 21.7621 42.6725 23.5191V34.7821C43.2615 34.7985 43.8491 34.8484 44.4324 34.9313C45.4564 35.1306 46.3812 35.6746 47.0529 36.4729C47.7245 37.2711 48.1025 38.2753 48.1238 39.3183C48.152 40.9486 48.1407 42.5789 48.1238 44.2064C48.1328 44.6504 47.9705 45.0809 47.6707 45.4086C47.3708 45.7362 46.9563 45.9359 46.5132 45.9662C46.3101 45.984 46.1061 45.9906 45.9022 45.9859C31.3467 45.9859 16.7921 45.9906 2.23851 46C1.15727 46 0.388572 45.6593 0 44.6175L0.00281574 39.918ZM26.6622 13.0164C26.4454 13.0812 26.3131 13.115 26.1808 13.16L15.2444 16.8374C14.1181 17.2147 12.9918 17.6173 11.8655 17.9637C11.7214 17.9957 11.5722 17.9982 11.4271 17.9711C11.2819 17.944 11.1437 17.8879 11.0208 17.806C10.9436 17.7081 10.8916 17.5926 10.8695 17.4699C10.8474 17.3471 10.8559 17.2208 10.8941 17.1021C11.0196 16.8735 11.2283 16.702 11.477 16.6234C13.0707 16.0602 14.6756 15.5393 16.2637 15.0015C19.5844 13.8752 22.9032 12.7555 26.2202 11.6423C26.375 11.5917 26.6228 11.4565 26.6256 11.3608C26.6566 10.2345 26.6453 9.10817 26.6453 7.95372C26.4539 8.00722 26.3187 8.03537 26.1892 8.08043L17.5336 10.9919C15.6677 11.6208 13.7999 12.2468 11.9303 12.87C11.3671 13.0558 10.9758 12.9122 10.8406 12.4842C10.7054 12.0563 10.9391 11.7212 11.4967 11.5325L12.6539 11.144C17.191 9.62345 21.7272 8.10108 26.2624 6.57682C26.5637 6.47827 26.6876 6.35438 26.6735 6.01367C26.6425 5.38858 26.6735 4.76067 26.6735 4.13557V2.61789C26.4314 2.68828 26.2709 2.73334 26.1104 2.78683L8.40498 8.73931C7.41384 9.07157 7.07032 9.55869 7.07032 10.6259V44.0318C7.07032 44.1979 7.07032 44.3641 7.09285 44.5443H10.8068V39.5322C10.8068 38.4059 11.232 37.8428 12.2963 37.5612L18.3952 35.8718C19.7214 35.5029 20.5746 36.1534 20.5746 37.5443C20.5746 39.7068 20.5746 41.8656 20.5746 44.0205V44.5499H26.6313V28.2552C26.4736 28.2974 26.3497 28.3256 26.2427 28.3622L20.2761 30.3642C19.3554 30.6739 18.4403 30.9893 17.5167 31.2821C17.4293 31.3174 17.3354 31.3339 17.2411 31.3307C17.1469 31.3275 17.0544 31.3046 16.9695 31.2635C16.8846 31.2224 16.8093 31.164 16.7484 31.092C16.6874 31.0201 16.6422 30.9362 16.6157 30.8457C16.585 30.7565 16.5729 30.662 16.5802 30.5679C16.5875 30.4739 16.614 30.3824 16.6581 30.299C16.7022 30.2156 16.7629 30.1421 16.8365 30.0831C16.91 30.0241 16.9949 29.9808 17.0859 29.9559C17.1873 29.9137 17.2943 29.8855 17.3956 29.8517C20.3465 28.8578 23.2918 27.8582 26.2455 26.8783C26.3127 26.8682 26.3771 26.8445 26.4349 26.8089C26.4927 26.7732 26.5427 26.7262 26.5819 26.6707C26.6211 26.6152 26.6487 26.5523 26.663 26.4859C26.6773 26.4195 26.678 26.3509 26.6651 26.2842C26.6397 25.7041 26.6651 25.1241 26.6651 24.5441V23.1672C26.4511 23.2319 26.3159 23.2657 26.1864 23.3108L15.5147 26.8952C14.2983 27.3035 13.0904 27.7399 11.8543 28.1032C11.7103 28.1357 11.5612 28.1388 11.416 28.1122C11.2709 28.0856 11.1326 28.0298 11.0095 27.9483C10.9305 27.8519 10.8771 27.737 10.8545 27.6144C10.8318 27.4918 10.8406 27.3655 10.88 27.2472C11.0259 27.0117 11.2535 26.8383 11.5192 26.76C14.211 25.8365 16.9085 24.9383 19.606 24.0288C21.8286 23.2779 24.0502 22.5271 26.2709 21.7762C26.4201 21.7255 26.6425 21.5735 26.6453 21.4608C26.6735 20.3571 26.6622 19.2505 26.6622 18.0819C26.4511 18.1439 26.3046 18.1833 26.161 18.2312L13.5353 22.4886C12.9509 22.7088 12.355 22.8968 11.7501 23.0517C11.6131 23.0715 11.4734 23.0608 11.341 23.0205C11.2086 22.9801 11.0868 22.9109 10.9842 22.818C10.9205 22.7024 10.8844 22.5737 10.8785 22.4418C10.8726 22.31 10.8972 22.1786 10.9504 22.0578C11.0349 21.8747 11.3249 21.7508 11.5502 21.672C13.6817 20.9427 15.816 20.2303 17.9503 19.5123C20.721 18.5803 23.4945 17.6511 26.2596 16.6966C26.4201 16.6431 26.651 16.4713 26.6538 16.3474C26.6763 15.269 26.6622 14.1765 26.6622 13.0164ZM28.118 22.3084V40.163H38.418C38.4351 40.125 38.4483 40.0854 38.4574 40.0447C38.4574 39.8251 38.4574 39.6055 38.4574 39.3858C38.5447 37.626 39.3274 36.2744 40.8705 35.4044C41.001 35.3466 41.1093 35.2483 41.1793 35.124C41.2493 34.9997 41.2773 34.856 41.259 34.7145C41.259 30.9865 41.259 27.2584 41.259 23.5304C41.259 22.5533 41.0113 22.2999 40.0483 22.2999H28.118V22.3084ZM28.0983 44.5527H38.4349V41.6356H28.0983V44.5527ZM39.9019 40.1545H46.699C46.868 37.7245 45.5418 36.2604 43.2188 36.2125C41.6448 36.1956 39.6175 37.443 39.9019 40.1489V40.1545ZM39.9019 44.5837H46.0965C46.3781 44.5837 46.699 44.5837 46.7047 44.1782C46.7047 43.3335 46.7047 42.4888 46.7047 41.6441H39.9019V44.5837ZM19.1498 37.1135C18.3051 37.3444 17.5421 37.5697 16.7705 37.7611C16.4721 37.8344 16.3876 37.978 16.3904 38.2792C16.4045 40.2503 16.3904 42.1959 16.3904 44.1557C16.3904 44.2768 16.4073 44.3978 16.4186 44.5414H19.1498V37.1135ZM14.96 38.2821C14.1885 38.4961 13.4564 38.71 12.7074 38.8931C12.6305 38.9012 12.5561 38.925 12.4888 38.9631C12.4214 39.0012 12.3627 39.0528 12.3162 39.1146C12.2697 39.1765 12.2365 39.2472 12.2185 39.3224C12.2006 39.3977 12.1983 39.4758 12.2119 39.552C12.2316 41.0978 12.2119 42.6493 12.2119 44.1923C12.2161 44.3093 12.2274 44.4258 12.2457 44.5414H14.9375L14.96 38.2821ZM5.6343 44.5781V41.6328H1.41069V43.4884C1.41069 44.5893 1.29806 44.5865 2.51727 44.5781C3.55065 44.5724 4.58121 44.5781 5.6343 44.5781ZM1.47826 40.163H5.65964V36.2632C3.55628 36.235 1.58245 38.0962 1.47826 40.163ZM12.2231 5.95454C12.6511 5.81376 13.0312 5.67297 13.4198 5.5716C13.4958 5.56478 13.5695 5.54204 13.6361 5.50485C13.7027 5.46767 13.7607 5.41689 13.8064 5.3558C13.8521 5.29471 13.8844 5.22469 13.9012 5.15029C13.9181 5.0759 13.9191 4.99879 13.9041 4.92398C13.8619 4.11305 13.9041 3.2993 13.8872 2.48555C13.8944 2.31547 13.8744 2.14534 13.8281 1.98153C13.7743 1.79965 13.6559 1.64371 13.4951 1.54309C13.3343 1.44248 13.1423 1.40413 12.9552 1.43528C12.8639 1.43073 12.7725 1.44462 12.6867 1.47612C12.6008 1.50762 12.5222 1.55608 12.4554 1.61861C12.3887 1.68115 12.3352 1.75648 12.2982 1.84011C12.2612 1.92375 12.2414 2.01398 12.24 2.10543C12.2062 3.36688 12.2231 4.63396 12.2231 5.95454Z" fill="#FFC42C"/>
<path d="M14.8305 31.865C14.7235 31.972 14.563 32.2564 14.3293 32.3493C13.4846 32.6788 12.6258 32.9547 11.7614 33.225C11.672 33.2583 11.5768 33.2729 11.4815 33.2681C11.3863 33.2632 11.293 33.239 11.2075 33.1969C11.1219 33.1548 11.0458 33.0957 10.9839 33.0231C10.922 32.9506 10.8755 32.8662 10.8473 32.7751C10.8191 32.684 10.8098 32.5881 10.82 32.4933C10.8301 32.3985 10.8595 32.3067 10.9063 32.2237C10.9531 32.1406 11.0164 32.0679 11.0922 32.0101C11.1681 31.9523 11.2549 31.9106 11.3475 31.8876C12.1922 31.606 13.0369 31.3244 13.8816 31.0428C14.3631 30.8823 14.8305 31.209 14.8305 31.865Z" fill="#FFC42C"/>
<path d="M34.6083 33.4615C33.8734 33.4615 33.1356 33.4446 32.4007 33.4615C30.1481 33.5263 29.8891 33.3264 29.9764 31.009C29.9764 30.8682 29.9764 30.7274 29.9764 30.5867C29.9713 30.4291 29.9986 30.2722 30.0564 30.1256C30.1143 29.979 30.2016 29.8458 30.3129 29.7342C30.4243 29.6226 30.5573 29.535 30.7037 29.4768C30.8502 29.4185 31.0071 29.3909 31.1646 29.3956C33.4641 29.3825 35.7655 29.3825 38.0688 29.3956C38.3634 29.3856 38.6501 29.4914 38.8675 29.6904C39.0849 29.8894 39.2157 30.1657 39.2317 30.4599C39.2796 31.0992 39.2796 31.7411 39.2317 32.3803C39.181 33.0645 38.7108 33.4446 37.9843 33.4531C36.8637 33.47 35.7346 33.4615 34.6083 33.4615ZM37.8182 32.0368V30.8373H31.4208V32.0368H37.8182Z" fill="#FFC42C"/>
<path d="M34.5998 28.1032C33.5186 28.1032 32.4374 28.1032 31.3589 28.1032C30.41 28.1032 29.982 27.6639 29.9764 26.7235C29.9764 26.2392 29.9764 25.752 29.9764 25.2677C29.9665 25.1062 29.9905 24.9444 30.0468 24.7927C30.1032 24.6409 30.1906 24.5027 30.3036 24.3868C30.4166 24.2709 30.5525 24.18 30.7028 24.1198C30.853 24.0596 31.0142 24.0315 31.1759 24.0373C33.4585 24.026 35.744 24.026 38.0322 24.0373C38.1901 24.0292 38.3479 24.0535 38.4959 24.1087C38.644 24.164 38.7792 24.249 38.8932 24.3584C39.0071 24.4679 39.0975 24.5996 39.1586 24.7453C39.2197 24.8911 39.2504 25.0478 39.2486 25.2058C39.2838 25.7844 39.2838 26.3645 39.2486 26.9431C39.2532 27.102 39.2241 27.2601 39.1632 27.407C39.1023 27.5539 39.011 27.6862 38.8953 27.7952C38.7796 27.9043 38.6421 27.9876 38.4919 28.0397C38.3417 28.0918 38.1822 28.1115 38.0238 28.0976C36.8806 28.1144 35.7374 28.0976 34.597 28.0976L34.5998 28.1032ZM31.404 26.6615H37.8267V25.4761H31.404V26.6615Z" fill="#FFC42C"/>
<path d="M32.336 34.8244C32.7105 34.8244 33.0878 34.8244 33.4623 34.8244C33.6121 34.8214 33.761 34.8484 33.9002 34.9036C34.0395 34.9589 34.1663 35.0414 34.2733 35.1463C34.3803 35.2511 34.4653 35.3763 34.5233 35.5145C34.5813 35.6526 34.6111 35.8009 34.6111 35.9507C34.6393 36.5589 34.6393 37.1728 34.6111 37.781C34.6045 38.0753 34.4829 38.3553 34.2724 38.5611C34.0619 38.7668 33.7792 38.882 33.4848 38.8819C32.688 38.9045 31.8883 38.9045 31.0914 38.8819C30.7962 38.8768 30.5147 38.7558 30.3077 38.5452C30.1008 38.3345 29.9848 38.051 29.9849 37.7556C29.9651 37.1474 29.9623 36.5336 29.9849 35.9254C29.9939 35.6407 30.1104 35.37 30.3111 35.1678C30.5117 34.9656 30.7815 34.847 31.0661 34.8357C31.4856 34.8104 31.9108 34.8357 32.3332 34.8357L32.336 34.8244ZM31.4124 36.2548V37.4431H33.1835V36.2548H31.4124Z" fill="#FFC42C"/>
</svg>
