<svg width="29" height="56" viewBox="0 0 29 56" fill="none" xmlns="http://www.w3.org/2000/svg">
<g clip-path="url(#clip0_35_14233)">
<path d="M27.5105 0C28.6799 0.467592 29.0351 1.34433 28.9722 2.56299C28.7515 6.45569 26.9608 9.53888 24.1484 12.1019C21.5172 14.4924 18.4475 16.1217 15.1117 17.2819C12.1283 18.3194 9.3363 19.7119 6.97555 21.8541C5.48893 23.2028 4.34437 24.7765 3.9877 26.8135C3.5784 29.1324 4.32536 31.1256 5.78128 32.8922C7.38923 34.8444 9.4474 36.2267 11.7102 37.2759C13.4731 38.0956 15.3237 38.7195 17.1188 39.4896C20.6445 41.0078 23.8166 43.0345 26.2066 46.1104C27.9607 48.3782 28.9459 50.9398 28.9839 53.8345C28.9985 55.0955 28.237 55.9766 27.1026 55.9985C25.9683 56.0205 25.1424 55.1671 25.1073 53.9192C25.0474 51.2072 23.8458 49.0183 21.9616 47.1669C19.6958 44.9444 16.9697 43.47 13.995 42.434C10.2061 41.1116 6.68612 39.3201 3.80936 36.462C1.21911 33.8858 -0.247044 30.8319 0.0453098 27.097C0.252881 24.4273 1.40768 22.1741 3.17203 20.2131C5.55471 17.5712 8.52064 15.7988 11.7555 14.4252C13.612 13.6376 15.5342 12.9859 17.3424 12.0989C19.8727 10.8569 22.0888 9.17649 23.6543 6.76401C24.5314 5.42407 25.0678 3.95554 25.0839 2.35403C25.0956 1.18505 25.5225 0.397453 26.6349 0H27.5105Z" fill="white"/>
<path d="M2.33882 0C3.44537 0.395992 3.85321 1.18944 3.88829 2.34965C3.97307 4.96817 5.23312 7.06356 7.04571 8.86525C8.3014 10.0849 9.72552 11.1182 11.2746 11.9338C11.4471 12.0288 11.6167 12.1267 11.8695 12.2684C11.2088 12.5607 10.6197 12.8164 10.0394 13.0867C9.52779 13.3249 8.98255 13.5251 8.53086 13.8451C7.88184 14.3112 7.4053 14.1637 6.80744 13.7209C4.38529 11.9265 2.3242 9.83551 1.07585 7.04603C0.459645 5.62501 0.0993882 4.10636 0.011684 2.56007C-0.076022 1.34141 0.304037 0.470515 1.47345 0H2.33882Z" fill="white"/>
<path d="M17.2488 37.4074C18.2984 36.7571 19.3523 36.1522 20.3565 35.4712C21.6845 34.5944 22.8325 33.472 23.7391 32.1645C25.6818 29.3049 25.5794 26.1954 23.4657 23.4468C21.9893 21.5268 20.0554 20.181 17.9578 19.0398C17.7195 18.9112 17.4783 18.787 17.1567 18.616C17.6786 18.3764 18.1405 18.1776 18.5878 17.957C19.4035 17.5508 20.2045 17.1183 21.0231 16.7208C21.1693 16.6477 21.428 16.6054 21.5493 16.6813C24.3779 18.4874 26.8614 20.6559 28.1361 23.8487C29.8741 28.2016 28.9371 32.1338 25.9434 35.6393C24.7155 37.0801 23.2479 38.2476 21.6517 39.2544C21.5661 39.3038 21.4711 39.3344 21.3728 39.3442C21.2745 39.3541 21.1752 39.3428 21.0816 39.3113C19.8464 38.7269 18.6273 38.119 17.4038 37.5155C17.3496 37.4833 17.2978 37.4472 17.2488 37.4074Z" fill="white"/>
<path d="M11.7204 43.7169C10.5803 44.4856 9.37429 45.203 8.27651 46.0549C6.20518 47.6739 4.61186 49.6524 4.05931 52.3119C3.95445 52.8654 3.89335 53.4263 3.87659 53.9894C3.82104 55.1832 2.99953 56.0351 1.88566 56.0073C0.771793 55.9796 -2.03056e-05 55.1174 0.0131356 53.9382C0.0365239 50.1273 1.6357 47.0062 4.31365 44.4066C5.24919 43.4978 6.33089 42.7394 7.36582 41.9372C7.45038 41.8841 7.54587 41.8509 7.64511 41.84C7.74436 41.8291 7.84478 41.8409 7.93884 41.8743C9.22081 42.4764 10.4882 43.1062 11.7204 43.7169Z" fill="white"/>
<path d="M14.4803 27.0327C17.1611 27.0327 19.8406 27.0415 22.52 27.0239C22.9439 27.0239 23.1295 27.1101 23.1617 27.5763C23.2611 28.963 23.2699 28.9747 21.9017 28.9747C16.7606 28.9747 11.6196 28.9659 6.48001 28.9864C5.97131 28.9864 5.83244 28.83 5.81344 28.3507C5.75789 27.0356 5.74035 27.0356 7.04279 27.0356L14.4803 27.0327Z" fill="white"/>
<path d="M5.77542 1.96387H23.2128C23.1208 2.54836 23.0491 3.09339 22.9336 3.62966C22.9117 3.72611 22.7071 3.83131 22.5784 3.84446C22.2694 3.86445 21.9596 3.86835 21.6502 3.85615C16.6568 3.85615 11.6649 3.84885 6.67148 3.86784C6.19495 3.86784 5.96837 3.74218 5.9406 3.26144C5.90552 2.84937 5.83535 2.43877 5.77542 1.96387Z" fill="white"/>
<path d="M23.1997 54.0361H5.7652C5.85583 53.4589 5.92892 52.9139 6.04001 52.3762C6.05901 52.2827 6.22858 52.2052 6.3426 52.1541C6.4315 52.1348 6.52321 52.1324 6.61302 52.1468C11.8608 52.1468 17.1085 52.1434 22.3563 52.1365C22.7802 52.1365 22.998 52.2432 23.0331 52.6816C23.0681 53.1199 23.1368 53.5408 23.1997 54.0361Z" fill="white"/>
<path d="M21.3988 24.119H7.61142C8.43878 23.3007 8.97963 22.1551 10.4472 22.1887C13.2495 22.253 16.0546 22.196 18.8583 22.2223C19.2109 22.2334 19.552 22.35 19.8376 22.5569C20.415 22.9953 20.931 23.5024 21.4719 23.9831L21.3988 24.119Z" fill="white"/>
<path d="M21.4953 32.0286C20.8068 32.6044 20.1242 33.1888 19.4196 33.7456C19.3143 33.8303 19.1038 33.7923 18.9416 33.7923C15.9698 33.7923 12.998 33.8011 10.0248 33.7821C9.74171 33.7767 9.46733 33.6832 9.23983 33.5147C8.63219 33.0398 8.07743 32.5009 7.58511 31.9073H21.3754L21.4953 32.0286Z" fill="white"/>
<path d="M21.1956 6.9233C20.5758 7.47564 19.9663 8.03675 19.3304 8.5701C19.1746 8.65992 18.995 8.69971 18.8159 8.68407C15.9362 8.68992 13.0555 8.68992 10.1739 8.68407C9.99507 8.69792 9.81635 8.65606 9.66228 8.56425C9.02203 8.03675 8.40955 7.47564 7.78683 6.92622L7.85554 6.80786H21.1006L21.1956 6.9233Z" fill="white"/>
<path d="M7.78683 49.0767C8.40809 48.5258 9.02057 47.9662 9.6579 47.4357C9.81276 47.3447 9.99186 47.3034 10.171 47.3174C13.0526 47.3115 15.9333 47.3115 18.8129 47.3174C19.0453 47.315 19.2723 47.3873 19.4605 47.5234C20.0554 48.0202 20.6153 48.558 21.3067 49.1892H7.87893L7.78683 49.0767Z" fill="white"/>
</g>
<defs>
<clipPath id="clip0_35_14233">
<rect width="29" height="56" fill="white"/>
</clipPath>
</defs>
</svg>
