<svg width="66" height="65" viewBox="0 0 66 65" fill="none" xmlns="http://www.w3.org/2000/svg">
<path d="M0 34.4008V30.5906C0.137414 29.4845 0.234112 28.3699 0.420724 27.2706C1.67102 19.9368 4.96386 13.6666 10.457 8.64339C17.6195 2.09504 26.1154 -0.732973 35.7666 0.161064C42.661 0.812507 48.7581 3.48953 53.9476 8.10053C60.8285 14.2231 64.5166 21.9352 64.9747 31.1284C65.2715 36.9964 64.0365 42.5846 61.2017 47.7402C56.1598 56.9101 48.4827 62.4938 38.1705 64.4911C36.9304 64.7303 35.6631 64.8304 34.4094 65H30.6042C30.4437 64.9528 30.2798 64.9177 30.114 64.8948C26.1566 64.6685 22.2835 63.6594 18.7188 61.926C8.74868 57.0063 2.64649 49.0838 0.50894 38.1534C0.271435 36.915 0.169647 35.6511 0 34.4008ZM57.7681 49.1754C57.7122 49.1641 57.6554 49.1584 57.5984 49.1584C51.3877 50.3459 45.1582 51.4079 38.8694 52.0984C33.5408 52.682 28.2054 53.0518 22.8446 52.6735C19.7537 52.4546 16.7085 51.9949 13.8228 50.7853C9.52227 48.9989 7.42034 45.8588 7.46445 41.2291C7.49499 37.9566 8.41617 34.864 9.7462 31.9291C11.9686 27.0246 14.3504 22.1897 16.6797 17.3395C18.3626 13.8329 20.02 10.3161 21.0073 6.53129C21.1956 5.81199 21.3195 5.07573 21.4857 4.28857C10.0957 8.60438 1.08235 20.5628 2.28853 35.1439C2.84893 41.6127 5.47226 47.7305 9.77201 52.5959C14.0718 57.4613 19.8206 60.817 26.1714 62.1686C39.1714 64.9474 51.6252 58.8333 57.7681 49.1754ZM28.5108 2.36477C27.023 2.70407 25.5624 3.01791 24.1102 3.37247C24.0168 3.41538 23.9342 3.47863 23.8685 3.55759C23.8027 3.63655 23.7555 3.72923 23.7302 3.82882C23.5877 4.48875 23.5266 5.16564 23.3909 5.82556C22.6885 9.17609 21.4416 12.3417 19.9742 15.4157C17.8163 19.9334 15.5447 24.3968 13.3919 28.9179C11.9567 31.9308 10.6402 35.0031 9.95995 38.2993C9.55959 40.2418 9.38315 42.2012 9.98879 44.1318C10.7844 46.6765 12.7337 48.0591 15.0782 48.9837C18.0283 50.144 21.138 50.4986 24.2713 50.6258C28.7619 50.8074 33.2338 50.5207 37.7006 50.0524C44.8359 49.3043 51.8881 48.054 58.9251 46.69C59.1423 46.6454 59.3345 46.5198 59.4628 46.3389C59.7394 45.8706 59.9514 45.3634 60.2262 44.7951C59.9599 44.8171 59.7767 44.8188 59.5969 44.8494C55.3048 45.5704 51.0212 46.3524 46.7173 47.0022C40.6643 47.9166 34.5774 48.4747 28.4463 48.2203C25.2706 48.0896 22.144 47.6418 19.1463 46.4695C15.0867 44.8816 12.9712 41.2105 13.6498 36.9218C14.0819 34.1809 14.9811 31.5345 16.3081 29.0977C18.8715 24.3815 21.5672 19.74 24.195 15.0594C25.7863 12.2195 27.3555 9.36609 28.2462 6.20557C28.5905 4.98072 28.8399 3.73721 28.5108 2.36477ZM62.5759 28.5514C62.3892 28.5633 62.2366 28.5514 62.1025 28.5803C59.512 28.9738 56.9334 29.4556 54.3327 29.7389C51.5488 30.0409 48.7547 30.0324 46.02 29.23C43.6263 28.5226 41.7008 27.2197 40.5829 24.9091C39.6023 22.8734 39.3953 20.7019 39.6905 18.5236C40.0994 15.4903 40.683 12.4808 41.2021 9.46448C41.5278 7.57462 41.8705 5.68645 42.22 3.75927L40.1011 3.14684C39.4717 5.4235 38.9695 7.6306 38.2451 9.76306C36.6759 14.3825 34.9472 18.946 33.3763 23.5638C32.6213 25.7862 32.0921 28.0815 32.2481 30.4701C32.3211 31.6102 32.5976 32.6755 33.3491 33.5814C34.2517 34.6621 35.4833 35.1456 36.8099 35.4085C39.6583 35.9718 42.505 35.6935 45.3296 35.2508C51.1519 34.3381 56.7638 32.5992 62.3502 30.7789C62.449 30.7306 62.5346 30.6591 62.5996 30.5704C62.6646 30.4818 62.7071 30.3787 62.7234 30.2699C62.7218 29.7067 62.6335 29.1418 62.5759 28.5514ZM35.8039 2.34272C35.4324 3.90856 35.1491 5.39636 34.7199 6.85702C33.6291 10.5367 31.9394 13.9822 30.2785 17.4192C28.2156 21.6994 25.9746 25.9015 24.4291 30.4141C23.7963 32.2616 23.2925 34.1464 23.3892 36.1194C23.4757 37.9346 24.2374 39.3596 25.8711 40.2655C27.308 41.0646 28.8789 41.3597 30.4838 41.5209C33.4509 41.8178 36.4062 41.5905 39.3478 41.2189C47.1278 40.2367 54.6907 38.2569 62.2281 36.1652C62.3977 36.1194 62.6166 35.9294 62.6318 35.7868C62.737 34.8708 62.7896 33.9479 62.8676 32.93C62.4961 33.042 62.2366 33.1149 61.9804 33.198C56.6077 34.9335 51.1994 36.5299 45.6044 37.39C42.6254 37.8464 39.6345 38.1059 36.6386 37.5597C34.7267 37.2204 32.9827 36.5163 31.69 34.9675C30.2531 33.2472 29.9545 31.2115 30.058 29.0671C30.1954 26.2052 31.0216 23.4909 31.958 20.8172C33.3474 16.8509 34.842 12.9236 36.2331 8.95554C36.9422 6.91979 37.5564 4.86028 37.7871 2.62773L35.8039 2.34272ZM62.3044 38.4367L61.7955 38.5555C58.5434 39.3952 55.3065 40.2927 52.0374 41.0646C45.9742 42.4981 39.867 43.7467 33.59 43.8383C30.9351 43.8756 28.3123 43.6686 25.8066 42.6643C22.9515 41.5158 21.2262 39.0067 21.2109 35.9243C21.1889 33.0725 21.9523 30.3853 23.0872 27.8304C25.0687 23.3721 27.2419 19.0003 29.242 14.5505C30.4787 11.8005 31.6035 8.99456 32.6604 6.16825C33.1269 4.92135 33.3033 3.56587 33.6189 2.21888H30.9351C30.7535 3.70159 30.7111 5.12662 30.3837 6.48379C29.566 9.86315 27.9001 12.8981 26.207 15.8958C23.6453 20.444 21.0226 24.9566 18.4915 29.5235C17.2832 31.6624 16.4172 33.9773 15.9247 36.384C15.599 38.0482 15.5379 39.7125 16.2912 41.3038C17.097 43.0002 18.5831 43.9146 20.2456 44.5762C22.9379 45.6467 25.7795 45.9436 28.6364 46.059C32.9148 46.2286 37.1764 45.9368 41.4311 45.4822C47.932 44.7849 54.3667 43.6822 60.7708 42.4065C60.883 42.3783 60.9876 42.3259 61.0773 42.2529C61.167 42.1799 61.2396 42.0881 61.2899 41.984C61.6496 40.8508 61.9499 39.7023 62.3044 38.4367ZM48.5851 6.79085C48.0609 9.86146 47.4875 12.7879 47.0905 15.7397C46.9385 17.0377 46.9636 18.3504 47.1652 19.6416C47.4451 21.5891 49.2009 22.8225 51.6387 23.0888C54.8213 23.4366 57.9157 22.8954 61.0677 22.2813C58.6282 15.7363 54.5058 10.6079 48.5851 6.79085ZM62.2467 26.4359C62.0483 25.6471 61.8854 25.0058 61.7276 24.3781C60.6402 24.5766 59.6478 24.7887 58.6468 24.9329C55.9851 25.3146 53.3216 25.6114 50.631 25.1313C47.3365 24.5427 45.2685 22.4967 44.8766 19.2701C44.6561 17.4548 44.8308 15.6396 45.143 13.8414C45.584 11.3023 46.0138 8.76158 46.4323 6.21914C46.4696 5.99521 46.4577 5.61351 46.3305 5.54056C45.6875 5.16903 44.9988 4.87385 44.3558 4.56679C43.7366 7.72391 43.1462 10.7894 42.5304 13.8515C42.0724 16.1367 41.6822 18.432 41.8077 20.7697C41.9265 23.0447 42.5745 25.1076 44.7104 26.2799C45.699 26.7984 46.7572 27.1721 47.8522 27.3893C50.1051 27.8745 52.4021 27.7846 54.6737 27.5217C57.1845 27.2333 59.6817 26.8092 62.2467 26.441V26.4359Z" fill="#E9B632"/>
</svg>
