<svg width="55" height="55" viewBox="0 0 55 55" fill="none" xmlns="http://www.w3.org/2000/svg">
<path d="M48.1431 54.8634C47.6503 54.5268 47.0931 54.256 46.6763 53.8435C42.5222 49.7309 38.4096 45.5897 34.267 41.4729C33.4705 40.6807 33.0351 39.8256 33.3789 38.6882C33.3897 38.6243 33.3862 38.5587 33.3686 38.4963C33.351 38.4339 33.3198 38.3761 33.2772 38.3272C32.3933 37.4205 31.4981 36.5252 30.5784 35.6056C30.2361 35.8176 29.9238 36.0138 29.6087 36.2072C18.4041 43.0729 3.39487 36.7372 0.540002 23.9225C0.300783 22.8396 0.177593 21.7409 -3.05176e-05 20.6551V18.4033C0.143214 17.488 0.236323 16.5669 0.413947 15.6602C1.9438 7.81896 8.3626 1.57635 16.2224 0.272826C26.718 -1.46903 36.6176 5.30072 38.6632 15.696C39.6659 20.827 38.7348 25.6314 35.9286 30.0577C35.8427 30.1924 35.7582 30.3284 35.6178 30.5505C36.3712 31.2896 37.1505 32.0202 37.8868 32.7908C38.2764 33.1991 38.603 33.4283 39.2433 33.2521C39.9667 33.0544 40.6442 33.3953 41.1857 33.9239C41.7272 34.4525 42.2744 35.0068 42.8173 35.5511L54.0749 46.8073C55.1521 47.8845 55.1578 48.9417 54.0892 50.0146C52.8272 51.2808 51.581 52.5615 50.2889 53.7934C49.8491 54.2131 49.2862 54.5096 48.7863 54.8591L48.1431 54.8634ZM38.1804 19.4934C38.1804 9.20557 29.802 0.822886 19.5328 0.831481C9.26361 0.840075 0.873762 9.22705 0.87233 19.4948C0.870898 29.7626 9.24355 38.1353 19.5343 38.1396C24.4794 38.1392 29.2219 36.1746 32.7187 32.6778C36.2154 29.1811 38.18 24.4386 38.1804 19.4934ZM35.1608 31.3627L31.4264 35.0956L33.9275 37.5895L37.6948 33.8909L35.1608 31.3627Z" fill="white"/>
<path d="M3.38627 19.5206C3.36192 10.6137 10.5786 3.38268 19.5242 3.34687C28.4197 3.31106 35.6923 10.5736 35.6923 19.492C35.6923 28.3732 28.467 35.6156 19.5758 35.6529C10.6846 35.6901 3.41205 28.4376 3.38627 19.5206ZM4.24574 19.4734C4.21279 27.8646 11.0585 34.7504 19.4784 34.8006C27.8983 34.8507 34.8056 27.9821 34.8371 19.5436C34.8686 11.105 28.0287 4.23929 19.5744 4.21637C11.1401 4.17483 4.27725 11.0119 4.24287 19.4734H4.24574Z" fill="white"/>
<path d="M15.1725 8.46643H11.2246C10.7326 8.46643 10.3336 8.86534 10.3336 9.35741C10.3336 9.84949 10.7326 10.2484 11.2246 10.2484H15.1725C15.6645 10.2484 16.0634 9.84949 16.0634 9.35741C16.0634 8.86534 15.6645 8.46643 15.1725 8.46643Z" fill="white"/>
<path d="M24.1167 11.5219H20.1688C19.6768 11.5219 19.2778 11.9208 19.2778 12.4128C19.2778 12.9049 19.6768 13.3038 20.1688 13.3038H24.1167C24.6087 13.3038 25.0076 12.9049 25.0076 12.4128C25.0076 11.9208 24.6087 11.5219 24.1167 11.5219Z" fill="white"/>
<path d="M30.9924 11.5219H27.0446C26.5525 11.5219 26.1536 11.9208 26.1536 12.4128C26.1536 12.9049 26.5525 13.3038 27.0446 13.3038H30.9924C31.4845 13.3038 31.8834 12.9049 31.8834 12.4128C31.8834 11.9208 31.4845 11.5219 30.9924 11.5219Z" fill="white"/>
<path d="M27.3798 8.46643H17.8139C17.3218 8.46643 16.9229 8.86534 16.9229 9.35741C16.9229 9.84949 17.3218 10.2484 17.8139 10.2484H27.3798C27.8719 10.2484 28.2708 9.84949 28.2708 9.35741C28.2708 8.86534 27.8719 8.46643 27.3798 8.46643Z" fill="white"/>
<path d="M15.1725 27.0983H11.2246C10.7326 27.0983 10.3336 27.4972 10.3336 27.9892C10.3336 28.4813 10.7326 28.8802 11.2246 28.8802H15.1725C15.6645 28.8802 16.0634 28.4813 16.0634 27.9892C16.0634 27.4972 15.6645 27.0983 15.1725 27.0983Z" fill="white"/>
<path d="M27.3798 27.0983H17.8139C17.3218 27.0983 16.9229 27.4972 16.9229 27.9892C16.9229 28.4813 17.3218 28.8802 17.8139 28.8802H27.3798C27.8719 28.8802 28.2708 28.4813 28.2708 27.9892C28.2708 27.4972 27.8719 27.0983 27.3798 27.0983Z" fill="white"/>
<path d="M17.6076 11.5219H8.04173C7.54966 11.5219 7.15075 11.9208 7.15075 12.4128C7.15075 12.9049 7.54966 13.3038 8.04173 13.3038H17.6076C18.0997 13.3038 18.4986 12.9049 18.4986 12.4128C18.4986 11.9208 18.0997 11.5219 17.6076 11.5219Z" fill="white"/>
<path d="M24.1167 23.7879H20.1688C19.6768 23.7879 19.2778 24.1868 19.2778 24.6789C19.2778 25.171 19.6768 25.5699 20.1688 25.5699H24.1167C24.6087 25.5699 25.0076 25.171 25.0076 24.6789C25.0076 24.1868 24.6087 23.7879 24.1167 23.7879Z" fill="white"/>
<path d="M30.9924 23.7879H27.0446C26.5525 23.7879 26.1536 24.1868 26.1536 24.6789C26.1536 25.171 26.5525 25.5699 27.0446 25.5699H30.9924C31.4845 25.5699 31.8834 25.171 31.8834 24.6789C31.8834 24.1868 31.4845 23.7879 30.9924 23.7879Z" fill="white"/>
<path d="M17.6076 23.7879H8.04173C7.54966 23.7879 7.15075 24.1868 7.15075 24.6789C7.15075 25.171 7.54966 25.5699 8.04173 25.5699H17.6076C18.0997 25.5699 18.4986 25.171 18.4986 24.6789C18.4986 24.1868 18.0997 23.7879 17.6076 23.7879Z" fill="white"/>
<path d="M24.1167 14.5143H14.9805C14.4884 14.5143 14.0895 14.9132 14.0895 15.4053C14.0895 15.8973 14.4884 16.2962 14.9805 16.2962H24.1167C24.6087 16.2962 25.0076 15.8973 25.0076 15.4053C25.0076 14.9132 24.6087 14.5143 24.1167 14.5143Z" fill="white"/>
<path d="M30.9924 14.5143H27.0446C26.5525 14.5143 26.1536 14.9132 26.1536 15.4053C26.1536 15.8973 26.5525 16.2962 27.0446 16.2962H30.9924C31.4845 16.2962 31.8834 15.8973 31.8834 15.4053C31.8834 14.9132 31.4845 14.5143 30.9924 14.5143Z" fill="white"/>
<path d="M12.3076 14.5143H6.67231C6.18023 14.5143 5.78133 14.9132 5.78133 15.4053C5.78133 15.8973 6.18023 16.2962 6.67231 16.2962H12.3076C12.7996 16.2962 13.1985 15.8973 13.1985 15.4053C13.1985 14.9132 12.7996 14.5143 12.3076 14.5143Z" fill="white"/>
<path d="M24.1167 20.2856H14.9805C14.4884 20.2856 14.0895 20.6845 14.0895 21.1766C14.0895 21.6686 14.4884 22.0675 14.9805 22.0675H24.1167C24.6087 22.0675 25.0076 21.6686 25.0076 21.1766C25.0076 20.6845 24.6087 20.2856 24.1167 20.2856Z" fill="white"/>
<path d="M30.9924 20.2856H27.0446C26.5525 20.2856 26.1536 20.6845 26.1536 21.1766C26.1536 21.6686 26.5525 22.0675 27.0446 22.0675H30.9924C31.4845 22.0675 31.8834 21.6686 31.8834 21.1766C31.8834 20.6845 31.4845 20.2856 30.9924 20.2856Z" fill="white"/>
<path d="M12.3076 20.2856H6.67231C6.18023 20.2856 5.78133 20.6845 5.78133 21.1766C5.78133 21.6686 6.18023 22.0675 6.67231 22.0675H12.3076C12.7996 22.0675 13.1985 21.6686 13.1985 21.1766C13.1985 20.6845 12.7996 20.2856 12.3076 20.2856Z" fill="white"/>
<path d="M9.79216 17.2516H5.84434C5.35226 17.2516 4.95335 17.6506 4.95335 18.1426C4.95335 18.6347 5.35226 19.0336 5.84434 19.0336H9.79216C10.2842 19.0336 10.6831 18.6347 10.6831 18.1426C10.6831 17.6506 10.2842 17.2516 9.79216 17.2516Z" fill="white"/>
<path d="M32.9033 17.2516H12.3706C11.8785 17.2516 11.4796 17.6506 11.4796 18.1426C11.4796 18.6347 11.8785 19.0336 12.3706 19.0336H32.9033C33.3954 19.0336 33.7943 18.6347 33.7943 18.1426C33.7943 17.6506 33.3954 17.2516 32.9033 17.2516Z" fill="white"/>
</svg>
