<svg width="56" height="56" viewBox="0 0 56 56" fill="none" xmlns="http://www.w3.org/2000/svg">
<path d="M27.7818 55.3702C12.4163 55.3131 -0.0258754 42.8398 4.04117e-05 27.5132C0.0769774 20.1855 3.04353 13.1845 8.25468 8.03233C13.4658 2.88018 20.5002 -0.00647803 27.8283 1.09163e-05C35.1563 0.00649986 42.1856 2.90561 47.3876 8.06699C52.5896 13.2284 55.5437 20.2346 55.6077 27.5624C55.5714 42.928 43.067 55.4246 27.7818 55.3702ZM27.7818 53.3513C32.8878 53.3574 37.881 51.8497 42.1303 49.0187C46.3796 46.1876 49.6942 42.1603 51.6552 37.4459C53.6161 32.7315 54.1354 27.5415 53.1474 22.532C52.1593 17.5225 49.7083 12.9184 46.1042 9.30154C42.5001 5.68472 37.9045 3.21758 32.8986 2.21197C27.8926 1.20635 22.7008 1.70741 17.9795 3.6518C13.2582 5.59619 9.21934 8.89663 6.37339 13.136C3.52744 17.3753 2.00217 22.3632 1.99038 27.4691C1.97947 30.8628 2.63822 34.2253 3.92889 37.364C5.21957 40.5026 7.11681 43.3558 9.51193 45.7601C11.907 48.1644 14.753 50.0725 17.8867 51.3751C21.0204 52.6777 24.3804 53.3493 27.7741 53.3513H27.7818Z" fill="white"/>
<path d="M24.8974 5.71541C25.4727 5.67135 25.9081 6.00826 25.9107 6.83497C25.9107 7.61245 25.8926 8.38993 25.9107 9.1674C25.9548 10.3958 26.7115 11.2044 27.787 11.2122C28.8625 11.2199 29.6218 10.4347 29.6789 9.18554C29.71 8.50914 29.6789 7.82755 29.6789 7.15115C29.6944 5.88645 30.008 5.5962 31.2856 5.78797C34.913 6.33451 38.336 7.81429 41.2192 10.0822C45.8141 13.6845 48.6285 18.3753 49.5485 24.1494C49.7274 25.2871 49.4164 25.6395 48.2864 25.6732C47.509 25.6965 46.7315 25.6525 45.954 25.6965C44.8552 25.7587 44.0959 26.544 44.0984 27.5443C44.105 28.0354 44.3018 28.5048 44.6474 28.8538C44.993 29.2028 45.4604 29.4041 45.9514 29.4155C46.7574 29.4647 47.5686 29.4155 48.3746 29.4362C49.3827 29.4569 49.7274 29.8249 49.5511 30.8382C48.1698 38.8722 43.7175 44.5736 36.2796 47.8416C34.6469 48.5621 32.8354 48.8783 31.0965 49.3266C30.1583 49.5599 29.7151 49.1426 29.6866 48.1526C29.6633 47.4399 29.6866 46.7298 29.6866 46.0198C29.6452 44.724 28.9092 43.8687 27.8077 43.8661C26.7063 43.8636 25.9444 44.7188 25.9107 46.0016C25.89 46.7454 25.9107 47.4892 25.9107 48.2304C25.8796 49.1011 25.4468 49.464 24.6149 49.3655C15.3889 48.2822 7.09837 39.9943 6.0125 30.7657C5.90624 29.8664 6.27166 29.4699 7.19945 29.4388C7.97692 29.4206 8.7544 29.4569 9.53187 29.4388C10.6696 29.3895 11.4885 28.5939 11.5041 27.5728C11.5196 26.5518 10.7266 25.7587 9.56297 25.7043C8.75699 25.668 7.94582 25.7043 7.13984 25.6784C6.26388 25.6343 5.9192 25.2015 6.00991 24.3645C6.9973 15.3043 15.2904 6.87644 24.291 5.77761L24.8974 5.71541ZM47.426 23.6725C46.0084 15.4572 38.8038 9.00154 31.962 7.98823C31.6381 9.17259 31.4852 10.4114 30.9617 11.4687C30.6806 12.0449 30.2242 12.5172 29.6581 12.8179C29.0919 13.1187 28.4451 13.2325 27.8103 13.1429C26.9246 13.0534 26.0751 12.7453 25.338 12.2462C23.8918 11.2096 23.8478 9.56132 23.954 7.9364C15.7646 9.23219 9.13277 16.7271 8.2594 23.6621C8.71552 23.6621 9.16387 23.644 9.60703 23.6621C11.8436 23.7684 13.4944 25.44 13.4659 27.5754C13.4374 29.7109 11.771 31.3566 9.5241 31.3954C9.0913 31.3954 8.65851 31.3954 8.21016 31.3954C9.50596 39.5874 17.0216 46.2504 23.9411 47.0849C23.9411 46.6599 23.9411 46.2426 23.9411 45.828C23.9851 43.6018 25.6282 41.9017 27.7585 41.8706C29.8888 41.8395 31.62 43.5577 31.6796 45.828C31.6796 46.2634 31.6796 46.6987 31.6796 47.1549C40.1826 45.7425 46.6175 37.9677 47.3327 31.4654C43.6268 31.0663 42.134 30.0297 42.2014 27.6713C42.2498 26.7494 42.5521 25.8588 43.0748 25.0979C44.0881 23.6466 45.7389 23.5818 47.426 23.6725Z" fill="white"/>
<path d="M33.6595 25.6551C35.7328 26.6917 37.1789 28.2466 37.6065 30.5791C37.9719 32.559 37.8424 34.5312 36.9301 36.3505C35.852 38.5041 34.0405 39.7507 31.6407 39.9165C29.6141 40.0565 27.5693 39.9165 25.5375 40.0073C20.8027 40.2249 17.5762 37.2032 17.8561 31.7686C17.9908 29.1381 19.1985 27.1685 21.5076 25.8831C21.6709 25.7924 21.8238 25.6862 21.9715 25.5929C20.3388 21.7055 20.8804 18.6681 23.5524 16.543C24.7283 15.614 26.1768 15.0971 27.6753 15.0718C29.1737 15.0465 30.6389 15.5143 31.8454 16.4031C34.6703 18.4841 35.2689 21.4722 33.6595 25.6551ZM32.654 21.8921C32.6363 20.6031 32.112 19.3729 31.1944 18.4675C30.2769 17.562 29.0398 17.0541 27.7507 17.0536C27.1083 17.0525 26.4722 17.1794 25.8794 17.4268C25.2865 17.6743 24.7489 18.0372 24.2978 18.4946C23.8468 18.952 23.4913 19.4946 23.2522 20.0908C23.013 20.6871 22.895 21.3249 22.905 21.9672C22.915 22.6095 23.0528 23.2434 23.3103 23.8319C23.5678 24.4204 23.94 24.9517 24.4051 25.3949C24.8701 25.838 25.4188 26.1841 26.019 26.413C26.6192 26.6419 27.259 26.749 27.901 26.728C28.5321 26.7274 29.1566 26.6013 29.7385 26.357C30.3203 26.1127 30.8477 25.7551 31.29 25.3051C31.7323 24.8551 32.0807 24.3216 32.3149 23.7356C32.549 23.1497 32.6643 22.523 32.654 21.8921Z" fill="white"/>
</svg>
