<svg width="46" height="46" viewBox="0 0 46 46" fill="none" xmlns="http://www.w3.org/2000/svg">
<path d="M0 44.7926L2.53256 39.7613C2.6001 39.6262 2.67326 39.4968 2.73798 39.3617C2.80378 39.2006 2.91594 39.0628 3.06023 38.9656C3.20452 38.8684 3.37443 38.8162 3.5484 38.8158C3.72963 38.8127 3.90749 38.8649 4.0583 38.9655C4.20912 39.066 4.32572 39.2101 4.39259 39.3786C4.92443 40.4479 5.4619 41.5172 5.99655 42.5837C6.06409 42.7187 6.13443 42.8482 6.23292 43.0367C6.32297 42.8735 6.39332 42.7553 6.45523 42.6231C6.99269 41.5538 7.53016 40.4873 8.05918 39.4152C8.12538 39.2423 8.24246 39.0936 8.39494 38.9888C8.54743 38.8839 8.72815 38.8277 8.91322 38.8277C9.0983 38.8277 9.27902 38.8839 9.4315 38.9888C9.58399 39.0936 9.70106 39.2423 9.76726 39.4152C10.3554 40.6055 10.9519 41.7901 11.5907 43.0733L12.2914 41.6663C12.6572 40.9319 13.0315 40.2002 13.3916 39.463C13.4557 39.2776 13.5761 39.1168 13.7361 39.0033C13.896 38.8897 14.0875 38.8291 14.2837 38.8298C14.4698 38.8394 14.6491 38.9034 14.7992 39.014C14.9493 39.1245 15.0636 39.2768 15.1279 39.4517C15.7075 40.628 16.2985 41.7986 16.9288 43.0592C17.0892 42.7413 17.2102 42.4964 17.3396 42.2488C17.8067 41.3146 18.2795 40.3803 18.7466 39.4348C18.8103 39.2602 18.9247 39.1086 19.0751 38.9993C19.2255 38.89 19.405 38.8281 19.5908 38.8214C19.7795 38.8211 19.9637 38.8787 20.1187 38.9864C20.2737 39.0941 20.3919 39.2467 20.4575 39.4236C20.8327 40.174 21.2079 40.9244 21.5831 41.6748C21.9462 42.4456 22.5273 43.0931 23.2544 43.5372C23.9816 43.9813 24.823 44.2025 25.6746 44.1736C27.605 44.1736 29.5353 44.1961 31.4657 44.1736C32.4767 44.157 33.4519 43.796 34.23 43.1504C35.0082 42.5047 35.5429 41.6129 35.7457 40.6223C35.7636 40.5114 35.7759 40.3997 35.7823 40.2875C35.1801 40.2256 34.5892 40.1862 34.0039 40.0989C32.3774 39.8598 30.9451 39.1141 29.5213 38.3487C23.5131 35.0602 18.1937 30.6465 13.8531 25.3482C11.136 22.1195 8.793 18.5937 6.86888 14.838C5.85787 12.8756 5.49047 10.6446 5.81878 8.46158C6.14709 6.27856 7.15445 4.25435 8.69795 2.67608C9.13693 2.22584 9.59561 1.79531 10.0261 1.33663C10.5313 0.726156 11.1926 0.264197 11.9396 0L12.9273 0C13.7096 0.236373 14.2809 0.765397 14.8436 1.33382C16.9372 3.44992 19.0477 5.55476 21.1525 7.65397C22.4329 8.93433 22.4357 10.3948 21.1525 11.6695C20.2774 12.5503 19.3966 13.4254 18.5187 14.3062C17.6407 15.1869 17.5197 15.9523 18.2373 16.9738C19.0449 18.0994 19.9031 19.1968 20.7501 20.2999C21.237 20.9359 21.0315 21.7322 20.3168 21.8251C20.1596 21.8392 20.0013 21.8191 19.8526 21.7662C19.704 21.7132 19.5686 21.6287 19.4557 21.5184C18.4286 20.2183 17.3959 18.9126 16.4786 17.5366C15.5612 16.1606 15.8595 14.4412 17.0245 13.2509C17.9643 12.2886 18.9267 11.3459 19.8778 10.392C20.4406 9.82917 20.4406 9.49993 19.8778 8.94558C17.6267 6.69441 15.3755 4.44324 13.1243 2.19208C12.5868 1.65742 12.2267 1.64335 11.7173 2.19208C10.7972 3.16852 9.74756 4.0718 9.01312 5.17206C7.11932 7.98602 6.92234 10.9913 8.45033 14.0163C11.1853 19.374 14.7891 24.2414 19.1152 28.421C22.8524 32.0983 27.1457 35.1637 31.8372 37.5045C33.4783 38.3156 35.3283 38.6056 37.139 38.3355C38.9496 38.0654 40.6344 37.2482 41.9674 35.9934C42.6062 35.3856 43.2224 34.7524 43.8415 34.1249C44.2889 33.669 44.2946 33.2807 43.8415 32.8417C41.5209 30.523 39.1947 28.2118 36.8629 25.9081C36.407 25.4579 36.0384 25.4635 35.5825 25.9081C34.6567 26.8255 33.7422 27.7513 32.8192 28.6686C31.3616 30.115 29.662 30.2923 27.9511 29.1386C27.1322 28.5898 26.3443 27.9961 25.5564 27.4024C25.0217 27 24.9233 26.485 25.2553 26.0488C25.5873 25.6127 26.1248 25.593 26.6792 26.0038C27.4614 26.5666 28.2409 27.1604 29.0429 27.7091C29.904 28.3 30.7313 28.2128 31.4685 27.4727C32.4056 26.5497 33.3314 25.6127 34.2656 24.6841C35.4756 23.4769 36.9642 23.4741 38.1826 24.6841C40.3635 26.8424 42.5358 29.0091 44.7251 31.1562C45.2879 31.6993 45.7691 32.2621 45.9604 33.0331V33.9307C45.7167 34.6702 45.269 35.3257 44.6688 35.8217C44.3171 36.1453 43.9822 36.4886 43.653 36.8347C42.1398 38.4526 40.1597 39.5582 37.9885 39.9976C37.7071 40.0567 37.648 40.189 37.6086 40.4394C37.2174 43.0846 35.7317 44.8264 33.2076 45.6875C32.8586 45.8085 32.49 45.8704 32.1298 45.9689H24.8642C24.831 45.9405 24.7928 45.9185 24.7516 45.9041C22.4413 45.5411 20.843 44.2495 19.8497 42.1588C19.7906 42.035 19.7174 41.9168 19.6246 41.7451C19.0393 42.9213 18.499 44.0357 17.9362 45.1219C17.7357 45.4252 17.5057 45.708 17.2496 45.9661H16.6952C16.4419 45.7261 16.2146 45.4601 16.0171 45.1725C15.4768 44.1567 14.9815 43.1183 14.4638 42.0912C14.4013 41.9797 14.3327 41.8716 14.2583 41.7676C13.6702 42.9495 13.1328 44.0779 12.539 45.1838C12.3403 45.4704 12.1089 45.7329 11.8496 45.9661H11.3093C11.0648 45.7007 10.8391 45.4187 10.634 45.1219C10.3694 44.6744 10.1612 44.1904 9.92765 43.7149L8.92588 41.7282C8.33777 42.9016 7.8003 44.016 7.23751 45.105C7.04 45.4059 6.81586 45.6884 6.56778 45.9492H6.01343C5.75264 45.7187 5.52026 45.458 5.3212 45.1725C4.78373 44.1792 4.28566 43.138 3.77071 42.1137C3.71724 42.004 3.64689 41.9027 3.55966 41.7507C2.97436 42.9185 2.43408 44.0329 1.87128 45.1275C1.66995 45.4318 1.43799 45.7146 1.17905 45.9717H0V44.7926Z" fill="#FFC42C"/>
<path d="M22.9647 22.9811C23.1428 22.9778 23.3177 23.0276 23.4673 23.1242C23.6168 23.2209 23.7341 23.3599 23.8042 23.5236C23.8743 23.6873 23.8939 23.8682 23.8606 24.0431C23.8274 24.218 23.7426 24.379 23.6173 24.5055C23.4921 24.632 23.3319 24.7183 23.1573 24.7532C22.9827 24.7882 22.8016 24.7703 22.6373 24.7018C22.4729 24.6332 22.3328 24.5173 22.2347 24.3687C22.1366 24.22 22.0851 24.0456 22.0868 23.8675C22.0917 23.6354 22.1855 23.4141 22.3489 23.2491C22.5123 23.0842 22.7327 22.9883 22.9647 22.9811Z" fill="#FFC42C"/>
</svg>
