<svg width="74" height="74" viewBox="0 0 74 74" fill="none" xmlns="http://www.w3.org/2000/svg">
<circle cx="37" cy="37" r="37" fill="#CBD3FF"/>
<path d="M54.4789 29.0537C52.2902 19.3629 43.8896 15 36.5105 15C36.5105 15 36.5105 15 36.4896 15C29.1312 15 20.7098 19.342 18.5211 29.0327C16.0822 39.8561 22.6693 49.0224 28.6309 54.7907C30.8405 56.9302 33.6755 58 36.5105 58C39.3454 58 42.1803 56.9302 44.3691 54.7907C50.3307 49.0224 56.9178 39.8771 54.4789 29.0537ZM36.5105 39.5624C32.8834 39.5624 29.9442 36.6049 29.9442 32.9551C29.9442 29.3054 32.8834 26.3478 36.5105 26.3478C40.1375 26.3478 43.0767 29.3054 43.0767 32.9551C43.0767 36.6049 40.1375 39.5624 36.5105 39.5624Z" fill="#4755A5"/>
</svg>
