<svg width="74" height="74" viewBox="0 0 74 74" fill="none" xmlns="http://www.w3.org/2000/svg">
<circle cx="37" cy="37" r="37" fill="#96FFB8"/>
<path d="M5.27841 43V31.3636H9.42614C10.3277 31.3636 11.0758 31.5189 11.6705 31.8295C12.2689 32.1402 12.7159 32.5701 13.0114 33.1193C13.3068 33.6648 13.4545 34.2955 13.4545 35.0114C13.4545 35.7235 13.3049 36.3504 13.0057 36.892C12.7102 37.4299 12.2633 37.8485 11.6648 38.1477C11.0701 38.447 10.322 38.5966 9.42045 38.5966H6.27841V37.0852H9.26136C9.82955 37.0852 10.2917 37.0038 10.6477 36.8409C11.0076 36.678 11.2708 36.4413 11.4375 36.1307C11.6042 35.8201 11.6875 35.447 11.6875 35.0114C11.6875 34.572 11.6023 34.1913 11.4318 33.8693C11.2652 33.5473 11.0019 33.3011 10.642 33.1307C10.286 32.9564 9.81818 32.8693 9.23864 32.8693H7.03409V43H5.27841ZM11.0227 37.75L13.8977 43H11.8977L9.07955 37.75H11.0227ZM18.9305 43.1761C18.0707 43.1761 17.3302 42.9924 16.7089 42.625C16.0915 42.2538 15.6142 41.733 15.2771 41.0625C14.9438 40.3883 14.7771 39.5985 14.7771 38.6932C14.7771 37.7992 14.9438 37.0114 15.2771 36.3295C15.6142 35.6477 16.0839 35.1155 16.6862 34.733C17.2923 34.3504 18.0006 34.1591 18.8112 34.1591C19.3036 34.1591 19.7809 34.2405 20.243 34.4034C20.7052 34.5663 21.1199 34.822 21.4874 35.1705C21.8548 35.5189 22.1446 35.9716 22.3567 36.5284C22.5688 37.0814 22.6749 37.7538 22.6749 38.5455V39.1477H15.7374V37.875H21.0101C21.0101 37.428 20.9192 37.0322 20.7374 36.6875C20.5555 36.339 20.2999 36.0644 19.9703 35.8636C19.6445 35.6629 19.262 35.5625 18.8226 35.5625C18.3453 35.5625 17.9286 35.6799 17.5726 35.9148C17.2203 36.1458 16.9476 36.4489 16.7544 36.8239C16.565 37.1951 16.4703 37.5985 16.4703 38.0341V39.0284C16.4703 39.6117 16.5726 40.108 16.7771 40.517C16.9855 40.9261 17.2752 41.2386 17.6464 41.4545C18.0177 41.6667 18.4514 41.7727 18.9476 41.7727C19.2695 41.7727 19.5631 41.7273 19.8283 41.6364C20.0934 41.5417 20.3226 41.4015 20.5158 41.2159C20.7089 41.0303 20.8567 40.8011 20.9589 40.5284L22.5669 40.8182C22.4381 41.2917 22.207 41.7064 21.8737 42.0625C21.5442 42.4148 21.1294 42.6894 20.6294 42.8864C20.1332 43.0795 19.5669 43.1761 18.9305 43.1761ZM31.5997 34.2727L28.4349 43H26.6168L23.4463 34.2727H25.2702L27.4804 40.9886H27.5713L29.7758 34.2727H31.5997ZM36.4848 43.1761C35.6249 43.1761 34.8844 42.9924 34.2632 42.625C33.6458 42.2538 33.1685 41.733 32.8314 41.0625C32.498 40.3883 32.3314 39.5985 32.3314 38.6932C32.3314 37.7992 32.498 37.0114 32.8314 36.3295C33.1685 35.6477 33.6382 35.1155 34.2405 34.733C34.8465 34.3504 35.5549 34.1591 36.3655 34.1591C36.8579 34.1591 37.3352 34.2405 37.7973 34.4034C38.2594 34.5663 38.6742 34.822 39.0416 35.1705C39.409 35.5189 39.6988 35.9716 39.9109 36.5284C40.123 37.0814 40.2291 37.7538 40.2291 38.5455V39.1477H33.2916V37.875H38.5643C38.5643 37.428 38.4734 37.0322 38.2916 36.6875C38.1098 36.339 37.8541 36.0644 37.5246 35.8636C37.1988 35.6629 36.8162 35.5625 36.3768 35.5625C35.8996 35.5625 35.4829 35.6799 35.1268 35.9148C34.7746 36.1458 34.5018 36.4489 34.3086 36.8239C34.1193 37.1951 34.0246 37.5985 34.0246 38.0341V39.0284C34.0246 39.6117 34.1268 40.108 34.3314 40.517C34.5397 40.9261 34.8295 41.2386 35.2007 41.4545C35.5719 41.6667 36.0056 41.7727 36.5018 41.7727C36.8238 41.7727 37.1174 41.7273 37.3825 41.6364C37.6477 41.5417 37.8768 41.4015 38.07 41.2159C38.2632 41.0303 38.4109 40.8011 38.5132 40.5284L40.1211 40.8182C39.9924 41.2917 39.7613 41.7064 39.428 42.0625C39.0984 42.4148 38.6836 42.6894 38.1836 42.8864C37.6874 43.0795 37.1211 43.1761 36.4848 43.1761ZM43.6369 37.8182V43H41.938V34.2727H43.5687V35.6932H43.6767C43.8774 35.2311 44.1918 34.8598 44.6199 34.5795C45.0517 34.2992 45.5952 34.1591 46.2505 34.1591C46.8452 34.1591 47.3661 34.2841 47.813 34.5341C48.26 34.7803 48.6066 35.1477 48.8528 35.6364C49.099 36.125 49.2221 36.7292 49.2221 37.4489V43H47.5233V37.6534C47.5233 37.0208 47.3585 36.5265 47.029 36.1705C46.6994 35.8106 46.2468 35.6307 45.671 35.6307C45.2771 35.6307 44.9267 35.7159 44.6199 35.8864C44.3168 36.0568 44.0763 36.3068 43.8983 36.6364C43.724 36.9621 43.6369 37.3561 43.6369 37.8182ZM56.853 39.3807V34.2727H58.5575V43H56.887V41.4886H56.7961C56.5954 41.9545 56.2734 42.3428 55.8302 42.6534C55.3908 42.9602 54.8435 43.1136 54.1882 43.1136C53.6276 43.1136 53.1314 42.9905 52.6995 42.7443C52.2715 42.4943 51.9344 42.125 51.6882 41.6364C51.4458 41.1477 51.3245 40.5436 51.3245 39.8239V34.2727H53.0234V39.6193C53.0234 40.214 53.1882 40.6875 53.5177 41.0398C53.8473 41.392 54.2753 41.5682 54.8018 41.5682C55.12 41.5682 55.4363 41.4886 55.7507 41.3295C56.0689 41.1705 56.3321 40.9299 56.5405 40.608C56.7526 40.286 56.8567 39.8769 56.853 39.3807ZM64.4255 43.1761C63.5657 43.1761 62.8252 42.9924 62.2039 42.625C61.5865 42.2538 61.1092 41.733 60.7721 41.0625C60.4388 40.3883 60.2721 39.5985 60.2721 38.6932C60.2721 37.7992 60.4388 37.0114 60.7721 36.3295C61.1092 35.6477 61.5789 35.1155 62.1812 34.733C62.7873 34.3504 63.4956 34.1591 64.3062 34.1591C64.7986 34.1591 65.2759 34.2405 65.738 34.4034C66.2002 34.5663 66.6149 34.822 66.9824 35.1705C67.3498 35.5189 67.6395 35.9716 67.8517 36.5284C68.0638 37.0814 68.1699 37.7538 68.1699 38.5455V39.1477H61.2324V37.875H66.5051C66.5051 37.428 66.4142 37.0322 66.2324 36.6875C66.0505 36.339 65.7949 36.0644 65.4653 35.8636C65.1395 35.6629 64.757 35.5625 64.3176 35.5625C63.8403 35.5625 63.4236 35.6799 63.0676 35.9148C62.7153 36.1458 62.4426 36.4489 62.2494 36.8239C62.06 37.1951 61.9653 37.5985 61.9653 38.0341V39.0284C61.9653 39.6117 62.0676 40.108 62.2721 40.517C62.4805 40.9261 62.7702 41.2386 63.1414 41.4545C63.5127 41.6667 63.9464 41.7727 64.4426 41.7727C64.7645 41.7727 65.0581 41.7273 65.3233 41.6364C65.5884 41.5417 65.8176 41.4015 66.0108 41.2159C66.2039 41.0303 66.3517 40.8011 66.4539 40.5284L68.0619 40.8182C67.9331 41.2917 67.702 41.7064 67.3687 42.0625C67.0392 42.4148 66.6244 42.6894 66.1244 42.8864C65.6282 43.0795 65.0619 43.1761 64.4255 43.1761Z" fill="#049430"/>
</svg>
