<svg width="74" height="74" viewBox="0 0 74 74" fill="none" xmlns="http://www.w3.org/2000/svg">
<circle cx="37" cy="37" r="37" fill="#FDE3EA"/>
<path d="M30.3111 34.1662H28.3168C28.2401 33.7401 28.0973 33.3651 27.8885 33.0412C27.6797 32.7173 27.424 32.4425 27.1214 32.2166C26.8189 31.9908 26.4801 31.8203 26.1051 31.7053C25.7344 31.5902 25.3402 31.5327 24.9226 31.5327C24.1683 31.5327 23.4929 31.7223 22.8963 32.1016C22.304 32.4808 21.8352 33.0369 21.4901 33.7699C21.1491 34.5028 20.9787 35.3977 20.9787 36.4545C20.9787 37.5199 21.1491 38.419 21.4901 39.152C21.8352 39.8849 22.3061 40.4389 22.9027 40.8139C23.4993 41.1889 24.1705 41.3764 24.9162 41.3764C25.3295 41.3764 25.7216 41.321 26.0923 41.2102C26.4673 41.0952 26.8061 40.9268 27.1087 40.7053C27.4112 40.4837 27.6669 40.2131 27.8757 39.8935C28.0888 39.5696 28.2358 39.1989 28.3168 38.7812L30.3111 38.7876C30.2045 39.4311 29.9979 40.0234 29.6911 40.5646C29.3885 41.1016 28.9986 41.5661 28.5213 41.9581C28.0483 42.3459 27.5071 42.6463 26.8977 42.8594C26.2884 43.0724 25.6236 43.179 24.9034 43.179C23.7699 43.179 22.7599 42.9105 21.8736 42.3736C20.9872 41.8324 20.2884 41.0589 19.777 40.0533C19.2699 39.0476 19.0163 37.848 19.0163 36.4545C19.0163 35.0568 19.272 33.8572 19.7834 32.8558C20.2947 31.8501 20.9936 31.0788 21.88 30.5419C22.7663 30.0007 23.7741 29.7301 24.9034 29.7301C25.598 29.7301 26.2457 29.8303 26.8466 30.0305C27.4517 30.2266 27.995 30.5163 28.4766 30.8999C28.9581 31.2791 29.3565 31.7436 29.6719 32.2933C29.9872 32.8388 30.2003 33.4631 30.3111 34.1662ZM32.4765 43V29.9091H37.1427C38.1612 29.9091 39.0049 30.0945 39.674 30.4652C40.343 30.8359 40.8437 31.343 41.1761 31.9865C41.5085 32.6257 41.6747 33.3459 41.6747 34.147C41.6747 34.9524 41.5064 35.6768 41.1697 36.3203C40.8373 36.9595 40.3345 37.4666 39.6612 37.8416C38.9922 38.2124 38.1505 38.3977 37.1363 38.3977H33.9275V36.723H36.9574C37.6008 36.723 38.1228 36.6122 38.5234 36.3906C38.924 36.1648 39.218 35.858 39.4055 35.4702C39.593 35.0824 39.6868 34.6413 39.6868 34.147C39.6868 33.6527 39.593 33.2138 39.4055 32.8303C39.218 32.4467 38.9219 32.1463 38.517 31.929C38.1165 31.7116 37.588 31.603 36.9318 31.603H34.4517V43H32.4765ZM43.5094 43H41.4128L46.1237 29.9091H48.4057L53.1166 43H51.02L47.319 32.2869H47.2167L43.5094 43ZM43.8609 37.8736H50.6621V39.5355H43.8609V37.8736Z" fill="#EF416B"/>
</svg>
