<svg width="74" height="74" viewBox="0 0 74 74" fill="none" xmlns="http://www.w3.org/2000/svg">
<circle cx="37" cy="37" r="37" fill="#96FFB8"/>
<path d="M30.3111 35.1662H28.3168C28.2401 34.7401 28.0973 34.3651 27.8885 34.0412C27.6797 33.7173 27.424 33.4425 27.1214 33.2166C26.8189 32.9908 26.4801 32.8203 26.1051 32.7053C25.7344 32.5902 25.3402 32.5327 24.9226 32.5327C24.1683 32.5327 23.4929 32.7223 22.8963 33.1016C22.304 33.4808 21.8352 34.0369 21.4901 34.7699C21.1491 35.5028 20.9787 36.3977 20.9787 37.4545C20.9787 38.5199 21.1491 39.419 21.4901 40.152C21.8352 40.8849 22.3061 41.4389 22.9027 41.8139C23.4993 42.1889 24.1705 42.3764 24.9162 42.3764C25.3295 42.3764 25.7216 42.321 26.0923 42.2102C26.4673 42.0952 26.8061 41.9268 27.1087 41.7053C27.4112 41.4837 27.6669 41.2131 27.8757 40.8935C28.0888 40.5696 28.2358 40.1989 28.3168 39.7812L30.3111 39.7876C30.2045 40.4311 29.9979 41.0234 29.6911 41.5646C29.3885 42.1016 28.9986 42.5661 28.5213 42.9581C28.0483 43.3459 27.5071 43.6463 26.8977 43.8594C26.2884 44.0724 25.6236 44.179 24.9034 44.179C23.7699 44.179 22.7599 43.9105 21.8736 43.3736C20.9872 42.8324 20.2884 42.0589 19.777 41.0533C19.2699 40.0476 19.0163 38.848 19.0163 37.4545C19.0163 36.0568 19.272 34.8572 19.7834 33.8558C20.2947 32.8501 20.9936 32.0788 21.88 31.5419C22.7663 31.0007 23.7741 30.7301 24.9034 30.7301C25.598 30.7301 26.2457 30.8303 26.8466 31.0305C27.4517 31.2266 27.995 31.5163 28.4766 31.8999C28.9581 32.2791 29.3565 32.7436 29.6719 33.2933C29.9872 33.8388 30.2003 34.4631 30.3111 35.1662ZM31.8309 32.6094V30.9091H41.9623V32.6094H37.8778V44H35.9091V32.6094H31.8309ZM44.0031 44V30.9091H48.6693C49.6835 30.9091 50.5252 31.0838 51.1942 31.4332C51.8675 31.7827 52.3703 32.2663 52.7027 32.8842C53.0351 33.4979 53.2013 34.2074 53.2013 35.0128C53.2013 35.8139 53.033 36.5192 52.6963 37.1286C52.3639 37.7337 51.8611 38.2045 51.1878 38.5412C50.5188 38.8778 49.6772 39.0462 48.6629 39.0462H45.1281V37.3459H48.484C49.1232 37.3459 49.6431 37.2543 50.0436 37.071C50.4485 36.8878 50.7446 36.6214 50.9321 36.272C51.1196 35.9226 51.2134 35.5028 51.2134 35.0128C51.2134 34.5185 51.1175 34.0902 50.9257 33.728C50.7382 33.3658 50.4421 33.0888 50.0372 32.897C49.6367 32.701 49.1104 32.603 48.4584 32.603H45.9783V44H44.0031ZM50.4655 38.0938L53.6999 44H51.4499L48.2794 38.0938H50.4655Z" fill="#049430"/>
</svg>
