<svg width="74" height="74" viewBox="0 0 74 74" fill="none" xmlns="http://www.w3.org/2000/svg">
<circle cx="37" cy="37" r="37" fill="#96FFB8"/>
<path d="M30.3111 34.1662H28.3168C28.2401 33.7401 28.0973 33.3651 27.8885 33.0412C27.6797 32.7173 27.424 32.4425 27.1214 32.2166C26.8189 31.9908 26.4801 31.8203 26.1051 31.7053C25.7344 31.5902 25.3402 31.5327 24.9226 31.5327C24.1683 31.5327 23.4929 31.7223 22.8963 32.1016C22.304 32.4808 21.8352 33.0369 21.4901 33.7699C21.1491 34.5028 20.9787 35.3977 20.9787 36.4545C20.9787 37.5199 21.1491 38.419 21.4901 39.152C21.8352 39.8849 22.3061 40.4389 22.9027 40.8139C23.4993 41.1889 24.1705 41.3764 24.9162 41.3764C25.3295 41.3764 25.7216 41.321 26.0923 41.2102C26.4673 41.0952 26.8061 40.9268 27.1087 40.7053C27.4112 40.4837 27.6669 40.2131 27.8757 39.8935C28.0888 39.5696 28.2358 39.1989 28.3168 38.7812L30.3111 38.7876C30.2045 39.4311 29.9979 40.0234 29.6911 40.5646C29.3885 41.1016 28.9986 41.5661 28.5213 41.9581C28.0483 42.3459 27.5071 42.6463 26.8977 42.8594C26.2884 43.0724 25.6236 43.179 24.9034 43.179C23.7699 43.179 22.7599 42.9105 21.8736 42.3736C20.9872 41.8324 20.2884 41.0589 19.777 40.0533C19.2699 39.0476 19.0163 37.848 19.0163 36.4545C19.0163 35.0568 19.272 33.8572 19.7834 32.8558C20.2947 31.8501 20.9936 31.0788 21.88 30.5419C22.7663 30.0007 23.7741 29.7301 24.9034 29.7301C25.598 29.7301 26.2457 29.8303 26.8466 30.0305C27.4517 30.2266 27.995 30.5163 28.4766 30.8999C28.9581 31.2791 29.3565 31.7436 29.6719 32.2933C29.9872 32.8388 30.2003 33.4631 30.3111 34.1662ZM32.4765 43V29.9091H37.1427C38.1612 29.9091 39.0049 30.0945 39.674 30.4652C40.343 30.8359 40.8437 31.343 41.1761 31.9865C41.5085 32.6257 41.6747 33.3459 41.6747 34.147C41.6747 34.9524 41.5064 35.6768 41.1697 36.3203C40.8373 36.9595 40.3345 37.4666 39.6612 37.8416C38.9922 38.2124 38.1505 38.3977 37.1363 38.3977H33.9275V36.723H36.9574C37.6008 36.723 38.1228 36.6122 38.5234 36.3906C38.924 36.1648 39.218 35.858 39.4055 35.4702C39.593 35.0824 39.6868 34.6413 39.6868 34.147C39.6868 33.6527 39.593 33.2138 39.4055 32.8303C39.218 32.4467 38.9219 32.1463 38.517 31.929C38.1165 31.7116 37.588 31.603 36.9318 31.603H34.4517V43H32.4765ZM54.6651 34.1662H52.6708C52.5941 33.7401 52.4513 33.3651 52.2425 33.0412C52.0337 32.7173 51.778 32.4425 51.4754 32.2166C51.1729 31.9908 50.8341 31.8203 50.4591 31.7053C50.0884 31.5902 49.6942 31.5327 49.2766 31.5327C48.5223 31.5327 47.8469 31.7223 47.2503 32.1016C46.658 32.4808 46.1892 33.0369 45.8441 33.7699C45.5031 34.5028 45.3327 35.3977 45.3327 36.4545C45.3327 37.5199 45.5031 38.419 45.8441 39.152C46.1892 39.8849 46.6601 40.4389 47.2567 40.8139C47.8533 41.1889 48.5245 41.3764 49.2702 41.3764C49.6835 41.3764 50.0756 41.321 50.4463 41.2102C50.8213 41.0952 51.1601 40.9268 51.4627 40.7053C51.7652 40.4837 52.0209 40.2131 52.2297 39.8935C52.4428 39.5696 52.5898 39.1989 52.6708 38.7812L54.6651 38.7876C54.5585 39.4311 54.3519 40.0234 54.0451 40.5646C53.7425 41.1016 53.3526 41.5661 52.8753 41.9581C52.4023 42.3459 51.8611 42.6463 51.2517 42.8594C50.6424 43.0724 49.9776 43.179 49.2574 43.179C48.1239 43.179 47.1139 42.9105 46.2276 42.3736C45.3412 41.8324 44.6424 41.0589 44.131 40.0533C43.6239 39.0476 43.3703 37.848 43.3703 36.4545C43.3703 35.0568 43.626 33.8572 44.1374 32.8558C44.6487 31.8501 45.3476 31.0788 46.234 30.5419C47.1203 30.0007 48.1281 29.7301 49.2574 29.7301C49.952 29.7301 50.5997 29.8303 51.2006 30.0305C51.8057 30.2266 52.349 30.5163 52.8306 30.8999C53.3121 31.2791 53.7105 31.7436 54.0259 32.2933C54.3412 32.8388 54.5543 33.4631 54.6651 34.1662Z" fill="#049430"/>
</svg>
