<svg width="74" height="74" viewBox="0 0 74 74" fill="none" xmlns="http://www.w3.org/2000/svg">
<circle cx="37" cy="37" r="37" fill="#FDE3EA"/>
<path d="M29.3111 35.1662H27.3168C27.2401 34.7401 27.0973 34.3651 26.8885 34.0412C26.6797 33.7173 26.424 33.4425 26.1214 33.2166C25.8189 32.9908 25.4801 32.8203 25.1051 32.7053C24.7344 32.5902 24.3402 32.5327 23.9226 32.5327C23.1683 32.5327 22.4929 32.7223 21.8963 33.1016C21.304 33.4808 20.8352 34.0369 20.4901 34.7699C20.1491 35.5028 19.9787 36.3977 19.9787 37.4545C19.9787 38.5199 20.1491 39.419 20.4901 40.152C20.8352 40.8849 21.3061 41.4389 21.9027 41.8139C22.4993 42.1889 23.1705 42.3764 23.9162 42.3764C24.3295 42.3764 24.7216 42.321 25.0923 42.2102C25.4673 42.0952 25.8061 41.9268 26.1087 41.7053C26.4112 41.4837 26.6669 41.2131 26.8757 40.8935C27.0888 40.5696 27.2358 40.1989 27.3168 39.7812L29.3111 39.7876C29.2045 40.4311 28.9979 41.0234 28.6911 41.5646C28.3885 42.1016 27.9986 42.5661 27.5213 42.9581C27.0483 43.3459 26.5071 43.6463 25.8977 43.8594C25.2884 44.0724 24.6236 44.179 23.9034 44.179C22.7699 44.179 21.7599 43.9105 20.8736 43.3736C19.9872 42.8324 19.2884 42.0589 18.777 41.0533C18.2699 40.0476 18.0163 38.848 18.0163 37.4545C18.0163 36.0568 18.272 34.8572 18.7834 33.8558C19.2947 32.8501 19.9936 32.0788 20.88 31.5419C21.7663 31.0007 22.7741 30.7301 23.9034 30.7301C24.598 30.7301 25.2457 30.8303 25.8466 31.0305C26.4517 31.2266 26.995 31.5163 27.4766 31.8999C27.9581 32.2791 28.3565 32.7436 28.6719 33.2933C28.9872 33.8388 29.2003 34.4631 29.3111 35.1662ZM35.4588 44.1982C34.5383 44.1982 33.7351 43.9872 33.049 43.5653C32.3629 43.1435 31.8302 42.5533 31.451 41.7947C31.0717 41.0362 30.8821 40.1499 30.8821 39.1357C30.8821 38.1172 31.0717 37.2266 31.451 36.4638C31.8302 35.701 32.3629 35.1087 33.049 34.6868C33.7351 34.2649 34.5383 34.054 35.4588 34.054C36.3792 34.054 37.1825 34.2649 37.8686 34.6868C38.5547 35.1087 39.0873 35.701 39.4666 36.4638C39.8459 37.2266 40.0355 38.1172 40.0355 39.1357C40.0355 40.1499 39.8459 41.0362 39.4666 41.7947C39.0873 42.5533 38.5547 43.1435 37.8686 43.5653C37.1825 43.9872 36.3792 44.1982 35.4588 44.1982ZM35.4652 42.5938C36.0618 42.5938 36.5561 42.4361 36.9481 42.1207C37.3402 41.8054 37.6299 41.3857 37.8174 40.8615C38.0092 40.3374 38.1051 39.7599 38.1051 39.1293C38.1051 38.5028 38.0092 37.9276 37.8174 37.4034C37.6299 36.875 37.3402 36.451 36.9481 36.1314C36.5561 35.8118 36.0618 35.652 35.4652 35.652C34.8643 35.652 34.3657 35.8118 33.9694 36.1314C33.5774 36.451 33.2855 36.875 33.0937 37.4034C32.9062 37.9276 32.8125 38.5028 32.8125 39.1293C32.8125 39.7599 32.9062 40.3374 33.0937 40.8615C33.2855 41.3857 33.5774 41.8054 33.9694 42.1207C34.3657 42.4361 34.8643 42.5938 35.4652 42.5938ZM49.3281 36.5788L47.5958 36.8857C47.5234 36.6641 47.4083 36.4531 47.2507 36.2528C47.0973 36.0526 46.8884 35.8885 46.6242 35.7607C46.36 35.6328 46.0298 35.5689 45.6335 35.5689C45.0923 35.5689 44.6406 35.6903 44.2784 35.9332C43.9161 36.1719 43.735 36.4808 43.735 36.8601C43.735 37.1882 43.8565 37.4524 44.0994 37.6527C44.3423 37.853 44.7343 38.017 45.2755 38.1449L46.8352 38.5028C47.7386 38.7116 48.4119 39.0334 48.8551 39.468C49.2982 39.9027 49.5198 40.4673 49.5198 41.1619C49.5198 41.75 49.3494 42.2741 49.0085 42.7344C48.6718 43.1903 48.2009 43.5483 47.5958 43.8082C46.995 44.0682 46.2982 44.1982 45.5056 44.1982C44.4062 44.1982 43.5092 43.9638 42.8146 43.495C42.12 43.022 41.6938 42.3509 41.5362 41.4815L43.3835 41.2003C43.4985 41.6818 43.735 42.0462 44.093 42.2933C44.4509 42.5362 44.9176 42.6577 45.4928 42.6577C46.1193 42.6577 46.62 42.5277 46.995 42.2678C47.37 42.0036 47.5575 41.6818 47.5575 41.3026C47.5575 40.9957 47.4424 40.7379 47.2123 40.5291C46.9865 40.3203 46.6392 40.1626 46.1704 40.0561L44.5085 39.6918C43.5923 39.483 42.9147 39.1506 42.4758 38.6946C42.0411 38.2386 41.8238 37.6612 41.8238 36.9624C41.8238 36.3828 41.9857 35.8757 42.3096 35.4411C42.6335 35.0064 43.0809 34.6676 43.6519 34.4247C44.223 34.1776 44.8771 34.054 45.6143 34.054C46.6754 34.054 47.5106 34.2841 48.12 34.7443C48.7294 35.2003 49.1321 35.8118 49.3281 36.5788ZM56.0063 34.1818V35.7159H50.6434V34.1818H56.0063ZM52.0816 31.8295H53.9928V41.1172C53.9928 41.4879 54.0482 41.767 54.159 41.9545C54.2698 42.1378 54.4126 42.2635 54.5873 42.3317C54.7663 42.3956 54.9602 42.4276 55.169 42.4276C55.3224 42.4276 55.4566 42.4169 55.5717 42.3956C55.6867 42.3743 55.7762 42.3572 55.8401 42.3445L56.1853 43.9233C56.0745 43.9659 55.9168 44.0085 55.7123 44.0511C55.5077 44.098 55.2521 44.1236 54.9452 44.1278C54.4424 44.1364 53.9736 44.0469 53.539 43.8594C53.1043 43.6719 52.7528 43.3821 52.4843 42.9901C52.2158 42.598 52.0816 42.1058 52.0816 41.5135V31.8295Z" fill="#EF416B"/>
</svg>
