<svg width="65" height="73" viewBox="0 0 65 73" fill="none" xmlns="http://www.w3.org/2000/svg">
<path fill-rule="evenodd" clip-rule="evenodd" d="M23.8153 68.8748L7.31528 58.2111C3.73664 55.8982 1.94732 54.7418 0.97366 52.9532C0 51.1647 0 49.0342 0 44.7732V28.5863C0 27.8384 -5.04121e-10 27.156 0.0052666 26.5297C0.0219449 24.5462 0.0302841 23.5544 1.07141 22.9933C2.11255 22.4322 3.03306 23.0271 4.87407 24.2169L29.6712 40.243C30.5658 40.8212 31.0132 41.1103 31.2566 41.5575C31.5 42.0046 31.5 42.5373 31.5 43.6025V68.16C31.5 70.2065 31.5 71.2298 30.4856 71.8043C29.4712 72.3788 28.7127 71.924 27.1957 71.0142C26.2243 70.4317 25.1208 69.7186 23.8153 68.8748ZM33.5 68.16C33.5 70.2065 33.5 71.2298 34.5144 71.8043C35.5288 72.3788 36.2873 71.924 37.8043 71.0142C38.7757 70.4317 39.8792 69.7186 41.1847 68.8748L57.6847 58.211C61.2634 55.8982 63.0527 54.7418 64.0263 52.9532C65 51.1647 65 49.0342 65 44.7732V28.5863C65 27.8384 65 27.156 64.9947 26.5297C64.9781 24.5462 64.9697 23.5544 63.9286 22.9933C62.8875 22.4322 61.9669 23.0271 60.1259 24.2169L35.3288 40.243C34.4342 40.8212 33.9868 41.1103 33.7434 41.5575C33.5 42.0046 33.5 42.5373 33.5 43.6025V68.16ZM60.2718 16.8453C61.6618 17.7903 62.3568 18.2628 62.3443 19.3364C62.3318 20.41 61.5245 20.9318 59.9099 21.9753L34.6712 38.2867C33.6171 38.968 33.09 39.3086 32.5 39.3086C31.91 39.3086 31.3829 38.968 30.3288 38.2867L5.09014 21.9753C3.47554 20.9318 2.66824 20.41 2.65572 19.3364C2.6432 18.2628 3.33818 17.7903 4.72816 16.8453C5.46656 16.3433 6.322 15.7904 7.31528 15.1485L23.8153 4.48472C28.0317 1.75972 30.1398 0.397217 32.5 0.397217C34.8602 0.397217 36.9683 1.75972 41.1847 4.48472L57.6847 15.1485C58.678 15.7904 59.5334 16.3433 60.2718 16.8453Z" fill="url(#paint0_linear_136_2290)"/>
<defs>
<linearGradient id="paint0_linear_136_2290" x1="32.4113" y1="-8.5778" x2="32.4113" y2="95.0122" gradientUnits="userSpaceOnUse">
<stop offset="0.129684" stop-color="#6E7ED7"/>
<stop offset="0.937113" stop-color="#6E7ED7" stop-opacity="0"/>
</linearGradient>
</defs>
</svg>
