<svg width="83" height="98" viewBox="0 0 83 98" fill="none" xmlns="http://www.w3.org/2000/svg">
<path d="M46.7823 68.7283H37.5991C40.6719 65.5222 42.0376 65.4469 46.7823 68.7283Z" fill="#90A1FF"/>
<path d="M40.1949 64.0421C36.1732 67.5743 31.8351 67.9908 27.6025 65.1309C34.0845 59.2655 36.7556 58.8792 40.1949 64.0421Z" fill="#90A1FF"/>
<path d="M32.4125 58.2972C31.9456 58.8492 31.6845 59.2957 31.308 59.5817C30.354 60.3293 29.3649 61.0217 28.3707 61.7191C25.2126 63.9167 22.4913 63.2043 20.8344 59.6419C20.5583 59.0549 20.6235 58.1317 20.8846 57.5045C21.2763 56.5662 21.9591 55.7434 22.5666 54.9005C24.9917 51.4987 26.8093 51.323 29.7967 54.4288C30.846 55.5126 31.5289 56.9526 32.4176 58.2972H32.4125Z" fill="#90A1FF"/>
<path d="M21.7534 52.5173C20.6187 53.6662 19.8304 55.1564 18.8865 56.4961C14.9602 53.4806 14.9451 47.4798 19.0522 42.8186C20.0714 43.8873 21.1107 44.7001 21.7885 45.7538C23.1994 47.9514 24.0379 50.1942 21.7534 52.5173Z" fill="#90A1FF"/>
<path d="M14.5784 45.3171C13.1023 43.0191 13.268 38.7443 15.0805 34.635C18.0729 38.4884 17.9775 40.109 14.5784 45.3171Z" fill="#90A1FF"/>
<path d="M69.0296 45.3122C68.9844 45.543 68.8388 45.7538 68.8337 45.7538C65.6706 40.7715 58.6263 21.1635 47.8365 25.6239C45.2557 26.5773 41.8466 25.8497 38.9445 25.2476C36.5094 24.7409 36.173 23.0751 38.2366 21.881C42.178 19.593 46.4206 17.8018 50.5779 15.8952C51.0297 15.6845 51.7728 15.9403 52.3251 16.136C63.3309 19.9743 71.2839 33.8826 69.0296 45.3122Z" fill="#90A1FF"/>
<path d="M49.398 36.3109C49.2724 36.1805 49.1118 36.0801 48.931 35.9999C48.1176 35.6336 47.2541 36.5417 47.6859 37.3244C47.7411 37.4248 47.8064 37.5201 47.8766 37.6104C52.8373 43.7618 57.823 49.888 62.879 55.9591C64.1141 57.4443 63.7326 58.533 62.6631 59.7974C59.9217 63.0537 58.9326 63.3447 55.6941 60.831C50.4775 56.782 39.5771 47.5248 39.1203 47.3593C38.9696 47.3041 38.814 47.2689 38.6483 47.2388C37.8399 47.0984 37.1671 48.0065 37.6441 48.6788C37.6843 48.734 37.7295 48.7892 37.7797 48.8344C41.8968 52.4419 46.039 56.0243 50.2565 59.5164C51.8532 60.831 53.5653 62.0001 55.2623 63.1942C56.0105 63.721 56.0305 64.8098 55.3176 65.3868C53.5603 66.7967 51.2808 67.3235 49.3026 66.606C39.2307 62.1807 33.8985 55.7634 31.2375 53.4705C19.4234 44.69 26.3923 41.6745 16.2853 32.1164C16.0694 31.8755 16.3004 31.128 16.4661 30.6613C20.4326 19.5277 34.5262 11.9012 46.5059 14.7311C44.593 15.6242 42.921 16.2564 41.4047 17.1444C39.6073 18.1931 37.7897 19.2819 36.2684 20.6616C33.8031 22.8944 34.2249 25.373 37.2073 26.9083C40.8976 28.8049 44.9194 28.84 48.6599 27.6158C51.9335 26.532 53.7109 27.6308 55.7192 29.9438C60.6899 35.6637 64.4706 42.0107 67.0162 49.1404C67.699 51.042 67.458 52.6225 66.5493 54.1177C66.0673 54.9105 64.9074 54.9355 64.3351 54.198C61.4882 50.5403 58.7468 46.9478 55.8849 43.4557C53.8465 40.9671 51.6523 38.6139 49.3929 36.3159L49.398 36.3109Z" fill="#90A1FF"/>
<path d="M32.5232 80.3436C32.2069 81.317 31.9709 82.3105 31.5542 83.2587C30.5099 85.652 29.3852 88.0203 28.2906 90.3985C27.0605 92.837 25.8354 95.2754 24.4698 97.9848C23.0388 95.9628 21.7535 94.1415 20.4681 92.3202C18.7911 89.9419 18.6004 89.8817 15.2364 90.6644C12.6255 91.2715 10.0147 91.8736 6.94189 92.5811C9.07576 89.094 11.0339 85.8979 12.9971 82.6968C14.2774 80.725 15.6029 78.7631 16.828 76.7712C17.2497 76.0738 17.7619 75.7427 18.8062 75.833C19.4188 75.8832 20.0664 75.8229 20.674 75.7376C24.7208 75.1657 27.9191 76.134 30.3693 78.6076C30.9919 79.2398 31.8002 79.7666 32.5232 80.3386V80.3436Z" fill="url(#paint0_linear_62_177)"/>
<path d="M76.1345 92.506C73.3479 91.8788 70.7772 91.3018 68.2115 90.7098C64.4208 89.8418 64.3605 89.8568 62.548 92.4358C61.3078 94.2069 60.0576 95.973 58.6317 98.0001C57.2459 95.1401 56.0108 92.5311 54.7205 89.9371C53.4 87.2879 52.0042 84.6638 50.7138 82.0146C50.4678 81.5078 50.5431 80.9158 50.4678 80.3639C51.4217 79.5761 52.3958 78.7984 53.3246 77.9957C55.343 76.2546 57.8786 75.6274 60.9363 75.5823C64.5162 75.5321 66.891 76.4352 67.7898 79.1497C67.9806 79.7116 68.5027 80.2134 68.8743 80.7402C71.2441 84.5785 73.614 88.4218 76.1345 92.501V92.506Z" fill="url(#paint1_linear_62_177)"/>
<path d="M82.9126 40.0038C82.5662 37.1338 80.7185 35.3426 78.7001 33.6217C74.4022 30.6363 72.5696 26.4116 73.2173 21.3591C73.6541 17.9573 73.2725 14.987 71.1587 12.2776C68.8742 10.1954 66.2333 9.06647 63.1203 9.61838C56.9698 10.7122 52.2401 8.58479 48.6452 3.5724C46.6971 0.857987 43.9657 -0.195669 40.6369 0.0301145C37.539 0.235828 35.4955 1.98189 33.7382 4.33003C30.5499 8.59985 26.232 10.5466 20.9651 9.74382C17.2647 9.18187 14.1618 9.88932 11.561 12.5987C9.10078 14.8917 9.40706 17.8018 9.76354 20.7169C10.4363 26.3013 8.61376 30.7768 3.87406 33.9528C2.04144 35.5835 0.429741 37.3245 0.0983637 39.9386C-0.38364 43.7669 0.901703 46.7472 4.04477 48.99C7.39871 51.3833 9.48739 54.5543 9.81375 58.7539C9.76354 60.0584 9.81375 61.3729 9.63802 62.6624C8.74932 69.2703 13.4639 74.2727 19.9609 73.2893C25.8755 72.3962 30.5349 74.2075 34.0495 78.9941C35.4704 80.9308 37.2729 82.2855 39.6227 82.8625H43.3783C45.7331 82.2805 47.5406 80.9358 48.9514 78.9941C52.461 74.1824 57.1204 72.3761 63.035 73.2893C69.0851 74.2225 73.6842 69.9075 73.4382 63.7863C73.3729 62.2359 73.2524 60.6805 73.1571 59.1302C73.373 54.8202 75.4265 51.5288 78.8658 49.0703C82.0089 46.8174 83.3745 43.8672 82.9126 40.0038ZM41.5005 72.4163C24.3743 72.4163 10.4916 58.5431 10.4916 41.4338C10.4916 24.3244 24.3743 10.4463 41.5005 10.4463C58.6267 10.4463 72.5043 24.3194 72.5043 41.4338C72.5043 58.5481 58.6216 72.4163 41.5005 72.4163Z" fill="url(#paint2_linear_62_177)"/>
<defs>
<linearGradient id="paint0_linear_62_177" x1="19.7326" y1="75.5781" x2="20" y2="101" gradientUnits="userSpaceOnUse">
<stop stop-color="#6E7ED7"/>
<stop offset="1" stop-color="#6E7ED7" stop-opacity="0"/>
</linearGradient>
<linearGradient id="paint1_linear_62_177" x1="63.3011" y1="75.5803" x2="63" y2="104.5" gradientUnits="userSpaceOnUse">
<stop stop-color="#6E7ED7"/>
<stop offset="1" stop-color="#6E7ED7" stop-opacity="0"/>
</linearGradient>
<linearGradient id="paint2_linear_62_177" x1="41.5001" y1="0.000488281" x2="41.5001" y2="114.5" gradientUnits="userSpaceOnUse">
<stop offset="0.268391" stop-color="#6E7ED7"/>
<stop offset="1" stop-color="#6E7ED7" stop-opacity="0"/>
</linearGradient>
</defs>
</svg>
