<svg width="234" height="45" viewBox="0 0 234 45" fill="none" xmlns="http://www.w3.org/2000/svg">
<path fill-rule="evenodd" clip-rule="evenodd" d="M23.8605 19.4787C24.323 18.4752 22.8402 17.8157 20.4415 16.7495C17.7468 15.5516 13.8984 13.8404 10.3562 10.5511C7.8085 8.19403 5.79476 5.56802 4.22805 3.52544C2.54235 1.3279 1.37509 -0.194339 0.618644 0.0201194C0.432378 0.102878 0.287491 0.3615 0.18401 0.858053C-1.62794 9.5648 10.4142 17.2072 15.5717 20.4803C16.8051 21.2633 17.6444 21.7963 17.8068 22.0339C18.4836 23.0258 12.9515 20.1727 8.56909 17.9125C5.9117 16.5421 3.67754 15.3896 3.50576 15.4442C1.07395 16.2201 12.0223 25.3444 17.217 26.596C18.9348 27.0098 7.40699 25.2925 7.01377 25.1684C5.28563 24.6408 11.2772 29.3788 18.8727 32.4098C20.8927 33.2151 21.8602 34.8239 22.4293 35.7702C22.7967 36.3799 22.9974 36.7147 23.2085 36.3822C23.3617 36.1411 23.2251 35.2389 23.0233 33.9096C22.5173 30.5642 21.6015 24.5128 23.8605 19.4787ZM61.1395 19.4787C60.6759 18.4752 62.1598 17.8157 64.5585 16.7495C67.2522 15.5516 71.1016 13.8404 74.6438 10.5511C77.1905 8.19403 79.2052 5.56801 80.7719 3.52543C82.4577 1.32789 83.6249 -0.194339 84.3814 0.0201194C84.5676 0.102878 84.7125 0.3615 84.816 0.858053C86.6279 9.5648 74.5859 17.2072 69.4284 20.4803C68.1949 21.2633 67.3546 21.7963 67.1932 22.0339C66.5164 23.0258 72.0485 20.1728 76.4309 17.9125C79.0873 16.5421 81.3225 15.3896 81.4943 15.4442C83.9261 16.2201 72.9778 25.3444 67.783 26.596C66.0652 27.0098 77.593 25.2925 77.9863 25.1684C79.7144 24.6408 73.7228 29.3788 66.1273 32.4098C64.1074 33.2151 63.1398 34.8239 62.5696 35.7702C62.2033 36.3799 62.0026 36.7147 61.7915 36.3822C61.6383 36.1411 61.7749 35.2389 61.9757 33.9096C62.4817 30.5642 63.3975 24.5128 61.1395 19.4787ZM60.0188 27.4138C60.0188 37.1263 52.1429 45 42.4271 45C32.7112 45 24.8353 37.1263 24.8353 27.4138C24.8353 17.7011 32.7112 9.82748 42.4271 9.82748C52.1429 9.82748 60.0188 17.7011 60.0188 27.4138ZM41.5185 18.3621H41.5651H43.289H43.3356C44.9137 18.3621 46.1606 18.3621 47.152 18.4695C48.1682 18.5796 49.0085 18.8097 49.7297 19.3335C50.1612 19.6473 50.541 20.0269 50.8545 20.4587C50.9932 20.6486 51.1122 20.8486 51.2136 21.0607C51.5437 21.7444 51.6876 22.5315 51.7579 23.455C51.8262 24.3701 51.8262 25.4913 51.8262 26.8667V26.8966V26.9429C51.8262 28.5199 51.8262 29.7668 51.7186 30.7584C51.6089 31.7742 51.3792 32.6137 50.8545 33.3345C50.541 33.7663 50.1612 34.146 49.7297 34.4597C49.0085 34.9835 48.1682 35.2137 47.152 35.3237C46.1606 35.4311 44.9137 35.4311 43.3356 35.4311H43.289H41.5651H41.5185C39.9404 35.4311 38.6935 35.4311 37.7021 35.3237C36.6859 35.2137 35.8456 34.9835 35.1244 34.4597C34.6929 34.146 34.3131 33.7663 33.9996 33.3345C33.4749 32.6137 33.2452 31.7742 33.1355 30.7584C33.0279 29.7668 33.0279 28.5199 33.0279 26.9428V26.8966V26.8675C33.0279 25.5014 33.0279 24.386 33.0951 23.4746C33.1634 22.5554 33.3042 21.7712 33.626 21.0896C33.7315 20.8669 33.8547 20.6573 33.9996 20.4587C34.3131 20.0269 34.6929 19.6473 35.1244 19.3335C35.8456 18.8097 36.6859 18.5796 37.7021 18.4695C38.6935 18.3621 39.9404 18.3621 41.5185 18.3621ZM37.8687 20.0122C36.985 20.108 36.45 20.2894 36.0371 20.5888C35.767 20.7852 35.5259 21.0187 35.321 21.2823L36.8784 22.8384C38.3313 24.2907 39.3661 25.3236 40.2571 26.003C41.1304 26.6687 41.772 26.9215 42.4271 26.9215C43.0821 26.9215 43.7237 26.6687 44.597 26.003C45.488 25.3236 46.5228 24.2907 47.9757 22.8384L49.5331 21.2823C49.3282 21.0187 49.0871 20.7852 48.817 20.5888C48.4041 20.2894 47.8691 20.108 46.9854 20.0122C46.0872 19.9149 44.923 19.9138 43.289 19.9138H41.5651C39.9311 19.9138 38.7669 19.9149 37.8687 20.0122ZM50.1343 22.8753L49.0736 23.9357L49.0322 23.9771C47.6301 25.3787 46.5218 26.4866 45.5387 27.2366C44.5277 28.0078 43.5581 28.4733 42.4271 28.4733C41.296 28.4733 40.3264 28.0078 39.3154 27.2366C38.3323 26.4866 37.224 25.3788 35.8219 23.9771L35.7805 23.9357L34.7198 22.8753C34.6877 23.0888 34.6629 23.3254 34.6432 23.5896C34.5801 24.4369 34.5801 25.4952 34.5801 26.8966C34.5801 28.5302 34.5811 29.693 34.6784 30.5913C34.7736 31.475 34.9557 32.0102 35.2548 32.4224C35.4731 32.7225 35.737 32.9863 36.0371 33.2044C36.45 33.5039 36.985 33.6852 37.8687 33.781C38.7669 33.8784 39.9311 33.8794 41.5651 33.8794H43.289C44.923 33.8794 46.0872 33.8784 46.9854 33.781C47.8691 33.6852 48.4041 33.5039 48.817 33.2044C49.1171 32.9863 49.381 32.7225 49.5993 32.4224C49.8984 32.0102 50.0805 31.475 50.1757 30.5913C50.273 29.693 50.274 28.5302 50.274 26.8966C50.274 25.4852 50.274 24.4218 50.2099 23.5719C50.1902 23.3148 50.1654 23.084 50.1343 22.8753Z" fill="white"/>
<path d="M98.2 18.272C96.022 18.272 94.924 19.262 94.924 21.116V22.196H100.414V24.176H94.924V29H92.584V21.116C92.584 18.056 94.654 16.22 98.092 16.22C99.514 16.22 100.81 16.526 101.746 17.138L101.008 19.046C100.198 18.488 99.19 18.272 98.2 18.272ZM110.765 19.388H113.015V29H110.873V27.758C110.117 28.676 109.001 29.126 107.687 29.126C104.879 29.126 102.827 27.182 102.827 24.194C102.827 21.206 104.879 19.28 107.687 19.28C108.911 19.28 109.991 19.694 110.765 20.558V19.388ZM107.939 27.2C109.577 27.2 110.801 26.03 110.801 24.194C110.801 22.358 109.577 21.188 107.939 21.188C106.319 21.188 105.095 22.358 105.095 24.194C105.095 26.03 106.319 27.2 107.939 27.2ZM118.803 20.792C119.451 19.784 120.621 19.28 122.223 19.28V21.422C122.025 21.386 121.863 21.368 121.701 21.368C119.991 21.368 118.911 22.376 118.911 24.338V29H116.661V19.388H118.803V20.792ZM131.892 19.388H134.142V29H132V27.758C131.244 28.676 130.128 29.126 128.814 29.126C126.006 29.126 123.954 27.182 123.954 24.194C123.954 21.206 126.006 19.28 128.814 19.28C130.038 19.28 131.118 19.694 131.892 20.558V19.388ZM129.066 27.2C130.704 27.2 131.928 26.03 131.928 24.194C131.928 22.358 130.704 21.188 129.066 21.188C127.446 21.188 126.222 22.358 126.222 24.194C126.222 26.03 127.446 27.2 129.066 27.2ZM143.188 16.4C146.5 16.4 148.552 18.092 148.552 20.882C148.552 23.654 146.5 25.364 143.188 25.364H140.344V29H138.004V16.4H143.188ZM143.08 23.384C145.132 23.384 146.194 22.466 146.194 20.882C146.194 19.298 145.132 18.38 143.08 18.38H140.344V23.384H143.08ZM158.486 19.388H160.736V29H158.594V27.758C157.838 28.676 156.722 29.126 155.408 29.126C152.6 29.126 150.548 27.182 150.548 24.194C150.548 21.206 152.6 19.28 155.408 19.28C156.632 19.28 157.712 19.694 158.486 20.558V19.388ZM155.66 27.2C157.298 27.2 158.522 26.03 158.522 24.194C158.522 22.358 157.298 21.188 155.66 21.188C154.04 21.188 152.816 22.358 152.816 24.194C152.816 26.03 154.04 27.2 155.66 27.2ZM171.437 19.388H173.687V27.542C173.687 31.034 171.941 32.618 168.701 32.618C166.991 32.618 165.281 32.15 164.219 31.25L165.227 29.558C166.037 30.26 167.279 30.692 168.575 30.692C170.555 30.692 171.437 29.738 171.437 27.794V27.344C170.717 28.136 169.637 28.568 168.449 28.568C165.983 28.568 164.309 27.236 164.309 24.32V19.388H166.559V24.032C166.559 25.76 167.387 26.588 168.809 26.588C170.375 26.588 171.437 25.634 171.437 23.708V19.388ZM184.481 19.388H186.731V29H184.589V27.758C183.833 28.676 182.717 29.126 181.403 29.126C178.595 29.126 176.543 27.182 176.543 24.194C176.543 21.206 178.595 19.28 181.403 19.28C182.627 19.28 183.707 19.694 184.481 20.558V19.388ZM181.655 27.2C183.293 27.2 184.517 26.03 184.517 24.194C184.517 22.358 183.293 21.188 181.655 21.188C180.035 21.188 178.811 22.358 178.811 24.194C178.811 26.03 180.035 27.2 181.655 27.2ZM202.509 19.28C204.831 19.28 206.451 20.594 206.451 23.492V29H204.201V23.78C204.201 22.07 203.409 21.242 202.041 21.242C200.565 21.242 199.539 22.214 199.539 24.122V29H197.289V23.78C197.289 22.07 196.497 21.242 195.129 21.242C193.635 21.242 192.627 22.214 192.627 24.122V29H190.377V19.388H192.519V20.612C193.239 19.748 194.355 19.28 195.669 19.28C197.073 19.28 198.243 19.802 198.909 20.882C199.683 19.892 200.979 19.28 202.509 19.28ZM217.262 19.388H219.512V29H217.37V27.758C216.614 28.676 215.498 29.126 214.184 29.126C211.376 29.126 209.324 27.182 209.324 24.194C209.324 21.206 211.376 19.28 214.184 19.28C215.408 19.28 216.488 19.694 217.262 20.558V19.388ZM214.436 27.2C216.074 27.2 217.298 26.03 217.298 24.194C217.298 22.358 216.074 21.188 214.436 21.188C212.816 21.188 211.592 22.358 211.592 24.194C211.592 26.03 212.816 27.2 214.436 27.2ZM230.412 29L227.082 24.878L225.408 26.462V29H223.158V15.644H225.408V23.708L230.07 19.388H232.77L228.756 23.42L233.148 29H230.412Z" fill="white"/>
</svg>
