<svg width="200" height="44" viewBox="0 0 200 44" fill="none" xmlns="http://www.w3.org/2000/svg">
<path d="M17.7368 10.2631C17.7368 9.47496 17.4237 8.71909 16.8664 8.16178C16.3091 7.60447 15.5532 7.29138 14.7651 7.29138H14.2044C13.4162 7.29138 12.6604 7.60447 12.1031 8.16178C11.5458 8.71909 11.2327 9.47496 11.2327 10.2631V28.1496C11.2327 28.9377 11.5458 29.6936 12.1031 30.2509C12.6604 30.8082 13.4162 31.1213 14.2044 31.1213H14.7651C15.5532 31.1213 16.3091 30.8082 16.8664 30.2509C17.4237 29.6936 17.7368 28.9377 17.7368 28.1496V10.2631Z" stroke="#8FB9DB" stroke-width="2"/>
<path d="M30.8136 15.8924C30.8129 15.496 30.7342 15.1036 30.5818 14.7377C30.4295 14.3717 30.2066 14.0394 29.9258 13.7596C29.645 13.4798 29.3118 13.258 28.9454 13.107C28.5789 12.956 28.1862 12.8786 27.7898 12.8793L27.3039 12.8801C26.5034 12.8815 25.7362 13.2009 25.1711 13.7679C24.6061 14.335 24.2894 15.1033 24.2908 15.9038L24.3218 33.7155C24.3225 34.1119 24.4013 34.5043 24.5536 34.8702C24.7059 35.2361 24.9289 35.5685 25.2097 35.8483C25.4904 36.1281 25.8236 36.3498 26.1901 36.5009C26.5565 36.6519 26.9492 36.7293 27.3456 36.7286L27.8315 36.7278C28.6321 36.7264 29.3992 36.407 29.9643 35.84C30.5294 35.2729 30.846 34.5046 30.8447 33.7041L30.8136 15.8924Z" stroke="#8FB9DB" stroke-width="2"/>
<path d="M58.6402 26.9067V41.0457C58.6402 41.432 58.444 41.6251 58.0515 41.6251H46.4917C46.0244 41.6251 45.7908 41.3915 45.7908 40.9243V1.68435C45.7902 1.56707 45.8337 1.45362 45.9131 1.36569C45.9924 1.27775 46.1019 1.22153 46.2206 1.20776C52.1392 0.597212 58.0235 0.397851 63.8735 0.609672C73.7045 0.964784 82.9561 2.94594 81.0123 15.0571C80.3208 19.4026 77.7415 22.0659 73.368 22.3276C73.2794 22.3379 73.1974 22.3796 73.1368 22.4451C73.0762 22.5105 73.0411 22.5956 73.0377 22.6847C73.0343 22.7739 73.0629 22.8613 73.1184 22.9312C73.1738 23.0011 73.2524 23.0489 73.34 23.0659C77.4238 23.6172 78.7228 26.131 79.7694 30.0466C80.7475 33.7223 81.7101 37.4012 82.657 41.0831C82.7505 41.4445 82.6103 41.6251 82.2365 41.6251H69.8356C69.7102 41.625 69.5887 41.5834 69.4905 41.5072C69.3922 41.431 69.3229 41.3244 69.2936 41.2046L66.1817 28.1122C65.9138 26.997 65.2067 26.4394 64.0604 26.4394H59.1075C58.796 26.4394 58.6402 26.5952 58.6402 26.9067ZM58.6402 8.92677V17.898C58.6402 17.9508 58.6506 18.0031 58.6708 18.0518C58.691 18.1006 58.7206 18.1449 58.7579 18.1822C58.7952 18.2195 58.8395 18.2491 58.8883 18.2693C58.9371 18.2895 58.9893 18.2999 59.0421 18.2999H64.3594C65.44 18.2999 66.4764 17.9208 67.2405 17.2461C68.0046 16.5714 68.4339 15.6562 68.4339 14.702V12.1228C68.4339 11.1686 68.0046 10.2535 67.2405 9.57872C66.4764 8.904 65.44 8.52494 64.3594 8.52494H59.0421C58.9893 8.52494 58.9371 8.53533 58.8883 8.55553C58.8395 8.57572 58.7952 8.60532 58.7579 8.64263C58.7206 8.67995 58.691 8.72425 58.6708 8.773C58.6506 8.82175 58.6402 8.87401 58.6402 8.92677Z" fill="white"/>
<path d="M42.0341 39.9243C42.0341 40.8686 41.659 41.7742 40.9912 42.4419C40.3235 43.1096 39.4179 43.4848 38.4736 43.4848H3.56047C2.61617 43.4848 1.71055 43.1096 1.04284 42.4419C0.37512 41.7742 0 40.8686 0 39.9243V5.01115C0 4.06686 0.37512 3.16124 1.04284 2.49352C1.71055 1.8258 2.61617 1.45068 3.56047 1.45068H38.4736C39.4179 1.45068 40.3235 1.8258 40.9912 2.49352C41.659 3.16124 42.0341 4.06686 42.0341 5.01115V39.9243ZM17.7369 10.2631C17.7369 9.47492 17.4238 8.71905 16.8665 8.16174C16.3092 7.60444 15.5533 7.29135 14.7652 7.29135H14.2045C13.4163 7.29135 12.6605 7.60444 12.1032 8.16174C11.5459 8.71905 11.2328 9.47492 11.2328 10.2631V28.1495C11.2328 28.9377 11.5459 29.6935 12.1032 30.2508C12.6605 30.8082 13.4163 31.1212 14.2045 31.1212H14.7652C15.5533 31.1212 16.3092 30.8082 16.8665 30.2508C17.4238 29.6935 17.7369 28.9377 17.7369 28.1495V10.2631ZM30.8138 15.8924C30.8131 15.4961 30.7344 15.1037 30.582 14.7377C30.4297 14.3718 30.2068 14.0394 29.926 13.7596C29.6452 13.4798 29.3121 13.2581 28.9456 13.107C28.5791 12.956 28.1864 12.8786 27.7901 12.8793L27.3041 12.8802C26.5036 12.8816 25.7364 13.2009 25.1713 13.768C24.6063 14.335 24.2896 15.1033 24.291 15.9038L24.322 33.7155C24.3227 34.1119 24.4015 34.5043 24.5538 34.8702C24.7062 35.2362 24.9291 35.5685 25.2099 35.8483C25.4906 36.1281 25.8238 36.3499 26.1903 36.5009C26.5568 36.652 26.9494 36.7294 27.3458 36.7287L27.8317 36.7278C28.6323 36.7264 29.3994 36.407 29.9645 35.84C30.5296 35.2729 30.8463 34.5047 30.8449 33.7041L30.8138 15.8924Z" fill="white"/>
<path d="M14.7651 7.29138H14.2044C12.5632 7.29138 11.2327 8.62187 11.2327 10.2631V28.1496C11.2327 29.7908 12.5632 31.1213 14.2044 31.1213H14.7651C16.4063 31.1213 17.7368 29.7908 17.7368 28.1496V10.2631C17.7368 8.62187 16.4063 7.29138 14.7651 7.29138Z" fill="#1E73B6"/>
<path d="M154.92 16.3092C157.088 16.2941 158.833 14.6459 158.819 12.628C158.805 10.61 157.037 8.9864 154.869 9.00153C152.701 9.01666 150.956 10.6648 150.97 12.6828C150.984 14.7007 152.752 16.3243 154.92 16.3092Z" fill="white"/>
<path d="M171.949 24.3366V41.1578C171.949 41.4693 171.793 41.625 171.482 41.625H164.239C163.772 41.625 163.539 41.3914 163.539 40.9241V24.4581C163.539 24.0656 163.342 23.8694 162.95 23.8694H160.735C160.268 23.8694 160.034 23.6358 160.034 23.1685V20.1314C160.034 19.9455 160.108 19.7672 160.239 19.6358C160.371 19.5043 160.549 19.4305 160.735 19.4305H162.903C162.983 19.4301 163.06 19.4023 163.123 19.3514C163.186 19.3006 163.23 19.2297 163.249 19.1501L164.679 12.5245C164.718 12.3462 164.805 12.1819 164.93 12.0488C165.055 11.9156 165.214 11.8185 165.389 11.7675C169.202 10.6337 173.074 10.4343 177.005 11.1695C177.441 11.2504 177.64 11.5152 177.603 11.9638L177.266 15.8233C177.253 15.9729 177.184 16.112 177.073 16.2139C176.963 16.3157 176.819 16.373 176.668 16.3747L172.753 16.4401C172.242 16.4463 171.98 16.7048 171.968 17.2157L171.94 18.5988C171.934 18.9975 172.13 19.1969 172.529 19.1969H176.51C176.896 19.1969 177.089 19.3931 177.089 19.7856V23.1685C177.089 23.6358 176.855 23.8694 176.388 23.8694H172.416C172.105 23.8694 171.949 24.0251 171.949 24.3366Z" fill="white"/>
<path d="M142.979 24.3367V34.9714C142.979 35.8249 143.409 36.2516 144.269 36.2516H146.83C147.21 36.2516 147.415 36.4417 147.446 36.8217L147.82 41.1671C147.845 41.516 147.686 41.7341 147.344 41.8213C131.56 45.55 134.812 34.0742 134.802 24.346C134.802 24.0283 134.644 23.8694 134.326 23.8694H131.532C131.22 23.8694 131.064 23.7137 131.064 23.4022V20.0193C131.064 19.8656 131.125 19.7182 131.234 19.6096C131.343 19.5009 131.49 19.4399 131.644 19.4399L134.167 19.4118C134.336 19.4116 134.502 19.3586 134.641 19.2599C134.78 19.1612 134.885 19.0217 134.943 18.8605L136.84 13.4964C136.933 13.2348 137.117 13.0946 137.391 13.0759L142.493 12.6647C142.817 12.6398 142.979 12.7862 142.979 13.1039V18.7296C142.979 18.8536 143.029 18.9724 143.116 19.06C143.204 19.1477 143.323 19.1969 143.447 19.1969H147.652C147.963 19.1969 148.119 19.3527 148.119 19.6642V23.1686C148.119 23.6358 147.886 23.8694 147.418 23.8694H143.447C143.135 23.8694 142.979 24.0252 142.979 24.3367Z" fill="white"/>
<path d="M27.79 12.8793L27.3041 12.8801C25.6371 12.883 24.288 14.2368 24.2909 15.9038L24.322 33.7155C24.3249 35.3825 25.6787 36.7316 27.3457 36.7287L27.8317 36.7278C29.4987 36.7249 30.8478 35.3711 30.8448 33.7041L30.8138 15.8924C30.8108 14.2254 29.4571 12.8764 27.79 12.8793Z" fill="#1E73B6"/>
<path d="M89.7125 32.8127C90.3386 37.6721 98.4781 36.205 101.889 35.9527C102.238 35.9277 102.44 36.0897 102.497 36.4386L103.085 40.1953C103.141 40.5504 103.001 40.7934 102.665 40.9242C96.6932 43.2325 84.3484 44.2043 82.1056 35.934C81.0029 31.8689 80.6665 21.5706 85.7689 19.6736C90.7591 17.8139 100.394 16.842 102.618 23.4863C103.49 26.0967 103.852 28.7663 103.702 31.4951C103.677 31.9499 103.437 32.1772 102.982 32.1772L90.133 32.3268C90.0727 32.326 90.013 32.3386 89.958 32.3635C89.9029 32.3884 89.8538 32.4252 89.8139 32.4713C89.774 32.5174 89.7443 32.5717 89.7268 32.6306C89.7093 32.6895 89.7044 32.7516 89.7125 32.8127ZM89.8994 28.5701L95.5999 28.5327C95.6916 28.5327 95.7795 28.4962 95.8444 28.4314C95.9092 28.3666 95.9456 28.2786 95.9456 28.1869L95.9363 26.7478C95.9334 26.3066 95.8565 25.8703 95.7102 25.4638C95.5639 25.0572 95.351 24.6885 95.0837 24.3786C94.8163 24.0687 94.4998 23.8238 94.1522 23.6579C93.8046 23.4919 93.4328 23.4082 93.058 23.4116H92.3665C91.6115 23.4183 90.8904 23.7773 90.3612 24.4097C89.8321 25.0422 89.5383 25.8965 89.5443 26.7851L89.5536 28.2243C89.5536 28.316 89.59 28.4039 89.6549 28.4688C89.7197 28.5336 89.8077 28.5701 89.8994 28.5701Z" fill="white"/>
<path d="M119.794 25.4582L115.598 25.7666C115.162 25.7977 114.944 26.0314 114.944 26.4675V41.1579C114.944 41.4694 114.788 41.6251 114.477 41.6251H107.001C106.689 41.6251 106.534 41.4694 106.534 41.1579V19.7764C106.534 19.3901 106.73 19.197 107.122 19.197H112.842C113.178 19.197 113.39 19.359 113.477 19.6829L114.103 22.0192C114.12 22.08 114.153 22.1351 114.199 22.1784C114.244 22.2218 114.301 22.2519 114.363 22.2653C114.424 22.2788 114.488 22.2752 114.548 22.2549C114.608 22.2345 114.661 22.1983 114.701 22.15C118.153 18.1441 122.355 17.2501 127.308 19.468C127.735 19.6582 128.099 19.9667 128.357 20.3573C128.615 20.7479 128.757 21.2045 128.766 21.6734L129.046 40.9897C129.052 41.4133 128.843 41.6251 128.42 41.6251H121.019C120.707 41.6251 120.551 41.4694 120.551 41.1579V26.1591C120.552 26.0621 120.532 25.9662 120.493 25.8772C120.454 25.7883 120.398 25.7084 120.327 25.6425C120.255 25.5767 120.171 25.5263 120.08 25.4945C119.988 25.4628 119.891 25.4504 119.794 25.4582Z" fill="white"/>
<path d="M191.611 27.9999L191.48 25.0002C191.462 24.589 191.247 24.3958 190.836 24.4208L181.229 25.0656C180.998 25.078 180.871 24.9721 180.846 24.7478L180.313 20.1407C180.293 19.9778 180.335 19.8137 180.431 19.6818C180.526 19.5498 180.668 19.4599 180.827 19.4305C187.602 18.1128 199.508 15.5149 199.685 26.4486C199.76 31.2831 199.779 36.1239 199.741 40.9709C199.735 41.407 199.514 41.625 199.078 41.625H193.415C193.261 41.6259 193.112 41.5692 192.996 41.4657C192.881 41.3623 192.807 41.2194 192.789 41.0643L192.658 39.728C192.589 39.0738 192.337 38.9928 191.901 39.485C185.574 46.5779 174.912 40.1018 179.706 31.3828C181.033 28.9625 187.406 28.7008 191.135 28.5232C191.465 28.5045 191.624 28.3301 191.611 27.9999ZM191.613 33.6869C191.606 33.519 191.566 33.354 191.495 33.2015C191.424 33.049 191.324 32.912 191.2 32.7982C191.076 32.6844 190.931 32.5961 190.773 32.5383C190.616 32.4805 190.448 32.4544 190.28 32.4614L187.703 32.5694C187.535 32.5764 187.37 32.6165 187.217 32.6873C187.065 32.7581 186.928 32.8582 186.814 32.982C186.7 33.1057 186.612 33.2507 186.554 33.4086C186.496 33.5665 186.47 33.7342 186.477 33.9022L186.545 35.5081C186.552 35.6761 186.592 35.841 186.663 35.9935C186.733 36.146 186.833 36.2831 186.957 36.3969C187.081 36.5107 187.226 36.599 187.384 36.6568C187.542 36.7146 187.709 36.7407 187.877 36.7336L190.454 36.6257C190.622 36.6186 190.787 36.5786 190.94 36.5078C191.092 36.437 191.229 36.3369 191.343 36.2131C191.457 36.0893 191.545 35.9444 191.603 35.7865C191.661 35.6286 191.687 35.4609 191.68 35.2929L191.613 33.6869Z" fill="white"/>
<path d="M158.38 19.197H150.942C150.673 19.197 150.456 19.4146 150.456 19.683V41.1392C150.456 41.4076 150.673 41.6252 150.942 41.6252H158.38C158.649 41.6252 158.866 41.4076 158.866 41.1392V19.683C158.866 19.4146 158.649 19.197 158.38 19.197Z" fill="white"/>
</svg>
