<svg width="33" height="33" viewBox="0 0 33 33" fill="none" xmlns="http://www.w3.org/2000/svg">
<rect width="33" height="33" rx="6" fill="#252E60"/>
<path d="M10.7496 10.6549L4.73905 22.4743C4.40073 23.1395 4.88406 23.9276 5.63042 23.9276H26.8075C27.654 23.9276 28.1176 22.9414 27.5775 22.2895L21.1958 14.5877C20.8802 14.2068 20.3335 14.1139 19.9098 14.3692L17.3332 15.9215C16.8814 16.1937 16.2958 16.0681 15.9953 15.6346L12.4629 10.5385C12.0317 9.91653 11.0927 9.98033 10.7496 10.6549Z" stroke="white" stroke-linecap="round"/>
<path d="M20.6989 10.4603C20.6989 11.0277 20.2819 11.4206 19.847 11.4206C19.4121 11.4206 18.9951 11.0277 18.9951 10.4603C18.9951 9.89292 19.4121 9.5 19.847 9.5C20.2819 9.5 20.6989 9.89292 20.6989 10.4603Z" stroke="white"/>
</svg>
