<svg width="22" height="22" viewBox="0 0 22 22" fill="none" xmlns="http://www.w3.org/2000/svg">
<path d="M10.6438 5.04297C7.67751 5.04297 5.21973 7.45837 5.21973 10.467C5.21973 13.4757 7.63513 15.8911 10.6438 15.8911C13.6525 15.8911 16.0679 13.4333 16.0679 10.467C16.0679 7.50075 13.6101 5.04297 10.6438 5.04297ZM10.6438 13.9418C8.7369 13.9418 7.169 12.3739 7.169 10.467C7.169 8.56014 8.7369 6.99224 10.6438 6.99224C12.5507 6.99224 14.1186 8.56014 14.1186 10.467C14.1186 12.3739 12.5507 13.9418 10.6438 13.9418Z" fill="white"/>
<path d="M16.2802 6.14479C16.9589 6.14479 17.5091 5.5946 17.5091 4.9159C17.5091 4.2372 16.9589 3.68701 16.2802 3.68701C15.6015 3.68701 15.0513 4.2372 15.0513 4.9159C15.0513 5.5946 15.6015 6.14479 16.2802 6.14479Z" fill="white"/>
<path d="M19.458 1.7374C18.3563 0.593257 16.7884 0 15.0086 0H6.27922C2.59255 0 0.134766 2.45778 0.134766 6.14445V14.8314C0.134766 16.6536 0.728023 18.2215 1.91454 19.3656C3.05868 20.4674 4.5842 21.0183 6.3216 21.0183H14.9662C16.7884 21.0183 18.3139 20.425 19.4156 19.3656C20.5598 18.2639 21.153 16.696 21.153 14.8738V6.14445C21.153 4.36468 20.5598 2.83916 19.458 1.7374ZM19.2885 14.8738C19.2885 16.1875 18.8224 17.2468 18.0596 17.9672C17.2969 18.6876 16.2375 19.069 14.9662 19.069H6.3216C5.05033 19.069 3.99094 18.6876 3.22818 17.9672C2.46542 17.2045 2.08404 16.1451 2.08404 14.8314V6.14445C2.08404 4.87319 2.46542 3.8138 3.22818 3.05104C3.94857 2.33066 5.05033 1.94928 6.3216 1.94928H15.051C16.3222 1.94928 17.3816 2.33066 18.1444 3.09342C18.8648 3.85618 19.2885 4.91556 19.2885 6.14445V14.8738Z" fill="white"/>
</svg>
