<svg width="79" height="79" viewBox="0 0 79 79" fill="none" xmlns="http://www.w3.org/2000/svg">
<rect width="79" height="79" rx="8" fill="#DDF1FF"/>
<path d="M49.0774 13C49.7387 13.3087 50.264 13.7306 50.424 14.4995C50.5274 14.9951 50.3405 15.444 50.2272 15.8971C49.5277 18.6908 48.7999 21.4774 48.1018 24.2711C48.0027 24.6704 47.8342 24.7738 47.4264 24.7724C42.3246 24.754 37.2243 24.7554 32.1226 24.7696C31.7459 24.7696 31.5774 24.6577 31.4415 24.3108C31.0011 23.1993 30.5239 22.1019 30.0538 21.0017C29.5101 19.7315 30.3512 18.4218 31.7388 18.4133C33.6277 18.4019 35.5166 18.4104 37.4056 18.4104C37.5995 18.4104 37.7935 18.4133 37.9875 18.409C38.6813 18.3934 38.6729 18.3934 38.687 19.1354C38.6941 19.5021 38.6403 19.8717 38.7465 20.2385C38.9745 21.0272 39.4842 21.4534 40.1625 21.3939C40.7756 21.3401 41.3122 20.7185 41.3405 19.9751C41.3703 19.1991 41.3646 18.4218 41.366 17.6458C41.3689 16.3049 41.3632 14.9625 41.3632 13.6216C41.3632 13.4106 41.3377 13.1968 41.4467 13H49.0774Z" fill="#3994D3"/>
<path d="M40.3022 67.2689C37.3513 67.2816 34.4075 67.1542 31.4878 66.7223C28.3585 66.2579 25.2986 65.5357 22.604 63.7558C19.9731 62.0184 18.4736 59.5575 18.1338 56.4367C17.498 50.6128 19.1349 45.4742 22.9113 41.004C24.6869 38.9013 26.7188 37.0818 28.9447 35.469C29.2152 35.2721 29.4417 35.2084 29.7646 35.35C30.2191 35.5511 30.7147 35.595 31.2131 35.595C37.2366 35.5922 43.2602 35.5936 49.2837 35.5978C49.8558 35.5978 50.4066 35.5114 50.9376 35.3075C51.1358 35.2325 51.2888 35.2353 51.4743 35.3698C55.2818 38.1296 58.5584 41.3651 60.6738 45.6385C61.6834 47.6775 62.2243 49.8453 62.4353 52.1066C62.6222 54.1003 62.6562 56.0756 62.1479 58.0367C61.3478 61.1221 59.3782 63.2079 56.5916 64.5969C54.4138 65.683 52.0817 66.255 49.6901 66.6359C46.5792 67.1315 43.4443 67.2519 40.3022 67.2703V67.2689ZM41.6488 42.8405C41.6488 42.5941 41.6601 42.4341 41.6474 42.2755C41.578 41.4854 41.0145 40.9049 40.3065 40.8865C39.5829 40.8681 38.9811 41.4599 38.9146 42.2755C38.8919 42.5559 38.9004 42.8405 38.9089 43.1223C38.916 43.3347 38.8693 43.4593 38.6441 43.5641C36.9605 44.3499 36.1322 45.6937 36.0855 47.5444C36.026 49.9105 37.3712 51.6734 39.6721 52.2284C40.012 52.3105 40.3532 52.4012 40.6845 52.513C41.9887 52.9548 42.0453 54.923 41.3373 55.5885C40.9125 55.9878 40.4113 56.162 39.8335 55.9552C39.1822 55.723 38.8579 55.2416 38.7971 54.5648C38.722 53.718 38.0976 53.129 37.3513 53.1969C36.5527 53.2692 36.0699 53.8809 36.1081 54.7389C36.1662 56.0572 36.6986 57.173 37.7832 57.8852C38.528 58.3737 39.1624 58.7815 38.9273 59.794C38.9132 59.8548 38.9641 59.9285 38.9797 59.9964C39.1312 60.6237 39.6353 61.0598 40.2399 61.0867C40.8346 61.1136 41.377 60.6945 41.5709 60.0757C41.6955 59.6764 41.6502 59.27 41.6446 58.8651C41.6417 58.6229 41.7168 58.4898 41.9476 58.3893C44.9806 57.071 44.982 53.1969 43.5816 51.4114C42.7972 50.4103 41.7536 49.9147 40.5458 49.6584C39.2473 49.3823 38.7871 48.806 38.7971 47.5458C38.8041 46.6566 39.3705 45.9939 40.1564 45.9571C41.0739 45.9132 41.6871 46.4866 41.7635 47.458C41.823 48.2226 42.4191 48.7805 43.1568 48.7635C43.9045 48.7465 44.4723 48.1646 44.4539 47.3801C44.417 45.7461 43.6807 44.5057 42.2379 43.7368C41.7975 43.5018 41.5044 43.2851 41.6474 42.8391L41.6488 42.8405Z" fill="#3994D3"/>
<path d="M40.2784 27.4756C43.2095 27.4756 46.1391 27.4756 49.0702 27.4756C50.53 27.4756 51.1276 28.0703 51.1247 29.5188C51.1247 30.0484 51.1332 30.578 51.1233 31.1076C51.1007 32.2233 50.4083 32.9087 49.2896 32.9143C47.5947 32.9214 45.8998 32.9158 44.2049 32.9158C39.9499 32.9158 35.6963 32.9115 31.4413 32.9158C30.9528 32.9158 30.4841 32.8563 30.0947 32.5419C29.728 32.246 29.4632 31.8764 29.4561 31.3766C29.4462 30.6176 29.4037 29.8573 29.4405 29.1011C29.4901 28.0901 30.1613 27.4926 31.2218 27.4855C33.0045 27.4728 34.7872 27.4812 36.5714 27.4812C37.8075 27.4812 39.0422 27.4812 40.2784 27.4812V27.477V27.4756Z" fill="#3994D3"/>
</svg>
