<svg width="79" height="79" viewBox="0 0 79 79" fill="none" xmlns="http://www.w3.org/2000/svg">
<rect width="79" height="79" rx="8" fill="#FFF5DA"/>
<path d="M19.0034 39.9045C19.0034 33.2816 18.9929 26.6606 19.0087 20.0395C19.0158 17.3619 20.1163 15.2609 22.4634 13.8878C23.5025 13.2813 24.6365 13 25.8425 13C34.7228 13 43.603 13 52.4833 13C56.5357 13 59.47 15.922 59.4911 19.9885C59.5069 23.2111 59.4964 26.4355 59.4964 29.6582C59.4929 39.6794 59.463 49.6989 59.4999 59.7202C59.514 63.7199 56.9383 66.1338 54.317 66.7316C53.7403 66.8634 53.1619 66.9461 52.5659 66.9461C43.7296 66.9408 34.8933 66.9461 26.057 66.9408C21.9764 66.939 19.021 63.9924 19.014 59.9013C18.9999 53.2363 19.0087 46.5695 19.0087 39.9045H19.0034ZM39.2253 19.8162C39.2253 19.8074 39.2253 19.7986 39.2253 19.7881C36.0449 19.7881 32.8644 19.7881 29.684 19.7881C28.8911 19.7881 28.1087 19.8162 27.4055 20.261C26.115 21.0768 25.5243 22.5747 25.9357 24.0146C26.3911 25.6075 27.6463 26.4953 29.4431 26.4953C35.848 26.4953 42.251 26.4953 48.6558 26.4935C49.0286 26.4935 49.3995 26.4672 49.7722 26.439C51.3581 26.3142 52.8103 24.76 52.6978 22.9175C52.5975 21.2913 51.3124 19.8602 49.621 19.8338C46.1576 19.7811 42.6923 19.818 39.2271 19.818L39.2253 19.8162ZM52.696 51.7419C52.696 50.8663 52.696 49.989 52.696 49.1135C52.6942 48.2379 52.689 47.3606 52.6854 46.4851C52.6854 46.2214 52.6573 45.9682 52.5677 45.7133C52.0068 44.0888 50.5282 43.1693 48.8264 43.3961C47.2722 43.6035 46.0169 45.0012 45.9976 46.6961C45.9589 50.0681 45.9501 53.442 45.9976 56.8158C46.0239 58.7251 47.5447 60.2107 49.3292 60.1826C51.5339 60.1457 52.7716 58.3366 52.7101 56.6716C52.6485 55.0313 52.696 53.3857 52.696 51.7436V51.7419ZM25.8126 56.7701C25.8091 58.6794 27.2701 60.1861 29.1284 60.1896C30.9956 60.1914 32.5357 58.6794 32.5409 56.8386C32.5462 54.9557 31.0887 53.5035 29.1671 53.4806C27.3018 53.4578 25.8161 54.9153 25.8126 56.7701ZM49.3732 33.257C47.5482 33.25 46.0081 34.7549 45.987 36.564C45.9659 38.389 47.5219 39.9678 49.345 39.9713C51.2034 39.9748 52.7681 38.4364 52.754 36.6168C52.74 34.7391 51.2579 33.2641 49.3732 33.257ZM29.1671 33.257C27.2771 33.25 25.8144 34.7127 25.8109 36.615C25.8074 38.4487 27.2982 39.9572 29.1249 39.9713C30.9657 39.9836 32.5216 38.4593 32.5409 36.6256C32.5603 34.7778 31.043 33.2641 29.1689 33.2553L29.1671 33.257ZM29.1513 43.3838C27.2719 43.3767 25.8197 44.8078 25.8109 46.675C25.8021 48.5491 27.2771 50.0629 29.139 50.0875C30.9586 50.1121 32.5357 48.5509 32.5427 46.7172C32.548 44.85 31.0641 43.3908 29.1531 43.3838H29.1513ZM35.9288 46.6644C35.9218 48.5737 37.3758 50.1209 39.2587 50.0734C41.2964 50.0207 42.5798 48.6107 42.6536 46.6943C42.724 44.8764 41.1434 43.3855 39.2904 43.3838C37.3898 43.3838 35.9359 44.8008 35.9288 46.6644ZM35.9113 56.8738C35.9587 58.7216 37.5006 60.2599 39.2816 60.1808C41.4616 60.0841 42.6519 58.5282 42.6536 56.7296C42.6536 54.8643 41.0432 53.4191 39.169 53.4736C37.3054 53.5264 35.8638 55.0313 35.9113 56.8756V56.8738ZM35.9253 36.5183C35.8655 38.3485 37.3283 39.9133 39.1532 39.9713C41.0133 40.0293 42.6747 38.5103 42.6519 36.6238C42.629 34.6547 41.1874 33.3484 39.4609 33.2676C37.4848 33.1761 35.9904 34.5826 35.9271 36.5183H35.9253Z" fill="#CBA13D"/>
</svg>
