<svg width="79" height="79" viewBox="0 0 79 79" fill="none" xmlns="http://www.w3.org/2000/svg">
<rect width="79" height="79" rx="8" fill="#FFEAED"/>
<path d="M40.0395 65.019C38.1561 65.019 36.2715 65.0275 34.3881 65.0166C32.842 65.0069 31.6138 63.9407 31.4421 62.4043C31.2958 61.0999 32.142 59.717 33.5963 59.3326C33.8139 59.2745 34.0242 59.2467 34.2442 59.2467C38.092 59.2467 41.9398 59.2431 45.7876 59.2467C47.4292 59.2479 48.7166 60.5148 48.7166 62.1117C48.7166 63.7122 47.4365 65.0033 45.8105 65.0142C43.886 65.0263 41.9628 65.0166 40.0383 65.0178L40.0395 65.019Z" fill="#F35168"/>
<path d="M23.7572 54.4331C23.1564 54.4331 22.5556 54.4379 21.9548 54.4331C21.1932 54.4258 20.8257 54.0595 20.8281 53.2822C20.8354 50.9467 21.2863 48.6946 22.1252 46.5163C22.9243 44.4431 24.0534 42.573 25.4991 40.8867C25.7542 40.5881 25.8763 40.6074 26.135 40.8721C27.31 42.0762 28.4983 43.2657 29.7048 44.4383C29.9719 44.6982 29.9514 44.8384 29.7277 45.1152C27.8129 47.4785 26.8639 50.2021 26.7491 53.2303C26.714 54.1502 26.4227 54.4294 25.5004 54.4331C24.9201 54.4355 24.3386 54.4331 23.7584 54.4343L23.7572 54.4331Z" fill="#F35168"/>
<path d="M56.3665 54.4313C55.7452 54.4313 55.1238 54.4386 54.5037 54.4289C53.7771 54.418 53.4338 54.1025 53.4084 53.376C53.3021 50.2632 52.3712 47.4538 50.3597 45.041C50.1772 44.8222 50.1977 44.6964 50.3972 44.4994C51.623 43.2905 52.8415 42.0732 54.0455 40.8426C54.2994 40.5827 54.4323 40.6274 54.6487 40.8825C57.0036 43.6629 58.5038 46.8349 59.0755 50.4397C59.2267 51.3887 59.3258 52.3412 59.3185 53.3035C59.3137 54.0385 58.9559 54.4193 58.2293 54.4289C57.608 54.4386 56.9866 54.4313 56.3665 54.4301V54.4313Z" fill="#F35168"/>
<path d="M41.3927 34.2708C45.2296 34.5488 48.7365 35.852 51.8275 38.2322C52.2156 38.5308 52.872 38.7822 52.8538 39.2283C52.8381 39.5885 52.2603 39.9294 51.923 40.2691C50.9898 41.2072 50.0469 42.1332 49.1209 43.0785C48.8961 43.3082 48.7619 43.4049 48.45 43.1486C46.4046 41.4647 44.0449 40.5085 41.4133 40.2377C41.1328 40.2087 41.0301 40.124 41.0313 39.8424C41.0397 38.0992 41.0361 36.3548 41.0349 34.6117C41.0349 34.4001 41.0252 34.1862 41.3939 34.2708H41.3927Z" fill="#F35168"/>
<path d="M39.109 37.2312C39.109 38.0932 39.1054 38.9551 39.1114 39.817C39.1126 40.0563 39.1114 40.2147 38.779 40.2425C36.1328 40.4698 33.7912 41.4683 31.7205 43.1135C31.4944 43.2924 31.3651 43.4109 31.0943 43.1341C29.8915 41.8998 28.6693 40.6825 27.4278 39.487C27.0749 39.1473 27.3493 39.0264 27.5523 38.8535C30.0994 36.6788 33.0176 35.2608 36.2984 34.602C37.0793 34.4448 37.8772 34.3808 38.6653 34.255C38.9966 34.2019 39.1283 34.2756 39.1175 34.6455C39.0921 35.5074 39.109 36.3693 39.109 37.2312Z" fill="#F35168"/>
<path d="M17.9337 26.2041C17.9337 26.8012 17.9337 27.3984 17.9337 27.9956C17.9337 31.5605 17.9349 35.1254 17.9349 38.6891C17.9349 39.5474 17.5952 40.0019 16.9642 39.9886C16.3525 39.9765 16.0128 39.5015 16.0128 38.6492C16.0128 34.7035 16.0128 30.759 16.0116 26.8133C16.0116 26.5957 16.0116 26.3769 16.0116 26.0796C15.5668 26.354 15.2899 26.713 14.9684 27.0176C14.3785 27.5773 13.8405 27.6317 13.4066 27.1651C12.9847 26.7118 13.0524 26.1884 13.5963 25.6468C14.4474 24.7994 15.2936 23.9459 16.147 23.1009C16.7418 22.5122 17.2084 22.5086 17.8007 23.0949C18.6977 23.9822 19.5983 24.8647 20.4723 25.7737C21.0465 26.3721 20.8821 27.1591 20.164 27.4226C19.7591 27.5713 19.4085 27.4552 19.1317 27.1518C18.7992 26.7879 18.4922 26.4011 18.1731 26.024C18.0933 26.0832 18.0135 26.1424 17.9337 26.2029V26.2041Z" fill="#F35168"/>
<path d="M64.2255 26.0891C64.072 26.3611 64.1337 26.5823 64.1337 26.7926C64.1288 30.777 64.1095 34.7626 64.1445 38.747C64.1518 39.5557 63.6054 39.9969 63.1424 39.9861C62.5694 39.9716 62.208 39.4989 62.2068 38.753C62.2055 34.7481 62.2055 30.7432 62.2055 26.7382C62.2055 26.5412 62.2055 26.3429 62.2055 26.0709C61.7293 26.3393 61.4597 26.7358 61.1188 27.0477C60.5458 27.5699 60.0272 27.6195 59.5993 27.1662C59.1749 26.7165 59.2439 26.1967 59.7903 25.6539C60.6425 24.8065 61.4875 23.9542 62.3397 23.1068C62.9151 22.5351 63.383 22.5157 63.9463 23.0669C64.8481 23.9494 65.7451 24.8355 66.6239 25.7409C67.2187 26.3538 67.0917 27.1069 66.3821 27.4043C65.9506 27.5844 65.6073 27.4382 65.2978 27.1335C64.9496 26.7902 64.5979 26.4517 64.2267 26.0903L64.2255 26.0891Z" fill="#F35168"/>
<path d="M37.1758 54.4756C37.1734 52.7929 38.4366 51.5224 40.1073 51.5635C40.5678 51.5743 40.8193 51.4293 41.0755 51.0606C42.5782 48.8871 44.1098 46.7341 45.6269 44.5702C45.8517 44.2499 46.0838 43.9634 46.5202 43.9441C46.9167 43.9259 47.2359 44.0661 47.4244 44.4143C47.6203 44.7757 47.5961 45.1444 47.3555 45.4878C46.4707 46.751 45.5846 48.0131 44.6997 49.2751C44.0094 50.2591 43.3276 51.2479 42.6229 52.2211C42.4222 52.4979 42.415 52.7022 42.5818 53.0153C43.4316 54.6158 42.7921 56.4412 41.1759 57.123C39.5657 57.8023 37.8431 56.9537 37.2701 55.2178C37.1842 54.9591 37.2108 54.7053 37.177 54.4744L37.1758 54.4756Z" fill="#F35168"/>
<path d="M39.1106 17.9485C38.6077 18.183 38.2849 18.5106 37.9174 18.7705C37.3251 19.1888 36.7968 19.1477 36.4378 18.6653C36.0679 18.1685 36.1755 17.6717 36.7569 17.2316C37.6346 16.568 38.5219 15.9164 39.3934 15.2443C39.8371 14.9034 40.2686 14.8865 40.7111 15.2165C41.6407 15.9092 42.5751 16.597 43.4915 17.3078C43.9835 17.6898 44.0524 18.2277 43.7151 18.6799C43.3935 19.1102 42.8991 19.196 42.3853 18.8672C41.9562 18.5916 41.5537 18.2737 41.0351 17.8977C41.0351 18.2181 41.0351 18.4272 41.0351 18.6375C41.0351 21.5013 41.0351 24.3639 41.0339 27.2277C41.0339 27.9808 40.6797 28.4305 40.0873 28.4389C39.5095 28.4474 39.113 27.9711 39.113 27.2422C39.1106 24.1789 39.1118 21.1157 39.1118 17.9485H39.1106Z" fill="#F35168"/>
</svg>
