<svg width="79" height="79" viewBox="0 0 79 79" fill="none" xmlns="http://www.w3.org/2000/svg">
<rect width="79" height="79" rx="8" fill="#E4FFFB"/>
<path d="M21.3449 45.1988C22.4476 52.5238 28.29 58.8245 35.429 60.4915C41.6224 61.9372 47.2212 60.7095 52.1659 56.7216C54.9853 54.4472 56.8991 51.5092 58.0403 48.0711C58.4443 46.8529 59.196 46.3047 60.2779 46.4506C61.4304 46.6045 62.1725 47.8034 61.791 48.967C59.4909 55.9907 54.9244 60.9403 47.9905 63.4968C41.0598 66.0517 34.3135 65.3337 28.0255 61.4772C22.6207 58.1626 19.2323 53.2899 17.7561 47.1126C17.5894 46.4185 17.4932 45.7069 17.3714 45.0016C17.3474 44.8606 17.3474 44.6971 17.2191 44.6282C17.038 44.5288 16.937 44.7051 16.8216 44.8061C16.6726 44.9375 16.5283 45.0769 16.3809 45.2116C15.6131 45.904 14.5055 45.8992 13.7794 45.2004C13.0261 44.4759 12.9155 43.2914 13.6448 42.5605C15.0409 41.1596 16.4754 39.794 17.9372 38.462C18.6457 37.8161 19.7484 37.8962 20.4409 38.5999C21.7151 39.8982 22.9669 41.2173 24.1995 42.5557C24.8551 43.2673 24.8423 44.2819 24.2412 45.0241C23.6578 45.7453 22.7361 45.9281 21.8706 45.4905C21.7135 45.4119 21.5612 45.3206 21.3449 45.202V45.1988Z" fill="#1F9886"/>
<path d="M58.7757 34.7522C57.7419 29.2176 54.969 24.9268 50.3175 21.8926C46.8698 19.6438 43.047 18.65 38.9502 18.8728C31.2341 19.2912 24.7778 24.1766 22.1668 31.4792C22.0866 31.7036 22.0113 31.9312 21.9328 32.1556C21.5449 33.2599 20.5239 33.7985 19.4692 33.4555C18.4835 33.1349 17.9433 32.053 18.2799 30.9759C19.6824 26.4815 22.2357 22.7709 25.9255 19.8473C28.7913 17.5761 32.0339 16.0678 35.6162 15.4027C47.5446 13.1907 58.8751 20.2881 62.1032 31.8703C62.3853 32.8833 62.5921 33.9155 62.7091 34.9621C62.7267 35.1176 62.6915 35.3228 62.8694 35.3789C63.0425 35.4334 63.1371 35.2459 63.2541 35.1401C63.533 34.8852 63.775 34.5919 64.1308 34.422C64.9755 34.0213 65.9452 34.228 66.5014 34.9429C67.072 35.6786 67.0945 36.69 66.4277 37.36C65.0316 38.7625 63.6035 40.1345 62.1433 41.4681C61.4445 42.1076 60.3577 42.0419 59.6893 41.3655C58.4247 40.0864 57.1825 38.7833 55.9627 37.461C55.3553 36.8022 55.3536 35.7748 55.8746 35.0872C56.4179 34.3691 57.33 34.1158 58.1763 34.4557C58.3526 34.5262 58.5209 34.6223 58.7757 34.749V34.7522Z" fill="#1F9886"/>
<path d="M40.3435 51.4793C38.9442 51.4793 37.5449 51.4937 36.1456 51.4761C33.44 51.4424 30.8787 49.4629 30.1959 46.8455C29.6381 44.7073 30.3577 42.9329 31.8708 41.4183C32.4489 40.8391 33.0388 40.8151 33.6404 41.3461C37.516 44.765 43.2157 44.6015 46.8462 40.947C47.1603 40.6313 47.3351 40.62 47.6668 40.9021C49.1911 42.1972 50.1112 43.7857 50.1032 45.8245C50.0887 48.8442 47.4985 51.444 44.482 51.4761C43.1035 51.4905 41.7235 51.4793 40.3435 51.4777V51.4793Z" fill="#1F9886"/>
<path d="M34.2891 34.1925C34.2987 30.9644 36.8745 28.4351 40.1395 28.4495C43.3035 28.4639 45.8055 31.067 45.7943 34.3336C45.7847 37.4383 43.1753 39.9676 39.9952 39.9595C36.8328 39.9515 34.2795 37.3693 34.2891 34.1925Z" fill="#1F9886"/>
</svg>
