<svg width="20" height="15" viewBox="0 0 20 15" fill="none" xmlns="http://www.w3.org/2000/svg">
<path d="M19.022 5.02471C19.1697 4.90702 19.3893 5.01711 19.3893 5.20313V12.9667C19.3893 13.9727 18.5751 14.7889 17.5716 14.7889H1.81775C0.814199 14.7889 0 13.9727 0 12.9667V5.20693C0 5.01711 0.215857 4.91081 0.367336 5.0285C1.21562 5.68907 2.34035 6.52806 6.20306 9.34115C7.00211 9.92579 8.35028 11.1558 9.69465 11.1482C11.0466 11.1596 12.4213 9.90301 13.19 9.34115C17.0527 6.52806 18.1737 5.68527 19.022 5.02471ZM9.69465 9.92959C10.5732 9.94477 11.8381 8.82105 12.4743 8.3579C17.4996 4.70202 17.8821 4.38312 19.0409 3.472C19.2605 3.30116 19.3893 3.03542 19.3893 2.75449V2.03318C19.3893 1.02715 18.5751 0.210938 17.5716 0.210938H1.81775C0.814199 0.210938 0 1.02715 0 2.03318V2.75449C0 3.03542 0.128757 3.29737 0.348401 3.472C1.50722 4.37933 1.8897 4.70202 6.91501 8.3579C7.55122 8.82105 8.81607 9.94477 9.69465 9.92959Z" fill="white"/>
</svg>
