<svg width="104" height="103" viewBox="0 0 104 103" fill="none" xmlns="http://www.w3.org/2000/svg">
<path d="M95.8546 48.8776C94.4161 47.1263 94.4599 46.3528 96.0125 44.7592C102.117 38.5101 104.641 31.0409 103.448 22.41C101.86 10.9334 92.4688 1.66621 81.1098 0.224331C69.1661 -1.29052 57.927 4.9732 53.2986 15.7902C52.5501 17.5386 52.0765 19.4037 51.4946 21.1579C53.7343 22.0393 55.7225 22.8449 57.7311 23.5951C58.3276 23.8169 58.9854 23.992 59.614 23.9949C70.1719 24.0183 80.7327 24.0124 91.2905 24.0124C91.656 24.0124 92.0244 23.9891 92.384 24.0387C93.5974 24.2051 94.381 25.2237 94.2582 26.4409C94.1354 27.6814 93.2232 28.3789 91.6765 28.3789C83.5278 28.3848 75.3821 28.3819 67.2335 28.3819H65.9353C67.4615 29.742 68.7889 30.9796 70.1894 32.1325C70.59 32.4652 71.1923 32.7163 71.7069 32.725C75.4318 32.7746 79.1597 32.7513 82.8846 32.7513C85.8815 32.7513 88.8784 32.7367 91.8724 32.7571C93.5769 32.7688 94.6061 34.0268 94.2056 35.5387C93.9366 36.5457 93.074 37.1178 91.7496 37.1178C86.4516 37.1236 81.1537 37.1207 75.8587 37.1207H74.5488C78.0808 41.8842 80.4871 46.9045 81.9431 52.3539H98.5065C98.4919 52.2313 98.5065 52.1466 98.4714 52.1028C97.603 51.0258 96.7317 49.9488 95.8546 48.8776ZM91.6852 19.6401C86.861 19.6459 82.0396 19.6459 77.2153 19.6401C75.6043 19.6401 74.6161 18.8199 74.5898 17.4948C74.5634 16.1317 75.578 15.2794 77.2475 15.2736C79.6596 15.2678 82.0689 15.2736 84.481 15.2736C86.8931 15.2736 89.3053 15.2648 91.7174 15.2765C93.3284 15.2824 94.2845 16.1142 94.2728 17.4714C94.264 18.8258 93.3109 19.6372 91.6852 19.6401Z" fill="black"/>
<path d="M77.0192 51.1777C69.6775 29.4094 46.293 18.5107 24.8118 26.8438C3.48261 35.1215 -6.26244 60.8943 4.26911 81.1478C6.26899 84.9948 8.80978 88.4331 11.9119 91.4628C13.4118 92.928 13.4557 93.8241 12.1575 95.4119C11.7862 95.8643 11.4149 96.3138 11.0465 96.7633C9.48517 98.6693 7.92679 100.575 6.21344 102.665H7.28063C18.0227 102.665 28.7677 102.744 39.5097 102.615C42.5885 102.578 45.7199 102.204 48.7256 101.524C70.8822 96.5065 84.2556 72.6337 77.0192 51.1777ZM34.9983 70.7949C34.817 76.1829 29.984 80.675 24.5632 80.8034C22.8528 80.8442 21.964 80.0416 21.9435 78.3224C21.9113 75.5612 21.9347 72.8001 21.9347 69.893C20.4611 69.893 19.1513 69.9046 17.8414 69.89C16.2392 69.8696 15.3825 69.0786 15.3679 67.4762C15.3357 63.2556 15.3357 59.0351 15.3708 54.8145C15.3825 53.2179 16.2479 52.424 17.859 52.4182C22.7885 52.4065 27.7209 52.4065 32.6505 52.4182C34.2118 52.4211 35.0714 53.2092 35.0743 54.7474C35.0889 60.0975 35.1796 65.4477 34.9983 70.7919V70.7949ZM63.5668 69.9397C63.444 75.6955 59.5963 79.9132 53.9241 80.7421C51.4535 81.1069 50.4448 80.2459 50.4418 77.7591C50.4389 75.1818 50.4418 72.6045 50.4418 69.893C48.9887 69.893 47.7139 69.9017 46.4421 69.89C44.7521 69.8755 43.8867 69.1049 43.875 67.4587C43.8428 63.2381 43.8428 59.0176 43.8779 54.797C43.8925 53.2092 44.7638 52.4211 46.3836 52.4182C51.278 52.4094 56.1725 52.4094 61.064 52.4182C62.754 52.4182 63.5814 53.2033 63.5873 54.8787C63.6077 59.899 63.675 64.9223 63.5668 69.9397Z" fill="black"/>
</svg>
