<svg width="90" height="94" viewBox="0 0 90 94" fill="none" xmlns="http://www.w3.org/2000/svg">
<path d="M43.9455 0.906982C43.4622 0.906982 42.9788 0.915976 42.4999 0.929466C41.6972 1.25997 40.9733 1.70513 40.4179 2.4111C38.6912 4.60321 39.359 7.82729 41.8186 9.1493C42.0277 9.25947 42.2368 9.36963 42.4459 9.4798C43.8736 9.58547 45.3013 9.69114 46.729 9.80131C55.2433 10.4623 62.674 13.6684 68.9828 19.4039C74.2888 24.2242 77.9041 30.1193 79.8017 37.0396C81.281 42.4311 81.5261 47.8877 80.5391 53.3894C79.1002 61.4001 75.3927 68.208 69.5246 73.8175C64.956 78.1838 59.5848 81.1785 53.4694 82.7928C48.5568 84.0901 43.5656 84.4251 38.5383 83.6112C26.3637 81.6417 17.294 75.1868 11.2573 64.4781C10.2995 62.7783 9.64752 60.9077 8.85611 59.1136C8.67849 58.7066 8.51436 58.2974 8.34574 57.8882C7.63977 57.0092 6.81464 56.3189 5.68599 56.0199C2.90932 55.2824 0.132651 57.3262 0.0382218 60.204C0.0314768 60.3726 0.0112416 60.5412 0 60.7099C0.00449663 60.7301 0.00674477 60.7481 0.0112414 60.7683C3.77942 72.7698 12.3298 82.6557 23.4297 88.1888C23.605 88.2764 23.7827 88.3641 23.958 88.4496C23.9783 88.4608 23.9985 88.4676 24.0187 88.4788C25.5588 89.2117 27.1596 89.8727 28.8211 90.4596C28.9403 90.5023 29.0617 90.5427 29.1809 90.5855C33.8169 92.1525 38.7834 93.0047 43.95 93.0047C44.0984 93.0047 44.2446 93.0047 44.393 93.0047C44.5908 93.0047 44.7864 93.0002 44.9843 92.9934C45.1282 92.9934 45.2698 92.9867 45.4114 92.9822C45.6475 92.9732 45.8836 92.9664 46.1219 92.9529C46.3782 92.9417 46.6368 92.926 46.8931 92.9102C46.8998 92.9102 46.9043 92.9102 46.9066 92.9102C47.2146 92.89 47.5204 92.8675 47.8261 92.8428C47.979 92.8293 48.1364 92.8158 48.2893 92.8023C48.9121 92.7438 49.5259 92.6741 50.1374 92.5932C50.3308 92.5662 50.5241 92.5392 50.7152 92.51C51.1829 92.4426 51.646 92.3661 52.1114 92.2829C52.1856 92.2694 52.2621 92.256 52.334 92.2425C52.5004 92.211 52.6668 92.1818 52.8331 92.1503C52.9793 92.1233 53.1209 92.0941 53.2648 92.0648C53.2895 92.0604 53.312 92.0559 53.3345 92.0514C53.3682 92.0446 53.3997 92.0401 53.4334 92.0311C53.5661 92.0019 53.6987 91.9727 53.8314 91.9457C54.8251 91.7299 55.8054 91.4825 56.7744 91.1993C56.9341 91.1543 57.0959 91.1048 57.2556 91.0576C57.4422 91.0014 57.6288 90.9452 57.8154 90.8845C58.2673 90.7428 58.717 90.5922 59.1644 90.4348C59.9513 90.1628 60.7292 89.8638 61.4981 89.5467C61.8039 89.4186 62.1097 89.2904 62.4132 89.1578C62.8696 88.9599 63.3193 88.7531 63.7667 88.5372C63.9173 88.4676 64.0635 88.3956 64.2118 88.3214C64.3512 88.254 64.4884 88.1843 64.6255 88.1168C65.1067 87.874 65.5833 87.6244 66.0532 87.3659C66.1701 87.3029 66.2848 87.2377 66.3995 87.1725C67.7035 86.4441 68.9715 85.6527 70.1924 84.8028C70.4442 84.6274 70.696 84.4498 70.9433 84.2722C71.2131 84.0743 71.4829 83.8765 71.7504 83.6719C71.8808 83.5752 72.0067 83.4763 72.1349 83.3774C72.5239 83.0761 72.9106 82.7681 73.2905 82.4511C73.3827 82.3746 73.4749 82.2982 73.5671 82.2217C73.7267 82.0891 73.8841 81.9519 74.0392 81.817C74.1539 81.7181 74.2663 81.6192 74.381 81.5203C75.2691 80.7378 76.1279 79.924 76.9508 79.0763C77.0475 78.9774 77.1419 78.8785 77.2386 78.7796C77.8051 78.1883 78.3537 77.5835 78.8843 76.9629C78.99 76.8393 79.0979 76.7156 79.2013 76.5897C79.5184 76.2142 79.8286 75.832 80.1299 75.4498C80.3323 75.1935 80.5323 74.9327 80.7302 74.6719C80.8269 74.5437 80.9213 74.4178 81.0157 74.2897C81.0292 74.2717 81.0472 74.2515 81.0585 74.2312C81.1574 74.0986 81.2563 73.9637 81.353 73.8288C82.0117 72.916 82.6345 71.9784 83.2236 71.0161C83.309 70.8767 83.3945 70.7374 83.4799 70.5957C83.5631 70.4541 83.6485 70.3124 83.7295 70.1708C83.8126 70.0291 83.8958 69.8875 83.9768 69.7436C84.1409 69.4581 84.3005 69.168 84.4579 68.8802C84.7952 68.2642 85.1144 67.6392 85.4202 67.0074C85.4741 66.8972 85.5259 66.7848 85.5776 66.6747C85.6495 66.524 85.7192 66.3756 85.7889 66.225C85.9508 65.8698 86.1104 65.5145 86.2656 65.1548C86.306 65.0559 86.3487 64.9569 86.3915 64.8603C86.4567 64.7074 86.5219 64.5545 86.5826 64.4016C86.6455 64.2487 86.7085 64.0936 86.7692 63.9407C86.8276 63.7991 86.8816 63.6574 86.9355 63.5158C86.9963 63.3561 87.0592 63.1943 87.1177 63.0346C87.1784 62.8705 87.2391 62.7064 87.2975 62.54C87.41 62.2252 87.5201 61.9105 87.6258 61.5935C87.7315 61.2764 87.8349 60.9572 87.9338 60.6379C87.9855 60.4805 88.0327 60.3187 88.0822 60.1568C88.1114 60.0601 88.1406 59.9612 88.1676 59.8645C88.343 59.2642 88.5049 58.6572 88.6533 58.0479C88.6937 57.895 88.732 57.7376 88.7657 57.5825C88.8084 57.4049 88.8489 57.2272 88.8893 57.0496C88.9253 56.8967 88.9568 56.7438 88.9905 56.591C89.0018 56.5482 89.0085 56.5055 89.0175 56.4628C89.049 56.3144 89.0782 56.1683 89.1074 56.0199C89.1434 55.8468 89.1749 55.6759 89.2086 55.5028C89.2423 55.3297 89.2715 55.1565 89.303 54.9834C89.3323 54.8193 89.3615 54.6574 89.3862 54.4933C89.4042 54.3899 89.4222 54.2909 89.4357 54.1875C89.4582 54.0481 89.4806 53.9087 89.5009 53.7671C89.5211 53.6299 89.5414 53.4928 89.5593 53.3534C89.5796 53.1983 89.6021 53.0409 89.62 52.8857C89.6673 52.5215 89.71 52.155 89.7504 51.7886C89.7662 51.6244 89.7842 51.4581 89.7977 51.2939C89.8134 51.1163 89.8314 50.9365 89.8449 50.7588C89.8539 50.6689 89.8584 50.5767 89.8651 50.4868C89.8763 50.3631 89.8831 50.2395 89.8921 50.1181C89.9033 49.9427 89.9146 49.7718 89.9258 49.5965C89.9348 49.4458 89.9415 49.2974 89.9483 49.1445C89.9573 48.9692 89.964 48.7961 89.9708 48.6184C89.9798 48.3779 89.9843 48.1373 89.9888 47.899C89.9978 47.5887 90 47.2784 90 46.9704C90 21.5398 69.383 0.922721 43.95 0.922721L43.9455 0.906982ZM43.6892 6.99542C42.5516 6.99542 41.7265 6.15904 41.731 5.0124C41.7377 3.886 42.5741 3.0856 43.7409 3.09459C44.8561 3.10358 45.634 3.91523 45.6295 5.06636C45.6228 6.18827 44.8111 6.99542 43.6892 6.99542Z" fill="url(#paint0_linear_72_980)"/>
<path d="M43.9453 11.3438C43.5047 11.3438 43.064 11.3527 42.6278 11.3685C42.5289 11.4202 42.43 11.4742 42.331 11.5169C40.6538 12.2386 39.6286 13.4796 39.4847 15.3143C39.3295 17.2703 40.1592 18.7519 41.8836 19.703C42.2231 19.8896 42.6008 20.0065 42.9606 20.1549C43.1247 20.1706 43.2911 20.1909 43.4552 20.2066C43.8014 20.2201 44.1477 20.2381 44.4962 20.2516C45.0088 20.2763 45.5214 20.2988 46.034 20.3213C46.1869 20.3348 46.3353 20.3505 46.4859 20.364C47.9451 20.6135 49.4402 20.7372 50.8589 21.1352C58.7213 23.3408 64.4927 28.1387 68.0338 35.4861C70.7969 41.2216 71.3006 47.2493 69.7695 53.4277C68.6565 57.9131 66.4622 61.8139 63.2898 65.1706C60.8054 67.8012 57.8984 69.8246 54.5978 71.2928C54.056 71.5334 53.5479 71.8504 53.024 72.1337C52.9678 72.1966 52.9161 72.2641 52.8554 72.3248C51.6143 73.5771 51.1692 75.0677 51.6143 76.7787C52.0685 78.5279 53.2848 79.5329 54.9733 80.0275C55.0992 80.0567 55.2229 80.0859 55.351 80.1107C55.5399 80.1287 55.731 80.1466 55.9199 80.1624C55.9738 80.1691 56.0278 80.1736 56.0817 80.1781C56.093 80.1691 56.1042 80.1646 56.1155 80.1556C56.1739 80.1511 56.2279 80.1444 56.2863 80.1422C56.3156 80.1174 56.3448 80.1152 56.374 80.1354C57.0418 79.9061 57.7252 79.7217 58.3683 79.4384C62.739 77.5206 66.5566 74.8114 69.8392 71.3423C72.5192 68.5139 74.6865 65.3393 76.3098 61.8027C76.4065 61.5936 76.4987 61.3845 76.5886 61.1754C76.674 60.982 76.7572 60.7864 76.8382 60.5953C76.8449 60.5841 76.8494 60.5683 76.8539 60.5571C76.9911 60.2243 77.1237 59.8893 77.2519 59.5566C77.2901 59.4599 77.3261 59.361 77.362 59.2643C77.4295 59.0799 77.4969 58.8933 77.5621 58.7067C77.6251 58.5291 77.688 58.3493 77.7465 58.1694C77.7577 58.1447 77.7645 58.1177 77.7735 58.0929C77.7735 58.0884 77.7735 58.0839 77.778 58.0817C77.7937 58.0277 77.8139 57.976 77.8319 57.9221C77.8746 57.7917 77.9174 57.6568 77.9601 57.5264C77.9961 57.4162 78.032 57.3038 78.0657 57.1936C78.1017 57.07 78.1399 56.9486 78.1737 56.8271C78.2254 56.6473 78.2771 56.4652 78.3265 56.283C78.3648 56.1414 78.403 55.9998 78.439 55.8581C78.4502 55.8199 78.4592 55.7772 78.4704 55.739C78.4884 55.6625 78.5064 55.5861 78.5289 55.5096C78.5401 55.4647 78.5491 55.4197 78.5626 55.3747C78.5716 55.3433 78.5761 55.3118 78.5851 55.278C78.6278 55.1004 78.6683 54.9206 78.7088 54.743C78.7897 54.3855 78.8616 54.0257 78.9313 53.6638C78.9651 53.4884 78.9966 53.313 79.028 53.1354C79.0595 52.96 79.0887 52.7824 79.118 52.6048C79.118 52.5936 79.118 52.5846 79.1225 52.5733C79.1449 52.4339 79.1652 52.2945 79.1854 52.1529C79.1989 52.0495 79.2146 51.9483 79.2281 51.8426C79.2394 51.7662 79.2484 51.6897 79.2596 51.611C79.2663 51.5661 79.2708 51.5189 79.2776 51.4717C79.3001 51.2873 79.3226 51.1029 79.3428 50.9163C79.3765 50.6308 79.4012 50.3452 79.426 50.0575C79.4507 49.7854 79.4709 49.5111 79.4867 49.2368C79.4934 49.1514 79.4979 49.066 79.5002 48.9805C79.5047 48.9311 79.5069 48.8793 79.5092 48.8299C79.5137 48.7759 79.5159 48.7242 79.5182 48.6725C79.5182 48.6365 79.5227 48.5983 79.5227 48.5646C79.5294 48.4837 79.5316 48.4072 79.5339 48.3263C79.5339 48.315 79.5339 48.3083 79.5339 48.297V48.2925C79.5339 48.2318 79.5384 48.1689 79.5406 48.1127C79.5406 48.0924 79.5406 48.0722 79.5406 48.052C79.5406 47.9575 79.5451 47.8654 79.5474 47.7709C79.5474 47.7439 79.5474 47.717 79.5474 47.69C79.5541 47.4472 79.5564 47.2066 79.5564 46.9638C79.5564 27.2978 63.6136 11.3527 43.9453 11.3527V11.3438ZM43.6733 17.6165C42.5401 17.6098 41.7285 16.7824 41.7307 15.6358C41.7352 14.5071 42.5626 13.7135 43.7295 13.7202C44.8514 13.7247 45.6316 14.5229 45.6293 15.6673C45.6293 16.8274 44.8334 17.621 43.6733 17.6165Z" fill="url(#paint1_linear_72_980)"/>
<path d="M48.8222 22.284L48.7862 22.2773C48.5996 22.2413 48.413 22.2121 48.2241 22.1806C48.2196 22.1806 48.2151 22.1806 48.2129 22.1806C48.033 22.1514 47.8487 22.1221 47.6643 22.0974C47.5114 22.0772 47.363 22.0569 47.2079 22.0389C47.1112 22.0277 47.0145 22.0142 46.9156 22.003C46.7695 21.9872 46.6233 21.9692 46.4772 21.9558C46.2793 21.9378 46.0837 21.9198 45.8836 21.904C45.5172 21.8748 45.1439 21.8523 44.7662 21.8366C44.7055 21.8366 44.6448 21.8298 44.5841 21.8298C44.4649 21.8231 44.3435 21.8186 44.2221 21.8186C44.1861 21.8186 44.1457 21.8186 44.1075 21.8186C44.0513 21.8186 43.9973 21.8186 43.9411 21.8186C43.8939 21.8186 43.8467 21.8186 43.8017 21.8186C43.7545 21.8186 43.7095 21.8231 43.6623 21.8276C43.5229 21.8343 43.3858 21.8501 43.2509 21.8703C43.1767 21.8816 43.1002 21.895 43.0283 21.9085C42.2638 22.0614 41.5804 22.4077 41.0183 22.8955C40.9328 22.9675 40.8474 23.0462 40.7687 23.1271C39.9661 23.9365 39.4804 25.0584 39.4804 26.2995C39.4804 28.8131 41.4747 30.7579 44.0468 30.7804C45.5576 30.7939 47.046 30.9962 48.4962 31.4279C56.1629 33.7099 60.9226 40.9697 60.0008 48.9513C59.9356 49.5178 59.8389 50.0732 59.713 50.6218C59.6905 50.7229 59.6658 50.8219 59.6411 50.9185C59.5556 51.2625 59.4589 51.6043 59.3488 51.9393C59.3218 52.0225 59.2948 52.1034 59.2656 52.1866C59.2364 52.2743 59.2071 52.3619 59.1757 52.4474C59.1442 52.5283 59.1172 52.607 59.0857 52.688C59.0542 52.7734 59.0205 52.8611 58.9845 52.9443C58.5169 54.1156 57.9121 55.2218 57.1904 56.2448C57.1364 56.3212 57.0847 56.3977 57.0285 56.4696C56.8284 56.7439 56.6171 57.0137 56.4012 57.2745C56.345 57.3397 56.2911 57.4049 56.2349 57.4724C55.7987 57.9805 55.3288 58.4661 54.8342 58.9158C54.7532 58.99 54.6745 59.0619 54.5913 59.1339C54.2653 59.4194 53.9281 59.6915 53.5819 59.9478C53.4964 60.0107 53.4065 60.0759 53.3188 60.1389C53.2311 60.2018 53.1434 60.2648 53.0535 60.3232C52.8849 60.4379 52.714 60.5481 52.5454 60.6582C52.442 60.7234 52.3385 60.7886 52.2329 60.8493C52.1407 60.9078 52.0463 60.9618 51.9518 61.0135C51.8596 61.0697 51.763 61.1214 51.6685 61.1708C51.5719 61.2248 51.4774 61.2765 51.3808 61.3237C51.2841 61.3754 51.1874 61.4249 51.0885 61.4699C50.9918 61.5216 50.8929 61.5688 50.7939 61.6115C50.695 61.6587 50.5961 61.7037 50.4972 61.7464C50.3982 61.7891 50.2971 61.8318 50.1981 61.8768L49.8969 62.0005C49.5933 62.1219 49.2831 62.232 48.9706 62.331C48.449 62.5018 47.9184 62.6435 47.3788 62.7537C47.2731 62.7739 47.1629 62.7964 47.055 62.8166C46.9538 62.8368 46.8527 62.8548 46.7492 62.8706C46.738 62.8751 46.7245 62.8773 46.7133 62.8773C46.6076 62.8953 46.5042 62.9133 46.3985 62.9245C46.331 62.9358 46.2636 62.9448 46.1961 62.9538C46.1849 62.9583 46.1692 62.9605 46.1557 62.9605C45.434 63.0617 44.692 63.1134 43.9411 63.1134C43.7702 63.1134 43.5993 63.1134 43.4307 63.1044C43.3318 63.1044 43.2329 63.0976 43.1362 63.0932C43.0485 63.0887 42.9608 63.0842 42.8686 63.0797C42.718 63.0684 42.5719 63.0572 42.4235 63.0437C42.3493 63.0369 42.2751 63.0302 42.2031 63.0212C42.1604 63.0167 42.12 63.0122 42.0772 63.0077C42.0435 63.0077 42.0143 63.001 41.9828 62.9965C41.9266 62.9897 41.8726 62.9852 41.8142 62.9762C41.7265 62.965 41.6388 62.9538 41.5534 62.9403C41.5062 62.9335 41.4567 62.9268 41.4072 62.9178C41.4027 62.9178 41.396 62.9178 41.3937 62.9178C41.3825 62.9178 41.3735 62.9178 41.36 62.9133L41.324 62.9065C41.3016 62.902 41.2791 62.8975 41.2544 62.8953C41.2319 62.8953 41.2071 62.8886 41.1847 62.8841C41.1554 62.8773 41.1262 62.8728 41.0992 62.8683C41.0475 62.8593 40.9958 62.8503 40.9463 62.8391C40.8407 62.8211 40.7372 62.8009 40.6316 62.7784C40.6181 62.7739 40.6001 62.7716 40.5866 62.7671C40.5192 62.7537 40.4517 62.7379 40.3865 62.7244C40.3191 62.7087 40.2516 62.693 40.1864 62.6772C40.1324 62.666 40.0807 62.6525 40.0268 62.639C40.0133 62.639 39.9953 62.6322 39.9818 62.6278C39.9706 62.6278 39.9638 62.6278 39.9526 62.621C39.8941 62.6075 39.8357 62.5918 39.7772 62.576C39.7637 62.5715 39.7457 62.567 39.7322 62.5648C39.721 62.5648 39.7075 62.5581 39.6963 62.5536C39.6378 62.5401 39.5816 62.5221 39.5254 62.5063C39.3905 62.4704 39.2534 62.4321 39.1185 62.3894C38.9004 62.3242 38.6845 62.2523 38.4732 62.1736C38.2911 62.1129 38.1112 62.0432 37.9336 61.9712C37.8279 61.9308 37.7222 61.8858 37.6166 61.8408C37.5896 61.8296 37.5604 61.8184 37.5334 61.8049C37.4097 61.7509 37.2861 61.6969 37.1669 61.6385C37.0388 61.58 36.9151 61.5193 36.7914 61.4541C36.7083 61.4159 36.6273 61.3732 36.5464 61.3282C36.5037 61.3057 36.4609 61.2833 36.4182 61.2608C36.3463 61.2248 36.2721 61.1843 36.2001 61.1439C31.1909 58.4054 27.7959 53.0859 27.7959 46.9727C27.7959 46.7929 27.7959 46.6108 27.8072 46.4309C27.5396 45.7137 27.3643 44.938 26.9438 44.322C25.9591 42.8763 24.4729 42.2828 22.753 42.5166C21.0195 42.7504 19.7785 43.7239 19.1309 45.3877C19.0837 45.5136 19.014 45.6305 18.9556 45.7519C18.9376 45.8508 18.9174 45.9498 18.8971 46.0464C18.8814 46.1184 18.8634 46.1881 18.8477 46.26C18.8477 46.9997 18.8477 47.7394 18.8477 48.4814C18.8522 48.5735 18.8589 48.6612 18.8656 48.7512C18.8656 48.7512 18.8656 48.7557 18.8656 48.7579C18.8724 48.8141 18.8791 48.8681 18.8859 48.9243C18.9398 49.4346 18.9938 49.9473 19.0478 50.4599C19.059 50.5296 19.0725 50.5993 19.086 50.669C19.1062 50.8331 19.1264 50.995 19.1467 51.1569C19.1467 51.1681 19.1512 51.1816 19.1534 51.1928C19.1647 51.2558 19.1827 51.3232 19.1939 51.3862C19.2321 51.5346 19.2793 51.6807 19.3108 51.8291C19.8189 54.3562 20.6486 56.7776 21.9301 59.017C26.0355 66.1936 32.1532 70.5058 40.3438 71.8189C40.4989 71.8436 40.6541 71.8661 40.8092 71.8886C40.9261 71.9043 41.0408 71.92 41.1577 71.9335C41.2836 71.9493 41.405 71.965 41.5309 71.9785C41.5421 71.9785 41.5511 71.9785 41.5624 71.9785C41.6928 71.992 41.8254 72.0077 41.9536 72.0167C42.0885 72.028 42.2234 72.0414 42.356 72.0504C42.4909 72.0617 42.6258 72.0684 42.7585 72.0774C42.8934 72.0864 43.0283 72.0909 43.1609 72.0954C43.2936 72.1021 43.4307 72.1066 43.5634 72.1066C43.6263 72.1066 43.6915 72.1066 43.7545 72.1066C43.7882 72.1066 43.8174 72.1066 43.8512 72.1066H43.9456C44.031 72.1066 44.1187 72.1066 44.2019 72.1066H44.2693C44.3188 72.1066 44.366 72.1066 44.4155 72.1021C44.4515 72.1021 44.4874 72.1021 44.5211 72.1021C44.5526 72.1021 44.5841 72.1021 44.6156 72.1021C44.6223 72.1021 44.6268 72.1021 44.6336 72.1021C44.6538 72.1021 44.6763 72.1021 44.6988 72.1021C44.7505 72.1021 44.8022 72.1021 44.8517 72.0954C44.8921 72.0954 44.9348 72.0954 44.9753 72.0954C45.018 72.0954 45.0585 72.0909 45.1012 72.0887C45.1417 72.0887 45.1822 72.0842 45.2204 72.0819C45.3193 72.0752 45.4182 72.0707 45.5149 72.0662C45.6228 72.0594 45.7352 72.0527 45.8432 72.0437C46.0298 72.0302 46.2164 72.0145 46.403 71.9965C46.4232 71.9965 46.4435 71.992 46.4637 71.9897C46.4749 71.9897 46.4839 71.9897 46.4974 71.9897H46.5042C46.5042 71.9897 46.5132 71.9897 46.5177 71.9897C46.5177 71.9897 46.5222 71.9897 46.5244 71.9897C46.5379 71.9897 46.5536 71.9897 46.5671 71.9852C46.6413 71.9785 46.7178 71.9717 46.7897 71.9628C46.9089 71.9493 47.0258 71.9335 47.1449 71.92C47.2506 71.9065 47.354 71.8908 47.4597 71.8773C47.5429 71.8661 47.6238 71.8548 47.707 71.8413C47.761 71.8324 47.8127 71.8256 47.8621 71.8166C47.9836 71.7986 48.1072 71.7784 48.2264 71.7559C48.404 71.7244 48.5816 71.693 48.7592 71.6547C48.8806 71.6322 48.9998 71.6075 49.1212 71.5805C49.1797 71.5693 49.2359 71.5581 49.2943 71.5446C49.4472 71.5108 49.6001 71.4771 49.753 71.4389C49.7777 71.4344 49.8024 71.4277 49.8249 71.4232C49.9059 71.4029 49.9846 71.3849 50.0632 71.3647C50.1689 71.3377 50.2701 71.3107 50.3735 71.2838C50.378 71.2838 50.3803 71.2838 50.3847 71.2838C50.4679 71.2613 50.5534 71.2388 50.6366 71.2141C50.686 71.2028 50.7332 71.1871 50.7827 71.1758C50.8209 71.1646 50.8614 71.1556 50.8974 71.1421C50.9603 71.1264 51.0255 71.1061 51.0862 71.0859C51.1132 71.0769 51.1379 71.0702 51.1649 71.0634C51.2481 71.0387 51.3313 71.014 51.4122 70.987C51.4482 70.9757 51.4864 70.9645 51.5246 70.951C51.5381 70.951 51.5561 70.9443 51.5674 70.9398C51.5809 70.9353 51.5966 70.9285 51.6101 70.9263C51.6888 70.9015 51.7675 70.8768 51.8462 70.8498C51.8664 70.8453 51.8889 70.8386 51.9091 70.8296C51.9968 70.8026 52.0845 70.7711 52.1744 70.7419C52.3116 70.6969 52.4487 70.6475 52.5858 70.598C62.2131 67.0727 69.084 57.8276 69.084 46.9795C69.084 34.7621 60.3718 24.5795 48.8177 22.3087L48.8222 22.284ZM43.66 28.2443C42.5426 28.2375 41.722 27.3854 41.731 26.2455C41.74 25.1439 42.5696 24.3345 43.6938 24.3367C44.8472 24.3367 45.6318 25.1349 45.6296 26.304C45.6251 27.4529 44.8179 28.2488 43.6623 28.2443H43.66Z" fill="url(#paint2_linear_72_980)"/>
<path d="M54.4565 46.9546C54.4565 52.2157 50.5916 56.5729 45.5464 57.3441C45.5015 57.3508 45.4587 57.3576 45.4138 57.3621C45.4048 57.3643 45.3958 57.3666 45.3868 57.3666C44.9169 57.4318 44.4335 57.4655 43.9456 57.4655C43.8355 57.4655 43.723 57.4655 43.6129 57.461C43.5477 57.461 43.4847 57.4565 43.4195 57.452C43.3611 57.4498 43.3049 57.4475 43.2464 57.443C43.1497 57.4363 43.053 57.4273 42.9564 57.4183C42.9069 57.4138 42.8597 57.4093 42.8102 57.4025C42.763 57.398 42.7158 57.3935 42.6708 57.3868C42.6349 57.3823 42.5989 57.3778 42.5607 57.3733C42.5045 57.3666 42.4483 57.3576 42.392 57.3486C42.3606 57.3441 42.3291 57.3396 42.2976 57.3328C42.2954 57.3328 42.2931 57.3328 42.2886 57.3328C42.2819 57.3328 42.2751 57.3328 42.2661 57.3306L42.2414 57.3261C42.2257 57.3238 42.2099 57.3216 42.1964 57.3171C42.1807 57.3171 42.165 57.3126 42.1515 57.3104C42.1335 57.3059 42.1133 57.3036 42.0953 57.2991C42.0615 57.2924 42.0278 57.2879 41.9941 57.2811C41.9266 57.2699 41.8569 57.2564 41.7895 57.2407C41.7355 57.2294 41.6816 57.2182 41.6299 57.2069C41.5849 57.1957 41.5422 57.1867 41.4995 57.1755C41.4657 57.1665 41.4298 57.1597 41.396 57.1507C41.3871 57.1507 41.3758 57.1462 41.3668 57.1417C41.3601 57.1417 41.3556 57.1417 41.3488 57.1372C41.3106 57.1282 41.2724 57.1192 41.2342 57.108C41.2252 57.1058 41.2139 57.1035 41.2049 57.099C41.1959 57.099 41.1892 57.0945 41.1802 57.0923C41.142 57.0833 41.106 57.072 41.07 57.0608C40.4225 56.8787 39.802 56.6336 39.2129 56.3346C39.186 56.3211 39.159 56.3076 39.132 56.2941C39.105 56.2784 39.0758 56.2649 39.0488 56.2491C39.0016 56.2244 38.9544 56.1997 38.9072 56.1727C35.6471 54.3898 33.437 50.9274 33.437 46.9479C33.437 46.831 33.437 46.7118 33.4438 46.5949C33.4505 46.3723 33.4662 46.1497 33.4865 45.9294V45.9249C33.4955 45.844 33.5022 45.763 33.5135 45.6798C33.5966 44.9806 33.7495 44.3016 33.9654 43.6518C33.9654 43.6496 33.9654 43.6474 33.9654 43.6451C35.3481 39.4587 39.2939 36.437 43.9456 36.437C49.7508 36.437 54.4565 41.1427 54.4565 46.9479V46.9546Z" fill="#6E7ED7"/>
<defs>
<linearGradient id="paint0_linear_72_980" x1="93.2416" y1="0.391807" x2="9.19609" y2="93.4233" gradientUnits="userSpaceOnUse">
<stop offset="0.614092" stop-color="#9AA9FF"/>
<stop offset="1" stop-color="#99A9FF" stop-opacity="0"/>
</linearGradient>
<linearGradient id="paint1_linear_72_980" x1="59.5113" y1="11.3438" x2="5.49576" y2="95.5376" gradientUnits="userSpaceOnUse">
<stop offset="0.014949" stop-color="#92A3FF"/>
<stop offset="1" stop-color="#98A8FF" stop-opacity="0"/>
</linearGradient>
<linearGradient id="paint2_linear_72_980" x1="64.1694" y1="21.5355" x2="9.19628" y2="78.623" gradientUnits="userSpaceOnUse">
<stop offset="0.305972" stop-color="#93A4FF"/>
<stop offset="1" stop-color="#91A2FF" stop-opacity="0"/>
</linearGradient>
</defs>
</svg>
