<svg width="86" height="90" viewBox="0 0 86 90" fill="none" xmlns="http://www.w3.org/2000/svg">
<path d="M59.7172 70.7884C59.5623 70.2197 58.9041 69.9753 58.4033 70.2899C58.2024 70.4157 57.975 70.5198 57.7185 70.6045C51.0883 72.8379 44.7873 75.761 39.0089 79.7415C35.7689 81.9749 32.7297 84.4455 30.2349 87.5234C29.5453 88.3727 29.5598 89.1301 30.2155 89.6745C30.8737 90.2214 31.6166 90.0786 32.3183 89.2487C35.2559 85.7787 38.8202 83.0565 42.6458 80.6585C42.8709 80.5158 43.3524 80.5303 43.5823 80.6779C47.3571 83.0928 50.9335 85.7545 53.8202 89.2341C54.5075 90.0617 55.2624 90.2238 55.923 89.6915C56.586 89.1567 56.6514 88.3316 55.9254 87.5476C54.5728 86.0909 53.2274 84.6076 51.7272 83.3106C49.8712 81.7063 47.8628 80.2786 45.9173 78.776C45.9391 78.7469 45.9657 78.6792 46.0141 78.6526C50.2801 76.3127 54.7422 74.4228 59.3663 72.9177C59.3687 72.9177 59.3712 72.9177 59.376 72.9153C59.843 72.7726 60.1358 72.3128 60.0076 71.841L59.7196 70.7884H59.7172Z" fill="url(#paint0_linear_79_266)"/>
<path d="M71.0655 10.7907C64.2732 11.19 57.7834 5.99234 56.4453 0.0518428C63.436 -0.352256 69.7709 5.05105 71.0655 10.7907Z" fill="url(#paint1_linear_79_266)"/>
<path d="M81.5942 25.1083C81.5337 25.1615 81.4732 25.2147 81.4127 25.2704C80.7545 25.8705 80.1835 26.5674 79.5785 27.2159C72.7766 21.8513 72.9702 12.6175 75.9949 8.31274C80.6626 9.79121 82.9396 18.7661 81.5942 25.1083Z" fill="url(#paint2_linear_79_266)"/>
<path d="M80.0752 43.9048C77.3771 38.7919 78.7346 30.5405 84.4597 26.2551C87.2884 31.9948 85.2655 40.0598 80.0752 43.9048Z" fill="url(#paint3_linear_79_266)"/>
<path d="M73.9471 59.8127C73.6785 54.54 78.0922 47.3751 85.5523 45.8337C85.7604 52.0356 80.0933 58.8254 73.9471 59.8127Z" fill="url(#paint4_linear_79_266)"/>
<path d="M78.4172 63.6139C75.4796 69.2399 68.0074 72.463 61.6338 70.5054C64.5544 64.7512 72.3654 61.6249 78.4172 63.6139Z" fill="url(#paint5_linear_79_266)"/>
<path d="M26.2901 71.1562C25.9586 71.916 26.37 72.7895 27.1637 73.0242C27.2604 73.0533 27.3597 73.0871 27.4589 73.1259C29.6415 73.9921 31.8459 74.8027 34.0333 75.6617C34.8996 76.0029 35.7296 76.4409 36.5959 76.7869C37.3218 77.0773 38.055 76.77 38.3502 76.1239C38.6526 75.4657 38.4083 74.7543 37.7162 74.3551C37.4307 74.1881 37.1282 74.0454 36.8209 73.9219C33.939 72.7774 31.0474 71.6571 28.18 70.4786C28.1582 70.469 28.1388 70.4617 28.117 70.452C27.4177 70.1399 26.5974 70.452 26.2925 71.1562H26.2901Z" fill="url(#paint6_linear_79_266)"/>
<path d="M24.1443 70.5393C16.9819 72.4944 10.0614 68.7704 7.31494 63.6333C12.9022 61.7048 20.8849 64.3568 24.1443 70.5393Z" fill="url(#paint7_linear_79_266)"/>
<path d="M11.8226 60.3039C11.5371 60.3039 11.237 60.2627 10.9515 60.3111C10.4796 60.3934 10.0078 60.4708 9.53593 60.5483C7.22023 59.0577 2.20166 57.0735 0.793364 49.5868C0.561068 48.3503 0.285216 47.1162 0.019043 45.7805C8.01149 47.5373 12.1638 54.8619 11.8226 60.3039Z" fill="url(#paint8_linear_79_266)"/>
<path d="M5.6745 43.9003C0.510749 40.1787 -1.53878 32.0314 1.25119 26.3159C6.43915 29.7834 8.63386 38.209 5.6745 43.9003Z" fill="url(#paint9_linear_79_266)"/>
<path d="M7.18408 26.2481C3.88354 21.1739 4.76191 12.8814 9.84339 8.30078C13.248 14.0646 11.9099 22.0789 7.18408 26.2481Z" fill="url(#paint10_linear_79_266)"/>
<path d="M29.2763 0.0421042C28.1826 5.41396 22.0388 11.156 14.644 10.7979C16.0911 4.6106 23.1083 -0.519279 29.2763 0.0421042Z" fill="url(#paint11_linear_79_266)"/>
<path d="M43.9098 60.2472C41.3648 60.2472 39.1158 59.8092 37.1626 58.9332C35.2214 58.0573 33.7003 56.8499 32.5994 55.3111C31.4986 53.7723 30.9541 52.0204 30.9659 50.0554C30.9541 48.5166 31.2678 47.102 31.907 45.8118C32.558 44.5097 33.4399 43.4266 34.5526 42.5625C35.6652 41.6866 36.9081 41.1302 38.2812 40.8935V40.6804C36.4702 40.2424 35.0201 39.2718 33.9311 37.7685C32.8421 36.2652 32.3035 34.5369 32.3153 32.5838C32.3035 30.7254 32.7947 29.0682 33.7891 27.6122C34.7952 26.1444 36.1742 24.9903 37.9261 24.1499C39.678 23.3094 41.6726 22.8892 43.9098 22.8892C46.1233 22.8892 48.1001 23.3153 49.8402 24.1676C51.5921 25.008 52.9711 26.1622 53.9773 27.63C54.9834 29.0859 55.4924 30.7372 55.5043 32.5838C55.4924 34.5369 54.9361 36.2652 53.8352 37.7685C52.7344 39.2718 51.3021 40.2424 49.5384 40.6804V40.8935C50.8996 41.1302 52.1248 41.6866 53.2138 42.5625C54.3146 43.4266 55.1906 44.5097 55.8416 45.8118C56.5045 47.102 56.8419 48.5166 56.8537 50.0554C56.8419 52.0204 56.2855 53.7723 55.1847 55.3111C54.0838 56.8499 52.5568 58.0573 50.6037 58.9332C48.6624 59.8092 46.4311 60.2472 43.9098 60.2472ZM43.9098 55.755C45.4131 55.755 46.7152 55.5064 47.8161 55.0092C48.9169 54.5002 49.7692 53.7959 50.3729 52.8963C50.9766 51.9848 51.2843 50.9195 51.2962 49.7003C51.2843 48.4337 50.9529 47.3151 50.3018 46.3445C49.6626 45.3738 48.7926 44.6103 47.6918 44.054C46.5909 43.4976 45.3303 43.2195 43.9098 43.2195C42.4775 43.2195 41.205 43.4976 40.0923 44.054C38.9796 44.6103 38.1037 45.3738 37.4645 46.3445C36.8253 47.3151 36.5116 48.4337 36.5234 49.7003C36.5116 50.9195 36.8016 51.9848 37.3935 52.8963C37.9972 53.7959 38.8554 54.5002 39.968 55.0092C41.0807 55.5064 42.3947 55.755 43.9098 55.755ZM43.9098 38.8338C45.1172 38.8338 46.1884 38.5911 47.1236 38.1058C48.0587 37.6205 48.7926 36.9458 49.3253 36.0817C49.8698 35.2176 50.148 34.2055 50.1598 33.0455C50.148 31.9091 49.8757 30.9148 49.343 30.0625C48.8222 29.2102 48.0942 28.5533 47.1591 28.0916C46.224 27.6181 45.1409 27.3814 43.9098 27.3814C42.6551 27.3814 41.5542 27.6181 40.6072 28.0916C39.6721 28.5533 38.9441 29.2102 38.4233 30.0625C37.9025 30.9148 37.648 31.9091 37.6598 33.0455C37.648 34.2055 37.9084 35.2176 38.4411 36.0817C38.9737 36.9458 39.7076 37.6205 40.6428 38.1058C41.5897 38.5911 42.6787 38.8338 43.9098 38.8338Z" fill="#6E7ED7"/>
<defs>
<linearGradient id="paint0_linear_79_266" x1="44.6377" y1="90.9303" x2="44.6377" y2="62.7082" gradientUnits="userSpaceOnUse">
<stop offset="0.271621" stop-color="#90A1FF"/>
<stop offset="1" stop-color="#90A1FF" stop-opacity="0"/>
</linearGradient>
<linearGradient id="paint1_linear_79_266" x1="63.6389" y1="11.3177" x2="63.6389" y2="-4.01265" gradientUnits="userSpaceOnUse">
<stop offset="0.271621" stop-color="#90A1FF"/>
<stop offset="1" stop-color="#90A1FF" stop-opacity="0"/>
</linearGradient>
<linearGradient id="paint2_linear_79_266" x1="77.9196" y1="28.1019" x2="77.9196" y2="1.22408" gradientUnits="userSpaceOnUse">
<stop offset="0.271621" stop-color="#90A1FF"/>
<stop offset="1" stop-color="#90A1FF" stop-opacity="0"/>
</linearGradient>
<linearGradient id="paint3_linear_79_266" x1="82.1853" y1="44.7321" x2="82.1853" y2="19.6365" gradientUnits="userSpaceOnUse">
<stop offset="0.271621" stop-color="#90A1FF"/>
<stop offset="1" stop-color="#90A1FF" stop-opacity="0"/>
</linearGradient>
<linearGradient id="paint4_linear_79_266" x1="79.6541" y1="60.4679" x2="79.6541" y2="40.5916" gradientUnits="userSpaceOnUse">
<stop offset="0.271621" stop-color="#90A1FF"/>
<stop offset="1" stop-color="#90A1FF" stop-opacity="0"/>
</linearGradient>
<linearGradient id="paint5_linear_79_266" x1="69.8918" y1="71.4586" x2="69.8918" y2="59.9893" gradientUnits="userSpaceOnUse">
<stop offset="0.271621" stop-color="#90A1FF"/>
<stop offset="1" stop-color="#90A1FF" stop-opacity="0"/>
</linearGradient>
<linearGradient id="paint6_linear_79_266" x1="32.2283" y1="77.2045" x2="32.2283" y2="67.8689" gradientUnits="userSpaceOnUse">
<stop offset="0.271621" stop-color="#90A1FF"/>
<stop offset="1" stop-color="#90A1FF" stop-opacity="0"/>
</linearGradient>
<linearGradient id="paint7_linear_79_266" x1="15.5955" y1="71.4458" x2="15.5955" y2="59.9939" gradientUnits="userSpaceOnUse">
<stop offset="0.271621" stop-color="#90A1FF"/>
<stop offset="1" stop-color="#90A1FF" stop-opacity="0"/>
</linearGradient>
<linearGradient id="paint8_linear_79_266" x1="5.83634" y1="61.2405" x2="5.83634" y2="40.2426" gradientUnits="userSpaceOnUse">
<stop offset="0.271621" stop-color="#90A1FF"/>
<stop offset="1" stop-color="#90A1FF" stop-opacity="0"/>
</linearGradient>
<linearGradient id="paint9_linear_79_266" x1="3.44683" y1="44.7245" x2="3.44683" y2="19.7218" gradientUnits="userSpaceOnUse">
<stop offset="0.271621" stop-color="#90A1FF"/>
<stop offset="1" stop-color="#90A1FF" stop-opacity="0"/>
</linearGradient>
<linearGradient id="paint10_linear_79_266" x1="8.43555" y1="27.0894" x2="8.43555" y2="1.57054" gradientUnits="userSpaceOnUse">
<stop offset="0.271621" stop-color="#90A1FF"/>
<stop offset="1" stop-color="#90A1FF" stop-opacity="0"/>
</linearGradient>
<linearGradient id="paint11_linear_79_266" x1="21.8436" y1="11.3207" x2="21.8436" y2="-4.05519" gradientUnits="userSpaceOnUse">
<stop offset="0.271621" stop-color="#90A1FF"/>
<stop offset="1" stop-color="#90A1FF" stop-opacity="0"/>
</linearGradient>
</defs>
</svg>
