<svg width="61" height="61" viewBox="0 0 61 61" fill="none" xmlns="http://www.w3.org/2000/svg">
<path d="M59.9365 22.7249C56.8334 9.81183 45.2645 0.297479 31.4841 0.00709888C25.9805 -0.109053 20.7943 1.19892 16.0363 4.02191C7.296 9.21087 2.35158 16.94 1.16019 26.9973C0.507819 32.5271 1.5229 37.865 3.94851 42.9C4.18024 43.3823 4.24069 43.8544 4.13742 44.3544C3.49009 47.5031 2.83771 50.6518 2.18282 53.8006C1.84027 55.4494 1.46496 57.0932 1.14508 58.7497C0.918384 59.9314 1.56824 60.6535 2.59087 60.4137C7.35141 59.2925 12.112 58.179 16.8599 57.0149C17.404 56.8811 17.8322 56.9392 18.2931 57.1564C22.2653 59.0249 26.4389 59.9718 31.0156 59.9566C34.955 60.0096 38.9347 59.2168 42.6978 57.5604C56.3271 51.5558 63.4276 37.2414 59.9365 22.7249ZM36.2723 52.8486C30.7688 54.1364 25.4188 53.5279 20.4014 50.9271C18.875 50.1342 17.5324 50.0711 15.9607 50.5155C13.7441 51.1392 11.4873 51.6088 9.10702 52.1795C9.7065 49.258 10.243 46.478 10.8651 43.7156C11.0314 42.9808 10.9432 42.395 10.5956 41.7587C8.45213 37.8246 7.31867 33.6457 7.52269 29.1259C7.84762 22.033 10.7669 16.233 16.2 11.7309C20.4618 8.20086 25.4566 6.46363 30.9501 6.49645C41.9951 6.56211 51.1585 13.9706 53.71 24.5202C56.7729 37.1909 48.9319 49.8918 36.2723 52.8486Z" fill="#4FCE5D"/>
<path d="M46.6671 39.6748C44.8837 42.6796 42.4934 44.7855 38.7076 44.5961C35.4156 44.4749 32.4081 43.4043 29.6399 41.6418C24.9701 38.6698 20.9929 34.9782 18.061 30.2312C16.8595 28.2869 16.1215 26.1658 15.8595 23.8933C15.6127 21.7546 16.2021 19.8482 17.5648 18.1842C18.1844 17.4267 18.8645 16.7272 19.6126 16.1036C20.7863 15.1238 22.348 15.4092 23.0079 16.7954C23.8845 18.6362 24.6552 20.5274 25.4789 22.3909C25.8189 23.1611 25.6577 23.8706 25.2144 24.5271C24.9146 24.969 24.562 25.3755 24.2396 25.7997C23.3228 27.0042 23.2195 27.7793 24.1111 28.9611C26.64 32.3093 29.7256 35.054 33.3703 37.1371C34.4383 37.7482 35.3828 37.5563 36.2619 36.6422C38.7353 34.0667 38.6321 34.6424 41.4229 35.362C42.7201 35.6954 44.0072 36.0817 45.2893 36.4731C46.7703 36.925 47.4454 38.3643 46.6671 39.6748Z" fill="#4FCE5D"/>
</svg>
