<svg width="74" height="74" viewBox="0 0 74 74" fill="none" xmlns="http://www.w3.org/2000/svg">
<circle cx="37" cy="37" r="37" fill="#96FFB8"/>
<path d="M25.4382 44V30.9091H30.1044C31.1186 30.9091 31.9602 31.0838 32.6293 31.4332C33.3026 31.7827 33.8054 32.2663 34.1378 32.8842C34.4702 33.4979 34.6364 34.2074 34.6364 35.0128C34.6364 35.8139 34.468 36.5192 34.1314 37.1286C33.799 37.7337 33.2962 38.2045 32.6229 38.5412C31.9538 38.8778 31.1122 39.0462 30.098 39.0462H26.5632V37.3459H29.919C30.5582 37.3459 31.0781 37.2543 31.4787 37.071C31.8835 36.8878 32.1797 36.6214 32.3672 36.272C32.5547 35.9226 32.6484 35.5028 32.6484 35.0128C32.6484 34.5185 32.5526 34.0902 32.3608 33.728C32.1733 33.3658 31.8771 33.0888 31.4723 32.897C31.0717 32.701 30.5455 32.603 29.8935 32.603H27.4134V44H25.4382ZM31.9006 38.0938L35.1349 44H32.8849L29.7145 38.0938H31.9006ZM48.2132 37.4545C48.2132 38.8523 47.9575 40.054 47.4462 41.0597C46.9348 42.0611 46.2338 42.8324 45.3432 43.3736C44.4568 43.9105 43.449 44.179 42.3198 44.179C41.1862 44.179 40.1742 43.9105 39.2835 43.3736C38.3972 42.8324 37.6983 42.0589 37.1869 41.0533C36.6756 40.0476 36.4199 38.848 36.4199 37.4545C36.4199 36.0568 36.6756 34.8572 37.1869 33.8558C37.6983 32.8501 38.3972 32.0788 39.2835 31.5419C40.1742 31.0007 41.1862 30.7301 42.3198 30.7301C43.449 30.7301 44.4568 31.0007 45.3432 31.5419C46.2338 32.0788 46.9348 32.8501 47.4462 33.8558C47.9575 34.8572 48.2132 36.0568 48.2132 37.4545ZM46.2573 37.4545C46.2573 36.3892 46.0847 35.4922 45.7395 34.7635C45.3986 34.0305 44.9298 33.4766 44.3333 33.1016C43.7409 32.7223 43.0698 32.5327 42.3198 32.5327C41.5655 32.5327 40.8922 32.7223 40.2999 33.1016C39.7075 33.4766 39.2388 34.0305 38.8936 34.7635C38.5527 35.4922 38.3823 36.3892 38.3823 37.4545C38.3823 38.5199 38.5527 39.419 38.8936 40.152C39.2388 40.8807 39.7075 41.4347 40.2999 41.8139C40.8922 42.1889 41.5655 42.3764 42.3198 42.3764C43.0698 42.3764 43.7409 42.1889 44.3333 41.8139C44.9298 41.4347 45.3986 40.8807 45.7395 40.152C46.0847 39.419 46.2573 38.5199 46.2573 37.4545ZM52.4529 30.9091V44H50.4778V30.9091H52.4529Z" fill="#049430"/>
</svg>
