<svg width="74" height="74" viewBox="0 0 74 74" fill="none" xmlns="http://www.w3.org/2000/svg">
<circle cx="37" cy="37" r="37" fill="#CBD3FF"/>
<path d="M51.6842 17H39.0526C37.4362 17 35.8199 17.6176 34.5867 18.8508L19.8499 33.5876C17.3834 36.0541 17.3834 40.0531 19.8499 42.5196L30.3762 53.0459C32.1532 54.8229 34.7256 55.3196 36.9474 54.536C39.2777 53.7141 39.2126 52.6703 39.1051 50.9486C39.08 50.5482 39.0526 50.1112 39.0526 49.6316C39.0526 41.2651 45.56 34.4183 53.7895 33.8766C54.4912 33.8651 55.8947 33.4211 55.8947 31.7368V21.2105C55.8947 18.8851 54.0097 17 51.6842 17ZM49.5789 27.5263C49.5789 29.8517 47.6939 31.7368 45.3684 31.7368C43.0429 31.7368 41.1579 29.8517 41.1579 27.5263C41.1579 25.2009 43.0429 23.3158 45.3684 23.3158C47.6939 23.3158 49.5789 25.2009 49.5789 27.5263ZM50.2438 38.0526C51.2636 38.0526 52.0905 38.7596 52.0905 39.6316V39.9417C53.0046 40.2158 54.1383 40.7284 55.2429 41.6731C55.9642 42.2897 55.9642 43.2893 55.2429 43.9059C54.5219 44.5225 53.3526 44.5225 52.6314 43.9059C51.9337 43.3095 51.2669 43.0349 50.8139 42.9059C50.5842 42.8404 50.4051 42.8112 50.3 42.7983C50.2587 42.7933 50.2293 42.7907 50.2135 42.7897C49.2067 42.8034 48.3971 43.5044 48.3971 44.3684C48.3971 45.1366 48.656 45.324 48.8126 45.4244C49.1499 45.6406 49.6758 45.7773 50.6916 45.9945L50.8137 46.0204C51.6478 46.1977 52.8933 46.4621 53.8909 47.1019C55.1196 47.8897 55.784 49.084 55.784 50.6842C55.784 52.7474 54.2425 54.5017 52.0905 55.1516V55.4211C52.0905 56.2931 51.2636 57 50.2438 57C49.2238 57 48.3971 56.2931 48.3971 55.4211V55.1109C47.4829 54.8368 46.3493 54.3242 45.2444 53.3796C44.5234 52.7629 44.5234 51.7634 45.2444 51.1467C45.9657 50.5301 47.1349 50.5301 47.8562 51.1467C48.5539 51.7432 49.2206 52.0177 49.6735 52.1467C49.9032 52.2122 50.0825 52.2415 50.1876 52.2543C50.2288 52.2594 50.2581 52.2619 50.2739 52.263C51.2806 52.2493 52.0905 51.5482 52.0905 50.6842C52.0905 49.916 51.8316 49.7286 51.6749 49.6282C51.3377 49.412 50.8118 49.2754 49.7958 49.0581L49.6739 49.0322C48.8398 48.8549 47.5941 48.5905 46.5964 47.9507C45.368 47.1629 44.7036 45.9686 44.7036 44.3684C44.7036 42.3053 46.2448 40.5509 48.3971 39.9008V39.6316C48.3971 38.7596 49.2238 38.0526 50.2438 38.0526Z" fill="#4755A5"/>
</svg>
