<svg width="74" height="74" viewBox="0 0 74 74" fill="none" xmlns="http://www.w3.org/2000/svg">
<circle cx="37" cy="37" r="37" fill="#96FFB8"/>
<path d="M13.4382 44V30.9091H18.1044C19.1186 30.9091 19.9602 31.0838 20.6293 31.4332C21.3026 31.7827 21.8054 32.2663 22.1378 32.8842C22.4702 33.4979 22.6364 34.2074 22.6364 35.0128C22.6364 35.8139 22.468 36.5192 22.1314 37.1286C21.799 37.7337 21.2962 38.2045 20.6229 38.5412C19.9538 38.8778 19.1122 39.0462 18.098 39.0462H14.5632V37.3459H17.919C18.5582 37.3459 19.0781 37.2543 19.4787 37.071C19.8835 36.8878 20.1797 36.6214 20.3672 36.272C20.5547 35.9226 20.6484 35.5028 20.6484 35.0128C20.6484 34.5185 20.5526 34.0902 20.3608 33.728C20.1733 33.3658 19.8771 33.0888 19.4723 32.897C19.0717 32.701 18.5455 32.603 17.8935 32.603H15.4134V44H13.4382ZM19.9006 38.0938L23.1349 44H20.8849L17.7145 38.0938H19.9006ZM36.2132 37.4545C36.2132 38.8523 35.9575 40.054 35.4462 41.0597C34.9348 42.0611 34.2338 42.8324 33.3432 43.3736C32.4568 43.9105 31.449 44.179 30.3198 44.179C29.1862 44.179 28.1742 43.9105 27.2835 43.3736C26.3972 42.8324 25.6983 42.0589 25.1869 41.0533C24.6756 40.0476 24.4199 38.848 24.4199 37.4545C24.4199 36.0568 24.6756 34.8572 25.1869 33.8558C25.6983 32.8501 26.3972 32.0788 27.2835 31.5419C28.1742 31.0007 29.1862 30.7301 30.3198 30.7301C31.449 30.7301 32.4568 31.0007 33.3432 31.5419C34.2338 32.0788 34.9348 32.8501 35.4462 33.8558C35.9575 34.8572 36.2132 36.0568 36.2132 37.4545ZM34.2573 37.4545C34.2573 36.3892 34.0847 35.4922 33.7395 34.7635C33.3986 34.0305 32.9298 33.4766 32.3333 33.1016C31.7409 32.7223 31.0698 32.5327 30.3198 32.5327C29.5655 32.5327 28.8922 32.7223 28.2999 33.1016C27.7075 33.4766 27.2388 34.0305 26.8936 34.7635C26.5527 35.4922 26.3823 36.3892 26.3823 37.4545C26.3823 38.5199 26.5527 39.419 26.8936 40.152C27.2388 40.8807 27.7075 41.4347 28.2999 41.8139C28.8922 42.1889 29.5655 42.3764 30.3198 42.3764C31.0698 42.3764 31.7409 42.1889 32.3333 41.8139C32.9298 41.4347 33.3986 40.8807 33.7395 40.152C34.0847 39.419 34.2573 38.5199 34.2573 37.4545ZM38.9332 44H36.8366L41.5475 30.9091H43.8295L48.5404 44H46.4438L42.7428 33.2869H42.6406L38.9332 44ZM39.2848 38.8736H46.0859V40.5355H39.2848V38.8736ZM57.2673 34.348C57.1991 33.7429 56.9179 33.2741 56.4236 32.9418C55.9293 32.6051 55.3071 32.4368 54.5571 32.4368C54.0202 32.4368 53.5557 32.522 53.1636 32.6925C52.7716 32.8587 52.4669 33.0888 52.2496 33.3828C52.0365 33.6726 51.93 34.0028 51.93 34.3736C51.93 34.6847 52.0024 34.9531 52.1473 35.179C52.2964 35.4048 52.4903 35.5945 52.729 35.7479C52.9719 35.897 53.2318 36.0227 53.5088 36.125C53.7858 36.223 54.0521 36.304 54.3078 36.3679L55.5862 36.7003C56.0038 36.8026 56.4321 36.9411 56.871 37.1158C57.3099 37.2905 57.7169 37.5206 58.0919 37.8061C58.4669 38.0916 58.7695 38.4453 58.9996 38.8672C59.2339 39.2891 59.3511 39.794 59.3511 40.3821C59.3511 41.1236 59.1594 41.782 58.7758 42.3572C58.3966 42.9325 57.8447 43.3864 57.1203 43.7188C56.4001 44.0511 55.5287 44.2173 54.506 44.2173C53.5258 44.2173 52.6778 44.0618 51.9619 43.7507C51.246 43.4396 50.6857 42.9986 50.2808 42.4276C49.876 41.8523 49.6523 41.1705 49.6097 40.3821H51.5912C51.6295 40.8551 51.783 41.2493 52.0514 41.5646C52.3241 41.8757 52.6714 42.108 53.0933 42.2614C53.5195 42.4105 53.9861 42.4851 54.4932 42.4851C55.0514 42.4851 55.5479 42.3977 55.9825 42.223C56.4214 42.044 56.7666 41.7969 57.018 41.4815C57.2695 41.1619 57.3952 40.7891 57.3952 40.3629C57.3952 39.9751 57.2844 39.6577 57.0628 39.4105C56.8455 39.1634 56.5493 38.9588 56.1743 38.7969C55.8035 38.6349 55.3838 38.4922 54.9151 38.3686L53.3682 37.9467C52.3199 37.6612 51.4889 37.2415 50.8753 36.6875C50.2659 36.1335 49.9612 35.4006 49.9612 34.4886C49.9612 33.7344 50.1658 33.076 50.5749 32.5135C50.9839 31.951 51.5379 31.5142 52.2368 31.2031C52.9357 30.8878 53.724 30.7301 54.6018 30.7301C55.4882 30.7301 56.2702 30.8857 56.9477 31.1967C57.6295 31.5078 58.1665 31.9361 58.5585 32.4815C58.9506 33.0227 59.1551 33.6449 59.1722 34.348H57.2673Z" fill="#049430"/>
</svg>
