<svg width="21" height="22" viewBox="0 0 21 22" fill="none" xmlns="http://www.w3.org/2000/svg">
<path d="M20.995 20.3067C20.995 20.8758 20.7391 21.129 20.1665 21.1307C19.1756 21.1343 18.1848 21.1334 17.1948 21.1299C16.6804 21.1281 16.4272 20.8766 16.4272 20.3596C16.4245 18.1476 16.4307 15.9347 16.4236 13.7227C16.4219 13.1527 16.3557 12.5863 16.1651 12.0419C15.8969 11.2769 15.386 10.7722 14.5707 10.6381C13.6169 10.4819 12.7999 10.729 12.2282 11.5522C11.7711 12.2113 11.5814 12.971 11.5744 13.7563C11.5541 15.9135 11.5691 18.0708 11.5708 20.2281C11.5717 20.9278 11.3688 21.1334 10.6744 21.1334C9.76029 21.1334 8.84708 21.1343 7.93387 21.1325C7.38683 21.1325 7.12566 20.8722 7.12566 20.3269C7.12478 16.1447 7.12478 11.9625 7.12566 7.78026C7.12654 7.23233 7.36389 6.98881 7.89946 6.98881C8.87885 6.98793 9.85823 6.98793 10.8376 6.99234C11.3397 6.99498 11.5664 7.20321 11.5946 7.70261C11.6114 8.00878 11.5973 8.31671 11.5973 8.68641C11.8399 8.41112 12.0288 8.17113 12.244 7.9576C12.9631 7.24292 13.8675 6.92705 14.8478 6.81411C15.7239 6.71352 16.6027 6.7347 17.463 6.9641C19.0741 7.3938 20.0368 8.47729 20.5309 10.0284C20.8776 11.1172 20.9676 12.2457 20.9817 13.3733C21.0108 15.6841 20.995 17.9958 20.995 20.3067Z" fill="#B7B7B7"/>
<path d="M5.1077 20.305C5.1077 20.86 4.81918 21.1317 4.26861 21.1326C3.34393 21.1344 2.41925 21.1344 1.49545 21.1326C0.928116 21.1309 0.653712 20.852 0.653712 20.2777C0.65283 18.198 0.653712 16.1175 0.653712 14.0378V7.86419C0.653712 7.23156 0.902529 6.97569 1.5228 6.97569C2.43601 6.9748 3.34922 6.97392 4.26331 6.98098C4.858 6.98539 5.10594 7.22627 5.10594 7.82537C5.11123 11.9855 5.11123 16.1448 5.1077 20.305Z" fill="#B7B7B7"/>
<path d="M5.74732 2.87463C5.75526 4.4734 4.4953 5.72454 2.89475 5.75454C1.52009 5.78013 0.0430715 4.71075 0.000719807 2.90462C-0.0354556 1.31555 1.29686 0.00176875 2.8824 4.09433e-06C4.46353 -0.00264289 5.73938 1.2785 5.74732 2.87463Z" fill="#B7B7B7"/>
</svg>
