<svg width="82" height="77" viewBox="0 0 82 77" fill="none" xmlns="http://www.w3.org/2000/svg">
<path d="M40.1192 51.2493V52.1906C40.1192 55.3055 40.1031 58.4204 40.1307 61.533C40.1376 62.1285 39.9486 62.5385 39.5291 62.9531C35.4492 66.9795 31.3877 71.0243 27.3215 75.0668C27.1187 75.2684 26.8144 75.4585 26.7614 75.6967C26.6853 76.0403 26.6669 76.5487 26.8674 76.7526C27.0726 76.961 27.5843 76.9678 27.9324 76.906C28.1721 76.8648 28.3726 76.5625 28.5755 76.3609C32.1575 72.8085 35.735 69.2539 39.317 65.6992C39.5268 65.4908 39.7458 65.2938 40.1192 64.9457V66.0038C40.1192 68.9745 40.1192 71.9474 40.1192 74.918C40.1192 75.376 40.0224 75.8708 40.1699 76.2762C40.2875 76.5945 40.7162 76.9999 41.0043 76.9999C41.2925 76.9999 41.6405 76.5831 41.8549 76.2762C41.9794 76.0998 41.8941 75.7769 41.8941 75.5203C41.8964 72.3482 41.8964 69.1783 41.8964 66.0061V64.9434C42.2813 65.3053 42.4934 65.4954 42.6939 65.6946C46.2529 69.2287 49.8096 72.7673 53.3687 76.3014C53.5715 76.5029 53.7605 76.8121 54.0002 76.8625C54.3714 76.9358 54.9223 76.9701 55.1343 76.7617C55.3395 76.5579 55.2911 76.0059 55.2058 75.6417C55.1505 75.4012 54.8393 75.218 54.6364 75.0165C50.6118 71.0152 46.5918 67.0093 42.551 63.0241C42.09 62.5683 41.8733 62.1217 41.8803 61.462C41.9148 58.4044 41.8964 55.3467 41.8964 52.2891V51.2493H40.1192Z" fill="url(#paint0_linear_135_2241)"/>
<path d="M8.85161 7.23535V8.21792C8.85161 21.4746 8.84931 34.729 8.85161 47.9856C8.85161 50.2783 9.84278 51.2494 12.164 51.2494H69.7834C72.2037 51.2494 73.1649 50.2943 73.1649 47.878C73.1672 34.6809 73.1649 21.4815 73.1649 8.28205V7.23535H8.85161ZM66.5356 20.9638C65.8763 23.3756 63.2809 24.791 60.9182 23.9619C60.3073 23.7466 59.9662 23.8337 59.519 24.2849C56.2066 27.6197 52.8712 30.9315 49.5174 34.2251C49.1002 34.6351 49.0587 34.9397 49.2753 35.4711C50.0291 37.3285 49.3952 39.4082 47.7863 40.574C46.1543 41.7558 44.0152 41.7215 42.4178 40.487C40.8573 39.2799 40.2557 37.1362 41.0924 35.3336C41.3805 34.7106 41.2653 34.3992 40.8158 33.964C39.1308 32.3287 37.4873 30.6544 35.8046 28.9733C34.0459 30.0062 32.4093 29.9535 30.7427 28.9664C28.4123 31.2957 26.0911 33.5929 23.8114 35.9314C23.6501 36.0963 23.7054 36.6025 23.8229 36.8819C24.6228 38.8104 24.0834 40.9153 22.4169 42.1773C20.8356 43.3751 18.5559 43.3408 16.9769 42.0948C15.2689 40.7481 14.8148 38.3478 15.9097 36.4605C17.0023 34.5709 19.3073 33.7624 21.3496 34.5572C21.6124 34.6603 21.8682 34.7885 22.244 34.958C23.5417 33.6502 24.8694 32.3103 26.2041 30.9751C27.1537 30.0223 28.0988 29.0603 29.0762 28.1327C29.4196 27.8052 29.4565 27.5464 29.2629 27.1043C28.5206 25.4026 28.7442 23.7833 29.9867 22.3999C31.1461 21.1127 32.6305 20.618 34.3547 21.0623C36.1711 21.5318 37.349 22.7228 37.6187 24.5322C37.7708 25.5469 37.4481 26.6302 37.3075 27.9815C38.8311 29.484 40.6176 31.2613 42.4247 33.0158C42.5515 33.1395 42.8396 33.2105 43.0079 33.1578C45.5043 32.3791 45.6403 32.3791 47.7033 33.3479C51.3499 29.7222 54.985 26.108 58.6707 22.4434C58.0645 21.4357 57.645 20.2996 57.9009 18.9758C58.3642 16.5801 60.7868 14.9447 63.1817 15.4715C65.6758 16.0212 67.2041 18.5223 66.5356 20.9638Z" fill="url(#paint1_linear_135_2241)"/>
<path d="M81.9261 3.28439C81.6818 4.39293 80.9695 5.08691 79.8539 5.32282C79.4366 5.40986 78.9987 5.41444 78.5676 5.41444C66.0328 5.41902 53.4956 5.41902 40.9607 5.41902C28.4258 5.41902 15.9462 5.42131 3.43902 5.41215C2.89733 5.41215 2.33259 5.39382 1.82087 5.24266C0.714441 4.91972 -0.0577521 3.73331 0.00448441 2.60415C0.0690259 1.41545 0.8781 0.407686 2.03293 0.132842C2.42018 0.0412267 2.82818 0.00687111 3.22695 0.00687111C28.4143 0 53.5993 0 78.7866 0C80.9833 0 82.3387 1.41316 81.9261 3.2821V3.28439Z" fill="url(#paint2_linear_135_2241)"/>
<path d="M64.8596 19.8392C64.8457 21.2752 63.6425 22.4502 62.2157 22.4204C60.8004 22.3907 59.6156 21.1699 59.634 19.7613C59.6547 18.3459 60.8833 17.1549 62.2917 17.1824C63.7347 17.2098 64.8757 18.3917 64.8596 19.8392Z" fill="url(#paint3_linear_135_2241)"/>
<path d="M47.7656 37.0422C47.7564 38.5011 46.6154 39.6166 45.1378 39.6097C43.6787 39.6005 42.5377 38.453 42.5469 36.9987C42.5562 35.5557 43.7202 34.4174 45.1793 34.4266C46.6407 34.4357 47.7725 35.5809 47.7656 37.0422Z" fill="url(#paint4_linear_135_2241)"/>
<path d="M35.8921 25.2949C35.9106 26.7401 34.765 27.9174 33.3197 27.9357C31.9021 27.954 30.6758 26.7722 30.6527 25.3659C30.6274 23.9367 31.7938 22.7572 33.2459 22.7411C34.7235 22.7251 35.876 23.8359 35.8921 25.2949Z" fill="url(#paint5_linear_135_2241)"/>
<path d="M22.3793 38.7279C22.3424 40.1296 21.0769 41.3252 19.6847 41.2771C18.2371 41.2267 17.1284 40.0472 17.1537 38.5859C17.1814 37.1544 18.41 35.9841 19.8276 36.0413C21.266 36.0986 22.4162 37.3125 22.3793 38.7279Z" fill="url(#paint6_linear_135_2241)"/>
<defs>
<linearGradient id="paint0_linear_135_2241" x1="40.9936" y1="51.2493" x2="40.9936" y2="87.7015" gradientUnits="userSpaceOnUse">
<stop stop-color="#6E7ED7"/>
<stop offset="0.873052" stop-color="#6E7ED7" stop-opacity="0.19"/>
</linearGradient>
<linearGradient id="paint1_linear_135_2241" x1="41.0083" y1="7.23535" x2="41.0083" y2="69.541" gradientUnits="userSpaceOnUse">
<stop stop-color="#6E7ED7"/>
<stop offset="0.873052" stop-color="#6E7ED7" stop-opacity="0.19"/>
</linearGradient>
<linearGradient id="paint2_linear_135_2241" x1="41.0004" y1="0" x2="41.0004" y2="7.67144" gradientUnits="userSpaceOnUse">
<stop stop-color="#6E7ED7"/>
<stop offset="0.873052" stop-color="#6E7ED7" stop-opacity="0.19"/>
</linearGradient>
<linearGradient id="paint3_linear_135_2241" x1="62.2468" y1="17.1819" x2="62.2468" y2="24.5983" gradientUnits="userSpaceOnUse">
<stop stop-color="#6E7ED7"/>
<stop offset="0.873052" stop-color="#6E7ED7" stop-opacity="0.19"/>
</linearGradient>
<linearGradient id="paint4_linear_135_2241" x1="45.1562" y1="34.4265" x2="45.1562" y2="41.7638" gradientUnits="userSpaceOnUse">
<stop stop-color="#6E7ED7"/>
<stop offset="0.873052" stop-color="#6E7ED7" stop-opacity="0.19"/>
</linearGradient>
<linearGradient id="paint5_linear_135_2241" x1="33.2724" y1="22.741" x2="33.2724" y2="30.0948" gradientUnits="userSpaceOnUse">
<stop stop-color="#6E7ED7"/>
<stop offset="0.873052" stop-color="#6E7ED7" stop-opacity="0.19"/>
</linearGradient>
<linearGradient id="paint6_linear_135_2241" x1="19.7667" y1="36.0393" x2="19.7667" y2="43.4558" gradientUnits="userSpaceOnUse">
<stop stop-color="#6E7ED7"/>
<stop offset="0.873052" stop-color="#6E7ED7" stop-opacity="0.19"/>
</linearGradient>
</defs>
</svg>
