<svg width="105" height="99" viewBox="0 0 105 99" fill="none" xmlns="http://www.w3.org/2000/svg">
<path fill-rule="evenodd" clip-rule="evenodd" d="M44.1055 37.5655V31.1702C51.4022 29.9372 56.9607 23.5722 56.9607 15.9056C56.9607 14.0861 56.6476 12.34 56.0726 10.7184C61.0629 7.39947 67.0538 5.46558 73.4964 5.46558C90.8955 5.46558 105 19.5703 105 36.9695C105 53.4587 92.3322 66.9891 76.1976 68.3592C76.1552 68.3137 76.1124 68.2686 76.069 68.2238L49.0493 40.3165C47.6539 38.8759 45.9253 37.9581 44.1055 37.5655ZM72.8289 19.3273C72.8289 18.775 72.3812 18.3273 71.8289 18.3273C71.2766 18.3273 70.8289 18.775 70.8289 19.3273V39.4898V39.904L71.1218 40.1969L85.6136 54.6887C86.0041 55.0792 86.6373 55.0792 87.0278 54.6887C87.4183 54.2982 87.4183 53.665 87.0278 53.2745L72.8289 39.0756V19.3273Z" fill="#6E7ED7"/>
<path d="M30.947 40.2037L2.8433 68.3816C-0.859711 72.0943 -0.938186 78.0446 2.56374 81.9541C21.6232 103.228 50.1634 105.504 72.1902 81.5312C75.6479 77.7643 75.437 71.8976 71.8812 68.2242L44.8615 40.3168C41.0653 36.3975 34.802 36.3483 30.947 40.2136V40.2037Z" fill="url(#paint0_linear_506_6701)"/>
<path d="M37.3327 31.3862C45.8599 31.3862 52.7725 24.4553 52.7725 15.9056C52.7725 7.35595 45.8599 0.425049 37.3327 0.425049C28.8055 0.425049 21.8928 7.35595 21.8928 15.9056C21.8928 24.4553 28.8055 31.3862 37.3327 31.3862Z" fill="url(#paint1_linear_506_6701)"/>
<path d="M39.3094 18.1479H35.3562C35.0203 18.1479 34.748 18.421 34.748 18.7577V47.9388C34.748 48.2755 35.0203 48.5485 35.3562 48.5485H39.3094C39.6453 48.5485 39.9175 48.2755 39.9175 47.9388V18.7577C39.9175 18.421 39.6453 18.1479 39.3094 18.1479Z" fill="url(#paint2_linear_506_6701)"/>
<defs>
<linearGradient id="paint0_linear_506_6701" x1="37.3347" y1="37.3457" x2="37.3347" y2="122.308" gradientUnits="userSpaceOnUse">
<stop stop-color="#90A1FF"/>
<stop offset="1" stop-color="#90A1FF" stop-opacity="0"/>
</linearGradient>
<linearGradient id="paint1_linear_506_6701" x1="37.3327" y1="0.425049" x2="37.3327" y2="43.2875" gradientUnits="userSpaceOnUse">
<stop stop-color="#90A1FF"/>
<stop offset="1" stop-color="#90A1FF" stop-opacity="0"/>
</linearGradient>
<linearGradient id="paint2_linear_506_6701" x1="37.3328" y1="18.1479" x2="37.3328" y2="60.2343" gradientUnits="userSpaceOnUse">
<stop stop-color="#90A1FF"/>
<stop offset="1" stop-color="#90A1FF" stop-opacity="0"/>
</linearGradient>
</defs>
</svg>
