<svg width="106" height="98" viewBox="0 0 106 98" fill="none" xmlns="http://www.w3.org/2000/svg">
<path fill-rule="evenodd" clip-rule="evenodd" d="M52.6226 1.98592e-05C23.5588 2.24e-05 0.000107977 23.3666 0.000110496 52.1806C0.000112052 69.9784 8.98317 85.6909 22.7024 95.1011L35.9319 76.1247C28.2773 70.8794 23.2676 62.1106 23.2676 52.1808C23.2676 36.1101 36.4043 23.0722 52.6227 23.0722C68.8411 23.0722 81.9778 36.1101 81.9778 52.1808C81.9778 62.9311 76.1115 72.3181 67.3733 77.3554L79.0591 97.302C94.7183 88.2673 105.245 71.4457 105.245 52.1805C105.245 23.3666 81.6864 1.73184e-05 52.6226 1.98592e-05Z" fill="url(#paint0_linear_62_162)"/>
<path d="M59.3272 86.2455C59.3201 86.8257 58.8491 86.9248 58.3638 86.9248H55.9446C54.6601 86.9248 53.3755 86.9248 52.091 86.9248C50.1214 86.9248 48.1517 86.9248 46.1821 86.9248C45.9109 86.9248 45.5898 86.9956 45.39 86.8753C45.1259 86.7196 44.8405 86.4295 44.7905 86.1606C44.762 86.012 45.1616 85.7148 45.4114 85.5874C45.6041 85.4954 45.8824 85.5591 46.1179 85.5591H57.9357C58.0855 85.5591 58.2354 85.5591 58.3852 85.5591C58.8848 85.5378 59.3272 85.6652 59.3201 86.2455H59.3272Z" fill="#6E7ED7"/>
<path d="M71.2882 43.4546C67.8913 34.2624 57.3366 28.7569 47.7239 30.8869C37.5975 33.1301 30.6324 42.287 31.4103 52.4133C31.8028 57.5579 33.7795 61.9877 37.519 65.5613C39.8668 67.8045 41.3227 70.4794 41.9863 73.5859C42.3574 75.3196 42.5358 77.0887 42.8213 78.9781H43.7847C49.3082 78.9781 54.8389 78.9569 60.3624 78.9994C61.3044 79.0065 61.5542 78.7376 61.5899 77.8318C61.7397 74.6049 62.3606 71.4489 64.1447 68.6961C65.0653 67.2667 66.3641 66.0849 67.4773 64.7758C72.8724 58.4 74.1712 51.2599 71.2882 43.4546ZM70.339 51.7623C70.2962 52.5832 69.7895 53.1564 69.0545 53.213C68.3123 53.2696 67.6843 52.8096 67.5558 51.9958C67.4345 51.2386 67.4417 50.4602 67.3275 49.7031C66.2356 42.2799 60.1626 36.8452 52.6052 36.5268C52.4553 36.5197 52.3055 36.5268 52.1556 36.5056C51.2493 36.4277 50.6284 35.8333 50.6498 35.062C50.6713 34.2907 51.3278 33.6255 52.227 33.7104C53.8541 33.8661 55.5026 34.0218 57.0797 34.411C64.4729 36.2508 70.1749 43.4192 70.3533 50.9627C70.3533 51.2316 70.3604 51.5005 70.3533 51.7623H70.339Z" fill="#6E7ED7"/>
<path d="M62.0247 82.6364C62.0247 82.8487 61.7607 83.1388 61.5323 83.252C61.3182 83.3653 61.0114 83.3157 60.7402 83.3157C54.9526 83.3157 49.165 83.3157 43.3846 83.3157C43.2062 83.3157 43.0278 83.3157 42.8494 83.3157C42.3498 83.2945 41.8717 83.1176 42.0002 82.5586C42.0644 82.2967 42.5639 81.9571 42.8708 81.95C45.9109 81.9075 48.951 81.9217 51.9982 81.9217C54.9169 81.9217 57.8428 81.9217 60.7687 81.9217C61.0328 81.9217 61.3539 81.8721 61.5609 81.9854C61.7821 82.1127 62.0319 82.4099 62.0319 82.6293L62.0247 82.6364Z" fill="#6E7ED7"/>
<defs>
<linearGradient id="paint0_linear_62_162" x1="102" y1="73.5" x2="-26" y2="107.5" gradientUnits="userSpaceOnUse">
<stop offset="0.16331" stop-color="#90A1FF"/>
<stop offset="1" stop-color="#90A1FF" stop-opacity="0"/>
</linearGradient>
</defs>
</svg>
