<svg width="231" height="47" viewBox="0 0 231 47" fill="none" xmlns="http://www.w3.org/2000/svg">
<path d="M12.85 34.65C11.75 34.6833 10.5333 34.5833 9.2 34.35C7.86667 34.15 6.56667 33.7833 5.3 33.25C4.03333 32.7167 2.93333 32.0167 2 31.15C1.06667 30.2833 0.433333 29.2167 0.0999999 27.95C1.3 29.0167 2.93333 29.8 5 30.3C7.06667 30.7667 9.16667 31 11.3 31C14.1333 31 16.6 30.6833 18.7 30.05C19.3 29.8833 20 29.6167 20.8 29.25C21.6 28.85 22.3833 28.4 23.15 27.9C23.9167 27.3667 24.55 26.7833 25.05 26.15C25.5833 25.5167 25.85 24.8667 25.85 24.2C25.85 23.7333 25.7 23.2833 25.4 22.85C25.1 22.4167 24.6167 21.9833 23.95 21.55C23.55 21.3167 22.9667 21.0667 22.2 20.8C21.4667 20.5 20.6667 20.1667 19.8 19.8C18.9333 19.4 18.1167 18.95 17.35 18.45C16.5833 17.9167 15.9667 17.3 15.5 16.6C15.0667 15.8667 14.9 15.0333 15 14.1C15.1667 12.7333 15.7833 11.3833 16.85 10.05C17.95 8.68333 19.3167 7.41667 20.95 6.25C22.6167 5.05 24.4 4 26.3 3.1C28.2333 2.2 30.1167 1.5 31.95 0.999998C33.8167 0.466665 35.4667 0.199999 36.9 0.199999C38.3667 0.199999 39.6167 0.483332 40.65 1.05C41.7167 1.61666 42.1667 2.58333 42 3.95C41.9333 4.55 41.5167 5.26667 40.75 6.1C40.0167 6.93333 39.1333 7.85 38.1 8.85C37.0667 9.85 36.0333 10.9 35 12C34 13.1 33.1667 14.2167 32.5 15.35C31.8667 16.4833 31.5833 17.5833 31.65 18.65C31.1167 18.2167 30.7167 17.7333 30.45 17.2C30.2167 16.6667 30.1 16.1167 30.1 15.55C30.1 14.75 30.2667 13.9333 30.6 13.1C30.9333 12.2667 31.35 11.4833 31.85 10.75C32.35 9.98333 32.8167 9.33333 33.25 8.8C34.0167 7.86667 34.8833 6.98333 35.85 6.15C36.8167 5.31667 37.8 4.55 38.8 3.85C38.5 3.41667 37.9833 3.2 37.25 3.2C36.4833 3.2 35.6167 3.36667 34.65 3.7C33.7167 4.03333 32.8333 4.4 32 4.8C31.2 5.16667 30.6333 5.45 30.3 5.65C28.8667 6.41666 27.4167 7.28333 25.95 8.25C24.5167 9.21667 23.1833 10.2 21.95 11.2C20.75 12.2 19.7667 13.1333 19 14C18.2667 14.8333 17.8667 15.5333 17.8 16.1C17.7333 16.8 18.0333 17.4 18.7 17.9C19.3667 18.3667 20.2333 18.8 21.3 19.2C22.3667 19.6 23.4167 20.0667 24.45 20.6C25.85 21.3 26.8667 22.1 27.5 23C28.1333 23.9 28.45 24.8333 28.45 25.8C28.45 27 28 28.1833 27.1 29.35C26.2 30.4833 24.9833 31.4333 23.45 32.2C22.0833 32.8667 20.65 33.3833 19.15 33.75C17.6833 34.1167 16.3667 34.35 15.2 34.45C14.0667 34.5833 13.2833 34.65 12.85 34.65ZM23.5039 46.9C23.2706 46.5667 23.0372 46.15 22.8039 45.65C22.5372 45.15 22.4039 44.4667 22.4039 43.6C22.4039 42.9 22.6539 41.8833 23.1539 40.55C23.6539 39.25 24.3206 37.7667 25.1539 36.1C25.9539 34.4333 26.8706 32.7167 27.9039 30.95C28.9039 29.15 29.9206 27.45 30.9539 25.85C30.3206 26.4833 29.6706 27.05 29.0039 27.55C28.8706 27.65 28.7706 27.7 28.7039 27.7C28.6039 27.7 28.5539 27.6333 28.5539 27.5C28.5539 27.4333 28.6039 27.3167 28.7039 27.15C28.7706 26.9833 28.9039 26.8167 29.1039 26.65C29.7706 26.0833 30.5706 25.3167 31.5039 24.35C32.4372 23.35 33.4039 22.2167 34.4039 20.95C35.1706 19.9833 35.8372 19.1333 36.4039 18.4C36.9706 17.6333 37.4206 17.0833 37.7539 16.75C38.1206 16.3833 38.4539 16.1 38.7539 15.9C39.0539 15.7 39.3706 15.6 39.7039 15.6C40.0706 15.6 40.4872 15.7 40.9539 15.9C41.4539 16.0667 41.9206 16.3833 42.3539 16.85C41.9872 17.2833 41.5039 17.9 40.9039 18.7C40.3039 19.5 39.7372 20.2667 39.2039 21C39.9706 20.1 40.9872 19.3 42.2539 18.6C43.5206 17.9 44.7039 17.55 45.8039 17.55C46.8039 17.55 47.6039 17.8667 48.2039 18.5C48.8039 19.1333 49.1039 19.9667 49.1039 21C49.1039 22.1333 48.7872 23.3833 48.1539 24.75C47.5206 26.0833 46.6706 27.3833 45.6039 28.65C44.3039 30.1833 42.8539 31.4333 41.2539 32.4C39.6872 33.3667 38.2539 33.85 36.9539 33.85C36.0206 33.85 35.2872 33.5833 34.7539 33.05C34.2206 32.5167 33.9539 31.7333 33.9539 30.7C33.9539 29.6333 34.1872 28.4833 34.6539 27.25C33.7539 28.3833 32.7872 29.6833 31.7539 31.15C30.7539 32.6167 29.7706 34.1167 28.8039 35.65C27.8372 37.1833 26.9706 38.65 26.2039 40.05C25.4039 41.45 24.7706 42.6833 24.3039 43.75C23.8372 44.8167 23.6039 45.6167 23.6039 46.15C23.6039 46.4167 23.6372 46.5833 23.7039 46.65C23.8039 46.7833 23.8206 46.8667 23.7539 46.9C23.6539 46.9667 23.5706 46.9667 23.5039 46.9ZM36.7039 33.3C37.6706 33.3 38.6206 33 39.5539 32.4C40.5206 31.7667 41.3872 30.95 42.1539 29.95C42.9206 28.95 43.5372 27.8833 44.0039 26.75C44.4706 25.6167 44.7039 24.55 44.7039 23.55C44.7039 22.65 44.4872 21.95 44.0539 21.45C43.6539 20.95 43.0872 20.7 42.3539 20.7C41.4872 20.7 40.5039 21.0833 39.4039 21.85C38.3039 22.5833 37.3039 23.65 36.4039 25.05C35.7372 26.0167 35.2539 27 34.9539 28C34.6872 28.9667 34.5539 29.8333 34.5539 30.6C34.5539 31.5667 34.7539 32.2667 35.1539 32.7C35.5539 33.1 36.0706 33.3 36.7039 33.3ZM51.7223 33.05C50.6889 33.05 49.8889 32.7333 49.3223 32.1C48.7556 31.4333 48.4723 30.5833 48.4723 29.55C48.4723 28.5833 48.7223 27.5167 49.2223 26.35C49.7556 25.1833 50.5889 24 51.7223 22.8C52.8889 21.5333 54.3389 20.5167 56.0723 19.75C57.8056 18.95 59.4556 18.55 61.0223 18.55C62.2889 18.55 63.3723 18.8333 64.2723 19.4C65.1723 19.9333 65.7723 20.6167 66.0723 21.45C66.4389 21.45 66.8889 21.55 67.4223 21.75C67.9889 21.95 68.2723 22.3167 68.2723 22.85C68.2723 23.2167 68.0889 23.6333 67.7223 24.1C67.4889 24.4333 67.0723 24.9333 66.4723 25.6C65.9056 26.2667 65.3723 26.9833 64.8723 27.75C64.4723 28.35 64.1556 28.9167 63.9223 29.45C63.6889 29.95 63.5723 30.3833 63.5723 30.75C63.5723 31.25 63.8223 31.5 64.3223 31.5C64.8889 31.5 65.7389 31.1833 66.8723 30.55C68.1056 29.85 69.2889 29.05 70.4223 28.15C71.5556 27.25 72.4389 26.5333 73.0723 26C73.2389 25.8667 73.3556 25.8 73.4223 25.8C73.5556 25.8 73.6223 25.8833 73.6223 26.05C73.6223 26.25 73.5389 26.4333 73.3723 26.6C73.0723 26.8667 72.4889 27.3667 71.6223 28.1C70.7556 28.8333 69.7556 29.6 68.6223 30.4C67.5223 31.2 66.4389 31.85 65.3723 32.35C64.8389 32.5833 64.3389 32.7667 63.8723 32.9C63.4389 33 63.0389 33.05 62.6723 33.05C61.7723 33.05 61.0889 32.8 60.6223 32.3C60.1556 31.7667 59.9223 31.0833 59.9223 30.25C59.9223 29.9167 59.9723 29.5667 60.0723 29.2C60.1723 28.8333 60.2889 28.4667 60.4223 28.1L60.7723 27.25C59.9056 28.3167 59.0389 29.2167 58.1723 29.95C57.3056 30.65 56.4389 31.2667 55.5723 31.8C54.8389 32.2333 54.1389 32.55 53.4723 32.75C52.8389 32.95 52.2556 33.05 51.7223 33.05ZM53.2723 31.75C53.8723 31.75 54.7389 31.4 55.8723 30.7C57.0056 29.9667 58.3223 28.85 59.8223 27.35C60.0223 27.15 60.3889 26.8 60.9223 26.3C61.4889 25.7667 62.0889 25.1833 62.7223 24.55C63.3556 23.8833 63.8889 23.2333 64.3223 22.6C64.7889 21.9333 65.0223 21.3833 65.0223 20.95C65.0223 20.3167 64.4723 20 63.3723 20C62.4056 20 61.2389 20.3833 59.8723 21.15C58.5389 21.8833 57.2556 22.9833 56.0223 24.45C54.7556 25.95 53.8223 27.25 53.2223 28.35C52.6556 29.4167 52.3723 30.2333 52.3723 30.8C52.3723 31.4333 52.6723 31.75 53.2723 31.75ZM91.6316 14.3C91.4316 14.3 91.265 14.2333 91.1316 14.1C90.5316 13.7 90.0316 13.15 89.6316 12.45C89.265 11.7167 89.0816 10.9333 89.0816 10.1C89.0816 9.26667 89.315 8.43333 89.7816 7.6C90.2483 6.76666 91.0316 6.03333 92.1316 5.4C93.8983 4.36667 95.9483 3.5 98.2816 2.8C100.648 2.06666 103.065 1.5 105.532 1.1C108.032 0.699999 110.382 0.499998 112.582 0.499998C113.448 0.499998 114.465 0.583331 115.632 0.749998C116.832 0.916664 117.982 1.21666 119.082 1.65C120.215 2.08333 121.148 2.68333 121.882 3.45C122.615 4.18333 122.982 5.13333 122.982 6.3C122.982 6.43333 122.982 6.56667 122.982 6.7C122.982 6.8 122.965 6.91667 122.932 7.05C122.932 7.35 122.848 7.5 122.682 7.5C122.582 7.5 122.532 7.41666 122.532 7.25C122.532 7.15 122.532 7.05 122.532 6.95C122.565 6.85 122.582 6.75 122.582 6.65C122.582 5.68333 121.848 4.98333 120.382 4.55C118.948 4.11667 117.132 3.9 114.932 3.9C113.032 3.9 110.965 4.05 108.732 4.35C106.498 4.61667 104.282 5 102.082 5.5C99.915 6 97.9316 6.58333 96.1316 7.25C94.3316 7.88333 92.8816 8.6 91.7816 9.4C90.715 10.1667 90.1816 10.9667 90.1816 11.8C90.1816 12.5667 90.715 13.3167 91.7816 14.05C91.8483 14.0833 91.8816 14.1333 91.8816 14.2C91.8816 14.2667 91.7983 14.3 91.6316 14.3ZM95.7816 40.2C95.615 40.2 95.5316 40.0167 95.5316 39.65C95.5316 39.3167 95.6316 38.85 95.8316 38.25C96.065 37.6167 96.3983 36.8333 96.8316 35.9C97.2983 34.9667 97.8483 33.9167 98.4816 32.75C97.6483 32.8167 96.8483 32.9167 96.0816 33.05C95.315 33.2167 94.5816 33.4 93.8816 33.6C93.0816 33.8 92.2316 34.0833 91.3316 34.45C90.465 34.85 89.615 35.2 88.7816 35.5C87.9816 35.8333 87.2816 36 86.6816 36C86.2483 36 85.9316 35.9167 85.7316 35.75C85.4983 35.5833 85.3816 35.2167 85.3816 34.65C85.3816 34.15 85.565 33.5667 85.9316 32.9C86.3316 32.2 87.0316 31.5167 88.0316 30.85C89.065 30.1833 90.5483 29.6167 92.4816 29.15C93.215 28.95 94.0983 28.8 95.1316 28.7C96.1983 28.6 97.3483 28.55 98.5816 28.55C98.9483 28.55 99.315 28.55 99.6816 28.55C100.082 28.55 100.465 28.5667 100.832 28.6C102.032 26.5333 103.315 24.4 104.682 22.2C106.082 19.9667 107.465 17.8 108.832 15.7C110.198 13.6 111.448 11.7167 112.582 10.05C113.748 8.35 114.698 7.01666 115.432 6.05C116.198 5.05 116.665 4.55 116.832 4.55H117.282C117.582 4.55 117.732 4.65 117.732 4.85C117.732 5.05 117.548 5.38333 117.182 5.85C115.682 7.81667 114.048 10.0833 112.282 12.65C110.515 15.2167 108.748 17.8833 106.982 20.65C105.215 23.4167 103.565 26.1 102.032 28.7C103.932 28.8667 105.732 29.2333 107.432 29.8C109.132 30.3333 110.515 31.1 111.582 32.1C112.682 33.1 113.232 34.3833 113.232 35.95C113.232 36.85 113.098 37.3 112.832 37.3C112.665 37.3 112.615 37.1333 112.682 36.8C112.882 35.9333 112.465 35.1833 111.432 34.55C110.398 33.95 108.998 33.4833 107.232 33.15C105.465 32.8167 103.565 32.65 101.532 32.65C101.232 32.65 100.932 32.65 100.632 32.65C100.332 32.65 100.032 32.6667 99.7316 32.7C98.9983 34.0333 98.315 35.2833 97.6816 36.45C97.0816 37.65 96.5983 38.7167 96.2316 39.65C96.065 40.0167 95.915 40.2 95.7816 40.2ZM121.18 33.05C119.746 33.05 118.78 32.7833 118.28 32.25C117.78 31.6833 117.53 31.0667 117.53 30.4C117.53 29.5333 117.863 28.6167 118.53 27.65C118.93 27.0833 119.38 26.45 119.88 25.75C120.38 25.0167 120.846 24.3333 121.28 23.7C121.713 23.0667 122.013 22.6167 122.18 22.35C122.413 22.0167 122.546 21.8 122.58 21.7C122.646 21.5667 122.68 21.4333 122.68 21.3C122.68 21.1 122.546 20.9167 122.28 20.75C122.046 20.55 121.646 20.45 121.08 20.45C120.913 20.45 120.763 20.4667 120.63 20.5C120.53 20.5 120.413 20.5 120.28 20.5C120.013 20.5 119.863 20.4833 119.83 20.45L119.68 20.65C118.746 21.8833 117.746 23.1 116.68 24.3C115.613 25.4667 114.446 26.55 113.18 27.55C113.046 27.65 112.946 27.7 112.88 27.7C112.746 27.7 112.68 27.6333 112.68 27.5C112.68 27.2333 112.88 26.9333 113.28 26.6C114.313 25.7333 115.33 24.7667 116.33 23.7C117.33 22.6 118.23 21.45 119.03 20.25C118.73 20.05 118.58 19.65 118.58 19.05C118.58 18.15 118.863 17.1833 119.43 16.15C119.83 15.45 120.263 14.9333 120.73 14.6C121.23 14.2333 121.663 14.05 122.03 14.05C122.73 14.05 123.08 14.4667 123.08 15.3C123.08 15.8333 122.88 16.5 122.48 17.3C122.313 17.7 121.98 18.2167 121.48 18.85C121.013 19.45 120.546 19.8833 120.08 20.15C120.78 19.9167 121.663 19.7667 122.73 19.7C123.83 19.6 124.746 19.55 125.48 19.55C125.913 19.55 126.446 19.6833 127.08 19.95C127.713 20.1833 128.03 20.6167 128.03 21.25C128.03 21.6833 127.83 22.15 127.43 22.65C127.33 22.7833 127.063 23.1 126.63 23.6C126.196 24.1 125.713 24.7 125.18 25.4C124.68 26.1 124.213 26.8 123.78 27.5C123.346 28.1333 122.996 28.7167 122.73 29.25C122.496 29.7833 122.38 30.2333 122.38 30.6C122.38 31.1333 122.68 31.4 123.28 31.4C123.98 31.4 124.913 31.0667 126.08 30.4C127.246 29.7333 128.496 28.8833 129.83 27.85C131.196 26.7833 132.446 25.6833 133.58 24.55C133.713 24.4167 133.83 24.35 133.93 24.35C134.063 24.35 134.13 24.4333 134.13 24.6C134.13 24.8 134.046 24.9833 133.88 25.15C132.713 26.3167 131.413 27.5167 129.98 28.75C128.58 29.95 127.113 30.9667 125.58 31.8C124.08 32.6333 122.613 33.05 121.18 33.05ZM133.946 33.05C132.913 33.05 132.113 32.7333 131.546 32.1C130.979 31.4333 130.696 30.5833 130.696 29.55C130.696 28.5833 130.946 27.5167 131.446 26.35C131.979 25.1833 132.813 24 133.946 22.8C135.113 21.5333 136.563 20.5167 138.296 19.75C140.029 18.95 141.679 18.55 143.246 18.55C144.513 18.55 145.596 18.8333 146.496 19.4C147.396 19.9333 147.996 20.6167 148.296 21.45C148.663 21.45 149.113 21.55 149.646 21.75C150.213 21.95 150.496 22.3167 150.496 22.85C150.496 23.2167 150.313 23.6333 149.946 24.1C149.713 24.4333 149.296 24.9333 148.696 25.6C148.129 26.2667 147.596 26.9833 147.096 27.75C146.696 28.35 146.379 28.9167 146.146 29.45C145.913 29.95 145.796 30.3833 145.796 30.75C145.796 31.25 146.046 31.5 146.546 31.5C147.113 31.5 147.963 31.1833 149.096 30.55C150.329 29.85 151.513 29.05 152.646 28.15C153.779 27.25 154.663 26.5333 155.296 26C155.463 25.8667 155.579 25.8 155.646 25.8C155.779 25.8 155.846 25.8833 155.846 26.05C155.846 26.25 155.763 26.4333 155.596 26.6C155.296 26.8667 154.713 27.3667 153.846 28.1C152.979 28.8333 151.979 29.6 150.846 30.4C149.746 31.2 148.663 31.85 147.596 32.35C147.063 32.5833 146.563 32.7667 146.096 32.9C145.663 33 145.263 33.05 144.896 33.05C143.996 33.05 143.313 32.8 142.846 32.3C142.379 31.7667 142.146 31.0833 142.146 30.25C142.146 29.9167 142.196 29.5667 142.296 29.2C142.396 28.8333 142.513 28.4667 142.646 28.1L142.996 27.25C142.129 28.3167 141.263 29.2167 140.396 29.95C139.529 30.65 138.663 31.2667 137.796 31.8C137.063 32.2333 136.363 32.55 135.696 32.75C135.063 32.95 134.479 33.05 133.946 33.05ZM135.496 31.75C136.096 31.75 136.963 31.4 138.096 30.7C139.229 29.9667 140.546 28.85 142.046 27.35C142.246 27.15 142.613 26.8 143.146 26.3C143.713 25.7667 144.313 25.1833 144.946 24.55C145.579 23.8833 146.113 23.2333 146.546 22.6C147.013 21.9333 147.246 21.3833 147.246 20.95C147.246 20.3167 146.696 20 145.596 20C144.629 20 143.463 20.3833 142.096 21.15C140.763 21.8833 139.479 22.9833 138.246 24.45C136.979 25.95 136.046 27.25 135.446 28.35C134.879 29.4167 134.596 30.2333 134.596 30.8C134.596 31.4333 134.896 31.75 135.496 31.75ZM154.175 33.25C153.842 33.25 153.442 33.1667 152.975 33C152.509 32.8667 152.042 32.6 151.575 32.2C151.942 31.7 152.475 31.0333 153.175 30.2C153.842 29.3333 154.559 28.3833 155.325 27.35C156.092 26.3167 156.809 25.2833 157.475 24.25C156.942 24.7833 156.359 25.35 155.725 25.95C155.092 26.55 154.459 27.1 153.825 27.6C153.692 27.7333 153.542 27.8 153.375 27.8C153.242 27.8 153.175 27.7333 153.175 27.6C153.175 27.4333 153.309 27.2333 153.575 27C154.509 26.1667 155.542 25.2167 156.675 24.15C157.842 23.05 158.692 21.9333 159.225 20.8C159.392 20.4 159.475 20.0333 159.475 19.7C159.475 19.2667 159.392 19 159.225 18.9C159.092 18.8 159.025 18.6667 159.025 18.5C159.025 18.2 159.175 18.05 159.475 18.05C159.642 18.05 159.775 18.0833 159.875 18.15C160.242 18.3167 160.592 18.6333 160.925 19.1C161.259 19.5667 161.425 20.2667 161.425 21.2C161.425 21.7333 161.359 22.35 161.225 23.05C161.092 23.7167 160.859 24.4833 160.525 25.35C161.025 24.6833 161.525 24.0333 162.025 23.4C162.559 22.7667 163.042 22.2 163.475 21.7C164.375 20.6667 165.275 19.9333 166.175 19.5C167.109 19.0333 167.942 18.8 168.675 18.8C169.542 18.8 170.242 19.05 170.775 19.55C171.309 20.05 171.575 20.7 171.575 21.5C171.575 22.1333 171.409 22.7833 171.075 23.45C170.975 23.7167 170.742 24.1333 170.375 24.7C170.009 25.2333 169.609 25.8167 169.175 26.45C168.742 27.0833 168.342 27.65 167.975 28.15C167.542 28.6833 167.242 29.15 167.075 29.55C166.909 29.9167 166.825 30.2167 166.825 30.45C166.825 30.7833 167.009 30.95 167.375 30.95C167.842 30.95 168.492 30.7 169.325 30.2C169.825 29.9 170.392 29.5 171.025 29C171.692 28.4667 172.342 27.9333 172.975 27.4C173.642 26.8333 174.175 26.3667 174.575 26C174.709 25.8667 174.825 25.8 174.925 25.8C175.059 25.8 175.125 25.8833 175.125 26.05C175.125 26.25 175.042 26.4333 174.875 26.6C173.875 27.5333 172.709 28.55 171.375 29.65C170.075 30.75 168.792 31.6 167.525 32.2C166.492 32.7 165.542 32.95 164.675 32.95C163.942 32.95 163.359 32.7667 162.925 32.4C162.492 32 162.275 31.4333 162.275 30.7C162.275 30.1667 162.409 29.5333 162.675 28.8C163.009 27.9 163.475 27 164.075 26.1C164.709 25.2 165.359 24.35 166.025 23.55C166.725 22.7167 167.325 22.0167 167.825 21.45C168.259 20.9833 168.475 20.5833 168.475 20.25C168.475 19.95 168.275 19.8 167.875 19.8C167.475 19.8 166.875 20.0333 166.075 20.5C165.309 20.9333 164.442 21.65 163.475 22.65C162.109 24.0833 160.909 25.6333 159.875 27.3C158.842 28.9667 157.659 30.5333 156.325 32C155.592 32.8333 154.875 33.25 154.175 33.25ZM184.898 17.7C184.432 17.7 184.082 17.55 183.848 17.25C183.615 16.95 183.498 16.6333 183.498 16.3C183.498 15.6333 183.815 14.9833 184.448 14.35C185.082 13.6833 185.748 13.35 186.448 13.35C186.915 13.35 187.265 13.5 187.498 13.8C187.732 14.1 187.848 14.4167 187.848 14.75C187.848 15.45 187.532 16.1167 186.898 16.75C186.298 17.3833 185.632 17.7 184.898 17.7ZM177.248 33.05C175.882 33.05 174.948 32.7667 174.448 32.2C173.982 31.6 173.748 30.9333 173.748 30.2C173.748 29.6 173.848 29.0333 174.048 28.5C174.248 27.9333 174.415 27.5333 174.548 27.3C174.748 26.9667 175.015 26.5833 175.348 26.15C175.715 25.7167 176.115 25.25 176.548 24.75C175.882 25.3167 175.248 25.8667 174.648 26.4C174.082 26.9333 173.615 27.3333 173.248 27.6C173.148 27.7 173.048 27.75 172.948 27.75C172.815 27.75 172.748 27.6667 172.748 27.5C172.748 27.2333 172.932 26.9667 173.298 26.7C174.165 25.9667 174.998 25.1667 175.798 24.3C176.632 23.4333 177.415 22.6333 178.148 21.9C178.882 21.1333 179.532 20.6 180.098 20.3C180.698 19.9667 181.182 19.75 181.548 19.65C181.915 19.55 182.215 19.5 182.448 19.5C182.815 19.5 183.082 19.5667 183.248 19.7C183.415 19.8 183.448 19.9167 183.348 20.05C182.782 20.6167 182.215 21.35 181.648 22.25C181.115 23.1167 180.615 24.0333 180.148 25C179.682 25.9667 179.298 26.8833 178.998 27.75C178.732 28.6167 178.598 29.35 178.598 29.95C178.598 30.7833 178.932 31.2 179.598 31.2C180.232 31.2 181.048 30.9167 182.048 30.35C183.082 29.75 184.148 29 185.248 28.1C186.382 27.2 187.432 26.3167 188.398 25.45C188.532 25.3167 188.648 25.25 188.748 25.25C188.915 25.25 188.998 25.3333 188.998 25.5C189.032 25.6667 188.998 25.7833 188.898 25.85C187.798 26.8833 186.548 27.9667 185.148 29.1C183.782 30.2 182.398 31.1333 180.998 31.9C179.632 32.6667 178.382 33.05 177.248 33.05ZM189.718 33.05C188.685 33.05 187.885 32.7333 187.318 32.1C186.751 31.4333 186.468 30.5833 186.468 29.55C186.468 28.5833 186.718 27.5167 187.218 26.35C187.751 25.1833 188.585 24 189.718 22.8C190.885 21.5333 192.335 20.5167 194.068 19.75C195.801 18.95 197.451 18.55 199.018 18.55C200.285 18.55 201.368 18.8333 202.268 19.4C203.168 19.9333 203.768 20.6167 204.068 21.45C204.435 21.45 204.885 21.55 205.418 21.75C205.985 21.95 206.268 22.3167 206.268 22.85C206.268 23.2167 206.085 23.6333 205.718 24.1C205.485 24.4333 205.068 24.9333 204.468 25.6C203.901 26.2667 203.368 26.9833 202.868 27.75C202.468 28.35 202.151 28.9167 201.918 29.45C201.685 29.95 201.568 30.3833 201.568 30.75C201.568 31.25 201.818 31.5 202.318 31.5C202.885 31.5 203.735 31.1833 204.868 30.55C206.101 29.85 207.285 29.05 208.418 28.15C209.551 27.25 210.435 26.5333 211.068 26C211.235 25.8667 211.351 25.8 211.418 25.8C211.551 25.8 211.618 25.8833 211.618 26.05C211.618 26.25 211.535 26.4333 211.368 26.6C211.068 26.8667 210.485 27.3667 209.618 28.1C208.751 28.8333 207.751 29.6 206.618 30.4C205.518 31.2 204.435 31.85 203.368 32.35C202.835 32.5833 202.335 32.7667 201.868 32.9C201.435 33 201.035 33.05 200.668 33.05C199.768 33.05 199.085 32.8 198.618 32.3C198.151 31.7667 197.918 31.0833 197.918 30.25C197.918 29.9167 197.968 29.5667 198.068 29.2C198.168 28.8333 198.285 28.4667 198.418 28.1L198.768 27.25C197.901 28.3167 197.035 29.2167 196.168 29.95C195.301 30.65 194.435 31.2667 193.568 31.8C192.835 32.2333 192.135 32.55 191.468 32.75C190.835 32.95 190.251 33.05 189.718 33.05ZM191.268 31.75C191.868 31.75 192.735 31.4 193.868 30.7C195.001 29.9667 196.318 28.85 197.818 27.35C198.018 27.15 198.385 26.8 198.918 26.3C199.485 25.7667 200.085 25.1833 200.718 24.55C201.351 23.8833 201.885 23.2333 202.318 22.6C202.785 21.9333 203.018 21.3833 203.018 20.95C203.018 20.3167 202.468 20 201.368 20C200.401 20 199.235 20.3833 197.868 21.15C196.535 21.8833 195.251 22.9833 194.018 24.45C192.751 25.95 191.818 27.25 191.218 28.35C190.651 29.4167 190.368 30.2333 190.368 30.8C190.368 31.4333 190.668 31.75 191.268 31.75ZM209.947 33.25C209.614 33.25 209.214 33.1667 208.747 33C208.281 32.8667 207.814 32.6 207.347 32.2C207.714 31.7 208.247 31.0333 208.947 30.2C209.614 29.3333 210.331 28.3833 211.097 27.35C211.864 26.3167 212.581 25.2833 213.247 24.25C212.714 24.7833 212.131 25.35 211.497 25.95C210.864 26.55 210.231 27.1 209.597 27.6C209.464 27.7333 209.314 27.8 209.147 27.8C209.014 27.8 208.947 27.7333 208.947 27.6C208.947 27.4333 209.081 27.2333 209.347 27C210.281 26.1667 211.314 25.2167 212.447 24.15C213.614 23.05 214.464 21.9333 214.997 20.8C215.164 20.4 215.247 20.0333 215.247 19.7C215.247 19.2667 215.164 19 214.997 18.9C214.864 18.8 214.797 18.6667 214.797 18.5C214.797 18.2 214.947 18.05 215.247 18.05C215.414 18.05 215.547 18.0833 215.647 18.15C216.014 18.3167 216.364 18.6333 216.697 19.1C217.031 19.5667 217.197 20.2667 217.197 21.2C217.197 21.7333 217.131 22.35 216.997 23.05C216.864 23.7167 216.631 24.4833 216.297 25.35C216.797 24.6833 217.297 24.0333 217.797 23.4C218.331 22.7667 218.814 22.2 219.247 21.7C220.147 20.6667 221.047 19.9333 221.947 19.5C222.881 19.0333 223.714 18.8 224.447 18.8C225.314 18.8 226.014 19.05 226.547 19.55C227.081 20.05 227.347 20.7 227.347 21.5C227.347 22.1333 227.181 22.7833 226.847 23.45C226.747 23.7167 226.514 24.1333 226.147 24.7C225.781 25.2333 225.381 25.8167 224.947 26.45C224.514 27.0833 224.114 27.65 223.747 28.15C223.314 28.6833 223.014 29.15 222.847 29.55C222.681 29.9167 222.597 30.2167 222.597 30.45C222.597 30.7833 222.781 30.95 223.147 30.95C223.614 30.95 224.264 30.7 225.097 30.2C225.597 29.9 226.164 29.5 226.797 29C227.464 28.4667 228.114 27.9333 228.747 27.4C229.414 26.8333 229.947 26.3667 230.347 26C230.481 25.8667 230.597 25.8 230.697 25.8C230.831 25.8 230.897 25.8833 230.897 26.05C230.897 26.25 230.814 26.4333 230.647 26.6C229.647 27.5333 228.481 28.55 227.147 29.65C225.847 30.75 224.564 31.6 223.297 32.2C222.264 32.7 221.314 32.95 220.447 32.95C219.714 32.95 219.131 32.7667 218.697 32.4C218.264 32 218.047 31.4333 218.047 30.7C218.047 30.1667 218.181 29.5333 218.447 28.8C218.781 27.9 219.247 27 219.847 26.1C220.481 25.2 221.131 24.35 221.797 23.55C222.497 22.7167 223.097 22.0167 223.597 21.45C224.031 20.9833 224.247 20.5833 224.247 20.25C224.247 19.95 224.047 19.8 223.647 19.8C223.247 19.8 222.647 20.0333 221.847 20.5C221.081 20.9333 220.214 21.65 219.247 22.65C217.881 24.0833 216.681 25.6333 215.647 27.3C214.614 28.9667 213.431 30.5333 212.097 32C211.364 32.8333 210.647 33.25 209.947 33.25Z" fill="white"/>
</svg>
