<svg width="278" height="57" viewBox="0 0 278 57" fill="none" xmlns="http://www.w3.org/2000/svg">
<path d="M16.22 41.98C14.9 42.02 13.44 41.9 11.84 41.62C10.24 41.38 8.68 40.94 7.16 40.3C5.64 39.66 4.32 38.82 3.2 37.78C2.08 36.74 1.32 35.46 0.92 33.94C2.36 35.22 4.32 36.16 6.8 36.76C9.28 37.32 11.8 37.6 14.36 37.6C17.76 37.6 20.72 37.22 23.24 36.46C23.96 36.26 24.8 35.94 25.76 35.5C26.72 35.02 27.66 34.48 28.58 33.88C29.5 33.24 30.26 32.54 30.86 31.78C31.5 31.02 31.82 30.24 31.82 29.44C31.82 28.88 31.64 28.34 31.28 27.82C30.92 27.3 30.34 26.78 29.54 26.26C29.06 25.98 28.36 25.68 27.44 25.36C26.56 25 25.6 24.6 24.56 24.16C23.52 23.68 22.54 23.14 21.62 22.54C20.7 21.9 19.96 21.16 19.4 20.32C18.88 19.44 18.68 18.44 18.8 17.32C19 15.68 19.74 14.06 21.02 12.46C22.34 10.82 23.98 9.3 25.94 7.9C27.94 6.46 30.08 5.2 32.36 4.12C34.68 3.04 36.94 2.2 39.14 1.6C41.38 0.959998 43.36 0.639999 45.08 0.639999C46.84 0.639999 48.34 0.979998 49.58 1.66C50.86 2.34 51.4 3.5 51.2 5.14C51.12 5.86 50.62 6.72 49.7 7.72C48.82 8.72 47.76 9.82 46.52 11.02C45.28 12.22 44.04 13.48 42.8 14.8C41.6 16.12 40.6 17.46 39.8 18.82C39.04 20.18 38.7 21.5 38.78 22.78C38.14 22.26 37.66 21.68 37.34 21.04C37.06 20.4 36.92 19.74 36.92 19.06C36.92 18.1 37.12 17.12 37.52 16.12C37.92 15.12 38.42 14.18 39.02 13.3C39.62 12.38 40.18 11.6 40.7 10.96C41.62 9.84 42.66 8.78 43.82 7.78C44.98 6.78 46.16 5.86 47.36 5.02C47 4.5 46.38 4.24 45.5 4.24C44.58 4.24 43.54 4.44 42.38 4.84C41.26 5.24 40.2 5.68 39.2 6.16C38.24 6.6 37.56 6.94 37.16 7.18C35.44 8.1 33.7 9.14 31.94 10.3C30.22 11.46 28.62 12.64 27.14 13.84C25.7 15.04 24.52 16.16 23.6 17.2C22.72 18.2 22.24 19.04 22.16 19.72C22.08 20.56 22.44 21.28 23.24 21.88C24.04 22.44 25.08 22.96 26.36 23.44C27.64 23.92 28.9 24.48 30.14 25.12C31.82 25.96 33.04 26.92 33.8 28C34.56 29.08 34.94 30.2 34.94 31.36C34.94 32.8 34.4 34.22 33.32 35.62C32.24 36.98 30.78 38.12 28.94 39.04C27.3 39.84 25.58 40.46 23.78 40.9C22.02 41.34 20.44 41.62 19.04 41.74C17.68 41.9 16.74 41.98 16.22 41.98ZM29.0047 56.68C28.7247 56.28 28.4447 55.78 28.1647 55.18C27.8447 54.58 27.6847 53.76 27.6847 52.72C27.6847 51.88 27.9847 50.66 28.5847 49.06C29.1847 47.5 29.9847 45.72 30.9847 43.72C31.9447 41.72 33.0447 39.66 34.2847 37.54C35.4847 35.38 36.7047 33.34 37.9447 31.42C37.1847 32.18 36.4047 32.86 35.6047 33.46C35.4447 33.58 35.3247 33.64 35.2447 33.64C35.1247 33.64 35.0647 33.56 35.0647 33.4C35.0647 33.32 35.1247 33.18 35.2447 32.98C35.3247 32.78 35.4847 32.58 35.7247 32.38C36.5247 31.7 37.4847 30.78 38.6047 29.62C39.7247 28.42 40.8847 27.06 42.0847 25.54C43.0047 24.38 43.8047 23.36 44.4847 22.48C45.1647 21.56 45.7047 20.9 46.1047 20.5C46.5447 20.06 46.9447 19.72 47.3047 19.48C47.6647 19.24 48.0447 19.12 48.4447 19.12C48.8847 19.12 49.3847 19.24 49.9447 19.48C50.5447 19.68 51.1047 20.06 51.6247 20.62C51.1847 21.14 50.6047 21.88 49.8847 22.84C49.1647 23.8 48.4847 24.72 47.8447 25.6C48.7647 24.52 49.9847 23.56 51.5047 22.72C53.0247 21.88 54.4447 21.46 55.7647 21.46C56.9647 21.46 57.9247 21.84 58.6447 22.6C59.3647 23.36 59.7247 24.36 59.7247 25.6C59.7247 26.96 59.3447 28.46 58.5847 30.1C57.8247 31.7 56.8047 33.26 55.5247 34.78C53.9647 36.62 52.2247 38.12 50.3047 39.28C48.4247 40.44 46.7047 41.02 45.1447 41.02C44.0247 41.02 43.1447 40.7 42.5047 40.06C41.8647 39.42 41.5447 38.48 41.5447 37.24C41.5447 35.96 41.8247 34.58 42.3847 33.1C41.3047 34.46 40.1447 36.02 38.9047 37.78C37.7047 39.54 36.5247 41.34 35.3647 43.18C34.2047 45.02 33.1647 46.78 32.2447 48.46C31.2847 50.14 30.5247 51.62 29.9647 52.9C29.4047 54.18 29.1247 55.14 29.1247 55.78C29.1247 56.1 29.1647 56.3 29.2447 56.38C29.3647 56.54 29.3847 56.64 29.3047 56.68C29.1847 56.76 29.0847 56.76 29.0047 56.68ZM44.8447 40.36C46.0047 40.36 47.1447 40 48.2647 39.28C49.4247 38.52 50.4647 37.54 51.3847 36.34C52.3047 35.14 53.0447 33.86 53.6047 32.5C54.1647 31.14 54.4447 29.86 54.4447 28.66C54.4447 27.58 54.1847 26.74 53.6647 26.14C53.1847 25.54 52.5047 25.24 51.6247 25.24C50.5847 25.24 49.4047 25.7 48.0847 26.62C46.7647 27.5 45.5647 28.78 44.4847 30.46C43.6847 31.62 43.1047 32.8 42.7447 34C42.4247 35.16 42.2647 36.2 42.2647 37.12C42.2647 38.28 42.5047 39.12 42.9847 39.64C43.4647 40.12 44.0847 40.36 44.8447 40.36ZM62.8667 40.06C61.6267 40.06 60.6667 39.68 59.9867 38.92C59.3067 38.12 58.9667 37.1 58.9667 35.86C58.9667 34.7 59.2667 33.42 59.8667 32.02C60.5067 30.62 61.5067 29.2 62.8667 27.76C64.2667 26.24 66.0067 25.02 68.0867 24.1C70.1667 23.14 72.1467 22.66 74.0267 22.66C75.5467 22.66 76.8467 23 77.9267 23.68C79.0067 24.32 79.7267 25.14 80.0867 26.14C80.5267 26.14 81.0667 26.26 81.7067 26.5C82.3867 26.74 82.7267 27.18 82.7267 27.82C82.7267 28.26 82.5067 28.76 82.0667 29.32C81.7867 29.72 81.2867 30.32 80.5667 31.12C79.8867 31.92 79.2467 32.78 78.6467 33.7C78.1667 34.42 77.7867 35.1 77.5067 35.74C77.2267 36.34 77.0867 36.86 77.0867 37.3C77.0867 37.9 77.3867 38.2 77.9867 38.2C78.6667 38.2 79.6867 37.82 81.0467 37.06C82.5267 36.22 83.9467 35.26 85.3067 34.18C86.6667 33.1 87.7267 32.24 88.4867 31.6C88.6867 31.44 88.8267 31.36 88.9067 31.36C89.0667 31.36 89.1467 31.46 89.1467 31.66C89.1467 31.9 89.0467 32.12 88.8467 32.32C88.4867 32.64 87.7867 33.24 86.7467 34.12C85.7067 35 84.5067 35.92 83.1467 36.88C81.8267 37.84 80.5267 38.62 79.2467 39.22C78.6067 39.5 78.0067 39.72 77.4467 39.88C76.9267 40 76.4467 40.06 76.0067 40.06C74.9267 40.06 74.1067 39.76 73.5467 39.16C72.9867 38.52 72.7067 37.7 72.7067 36.7C72.7067 36.3 72.7667 35.88 72.8867 35.44C73.0067 35 73.1467 34.56 73.3067 34.12L73.7267 33.1C72.6867 34.38 71.6467 35.46 70.6067 36.34C69.5667 37.18 68.5267 37.92 67.4867 38.56C66.6067 39.08 65.7667 39.46 64.9667 39.7C64.2067 39.94 63.5067 40.06 62.8667 40.06ZM64.7267 38.5C65.4467 38.5 66.4867 38.08 67.8467 37.24C69.2067 36.36 70.7867 35.02 72.5867 33.22C72.8267 32.98 73.2667 32.56 73.9067 31.96C74.5867 31.32 75.3067 30.62 76.0667 29.86C76.8267 29.06 77.4667 28.28 77.9867 27.52C78.5467 26.72 78.8267 26.06 78.8267 25.54C78.8267 24.78 78.1667 24.4 76.8467 24.4C75.6867 24.4 74.2867 24.86 72.6467 25.78C71.0467 26.66 69.5067 27.98 68.0267 29.74C66.5067 31.54 65.3867 33.1 64.6667 34.42C63.9867 35.7 63.6467 36.68 63.6467 37.36C63.6467 38.12 64.0067 38.5 64.7267 38.5ZM110.758 17.56C110.518 17.56 110.318 17.48 110.158 17.32C109.438 16.84 108.838 16.18 108.358 15.34C107.918 14.46 107.698 13.52 107.698 12.52C107.698 11.52 107.978 10.52 108.538 9.52C109.098 8.52 110.038 7.64 111.358 6.88C113.478 5.64 115.938 4.6 118.738 3.76C121.578 2.88 124.478 2.2 127.438 1.72C130.438 1.24 133.258 0.999998 135.898 0.999998C136.938 0.999998 138.158 1.1 139.558 1.3C140.998 1.5 142.378 1.86 143.698 2.38C145.058 2.9 146.178 3.62 147.058 4.54C147.938 5.42 148.378 6.56 148.378 7.96C148.378 8.12 148.378 8.28 148.378 8.44C148.378 8.56 148.358 8.7 148.318 8.86C148.318 9.22 148.218 9.4 148.018 9.4C147.898 9.4 147.838 9.3 147.838 9.1C147.838 8.98 147.838 8.86 147.838 8.74C147.878 8.62 147.898 8.5 147.898 8.38C147.898 7.22 147.018 6.38 145.258 5.86C143.538 5.34 141.358 5.08 138.718 5.08C136.438 5.08 133.958 5.26 131.278 5.62C128.598 5.94 125.938 6.4 123.298 7C120.698 7.6 118.318 8.3 116.158 9.1C113.998 9.86 112.258 10.72 110.938 11.68C109.658 12.6 109.018 13.56 109.018 14.56C109.018 15.48 109.658 16.38 110.938 17.26C111.018 17.3 111.058 17.36 111.058 17.44C111.058 17.52 110.958 17.56 110.758 17.56ZM115.738 48.64C115.538 48.64 115.438 48.42 115.438 47.98C115.438 47.58 115.558 47.02 115.798 46.3C116.078 45.54 116.478 44.6 116.998 43.48C117.558 42.36 118.218 41.1 118.978 39.7C117.978 39.78 117.018 39.9 116.098 40.06C115.178 40.26 114.298 40.48 113.458 40.72C112.498 40.96 111.478 41.3 110.398 41.74C109.358 42.22 108.338 42.64 107.338 43C106.378 43.4 105.538 43.6 104.818 43.6C104.298 43.6 103.918 43.5 103.678 43.3C103.398 43.1 103.258 42.66 103.258 41.98C103.258 41.38 103.478 40.68 103.918 39.88C104.398 39.04 105.238 38.22 106.438 37.42C107.678 36.62 109.458 35.94 111.778 35.38C112.658 35.14 113.718 34.96 114.958 34.84C116.238 34.72 117.618 34.66 119.098 34.66C119.538 34.66 119.978 34.66 120.418 34.66C120.898 34.66 121.358 34.68 121.798 34.72C123.238 32.24 124.778 29.68 126.418 27.04C128.098 24.36 129.758 21.76 131.398 19.24C133.038 16.72 134.538 14.46 135.898 12.46C137.298 10.42 138.438 8.82 139.318 7.66C140.238 6.46 140.798 5.86 140.998 5.86H141.538C141.898 5.86 142.078 5.98 142.078 6.22C142.078 6.46 141.858 6.86 141.418 7.42C139.618 9.78 137.658 12.5 135.538 15.58C133.418 18.66 131.298 21.86 129.178 25.18C127.058 28.5 125.078 31.72 123.238 34.84C125.518 35.04 127.678 35.48 129.718 36.16C131.758 36.8 133.418 37.72 134.698 38.92C136.018 40.12 136.678 41.66 136.678 43.54C136.678 44.62 136.518 45.16 136.198 45.16C135.998 45.16 135.938 44.96 136.018 44.56C136.258 43.52 135.758 42.62 134.518 41.86C133.278 41.14 131.598 40.58 129.478 40.18C127.358 39.78 125.078 39.58 122.638 39.58C122.278 39.58 121.918 39.58 121.558 39.58C121.198 39.58 120.838 39.6 120.478 39.64C119.598 41.24 118.778 42.74 118.018 44.14C117.298 45.58 116.718 46.86 116.278 47.98C116.078 48.42 115.898 48.64 115.738 48.64ZM146.216 40.06C144.496 40.06 143.336 39.74 142.736 39.1C142.136 38.42 141.836 37.68 141.836 36.88C141.836 35.84 142.236 34.74 143.036 33.58C143.516 32.9 144.056 32.14 144.656 31.3C145.256 30.42 145.816 29.6 146.336 28.84C146.856 28.08 147.216 27.54 147.416 27.22C147.696 26.82 147.856 26.56 147.896 26.44C147.976 26.28 148.016 26.12 148.016 25.96C148.016 25.72 147.856 25.5 147.536 25.3C147.256 25.06 146.776 24.94 146.096 24.94C145.896 24.94 145.716 24.96 145.556 25C145.436 25 145.296 25 145.136 25C144.816 25 144.636 24.98 144.596 24.94L144.416 25.18C143.296 26.66 142.096 28.12 140.816 29.56C139.536 30.96 138.136 32.26 136.616 33.46C136.456 33.58 136.336 33.64 136.256 33.64C136.096 33.64 136.016 33.56 136.016 33.4C136.016 33.08 136.256 32.72 136.736 32.32C137.976 31.28 139.196 30.12 140.396 28.84C141.596 27.52 142.676 26.14 143.636 24.7C143.276 24.46 143.096 23.98 143.096 23.26C143.096 22.18 143.436 21.02 144.116 19.78C144.596 18.94 145.116 18.32 145.676 17.92C146.276 17.48 146.796 17.26 147.236 17.26C148.076 17.26 148.496 17.76 148.496 18.76C148.496 19.4 148.256 20.2 147.776 21.16C147.576 21.64 147.176 22.26 146.576 23.02C146.016 23.74 145.456 24.26 144.896 24.58C145.736 24.3 146.796 24.12 148.076 24.04C149.396 23.92 150.496 23.86 151.376 23.86C151.896 23.86 152.536 24.02 153.296 24.34C154.056 24.62 154.436 25.14 154.436 25.9C154.436 26.42 154.196 26.98 153.716 27.58C153.596 27.74 153.276 28.12 152.756 28.72C152.236 29.32 151.656 30.04 151.016 30.88C150.416 31.72 149.856 32.56 149.336 33.4C148.816 34.16 148.396 34.86 148.076 35.5C147.796 36.14 147.656 36.68 147.656 37.12C147.656 37.76 148.016 38.08 148.736 38.08C149.576 38.08 150.696 37.68 152.096 36.88C153.496 36.08 154.996 35.06 156.596 33.82C158.236 32.54 159.736 31.22 161.096 29.86C161.256 29.7 161.396 29.62 161.516 29.62C161.676 29.62 161.756 29.72 161.756 29.92C161.756 30.16 161.656 30.38 161.456 30.58C160.056 31.98 158.496 33.42 156.776 34.9C155.096 36.34 153.336 37.56 151.496 38.56C149.696 39.56 147.936 40.06 146.216 40.06ZM161.535 40.06C160.295 40.06 159.335 39.68 158.655 38.92C157.975 38.12 157.635 37.1 157.635 35.86C157.635 34.7 157.935 33.42 158.535 32.02C159.175 30.62 160.175 29.2 161.535 27.76C162.935 26.24 164.675 25.02 166.755 24.1C168.835 23.14 170.815 22.66 172.695 22.66C174.215 22.66 175.515 23 176.595 23.68C177.675 24.32 178.395 25.14 178.755 26.14C179.195 26.14 179.735 26.26 180.375 26.5C181.055 26.74 181.395 27.18 181.395 27.82C181.395 28.26 181.175 28.76 180.735 29.32C180.455 29.72 179.955 30.32 179.235 31.12C178.555 31.92 177.915 32.78 177.315 33.7C176.835 34.42 176.455 35.1 176.175 35.74C175.895 36.34 175.755 36.86 175.755 37.3C175.755 37.9 176.055 38.2 176.655 38.2C177.335 38.2 178.355 37.82 179.715 37.06C181.195 36.22 182.615 35.26 183.975 34.18C185.335 33.1 186.395 32.24 187.155 31.6C187.355 31.44 187.495 31.36 187.575 31.36C187.735 31.36 187.815 31.46 187.815 31.66C187.815 31.9 187.715 32.12 187.515 32.32C187.155 32.64 186.455 33.24 185.415 34.12C184.375 35 183.175 35.92 181.815 36.88C180.495 37.84 179.195 38.62 177.915 39.22C177.275 39.5 176.675 39.72 176.115 39.88C175.595 40 175.115 40.06 174.675 40.06C173.595 40.06 172.775 39.76 172.215 39.16C171.655 38.52 171.375 37.7 171.375 36.7C171.375 36.3 171.435 35.88 171.555 35.44C171.675 35 171.815 34.56 171.975 34.12L172.395 33.1C171.355 34.38 170.315 35.46 169.275 36.34C168.235 37.18 167.195 37.92 166.155 38.56C165.275 39.08 164.435 39.46 163.635 39.7C162.875 39.94 162.175 40.06 161.535 40.06ZM163.395 38.5C164.115 38.5 165.155 38.08 166.515 37.24C167.875 36.36 169.455 35.02 171.255 33.22C171.495 32.98 171.935 32.56 172.575 31.96C173.255 31.32 173.975 30.62 174.735 29.86C175.495 29.06 176.135 28.28 176.655 27.52C177.215 26.72 177.495 26.06 177.495 25.54C177.495 24.78 176.835 24.4 175.515 24.4C174.355 24.4 172.955 24.86 171.315 25.78C169.715 26.66 168.175 27.98 166.695 29.74C165.175 31.54 164.055 33.1 163.335 34.42C162.655 35.7 162.315 36.68 162.315 37.36C162.315 38.12 162.675 38.5 163.395 38.5ZM185.81 40.3C185.41 40.3 184.93 40.2 184.37 40C183.81 39.84 183.25 39.52 182.69 39.04C183.13 38.44 183.77 37.64 184.61 36.64C185.41 35.6 186.27 34.46 187.19 33.22C188.11 31.98 188.97 30.74 189.77 29.5C189.13 30.14 188.43 30.82 187.67 31.54C186.91 32.26 186.15 32.92 185.39 33.52C185.23 33.68 185.05 33.76 184.85 33.76C184.69 33.76 184.61 33.68 184.61 33.52C184.61 33.32 184.77 33.08 185.09 32.8C186.21 31.8 187.45 30.66 188.81 29.38C190.21 28.06 191.23 26.72 191.87 25.36C192.07 24.88 192.17 24.44 192.17 24.04C192.17 23.52 192.07 23.2 191.87 23.08C191.71 22.96 191.63 22.8 191.63 22.6C191.63 22.24 191.81 22.06 192.17 22.06C192.37 22.06 192.53 22.1 192.65 22.18C193.09 22.38 193.51 22.76 193.91 23.32C194.31 23.88 194.51 24.72 194.51 25.84C194.51 26.48 194.43 27.22 194.27 28.06C194.11 28.86 193.83 29.78 193.43 30.82C194.03 30.02 194.63 29.24 195.23 28.48C195.87 27.72 196.45 27.04 196.97 26.44C198.05 25.2 199.13 24.32 200.21 23.8C201.33 23.24 202.33 22.96 203.21 22.96C204.25 22.96 205.09 23.26 205.73 23.86C206.37 24.46 206.69 25.24 206.69 26.2C206.69 26.96 206.49 27.74 206.09 28.54C205.97 28.86 205.69 29.36 205.25 30.04C204.81 30.68 204.33 31.38 203.81 32.14C203.29 32.9 202.81 33.58 202.37 34.18C201.85 34.82 201.49 35.38 201.29 35.86C201.09 36.3 200.99 36.66 200.99 36.94C200.99 37.34 201.21 37.54 201.65 37.54C202.21 37.54 202.99 37.24 203.99 36.64C204.59 36.28 205.27 35.8 206.03 35.2C206.83 34.56 207.61 33.92 208.37 33.28C209.17 32.6 209.81 32.04 210.29 31.6C210.45 31.44 210.59 31.36 210.71 31.36C210.87 31.36 210.95 31.46 210.95 31.66C210.95 31.9 210.85 32.12 210.65 32.32C209.45 33.44 208.05 34.66 206.45 35.98C204.89 37.3 203.35 38.32 201.83 39.04C200.59 39.64 199.45 39.94 198.41 39.94C197.53 39.94 196.83 39.72 196.31 39.28C195.79 38.8 195.53 38.12 195.53 37.24C195.53 36.6 195.69 35.84 196.01 34.96C196.41 33.88 196.97 32.8 197.69 31.72C198.45 30.64 199.23 29.62 200.03 28.66C200.87 27.66 201.59 26.82 202.19 26.14C202.71 25.58 202.97 25.1 202.97 24.7C202.97 24.34 202.73 24.16 202.25 24.16C201.77 24.16 201.05 24.44 200.09 25C199.17 25.52 198.13 26.38 196.97 27.58C195.33 29.3 193.89 31.16 192.65 33.16C191.41 35.16 189.99 37.04 188.39 38.8C187.51 39.8 186.65 40.3 185.81 40.3ZM222.678 21.64C222.118 21.64 221.698 21.46 221.418 21.1C221.138 20.74 220.998 20.36 220.998 19.96C220.998 19.16 221.378 18.38 222.138 17.62C222.898 16.82 223.698 16.42 224.538 16.42C225.098 16.42 225.518 16.6 225.798 16.96C226.078 17.32 226.218 17.7 226.218 18.1C226.218 18.94 225.838 19.74 225.078 20.5C224.358 21.26 223.558 21.64 222.678 21.64ZM213.498 40.06C211.858 40.06 210.738 39.72 210.138 39.04C209.578 38.32 209.298 37.52 209.298 36.64C209.298 35.92 209.418 35.24 209.658 34.6C209.898 33.92 210.098 33.44 210.258 33.16C210.498 32.76 210.818 32.3 211.218 31.78C211.658 31.26 212.138 30.7 212.658 30.1C211.858 30.78 211.098 31.44 210.378 32.08C209.698 32.72 209.138 33.2 208.698 33.52C208.578 33.64 208.458 33.7 208.338 33.7C208.178 33.7 208.098 33.6 208.098 33.4C208.098 33.08 208.318 32.76 208.758 32.44C209.798 31.56 210.798 30.6 211.758 29.56C212.758 28.52 213.698 27.56 214.578 26.68C215.458 25.76 216.238 25.12 216.918 24.76C217.638 24.36 218.218 24.1 218.658 23.98C219.098 23.86 219.458 23.8 219.738 23.8C220.178 23.8 220.498 23.88 220.698 24.04C220.898 24.16 220.938 24.3 220.818 24.46C220.138 25.14 219.458 26.02 218.778 27.1C218.138 28.14 217.538 29.24 216.978 30.4C216.418 31.56 215.958 32.66 215.598 33.7C215.278 34.74 215.118 35.62 215.118 36.34C215.118 37.34 215.518 37.84 216.318 37.84C217.078 37.84 218.058 37.5 219.258 36.82C220.498 36.1 221.778 35.2 223.098 34.12C224.458 33.04 225.718 31.98 226.878 30.94C227.038 30.78 227.178 30.7 227.298 30.7C227.498 30.7 227.598 30.8 227.598 31C227.638 31.2 227.598 31.34 227.478 31.42C226.158 32.66 224.658 33.96 222.978 35.32C221.338 36.64 219.678 37.76 217.998 38.68C216.358 39.6 214.858 40.06 213.498 40.06ZM228.462 40.06C227.222 40.06 226.262 39.68 225.582 38.92C224.902 38.12 224.562 37.1 224.562 35.86C224.562 34.7 224.862 33.42 225.462 32.02C226.102 30.62 227.102 29.2 228.462 27.76C229.862 26.24 231.602 25.02 233.682 24.1C235.762 23.14 237.742 22.66 239.622 22.66C241.142 22.66 242.442 23 243.522 23.68C244.602 24.32 245.322 25.14 245.682 26.14C246.122 26.14 246.662 26.26 247.302 26.5C247.982 26.74 248.322 27.18 248.322 27.82C248.322 28.26 248.102 28.76 247.662 29.32C247.382 29.72 246.882 30.32 246.162 31.12C245.482 31.92 244.842 32.78 244.242 33.7C243.762 34.42 243.382 35.1 243.102 35.74C242.822 36.34 242.682 36.86 242.682 37.3C242.682 37.9 242.982 38.2 243.582 38.2C244.262 38.2 245.282 37.82 246.642 37.06C248.122 36.22 249.542 35.26 250.902 34.18C252.262 33.1 253.322 32.24 254.082 31.6C254.282 31.44 254.422 31.36 254.502 31.36C254.662 31.36 254.742 31.46 254.742 31.66C254.742 31.9 254.642 32.12 254.442 32.32C254.082 32.64 253.382 33.24 252.342 34.12C251.302 35 250.102 35.92 248.742 36.88C247.422 37.84 246.122 38.62 244.842 39.22C244.202 39.5 243.602 39.72 243.042 39.88C242.522 40 242.042 40.06 241.602 40.06C240.522 40.06 239.702 39.76 239.142 39.16C238.582 38.52 238.302 37.7 238.302 36.7C238.302 36.3 238.362 35.88 238.482 35.44C238.602 35 238.742 34.56 238.902 34.12L239.322 33.1C238.282 34.38 237.242 35.46 236.202 36.34C235.162 37.18 234.122 37.92 233.082 38.56C232.202 39.08 231.362 39.46 230.562 39.7C229.802 39.94 229.102 40.06 228.462 40.06ZM230.322 38.5C231.042 38.5 232.082 38.08 233.442 37.24C234.802 36.36 236.382 35.02 238.182 33.22C238.422 32.98 238.862 32.56 239.502 31.96C240.182 31.32 240.902 30.62 241.662 29.86C242.422 29.06 243.062 28.28 243.582 27.52C244.142 26.72 244.422 26.06 244.422 25.54C244.422 24.78 243.762 24.4 242.442 24.4C241.282 24.4 239.882 24.86 238.242 25.78C236.642 26.66 235.102 27.98 233.622 29.74C232.102 31.54 230.982 33.1 230.262 34.42C229.582 35.7 229.242 36.68 229.242 37.36C229.242 38.12 229.602 38.5 230.322 38.5ZM252.737 40.3C252.337 40.3 251.857 40.2 251.297 40C250.737 39.84 250.177 39.52 249.617 39.04C250.057 38.44 250.697 37.64 251.537 36.64C252.337 35.6 253.197 34.46 254.117 33.22C255.037 31.98 255.897 30.74 256.697 29.5C256.057 30.14 255.357 30.82 254.597 31.54C253.837 32.26 253.077 32.92 252.317 33.52C252.157 33.68 251.977 33.76 251.777 33.76C251.617 33.76 251.537 33.68 251.537 33.52C251.537 33.32 251.697 33.08 252.017 32.8C253.137 31.8 254.377 30.66 255.737 29.38C257.137 28.06 258.157 26.72 258.797 25.36C258.997 24.88 259.097 24.44 259.097 24.04C259.097 23.52 258.997 23.2 258.797 23.08C258.637 22.96 258.557 22.8 258.557 22.6C258.557 22.24 258.737 22.06 259.097 22.06C259.297 22.06 259.457 22.1 259.577 22.18C260.017 22.38 260.437 22.76 260.837 23.32C261.237 23.88 261.437 24.72 261.437 25.84C261.437 26.48 261.357 27.22 261.197 28.06C261.037 28.86 260.757 29.78 260.357 30.82C260.957 30.02 261.557 29.24 262.157 28.48C262.797 27.72 263.377 27.04 263.897 26.44C264.977 25.2 266.057 24.32 267.137 23.8C268.257 23.24 269.257 22.96 270.137 22.96C271.177 22.96 272.017 23.26 272.657 23.86C273.297 24.46 273.617 25.24 273.617 26.2C273.617 26.96 273.417 27.74 273.017 28.54C272.897 28.86 272.617 29.36 272.177 30.04C271.737 30.68 271.257 31.38 270.737 32.14C270.217 32.9 269.737 33.58 269.297 34.18C268.777 34.82 268.417 35.38 268.217 35.86C268.017 36.3 267.917 36.66 267.917 36.94C267.917 37.34 268.137 37.54 268.577 37.54C269.137 37.54 269.917 37.24 270.917 36.64C271.517 36.28 272.197 35.8 272.957 35.2C273.757 34.56 274.537 33.92 275.297 33.28C276.097 32.6 276.737 32.04 277.217 31.6C277.377 31.44 277.517 31.36 277.637 31.36C277.797 31.36 277.877 31.46 277.877 31.66C277.877 31.9 277.777 32.12 277.577 32.32C276.377 33.44 274.977 34.66 273.377 35.98C271.817 37.3 270.277 38.32 268.757 39.04C267.517 39.64 266.377 39.94 265.337 39.94C264.457 39.94 263.757 39.72 263.237 39.28C262.717 38.8 262.457 38.12 262.457 37.24C262.457 36.6 262.617 35.84 262.937 34.96C263.337 33.88 263.897 32.8 264.617 31.72C265.377 30.64 266.157 29.62 266.957 28.66C267.797 27.66 268.517 26.82 269.117 26.14C269.637 25.58 269.897 25.1 269.897 24.7C269.897 24.34 269.657 24.16 269.177 24.16C268.697 24.16 267.977 24.44 267.017 25C266.097 25.52 265.057 26.38 263.897 27.58C262.257 29.3 260.817 31.16 259.577 33.16C258.337 35.16 256.917 37.04 255.317 38.8C254.437 39.8 253.577 40.3 252.737 40.3Z" fill="#252E60"/>
</svg>
