<svg width="18" height="16" viewBox="0 0 18 16" fill="none" xmlns="http://www.w3.org/2000/svg">
<g opacity="0.5">
<path d="M13.3887 15.3556C11.2525 15.5416 10.1604 14.0835 9.91435 12.1693C9.49431 8.86294 10.1064 5.7066 11.8526 2.8323C13.1007 0.786083 15.0689 0.0180019 17.3971 0C17.7272 0 17.8232 0.126013 17.9132 0.438046C18.0992 1.09812 17.9372 1.72818 17.8772 2.37025C17.8472 2.67028 17.5952 2.74229 17.3431 2.74829C15.0869 2.8083 13.8208 4.86051 13.9408 7.05074C13.9768 7.70481 14.3848 8.20887 14.9969 8.25087C17.6012 8.42489 17.8652 10.4891 17.4992 12.2893C17.0371 14.5575 15.909 15.3496 13.4007 15.3556H13.3887Z" fill="#9BA8F1"/>
<path d="M3.60173 15.3556C1.46551 15.5416 0.37339 14.0835 0.127364 12.1693C-0.29268 8.86294 0.319385 5.7066 2.06557 2.8323C3.3137 0.786083 5.27591 0.0180019 7.60415 0C7.93419 0 8.0302 0.126013 8.12021 0.438046C8.30623 1.09812 8.14421 1.72818 8.0842 2.37025C8.0542 2.67028 7.80218 2.74229 7.55015 2.74829C5.29391 2.8083 4.02778 4.86051 4.14779 7.05074C4.18379 7.70481 4.59184 8.20887 5.2039 8.25087C7.80818 8.42489 8.0722 10.4891 7.70616 12.2893C7.24412 14.5575 6.116 15.3496 3.60773 15.3556H3.60173Z" fill="#9BA8F1"/>
</g>
</svg>
