<svg width="22" height="21" viewBox="0 0 22 21" fill="none" xmlns="http://www.w3.org/2000/svg">
<path d="M10.2118 1.07692C10.503 0.138839 11.8307 0.138839 12.1219 1.07692L13.8009 6.48619C13.9322 6.90925 14.3262 7.19551 14.7691 7.18966L20.4325 7.11493C21.4146 7.10197 21.8249 8.36474 21.0227 8.93154L16.3971 12.1999C16.0353 12.4555 15.8848 12.9187 16.0272 13.3382L17.8484 18.7012C18.1642 19.6313 17.09 20.4118 16.3031 19.824L11.7652 16.4347C11.4103 16.1696 10.9233 16.1696 10.5684 16.4347L6.0306 19.824C5.24364 20.4118 4.16946 19.6313 4.48529 18.7012L6.30644 13.3382C6.44888 12.9187 6.29838 12.4555 5.93661 12.1999L1.31092 8.93154C0.508731 8.36474 0.919031 7.10197 1.90117 7.11493L7.56454 7.18966C8.00747 7.19551 8.40147 6.90925 8.53278 6.48619L10.2118 1.07692Z" fill="white"/>
</svg>
