<svg width="32" height="32" viewBox="0 0 32 32" fill="none" xmlns="http://www.w3.org/2000/svg">
<path d="M29.4129 7.2744C29.3661 7.2033 29.3193 7.13221 29.2724 7.06195C29.2707 7.0586 29.2682 7.05442 29.2649 7.05107C28.6903 6.20127 28.0362 5.40917 27.3135 4.6865C27.2918 4.66391 27.2683 4.64133 27.2458 4.61958C27.0057 4.38204 26.759 4.15286 26.5038 3.9312C26.493 3.92117 26.4821 3.91113 26.4704 3.90193C26.2772 3.73381 26.0798 3.5707 25.8782 3.41262C25.8682 3.40426 25.8581 3.39673 25.8481 3.3892C25.6657 3.24701 25.4809 3.10816 25.2927 2.9735C25.2827 2.96597 25.2726 2.95844 25.2626 2.95175C24.5307 2.43149 23.7528 1.97062 22.9365 1.5775C22.9306 1.57415 22.9256 1.57248 22.9206 1.56997C22.6513 1.44116 22.3778 1.31904 22.1009 1.20445C21.8107 1.08484 21.5171 0.9736 21.2185 0.87072C20.515 0.62732 19.789 0.432432 19.0446 0.289404C18.654 0.214125 18.2584 0.153066 17.8577 0.107063H17.8569C17.4679 0.0618955 17.074 0.0309478 16.6767 0.0142192C16.4525 0.00501856 16.2267 0 16 0C15.7926 0 15.5868 0.00418213 15.3819 0.01171C15.3802 0.0108735 15.3794 0.0108735 15.3777 0.01171C14.456 0.0468399 13.5543 0.160594 12.6794 0.345444C12.676 0.346281 12.6727 0.346281 12.6702 0.347117C10.9513 0.710962 9.33535 1.34999 7.8691 2.21737C7.85906 2.22238 7.84903 2.22908 7.83982 2.23493C7.07449 2.68911 6.35099 3.20519 5.67515 3.7773C5.67264 3.77897 5.67097 3.78065 5.6693 3.78232C2.20147 6.71734 0 11.1019 0 16C0 24.8368 7.16316 32 16 32C24.8368 32 32 24.8368 32 16C32 12.7806 31.049 9.78368 29.4129 7.2744ZM22.7968 20.9776C22.6529 21.4184 22.2063 21.6735 21.7814 21.7253C21.2954 21.7839 21.0278 21.456 20.7024 21.2218C20.4163 21.0161 20.142 20.7936 19.8693 20.5702C19.6058 20.3544 19.3566 20.1211 19.0914 19.9078C18.8388 19.7054 18.5703 19.5239 18.3152 19.324C18.0551 19.1199 17.805 18.9007 17.5466 18.6933C17.2873 18.4859 17.0221 18.2851 16.7611 18.0802C16.5328 17.9004 16.3045 17.7214 16.0795 17.539C15.831 17.3374 15.5868 17.1317 15.3392 16.9293C15.013 16.6641 14.8817 16.3346 14.8876 15.9038C14.9076 14.4125 14.8959 12.9211 14.8959 11.4289C14.8959 9.93675 14.9093 8.42532 14.8892 6.9231C14.8809 6.32255 15.2238 5.90684 15.6571 5.77051C16.148 5.61577 16.7436 5.84829 17.0104 6.34011C17.1158 6.53416 17.1543 6.78676 17.1551 7.0126C17.1643 9.73517 17.161 12.4577 17.1601 15.1803C17.1601 15.3685 17.1802 15.5057 17.3659 15.6487C18.521 16.542 19.6577 17.4596 20.7952 18.3746C21.3857 18.8497 21.9746 19.3256 22.5475 19.82C22.908 20.1319 22.934 20.5585 22.7968 20.9776Z" fill="#FA6E6E"/>
</svg>
