<svg width="475" height="456" viewBox="0 0 475 456" fill="none" xmlns="http://www.w3.org/2000/svg">
<mask id="mask0_131_1985" style="mask-type:alpha" maskUnits="userSpaceOnUse" x="0" y="0" width="475" height="456">
<rect width="475" height="456" rx="25" fill="url(#paint0_linear_131_1985)"/>
</mask>
<g mask="url(#mask0_131_1985)">
<rect width="475" height="456" rx="25" fill="url(#paint1_linear_131_1985)"/>
<path opacity="0.7" d="M87.5 -161V393M87.5 393L249 231.417M87.5 393L-74 231.417" stroke="#ACFCD5" stroke-width="73" stroke-linecap="round" stroke-linejoin="round"/>
<path opacity="0.5" d="M349.691 228.777L349.692 228.778C356.723 250.367 350.333 272.536 332.976 286.757L332.968 286.763C321.884 296.22 307.382 301.5 292.235 301.5H180.687C151.536 299.505 138.5 278.571 138.5 259.941C138.5 258.935 138.5 257.954 138.605 256.878L138.605 256.878L138.606 256.866C139.774 241.099 150.28 224.539 171.538 219.674L172.045 219.558L171.909 219.056C165.611 195.826 170.95 174.035 187.146 158.213L187.146 158.213C205.607 140.174 235.084 132.988 260.496 140.367L260.498 140.368C283.849 147.04 300.278 164.958 306.151 189.89L306.223 190.198L306.533 190.265C318.155 192.754 328.488 198.428 336.261 206.681L336.266 206.687L336.271 206.692C342.34 212.758 346.921 220.218 349.691 228.777Z" stroke="white"/>
<path opacity="0.5" d="M359.691 238.777L359.692 238.778C366.723 260.367 360.333 282.536 342.976 296.757L342.968 296.763C331.884 306.22 317.382 311.5 302.235 311.5H190.687C161.536 309.505 148.5 288.571 148.5 269.941C148.5 268.935 148.5 267.954 148.605 266.878L148.605 266.878L148.606 266.866C149.774 251.099 160.28 234.539 181.538 229.674L182.045 229.558L181.909 229.056C175.611 205.826 180.95 184.035 197.146 168.213L197.146 168.213C215.607 150.174 245.084 142.988 270.496 150.367L270.498 150.368C293.849 157.04 310.278 174.958 316.151 199.89L316.223 200.198L316.533 200.265C328.155 202.754 338.488 208.428 346.261 216.681L346.266 216.687L346.271 216.692C352.34 222.758 356.921 230.218 359.691 238.777Z" stroke="white"/>
<g filter="url(#filter0_i_131_1985)">
<path d="M342.167 218.623C339.373 209.99 334.751 202.462 328.625 196.339C320.778 188.007 310.353 182.285 298.637 179.776C292.726 154.681 276.174 136.613 252.636 129.887C227.055 122.459 197.39 129.686 178.796 147.855C162.459 163.815 157.085 185.799 163.427 209.187C141.93 214.106 131.29 230.869 130.107 246.829C130 247.933 130 248.937 130 249.941C130 268.812 143.22 289.992 172.67 292H284.235C299.497 292 314.115 286.68 325.293 277.144C342.812 262.79 349.261 240.405 342.167 218.623Z" fill="#3ECE8F"/>
</g>
<path d="M341.691 218.777L341.692 218.778C348.723 240.367 342.333 262.536 324.976 276.757L324.968 276.763C313.884 286.22 299.382 291.5 284.235 291.5H172.687C143.536 289.505 130.5 268.571 130.5 249.941C130.5 248.935 130.5 247.954 130.605 246.878L130.605 246.878L130.606 246.866C131.774 231.099 142.28 214.539 163.538 209.674L164.045 209.558L163.909 209.056C157.611 185.826 162.95 164.035 179.146 148.213L179.146 148.213C197.607 130.174 227.084 122.988 252.496 130.367L252.498 130.368C275.849 137.04 292.278 154.958 298.151 179.89L298.223 180.198L298.533 180.265C310.155 182.754 320.488 188.428 328.261 196.681L328.266 196.687L328.271 196.692C334.34 202.758 338.921 210.218 341.691 218.777Z" stroke="white"/>
<path opacity="0.7" d="M120.839 346.362C122.928 350.851 122.118 356.343 120.115 362.422C119.118 365.45 117.836 368.593 116.5 371.796C116.318 372.231 116.135 372.668 115.952 373.105C114.791 375.88 113.615 378.691 112.583 381.483C111.386 384.72 110.389 387.932 109.466 390.971C109.348 391.36 109.231 391.746 109.115 392.129C108.324 394.741 107.578 397.201 106.792 399.429C105.89 401.985 104.942 404.207 103.829 405.975C102.718 407.74 101.458 409.023 99.9425 409.744C96.9269 411.148 92.6373 410.404 87.5445 407.934C82.481 405.478 76.7567 401.378 70.9683 396.309C65.1783 391.237 59.3373 385.276 55.2171 379.049C51.091 372.813 48.7379 366.382 49.7914 360.341C50.8462 354.294 55.3095 348.553 61.612 343.958C67.9051 339.37 75.9725 335.97 84.1146 334.581C92.2268 333.236 100.372 333.91 107.016 336.071C113.677 338.236 118.746 341.865 120.839 346.362Z" stroke="#52CE93" stroke-opacity="0.5"/>
<path opacity="0.7" d="M127.855 350.155C129.944 354.644 129.134 360.136 127.132 366.215C126.134 369.243 124.852 372.386 123.516 375.589C123.334 376.025 123.151 376.461 122.968 376.899C121.808 379.673 120.632 382.484 119.599 385.277C118.402 388.513 117.405 391.726 116.482 394.764C116.364 395.153 116.247 395.54 116.131 395.922C115.34 398.534 114.594 400.995 113.808 403.223C112.906 405.779 111.959 408.001 110.845 409.768C109.734 411.534 108.474 412.817 106.959 413.538C103.943 414.941 99.6534 414.198 94.5606 411.727C89.4971 409.271 83.7728 405.172 77.9844 400.102C72.1944 395.031 66.3534 389.07 62.2332 382.843C58.1071 376.607 55.754 370.176 56.8076 364.135C57.8623 358.087 62.3256 352.346 68.6281 347.752C74.9213 343.164 82.9886 339.764 91.1307 338.374C99.2429 337.03 107.388 337.704 114.032 339.864C120.693 342.03 125.762 345.659 127.855 350.155Z" stroke="#52CE93" stroke-opacity="0.5"/>
<g opacity="0.7" filter="url(#filter1_i_131_1985)">
<path d="M115.339 343.655C119.691 353.005 111.863 366.276 107.099 379.161C102.335 392.046 100.725 404.601 94.2019 407.701C87.7349 410.712 76.2976 404.36 64.6857 394.189C53.0738 384.019 41.1744 370.21 43.3458 357.76C45.5171 345.309 61.6464 334.396 78.0786 331.592C94.4543 328.878 110.987 334.305 115.339 343.655Z" fill="#27AA6C"/>
</g>
<path opacity="0.7" d="M497.114 103.545C490.435 113.441 478.137 118.517 463.412 121.859C456.061 123.527 448.138 124.757 440.054 125.948C438.953 126.11 437.849 126.271 436.744 126.433C429.735 127.458 422.65 128.493 415.775 129.796C407.813 131.305 400.135 133.187 392.884 135.011C391.956 135.245 391.035 135.477 390.122 135.708C383.893 137.281 378.006 138.767 372.538 139.887C366.267 141.172 360.575 141.969 355.582 141.866C350.591 141.763 346.331 140.762 342.893 138.481C336.131 133.916 332.402 124.076 331.203 110.761C330.007 97.4772 331.343 80.8828 334.555 63.0163C337.768 45.1477 342.723 26.0583 350.327 10.1081C357.936 -5.85178 368.159 -18.591 381.866 -23.8878C395.58 -29.1873 412.777 -27.0867 429.785 -19.9074C446.782 -12.7327 463.52 -0.51316 476.273 14.3099C488.899 29.1293 497.477 46.4843 501.206 62.6264C504.939 78.7855 503.798 93.6428 497.114 103.545Z" stroke="#52CE93" stroke-opacity="0.5"/>
<path opacity="0.7" d="M497.974 122.31C491.294 132.206 478.996 137.282 464.271 140.624C456.921 142.292 448.998 143.522 440.913 144.713C439.812 144.875 438.709 145.036 437.603 145.198C430.594 146.223 423.509 147.259 416.635 148.561C408.672 150.07 400.994 151.952 393.744 153.776C392.816 154.01 391.895 154.242 390.981 154.473C384.752 156.046 378.865 157.532 373.397 158.652C367.126 159.937 361.435 160.734 356.441 160.631C351.45 160.528 347.191 159.527 343.752 157.247C336.99 152.682 333.261 142.842 332.062 129.526C330.866 116.242 332.202 99.648 335.415 81.7814C338.628 63.9129 343.582 44.8234 351.186 28.8732C358.795 12.9134 369.018 0.174168 382.725 -5.1227C396.439 -10.4221 413.636 -8.32152 430.644 -1.1423C447.641 6.03239 464.379 18.252 477.132 33.0751C489.759 47.8945 498.336 65.2495 502.066 81.3915C505.799 97.5506 504.657 112.408 497.974 122.31Z" stroke="#52CE93" stroke-opacity="0.5"/>
<g opacity="0.7" filter="url(#filter2_i_131_1985)">
<path d="M495.341 88.7816C481.753 108.913 445.467 109.221 413.681 115.245C381.895 121.268 354.603 133.257 340.428 123.854C326.502 114.457 325.443 83.6638 331.876 47.8848C338.309 12.1059 351.735 -28.6685 379.498 -39.3972C407.262 -50.1259 448.862 -30.8184 474.465 -1.05821C499.818 28.6972 508.929 68.6507 495.341 88.7816Z" fill="#38D68B"/>
</g>
</g>
<defs>
<filter id="filter0_i_131_1985" x="130" y="127" width="224" height="173" filterUnits="userSpaceOnUse" color-interpolation-filters="sRGB">
<feFlood flood-opacity="0" result="BackgroundImageFix"/>
<feBlend mode="normal" in="SourceGraphic" in2="BackgroundImageFix" result="shape"/>
<feColorMatrix in="SourceAlpha" type="matrix" values="0 0 0 0 0 0 0 0 0 0 0 0 0 0 0 0 0 0 127 0" result="hardAlpha"/>
<feOffset dx="11" dy="8"/>
<feGaussianBlur stdDeviation="4.5"/>
<feComposite in2="hardAlpha" operator="arithmetic" k2="-1" k3="1"/>
<feColorMatrix type="matrix" values="0 0 0 0 0.120312 0 0 0 0 0.6875 0 0 0 0 0.439356 0 0 0 1 0"/>
<feBlend mode="normal" in2="shape" result="effect1_innerShadow_131_1985"/>
</filter>
<filter id="filter1_i_131_1985" x="43.0879" y="330.892" width="78.5229" height="77.5601" filterUnits="userSpaceOnUse" color-interpolation-filters="sRGB">
<feFlood flood-opacity="0" result="BackgroundImageFix"/>
<feBlend mode="normal" in="SourceGraphic" in2="BackgroundImageFix" result="shape"/>
<feColorMatrix in="SourceAlpha" type="matrix" values="0 0 0 0 0 0 0 0 0 0 0 0 0 0 0 0 0 0 127 0" result="hardAlpha"/>
<feOffset dx="5"/>
<feGaussianBlur stdDeviation="4"/>
<feComposite in2="hardAlpha" operator="arithmetic" k2="-1" k3="1"/>
<feColorMatrix type="matrix" values="0 0 0 0 0.364948 0 0 0 0 0.9625 0 0 0 0 0.696952 0 0 0 1 0"/>
<feBlend mode="normal" in2="shape" result="effect1_innerShadow_131_1985"/>
</filter>
<filter id="filter2_i_131_1985" x="328.083" y="-42.394" width="178.544" height="169.726" filterUnits="userSpaceOnUse" color-interpolation-filters="sRGB">
<feFlood flood-opacity="0" result="BackgroundImageFix"/>
<feBlend mode="normal" in="SourceGraphic" in2="BackgroundImageFix" result="shape"/>
<feColorMatrix in="SourceAlpha" type="matrix" values="0 0 0 0 0 0 0 0 0 0 0 0 0 0 0 0 0 0 127 0" result="hardAlpha"/>
<feOffset dx="5"/>
<feGaussianBlur stdDeviation="4"/>
<feComposite in2="hardAlpha" operator="arithmetic" k2="-1" k3="1"/>
<feColorMatrix type="matrix" values="0 0 0 0 0.364948 0 0 0 0 0.9625 0 0 0 0 0.696952 0 0 0 1 0"/>
<feBlend mode="normal" in2="shape" result="effect1_innerShadow_131_1985"/>
</filter>
<linearGradient id="paint0_linear_131_1985" x1="487.606" y1="-14" x2="-6.76771" y2="497.679" gradientUnits="userSpaceOnUse">
<stop stop-color="#0E643B"/>
<stop offset="1" stop-color="#8BFFC7"/>
</linearGradient>
<linearGradient id="paint1_linear_131_1985" x1="487.606" y1="-14" x2="-6.76771" y2="497.679" gradientUnits="userSpaceOnUse">
<stop stop-color="#0E643B"/>
<stop offset="1" stop-color="#8BFFC7"/>
</linearGradient>
</defs>
</svg>
