<svg width="74" height="74" viewBox="0 0 74 74" fill="none" xmlns="http://www.w3.org/2000/svg">
<circle cx="37" cy="37" r="37" fill="#CBD3FF"/>
<path d="M42.1153 34.8668L34.3106 32.5832C33.4073 32.323 32.7786 31.4775 32.7786 30.5381C32.7786 29.3602 33.7325 28.4062 34.9105 28.4062H39.7017C40.5833 28.4062 41.4505 28.6736 42.1731 29.165C42.614 29.4613 43.2065 29.3891 43.5823 29.0205L46.0972 26.5635C46.6103 26.0648 46.538 25.2338 45.9671 24.793C44.1966 23.4055 41.9853 22.6322 39.7161 22.625V19.1562C39.7161 18.5203 39.1958 18 38.5599 18H36.2474C35.6114 18 35.0911 18.5203 35.0911 19.1562V22.625H34.9105C30.3071 22.625 26.6071 26.5779 27.0335 31.268C27.337 34.5994 29.8808 37.3094 33.0894 38.2488L40.4966 40.4168C41.3999 40.6842 42.0286 41.5225 42.0286 42.4619C42.0286 43.6398 41.0747 44.5938 39.8968 44.5938H35.1056C34.2239 44.5938 33.3567 44.3264 32.6341 43.835C32.1933 43.5387 31.6007 43.6109 31.2249 43.9795L28.7101 46.4365C28.197 46.9352 28.2692 47.7662 28.8401 48.207C30.6106 49.5945 32.822 50.3678 35.0911 50.375V53.8438C35.0911 54.4797 35.6114 55 36.2474 55H38.5599C39.1958 55 39.7161 54.4797 39.7161 53.8438V50.3605C43.0837 50.2955 46.2417 48.2938 47.3546 45.1068C48.9083 40.6553 46.2995 36.0881 42.1153 34.8668Z" fill="#4755A5"/>
</svg>
