<svg width="74" height="74" viewBox="0 0 74 74" fill="none" xmlns="http://www.w3.org/2000/svg">
<circle cx="37" cy="37" r="37" fill="#CBD3FF"/>
<path d="M37.5 16C25.6535 16 16 25.6535 16 37.5C16 49.3465 25.6535 59 37.5 59C49.3465 59 59 49.3465 59 37.5C59 25.6535 49.3465 16 37.5 16ZM46.8525 45.1755C46.5515 45.6915 46.014 45.971 45.455 45.971C45.1755 45.971 44.896 45.9065 44.638 45.7345L37.973 41.757C36.3175 40.768 35.092 38.5965 35.092 36.683V27.868C35.092 26.9865 35.823 26.2555 36.7045 26.2555C37.586 26.2555 38.317 26.9865 38.317 27.868V36.683C38.317 37.457 38.962 38.5965 39.6285 38.9835L46.2935 42.961C47.0675 43.4125 47.3255 44.4015 46.8525 45.1755Z" fill="#4755A5"/>
</svg>
