<svg width="74" height="74" viewBox="0 0 74 74" fill="none" xmlns="http://www.w3.org/2000/svg">
<circle cx="37" cy="37" r="37" fill="#CBD3FF"/>
<path d="M51.55 16C51.55 20.7474 42.305 28.9474 32.2 28.9474V41.8947C42.305 41.8947 51.55 49.6632 51.55 54.8421H55.85V39.0895C57.14 38.4421 58 36.9316 58 35.4211C58 33.9105 57.14 32.4 55.85 31.7526V16H51.55ZM21.45 28.9474C19.73 28.9474 18.225 30.0263 17.58 31.5368C16.075 32.1842 15 33.6947 15 35.4211C15 37.1474 16.075 38.6579 17.58 39.3053C18.225 40.8158 19.73 41.8947 21.45 41.8947H21.88L26.61 57L34.135 54.6263L30.05 41.8947V28.9474H21.45Z" fill="#4755A5"/>
</svg>
