<svg width="74" height="74" viewBox="0 0 74 74" fill="none" xmlns="http://www.w3.org/2000/svg">
<circle cx="37" cy="37" r="37" fill="#96FFB8"/>
<path d="M25.4382 44V30.9091H30.1044C31.1186 30.9091 31.9602 31.0838 32.6293 31.4332C33.3026 31.7827 33.8054 32.2663 34.1378 32.8842C34.4702 33.4979 34.6364 34.2074 34.6364 35.0128C34.6364 35.8139 34.468 36.5192 34.1314 37.1286C33.799 37.7337 33.2962 38.2045 32.6229 38.5412C31.9538 38.8778 31.1122 39.0462 30.098 39.0462H26.5632V37.3459H29.919C30.5582 37.3459 31.0781 37.2543 31.4787 37.071C31.8835 36.8878 32.1797 36.6214 32.3672 36.272C32.5547 35.9226 32.6484 35.5028 32.6484 35.0128C32.6484 34.5185 32.5526 34.0902 32.3608 33.728C32.1733 33.3658 31.8771 33.0888 31.4723 32.897C31.0717 32.701 30.5455 32.603 29.8935 32.603H27.4134V44H25.4382ZM31.9006 38.0938L35.1349 44H32.8849L29.7145 38.0938H31.9006ZM36.6884 44V34.1818H38.5996V44H36.6884ZM37.6536 32.6669C37.3212 32.6669 37.0357 32.5561 36.797 32.3345C36.5627 32.1087 36.4455 31.8402 36.4455 31.5291C36.4455 31.2138 36.5627 30.9453 36.797 30.7237C37.0357 30.4979 37.3212 30.3849 37.6536 30.3849C37.9859 30.3849 38.2693 30.4979 38.5037 30.7237C38.7423 30.9453 38.8617 31.2138 38.8617 31.5291C38.8617 31.8402 38.7423 32.1087 38.5037 32.3345C38.2693 32.5561 37.9859 32.6669 37.6536 32.6669ZM45.1084 44.1982C44.188 44.1982 43.3847 43.9872 42.6986 43.5653C42.0126 43.1435 41.4799 42.5533 41.1006 41.7947C40.7214 41.0362 40.5317 40.1499 40.5317 39.1357C40.5317 38.1172 40.7214 37.2266 41.1006 36.4638C41.4799 35.701 42.0126 35.1087 42.6986 34.6868C43.3847 34.2649 44.188 34.054 45.1084 34.054C46.0289 34.054 46.8322 34.2649 47.5182 34.6868C48.2043 35.1087 48.737 35.701 49.1163 36.4638C49.4955 37.2266 49.6851 38.1172 49.6851 39.1357C49.6851 40.1499 49.4955 41.0362 49.1163 41.7947C48.737 42.5533 48.2043 43.1435 47.5182 43.5653C46.8322 43.9872 46.0289 44.1982 45.1084 44.1982ZM45.1148 42.5938C45.7114 42.5938 46.2057 42.4361 46.5978 42.1207C46.9898 41.8054 47.2796 41.3857 47.4671 40.8615C47.6589 40.3374 47.7547 39.7599 47.7547 39.1293C47.7547 38.5028 47.6589 37.9276 47.4671 37.4034C47.2796 36.875 46.9898 36.451 46.5978 36.1314C46.2057 35.8118 45.7114 35.652 45.1148 35.652C44.514 35.652 44.0154 35.8118 43.6191 36.1314C43.227 36.451 42.9351 36.875 42.7434 37.4034C42.5559 37.9276 42.4621 38.5028 42.4621 39.1293C42.4621 39.7599 42.5559 40.3374 42.7434 40.8615C42.9351 41.3857 43.227 41.8054 43.6191 42.1207C44.0154 42.4361 44.514 42.5938 45.1148 42.5938Z" fill="#049430"/>
</svg>
