<svg width="74" height="74" viewBox="0 0 74 74" fill="none" xmlns="http://www.w3.org/2000/svg">
<circle cx="37" cy="37" r="37" fill="#CBD3FF"/>
<path fill-rule="evenodd" clip-rule="evenodd" d="M30.2363 17.4018C30.0646 16.8861 29.6951 16.4598 29.2091 16.2166C28.7231 15.9734 28.1603 15.9333 27.6447 16.105C27.129 16.2767 26.7027 16.6462 26.4595 17.1322C26.2163 17.6182 26.1761 18.1809 26.3478 18.6966L28.3966 24.8427C28.5683 25.3584 28.9378 25.7847 29.4238 26.0279C29.9098 26.2711 30.4725 26.3113 30.9882 26.1396C31.5038 25.9679 31.9301 25.5984 32.1734 25.1123C32.4166 24.6263 32.4567 24.0636 32.285 23.5479L30.2363 17.4018ZM44.0815 23.5951C44.4547 23.2087 44.6612 22.6912 44.6566 22.154C44.6519 21.6168 44.4364 21.103 44.0566 20.7231C43.6767 20.3433 43.1629 20.1278 42.6257 20.1232C42.0886 20.1185 41.571 20.325 41.1847 20.6982L37.0872 24.7956C36.714 25.182 36.5075 25.6995 36.5122 26.2367C36.5169 26.7739 36.7323 27.2877 37.1122 27.6675C37.492 28.0474 38.0059 28.2629 38.543 28.2675C39.0802 28.2722 39.5977 28.0657 39.9841 27.6925L44.0815 23.5951ZM18.6979 26.3485C18.1823 26.1766 17.6194 26.2165 17.1332 26.4595C16.647 26.7025 16.2772 27.1287 16.1053 27.6444C15.9333 28.16 15.9732 28.7228 16.2162 29.2091C16.4592 29.6953 16.8854 30.065 17.4011 30.237L23.5472 32.2857C24.0629 32.4574 24.6256 32.4173 25.1116 32.1741C25.5977 31.9308 25.9672 31.5045 26.1389 30.9889C26.3106 30.4732 26.2704 29.9105 26.0272 29.4245C25.784 28.9385 25.3577 28.569 24.842 28.3973L18.6979 26.3485ZM33.0902 30.4665C32.724 30.3334 32.3276 30.3074 31.9472 30.3917C31.5669 30.4759 31.2184 30.6669 30.9427 30.9421C30.667 31.2174 30.4756 31.5655 30.3907 31.9457C30.3059 32.326 30.3312 32.7225 30.4637 33.0888L38.6586 55.6247C38.8004 56.0146 39.0573 56.3522 39.3952 56.5929C39.7331 56.8336 40.1361 56.966 40.5509 56.9727C40.9657 56.9794 41.3728 56.8599 41.7183 56.6302C42.0637 56.4005 42.3313 56.0713 42.4856 55.6862L45.4296 48.3292L53.477 56.3745C53.666 56.5702 53.892 56.7263 54.142 56.8337C54.3919 56.941 54.6608 56.9976 54.9328 56.9999C55.2048 57.0023 55.4746 56.9505 55.7264 56.8474C55.9781 56.7444 56.2069 56.5923 56.3992 56.3999C56.5916 56.2076 56.7437 55.9788 56.8467 55.7271C56.9498 55.4753 57.0016 55.2055 56.9992 54.9335C56.9969 54.6615 56.9403 54.3926 56.833 54.1427C56.7256 53.8927 56.5695 53.6666 56.3739 53.4777L48.3265 45.4303L55.6855 42.4883C56.0713 42.3344 56.4011 42.0669 56.6314 41.7212C56.8616 41.3754 56.9813 40.9679 56.9747 40.5526C56.968 40.1373 56.8353 39.7339 56.5941 39.3957C56.3528 39.0576 56.0145 38.8008 55.624 38.6593L33.0881 30.4644L33.0902 30.4665ZM27.6918 39.9848C27.8875 39.7958 28.0436 39.5698 28.1509 39.3198C28.2583 39.0699 28.3148 38.801 28.3172 38.529C28.3195 38.257 28.2677 37.9872 28.1647 37.7354C28.0617 37.4836 27.9096 37.2549 27.7172 37.0625C27.5248 36.8702 27.2961 36.718 27.0443 36.615C26.7925 36.512 26.5228 36.4602 26.2507 36.4625C25.9787 36.4649 25.7099 36.5214 25.4599 36.6288C25.21 36.7362 24.9839 36.8922 24.7949 37.0879L20.6975 41.1854C20.5018 41.3743 20.3457 41.6004 20.2384 41.8504C20.131 42.1003 20.0745 42.3691 20.0721 42.6412C20.0697 42.9132 20.1216 43.183 20.2246 43.4348C20.3276 43.6865 20.4797 43.9153 20.6721 44.1076C20.8644 44.3 21.0932 44.4521 21.345 44.5551C21.5967 44.6581 21.8665 44.71 22.1385 44.7076C22.4106 44.7053 22.6794 44.6487 22.9294 44.5414C23.1793 44.434 23.4054 44.2779 23.5944 44.0822L27.6918 39.9848Z" fill="#4755A5"/>
</svg>
