<svg width="74" height="74" viewBox="0 0 74 74" fill="none" xmlns="http://www.w3.org/2000/svg">
<circle cx="37" cy="37" r="37" fill="#96FFB8"/>
<path d="M14.9432 34.1477H13.1705C13.1023 33.7689 12.9754 33.4356 12.7898 33.1477C12.6042 32.8598 12.3769 32.6155 12.108 32.4148C11.839 32.214 11.5379 32.0625 11.2045 31.9602C10.875 31.858 10.5246 31.8068 10.1534 31.8068C9.48295 31.8068 8.88258 31.9754 8.35227 32.3125C7.82576 32.6496 7.40909 33.1439 7.10227 33.7955C6.79924 34.447 6.64773 35.2424 6.64773 36.1818C6.64773 37.1288 6.79924 37.928 7.10227 38.5795C7.40909 39.2311 7.82765 39.7235 8.35795 40.0568C8.88826 40.3902 9.48485 40.5568 10.1477 40.5568C10.5152 40.5568 10.8636 40.5076 11.1932 40.4091C11.5265 40.3068 11.8277 40.1572 12.0966 39.9602C12.3655 39.7633 12.5928 39.5227 12.7784 39.2386C12.9678 38.9508 13.0985 38.6212 13.1705 38.25L14.9432 38.2557C14.8485 38.8277 14.6648 39.3542 14.392 39.8352C14.1231 40.3125 13.7765 40.7254 13.3523 41.0739C12.9318 41.4186 12.4508 41.6856 11.9091 41.875C11.3674 42.0644 10.7765 42.1591 10.1364 42.1591C9.12879 42.1591 8.23106 41.9205 7.44318 41.4432C6.6553 40.9621 6.03409 40.2746 5.57955 39.3807C5.12879 38.4867 4.90341 37.4205 4.90341 36.1818C4.90341 34.9394 5.13068 33.8731 5.58523 32.983C6.03977 32.089 6.66098 31.4034 7.44886 30.9261C8.23674 30.4451 9.13258 30.2045 10.1364 30.2045C10.7538 30.2045 11.3295 30.2936 11.8636 30.4716C12.4015 30.6458 12.8845 30.9034 13.3125 31.2443C13.7405 31.5814 14.0947 31.9943 14.375 32.483C14.6553 32.9678 14.8447 33.5227 14.9432 34.1477ZM20.4078 42.1761C19.5896 42.1761 18.8756 41.9886 18.2658 41.6136C17.6559 41.2386 17.1824 40.714 16.8453 40.0398C16.5082 39.3655 16.3396 38.5777 16.3396 37.6761C16.3396 36.7708 16.5082 35.9792 16.8453 35.3011C17.1824 34.6231 17.6559 34.0966 18.2658 33.7216C18.8756 33.3466 19.5896 33.1591 20.4078 33.1591C21.226 33.1591 21.94 33.3466 22.5499 33.7216C23.1597 34.0966 23.6332 34.6231 23.9703 35.3011C24.3074 35.9792 24.476 36.7708 24.476 37.6761C24.476 38.5777 24.3074 39.3655 23.9703 40.0398C23.6332 40.714 23.1597 41.2386 22.5499 41.6136C21.94 41.9886 21.226 42.1761 20.4078 42.1761ZM20.4135 40.75C20.9438 40.75 21.3832 40.6098 21.7317 40.3295C22.0802 40.0492 22.3377 39.6761 22.5044 39.2102C22.6749 38.7443 22.7601 38.2311 22.7601 37.6705C22.7601 37.1136 22.6749 36.6023 22.5044 36.1364C22.3377 35.6667 22.0802 35.2898 21.7317 35.0057C21.3832 34.7216 20.9438 34.5795 20.4135 34.5795C19.8794 34.5795 19.4362 34.7216 19.0839 35.0057C18.7355 35.2898 18.476 35.6667 18.3055 36.1364C18.1389 36.6023 18.0555 37.1136 18.0555 37.6705C18.0555 38.2311 18.1389 38.7443 18.3055 39.2102C18.476 39.6761 18.7355 40.0492 19.0839 40.3295C19.4362 40.6098 19.8794 40.75 20.4135 40.75ZM27.8952 36.8182V42H26.1963V33.2727H27.827V34.6932H27.9349C28.1357 34.2311 28.4501 33.8598 28.8781 33.5795C29.3099 33.2992 29.8535 33.1591 30.5088 33.1591C31.1035 33.1591 31.6243 33.2841 32.0713 33.5341C32.5183 33.7803 32.8649 34.1477 33.1111 34.6364C33.3573 35.125 33.4804 35.7292 33.4804 36.4489V42H31.7815V36.6534C31.7815 36.0208 31.6168 35.5265 31.2872 35.1705C30.9577 34.8106 30.505 34.6307 29.9293 34.6307C29.5353 34.6307 29.1849 34.7159 28.8781 34.8864C28.5751 35.0568 28.3346 35.3068 28.1565 35.6364C27.9823 35.9621 27.8952 36.3561 27.8952 36.8182ZM36.7021 42.108C36.3915 42.108 36.1245 41.9981 35.901 41.7784C35.6775 41.5549 35.5658 41.286 35.5658 40.9716C35.5658 40.661 35.6775 40.3958 35.901 40.1761C36.1245 39.9527 36.3915 39.8409 36.7021 39.8409C37.0127 39.8409 37.2798 39.9527 37.5033 40.1761C37.7267 40.3958 37.8385 40.661 37.8385 40.9716C37.8385 41.1799 37.7854 41.3712 37.6794 41.5455C37.5771 41.7159 37.4408 41.8523 37.2703 41.9545C37.0998 42.0568 36.9104 42.108 36.7021 42.108ZM39.938 42V33.2727H41.5801V34.6591H41.671C41.8301 34.1894 42.1104 33.8201 42.5119 33.5511C42.9172 33.2784 43.3755 33.142 43.8869 33.142C43.993 33.142 44.118 33.1458 44.2619 33.1534C44.4096 33.161 44.5252 33.1705 44.6085 33.1818V34.8068C44.5403 34.7879 44.4191 34.767 44.2449 34.7443C44.0706 34.7178 43.8964 34.7045 43.7221 34.7045C43.3206 34.7045 42.9627 34.7898 42.6483 34.9602C42.3377 35.1269 42.0915 35.3598 41.9096 35.6591C41.7278 35.9545 41.6369 36.2917 41.6369 36.6705V42H39.938ZM48.3643 42.1932C47.8113 42.1932 47.3113 42.0909 46.8643 41.8864C46.4173 41.678 46.0632 41.3769 45.8018 40.983C45.5442 40.589 45.4155 40.1061 45.4155 39.5341C45.4155 39.0417 45.5102 38.6364 45.6995 38.3182C45.8889 38 46.1446 37.7481 46.4666 37.5625C46.7886 37.3769 47.1484 37.2367 47.5461 37.142C47.9439 37.0473 48.3492 36.9754 48.762 36.9261C49.2848 36.8655 49.709 36.8163 50.0348 36.7784C50.3605 36.7367 50.5973 36.6705 50.745 36.5795C50.8927 36.4886 50.9666 36.3409 50.9666 36.1364V36.0966C50.9666 35.6004 50.8264 35.2159 50.5461 34.9432C50.2696 34.6705 49.8567 34.5341 49.3075 34.5341C48.7355 34.5341 48.2848 34.661 47.9552 34.9148C47.6295 35.1648 47.4041 35.4432 47.2791 35.75L45.6825 35.3864C45.8719 34.8561 46.1484 34.428 46.512 34.1023C46.8795 33.7727 47.3018 33.5341 47.7791 33.3864C48.2564 33.2348 48.7583 33.1591 49.2848 33.1591C49.6333 33.1591 50.0026 33.2008 50.3927 33.2841C50.7867 33.3636 51.1541 33.5114 51.495 33.7273C51.8397 33.9432 52.1219 34.2519 52.3416 34.6534C52.5613 35.0511 52.6711 35.5682 52.6711 36.2045V42H51.012V40.8068H50.9439C50.834 41.0265 50.6692 41.2424 50.4495 41.4545C50.2298 41.6667 49.9477 41.8428 49.603 41.983C49.2583 42.1231 48.8454 42.1932 48.3643 42.1932ZM48.7336 40.8295C49.2033 40.8295 49.6048 40.7367 49.9382 40.5511C50.2753 40.3655 50.531 40.1231 50.7052 39.8239C50.8833 39.5208 50.9723 39.197 50.9723 38.8523V37.7273C50.9117 37.7879 50.7942 37.8447 50.62 37.8977C50.4495 37.947 50.2545 37.9905 50.0348 38.0284C49.8151 38.0625 49.6011 38.0947 49.3927 38.125C49.1844 38.1515 49.0102 38.1742 48.87 38.1932C48.5405 38.2348 48.2393 38.3049 47.9666 38.4034C47.6977 38.5019 47.4817 38.6439 47.3189 38.8295C47.1598 39.0114 47.0802 39.2538 47.0802 39.5568C47.0802 39.9773 47.2355 40.2955 47.5461 40.5114C47.8567 40.7235 48.2526 40.8295 48.7336 40.8295ZM58.8318 33.2727V34.6364H54.0647V33.2727H58.8318ZM55.3431 31.1818H57.042V39.4375C57.042 39.767 57.0913 40.0152 57.1897 40.1818C57.2882 40.3447 57.4151 40.4564 57.5704 40.517C57.7295 40.5739 57.9019 40.6023 58.0875 40.6023C58.2238 40.6023 58.3431 40.5928 58.4454 40.5739C58.5477 40.5549 58.6272 40.5398 58.6841 40.5284L58.9909 41.9318C58.8924 41.9697 58.7522 42.0076 58.5704 42.0455C58.3886 42.0871 58.1613 42.1098 57.8886 42.1136C57.4416 42.1212 57.025 42.0417 56.6386 41.875C56.2522 41.7083 55.9397 41.4508 55.7011 41.1023C55.4625 40.7538 55.3431 40.3163 55.3431 39.7898V31.1818ZM64.2027 42.1761C63.3428 42.1761 62.6023 41.9924 61.9811 41.625C61.3636 41.2538 60.8864 40.733 60.5493 40.0625C60.2159 39.3883 60.0493 38.5985 60.0493 37.6932C60.0493 36.7992 60.2159 36.0114 60.5493 35.3295C60.8864 34.6477 61.3561 34.1155 61.9583 33.733C62.5644 33.3504 63.2727 33.1591 64.0833 33.1591C64.5758 33.1591 65.053 33.2405 65.5152 33.4034C65.9773 33.5663 66.3921 33.822 66.7595 34.1705C67.1269 34.5189 67.4167 34.9716 67.6288 35.5284C67.8409 36.0814 67.947 36.7538 67.947 37.5455V38.1477H61.0095V36.875H66.2822C66.2822 36.428 66.1913 36.0322 66.0095 35.6875C65.8277 35.339 65.572 35.0644 65.2424 34.8636C64.9167 34.6629 64.5341 34.5625 64.0947 34.5625C63.6174 34.5625 63.2008 34.6799 62.8447 34.9148C62.4924 35.1458 62.2197 35.4489 62.0265 35.8239C61.8371 36.1951 61.7424 36.5985 61.7424 37.0341V38.0284C61.7424 38.6117 61.8447 39.108 62.0493 39.517C62.2576 39.9261 62.5474 40.2386 62.9186 40.4545C63.2898 40.6667 63.7235 40.7727 64.2197 40.7727C64.5417 40.7727 64.8352 40.7273 65.1004 40.6364C65.3655 40.5417 65.5947 40.4015 65.7879 40.2159C65.9811 40.0303 66.1288 39.8011 66.2311 39.5284L67.839 39.8182C67.7102 40.2917 67.4792 40.7064 67.1458 41.0625C66.8163 41.4148 66.4015 41.6894 65.9015 41.8864C65.4053 42.0795 64.839 42.1761 64.2027 42.1761Z" fill="#049430"/>
</svg>
