<svg width="689" height="669" viewBox="0 0 689 669" fill="none" xmlns="http://www.w3.org/2000/svg">
<path d="M32.9997 48C8.99966 131.833 35.2997 286.6 332.5 235C704 170.5 700 247 679.5 362" stroke="#4755A5" stroke-width="2" stroke-dasharray="6 6"/>
<path d="M668.5 396.5C662.167 448.833 626.9 541.8 536.5 495C423.5 436.5 142.59 325.833 45.5001 411.5C-22.5002 471.5 -2 596 40.4997 649.5" stroke="#4755A5" stroke-width="2" stroke-dasharray="6 6"/>
<circle cx="40" cy="19" r="19" fill="url(#paint0_radial_518_6719)"/>
<circle cx="40.5" cy="19.5" r="9.5" fill="#4755A5"/>
<circle cx="670" cy="395" r="19" fill="url(#paint1_radial_518_6719)"/>
<circle cx="670.5" cy="395.5" r="9.5" fill="#4755A5"/>
<ellipse cx="40" cy="650.453" rx="19" ry="18.4532" fill="url(#paint2_radial_518_6719)"/>
<ellipse cx="40.5" cy="650.939" rx="9.5" ry="9.22662" fill="#4755A5"/>
<defs>
<radialGradient id="paint0_radial_518_6719" cx="0" cy="0" r="1" gradientUnits="userSpaceOnUse" gradientTransform="translate(40 19) rotate(90) scale(30.6771)">
<stop offset="0.290559" stop-color="#9FBAFF"/>
<stop offset="0.592818" stop-color="#9FBAFF" stop-opacity="0"/>
</radialGradient>
<radialGradient id="paint1_radial_518_6719" cx="0" cy="0" r="1" gradientUnits="userSpaceOnUse" gradientTransform="translate(670 395) rotate(90) scale(30.6771)">
<stop offset="0.290559" stop-color="#9FBAFF"/>
<stop offset="0.592818" stop-color="#9FBAFF" stop-opacity="0"/>
</radialGradient>
<radialGradient id="paint2_radial_518_6719" cx="0" cy="0" r="1" gradientUnits="userSpaceOnUse" gradientTransform="translate(40 650.453) rotate(90) scale(29.7943 30.6771)">
<stop offset="0.290559" stop-color="#9FBAFF"/>
<stop offset="0.592818" stop-color="#9FBAFF" stop-opacity="0"/>
</radialGradient>
</defs>
</svg>
