<svg width="189" height="47" viewBox="0 0 189 47" fill="none" xmlns="http://www.w3.org/2000/svg">
<g clip-path="url(#clip0_250_4692)">
<path d="M113.473 27.6845C114.842 24.6387 116.112 21.8157 117.358 18.9927C117.774 18.0765 118.116 17.1355 118.605 16.2688C119.24 15.1545 120.291 15.7983 121.146 15.7983C121.879 15.7735 121.488 16.6402 121.488 17.0365C121.512 22.0881 121.488 27.115 121.537 32.1666C121.537 33.0333 121.317 33.2314 120.535 33.2562C119.704 33.2562 119.533 32.9838 119.557 32.1666C119.606 27.8826 119.582 23.5986 119.582 19.0423C117.847 22.2367 116.699 25.4558 115.208 28.4769C114.744 29.4179 114.353 30.3837 113.913 31.2999C113.815 31.498 113.84 31.8694 113.522 31.8942C113.205 31.8942 113.107 31.597 112.985 31.2999C111.861 28.7988 110.737 26.2978 109.588 23.7967C108.929 22.3605 108.244 20.949 107.414 19.1661C107.414 21.7166 107.414 23.8958 107.414 26.0749C107.414 28.1055 107.365 30.1608 107.438 32.1914C107.462 33.0828 107.169 33.2314 106.412 33.2562C105.557 33.2809 105.434 32.9342 105.459 32.1418C105.483 27.0159 105.483 21.89 105.459 16.7641C105.459 15.9964 105.605 15.7983 106.363 15.6993C107.976 15.5012 108.464 16.3679 109.051 17.8041C110.321 21.0728 111.885 24.2425 113.473 27.6845Z" fill="white"/>
<path d="M177.516 19.8106C177.516 23.9212 177.492 28.0566 177.54 32.1672C177.54 33.0339 177.32 33.232 176.539 33.232C175.708 33.2568 175.561 32.9597 175.561 32.1425C175.586 27.1404 175.561 22.1383 175.586 17.1609C175.586 16.6904 175.268 15.9475 175.854 15.799C176.587 15.6256 177.467 15.5018 178.029 16.3933C178.884 17.7057 179.788 18.9934 180.668 20.2811C182.696 23.2526 184.749 26.1994 186.777 29.1709C187.192 29.0224 186.972 28.6509 186.972 28.428C186.997 24.5155 187.021 20.603 186.948 16.6904C186.923 15.6999 187.339 15.7247 188.023 15.6999C188.805 15.6504 188.951 15.9475 188.951 16.7152C188.927 21.7916 188.951 26.8927 188.927 31.9691C188.927 32.3654 189.244 33.0587 188.609 33.1578C187.949 33.2568 187.168 33.4797 186.606 32.6625C184.382 29.369 182.11 26.1251 179.886 22.8564C179.178 21.8164 178.444 20.7515 177.736 19.7115C177.663 19.7363 177.589 19.761 177.516 19.8106Z" fill="white"/>
<path d="M145.36 24.6145C145.653 19.2905 141.597 15.4275 137.028 15.477C131.872 15.5513 128.598 19.5629 128.623 24.5155C128.647 29.5919 131.897 33.1082 136.515 33.4797C141.842 33.9254 145.751 28.9728 145.36 24.6145ZM137.052 31.3748C133.705 31.771 130.651 28.0814 130.724 24.2926C130.773 20.9249 133.925 17.4581 137.052 17.5324C140.4 17.6066 143.43 20.4791 143.454 24.5403C143.43 28.329 140.131 31.8948 137.052 31.3748Z" fill="white"/>
<path d="M168.5 24.4165C168.768 19.0924 164.59 15.4771 160.265 15.4771C155.549 15.4771 152.202 19.3648 151.884 23.6736C151.444 29.79 156.136 33.3311 159.874 33.5044C164.517 33.7273 168.988 29.4433 168.5 24.4165ZM160.216 31.3748C156.795 31.8206 153.863 27.9823 153.863 24.4412C153.863 20.702 157.113 17.4086 160.387 17.5076C163.539 17.6067 166.545 20.7763 166.594 24.5155C166.642 27.8833 163.442 31.9444 160.216 31.3748Z" fill="white"/>
<path d="M93.3394 16.4922C90.7738 15.4274 88.1349 15.8732 85.496 15.7246C84.5186 15.6751 84.201 15.8979 84.2254 17.037C84.2987 21.1229 84.2254 25.2088 84.2742 29.2947C84.2742 30.5823 83.7367 32.291 84.4942 33.0339C85.1539 33.6529 86.7177 33.1577 87.8905 33.1577C87.8905 33.1824 87.8905 33.2072 87.8905 33.232C88.8191 33.232 89.772 33.331 90.6761 33.2072C93.0951 32.8605 95.1964 31.9691 96.7114 29.7156C97.9819 27.8584 98.1286 25.8279 98.1286 23.6735C98.1774 20.7019 95.8562 17.5323 93.3394 16.4922ZM96.1249 25.6793C95.4652 29.0223 93.4371 30.7309 90.5539 31.1519C89.381 31.3252 88.2326 31.3252 87.0842 31.3995C86.4 31.449 86.1801 31.2262 86.2046 30.4585C86.2534 28.5023 86.229 26.546 86.229 24.5897C86.229 22.6334 86.2534 20.6772 86.2046 18.7209C86.1801 17.978 86.4 17.7552 87.0842 17.8047C89.0878 17.9285 91.1647 17.458 93.0462 18.7209C95.5385 20.38 96.6625 22.9801 96.1249 25.6793Z" fill="white"/>
<path d="M77.4326 32.3405C75.3801 27.066 73.2788 21.8163 71.2996 16.517C70.8842 15.4274 70.2489 15.8236 69.6136 15.6998C68.905 15.576 68.4896 15.8979 68.2453 16.5913C67.7566 17.9532 67.2435 19.34 66.7303 20.6772C65.1421 24.8126 63.5294 28.948 61.8923 33.1577C62.5032 33.1577 63.0408 33.1577 63.5539 33.1577C63.9204 33.1577 64.1403 33.0091 64.2869 32.6377C64.5068 31.9691 64.8 31.3252 65.0199 30.6566C65.9973 27.6851 65.9973 27.6851 68.905 27.6851C69.076 27.6851 69.2227 27.6851 69.3937 27.6851C70.7376 27.7098 72.3258 27.2393 73.3276 27.8832C74.1828 28.428 74.305 30.2357 74.7937 31.449C75.5512 33.331 75.5512 33.331 77.5548 33.0586C77.5059 32.8358 77.5059 32.5634 77.4326 32.3405ZM67.5122 25.9021C66.9502 25.9021 66.8769 25.6298 67.048 25.184C67.9521 22.8315 68.8561 20.5038 69.7602 18.1018C70.7131 20.6772 71.6417 23.203 72.6435 25.9021C70.8598 25.9021 69.1738 25.8774 67.5122 25.9021Z" fill="white"/>
<path d="M21.7465 1.70843C27.0732 1.85701 31.618 3.29326 35.5519 6.51243C36.0406 6.90864 36.5782 7.13151 37.2379 7.08198C40.2433 6.85911 43.1266 7.37914 45.79 8.79062C50.2614 11.1431 53.1203 14.9071 54.1954 19.8349C55.1972 24.4903 54.4397 28.9724 51.8008 32.984C49.4062 36.6241 45.961 38.8528 41.7827 39.7938C40.2678 40.1405 38.6307 40.4376 37.0424 40.0414C36.2361 39.8433 35.7963 40.4871 35.2832 40.8834C32.6198 43.013 29.6144 44.3006 26.3157 45.0188C24.2877 45.4645 22.2352 45.514 20.2071 45.3654C16.0044 45.0435 12.1194 43.6568 8.77185 40.9824C6.20624 38.9518 4.12932 36.5003 2.71212 33.5535C1.51484 31.0772 0.855107 28.4524 0.586329 25.6789C0.244247 22.2864 0.659632 19.0672 1.75918 15.9223C3.42072 11.2421 6.37728 7.602 10.58 4.95237C13.0967 3.36754 15.8334 2.40179 18.7411 1.95606C19.8162 1.80748 20.9402 1.58461 21.7465 1.70843ZM33.3773 7.75058C33.2307 7.35437 32.9863 7.23056 32.7176 7.05722C28.466 4.15996 23.8234 3.16944 18.7411 4.01138C14.8316 4.65522 11.5085 6.41338 8.69855 9.11254C6.93927 10.7964 5.59538 12.8765 4.56914 15.1795C2.88316 18.9929 2.49221 22.9798 3.10307 27.0409C3.46959 29.5667 4.37366 31.9687 5.69312 34.1726C7.98995 38.0109 11.1909 40.7595 15.3203 42.2948C18.2035 43.3596 21.1845 43.7063 24.2877 43.3349C27.7329 42.9139 30.7139 41.6015 33.5239 39.6204C25.8026 37.0699 20.7936 29.9134 22.0642 20.8749C22.9927 14.387 27.7329 9.3354 33.3773 7.75058ZM38.4108 38.1099C46.9384 37.788 53.2669 30.4086 51.9719 21.2216C50.9945 14.2385 44.9103 8.9392 38.5818 9.23635C45.2768 18.8939 45.2768 28.5019 38.4108 38.1099Z" fill="white"/>
</g>
<defs>
<clipPath id="clip0_250_4692">
<rect width="189" height="47" fill="white"/>
</clipPath>
</defs>
</svg>
