<svg width="158" height="39" viewBox="0 0 158 39" fill="none" xmlns="http://www.w3.org/2000/svg">
<g clip-path="url(#clip0_3_3)">
<path d="M94.8613 22.9726C96.0052 20.4452 97.0674 18.1027 98.1091 15.7603C98.4564 15 98.7423 14.2192 99.1509 13.5C99.682 12.5753 100.56 13.1096 101.275 13.1096C101.888 13.089 101.561 13.8082 101.561 14.137C101.582 18.3288 101.561 22.5 101.602 26.6918C101.602 27.411 101.418 27.5753 100.765 27.5959C100.07 27.5959 99.9271 27.3699 99.9475 26.6918C99.9884 23.137 99.9679 19.5822 99.9679 15.8014C98.5177 18.4521 97.5576 21.1233 96.3116 23.6301C95.9235 24.411 95.5966 25.2123 95.229 25.9726C95.1473 26.137 95.1677 26.4452 94.9021 26.4658C94.6366 26.4658 94.5549 26.2192 94.4528 25.9726C93.5131 23.8973 92.5735 21.8219 91.6134 19.7466C91.0619 18.5548 90.49 17.3836 89.7955 15.9041C89.7955 18.0205 89.7955 19.8288 89.7955 21.637C89.7955 23.3219 89.7546 25.0274 89.8159 26.7123C89.8363 27.4521 89.5912 27.5753 88.958 27.5959C88.2431 27.6164 88.1409 27.3288 88.1614 26.6712C88.1818 22.4178 88.1818 18.1644 88.1614 13.911C88.1614 13.274 88.2839 13.1096 88.9171 13.0274C90.2653 12.863 90.6738 13.5822 91.1641 14.774C92.2262 17.4863 93.5336 20.1164 94.8613 22.9726Z" fill="#29285D"/>
<path d="M148.399 16.4384C148.399 19.8493 148.379 23.2808 148.42 26.6918C148.42 27.411 148.236 27.5754 147.582 27.5754C146.888 27.5959 146.765 27.3493 146.765 26.6712C146.786 22.5206 146.765 18.3699 146.786 14.2397C146.786 13.8493 146.52 13.2329 147.01 13.1096C147.623 12.9658 148.359 12.863 148.828 13.6028C149.543 14.6918 150.299 15.7603 151.035 16.8288C152.73 19.2945 154.446 21.7397 156.141 24.2055C156.488 24.0822 156.305 23.774 156.305 23.5891C156.325 20.3425 156.345 17.0959 156.284 13.8493C156.264 13.0274 156.611 13.048 157.183 13.0274C157.837 12.9863 157.959 13.2329 157.959 13.8699C157.939 18.0822 157.959 22.3151 157.939 26.5274C157.939 26.8562 158.204 27.4315 157.673 27.5137C157.122 27.5959 156.468 27.7808 155.998 27.1028C154.139 24.3699 152.24 21.6781 150.381 18.9658C149.789 18.1028 149.176 17.2192 148.583 16.3562C148.522 16.3767 148.461 16.3973 148.399 16.4384Z" fill="#29285D"/>
<path d="M121.518 20.4247C121.763 16.0068 118.372 12.8014 114.553 12.8425C110.243 12.9041 107.505 16.2329 107.526 20.3425C107.546 24.5548 110.263 27.4726 114.124 27.7808C118.577 28.1507 121.845 24.0411 121.518 20.4247ZM114.573 26.0342C111.775 26.363 109.221 23.3014 109.282 20.1575C109.323 17.363 111.958 14.4863 114.573 14.5479C117.371 14.6096 119.904 16.9931 119.925 20.363C119.904 23.5068 117.147 26.4657 114.573 26.0342Z" fill="#29285D"/>
<path d="M140.862 20.2603C141.087 15.8425 137.594 12.8425 133.978 12.8425C130.036 12.8425 127.238 16.0685 126.972 19.6438C126.604 24.7192 130.526 27.6575 133.651 27.8014C137.533 27.9863 141.271 24.4315 140.862 20.2603ZM133.937 26.0342C131.078 26.4041 128.627 23.2192 128.627 20.2808C128.627 17.1781 131.343 14.4452 134.08 14.5274C136.715 14.6096 139.228 17.2397 139.269 20.3425C139.31 23.137 136.634 26.5069 133.937 26.0342Z" fill="#29285D"/>
<path d="M78.0297 13.6849C75.8849 12.8014 73.6789 13.1712 71.4728 13.048C70.6557 13.0069 70.3902 13.1918 70.4106 14.137C70.4719 17.5274 70.4106 20.9178 70.4515 24.3082C70.4515 25.3767 70.0021 26.7945 70.6353 27.411C71.1868 27.9247 72.4941 27.5137 73.4746 27.5137C73.4746 27.5343 73.4746 27.5548 73.4746 27.5753C74.2508 27.5753 75.0474 27.6575 75.8032 27.5548C77.8255 27.2671 79.5822 26.5274 80.8486 24.6575C81.9108 23.1164 82.0334 21.4315 82.0334 19.6438C82.0742 17.1781 80.1337 14.5479 78.0297 13.6849ZM80.3584 21.3082C79.8069 24.0822 78.1114 25.5 75.7011 25.8493C74.7206 25.9932 73.7606 25.9932 72.8005 26.0548C72.2286 26.0959 72.0447 25.911 72.0652 25.274C72.106 23.6507 72.0856 22.0274 72.0856 20.4041C72.0856 18.7808 72.106 17.1575 72.0652 15.5343C72.0447 14.9178 72.2286 14.7329 72.8005 14.774C74.4755 14.8767 76.2118 14.4863 77.7846 15.5343C79.8681 16.911 80.8078 19.0685 80.3584 21.3082Z" fill="#29285D"/>
<path d="M64.732 26.8356C63.0162 22.4589 61.2595 18.1027 59.6049 13.7055C59.2577 12.8014 58.7266 13.1301 58.1955 13.0274C57.6031 12.9247 57.2558 13.1918 57.0516 13.7671C56.6431 14.8973 56.2141 16.0479 55.7851 17.1575C54.4574 20.589 53.1092 24.0206 51.7407 27.5137C52.2513 27.5137 52.7007 27.5137 53.1297 27.5137C53.4361 27.5137 53.6199 27.3904 53.7425 27.0822C53.9263 26.5274 54.1714 25.9932 54.3553 25.4384C55.1723 22.9726 55.1723 22.9726 57.6031 22.9726C57.7461 22.9726 57.8687 22.9726 58.0116 22.9726C59.1351 22.9932 60.4628 22.6027 61.3003 23.137C62.0153 23.589 62.1174 25.089 62.5259 26.0959C63.1592 27.6575 63.1591 27.6575 64.8341 27.4315C64.7933 27.2466 64.7933 27.0206 64.732 26.8356ZM56.4388 21.4932C55.969 21.4932 55.9077 21.2671 56.0507 20.8973C56.8065 18.9452 57.5623 17.0137 58.318 15.0206C59.1147 17.1575 59.8909 19.2534 60.7284 21.4932C59.2372 21.4932 57.8278 21.4726 56.4388 21.4932Z" fill="#29285D"/>
<path d="M18.1797 1.41781C22.6327 1.54109 26.4321 2.73287 29.7208 5.40411C30.1293 5.73287 30.5787 5.91781 31.1302 5.87671C33.6427 5.69178 36.053 6.12328 38.2795 7.29452C42.0176 9.24657 44.4075 12.3699 45.3063 16.4589C46.1438 20.3219 45.5105 24.0411 43.3045 27.3699C41.3027 30.3904 38.4225 32.2397 34.9296 33.0205C33.6631 33.3082 32.2945 33.5548 30.9668 33.226C30.2927 33.0616 29.925 33.5959 29.4961 33.9247C27.2696 35.6918 24.7571 36.7603 21.9995 37.3562C20.3041 37.726 18.5882 37.7671 16.8928 37.6438C13.3795 37.3767 10.1316 36.226 7.33317 34.0068C5.18837 32.3219 3.45211 30.2877 2.26737 27.8425C1.26646 25.7877 0.714942 23.6096 0.490249 21.3082C0.204276 18.4931 0.551529 15.8219 1.47073 13.2123C2.85974 9.32876 5.33136 6.30822 8.84474 4.10959C10.9487 2.79452 13.2365 1.99315 15.6672 1.62328C16.566 1.5 17.5056 1.31507 18.1797 1.41781ZM27.9028 6.4315C27.7802 6.10274 27.576 6 27.3513 5.85616C23.797 3.45205 19.916 2.63013 15.6672 3.32876C12.399 3.86301 9.62095 5.32191 7.27189 7.56164C5.80117 8.9589 4.67771 10.6849 3.81979 12.5959C2.41035 15.7603 2.08353 19.0685 2.59419 22.4384C2.90059 24.5342 3.65638 26.5274 4.75941 28.3562C6.67952 31.5411 9.35541 33.8219 12.8075 35.0959C15.2179 35.9795 17.7099 36.2671 20.3041 35.9589C23.1842 35.6096 25.6763 34.5205 28.0254 32.8767C21.5705 30.7603 17.3831 24.8219 18.4453 17.3219C19.2215 11.9384 23.1842 7.74657 27.9028 6.4315ZM32.1107 31.6233C39.2396 31.3562 44.5301 25.2329 43.4475 17.6096C42.6304 11.8151 37.5442 7.41781 32.2537 7.66438C37.8506 15.6781 37.8506 23.6507 32.1107 31.6233Z" fill="#252E60"/>
</g>
<defs>
<clipPath id="clip0_3_3">
<rect width="158" height="39" fill="white"/>
</clipPath>
</defs>
</svg>
