<svg width="106" height="122" viewBox="0 0 106 122" fill="none" xmlns="http://www.w3.org/2000/svg">
<path d="M0 61.32C7.66 53.42 14.35 45.47 22.09 38.74C40.18 23 67.24 23.6 85.03 39.8C92.25 46.38 98.91 53.57 105.27 59.94C97.47 68.13 90.65 76.96 82.21 83.81C63.27 99.21 36.5 97.21 19.02 80.13C12.61 73.86 6.26 67.53 0 61.33V61.32ZM82.79 60.56C82.68 44.11 69.22 30.78 52.82 30.9C36.03 31.02 22.79 44.43 22.93 61.16C23.07 77.24 36.62 90.67 52.67 90.63C69.46 90.58 82.9 77.17 82.79 60.57V60.56Z" fill="#6E7ED7"/>
<path d="M82.7901 60.56C82.9001 77.16 69.4601 90.58 52.6701 90.62C36.6201 90.67 23.0701 77.24 22.9301 61.15C22.7901 44.42 36.0301 31.01 52.8201 30.89C69.2201 30.77 82.68 44.1 82.7901 60.55V60.56ZM40.8701 60.84C47.3401 62.47 51.0401 66.45 52.9501 72.82C54.6701 66.12 58.7801 62.52 65.0201 60.8C58.7601 58.86 54.7601 55.15 52.8701 48.8C51.0801 55.23 47.0101 58.86 40.8701 60.85V60.84Z" fill="url(#paint0_radial_57_143)"/>
<path d="M40.8701 60.84C47.0101 58.85 51.0801 55.23 52.8701 48.79C54.7701 55.14 58.7701 58.85 65.0201 60.79C58.7801 62.52 54.6701 66.11 52.9501 72.81C51.0401 66.45 47.3401 62.47 40.8701 60.83V60.84Z" fill="#6E7ED7"/>
<path d="M15.65 83.46L0.26001 91.23L14.65 81.73L15.65 83.46Z" fill="#6E7ED7"/>
<path d="M31.96 99.0801L22.52 113.51L30.23 98.0801L31.96 99.0801Z" fill="#6E7ED7"/>
<path d="M53.8999 104.45L52.9299 121.67L51.8999 104.46L53.8999 104.45Z" fill="#6E7ED7"/>
<path d="M75.5801 98.1399L83.3501 113.53L73.8501 99.1399L75.5801 98.1399Z" fill="#6E7ED7"/>
<path d="M91.2002 81.8301L105.63 91.2701L90.2002 83.5601L91.2002 81.8301Z" fill="#6E7ED7"/>
<path d="M90.2598 38.2099L105.65 30.4399L91.2598 39.9399L90.2598 38.2099Z" fill="#6E7ED7"/>
<path d="M73.95 22.5899L83.39 8.15991L75.6799 23.5899L73.95 22.5899Z" fill="#6E7ED7"/>
<path d="M52.01 17.22L52.98 0L54.01 17.21L52.01 17.22Z" fill="#6E7ED7"/>
<path d="M30.3301 23.5299L22.5601 8.13989L32.0601 22.5299L30.3301 23.5299Z" fill="#6E7ED7"/>
<path d="M14.71 39.8399L0.280029 30.3999L15.71 38.1099L14.71 39.8399Z" fill="#6E7ED7"/>
<defs>
<radialGradient id="paint0_radial_57_143" cx="0" cy="0" r="1" gradientUnits="userSpaceOnUse" gradientTransform="translate(52.8598 60.7546) rotate(90) scale(29.8655 29.9309)">
<stop stop-color="#90A1FF" stop-opacity="0"/>
<stop offset="1" stop-color="#90A1FF"/>
</radialGradient>
</defs>
</svg>
