<svg width="217" height="51" viewBox="0 0 217 51" fill="none" xmlns="http://www.w3.org/2000/svg">
<path d="M130.115 30.2439C131.68 26.7826 133.133 23.5746 134.559 20.3666C135.034 19.3254 135.425 18.2561 135.984 17.2712C136.711 16.0048 137.913 16.7365 138.891 16.7365C139.729 16.7083 139.282 17.6933 139.282 18.1435C139.31 23.8842 139.282 29.5967 139.338 35.3373C139.338 36.3222 139.086 36.5474 138.192 36.5755C137.242 36.5755 137.046 36.2659 137.074 35.3373C137.13 30.469 137.102 25.6007 137.102 20.4229C135.118 24.053 133.804 27.7113 132.099 31.1444C131.568 32.2137 131.121 33.3112 130.618 34.3524C130.506 34.5775 130.534 34.9996 130.171 35.0278C129.807 35.0278 129.696 34.6901 129.556 34.3524C128.27 31.5102 126.984 28.668 125.671 25.8258C124.916 24.1937 124.134 22.5897 123.183 20.5636C123.183 23.462 123.183 25.9384 123.183 28.4148C123.183 30.7223 123.128 33.0579 123.211 35.3655C123.239 36.3785 122.904 36.5474 122.038 36.5755C121.059 36.6036 120.92 36.2097 120.948 35.3092C120.975 29.4841 120.975 23.659 120.948 17.834C120.948 16.9616 121.115 16.7365 121.982 16.6239C123.826 16.3988 124.385 17.3837 125.056 19.0159C126.509 22.7304 128.298 26.3324 130.115 30.2439Z" fill="white"/>
<path d="M203.369 21.2952C203.369 25.9665 203.341 30.666 203.397 35.3373C203.397 36.3222 203.145 36.5473 202.251 36.5473C201.3 36.5755 201.133 36.2378 201.133 35.3092C201.161 29.6248 201.133 23.9404 201.161 18.2842C201.161 17.7495 200.797 16.9053 201.468 16.7365C202.307 16.5395 203.313 16.3988 203.956 17.4118C204.934 18.9033 205.968 20.3666 206.974 21.8299C209.294 25.2067 211.642 28.5555 213.961 31.9323C214.437 31.7635 214.185 31.3414 214.185 31.0881C214.213 26.6419 214.241 22.1957 214.157 17.7495C214.129 16.6239 214.604 16.652 215.387 16.6239C216.281 16.5676 216.449 16.9053 216.449 17.7777C216.421 23.5465 216.449 29.3434 216.421 35.1122C216.421 35.5624 216.784 36.3503 216.058 36.4629C215.303 36.5755 214.409 36.8287 213.766 35.9001C211.222 32.1574 208.623 28.471 206.08 24.7565C205.269 23.5746 204.431 22.3646 203.62 21.1827C203.536 21.2108 203.453 21.2389 203.369 21.2952Z" fill="white"/>
<path d="M166.588 26.7544C166.923 20.7043 162.283 16.3143 157.057 16.3706C151.16 16.455 147.415 21.0138 147.443 26.6419C147.47 32.4107 151.188 36.4066 156.47 36.8287C162.563 37.3353 167.035 31.7072 166.588 26.7544ZM157.085 34.4368C153.256 34.887 149.762 30.6941 149.846 26.3886C149.902 22.5615 153.507 18.6219 157.085 18.7063C160.914 18.7907 164.38 22.055 164.408 26.67C164.38 30.9755 160.607 35.0277 157.085 34.4368Z" fill="white"/>
<path d="M193.056 26.5295C193.363 20.4793 188.584 16.3708 183.637 16.3708C178.243 16.3708 174.414 20.7888 174.05 25.6853C173.547 32.636 178.914 36.66 183.19 36.857C188.5 37.1103 193.615 32.242 193.056 26.5295ZM183.581 34.4369C179.668 34.9435 176.314 30.5817 176.314 26.5576C176.314 22.3084 180.032 18.5657 183.777 18.6783C187.382 18.7909 190.82 22.3928 190.876 26.642C190.932 30.4691 187.27 35.0842 183.581 34.4369Z" fill="white"/>
<path d="M107.085 17.5242C104.15 16.3142 101.131 16.8207 98.113 16.6519C96.995 16.5956 96.6317 16.8489 96.6596 18.1433C96.7435 22.7865 96.6596 27.4297 96.7155 32.0729C96.7155 33.5362 96.1007 35.4778 96.9671 36.3221C97.7217 37.0256 99.5104 36.4628 100.852 36.4628C100.852 36.4909 100.852 36.519 100.852 36.5472C101.914 36.5472 103.004 36.6597 104.038 36.519C106.805 36.1251 109.209 35.112 110.942 32.5512C112.395 30.4407 112.563 28.1332 112.563 25.685C112.619 22.3081 109.963 18.7061 107.085 17.5242ZM110.271 27.9644C109.516 31.7633 107.196 33.705 103.898 34.1834C102.557 34.3804 101.243 34.3804 99.9297 34.4648C99.1471 34.5211 98.8956 34.2678 98.9235 33.3955C98.9794 31.1724 98.9515 28.9493 98.9515 26.7262C98.9515 24.5031 98.9794 22.28 98.9235 20.0569C98.8956 19.2127 99.1471 18.9594 99.9297 19.0157C102.221 19.1564 104.597 18.6217 106.749 20.0569C109.6 21.9423 110.886 24.897 110.271 27.9644Z" fill="white"/>
<path d="M88.8898 35.5341C86.5421 29.5402 84.1385 23.5744 81.8746 17.5524C81.3995 16.3142 80.6728 16.7644 79.9461 16.6237C79.1356 16.483 78.6605 16.8488 78.381 17.6368C77.822 19.1845 77.2351 20.7604 76.6482 22.28C74.8315 26.9794 72.9868 31.6789 71.1143 36.4627C71.813 36.4627 72.4279 36.4627 73.0148 36.4627C73.434 36.4627 73.6856 36.2939 73.8533 35.8718C74.1048 35.112 74.4402 34.3803 74.6917 33.6206C75.8097 30.2437 75.8097 30.2437 79.1356 30.2437C79.3313 30.2437 79.499 30.2437 79.6946 30.2437C81.2318 30.2718 83.0485 29.7372 84.1944 30.4688C85.1726 31.0879 85.3124 33.1422 85.8713 34.521C86.7378 36.6597 86.7378 36.6597 89.0296 36.3502C88.9737 36.0969 88.9737 35.7874 88.8898 35.5341ZM77.5425 28.2176C76.8997 28.2176 76.8159 27.908 77.0115 27.4015C78.0456 24.7282 79.0797 22.083 80.1138 19.3533C81.2038 22.28 82.2659 25.1503 83.4118 28.2176C81.3715 28.2176 79.4431 28.1894 77.5425 28.2176Z" fill="white"/>
<path d="M25.1938 0.724655C31.2867 0.893498 36.4852 2.52564 40.985 6.1839C41.544 6.63415 42.1589 6.88741 42.9135 6.83113C46.3512 6.57787 49.6492 7.16882 52.6956 8.77282C57.8103 11.4462 61.0803 15.7235 62.3101 21.3235C63.456 26.6139 62.5896 31.7073 59.5711 36.266C56.8321 40.4027 52.8913 42.9353 48.112 44.0047C46.3792 44.3986 44.5066 44.7363 42.6899 44.2861C41.7676 44.0609 41.2645 44.7926 40.6776 45.2428C37.6311 47.6629 34.1934 49.1262 30.4203 49.9423C28.1005 50.4488 25.7528 50.5051 23.433 50.3363C18.6258 49.9704 14.1819 48.3946 10.3529 45.3554C7.41823 43.0479 5.04257 40.262 3.42152 36.9133C2.05202 34.0992 1.2974 31.1163 0.989959 27.9646C0.598673 24.1094 1.07381 20.4511 2.33151 16.8773C4.23204 11.5587 7.61387 7.42208 12.4211 4.41105C15.2999 2.61006 18.4301 1.51259 21.7561 1.00606C22.9858 0.837217 24.2715 0.583953 25.1938 0.724655ZM38.4975 7.59092C38.3298 7.14068 38.0504 6.99997 37.7429 6.80299C32.8798 3.51056 27.5695 2.38494 21.7561 3.34172C17.2842 4.07337 13.4832 6.07134 10.269 9.13865C8.2567 11.0522 6.71951 13.416 5.54565 16.0331C3.61717 20.3667 3.16998 24.8973 3.86871 29.5123C4.28794 32.3827 5.32206 35.1123 6.8313 37.6168C9.45851 41.9785 13.1198 45.1021 17.8432 46.8468C21.1412 48.0569 24.551 48.4508 28.1005 48.0287C32.0413 47.5504 35.4511 46.0589 38.6652 43.8077C29.8333 40.9092 24.1038 32.7766 25.5571 22.5054C26.6192 15.1326 32.0413 9.39191 38.4975 7.59092ZM44.255 42.0911C54.0092 41.7253 61.248 33.3394 59.7667 22.8993C58.6488 14.9637 51.6895 8.94166 44.4507 9.27935C52.1087 20.2541 52.1087 31.1726 44.255 42.0911Z" fill="white"/>
</svg>
