<svg width="62" height="61" viewBox="0 0 62 61" fill="none" xmlns="http://www.w3.org/2000/svg">
<path d="M60.9787 29.8164C60.8895 30.6571 60.3279 31.0896 59.3928 31.0799C58.5469 31.0703 58.0047 30.7127 57.9203 29.8139C57.5757 26.1972 56.9587 22.6432 55.7537 19.1932C53.4304 12.5371 48.9574 8.01913 42.4165 5.53064C39.2208 4.31538 35.9238 3.49153 32.504 3.20885C30.8676 3.07356 30.2651 2.35117 30.7206 1.0731C31.0242 0.210586 31.7424 0.00522564 32.545 0.000393621C35.6322 -0.0141024 38.6665 0.370043 41.5706 1.44275C51.1626 4.97979 57.4889 11.59 60.2412 21.527C60.7859 23.4937 61.0413 25.4941 60.9811 27.5671C61.0775 28.2967 61.0582 29.0577 60.9811 29.8164H60.9787Z" fill="#FA6E6E"/>
<path d="M53.5527 25.4886C53.5093 26.0684 53.5527 26.6048 53.4394 27.1435C53.2539 28.0302 52.6537 28.3515 51.8584 28.3443C51.0872 28.3395 50.5498 27.9964 50.4413 27.1218C50.1618 24.8338 49.6918 22.5845 48.9664 20.3884C47.6674 16.4479 45.0693 13.8047 41.206 12.3479C38.9502 11.4975 36.6294 10.9369 34.2699 10.4827C33.142 10.2653 32.7227 9.73378 32.8432 8.83502C32.9926 7.6995 33.5469 7.17039 34.6821 7.23562C43.4643 7.74057 51.0149 13.3626 53.0707 21.5746C53.3936 22.8696 53.5214 24.196 53.5527 25.4886Z" fill="#FA6E6E"/>
<path d="M46.5242 23.6312C46.529 24.0178 46.423 24.3826 46.3507 24.7571C46.1892 25.6123 45.6493 26.0424 44.8468 26.0859C43.9961 26.1294 43.4972 25.5785 43.2875 24.8102C43.0152 23.8076 42.9308 22.759 42.5139 21.7902C41.4149 19.2389 39.2459 18.2314 36.7225 17.7217C35.9465 17.5646 35.103 17.4511 35.0909 16.3687C35.0813 15.4264 35.6284 14.8176 36.7322 14.6147C38.788 14.2354 40.5376 15.064 42.1235 16.202C44.4106 17.8473 45.9843 20.0169 46.4591 22.8726C46.5001 23.1238 46.5025 23.3799 46.5242 23.6312Z" fill="#FA6E6E"/>
<path d="M60.2056 54.0169C58.1667 57.3486 55.2433 59.6172 51.4258 60.6972C49.411 61.2698 47.5938 60.6827 45.8321 59.9385C34.9652 55.336 25.2913 48.9626 17.1791 40.3157C10.4623 33.1547 5.31686 24.9668 1.72348 15.8367C-1.20231 8.4099 3.02973 2.77093 10.043 0.963757C10.4045 0.871949 10.7997 0.905773 11.1781 0.881613C12.5084 0.862285 13.658 1.30925 14.6413 2.20075C18.4227 5.62907 21.3967 9.67347 23.6235 14.2566C24.6936 16.4625 24.1248 18.3324 22.0281 20.0285C21.4858 20.4658 20.905 20.8548 20.3628 21.2945C18.3624 22.9132 17.7937 24.7953 18.6902 27.2137C20.6279 32.4371 24.0019 36.5516 28.5521 39.7045C30.7669 41.2386 33.0733 42.6399 35.7099 43.3309C37.5391 43.8093 39.0647 43.227 40.2408 41.7218C41.1542 40.5501 42.0122 39.33 43.3811 38.5979C45.5959 37.4141 47.6999 37.9263 49.6785 39.0811C53.243 41.1637 56.5785 43.5942 59.6706 46.3267C62.1626 48.5277 62.1433 50.8543 60.2056 54.0169Z" fill="#FA6E6E"/>
</svg>
