<svg width="475" height="456" viewBox="0 0 475 456" fill="none" xmlns="http://www.w3.org/2000/svg">
<mask id="mask0_131_2097" style="mask-type:alpha" maskUnits="userSpaceOnUse" x="0" y="0" width="475" height="456">
<rect width="475" height="456" rx="25" fill="url(#paint0_linear_131_2097)"/>
</mask>
<g mask="url(#mask0_131_2097)">
<rect width="475" height="456" rx="25" fill="url(#paint1_linear_131_2097)"/>
<g opacity="0.4">
<path d="M330.562 135.594L492.23 297.262C492.621 297.652 492.621 298.285 492.23 298.676L330.562 460.344" stroke="#FFE5A2" stroke-width="84" stroke-linecap="round" stroke-linejoin="round"/>
<path d="M154.656 95L-7.71875 528" stroke="#FFE5A2" stroke-width="84" stroke-linecap="round"/>
</g>
<path opacity="0.6" d="M348.236 218.572L348.235 218.572C347.243 218.552 346.253 218.567 345.252 218.582C344.843 218.588 344.432 218.595 344.018 218.598C342.603 218.611 341.174 218.597 339.75 218.453L339.75 218.453C339.141 218.391 338.481 218.034 337.954 217.611C337.428 217.188 336.936 216.619 336.743 216.035L336.743 216.034C336.212 214.417 335.813 212.76 335.419 211.126L335.389 211.001C334.984 209.319 334.582 207.664 334.041 206.06L334.041 206.059C333.726 205.112 333.661 204.321 333.956 203.632C334.246 202.951 334.842 202.48 335.573 202.063L335.574 202.062C338.206 200.574 340.832 199.083 343.348 197.449L343.348 197.449C344.65 196.605 345.369 195.643 345.608 194.611C345.847 193.577 345.626 192.38 344.855 191.023C341.143 184.489 337.429 177.961 333.639 171.479C332.202 169.024 331.085 167.881 329.845 167.595C328.595 167.307 327.033 167.842 324.561 169.347C324.234 169.546 323.906 169.744 323.578 169.94C319.498 172.382 314.235 171.552 310.969 168.122C307.86 164.857 307.332 160.003 309.525 156.081C310.081 155.085 310.632 154.079 311.165 153.064C311.982 151.505 312.176 150.236 311.871 149.177C311.567 148.118 310.732 147.158 309.248 146.286C302.378 142.252 295.504 138.23 288.618 134.249L288.868 133.816L288.618 134.249C287.261 133.464 286.11 133.264 285.135 133.527C284.158 133.792 283.247 134.551 282.436 135.919C281.895 136.832 281.369 137.773 280.84 138.721C279.878 140.443 278.905 142.187 277.808 143.819L277.805 143.823C277.485 144.29 276.914 144.676 276.349 144.923C275.788 145.168 275.113 145.327 274.553 145.216L274.55 145.215C272.815 144.86 271.105 144.406 269.412 143.945C269.195 143.886 268.977 143.827 268.76 143.767C267.284 143.364 265.819 142.964 264.342 142.621L264.455 142.134L264.342 142.621C263.471 142.419 262.75 142.104 262.27 141.524C261.783 140.937 261.615 140.164 261.649 139.211L261.649 139.208C261.769 136.269 261.761 133.312 261.657 130.37L261.657 130.368C261.608 128.783 261.124 127.587 260.325 126.787C259.527 125.988 258.361 125.527 256.837 125.52L256.837 125.52C254.038 125.503 251.238 125.545 248.433 125.586C247.218 125.605 246.002 125.623 244.785 125.636L244.774 125.636C243.531 125.623 242.292 125.598 241.056 125.572C238.373 125.516 235.704 125.46 233.034 125.54L233.033 125.54C231.318 125.586 230.173 126.053 229.443 126.861C228.705 127.677 228.309 128.93 228.294 130.722L228.294 130.722C228.289 131.216 228.284 131.71 228.278 132.202C228.252 134.363 228.227 136.509 228.317 138.649L228.317 138.649C228.362 139.726 228.296 140.706 227.793 141.452C227.27 142.229 226.363 142.631 225.044 142.783L225.043 142.783C222.452 143.077 219.845 143.903 217.386 144.922C215.829 145.57 214.512 145.72 213.392 145.213C212.283 144.711 211.504 143.623 210.869 142.128C210.061 140.23 208.898 138.459 207.723 136.671C207.614 136.505 207.504 136.338 207.395 136.171L207.394 136.169C206.398 134.631 205.439 133.84 204.427 133.598C203.416 133.355 202.219 133.628 200.671 134.536L200.671 134.536C193.808 138.558 186.95 142.6 180.112 146.658L180.111 146.659C178.825 147.419 178.119 148.226 177.863 149.102C177.608 149.977 177.767 151.037 178.47 152.378L178.471 152.379C181.625 158.451 180.772 165.72 176.261 170.868C176.002 171.165 175.744 171.462 175.488 171.761L175.487 171.762C174.755 172.612 174.009 173.235 173.121 173.396C172.215 173.56 171.301 173.221 170.292 172.497C168.045 170.887 165.544 169.601 163.032 168.316C161.706 167.64 160.624 167.468 159.724 167.71C158.829 167.951 158.007 168.631 157.26 169.893C153.089 176.967 148.98 184.071 144.999 191.246C144.191 192.711 143.999 193.825 144.272 194.76C144.549 195.705 145.338 196.596 146.792 197.527L146.794 197.528C149.155 199.053 151.572 200.499 154.052 201.784C154.924 202.235 155.633 202.734 155.984 203.473C156.343 204.229 156.272 205.111 155.9 206.185C154.91 209.07 154.242 212.074 153.568 215.099C153.514 215.343 153.46 215.587 153.405 215.831L153.405 215.831C153.21 216.699 152.905 217.433 152.338 217.931C151.759 218.439 150.991 218.629 150.035 218.592L150.034 218.592C147.136 218.476 144.218 218.468 141.321 218.584C139.532 218.66 138.368 219.099 137.64 219.87C136.911 220.642 136.528 221.844 136.524 223.655L136.524 223.656C136.492 231.615 136.492 239.57 136.524 247.521C136.532 249.287 136.951 250.473 137.711 251.23C138.473 251.987 139.67 252.404 141.435 252.427C141.436 252.427 141.436 252.427 141.436 252.427L141.43 252.927C142.017 252.934 142.605 252.944 143.192 252.954C145.422 252.992 147.653 253.03 149.874 252.887L348.236 218.572ZM348.236 218.572C350.003 218.603 351.279 219.068 352.118 219.886C352.954 220.702 353.431 221.941 353.447 223.68C353.447 223.717 353.452 223.753 353.46 223.789M348.236 218.572L353.46 223.789M343.62 197.868C341.09 199.512 338.451 201.01 335.82 202.497C334.411 203.301 333.918 204.109 334.515 205.901L343.62 197.868ZM343.62 197.868C346.371 196.084 346.912 193.633 345.29 190.776L343.62 197.868ZM207.294 335.202L207.295 335.201C208.909 332.645 210.429 330.018 211.882 327.354C212.302 326.58 212.781 325.974 213.466 325.687C214.158 325.398 214.942 325.48 215.856 325.793L215.857 325.794C218.888 326.845 222.036 327.606 225.188 328.368L225.369 328.412L225.371 328.412C226.296 328.64 227.112 328.969 227.66 329.593C228.224 330.236 228.431 331.103 228.34 332.232C228.247 333.419 228.272 334.62 228.299 335.851L228.3 335.892C228.326 337.101 228.354 338.338 228.26 339.568L228.26 339.568C228.175 340.686 228.454 341.589 228.977 342.328C229.507 343.076 230.307 343.683 231.298 344.16C233.289 345.117 235.954 345.5 238.383 345.5H251.637C254.063 345.5 256.711 345.111 258.691 344.148C259.677 343.669 260.474 343.059 261.004 342.308C261.528 341.565 261.81 340.659 261.734 339.54L261.734 339.54C261.557 336.876 261.565 334.176 261.775 331.515C261.817 330.978 262.102 330.381 262.444 329.908C262.78 329.442 263.259 328.975 263.782 328.817L263.783 328.817C266.371 328.038 268.99 327.358 271.639 326.688C274.652 325.926 277.812 327.25 279.364 329.946C279.573 330.31 279.781 330.672 279.988 331.034C280.64 332.17 281.286 333.297 281.963 334.407C283.177 336.384 284.139 337.353 285.183 337.643C286.219 337.931 287.502 337.594 289.494 336.46L289.494 336.46C294.469 333.629 299.406 330.722 304.349 327.812C305.926 326.883 307.504 325.954 309.084 325.027C310.748 324.049 311.642 322.989 311.929 321.824C312.218 320.654 311.925 319.251 310.93 317.518L310.93 317.518C307.81 312.079 308.603 305.145 313.093 300.737C313.837 300.007 314.589 299.284 315.353 298.573C315.572 298.366 315.859 298.243 316.135 298.17C316.419 298.095 316.732 298.063 317.04 298.062C317.647 298.059 318.316 298.18 318.802 298.427M207.294 335.202L326.158 303.265C329.045 304.908 331.548 304.442 333.162 301.678C337.358 294.489 341.454 287.24 345.47 279.955M207.294 335.202C206.45 336.547 205.586 337.296 204.666 337.563C203.755 337.828 202.673 337.653 201.316 336.889L207.294 335.202ZM318.802 298.427L318.575 298.873L318.801 298.427C318.801 298.427 318.801 298.427 318.802 298.427ZM318.802 298.427C320.412 299.244 321.986 300.196 323.542 301.136C324.502 301.717 325.455 302.292 326.405 302.83L326.406 302.83C327.783 303.615 329.003 303.858 330.032 303.636C331.05 303.416 331.975 302.719 332.73 301.426C336.924 294.241 341.018 286.996 345.032 279.714M345.032 279.714L345.47 279.955M345.032 279.714C345.762 278.385 345.922 277.286 345.642 276.344C345.36 275.394 344.599 274.497 343.263 273.645L343.262 273.645C340.814 272.072 338.305 270.591 335.756 269.19L335.755 269.189C334.956 268.748 334.304 268.259 333.981 267.547C333.653 266.82 333.718 265.98 334.061 264.96L334.062 264.958C334.963 262.31 335.592 259.559 336.227 256.785C336.363 256.19 336.499 255.593 336.639 254.995M345.032 279.714C345.032 279.714 345.032 279.713 345.032 279.713L345.47 279.955M345.47 279.955L336.639 254.995M336.639 254.995C336.639 254.996 336.639 254.996 336.639 254.996L337.126 255.109M336.639 254.995L335.997 268.751C334.439 267.892 333.882 267.06 334.535 265.119C335.445 262.444 336.081 259.664 336.716 256.889C336.852 256.295 336.987 255.701 337.126 255.109M336.639 254.995L337.126 255.109M336.639 254.995C336.821 254.213 337.097 253.526 337.621 253.051C338.16 252.562 338.88 252.369 339.789 252.399L339.792 252.4C342.791 252.515 345.805 252.472 348.822 252.423M337.126 255.109C337.474 253.61 338.111 252.843 339.772 252.899C342.787 253.016 345.815 252.972 348.83 252.923M348.822 252.423C348.821 252.423 348.821 252.423 348.821 252.423L348.83 252.923M348.822 252.423C350.386 252.397 351.52 251.976 352.266 251.246C353.009 250.518 353.44 249.411 353.451 247.857V247.856C353.515 239.836 353.515 231.809 353.46 223.789M348.822 252.423L348.83 252.923M348.83 252.923L353.46 223.789M277.393 143.54C276.9 144.259 275.483 144.89 274.65 144.726L282.005 135.664C281.45 136.601 280.919 137.554 280.387 138.506C279.433 140.214 278.48 141.923 277.393 143.54Z" stroke="white" stroke-opacity="0.4"/>
<path opacity="0.6" d="M356.236 222.572L356.235 222.572C355.243 222.552 354.253 222.567 353.252 222.582C352.843 222.588 352.432 222.595 352.018 222.598C350.603 222.611 349.174 222.597 347.75 222.453L347.75 222.453C347.141 222.391 346.481 222.034 345.954 221.611C345.428 221.188 344.936 220.619 344.743 220.035L344.743 220.034C344.212 218.417 343.813 216.76 343.419 215.126L343.389 215.001C342.984 213.319 342.582 211.664 342.041 210.06L342.041 210.059C341.726 209.112 341.661 208.321 341.956 207.632C342.246 206.951 342.842 206.48 343.573 206.063L343.574 206.062C346.206 204.574 348.832 203.083 351.348 201.449L351.348 201.449C352.65 200.605 353.369 199.643 353.608 198.611C353.847 197.577 353.626 196.38 352.855 195.023C349.143 188.489 345.429 181.961 341.639 175.479C340.202 173.024 339.085 171.881 337.845 171.595C336.595 171.307 335.033 171.842 332.561 173.347C332.234 173.546 331.906 173.744 331.578 173.94C327.498 176.382 322.235 175.552 318.969 172.122C315.86 168.857 315.332 164.003 317.525 160.081C318.081 159.085 318.632 158.079 319.165 157.064C319.982 155.505 320.176 154.236 319.871 153.177C319.567 152.118 318.732 151.158 317.248 150.286C310.378 146.252 303.504 142.23 296.618 138.249L296.868 137.816L296.618 138.249C295.261 137.464 294.11 137.264 293.135 137.527C292.158 137.792 291.247 138.551 290.436 139.919C289.895 140.832 289.369 141.773 288.84 142.721C287.878 144.443 286.905 146.187 285.808 147.819L285.805 147.823C285.485 148.29 284.914 148.676 284.349 148.923C283.788 149.168 283.113 149.327 282.553 149.216L282.55 149.215C280.815 148.86 279.105 148.406 277.412 147.945C277.195 147.886 276.977 147.827 276.76 147.767C275.284 147.364 273.819 146.964 272.342 146.621L272.455 146.134L272.342 146.621C271.471 146.419 270.75 146.104 270.27 145.524C269.783 144.937 269.615 144.164 269.649 143.211L269.649 143.208C269.769 140.269 269.761 137.312 269.657 134.37L269.657 134.368C269.608 132.783 269.124 131.587 268.325 130.787C267.527 129.988 266.361 129.527 264.837 129.52L264.837 129.52C262.038 129.503 259.238 129.545 256.433 129.586C255.218 129.605 254.002 129.623 252.785 129.636L252.774 129.636C251.531 129.623 250.292 129.598 249.056 129.572C246.373 129.516 243.704 129.46 241.034 129.54L241.033 129.54C239.318 129.586 238.173 130.053 237.443 130.861C236.705 131.677 236.309 132.93 236.294 134.722L236.294 134.722C236.289 135.216 236.284 135.71 236.278 136.202C236.252 138.363 236.227 140.509 236.317 142.649L236.317 142.649C236.362 143.726 236.296 144.706 235.793 145.452C235.27 146.229 234.363 146.631 233.044 146.783L233.043 146.783C230.452 147.077 227.845 147.903 225.386 148.922C223.829 149.57 222.512 149.72 221.392 149.213C220.283 148.711 219.504 147.623 218.869 146.128C218.061 144.23 216.898 142.459 215.723 140.671C215.614 140.505 215.504 140.338 215.395 140.171L215.394 140.169C214.398 138.631 213.439 137.84 212.427 137.598C211.416 137.355 210.219 137.628 208.671 138.536L208.671 138.536C201.808 142.558 194.95 146.6 188.112 150.658L188.111 150.659C186.825 151.419 186.119 152.226 185.863 153.102C185.608 153.977 185.767 155.037 186.47 156.378L186.471 156.379C189.625 162.451 188.772 169.72 184.261 174.868C184.002 175.165 183.744 175.462 183.488 175.761L183.487 175.762C182.755 176.612 182.009 177.235 181.121 177.396C180.215 177.56 179.301 177.221 178.292 176.497C176.045 174.887 173.544 173.601 171.032 172.316C169.706 171.64 168.624 171.468 167.724 171.71C166.829 171.951 166.007 172.631 165.26 173.893C161.089 180.967 156.98 188.071 152.999 195.246C152.191 196.711 151.999 197.825 152.272 198.76C152.549 199.705 153.338 200.596 154.792 201.527L154.794 201.528C157.155 203.053 159.572 204.499 162.052 205.784C162.924 206.235 163.633 206.734 163.984 207.473C164.343 208.229 164.272 209.111 163.9 210.185C162.91 213.07 162.242 216.074 161.568 219.099C161.514 219.343 161.46 219.587 161.405 219.831L161.405 219.831C161.21 220.699 160.905 221.433 160.338 221.931C159.759 222.439 158.991 222.629 158.035 222.592L158.034 222.592C155.136 222.476 152.218 222.468 149.321 222.584C147.532 222.66 146.368 223.099 145.64 223.87C144.911 224.642 144.528 225.844 144.524 227.655L144.524 227.656C144.492 235.615 144.492 243.57 144.524 251.521C144.532 253.287 144.951 254.473 145.711 255.23C146.473 255.987 147.67 256.404 149.435 256.427C149.436 256.427 149.436 256.427 149.436 256.427L149.43 256.927C150.017 256.934 150.605 256.944 151.192 256.954C153.422 256.992 155.653 257.03 157.874 256.887L356.236 222.572ZM356.236 222.572C358.003 222.603 359.279 223.068 360.118 223.886C360.954 224.702 361.431 225.941 361.447 227.68C361.447 227.717 361.452 227.753 361.46 227.789M356.236 222.572L361.46 227.789M351.62 201.868C349.09 203.512 346.451 205.01 343.82 206.497C342.411 207.301 341.918 208.109 342.515 209.901L351.62 201.868ZM351.62 201.868C354.371 200.084 354.912 197.633 353.29 194.776L351.62 201.868ZM215.294 339.202L215.295 339.201C216.909 336.645 218.429 334.018 219.882 331.354C220.302 330.58 220.781 329.974 221.466 329.687C222.158 329.398 222.942 329.48 223.856 329.793L223.857 329.794C226.888 330.845 230.036 331.606 233.188 332.368L233.369 332.412L233.371 332.412C234.296 332.64 235.112 332.969 235.66 333.593C236.224 334.236 236.431 335.103 236.34 336.232C236.247 337.419 236.272 338.62 236.299 339.851L236.3 339.892C236.326 341.101 236.354 342.338 236.26 343.568L236.26 343.568C236.175 344.686 236.454 345.589 236.977 346.328C237.507 347.076 238.307 347.683 239.298 348.16C241.289 349.117 243.954 349.5 246.383 349.5H259.637C262.063 349.5 264.711 349.111 266.691 348.148C267.677 347.669 268.474 347.059 269.004 346.308C269.528 345.565 269.81 344.659 269.734 343.54L269.734 343.54C269.557 340.876 269.565 338.176 269.775 335.515C269.817 334.978 270.102 334.381 270.444 333.908C270.78 333.442 271.259 332.975 271.782 332.817L271.783 332.817C274.371 332.038 276.99 331.358 279.639 330.688C282.652 329.926 285.812 331.25 287.364 333.946C287.573 334.31 287.781 334.672 287.988 335.034C288.64 336.17 289.286 337.297 289.963 338.407C291.177 340.384 292.139 341.353 293.183 341.643C294.219 341.931 295.502 341.594 297.494 340.46L297.494 340.46C302.469 337.629 307.406 334.722 312.349 331.812C313.926 330.883 315.504 329.954 317.084 329.027C318.748 328.049 319.642 326.989 319.929 325.824C320.218 324.654 319.925 323.251 318.93 321.518L318.93 321.518C315.81 316.079 316.603 309.145 321.093 304.737C321.837 304.007 322.589 303.284 323.353 302.573C323.572 302.366 323.859 302.243 324.135 302.17C324.419 302.095 324.732 302.063 325.04 302.062C325.647 302.059 326.316 302.18 326.802 302.427M215.294 339.202L334.158 307.265C337.045 308.908 339.548 308.442 341.162 305.678C345.358 298.489 349.454 291.24 353.47 283.955M215.294 339.202C214.45 340.547 213.586 341.296 212.666 341.563C211.755 341.828 210.673 341.653 209.316 340.889L215.294 339.202ZM326.802 302.427L326.575 302.873L326.801 302.427C326.801 302.427 326.801 302.427 326.802 302.427ZM326.802 302.427C328.412 303.244 329.986 304.196 331.542 305.136C332.502 305.717 333.455 306.292 334.405 306.83L334.406 306.83C335.783 307.615 337.003 307.858 338.032 307.636C339.05 307.416 339.975 306.719 340.73 305.426C344.924 298.241 349.018 290.996 353.032 283.714M353.032 283.714L353.47 283.955M353.032 283.714C353.762 282.385 353.922 281.286 353.642 280.344C353.36 279.394 352.599 278.497 351.263 277.645L351.262 277.645C348.814 276.072 346.305 274.591 343.756 273.19L343.755 273.189C342.956 272.748 342.304 272.259 341.981 271.547C341.653 270.82 341.718 269.98 342.061 268.96L342.062 268.958C342.963 266.31 343.592 263.559 344.227 260.785C344.363 260.19 344.499 259.593 344.639 258.995M353.032 283.714C353.032 283.714 353.032 283.713 353.032 283.713L353.47 283.955M353.47 283.955L344.639 258.995M344.639 258.995C344.639 258.996 344.639 258.996 344.639 258.996L345.126 259.109M344.639 258.995L343.997 272.751C342.439 271.892 341.882 271.06 342.535 269.119C343.445 266.444 344.081 263.664 344.716 260.889C344.852 260.295 344.987 259.701 345.126 259.109M344.639 258.995L345.126 259.109M344.639 258.995C344.821 258.213 345.097 257.526 345.621 257.051C346.16 256.562 346.88 256.369 347.789 256.399L347.792 256.4C350.791 256.515 353.805 256.472 356.822 256.423M345.126 259.109C345.474 257.61 346.111 256.843 347.772 256.899C350.787 257.016 353.815 256.972 356.83 256.923M356.822 256.423C356.821 256.423 356.821 256.423 356.821 256.423L356.83 256.923M356.822 256.423C358.386 256.397 359.52 255.976 360.266 255.246C361.009 254.518 361.44 253.411 361.451 251.857V251.856C361.515 243.836 361.515 235.809 361.46 227.789M356.822 256.423L356.83 256.923M356.83 256.923L361.46 227.789M285.393 147.54C284.9 148.259 283.483 148.89 282.65 148.726L290.005 139.664C289.45 140.601 288.919 141.554 288.387 142.506C287.433 144.214 286.48 145.923 285.393 147.54Z" stroke="white" stroke-opacity="0.4"/>
<g filter="url(#filter0_i_131_2097)">
<path d="M345.953 215.682C345.95 215.682 345.947 215.679 345.947 215.676C345.913 212.023 343.935 210.137 340.245 210.072C337.43 210.016 334.591 210.237 331.8 209.956C330.855 209.859 329.518 208.786 329.218 207.878C328.145 204.607 327.612 201.156 326.515 197.901C325.918 196.109 326.411 195.301 327.82 194.497C330.451 193.01 333.09 191.512 335.62 189.868C338.371 188.084 338.912 185.633 337.29 182.776C333.578 176.242 329.862 169.712 326.071 163.227C323.2 158.32 321.23 157.918 316.301 160.92C315.975 161.119 315.648 161.316 315.322 161.511C311.45 163.828 306.443 163.045 303.331 159.778C300.378 156.676 299.872 152.063 301.961 148.324C302.519 147.327 303.072 146.316 303.608 145.297C305.309 142.05 304.593 139.671 301.501 137.855C294.63 133.82 287.755 129.798 280.868 125.816C278.013 124.164 275.707 124.795 274.005 127.664C272.456 130.28 271.086 133.021 269.393 135.54C268.9 136.259 267.483 136.89 266.65 136.726C263.214 136.022 259.867 134.925 256.455 134.134C254.794 133.748 254.085 133.013 254.149 131.228C254.269 128.275 254.261 125.305 254.157 122.352C254.053 118.997 252.091 117.036 248.84 117.02C244.823 116.996 240.795 117.092 236.779 117.136C232.859 117.096 228.931 116.923 225.019 117.04C221.428 117.136 219.826 119.013 219.794 122.718C219.77 125.37 219.706 128.026 219.818 130.67C219.906 132.812 219.502 133.997 216.987 134.286C214.332 134.588 211.678 135.432 209.195 136.46C206.188 137.71 204.566 136.846 203.329 133.933C202.424 131.807 201.087 129.842 199.813 127.897C197.763 124.731 195.609 124.233 192.418 126.105C185.555 130.127 178.696 134.17 171.857 138.228C169.17 139.816 168.557 141.805 170.027 144.61C173.087 150.5 172.26 157.546 167.885 162.539C167.625 162.837 167.366 163.135 167.108 163.435C165.679 165.095 164.509 165.473 162.583 164.09C160.301 162.455 157.766 161.153 155.26 159.871C152.485 158.457 150.403 158.979 148.829 161.639C144.657 168.716 140.545 175.824 136.561 183.005C134.883 186.047 135.536 188.036 138.523 189.948C140.893 191.479 143.324 192.934 145.822 194.228C147.532 195.112 148.137 195.972 147.428 198.021C146.347 201.172 145.646 204.459 144.917 207.722C144.545 209.381 143.82 210.161 142.054 210.092C139.143 209.976 136.212 209.968 133.301 210.084C129.598 210.241 128.032 211.917 128.024 215.654C127.992 223.614 127.992 231.57 128.024 239.523C128.04 243.195 129.766 244.879 133.43 244.927C136.244 244.959 139.067 245.068 141.874 244.887C143.68 244.783 144.385 245.582 144.785 247.17C145.65 250.613 146.695 254.017 147.416 257.485C147.592 258.361 147.092 259.847 146.407 260.338C144.116 261.973 141.582 263.259 139.179 264.722C135.516 266.956 134.871 269.001 136.961 272.794C140.777 279.73 144.697 286.601 148.649 293.449C150.247 296.221 152.633 296.82 155.548 295.233C156.419 294.758 157.286 294.274 158.143 293.79C162.079 291.564 167.038 292.243 170.212 295.462C173.333 298.627 173.926 303.437 171.74 307.308C171.232 308.208 170.722 309.117 170.215 310.028C168.682 312.777 169.094 315.329 171.661 316.868C178.744 321.111 185.883 325.266 193.071 329.324C195.917 330.928 197.968 330.257 199.717 327.468C201.339 324.9 202.865 322.264 204.322 319.592C205.127 318.105 205.96 317.671 207.694 318.266C210.809 319.347 214.044 320.122 217.251 320.898C219.049 321.34 220.01 322.091 219.842 324.193C219.65 326.624 219.946 329.099 219.762 331.53C219.387 336.45 225.449 338 230.383 338H243.637C248.568 338 254.568 336.425 254.233 331.506C254.057 328.866 254.065 326.19 254.273 323.554C254.337 322.734 255.194 321.517 255.927 321.296C258.503 320.52 261.113 319.842 263.761 319.173C266.559 318.465 269.491 319.695 270.93 322.196C271.795 323.695 272.64 325.198 273.537 326.668C275.971 330.634 277.733 331.177 281.741 328.894C288.308 325.157 294.811 321.288 301.337 317.458C304.789 315.429 305.417 312.845 303.363 309.269C300.352 304.018 301.124 297.335 305.443 293.094C306.185 292.365 306.935 291.645 307.696 290.937C308.236 290.423 309.786 290.471 310.575 290.873C313.173 292.191 315.616 293.826 318.158 295.265C321.045 296.908 323.548 296.442 325.162 293.678C329.358 286.489 333.454 279.24 337.47 271.955C339.012 269.15 338.311 266.996 335.532 265.224C333.074 263.645 330.555 262.158 327.997 260.751C326.439 259.892 325.882 259.06 326.535 257.119C327.64 253.872 328.341 250.469 329.126 247.109C329.474 245.61 330.111 244.843 331.772 244.899C334.787 245.016 337.815 244.972 340.83 244.923C344.121 244.867 345.927 243.147 345.951 239.86C346.015 231.805 346.015 223.743 345.959 215.688C345.959 215.685 345.956 215.682 345.953 215.682Z" fill="#C49110"/>
</g>
<path d="M340.236 210.572L340.235 210.572C339.243 210.552 338.253 210.567 337.252 210.582C336.843 210.588 336.432 210.595 336.018 210.598C334.603 210.611 333.174 210.597 331.75 210.453L331.75 210.453C331.141 210.391 330.481 210.034 329.954 209.611C329.428 209.188 328.936 208.619 328.743 208.035L328.743 208.034C328.212 206.417 327.813 204.76 327.419 203.126L327.389 203.001C326.984 201.319 326.582 199.664 326.041 198.06L326.041 198.059C325.726 197.112 325.661 196.321 325.956 195.632C326.246 194.951 326.842 194.48 327.573 194.063L327.574 194.062C330.206 192.574 332.832 191.083 335.348 189.449L335.348 189.449C336.65 188.605 337.369 187.643 337.608 186.611C337.847 185.577 337.626 184.38 336.855 183.023C333.143 176.489 329.429 169.961 325.639 163.479C324.202 161.024 323.085 159.881 321.845 159.595C320.595 159.307 319.033 159.842 316.561 161.347C316.234 161.546 315.906 161.744 315.578 161.94C311.498 164.382 306.235 163.552 302.969 160.122C299.86 156.857 299.332 152.003 301.525 148.081C302.081 147.085 302.632 146.079 303.165 145.064C303.982 143.505 304.176 142.236 303.871 141.177C303.567 140.118 302.732 139.158 301.248 138.286C294.378 134.252 287.504 130.23 280.618 126.249L280.868 125.816L280.618 126.249C279.261 125.464 278.11 125.264 277.135 125.527C276.158 125.792 275.247 126.551 274.436 127.919C273.895 128.832 273.369 129.773 272.84 130.721C271.878 132.443 270.905 134.187 269.808 135.819L269.805 135.823C269.485 136.29 268.914 136.676 268.349 136.923C267.788 137.168 267.113 137.327 266.553 137.216L266.55 137.215C264.815 136.86 263.105 136.406 261.412 135.945C261.195 135.886 260.977 135.827 260.76 135.767C259.284 135.364 257.819 134.964 256.342 134.621L256.455 134.134L256.342 134.621C255.471 134.419 254.75 134.104 254.27 133.524C253.783 132.937 253.615 132.164 253.649 131.211L253.649 131.208C253.769 128.269 253.761 125.312 253.657 122.37L253.657 122.368C253.608 120.783 253.124 119.587 252.325 118.787C251.527 117.988 250.361 117.527 248.837 117.52L248.837 117.52C246.038 117.503 243.238 117.545 240.433 117.586C239.218 117.605 238.002 117.623 236.785 117.636L236.774 117.636C235.531 117.623 234.292 117.598 233.056 117.572C230.373 117.516 227.704 117.46 225.034 117.54L225.033 117.54C223.318 117.586 222.173 118.053 221.443 118.861C220.705 119.677 220.309 120.93 220.294 122.722L220.294 122.722C220.289 123.216 220.284 123.71 220.278 124.202C220.252 126.363 220.227 128.509 220.317 130.649L220.317 130.649C220.362 131.726 220.296 132.706 219.793 133.452C219.27 134.229 218.363 134.631 217.044 134.783L217.043 134.783C214.452 135.077 211.845 135.903 209.386 136.922C207.829 137.57 206.512 137.72 205.392 137.213C204.283 136.711 203.504 135.623 202.869 134.128C202.061 132.23 200.898 130.459 199.723 128.671C199.614 128.505 199.504 128.338 199.395 128.171L199.394 128.169C198.398 126.631 197.439 125.84 196.427 125.598C195.416 125.355 194.219 125.628 192.671 126.536L192.671 126.536C185.808 130.558 178.95 134.6 172.112 138.658L172.111 138.659C170.825 139.419 170.119 140.226 169.863 141.102C169.608 141.977 169.767 143.037 170.47 144.378L170.471 144.379C173.625 150.451 172.772 157.72 168.261 162.868C168.002 163.165 167.744 163.462 167.488 163.761L167.487 163.762C166.755 164.612 166.009 165.235 165.121 165.396C164.215 165.56 163.301 165.221 162.292 164.497C160.045 162.887 157.544 161.601 155.032 160.316C153.706 159.64 152.624 159.468 151.724 159.71C150.829 159.951 150.007 160.631 149.26 161.893C145.089 168.967 140.98 176.071 136.999 183.246C136.191 184.711 135.999 185.825 136.272 186.76C136.549 187.705 137.338 188.596 138.792 189.527L138.794 189.528C141.155 191.053 143.572 192.499 146.052 193.784C146.924 194.235 147.633 194.734 147.984 195.473C148.343 196.229 148.272 197.111 147.9 198.185C146.91 201.07 146.242 204.074 145.568 207.099C145.514 207.343 145.46 207.587 145.405 207.831L145.405 207.831C145.21 208.699 144.905 209.433 144.338 209.931C143.759 210.439 142.991 210.629 142.035 210.592L142.034 210.592C139.136 210.476 136.218 210.468 133.321 210.584C131.532 210.66 130.368 211.099 129.64 211.87C128.911 212.642 128.528 213.844 128.524 215.655L128.524 215.656C128.492 223.615 128.492 231.57 128.524 239.521C128.532 241.287 128.951 242.473 129.711 243.23C130.473 243.987 131.67 244.404 133.435 244.427C133.436 244.427 133.436 244.427 133.436 244.427L133.43 244.927C134.017 244.934 134.605 244.944 135.192 244.954C137.422 244.992 139.653 245.03 141.874 244.887L340.236 210.572ZM340.236 210.572C342.003 210.603 343.279 211.068 344.118 211.886C344.954 212.702 345.431 213.941 345.447 215.68C345.447 215.717 345.452 215.753 345.46 215.789M340.236 210.572L345.46 215.789M335.62 189.868C333.09 191.512 330.451 193.01 327.82 194.497C326.411 195.301 325.918 196.109 326.515 197.901L335.62 189.868ZM335.62 189.868C338.371 188.084 338.912 185.633 337.29 182.776L335.62 189.868ZM199.294 327.202L199.295 327.201C200.909 324.645 202.429 322.018 203.882 319.354C204.302 318.58 204.781 317.974 205.466 317.687C206.158 317.398 206.942 317.48 207.856 317.793L207.857 317.794C210.888 318.845 214.036 319.606 217.188 320.368L217.369 320.412L217.371 320.412C218.296 320.64 219.112 320.969 219.66 321.593C220.224 322.236 220.431 323.103 220.34 324.232C220.247 325.419 220.272 326.62 220.299 327.851L220.3 327.892C220.326 329.101 220.354 330.338 220.26 331.568L220.26 331.568C220.175 332.686 220.454 333.589 220.977 334.328C221.507 335.076 222.307 335.683 223.298 336.16C225.289 337.117 227.954 337.5 230.383 337.5H243.637C246.063 337.5 248.711 337.111 250.691 336.148C251.677 335.669 252.474 335.059 253.004 334.308C253.528 333.565 253.81 332.659 253.734 331.54L253.734 331.54C253.557 328.876 253.565 326.176 253.775 323.515C253.817 322.978 254.102 322.381 254.444 321.908C254.78 321.442 255.259 320.975 255.782 320.817L255.783 320.817C258.371 320.038 260.99 319.358 263.639 318.688C266.652 317.926 269.812 319.25 271.364 321.946C271.573 322.31 271.781 322.672 271.988 323.034C272.64 324.17 273.286 325.297 273.963 326.407C275.177 328.384 276.139 329.353 277.183 329.643C278.219 329.931 279.502 329.594 281.494 328.46L281.494 328.46C286.469 325.629 291.406 322.722 296.349 319.812C297.926 318.883 299.504 317.954 301.084 317.027C302.748 316.049 303.642 314.989 303.929 313.824C304.218 312.654 303.925 311.251 302.93 309.518L302.93 309.518C299.81 304.079 300.603 297.145 305.093 292.737C305.837 292.007 306.589 291.284 307.353 290.573C307.572 290.366 307.859 290.243 308.135 290.17C308.419 290.095 308.732 290.063 309.04 290.062C309.647 290.059 310.316 290.18 310.802 290.427M199.294 327.202L318.158 295.265C321.045 296.908 323.548 296.442 325.162 293.678C329.358 286.489 333.454 279.24 337.47 271.955M199.294 327.202C198.45 328.547 197.586 329.296 196.666 329.563C195.755 329.828 194.673 329.653 193.316 328.889L199.294 327.202ZM310.802 290.427L310.575 290.873L310.801 290.427C310.801 290.427 310.801 290.427 310.802 290.427ZM310.802 290.427C312.412 291.244 313.986 292.196 315.542 293.136C316.502 293.717 317.455 294.292 318.405 294.83L318.406 294.83C319.783 295.615 321.003 295.858 322.032 295.636C323.05 295.416 323.975 294.719 324.73 293.426C328.924 286.241 333.018 278.996 337.032 271.714M337.032 271.714L337.47 271.955M337.032 271.714C337.762 270.385 337.922 269.286 337.642 268.344C337.36 267.394 336.599 266.497 335.263 265.645L335.262 265.645C332.814 264.072 330.305 262.591 327.756 261.19L327.755 261.189C326.956 260.748 326.304 260.259 325.981 259.547C325.653 258.82 325.718 257.98 326.061 256.96L326.062 256.958C326.963 254.31 327.592 251.559 328.227 248.785C328.363 248.19 328.499 247.593 328.639 246.995M337.032 271.714C337.032 271.714 337.032 271.713 337.032 271.713L337.47 271.955M337.47 271.955L328.639 246.995M328.639 246.995C328.639 246.996 328.639 246.996 328.639 246.996L329.126 247.109M328.639 246.995L327.997 260.751C326.439 259.892 325.882 259.06 326.535 257.119C327.445 254.444 328.081 251.664 328.716 248.889C328.852 248.295 328.987 247.701 329.126 247.109M328.639 246.995L329.126 247.109M328.639 246.995C328.821 246.213 329.097 245.526 329.621 245.051C330.16 244.562 330.88 244.369 331.789 244.399L331.792 244.4C334.791 244.515 337.805 244.472 340.822 244.423M329.126 247.109C329.474 245.61 330.111 244.843 331.772 244.899C334.787 245.016 337.815 244.972 340.83 244.923M340.822 244.423C340.821 244.423 340.821 244.423 340.821 244.423L340.83 244.923M340.822 244.423C342.386 244.397 343.52 243.976 344.266 243.246C345.009 242.518 345.44 241.411 345.451 239.857V239.856C345.515 231.836 345.515 223.809 345.46 215.789M340.822 244.423L340.83 244.923M340.83 244.923L345.46 215.789M269.393 135.54C268.9 136.259 267.483 136.89 266.65 136.726L274.005 127.664C273.45 128.601 272.919 129.554 272.387 130.506C271.433 132.214 270.48 133.923 269.393 135.54Z" stroke="white"/>
<path d="M103.968 353.221L103.969 353.221C107.155 354.341 111.046 354.537 115.087 354.74C115.314 354.752 115.541 354.763 115.769 354.775C120.088 354.996 124.583 355.283 128.78 356.682C132.976 358.115 136.899 360.664 139.64 363.691C142.388 366.726 143.893 370.176 143.411 373.43C143.169 375.044 142.428 376.654 141.347 378.327C140.265 380.001 138.865 381.709 137.331 383.524C137.083 383.817 136.832 384.112 136.579 384.41C133.708 387.793 130.52 391.548 128.354 396.005C126.274 400.225 125.127 405.056 124.046 409.608C123.886 410.28 123.728 410.947 123.568 411.604C122.316 416.763 120.988 421.328 118.322 424.236L118.32 424.239C115.675 427.155 111.679 428.483 107.251 428.5C102.825 428.516 98.0214 427.219 93.8506 424.949L93.8479 424.948C85.513 420.478 79.84 412.117 77.1357 404.534C76.4981 402.746 76.0254 401.006 75.5639 399.306C75.5365 399.205 75.509 399.104 75.4816 399.003C74.9954 397.215 74.5105 395.468 73.8495 393.802C72.5175 390.444 70.4711 387.418 66.2642 384.877C62.529 382.61 57.1036 380.731 52.2102 379.037C51.6122 378.83 51.0223 378.625 50.4443 378.423C47.772 377.49 45.3574 376.608 43.5536 375.737C42.6514 375.301 41.9232 374.877 41.3986 374.464C40.8669 374.045 40.6027 373.681 40.5227 373.381C40.4591 373.113 40.5233 372.798 40.8098 372.401C41.1023 371.995 41.5941 371.554 42.2798 371.081C43.6484 370.138 45.6639 369.154 48.0109 368.129C49.5795 367.444 51.2945 366.742 53.0433 366.026C56.4795 364.62 60.0461 363.16 62.8884 361.67L62.8884 361.67L62.8927 361.668C69.3186 358.222 72.1482 354.571 74.6502 351.343C75.4858 350.264 76.2849 349.233 77.1693 348.273C78.9832 346.306 81.1533 344.571 83.3772 343.529C85.6029 342.486 87.8308 342.159 89.8131 342.908C90.8121 343.286 91.778 343.948 92.7806 344.796C93.5595 345.454 94.3387 346.204 95.164 346.999C95.4042 347.23 95.6483 347.465 95.8973 347.702C98.0878 349.792 100.614 352.029 103.968 353.221Z" stroke="#FFE49B" stroke-opacity="0.5"/>
<path opacity="0.3" d="M347.53 92.1349L347.529 92.1335C344.205 86.2458 338.587 80.8057 332.678 75.0846C332.355 74.7719 332.032 74.4583 331.707 74.1437C325.423 68.051 318.905 61.572 314.335 53.7724C309.811 45.9227 307.204 36.7202 307.063 28.3583C306.922 19.9856 309.249 12.5402 314.486 8.08645C317.085 5.88259 320.439 4.39216 324.355 3.27338C328.271 2.15438 332.712 1.41648 337.47 0.696237C338.236 0.580255 339.01 0.464771 339.791 0.348246C348.688 -0.978829 358.493 -2.44149 367.675 -6.31885C376.418 -9.9519 384.558 -15.7476 392.281 -21.246C393.422 -22.0585 394.554 -22.8645 395.678 -23.6561C404.449 -29.8354 412.667 -35.109 420.762 -36.0012L420.765 -36.0015C428.871 -36.9407 436.872 -33.5521 443.713 -27.6107C450.552 -21.6708 456.189 -13.2118 459.544 -4.117L459.545 -4.11411C466.343 13.9658 463.81 34.4101 457.786 49.6556C456.366 53.2501 454.757 56.5496 453.195 59.7524C453.101 59.9444 453.007 60.1361 452.914 60.3276C451.268 63.7042 449.69 66.9889 448.486 70.3786C446.07 77.1839 445.165 84.4105 448.15 93.7713C450.801 102.152 456.533 112.199 461.736 121.319C462.37 122.43 462.997 123.529 463.609 124.608C466.435 129.593 468.954 134.181 470.553 137.946C471.353 139.829 471.914 141.485 472.172 142.867C472.431 144.258 472.37 145.299 472.016 146.012C471.664 146.683 470.988 147.145 469.929 147.39C468.86 147.636 467.455 147.646 465.755 147.449C462.358 147.055 457.933 145.854 452.986 144.285C449.656 143.228 446.092 142.006 442.465 140.762C435.368 138.327 428.03 135.81 421.733 134.295L421.729 134.294C407.455 131.002 398.411 132.765 390.309 134.344C387.579 134.876 384.955 135.387 382.275 135.677C376.84 136.261 371.149 136.011 366.289 134.61C361.428 133.208 357.452 130.672 355.342 126.721C354.284 124.739 353.684 122.375 353.282 119.722C352.971 117.662 352.782 115.457 352.584 113.142C352.526 112.472 352.468 111.792 352.406 111.104C351.854 105.004 350.995 98.3214 347.53 92.1349Z" stroke="#FFE49B" stroke-opacity="0.5"/>
<path d="M107.968 361.221L107.969 361.221C111.155 362.341 115.046 362.537 119.087 362.74C119.314 362.752 119.541 362.763 119.769 362.775C124.088 362.996 128.583 363.283 132.78 364.682C136.976 366.115 140.899 368.664 143.64 371.691C146.388 374.726 147.893 378.176 147.411 381.43C147.169 383.044 146.428 384.654 145.347 386.327C144.265 388.001 142.865 389.709 141.331 391.524C141.083 391.817 140.832 392.112 140.579 392.41C137.708 395.793 134.52 399.548 132.354 404.005C130.274 408.225 129.127 413.056 128.046 417.608C127.886 418.28 127.728 418.947 127.568 419.604C126.316 424.763 124.988 429.328 122.322 432.236L122.32 432.239C119.675 435.155 115.679 436.483 111.251 436.5C106.825 436.516 102.021 435.219 97.8506 432.949L97.8479 432.948C89.513 428.478 83.84 420.117 81.1357 412.534C80.4981 410.746 80.0254 409.006 79.5639 407.306C79.5365 407.205 79.509 407.104 79.4816 407.003C78.9954 405.215 78.5105 403.468 77.8495 401.802C76.5175 398.444 74.4711 395.418 70.2642 392.877C66.529 390.61 61.1036 388.731 56.2102 387.037C55.6122 386.83 55.0223 386.625 54.4443 386.423C51.772 385.49 49.3574 384.608 47.5536 383.737C46.6514 383.301 45.9232 382.877 45.3986 382.464C44.8669 382.045 44.6027 381.681 44.5227 381.381C44.4591 381.113 44.5233 380.798 44.8098 380.401C45.1023 379.995 45.5941 379.554 46.2798 379.081C47.6484 378.138 49.6639 377.154 52.0109 376.129C53.5795 375.444 55.2945 374.742 57.0433 374.026C60.4795 372.62 64.0461 371.16 66.8884 369.67L66.8884 369.67L66.8927 369.668C73.3186 366.222 76.1482 362.571 78.6502 359.343C79.4858 358.264 80.2849 357.233 81.1693 356.273C82.9832 354.306 85.1533 352.571 87.3772 351.529C89.6029 350.486 91.8308 350.159 93.8131 350.908C94.8121 351.286 95.778 351.948 96.7806 352.796C97.5595 353.454 98.3387 354.204 99.164 354.999C99.4042 355.23 99.6483 355.465 99.8973 355.702C102.088 357.792 104.614 360.029 107.968 361.221Z" stroke="#FFE49B" stroke-opacity="0.5"/>
<g opacity="0.3">
<path d="M363.093 95.3793C356.171 83.1153 339.121 72.7576 329.902 57.0237C320.774 41.1864 319.373 19.8818 330.162 10.7056C340.861 1.63273 363.645 4.59706 383.482 -3.77999C403.422 -12.0659 420.221 -31.681 436.707 -33.4982C453.284 -35.4188 469.251 -19.6204 476.013 -1.29008C482.867 16.9369 480.307 37.5134 474.251 52.8394C468.195 68.1653 458.732 78.1374 464.626 96.6199C470.534 115.297 491.888 142.381 488.461 149.239C484.93 156.006 456.605 142.351 437.616 137.781C418.642 133.405 409.095 138.01 398.328 139.174C387.367 140.351 375.291 138.18 370.901 129.957C366.511 121.734 369.911 107.552 363.093 95.3793Z" fill="#EBB520" fill-opacity="0.3"/>
<path d="M363.53 95.1349L363.529 95.1335C360.205 89.2458 354.587 83.8057 348.678 78.0846C348.355 77.7719 348.032 77.4583 347.707 77.1437C341.423 71.051 334.905 64.572 330.335 56.7724C325.811 48.9227 323.204 39.7202 323.063 31.3583C322.922 22.9856 325.249 15.5402 330.486 11.0865C333.085 8.88259 336.439 7.39216 340.355 6.27338C344.271 5.15438 348.712 4.41648 353.47 3.69624C354.236 3.58026 355.01 3.46477 355.791 3.34825C364.688 2.02117 374.493 0.558507 383.675 -3.31885C392.418 -6.9519 400.558 -12.7476 408.281 -18.246C409.422 -19.0585 410.554 -19.8645 411.678 -20.6561C420.449 -26.8354 428.667 -32.109 436.762 -33.0012L436.765 -33.0015C444.871 -33.9407 452.872 -30.5521 459.713 -24.6107C466.552 -18.6708 472.189 -10.2118 475.544 -1.117L475.545 -1.11411C482.343 16.9658 479.81 37.4101 473.786 52.6556C472.366 56.2501 470.757 59.5496 469.195 62.7524C469.101 62.9444 469.007 63.1361 468.914 63.3276C467.268 66.7042 465.69 69.9889 464.486 73.3786C462.07 80.1839 461.165 87.4105 464.15 96.7713C466.801 105.152 472.533 115.199 477.736 124.319C478.37 125.43 478.997 126.529 479.609 127.608C482.435 132.593 484.954 137.181 486.553 140.946C487.353 142.829 487.914 144.485 488.172 145.867C488.431 147.258 488.37 148.299 488.016 149.012C487.664 149.683 486.988 150.145 485.929 150.39C484.86 150.636 483.455 150.646 481.755 150.449C478.358 150.055 473.933 148.854 468.986 147.285C465.656 146.228 462.092 145.006 458.465 143.762C451.368 141.327 444.03 138.81 437.733 137.295L437.729 137.294C423.455 134.002 414.411 135.765 406.309 137.344C403.579 137.876 400.955 138.387 398.275 138.677C392.84 139.261 387.149 139.011 382.289 137.61C377.428 136.208 373.452 133.672 371.342 129.721C370.284 127.739 369.684 125.375 369.282 122.722C368.971 120.662 368.782 118.457 368.584 116.142C368.526 115.472 368.468 114.792 368.406 114.104C367.854 108.004 366.995 101.321 363.53 95.1349Z" stroke="#FFE49B" stroke-opacity="0.5"/>
</g>
<g filter="url(#filter1_di_131_2097)">
<path d="M99.135 344.75C105.695 347.056 115.398 345.36 123.94 348.209C132.482 351.125 139.93 358.585 138.905 365.503C137.88 372.354 128.45 378.661 123.804 388.224C119.088 397.787 119.225 410.538 113.69 416.574C108.155 422.678 97.085 422 88.6116 417.388C80.1382 412.844 74.3981 404.366 71.6648 396.702C68.9314 389.038 69.2048 382.256 61.0047 377.305C52.7363 372.286 35.9945 369.166 35.0378 365.503C34.1495 361.841 49.1146 357.704 57.6563 353.227C66.1297 348.683 68.1798 343.868 71.8015 339.934C75.4915 335.933 80.6849 332.813 84.9899 334.44C89.2949 336.068 92.6433 342.444 99.135 344.75Z" fill="#EBB520" fill-opacity="0.3" shape-rendering="crispEdges"/>
</g>
<g filter="url(#filter2_di_131_2097)">
<path d="M379.093 95.7684C372.171 83.5045 355.121 73.1467 345.902 57.4128C336.774 41.5755 335.373 20.271 346.162 11.0947C356.861 2.02189 379.645 4.98622 399.482 -3.39083C419.422 -11.6768 436.221 -31.2918 452.707 -33.109C469.284 -35.0296 485.251 -19.2312 492.013 -0.900916C498.867 17.326 496.307 37.9025 490.251 53.2285C484.195 68.5545 474.732 78.5265 480.626 97.0091C486.534 115.686 507.888 142.77 504.461 149.628C500.93 156.395 472.605 142.74 453.616 138.17C434.642 133.794 425.095 138.399 414.328 139.564C403.367 140.741 391.291 138.569 386.901 130.346C382.511 122.123 385.911 107.941 379.093 95.7684Z" fill="#EBB520" fill-opacity="0.3" shape-rendering="crispEdges"/>
</g>
</g>
<defs>
<filter id="filter0_i_131_2097" x="128" y="117" width="224" height="227" filterUnits="userSpaceOnUse" color-interpolation-filters="sRGB">
<feFlood flood-opacity="0" result="BackgroundImageFix"/>
<feBlend mode="normal" in="SourceGraphic" in2="BackgroundImageFix" result="shape"/>
<feColorMatrix in="SourceAlpha" type="matrix" values="0 0 0 0 0 0 0 0 0 0 0 0 0 0 0 0 0 0 127 0" result="hardAlpha"/>
<feOffset dx="10" dy="9"/>
<feGaussianBlur stdDeviation="3"/>
<feComposite in2="hardAlpha" operator="arithmetic" k2="-1" k3="1"/>
<feColorMatrix type="matrix" values="0 0 0 0 0.583333 0 0 0 0 0.456177 0 0 0 0 0.0607639 0 0 0 1 0"/>
<feBlend mode="normal" in2="shape" result="effect1_innerShadow_131_2097"/>
</filter>
<filter id="filter1_di_131_2097" x="32" y="331" width="116" height="99" filterUnits="userSpaceOnUse" color-interpolation-filters="sRGB">
<feFlood flood-opacity="0" result="BackgroundImageFix"/>
<feColorMatrix in="SourceAlpha" type="matrix" values="0 0 0 0 0 0 0 0 0 0 0 0 0 0 0 0 0 0 127 0" result="hardAlpha"/>
<feOffset dx="3" dy="3"/>
<feGaussianBlur stdDeviation="3"/>
<feComposite in2="hardAlpha" operator="out"/>
<feColorMatrix type="matrix" values="0 0 0 0 0 0 0 0 0 0 0 0 0 0 0 0 0 0 0.25 0"/>
<feBlend mode="normal" in2="BackgroundImageFix" result="effect1_dropShadow_131_2097"/>
<feBlend mode="normal" in="SourceGraphic" in2="effect1_dropShadow_131_2097" result="shape"/>
<feColorMatrix in="SourceAlpha" type="matrix" values="0 0 0 0 0 0 0 0 0 0 0 0 0 0 0 0 0 0 127 0" result="hardAlpha"/>
<feOffset dx="7"/>
<feGaussianBlur stdDeviation="4.5"/>
<feComposite in2="hardAlpha" operator="arithmetic" k2="-1" k3="1"/>
<feColorMatrix type="matrix" values="0 0 0 0 0.991667 0 0 0 0 0.800416 0 0 0 0 0.272708 0 0 0 1 0"/>
<feBlend mode="normal" in2="shape" result="effect2_innerShadow_131_2097"/>
</filter>
<filter id="filter2_di_131_2097" x="335.557" y="-36.2676" width="178.274" height="196.744" filterUnits="userSpaceOnUse" color-interpolation-filters="sRGB">
<feFlood flood-opacity="0" result="BackgroundImageFix"/>
<feColorMatrix in="SourceAlpha" type="matrix" values="0 0 0 0 0 0 0 0 0 0 0 0 0 0 0 0 0 0 127 0" result="hardAlpha"/>
<feOffset dx="3" dy="3"/>
<feGaussianBlur stdDeviation="3"/>
<feComposite in2="hardAlpha" operator="out"/>
<feColorMatrix type="matrix" values="0 0 0 0 0 0 0 0 0 0 0 0 0 0 0 0 0 0 0.15 0"/>
<feBlend mode="normal" in2="BackgroundImageFix" result="effect1_dropShadow_131_2097"/>
<feBlend mode="normal" in="SourceGraphic" in2="effect1_dropShadow_131_2097" result="shape"/>
<feColorMatrix in="SourceAlpha" type="matrix" values="0 0 0 0 0 0 0 0 0 0 0 0 0 0 0 0 0 0 127 0" result="hardAlpha"/>
<feOffset dx="7"/>
<feGaussianBlur stdDeviation="4.5"/>
<feComposite in2="hardAlpha" operator="arithmetic" k2="-1" k3="1"/>
<feColorMatrix type="matrix" values="0 0 0 0 0.966667 0 0 0 0 0.801666 0 0 0 0 0.346389 0 0 0 1 0"/>
<feBlend mode="normal" in2="shape" result="effect2_innerShadow_131_2097"/>
</filter>
<linearGradient id="paint0_linear_131_2097" x1="493.657" y1="-7.50002" x2="-6.4234" y2="485.228" gradientUnits="userSpaceOnUse">
<stop stop-color="#CF9F22"/>
<stop offset="1" stop-color="#FADB8D"/>
</linearGradient>
<linearGradient id="paint1_linear_131_2097" x1="493.657" y1="-7.50002" x2="-6.4234" y2="485.228" gradientUnits="userSpaceOnUse">
<stop stop-color="#BF921F"/>
<stop offset="1" stop-color="#F9D16B"/>
</linearGradient>
</defs>
</svg>
