<svg width="70" height="61" viewBox="0 0 70 61" fill="none" xmlns="http://www.w3.org/2000/svg">
<path d="M57.2382 34.6065C57.1765 37.2728 56.5674 39.799 55.2314 42.1215C55.0016 42.5194 55.0128 42.7474 55.3492 43.0594C56.1526 43.8012 56.9299 44.5747 57.6997 45.3539C57.937 45.5949 58.1612 45.6996 58.4975 45.593C59.3888 45.3053 60.1642 45.5931 60.7994 46.2022C63.4377 48.7358 66.0648 51.2825 68.675 53.8442C69.6559 54.8064 69.7026 56.2152 68.7759 57.2354C67.8211 58.2873 66.8252 59.3038 65.805 60.2922C64.8334 61.2339 63.462 61.2376 62.4773 60.2941C59.8204 57.7474 57.184 55.1782 54.5513 52.6072C53.931 52 53.6694 51.2451 53.8824 50.3782C53.9646 50.04 53.8768 49.8158 53.6246 49.5803C52.9445 48.9451 52.2531 48.3135 51.6347 47.6166C51.1844 47.1084 50.8574 47.0691 50.2744 47.4634C47.6866 49.2197 44.8129 50.1483 41.6758 50.0624C35.1007 49.883 30.4258 46.7309 27.5447 40.8565C27.4737 40.7108 27.4064 40.5613 27.3447 40.4118C26.9872 39.5598 26.3351 39.1344 25.3885 39.1357C19.5159 39.1375 13.6434 39.1487 7.7708 39.1357C4.27305 39.1282 1.51894 37.1906 0.422159 33.9787C-0.282249 31.9122 -0.110351 29.8962 0.97709 28.0015C4.72895 21.4638 8.50323 14.9392 12.27 8.41078C13.1295 6.91975 14.0114 5.43993 14.8485 3.93582C17.6811 -1.15945 24.856 -1.36125 27.8343 3.64435C30.8817 8.76392 33.8189 13.9489 36.7786 19.1208C37.0532 19.601 37.2961 19.7336 37.8399 19.5897C46.2572 17.3513 54.669 22.6316 56.7262 30.75C57.0476 32.015 57.2176 33.3005 57.24 34.6084L57.2382 34.6065ZM16.3601 36.83C16.3601 36.83 16.3601 36.8263 16.3601 36.8225C19.5066 36.8225 22.653 36.8094 25.7995 36.8356C26.3134 36.8393 26.3993 36.6469 26.3171 36.2265C26.0536 34.8793 26.1358 33.5135 26.3731 32.1944C27.2756 27.1832 29.9382 23.3846 34.4262 20.9201C34.8914 20.6641 34.9811 20.4773 34.7046 20.0008C31.8253 15.0513 28.961 10.0924 26.1097 5.1279C25.0577 3.29494 23.4957 2.2729 21.3937 2.29345C19.2917 2.31214 17.7689 3.37902 16.7244 5.21198C14.4916 9.13574 12.2177 13.0371 9.96063 16.9478C7.67924 20.8977 5.39973 24.8495 3.11834 28.7994C2.5223 29.8308 2.14301 30.935 2.3093 32.1252C2.73904 35.1764 5.05593 36.9253 7.89972 36.8468C10.7174 36.7683 13.5406 36.83 16.3601 36.83ZM54.9512 34.5972C54.9811 27.3065 49.0655 21.3853 41.7356 21.3667C34.3907 21.348 28.4135 27.256 28.4658 34.6065C28.5181 41.9813 34.3216 47.7698 41.7057 47.8333C48.9516 47.8969 54.9213 41.8972 54.9512 34.5972ZM59.0225 47.8296C58.9497 47.8894 58.8338 47.9641 58.7404 48.0594C57.9276 48.8927 57.1261 49.7354 56.3039 50.5594C56.0237 50.8397 56.1246 51.0265 56.36 51.2526C58.8226 53.6274 61.2834 56.0022 63.7385 58.3864C64.03 58.6685 64.243 58.7077 64.542 58.3864C65.3192 57.553 66.1133 56.7347 66.9242 55.9331C67.1914 55.6678 67.1653 55.5164 66.9037 55.2642C64.4411 52.8894 61.9915 50.5015 59.5364 48.1211C59.4056 47.9959 59.2916 47.8333 59.0263 47.8296H59.0225ZM56.4067 47.3961C56.274 47.0729 56.1264 46.9813 56.0143 46.8711C55.3379 46.204 54.6429 45.5519 53.9833 44.8681C53.6993 44.5747 53.4658 44.5654 53.2733 44.8999C53.1089 45.1895 52.4474 45.3539 53.0341 45.8752C53.7105 46.475 54.3271 47.1401 54.9848 47.7605C55.1362 47.9025 55.2576 48.2276 55.5323 48.0688C55.848 47.8875 56.1171 47.6241 56.4086 47.3961H56.4067Z" fill="white"/>
<path d="M24.6373 12.7641C24.4972 16.5777 24.3701 20.2286 24.2244 23.8796C24.1702 25.2529 22.8959 26.4151 21.4796 26.43C20.026 26.445 18.7199 25.3146 18.6583 23.8814C18.4901 19.9988 18.3462 16.1124 18.2322 12.2279C18.1781 10.3706 19.3234 9.24209 21.1919 9.20099C23.1014 9.15988 24.1795 9.83439 24.5813 11.3273C24.7233 11.8542 24.5981 12.3923 24.6373 12.7623V12.7641ZM22.1317 17.7996C22.3541 15.9704 22.2438 14.1487 22.3933 12.3381C22.4531 11.6076 22.2849 11.4712 21.5002 11.4637C20.6257 11.4543 20.4576 11.5833 20.4819 12.2895C20.6108 15.9648 20.7435 19.64 20.8742 23.3134C20.8892 23.7394 20.9658 24.1748 21.4871 24.143C21.9617 24.115 22.0047 23.689 21.9972 23.2929C21.9636 21.4525 22.2195 19.6195 22.1317 17.7978V17.7996Z" fill="white"/>
<path d="M18.1949 31.202C18.2211 29.3766 19.6747 27.9659 21.5096 27.9846C23.2622 28.0032 24.7121 29.5017 24.7009 31.2786C24.6897 33.0443 23.1164 34.5765 21.3638 34.526C19.5981 34.4737 18.1688 32.9733 18.1931 31.202H18.1949ZM21.4871 30.2286C20.9901 30.1931 20.5025 30.6247 20.452 31.146C20.4016 31.6785 20.7902 32.1512 21.3152 32.1942C21.9318 32.2465 22.3691 31.899 22.4195 31.316C22.4662 30.7667 22.0402 30.2678 21.4871 30.2267V30.2286Z" fill="white"/>
<path d="M41.6889 46.017C35.3473 46.017 30.2502 40.8806 30.252 34.4924C30.252 28.2816 35.4875 23.0855 41.7225 23.106C48.0734 23.1266 53.1817 28.3153 53.1705 34.7353C53.1593 40.9105 47.9631 46.017 41.6907 46.017H41.6889ZM41.7113 25.408C36.6347 25.3949 32.483 29.4644 32.5166 34.5765C32.5521 39.8362 36.6758 43.7319 41.7001 43.7786C46.7188 43.8272 50.9004 39.6269 50.9134 34.5877C50.9265 29.5204 46.8159 25.421 41.7094 25.408H41.7113Z" fill="white"/>
</svg>
