<svg width="43" height="44" viewBox="0 0 43 44" fill="none" xmlns="http://www.w3.org/2000/svg">
<path d="M25.1211 22.0584C28.1299 22.8346 30.8081 24.246 33.1379 26.4076C33.3216 25.7487 33.5243 25.1467 33.8774 24.6027C34.9902 22.8939 37.0948 22.0857 39.0513 22.6344C39.8666 22.8631 40.0278 23.4366 39.4364 24.0375C38.742 24.7438 38.0464 25.4489 37.3354 26.1385C37.1102 26.3578 37.0877 26.5545 37.1173 26.8733C37.1932 27.6744 37.7181 27.8415 38.3569 27.9576C38.5785 27.9979 38.6851 27.8889 38.8107 27.7656C39.5443 27.0368 40.2755 26.3045 41.0137 25.5792C41.5814 25.0211 42.1822 25.1941 42.3931 25.9715C43.2049 28.9767 40.9462 31.9275 37.8378 31.9239C37.6316 31.9239 37.4254 31.9239 37.1671 31.9239C37.4906 32.7677 37.8378 33.5581 38.0808 34.3888C38.3829 35.4198 38.588 36.4686 38.7254 37.5328C38.7906 38.04 38.4315 38.3919 37.8449 38.3943C36.3221 38.399 34.7994 38.3955 33.2766 38.3955C32.4482 38.3955 31.6211 38.399 30.7927 38.3931C30.5391 38.3907 30.4088 38.3931 30.4621 38.7486C30.8093 41.0405 29.072 43.439 26.7671 43.8965C25.9885 44.0505 25.2171 44.041 24.4515 43.8111C23.7251 43.5919 23.5711 43.0184 24.1079 42.4732C24.8236 41.748 25.5406 41.0227 26.2753 40.3141C26.4946 40.1031 26.6 39.9052 26.459 39.6185C26.446 39.5924 26.4472 39.5604 26.44 39.5319C26.2504 38.834 25.838 38.5152 25.1246 38.495C24.9611 38.4903 24.8888 38.5993 24.7976 38.6894C24.0842 39.398 23.372 40.1067 22.6609 40.8177C21.9795 41.4979 21.4427 41.351 21.1796 40.4089C21.022 39.8472 20.9758 39.2724 21.0552 38.7C21.0896 38.4583 21.0588 38.3919 20.8134 38.3943C19.8524 38.4038 18.8913 38.4026 17.9314 38.3967C17.7359 38.3967 17.628 38.4239 17.6648 38.6633C17.7027 38.9145 17.5688 39.1148 17.3946 39.289C16.8708 39.8104 16.3494 40.3342 15.828 40.858C15.5341 41.1531 15.1951 41.255 14.829 41.0251C14.189 40.6246 13.6167 40.6731 12.9056 40.9753C12.2527 41.2526 11.8889 41.6022 11.6933 42.254C11.5203 42.8311 11.3236 42.9224 10.7062 42.9235C10.026 42.9235 9.34576 42.9141 8.66672 42.9271C8.24366 42.9354 7.9154 42.773 7.82653 42.363C7.65588 41.5738 7.16408 41.2159 6.43054 40.9279C5.82498 40.6897 5.36281 40.6447 4.79044 40.9493C4.1517 41.2894 4.01897 41.2254 3.51414 40.7206C3.04486 40.2501 2.57914 39.7749 2.10157 39.3115C1.78753 39.007 1.66903 38.6669 1.91433 38.2829C2.32554 37.6394 2.25207 37.0599 1.94988 36.3584C1.67969 35.7327 1.37158 35.3535 0.713878 35.171C0.0917288 34.9991 0.00522039 34.7941 0.00403534 34.121C0.00403534 33.4704 0.0158858 32.8198 0.000480203 32.1693C-0.0101852 31.7118 0.155721 31.3646 0.607224 31.2651C1.35854 31.0992 1.6868 30.6121 1.99847 29.9354C2.30895 29.2588 2.28169 28.7184 1.92974 28.1318C1.68088 27.717 1.79346 27.3793 2.11579 27.0641C2.62299 26.5687 3.13019 26.0722 3.6208 25.5602C3.91706 25.251 4.26309 25.149 4.61505 25.3671C5.29171 25.7842 5.93756 25.8281 6.59882 25.3623C6.61067 25.354 6.62607 25.3493 6.64029 25.3469C7.26363 25.245 7.55515 24.8457 7.73646 24.2626C7.9711 23.5089 8.06709 23.4805 8.86107 23.4817C9.52588 23.4817 10.1919 23.4817 10.8567 23.4793C11.1707 23.4793 11.4563 23.5528 11.5902 23.8668C11.6815 24.0789 11.781 24.028 11.928 23.9438C13.3927 23.106 14.9451 22.4803 16.6563 22.0537C16.2392 21.7859 15.8718 21.5655 15.521 21.3213C13.5527 19.9479 12.2693 18.1004 11.7052 15.7611C11.6376 15.4826 11.5665 15.2764 11.1921 15.2456C10.3412 15.1769 9.6278 14.4528 9.50337 13.6174C9.37775 12.7724 9.82688 11.8813 10.6149 11.5447C10.9171 11.4155 10.9835 11.2532 11.0013 10.9593C11.2478 6.82822 13.3121 3.945 17.0403 2.21247C17.1825 2.1461 17.3389 2.11885 17.3934 1.91976C17.6458 0.987129 18.3699 0.556957 19.2113 0.274916C20.4153 -0.129184 21.6145 -0.0805975 22.796 0.373275C23.5284 0.655316 24.1174 1.10208 24.3473 1.89487C24.4077 2.10107 24.5535 2.14847 24.7146 2.21958C27.8751 3.62386 29.8151 6.03543 30.583 9.39029C30.7098 9.94608 30.7204 10.5291 30.7667 11.1015C30.7821 11.2911 30.8069 11.3966 31.0179 11.489C31.8533 11.854 32.3605 12.7191 32.2456 13.5C32.0975 14.5038 31.4635 15.1307 30.4372 15.2575C30.2263 15.2835 30.1184 15.3617 30.0734 15.5632C29.424 18.463 27.7412 20.5712 25.1436 21.9731C25.1353 21.9779 25.1365 21.9992 25.1223 22.0596L25.1211 22.0584ZM12.6212 25.2071C13.305 25.5946 13.9402 26.0118 14.6844 25.4287C14.7069 25.4109 14.7377 25.4026 14.7638 25.3896C15.1845 25.1787 15.5447 25.2296 15.8801 25.5851C16.3458 26.0793 16.8281 26.5592 17.3223 27.025C17.6849 27.3674 17.788 27.7467 17.5297 28.1709C17.1623 28.7741 17.2299 29.3003 17.4953 29.9651C17.7762 30.6702 18.1471 31.0814 18.8546 31.2568C19.2622 31.3587 19.4589 31.6526 19.4601 32.0744C19.4613 32.8281 19.4661 33.5818 19.4649 34.3343C19.4649 34.7147 19.2978 35.0252 18.9233 35.1022C18.095 35.2729 17.6743 35.7765 17.4527 36.5693C17.3519 36.932 17.4254 36.9545 17.7323 36.9521C18.8996 36.9426 20.0669 36.9414 21.2341 36.9557C21.5375 36.9592 21.707 36.8419 21.8729 36.5918C22.9193 35.0074 24.9256 34.2158 26.7813 34.6472C27.0148 34.7017 27.1653 34.6555 27.3288 34.4908C29.2154 32.5971 31.1044 30.7069 33.0016 28.8239C33.1853 28.6414 33.2161 28.5371 33.0218 28.3273C31.8379 27.0487 30.5024 25.9608 28.9784 25.1206C25.1033 22.9863 21.0054 22.4578 16.7132 23.5184C15.2817 23.8716 13.926 24.4309 12.6224 25.2047L12.6212 25.2071ZM4.43966 26.8519C4.17421 26.9633 4.04504 27.2181 3.83173 27.3674C3.41815 27.659 3.34113 27.9789 3.61369 28.4328C3.83055 28.7931 3.99646 29.1936 3.71205 29.6321C3.34942 30.1914 3.11597 30.8136 2.95125 31.4582C2.86711 31.7877 2.67394 31.9868 2.35872 32.1147C1.42728 32.4928 1.43083 32.4999 1.43913 33.5143C1.43913 33.5439 1.43913 33.5735 1.43676 33.6032C1.41424 33.8224 1.48179 33.9658 1.7188 34.0262C1.9167 34.0772 2.10157 34.1779 2.2971 34.2443C2.64195 34.3628 2.86592 34.5725 2.95954 34.9446C3.12071 35.5893 3.3672 36.2043 3.71797 36.772C3.88269 37.0386 3.96565 37.3396 3.77604 37.6039C3.26647 38.3125 3.47504 38.828 4.11615 39.3163C4.33064 39.4798 4.4764 39.5722 4.71815 39.43C4.84495 39.3554 4.99071 39.3163 5.11869 39.2428C5.51213 39.0176 5.87712 39.0259 6.27412 39.2724C6.80028 39.6007 7.37976 39.8247 7.98295 39.974C8.35032 40.0652 8.56007 40.288 8.69161 40.6305C9.02342 41.4885 9.03053 41.4624 9.94776 41.5015C10.3388 41.5181 10.5509 41.4174 10.6375 41.0298C10.7856 40.3627 11.1731 39.9645 11.8806 39.8436C12.3416 39.7654 12.7788 39.5462 13.1735 39.2866C13.574 39.0236 13.9556 39.0022 14.368 39.2416C14.5327 39.3376 14.7152 39.404 14.887 39.4869C14.9664 39.5248 15.0553 39.59 15.1312 39.5142C15.4452 39.2037 15.8126 38.9216 16.0365 38.5543C16.1657 38.3422 15.8955 38.0388 15.7746 37.7947C15.5815 37.4036 15.5672 37.0516 15.8078 36.6712C16.123 36.1712 16.3517 35.6213 16.4868 35.0477C16.5899 34.6116 16.8222 34.3675 17.2393 34.2182C18.0156 33.9409 17.9812 33.9208 18.0215 33.0841C18.0452 32.6136 17.9219 32.3435 17.4408 32.2439C16.8625 32.1242 16.5271 31.7486 16.4252 31.1643C16.3612 30.7982 16.2392 30.432 16.0318 30.1405C15.5518 29.4662 15.5364 28.8203 15.9796 28.1389C16.0413 28.0441 16.1361 27.909 16.0472 27.8118C15.7604 27.4954 15.4831 27.153 15.1383 26.9136C14.9072 26.7524 14.6417 27.0179 14.4166 27.1316C13.9485 27.3674 13.5373 27.3556 13.0905 27.057C12.7895 26.8555 12.4375 26.6801 12.0856 26.6161C11.2501 26.4656 10.7394 26.0236 10.5699 25.1929C10.5213 24.9523 10.3649 24.899 10.1468 24.9191C9.9999 24.9322 9.85177 24.9215 9.70364 24.9215C9.00802 24.9203 8.98195 24.912 8.76745 25.584C8.60629 26.0888 8.30884 26.3685 7.79334 26.4834C7.27548 26.5983 6.77657 26.7998 6.33218 27.0913C5.91386 27.3651 5.51569 27.3734 5.08551 27.1423C4.87932 27.0321 4.65771 26.9515 4.44203 26.8567L4.43966 26.8519ZM17.442 3.62623C16.6883 3.90945 16.0507 4.32659 15.4641 4.82075C13.5562 6.42886 12.5679 8.49558 12.4115 10.9759C12.3937 11.2567 12.4636 11.3646 12.7694 11.3563C13.5076 11.335 14.2471 11.3397 14.9854 11.3563C15.2793 11.3622 15.3919 11.303 15.3859 10.9664C15.3622 9.68063 15.3776 8.39485 15.3788 7.10908C15.3788 6.84126 15.3729 6.56514 15.5803 6.36131C15.7912 6.15393 16.0401 6.04135 16.3435 6.17052C16.7025 6.32339 16.8388 6.6078 16.8388 6.98109C16.8388 8.26687 16.8542 9.55264 16.8341 10.8384C16.8281 11.22 16.8957 11.3646 17.3294 11.361C19.6936 11.3361 22.0589 11.3409 24.4231 11.3587C24.8023 11.361 24.9339 11.2793 24.9267 10.8763C24.9007 9.57635 24.9149 8.27516 24.9196 6.97517C24.922 6.43834 25.1768 6.13141 25.6081 6.12549C26.0573 6.11838 26.3358 6.44545 26.3369 6.9882C26.3393 8.31783 26.3476 9.64863 26.3298 10.9783C26.3263 11.2745 26.4092 11.3622 26.6984 11.3563C27.4367 11.3409 28.1761 11.3385 28.9144 11.3587C29.2285 11.367 29.3102 11.2698 29.2996 10.9569C29.2451 9.39859 28.7805 7.97298 27.9332 6.67654C27.0409 5.31136 25.8404 4.29933 24.3117 3.61793C24.2738 3.83006 24.2359 4.0007 24.2133 4.17372C24.064 5.29714 23.9206 6.42175 23.7678 7.54518C23.7133 7.94335 23.3696 8.24435 23.0212 8.22302C22.6432 8.20051 22.3564 7.85921 22.3564 7.42667C22.3564 7.29395 22.3623 7.16004 22.3801 7.0285C22.5744 5.57207 22.7711 4.11565 22.9702 2.65923C23.0259 2.25394 22.8731 1.97546 22.4962 1.80955C21.4297 1.34027 20.3608 1.31776 19.2895 1.78348C18.9138 1.94702 18.7195 2.20299 18.7799 2.65093C18.9897 4.19623 19.1733 5.74509 19.3748 7.29039C19.4198 7.63287 19.3321 7.9078 19.0418 8.09504C18.7989 8.25265 18.5334 8.25739 18.2929 8.09504C18.0108 7.90424 17.9563 7.59969 17.916 7.28328C17.7655 6.07572 17.6032 4.87053 17.4408 3.62741L17.442 3.62623ZM21.0102 21.5548C21.1879 21.5572 21.5375 21.5346 21.8907 21.4801C25.204 20.9611 27.3976 19.11 28.489 15.9495C28.7201 15.2812 28.6964 15.274 28.0138 15.2752C24.8521 15.2776 21.6904 15.2788 18.5287 15.2812C16.8447 15.2823 15.1596 15.293 13.4756 15.2812C13.1083 15.2788 13.0632 15.3926 13.1604 15.7244C14.1677 19.1918 17.2725 21.5572 21.0102 21.5548ZM41.0529 27.6329C41.0161 27.6092 40.9794 27.5855 40.9438 27.5618C40.407 28.1271 39.8702 28.6935 39.3333 29.2588C39.0987 29.5065 38.8285 29.5799 38.4908 29.478C37.916 29.305 37.3389 29.1343 36.7523 29.0075C36.3293 28.9163 36.1231 28.6651 36.0223 28.2787C35.892 27.781 35.7972 27.2691 35.6159 26.7903C35.412 26.2523 35.5412 25.8636 35.9512 25.4951C36.4738 25.0258 36.9668 24.5257 37.538 23.977C37.3555 23.9533 37.3105 23.9367 37.269 23.9438C35.29 24.3088 34.0634 26.3128 34.6974 28.2254C34.8681 28.7421 34.7792 29.0822 34.413 29.4448C32.2634 31.5779 30.1196 33.7193 27.9865 35.869C27.6346 36.2233 27.2992 36.3217 26.8027 36.1593C25.5702 35.7576 24.4385 35.9946 23.4857 36.8928C22.9442 37.4036 22.5946 38.0246 22.6218 38.8541C23.1907 38.3742 23.6907 37.835 24.1731 37.2792C24.4409 36.9699 24.7644 36.9083 25.1318 37.0031C25.7148 37.1547 26.2895 37.3325 26.875 37.4759C27.266 37.5719 27.4793 37.8101 27.5753 38.1845C27.7092 38.7095 27.8277 39.2392 27.996 39.7536C28.1548 40.2359 28.0482 40.5961 27.6725 40.9339C27.1499 41.402 26.6605 41.9068 26.1201 42.4329C26.3713 42.5194 26.5076 42.4827 26.6498 42.4412C28.5091 41.889 29.4998 40.0119 28.8647 38.1763C28.7059 37.7165 28.7995 37.4048 29.1325 37.0742C31.3023 34.9197 33.4626 32.7558 35.6159 30.5848C35.9453 30.2518 36.2759 30.1405 36.7251 30.3123C37.4408 30.5848 38.1661 30.5528 38.8913 30.3218C40.0764 29.9437 41.0801 28.7018 41.0529 27.6341V27.6329ZM20.8431 13.8437V13.8461C23.398 13.8461 25.9542 13.8461 28.5091 13.8461C29.0851 13.8461 29.661 13.8555 30.2369 13.8413C30.6873 13.8295 30.9491 13.4029 30.7358 13.0414C30.5794 12.7772 30.3128 12.7653 30.0355 12.7653C23.9349 12.7689 17.8342 12.7677 11.7348 12.7689C11.6163 12.7689 11.4931 12.7546 11.3817 12.7819C11.0925 12.8542 10.8958 13.0521 10.9254 13.3483C10.9527 13.6245 11.115 13.8461 11.4492 13.8425C11.5819 13.8413 11.7147 13.8449 11.8486 13.8449C14.8467 13.8449 17.8461 13.8449 20.8443 13.8449L20.8431 13.8437ZM31.3841 36.8336L31.4291 36.9533C33.2718 36.9533 35.1146 36.9521 36.9585 36.9545C37.1908 36.9545 37.1789 36.8265 37.1481 36.6618C36.8957 35.3274 36.5201 34.0321 35.9678 32.7878C35.8351 32.4892 35.7379 32.4774 35.5187 32.7061C35.0079 33.2393 34.4782 33.756 33.9544 34.2775C33.0988 35.1295 32.2408 35.9804 31.3852 36.8324L31.3841 36.8336Z" fill="#ED0007"/>
<path d="M9.70724 38.1501C6.96031 38.1335 4.75968 35.9139 4.78338 33.1847C4.80826 30.4129 7.02549 28.1992 9.76413 28.2123C12.4791 28.2265 14.7235 30.5089 14.7117 33.2428C14.6998 35.9494 12.4376 38.1667 9.70606 38.1501H9.70724ZM9.72858 29.6651C7.76614 29.6687 6.20306 31.2472 6.20662 33.2203C6.21017 35.1649 7.80525 36.7256 9.78309 36.7221C11.6803 36.7185 13.2505 35.1329 13.2624 33.2072C13.2742 31.2472 11.6922 29.6604 9.72858 29.6651Z" fill="#ED0007"/>
</svg>
