<svg width="46" height="61" viewBox="0 0 46 61" fill="none" xmlns="http://www.w3.org/2000/svg">
<path d="M0 38.6356C0 34.9767 0 31.3163 0 27.6574C0 26.3987 0.214851 26.1807 1.44463 26.1807C4.1447 26.1807 6.84477 26.1807 9.54323 26.1807C10.4491 26.1807 10.7955 26.5318 10.8099 27.4473C10.8216 28.1699 11.1952 28.5317 11.9306 28.5328C12.4501 28.5328 12.976 28.4879 13.4891 28.5472C14.092 28.6178 14.4399 28.3709 14.7542 27.8835C15.3298 26.9952 15.9567 26.1422 16.5756 25.2812C18.0106 23.2834 19.9443 22.222 22.4231 22.2108C23.903 22.2043 25.3829 22.214 26.8628 22.2011C27.0375 22.2011 27.2909 22.3326 27.3823 22.0616C27.4865 21.7554 27.2364 21.6448 27.0311 21.5197C24.61 20.051 22.8736 18.0067 21.8186 15.374C19.5723 9.77505 21.9292 3.1291 27.2155 0.183723C28.0637 -0.287666 28.8061 0.18212 28.8077 1.20346C28.8125 4.06387 28.8205 6.92267 28.8012 9.78307C28.798 10.1999 28.9231 10.418 29.2999 10.6104C30.5441 11.2453 31.7691 11.9204 32.994 12.5938C33.2265 12.722 33.4013 12.7429 33.6482 12.6066C34.8876 11.9188 36.135 11.2437 37.3953 10.5944C37.7512 10.4116 37.849 10.1903 37.8458 9.80071C37.8282 6.98039 37.8426 4.16167 37.8378 1.34135C37.8378 0.841103 37.8747 0.369713 38.3862 0.111572C38.864 -0.130536 39.2696 0.0795043 39.6721 0.328026C43.0808 2.43164 45.154 5.48284 45.5676 9.43835C46.1016 14.5515 44.1006 18.5888 39.7667 21.4091C39.4059 21.6432 39.2424 21.8612 39.2536 22.3021C39.2856 23.7211 39.2776 25.1417 39.26 26.5607C39.2552 26.9166 39.3466 27.0208 39.7186 27.0513C41.5993 27.2068 42.8708 28.5921 42.8676 30.4665C42.866 31.4157 43.0215 32.3921 42.4924 33.2724C42.3561 33.5 42.5758 33.5449 42.6912 33.6219C43.7687 34.3322 44.2769 35.3247 44.1952 36.6154C44.1438 37.4251 44.4341 38.3198 43.9579 39.022C43.4223 39.8109 43.5282 40.3769 43.937 41.209C44.4822 42.3153 44.503 45.3249 43.2331 46.1394C42.5341 46.5867 42.4924 47.0164 42.7521 47.7443C43.0487 48.5765 42.9381 49.4968 42.8275 50.3594C42.6271 51.9291 41.2963 53.0884 39.7089 53.1621C39.3225 53.1797 39.252 53.3032 39.26 53.6543C39.284 54.7879 39.3177 55.9183 38.9233 57.0214C37.9821 59.6541 35.5434 61.203 32.6317 60.9785C30.1801 60.7893 27.9787 58.6681 27.4993 56.0834C27.347 55.2641 27.4111 54.4512 27.4111 53.6351C27.4111 53.2599 27.2989 53.1621 26.9349 53.1653C25.3348 53.1829 23.7346 53.1765 22.1361 53.1717C20.4189 53.1669 18.8748 52.657 17.5633 51.5331C16.6221 50.7266 15.705 49.8928 14.791 49.0575C14.5393 48.8266 14.2828 48.7208 13.9348 48.7304C13.0354 48.7545 12.1343 48.7545 11.2348 48.7336C10.8933 48.7256 10.8067 48.8282 10.8019 49.1697C10.7794 51.0328 10.6704 51.129 8.82171 51.129C6.32207 51.129 3.82242 51.129 1.32278 51.1274C0.325483 51.1274 0.00481009 50.8052 0.00481009 49.795C0.00320673 46.0752 0.00481009 42.3554 0.00481009 38.6356H0ZM30.6692 51.2301V51.2236C33.4702 51.2236 36.2697 51.2236 39.0708 51.2204C39.3289 51.2204 39.5903 51.2012 39.8452 51.1595C40.3904 51.0697 40.7239 50.749 40.8778 50.2103C41.0077 49.755 40.9483 49.2964 40.9515 48.8394C40.9628 47.5936 40.4641 47.0998 39.2055 47.0966C37.6855 47.0934 36.1655 47.1014 34.6455 47.103C33.2923 47.1046 33.3195 47.103 33.2891 45.7562C33.2762 45.2303 33.459 45.1405 33.9384 45.1453C36.2377 45.1725 38.5385 45.1629 40.8393 45.1581C41.7628 45.1565 42.2711 44.6354 42.2823 43.7039C42.2871 43.3639 42.2839 43.024 42.2823 42.6841C42.2791 41.5297 41.8013 41.0551 40.6389 41.0551C38.6379 41.0551 36.6385 41.0567 34.6375 41.0567C33.2939 41.0567 33.3163 41.0567 33.2907 39.7179C33.281 39.2385 33.4221 39.123 33.8887 39.1279C36.1879 39.1519 38.4888 39.1439 40.7896 39.1375C41.7356 39.1343 42.2679 38.5939 42.2791 37.6479C42.2839 37.2872 42.2823 36.928 42.2791 36.5673C42.2743 35.5155 41.7981 35.0377 40.7351 35.0345C38.7357 35.0297 36.7347 35.0345 34.7337 35.0361C33.281 35.0361 33.2971 35.0361 33.2859 33.6043C33.2826 33.1842 33.3981 33.0623 33.8246 33.0687C35.444 33.0944 37.065 33.0752 38.6844 33.0784C40.6421 33.0816 40.9499 32.7785 40.9515 30.8353C40.9515 29.4275 40.4834 28.9561 39.0948 28.9577C34.3537 28.9593 29.6142 28.9609 24.873 28.9577C23.369 28.9577 23.3835 28.9513 23.4204 27.4377C23.4284 27.0722 23.5647 27.0128 23.8805 27.0176C24.881 27.0321 25.8815 27 26.8804 27.0321C27.3165 27.0465 27.4223 26.9006 27.3999 26.4901C27.3662 25.8712 27.371 25.2491 27.3999 24.6302C27.4191 24.247 27.3149 24.1139 26.9093 24.1204C25.4294 24.1444 23.9495 24.1252 22.4696 24.1332C20.6642 24.1428 19.234 24.8916 18.1854 26.3571C17.3596 27.5099 16.5371 28.6675 15.7354 29.838C15.4212 30.2965 15.0235 30.4953 14.4752 30.4873C13.4154 30.4713 12.3539 30.5001 11.2957 30.4729C10.8997 30.4633 10.7955 30.5819 10.7955 30.9747C10.8083 36.0959 10.8099 41.2154 10.7971 46.3366C10.7971 46.7102 10.9061 46.8128 11.2701 46.8064C12.37 46.7871 13.4699 46.8096 14.5698 46.7967C14.9754 46.7919 15.2977 46.9186 15.5959 47.1928C16.5115 48.0281 17.4655 48.8218 18.3617 49.6764C19.513 50.7747 20.871 51.2397 22.4423 51.2285C25.1824 51.2092 27.9226 51.2236 30.6628 51.2236L30.6692 51.2301ZM39.8741 2.85333C39.8356 2.96396 39.8003 3.01527 39.8003 3.06818C39.7971 5.58546 39.7843 8.10274 39.8019 10.62C39.8067 11.2309 39.5855 11.6269 39.0387 11.9123C37.3584 12.7894 35.6893 13.6905 34.025 14.5996C33.5424 14.8641 33.1191 14.8689 32.6253 14.5964C31.0027 13.6969 29.3672 12.8166 27.7174 11.9685C27.0856 11.6446 26.8179 11.1972 26.8243 10.495C26.8435 8.27591 26.8291 6.05685 26.8243 3.83779C26.8243 3.52834 26.9109 3.21408 26.7842 2.85974C26.6864 2.92868 26.6223 2.96556 26.5662 3.01527C24.1579 5.11728 22.9169 7.76764 22.9506 10.9647C22.9923 14.901 24.7864 17.856 28.123 19.9019C28.4132 20.0799 28.7147 20.1905 29.077 20.1889C31.9166 20.1761 34.7545 20.1793 37.5941 20.1889C37.8827 20.1889 38.1296 20.1232 38.3862 19.9837C43.278 17.298 45.162 11.0577 42.5629 6.11617C41.8991 4.85272 41.0413 3.75121 39.8725 2.85493L39.8741 2.85333ZM1.93847 35.5379H1.94007C1.94007 37.858 1.9529 40.1781 1.92885 42.4981C1.92404 42.9086 2.03948 42.9968 2.42429 42.9936C4.36436 42.9775 6.30443 42.9695 8.2445 42.9984C8.73353 43.0064 8.83133 42.8445 8.82973 42.3891C8.8153 37.789 8.8169 33.189 8.83294 28.5889C8.83294 28.1753 8.69505 28.0871 8.31826 28.0887C6.39903 28.1031 4.4782 28.1127 2.55897 28.0855C2.07636 28.0791 1.92083 28.1913 1.92564 28.698C1.9529 30.9779 1.93847 33.2579 1.93847 35.5379ZM33.2971 27.0289V27.0337C34.4756 27.0337 35.654 27.0241 36.8325 27.0401C37.1708 27.0449 37.3392 26.992 37.3311 26.5911C37.3055 25.2539 37.3087 23.9151 37.3199 22.5779C37.3231 22.23 37.2301 22.0873 36.8485 22.0905C34.4916 22.1081 32.1346 22.1065 29.7793 22.0969C29.457 22.0969 29.3143 22.1691 29.3191 22.525C29.3352 23.8831 29.3368 25.2411 29.3191 26.5992C29.3143 26.9455 29.4314 27.0417 29.7633 27.0369C30.9417 27.0208 32.1202 27.0305 33.2987 27.0305L33.2971 27.0289ZM31.07 53.1733C30.589 53.1733 30.1705 53.191 29.7536 53.1685C29.3993 53.1493 29.3095 53.3016 29.3255 53.6287C29.3496 54.0872 29.3191 54.5474 29.3352 55.006C29.4041 56.9092 30.4559 58.3442 32.1635 58.8829C33.7669 59.388 35.5049 58.8172 36.5327 57.4575C37.4498 56.2454 37.3472 54.8328 37.3344 53.4379C37.3328 53.2198 37.1981 53.1781 37.0185 53.1797C36.8181 53.183 36.616 53.2006 36.4204 53.1717C35.9442 53.1028 35.8496 53.284 35.9346 53.7377C36.1126 54.6933 35.7214 55.4661 34.9854 56.045C34.2783 56.5997 33.4542 56.7184 32.6124 56.4041C31.3394 55.9279 30.799 54.7911 31.07 53.1733ZM5.4306 44.9032C4.41246 44.9032 3.39593 44.9144 2.37779 44.8968C2.05231 44.8904 1.92564 44.9689 1.93205 45.32C1.9545 46.4568 1.96252 47.5952 1.93686 48.732C1.92724 49.1393 2.11323 49.1842 2.43711 49.1826C4.41246 49.1793 6.38781 49.1777 8.36315 49.1954C8.73834 49.1986 8.84416 49.0703 8.83775 48.7096C8.82011 47.5728 8.8169 46.4344 8.83775 45.2976C8.84416 44.9641 8.72231 44.892 8.42408 44.8968C7.42679 44.9096 6.42949 44.9016 5.4306 44.9016V44.9032ZM33.4751 54.6372C33.8134 54.5795 34.0266 54.4063 34.0234 54.0472C34.0186 53.688 33.823 53.4908 33.4638 53.5004C33.1127 53.51 32.9107 53.704 32.9091 54.0632C32.9091 54.4336 33.1608 54.5683 33.4751 54.6372Z" fill="white"/>
<path d="M5.36004 48.1499C4.76199 48.1435 4.26174 47.6417 4.26014 47.0484C4.25853 46.4712 4.78925 45.9565 5.38249 45.9629C5.99017 45.9694 6.50004 46.46 6.50324 47.0404C6.50645 47.6753 6.01101 48.1564 5.36165 48.1483L5.36004 48.1499Z" fill="white"/>
</svg>
