<svg width="39" height="44" viewBox="0 0 39 44" fill="none" xmlns="http://www.w3.org/2000/svg">
<path d="M14.1601 0.0146105C14.9226 -0.00818816 15.604 0.280595 16.2816 0.575711C16.9023 0.845495 17.5178 1.12795 18.1384 1.39646C18.9009 1.72578 19.6647 1.71818 20.4259 1.38126C21.2188 1.03042 22.0028 0.660573 22.8084 0.343925C24.6361 -0.374234 25.9128 0.0196768 27.0198 1.64472C27.3833 2.17795 27.7367 2.73145 27.9938 3.32042C28.603 4.71494 29.6898 5.35077 31.1464 5.52682C31.8291 5.60915 32.5029 5.77634 33.1602 5.99546C34.9322 6.58696 35.5136 7.82696 35.3983 9.58625C35.3388 10.4817 35.2438 11.3734 35.1564 12.2664C35.0804 13.039 35.3362 13.69 35.8492 14.2562C36.3901 14.8527 36.9486 15.4354 37.4616 16.0547C38.0746 16.7932 38.542 17.5962 38.5002 18.6196C38.4711 19.334 38.1633 19.9204 37.7782 20.4828C37.2855 21.2034 36.6788 21.8355 36.0531 22.4308C35.0829 23.3554 35.0538 24.4675 35.2083 25.6657C35.321 26.5383 35.4502 27.4097 35.3692 28.3002C35.2818 29.2463 34.8841 29.9949 34.0798 30.4914C33.7821 30.675 33.7923 30.8118 33.9481 31.0753C35.1817 33.1689 36.4027 35.2702 37.6288 37.369C37.6921 37.4779 37.7516 37.5906 37.82 37.6957C38.0366 38.0301 38.1 38.367 37.8276 38.7002C37.5579 39.0307 37.2133 39.0181 36.8384 38.9167C35.0069 38.4228 33.1678 37.9554 31.3452 37.4336C30.9526 37.3208 30.8968 37.4728 30.8208 37.7616C30.3446 39.5678 29.8595 41.3701 29.382 43.1763C29.2756 43.5791 29.1147 43.935 28.6474 43.9932C28.1939 44.0502 27.9748 43.7374 27.7772 43.3929C26.5904 41.3271 25.3973 39.2651 24.2118 37.1992C24.1028 37.008 23.985 36.9105 23.752 36.8661C22.9262 36.7078 22.1827 36.3177 21.4227 35.977C21.1643 35.8617 20.9009 35.7553 20.6463 35.6312C19.7394 35.1917 18.8503 35.2056 17.9193 35.6135C16.8427 36.0872 15.8117 36.6888 14.6287 36.8953C14.4286 36.9295 14.3919 37.1321 14.3083 37.2752C13.1227 39.3233 11.9359 41.3701 10.7593 43.4233C10.5554 43.7792 10.3122 44.0629 9.87266 43.9869C9.44709 43.9147 9.28749 43.5905 9.18237 43.1877C8.70106 41.3499 8.18303 39.5222 7.70172 37.6843C7.62446 37.3905 7.54466 37.3474 7.25588 37.426C5.42312 37.9288 3.58276 38.4012 1.75 38.9003C1.35482 39.0079 0.99891 39.0434 0.720259 38.69C0.440342 38.3354 0.558135 37.9883 0.76079 37.6375C2.01978 35.4678 3.26738 33.2918 4.5327 31.1259C4.71129 30.8207 4.73409 30.6535 4.38958 30.4344C3.5397 29.8948 3.17872 29.0627 3.12679 28.076C3.06979 27.012 3.27878 25.9709 3.3801 24.9222C3.45357 24.1685 3.35731 23.4719 2.84814 22.8842C2.36176 22.3231 1.85893 21.7772 1.36369 21.225C0.822853 20.6208 0.328882 19.9837 0.107228 19.1896C-0.225886 18.0015 0.259219 17.025 0.982444 16.1434C1.51315 15.4974 2.09325 14.892 2.65815 14.2752C3.28638 13.5874 3.47763 12.7996 3.36744 11.8737C3.25978 10.9694 3.13185 10.065 3.11665 9.14675C3.08372 7.17973 4.25532 6.27665 5.64351 5.903C6.50352 5.67121 7.38381 5.50782 8.25775 5.32797C9.11397 5.15191 9.74473 4.6934 10.1703 3.92585C10.582 3.18109 11.0012 2.43887 11.4546 1.71818C11.9435 0.94049 12.5642 0.30846 13.5027 0.069074C13.7244 0.0120773 13.9397 0.0361426 14.1588 0.0120773L14.1601 0.0146105ZM4.6391 27.3338C4.6239 28.879 4.91522 29.2704 6.18307 29.5972C6.63905 29.7149 7.10009 29.8277 7.56619 29.8859C9.58261 30.1367 11.0696 31.1019 11.9258 32.9878C12.1791 33.5464 12.4945 34.0809 12.8618 34.5774C13.4761 35.407 13.9802 35.5869 14.9454 35.2284C15.7117 34.9434 16.4577 34.5989 17.1999 34.2531C18.5362 33.63 19.8661 33.5996 21.2099 34.2228C21.8952 34.5407 22.5804 34.8636 23.2808 35.1436C24.5132 35.635 25.0819 35.4551 25.7912 34.3431C26.2066 33.6921 26.5816 33.0144 26.9539 32.3368C27.6455 31.0791 28.6955 30.3546 30.0989 30.0696C31.0324 29.8796 31.9874 29.7694 32.8867 29.4186C33.4972 29.1804 33.8163 28.7473 33.8531 28.0988C33.8923 27.3857 33.8265 26.6777 33.7061 25.9785C33.4072 24.2357 33.6365 22.6562 34.9778 21.358C35.4984 20.8539 35.9822 20.3067 36.4369 19.7418C37.1829 18.8134 37.1842 18.17 36.4382 17.239C35.9645 16.6488 35.4426 16.0953 34.9233 15.5443C33.8885 14.4449 33.4275 13.1834 33.6352 11.6546C33.7555 10.7693 33.8949 9.8801 33.8607 8.97449C33.8353 8.30066 33.5643 7.84595 32.931 7.58377C32.1976 7.27979 31.4225 7.14933 30.6499 7.0328C28.8551 6.76048 27.5163 5.89793 26.7133 4.22983C26.3865 3.54967 26.0205 2.88091 25.548 2.28308C24.9932 1.58265 24.5436 1.45219 23.6811 1.70045C22.9642 1.9069 22.303 2.24508 21.6431 2.57566C20.0738 3.36348 18.5235 3.43188 16.9428 2.60859C16.3158 2.28181 15.6635 1.9943 14.9986 1.75618C13.9346 1.3762 13.4166 1.55732 12.7934 2.50853C12.3881 3.1279 12.0183 3.77259 11.6738 4.42869C10.9252 5.85867 9.7726 6.67816 8.17796 6.95681C7.28628 7.1126 6.37686 7.22659 5.52951 7.59137C4.93675 7.84722 4.6695 8.29686 4.6391 8.91876C4.6049 9.61539 4.69989 10.3019 4.78856 10.9909C4.93675 12.1372 5.05454 13.2822 4.45671 14.3562C4.10713 14.9845 3.61569 15.4987 3.13819 16.0243C2.70374 16.5031 2.24144 16.9566 1.87033 17.4936C1.39662 18.1788 1.39915 18.84 1.88932 19.5024C2.08691 19.7684 2.29083 20.0306 2.50996 20.2788C2.96973 20.8007 3.45103 21.3022 3.90447 21.8291C4.75816 22.8209 5.04947 23.9671 4.85695 25.2616C4.74296 26.0241 4.69483 26.7955 4.64036 27.335L4.6391 27.3338ZM10.1766 41.0915C10.2146 41.1029 10.2539 41.1143 10.2919 41.1244C11.1114 39.6919 11.9309 38.2594 12.7542 36.8294C12.8466 36.6685 12.801 36.5799 12.6541 36.4862C12.0537 36.1024 11.6282 35.5539 11.271 34.9523C10.8859 34.3013 10.5212 33.6363 10.145 32.9802C9.74094 32.276 9.1659 31.7998 8.35148 31.6364C7.75238 31.516 7.15202 31.3983 6.56052 31.2463C6.30847 31.1817 6.19447 31.2526 6.07541 31.4628C5.47632 32.5192 4.86329 33.5679 4.25659 34.6192C3.81328 35.388 3.37251 36.1581 2.8836 37.0105C4.57197 36.5596 6.15774 36.1353 7.74478 35.7123C8.39201 35.54 8.73146 35.7287 8.90878 36.3785C9.33562 37.9478 9.75613 39.5196 10.1779 41.0902L10.1766 41.0915ZM35.506 37.0042C35.5642 36.8547 35.4718 36.7914 35.4287 36.7154C34.6194 35.307 33.81 33.8985 32.9969 32.4939C32.7524 32.0721 32.5814 31.4679 32.2154 31.2982C31.8531 31.131 31.2869 31.416 30.8069 31.4856C29.6049 31.6579 28.6752 32.1987 28.1458 33.3425C27.9343 33.7984 27.6607 34.2265 27.4112 34.6648C27.0097 35.3677 26.5638 36.0416 25.8634 36.4836C25.5911 36.6559 25.7101 36.8104 25.8102 36.9865C26.5499 38.2708 27.2896 39.5564 28.0369 40.8369C28.0951 40.9357 28.1293 41.0763 28.3041 41.1067C28.3219 41.051 28.3421 40.9965 28.3573 40.942C28.769 39.417 29.1768 37.8908 29.5922 36.3671C29.7607 35.749 30.1077 35.5489 30.722 35.7034C30.9804 35.768 31.235 35.8478 31.4909 35.9175C32.8309 36.281 34.1722 36.6432 35.5085 37.0055L35.506 37.0042Z" fill="#ED0007"/>
<path d="M19.2137 6.65675C25.5834 6.58582 31.0627 11.7928 31.0855 18.4652C31.107 24.9755 25.7126 30.3547 19.2302 30.3154C12.6933 30.2762 7.38372 24.9565 7.41032 18.4272C7.43819 11.732 12.9745 6.60609 19.2137 6.65675ZM29.5453 18.4804C29.5896 12.8846 24.9501 8.20706 19.315 8.1678C13.6394 8.12727 8.95556 12.7592 8.95556 18.4373C8.95556 24.1864 13.5204 28.5448 18.8211 28.7512C24.6347 28.9779 29.4997 24.3941 29.5453 18.4817V18.4804Z" fill="#ED0007"/>
<path d="M26.5738 14.4627C26.5801 14.6273 26.4687 14.8097 26.3065 14.9718C23.6036 17.676 20.9032 20.3827 18.1965 23.0831C17.8115 23.4669 17.4024 23.4466 16.9945 23.0388C15.4062 21.4555 13.8205 19.8698 12.2372 18.2802C11.8623 17.904 11.837 17.4252 12.1562 17.1098C12.4829 16.7869 12.925 16.8147 13.3265 17.2124C14.6273 18.5031 15.9395 19.7824 17.2035 21.1085C17.562 21.4847 17.7216 21.3998 18.0319 21.0869C20.3877 18.7083 22.7601 16.3474 25.1286 13.9814C25.558 13.552 25.8683 13.4874 26.2508 13.7407C26.4661 13.8826 26.5763 14.1042 26.5738 14.4614V14.4627Z" fill="#ED0007"/>
</svg>
