<svg width="75" height="93" viewBox="0 0 75 93" fill="none" xmlns="http://www.w3.org/2000/svg">
<path d="M11.4684 48.8616H25.9317C27.0728 48.8616 27.9977 47.9367 27.9977 46.7956V30.8861C27.9977 29.7447 27.0728 28.8198 25.9317 28.8198H11.4684C10.3271 28.8198 9.40218 29.7447 9.40218 30.8861V46.7956C9.40218 47.9367 10.3271 48.8616 11.4684 48.8616ZM13.5345 44.7294V39.1506H23.8654V44.7294H13.5345ZM23.8654 32.9521V35.0183H13.5345V32.9521H23.8654Z" fill="#AAB5BF"/>
<path fill-rule="evenodd" clip-rule="evenodd" d="M66.633 4.08791H8.17582C5.91813 4.08791 4.08791 5.91813 4.08791 8.17582V84.8242C4.08791 87.0819 5.91813 88.9121 8.17582 88.9121H66.633C68.8907 88.9121 70.7209 87.0819 70.7209 84.8242V8.17582C70.7209 5.91813 68.8907 4.08791 66.633 4.08791ZM8.17582 0C3.66044 0 0 3.66044 0 8.17582V84.8242C0 89.3395 3.66044 93 8.17582 93H66.633C71.1483 93 74.8088 89.3395 74.8088 84.8242V8.17582C74.8088 3.66044 71.1483 0 66.633 0H8.17582Z" fill="#AAB5BF"/>
<path fill-rule="evenodd" clip-rule="evenodd" d="M71.3341 66.0198H2.45274V61.9319H71.3341V66.0198Z" fill="#AAB5BF"/>
<path fill-rule="evenodd" clip-rule="evenodd" d="M35.3604 62.1362V2.86151H39.4484V62.1362H35.3604Z" fill="#AAB5BF"/>
</svg>
