<svg width="59" height="61" viewBox="0 0 59 61" fill="none" xmlns="http://www.w3.org/2000/svg">
<path d="M34.6084 30.3891C38.7536 31.4585 42.4433 33.4029 45.6529 36.3808C45.906 35.473 46.1852 34.6437 46.6717 33.8943C48.2047 31.5401 51.1042 30.4267 53.7996 31.1826C54.9228 31.4977 55.1449 32.2878 54.3302 33.1156C53.3735 34.0886 52.4152 35.06 51.4356 36.0102C51.1254 36.3122 51.0944 36.5832 51.1352 37.0224C51.2397 38.126 51.9629 38.3562 52.8429 38.5162C53.1482 38.5717 53.2951 38.4215 53.4682 38.2517C54.4788 37.2477 55.4861 36.2387 56.5032 35.2396C57.2852 34.4706 58.1129 34.709 58.4035 35.78C59.5219 39.9202 56.4101 43.9854 52.1278 43.9805C51.8438 43.9805 51.5597 43.9805 51.2038 43.9805C51.6495 45.1429 52.1278 46.2318 52.4625 47.3763C52.8788 48.7966 53.1613 50.2415 53.3506 51.7076C53.4404 52.4063 52.9458 52.8912 52.1376 52.8945C50.0397 52.901 47.9418 52.8961 45.844 52.8961C44.7028 52.8961 43.5632 52.901 42.422 52.8928C42.0727 52.8896 41.8931 52.8928 41.9665 53.3826C42.4449 56.5401 40.0515 59.8444 36.8761 60.4746C35.8035 60.6869 34.7407 60.6738 33.686 60.3571C32.6852 60.055 32.473 59.2649 33.2126 58.5139C34.1987 57.5147 35.1864 56.5156 36.1986 55.5393C36.5006 55.2487 36.6459 54.976 36.4516 54.5809C36.4337 54.545 36.4353 54.5009 36.4255 54.4618C36.1643 53.5002 35.5962 53.061 34.6133 53.0332C34.388 53.0267 34.2884 53.1769 34.1627 53.301C33.1799 54.2773 32.1987 55.2536 31.2192 56.2331C30.2804 57.1702 29.5409 56.9678 29.1784 55.6699C28.9613 54.896 28.8976 54.1042 29.007 53.3157C29.0543 52.9826 29.0119 52.8912 28.6739 52.8945C27.3499 52.9075 26.0259 52.9059 24.7035 52.8977C24.4341 52.8977 24.2855 52.9353 24.3361 53.2651C24.3884 53.6112 24.2039 53.8871 23.9639 54.1271C23.2423 54.8454 22.524 55.567 21.8056 56.2886C21.4007 56.6951 20.9338 56.8356 20.4293 56.5188C19.5477 55.967 18.7592 56.034 17.7796 56.4503C16.8801 56.8323 16.3789 57.3139 16.1095 58.2118C15.8711 59.0069 15.6001 59.1326 14.7495 59.1343C13.8124 59.1343 12.8753 59.1212 11.9398 59.1391C11.357 59.1506 10.9048 58.9269 10.7823 58.362C10.5472 57.2747 9.86971 56.7817 8.85913 56.385C8.02487 56.0568 7.38816 55.9948 6.59962 56.4143C5.71965 56.8829 5.5368 56.7947 4.84131 56.0993C4.1948 55.4511 3.55319 54.7964 2.89525 54.1581C2.46262 53.7385 2.29936 53.27 2.6373 52.741C3.20382 51.8545 3.10259 51.0562 2.68628 50.0897C2.31405 49.2277 1.88958 48.7052 0.983485 48.4538C0.126371 48.2171 0.00719194 47.9346 0.00555935 47.0073C0.00555935 46.111 0.0218853 45.2147 0.000661558 44.3184C-0.0140318 43.6883 0.214532 43.2099 0.836551 43.0728C1.87162 42.8442 2.32385 42.1732 2.75322 41.241C3.18096 40.3088 3.14341 39.5643 2.65853 38.7562C2.31568 38.1848 2.47078 37.7195 2.91485 37.2852C3.6136 36.6028 4.31235 35.9187 4.98824 35.2134C5.39639 34.7873 5.87311 34.6469 6.35799 34.9473C7.2902 35.522 8.17997 35.5824 9.09096 34.9408C9.10728 34.9294 9.12851 34.9228 9.1481 34.9196C10.0068 34.7792 10.4085 34.229 10.6583 33.4258C10.9815 32.3874 11.1137 32.3482 12.2076 32.3499C13.1235 32.3499 14.041 32.3499 14.9569 32.3466C15.3895 32.3466 15.783 32.4478 15.9675 32.8805C16.0932 33.1727 16.2303 33.1025 16.4327 32.9866C18.4506 31.8323 20.5893 30.9703 22.9468 30.3826C22.3721 30.0136 21.866 29.71 21.3828 29.3737C18.671 27.4815 16.9029 24.9363 16.1258 21.7135C16.0328 21.3298 15.9348 21.0458 15.4189 21.0033C14.2467 20.9086 13.2639 19.9111 13.0925 18.7601C12.9194 17.5961 13.5381 16.3684 14.6238 15.9047C15.0401 15.7268 15.1316 15.5031 15.1561 15.0982C15.4956 9.407 18.3396 5.43489 23.4758 3.04804C23.6717 2.95661 23.8872 2.91906 23.9623 2.64479C24.31 1.35993 25.3075 0.7673 26.4667 0.378743C28.1254 -0.177973 29.7776 -0.111036 31.4053 0.514248C32.4142 0.902806 33.2256 1.51829 33.5424 2.6105C33.6256 2.89457 33.8264 2.95988 34.0485 3.05783C38.4026 4.99246 41.0751 8.31479 42.1331 12.9367C42.3078 13.7024 42.3225 14.5056 42.3861 15.2941C42.4073 15.5554 42.4416 15.7007 42.7322 15.828C43.8832 16.3308 44.582 17.5226 44.4236 18.5985C44.2195 19.9813 43.3461 20.845 41.9323 21.0197C41.6417 21.0556 41.4931 21.1633 41.4311 21.4409C40.5364 25.4358 38.2181 28.3402 34.6395 30.2716C34.628 30.2781 34.6297 30.3075 34.6101 30.3908L34.6084 30.3891ZM17.3878 34.7269C18.3298 35.2608 19.2049 35.8355 20.2302 35.0322C20.2612 35.0077 20.3036 34.9963 20.3395 34.9784C20.9191 34.6878 21.4154 34.758 21.8775 35.2477C22.5191 35.9285 23.1835 36.5897 23.8643 37.2313C24.3639 37.7032 24.5059 38.2256 24.15 38.8101C23.6439 39.641 23.737 40.3659 24.1027 41.2818C24.4896 42.2532 25.0006 42.8197 25.9753 43.0613C26.5369 43.2017 26.8079 43.6066 26.8095 44.1878C26.8112 45.2262 26.8177 46.2645 26.8161 47.3012C26.8161 47.8253 26.5859 48.253 26.07 48.3591C24.9288 48.5942 24.3492 49.2881 24.0439 50.3803C23.9051 50.8798 24.0064 50.9109 24.4292 50.9076C26.0373 50.8945 27.6454 50.8929 29.2535 50.9125C29.6715 50.9174 29.9049 50.7558 30.1335 50.4113C31.5751 48.2285 34.3391 47.1379 36.8957 47.7322C37.2173 47.8073 37.4247 47.7436 37.65 47.5167C40.2491 44.9078 42.8514 42.3038 45.4652 39.7096C45.7183 39.4582 45.7607 39.3145 45.493 39.0256C43.862 37.264 42.0221 35.7653 39.9225 34.6078C34.584 31.6674 28.9384 30.9393 23.0252 32.4005C21.053 32.887 19.1853 33.6576 17.3894 34.7237L17.3878 34.7269ZM6.11637 36.993C5.75067 37.1464 5.57271 37.4975 5.27884 37.7032C4.70907 38.1048 4.60295 38.5456 4.97845 39.1709C5.27721 39.6672 5.50578 40.219 5.11395 40.8231C4.61438 41.5936 4.29276 42.4508 4.06583 43.3389C3.94991 43.7927 3.6838 44.067 3.24953 44.2433C1.96631 44.7641 1.97121 44.7739 1.98263 46.1714C1.98263 46.2122 1.98263 46.2531 1.97937 46.2939C1.94835 46.5959 2.04141 46.7935 2.36793 46.8767C2.64057 46.9469 2.89525 47.0857 3.16463 47.1771C3.63972 47.3404 3.94828 47.6293 4.07725 48.142C4.29929 49.0301 4.63887 49.8774 5.12212 50.6594C5.34905 51.0268 5.46333 51.4415 5.20211 51.8055C4.5001 52.7818 4.78743 53.492 5.67067 54.1646C5.96617 54.3899 6.16698 54.5173 6.50003 54.3214C6.67472 54.2185 6.87552 54.1646 7.05184 54.0634C7.59387 53.7532 8.09671 53.7646 8.64363 54.1042C9.3685 54.5565 10.1668 54.865 10.9978 55.0707C11.5039 55.1964 11.7929 55.5034 11.9741 55.9752C12.4312 57.1572 12.441 57.1213 13.7047 57.1751C14.2434 57.198 14.5357 57.0592 14.6548 56.5254C14.8589 55.6062 15.3928 55.0577 16.3674 54.8911C17.0025 54.7834 17.6049 54.4814 18.1486 54.1238C18.7004 53.7614 19.2261 53.732 19.7943 54.0618C20.0212 54.194 20.2726 54.2854 20.5093 54.3997C20.6187 54.452 20.7412 54.5418 20.8456 54.4373C21.2783 54.0095 21.7844 53.621 22.093 53.1149C22.2709 52.8226 21.8987 52.4047 21.7322 52.0684C21.466 51.5296 21.4464 51.0447 21.7779 50.5207C22.2121 49.8317 22.5272 49.0742 22.7133 48.284C22.8554 47.6832 23.1754 47.3469 23.75 47.1412C24.8194 46.7592 24.772 46.7314 24.8276 45.5788C24.8602 44.9307 24.6904 44.5584 24.0276 44.4213C23.2309 44.2564 22.7688 43.7389 22.6284 42.934C22.5403 42.4295 22.3721 41.9251 22.0864 41.5234C21.4252 40.5945 21.404 39.7047 22.0146 38.766C22.0995 38.6354 22.2301 38.4493 22.1076 38.3154C21.7126 37.8795 21.3305 37.4077 20.8554 37.0779C20.5371 36.8558 20.1714 37.2215 19.8612 37.3783C19.2163 37.7032 18.6498 37.6868 18.0343 37.2754C17.6196 36.9979 17.1348 36.7563 16.6499 36.6681C15.4989 36.4608 14.7952 35.8518 14.5618 34.7073C14.4949 34.3759 14.2793 34.3025 13.979 34.3302C13.7765 34.3482 13.5724 34.3335 13.3684 34.3335C12.41 34.3318 12.3741 34.3204 12.0786 35.2461C11.8566 35.9416 11.4468 36.3269 10.7366 36.4852C10.0232 36.6436 9.33585 36.9211 8.72362 37.3228C8.14732 37.6999 7.59876 37.7113 7.00613 37.393C6.72206 37.2411 6.41676 37.1301 6.11963 36.9995L6.11637 36.993ZM24.0292 4.99573C22.9909 5.38592 22.1125 5.96059 21.3044 6.64138C18.6759 8.85681 17.3143 11.7041 17.0988 15.1211C17.0744 15.508 17.1707 15.6566 17.5919 15.6452C18.609 15.6158 19.6277 15.6223 20.6448 15.6452C21.0497 15.6533 21.2048 15.5717 21.1967 15.108C21.164 13.3367 21.1852 11.5653 21.1869 9.79392C21.1869 9.42496 21.1787 9.04456 21.4644 8.76376C21.755 8.47805 22.0979 8.32296 22.5158 8.50091C23.0105 8.71151 23.1982 9.10334 23.1982 9.6176C23.1982 11.389 23.2194 13.1603 23.1917 14.9317C23.1835 15.4574 23.2766 15.6566 23.8741 15.6517C27.1311 15.6174 30.3898 15.6239 33.6468 15.6484C34.1693 15.6517 34.3505 15.539 34.3407 14.9839C34.3048 13.193 34.3244 11.4004 34.3309 9.60944C34.3342 8.86988 34.6852 8.44703 35.2794 8.43887C35.8982 8.42907 36.2818 8.87967 36.2835 9.6274C36.2867 11.4592 36.2982 13.2926 36.2737 15.1244C36.2688 15.5325 36.3831 15.6533 36.7814 15.6452C37.7985 15.6239 38.8173 15.6207 39.8344 15.6484C40.267 15.6598 40.3797 15.526 40.365 15.095C40.2899 12.9481 39.6499 10.9841 38.4826 9.19803C37.2532 7.31728 35.5994 5.92304 33.4934 4.9843C33.4411 5.27653 33.3889 5.51163 33.3579 5.74998C33.1522 7.29769 32.9546 8.84702 32.744 10.3947C32.6689 10.9433 32.1955 11.358 31.7155 11.3286C31.1947 11.2975 30.7996 10.8274 30.7996 10.2315C30.7996 10.0486 30.8078 9.86413 30.8322 9.68291C31.1 7.67645 31.371 5.66999 31.6453 3.66353C31.722 3.10518 31.5114 2.72152 30.9922 2.49295C29.5229 1.84645 28.0503 1.81543 26.5744 2.45704C26.0569 2.68234 25.7892 3.03498 25.8724 3.6521C26.1614 5.781 26.4144 7.91481 26.692 10.0437C26.754 10.5155 26.6332 10.8943 26.2332 11.1522C25.8985 11.3694 25.5328 11.3759 25.2014 11.1522C24.8129 10.8894 24.7378 10.4698 24.6823 10.0339C24.4749 8.3703 24.2512 6.70995 24.0276 4.99736L24.0292 4.99573ZM28.945 29.6953C29.1898 29.6985 29.6715 29.6675 30.158 29.5924C34.7227 28.8773 37.7447 26.3272 39.2483 21.9731C39.5666 21.0523 39.534 21.0425 38.5936 21.0441C34.2378 21.0474 29.8821 21.049 25.5263 21.0523C23.2064 21.0539 20.8848 21.0686 18.5649 21.0523C18.0588 21.049 17.9968 21.2058 18.1306 21.6629C19.5184 26.4399 23.7958 29.6985 28.945 29.6953ZM56.5571 38.0689C56.5065 38.0362 56.4558 38.0036 56.4069 37.9709C55.6673 38.7497 54.9277 39.53 54.1882 40.3088C53.8649 40.65 53.4927 40.7512 53.0274 40.6108C52.2356 40.3725 51.4405 40.1374 50.6324 39.9627C50.0495 39.837 49.7655 39.4908 49.6267 38.9586C49.4471 38.2729 49.3165 37.5676 49.0667 36.9081C48.7859 36.1669 48.9639 35.6314 49.5287 35.1237C50.2487 34.4771 50.9279 33.7882 51.7148 33.0323C51.4634 32.9996 51.4013 32.9768 51.3442 32.9866C48.6177 33.4894 46.928 36.2501 47.8014 38.8852C48.0365 39.597 47.9141 40.0655 47.4096 40.5651C44.4481 43.5038 41.4947 46.4539 38.5561 49.4154C38.0712 49.9036 37.6091 50.0391 36.9251 49.8154C35.2272 49.2619 33.6681 49.5885 32.3555 50.826C31.6094 51.5296 31.1277 52.3851 31.1653 53.5279C31.9489 52.8667 32.6379 52.1239 33.3024 51.3582C33.6713 50.9321 34.117 50.8472 34.6231 50.9778C35.4264 51.1868 36.2182 51.4317 37.0247 51.6292C37.5634 51.7614 37.8573 52.0896 37.9895 52.6055C38.174 53.3287 38.3373 54.0585 38.5691 54.7671C38.7879 55.4315 38.6409 55.9278 38.1234 56.3931C37.4034 57.038 36.7292 57.7335 35.9847 58.4584C36.3308 58.5775 36.5186 58.5269 36.7145 58.4698C39.276 57.709 40.6409 55.123 39.7658 52.5941C39.547 51.9606 39.676 51.5312 40.1348 51.0758C43.1241 48.1077 46.1003 45.1266 49.0667 42.1357C49.5206 41.6769 49.9761 41.5234 50.5948 41.7602C51.5809 42.1357 52.5801 42.0916 53.5792 41.7732C55.2118 41.2524 56.5946 39.5415 56.5571 38.0705V38.0689ZM28.7148 19.072V19.0752C32.2346 19.0752 35.7562 19.0752 39.276 19.0752C40.0695 19.0752 40.8629 19.0883 41.6564 19.0687C42.2767 19.0524 42.6375 18.4646 42.3437 17.9667C42.1282 17.6026 41.7608 17.5863 41.3788 17.5863C32.9742 17.5912 24.5696 17.5896 16.1666 17.5912C16.0034 17.5912 15.8336 17.5716 15.6801 17.6092C15.2818 17.7088 15.0108 17.9814 15.0516 18.3895C15.0891 18.7699 15.3128 19.0752 15.7732 19.0703C15.956 19.0687 16.1389 19.0736 16.3234 19.0736C20.4538 19.0736 24.5859 19.0736 28.7164 19.0736L28.7148 19.072ZM43.2367 50.7443L43.2987 50.9092C45.8374 50.9092 48.3761 50.9076 50.9164 50.9109C51.2364 50.9109 51.2201 50.7345 51.1777 50.5076C50.8299 48.6693 50.3124 46.8849 49.5516 45.1707C49.3687 44.7592 49.2349 44.7429 48.9328 45.058C48.2292 45.7927 47.4994 46.5045 46.7778 47.2228C45.5991 48.3967 44.4171 49.5689 43.2383 50.7427L43.2367 50.7443Z" fill="white"/>
<path d="M13.3733 52.5582C9.58889 52.5354 6.55716 49.4775 6.58982 45.7176C6.6241 41.899 9.67869 38.8493 13.4516 38.8673C17.1919 38.8869 20.284 42.0312 20.2677 45.7976C20.2514 49.5265 17.1348 52.5811 13.3716 52.5582H13.3733ZM13.4026 40.8688C10.6991 40.8737 8.54567 43.0483 8.55056 45.7666C8.55546 48.4457 10.7529 50.5958 13.4777 50.5909C16.0915 50.586 18.2547 48.4016 18.271 45.7487C18.2874 43.0483 16.1079 40.8623 13.4026 40.8688Z" fill="white"/>
</svg>
