<svg width="54" height="61" viewBox="0 0 54 61" fill="none" xmlns="http://www.w3.org/2000/svg">
<path d="M19.631 0.0202555C20.6881 -0.0113518 21.6328 0.389007 22.5722 0.798145C23.4327 1.17216 24.2861 1.56374 25.1465 1.93601C26.2036 2.39256 27.2624 2.38202 28.3177 1.91493C29.417 1.42853 30.5039 0.915794 31.6207 0.476805C34.1545 -0.518824 35.9246 0.0272793 37.4593 2.28017C37.9632 3.01943 38.4531 3.78679 38.8096 4.60331C39.6542 6.53662 41.1608 7.41811 43.1802 7.66219C44.1266 7.77632 45.0608 8.00811 45.9722 8.31189C48.4287 9.13192 49.2347 10.851 49.0749 13.29C48.9924 14.5315 48.8607 15.7677 48.7395 17.0056C48.6342 18.0768 48.9889 18.9793 49.7001 19.7643C50.4498 20.5913 51.2242 21.399 51.9354 22.2577C52.7853 23.2814 53.4332 24.3947 53.3753 25.8135C53.3349 26.8039 52.9082 27.6169 52.3744 28.3965C51.6913 29.3957 50.8502 30.2719 49.9828 31.0972C48.6377 32.3791 48.5973 33.9208 48.8115 35.5819C48.9678 36.7918 49.1469 37.9999 49.0345 39.2343C48.9134 40.546 48.362 41.5838 47.247 42.2721C46.8343 42.5267 46.8484 42.7164 47.0644 43.0816C48.7747 45.9842 50.4674 48.8974 52.1672 51.807C52.255 51.958 52.3375 52.1143 52.4323 52.26C52.7326 52.7236 52.8204 53.1907 52.4429 53.6525C52.0688 54.1108 51.5912 54.0932 51.0715 53.9528C48.5323 53.2679 45.9827 52.62 43.4559 51.8965C42.9115 51.7403 42.8343 51.951 42.7289 52.3513C42.0687 54.8553 41.3961 57.354 40.7341 59.858C40.5866 60.4164 40.3636 60.9099 39.7157 60.9906C39.087 61.0697 38.7833 60.6359 38.5093 60.1583C36.864 57.2943 35.2099 54.4356 33.5663 51.5717C33.4153 51.3065 33.252 51.1713 32.9289 51.1099C31.784 50.8904 30.7533 50.3495 29.6997 49.8772C29.3415 49.7174 28.9762 49.5699 28.6233 49.3978C27.366 48.7885 26.1333 48.8078 24.8427 49.3732C23.3501 50.0299 21.9208 50.864 20.2807 51.1502C20.0033 51.1977 19.9524 51.4786 19.8365 51.677C18.1929 54.5164 16.5476 57.354 14.9163 60.2005C14.6336 60.6939 14.2964 61.0872 13.6871 60.9819C13.0971 60.8818 12.8758 60.4322 12.7301 59.8738C12.0628 57.326 11.3446 54.7921 10.6774 52.2442C10.5703 51.8368 10.4596 51.7771 10.0593 51.886C7.51841 52.5831 4.96701 53.2381 2.42614 53.9299C1.87828 54.0792 1.38485 54.1284 0.998541 53.6384C0.610474 53.1468 0.773778 52.6656 1.05473 52.1792C2.80015 49.1713 4.52977 46.1546 6.28398 43.1519C6.53157 42.7287 6.56317 42.4969 6.08555 42.1931C4.9073 41.4451 4.40686 40.2914 4.33486 38.9235C4.25584 37.4485 4.54558 36.0051 4.68605 34.5512C4.7879 33.5064 4.65445 32.5406 3.94855 31.7258C3.27426 30.948 2.57715 30.1911 1.89057 29.4255C1.14077 28.5879 0.45595 27.7047 0.148657 26.6037C-0.31316 24.9566 0.359372 23.6028 1.36202 22.3806C2.09777 21.4851 2.902 20.6457 3.68516 19.7906C4.55611 18.8371 4.82126 17.7449 4.66849 16.4613C4.51924 15.2075 4.34189 13.9538 4.32081 12.6807C4.27516 9.95371 5.89942 8.70171 7.82395 8.18371C9.01625 7.86237 10.2366 7.63585 11.4482 7.3865C12.6353 7.14242 13.5097 6.50677 14.0997 5.44265C14.6704 4.41015 15.2517 3.38116 15.8803 2.38202C16.5581 1.30386 17.4185 0.427638 18.7197 0.0957617C19.027 0.0167436 19.3255 0.0501068 19.6293 0.0167436L19.631 0.0202555ZM6.43148 37.8945C6.41041 40.0368 6.81428 40.5794 8.57199 41.0324C9.20413 41.1957 9.8433 41.352 10.4895 41.4328C13.285 41.7805 15.3465 43.1185 16.5335 45.7331C16.8847 46.5075 17.3219 47.2485 17.8312 47.9368C18.6828 49.087 19.3817 49.3363 20.7197 48.8394C21.7821 48.4443 22.8163 47.9667 23.8453 47.4873C25.6979 46.6234 27.5416 46.5812 29.4047 47.4452C30.3547 47.8859 31.3046 48.3337 32.2757 48.7218C33.9842 49.4031 34.7726 49.1537 35.756 47.612C36.3319 46.7094 36.8517 45.77 37.368 44.8306C38.3267 43.0869 39.7824 42.0825 41.728 41.6874C43.0221 41.424 44.3461 41.2712 45.5929 40.7848C46.4392 40.4547 46.8817 39.8542 46.9327 38.9551C46.9871 37.9665 46.8958 36.9849 46.729 36.0156C46.3146 33.5994 46.6324 31.4098 48.492 29.6099C49.2137 28.911 49.8844 28.1525 50.5148 27.3693C51.5491 26.0822 51.5508 25.1902 50.5166 23.8995C49.8598 23.0813 49.1364 22.3139 48.4164 21.5501C46.9818 20.0259 46.3427 18.277 46.6306 16.1575C46.7975 14.9301 46.9906 13.6974 46.9432 12.4419C46.9081 11.5077 46.5323 10.8773 45.6543 10.5139C44.6376 10.0924 43.563 9.91157 42.4918 9.75002C40.0036 9.37249 38.1476 8.17668 37.0343 5.86408C36.5813 4.92113 36.0738 3.99399 35.4188 3.16518C34.6497 2.19413 34.0264 2.01327 32.8306 2.35744C31.8367 2.64366 30.9201 3.1125 30.0052 3.5708C27.8296 4.66301 25.6803 4.75783 23.4889 3.61646C22.6197 3.16342 21.7153 2.76482 20.7935 2.4347C19.3185 1.90791 18.6003 2.15901 17.7363 3.47774C17.1744 4.3364 16.6617 5.23018 16.1841 6.13977C15.1463 8.12225 13.5484 9.25835 11.3376 9.64466C10.1014 9.86065 8.84065 10.0187 7.66592 10.5244C6.84413 10.8791 6.47362 11.5025 6.43148 12.3646C6.38407 13.3304 6.51576 14.2821 6.63868 15.2374C6.84413 16.8265 7.00743 18.4139 6.17862 19.903C5.69397 20.7739 5.01266 21.4868 4.35067 22.2156C3.74837 22.8793 3.10745 23.508 2.59295 24.2525C1.93622 25.2025 1.93974 26.1191 2.61929 27.0374C2.89322 27.4062 3.17593 27.7697 3.47971 28.1138C4.11712 28.8373 4.78439 29.5326 5.41302 30.2631C6.59654 31.638 7.00041 33.2272 6.7335 35.0218C6.57547 36.0789 6.50874 37.1482 6.43323 37.8963L6.43148 37.8945ZM14.1085 56.9677C14.1612 56.9835 14.2156 56.9993 14.2683 57.0134C15.4044 55.0274 16.5405 53.0414 17.6819 51.0589C17.8101 50.8359 17.7469 50.713 17.5432 50.5831C16.7109 50.051 16.1209 49.2907 15.6257 48.4566C15.0919 47.554 14.5861 46.6322 14.0646 45.7226C13.5045 44.7463 12.7073 44.086 11.5782 43.8595C10.7476 43.6927 9.9153 43.5294 9.09527 43.3187C8.74583 43.2291 8.58779 43.3275 8.42273 43.6189C7.59217 45.0834 6.74228 46.5373 5.90118 47.9948C5.28659 49.0607 4.67552 50.1283 3.99772 51.31C6.33841 50.6849 8.53687 50.0967 10.7371 49.5102C11.6344 49.2714 12.105 49.533 12.3508 50.4338C12.9426 52.6094 13.5255 54.7886 14.1103 56.966L14.1085 56.9677ZM49.2242 51.3013C49.305 51.0941 49.1768 51.0063 49.1171 50.9009C47.995 48.9483 46.873 46.9957 45.7456 45.0483C45.4067 44.4636 45.1697 43.626 44.6622 43.3907C44.16 43.1589 43.3751 43.554 42.7096 43.6506C41.0432 43.8894 39.7543 44.6392 39.0203 46.2248C38.7271 46.8569 38.3478 47.4504 38.0019 48.058C37.4452 49.0326 36.8271 49.9667 35.8561 50.5796C35.4785 50.8184 35.6436 51.0326 35.7823 51.2767C36.8078 53.0572 37.8333 54.8395 38.8693 56.6148C38.9501 56.7518 38.9975 56.9467 39.2398 56.9888C39.2644 56.9115 39.2925 56.836 39.3136 56.7605C39.8842 54.6464 40.4497 52.5304 41.0256 50.418C41.2592 49.5611 41.7403 49.2837 42.5919 49.4979C42.9501 49.5874 43.3031 49.6981 43.6578 49.7947C45.5156 50.2986 47.3752 50.8008 49.2277 51.303L49.2242 51.3013Z" fill="white"/>
<path d="M26.6373 9.22853C35.4681 9.1302 43.0643 16.3489 43.096 25.5993C43.1258 34.625 35.6472 42.0825 26.6602 42.0281C17.5977 41.9736 10.2367 34.5986 10.2736 25.5467C10.3122 16.2647 17.9875 9.15829 26.6373 9.22853ZM40.9607 25.6204C41.0222 17.8626 34.5901 11.3778 26.7778 11.3234C18.9094 11.2672 12.4158 17.6887 12.4158 25.5607C12.4158 33.531 18.7443 39.5733 26.093 39.8595C34.1529 40.1738 40.8975 33.819 40.9607 25.6222V25.6204Z" fill="white"/>
<path d="M36.8412 20.0506C36.85 20.2789 36.6955 20.5317 36.4707 20.7565C32.7235 24.5054 28.9798 28.2579 25.2273 32.0016C24.6935 32.5337 24.1263 32.5056 23.5609 31.9402C21.359 29.7452 19.1605 27.5468 16.9655 25.343C16.4458 24.8215 16.4107 24.1578 16.8532 23.7205C17.3062 23.2728 17.919 23.3114 18.4757 23.8628C20.279 25.6521 22.0982 27.4256 23.8507 29.2641C24.3476 29.7856 24.5688 29.668 24.9991 29.2342C28.2651 25.9366 31.554 22.6634 34.8377 19.3833C35.433 18.788 35.8632 18.6985 36.3935 19.0497C36.692 19.2464 36.8447 19.5536 36.8412 20.0488V20.0506Z" fill="white"/>
</svg>
