<svg width="53" height="46" viewBox="0 0 53 46" fill="none" xmlns="http://www.w3.org/2000/svg">
<path d="M16.2281 42.3729C22.3434 45.9438 30.4132 45.5921 35.751 42.3729C34.9974 41.9768 34.2919 41.557 33.6525 41.025C33.2592 40.6968 33.2382 40.4042 33.5564 40.0229C35.2286 38.0157 37.4201 37.2737 39.99 37.4333C40.1701 37.4452 40.3682 37.4333 40.5304 37.4984C41.3559 37.8413 41.7973 37.4038 42.1755 36.7682C42.4037 36.384 42.6769 36.0292 42.9501 35.6272C42.4187 35.4912 41.9233 35.3582 41.428 35.2429C40.8966 35.1188 40.7855 34.7995 40.9206 34.3147C41.464 32.3667 42.6949 30.9537 44.5022 30.0728C45.2107 29.7269 45.619 29.3279 45.649 28.5504C45.664 28.1809 45.7421 27.8144 45.7961 27.3946C45.4809 27.4715 45.2257 27.5335 44.9705 27.6015C44.286 27.7789 44.1179 27.6932 43.9378 27.0487C43.4154 25.1982 43.6736 23.3891 44.7634 21.8668C45.5769 20.7316 45.1056 19.8655 44.7363 18.7925C44.5112 19.0851 44.3221 19.3187 44.1449 19.5581C43.8537 19.9513 43.5295 20.0045 43.1272 19.7C41.5601 18.5117 40.7135 16.9272 40.4283 15.0206C40.2962 14.1249 40.3352 13.2381 40.5214 12.3542C40.5724 12.1118 40.5274 11.9108 40.3232 11.7305C39.7528 11.2309 39.1944 10.7165 38.642 10.1963C38.1707 9.75287 37.6453 9.60802 36.9758 9.60802C34.1088 9.60802 32.0883 8.12704 30.5753 5.85974C29.7857 4.67437 29.3774 3.3471 29.1943 1.94889C29.1312 1.47592 29.2543 1.15962 29.8097 1.07685C31.5119 0.82263 33.07 1.22465 34.481 2.12921C36.7747 3.60428 38.0326 5.74446 38.4499 8.38717C38.4769 8.56453 38.4679 8.73007 38.639 8.85718C39.4256 9.43657 40.1701 10.0633 40.8996 10.7904C41.2719 10.0958 41.5451 9.39814 42.0044 8.80102C42.1485 8.61479 42.2896 8.42856 42.4277 8.23937C42.7309 7.81961 43.0732 7.78414 43.4935 8.09452C44.7994 9.06115 45.604 10.35 45.9882 11.893C46.4296 13.6637 46.2794 15.4048 45.589 17.0927C45.4659 17.3972 45.4689 17.6514 45.595 17.9559C45.8441 18.5649 46.0423 19.1975 46.2764 19.8655C46.8469 19.4369 47.3872 18.9905 48.0027 18.6506C48.7982 18.2131 49.6358 17.8938 50.5215 17.6603C51.0649 17.5184 51.317 17.6928 51.4491 18.1717C51.9054 19.8123 51.7103 21.3938 50.9688 22.9132C50.1732 24.5479 48.9333 25.7835 47.3422 26.6704C47.009 26.8566 46.8829 27.0724 46.8619 27.4301C46.8378 27.8735 46.7868 28.3228 46.6847 28.7573C46.5947 29.1416 46.6907 29.254 47.078 29.1741C48.534 28.8785 49.9661 29.0027 51.3801 29.4106C52.0015 29.5909 52.1066 29.7683 51.9175 30.3861C51.0558 33.218 48.9664 34.702 46.1894 35.4173C45.7691 35.5237 45.3278 35.6302 44.9015 35.6095C44.3251 35.5829 44.0218 35.8105 43.7667 36.2982C43.5025 36.8037 43.1392 37.2649 42.785 37.7171C42.5868 37.9714 42.6409 38.0393 42.9201 38.1546C43.7306 38.4857 44.4662 38.9498 45.1386 39.5055C45.655 39.9312 45.667 40.1115 45.2557 40.62C43.9498 42.231 42.2025 42.9937 40.1611 43.1651C39.2514 43.242 38.3418 43.1651 37.4592 42.9316C37.192 42.8607 37.0089 42.9109 36.8047 43.0351C33.067 45.2521 29.0021 46.2069 24.6611 45.9557C21.2927 45.7606 18.1494 44.7821 15.2494 43.0705C15.0062 42.9287 14.8081 42.8666 14.4988 42.9346C12.1422 43.4578 9.91457 43.1977 7.91215 41.764C7.43781 41.424 7.04753 41.0043 6.68127 40.552C6.36605 40.1647 6.40207 39.8573 6.79535 39.5469C7.49185 38.9941 8.23037 38.4975 9.06196 38.1724C9.41922 38.0305 9.35017 37.9211 9.18505 37.6876C8.78877 37.1318 8.39849 36.5672 8.03824 35.9878C7.87612 35.7248 7.68098 35.6538 7.38077 35.6331C4.56476 35.4144 2.2291 34.3413 0.713023 31.8819C0.409808 31.3912 0.205663 30.8561 0.0465493 30.3033C-0.0825426 29.854 0.0525535 29.5702 0.505876 29.4372C1.93489 29.0234 3.38492 28.8667 4.85897 29.1682C5.21623 29.2421 5.43538 29.2185 5.3153 28.7603C5.22824 28.4351 5.12616 28.0863 5.15318 27.7611C5.21022 27.1079 4.88899 26.8063 4.35461 26.4812C2.16305 25.1391 0.749049 23.2295 0.355769 20.6844C0.220673 19.8153 0.28672 18.9344 0.580929 18.086C0.716026 17.6987 0.938184 17.5332 1.41252 17.6485C3.04568 18.0535 3.85326 18.4407 5.71758 19.8537C5.99678 19.0763 6.28799 18.3195 6.52816 17.548C6.5762 17.3943 6.4351 17.1785 6.36905 16.9982C5.52845 14.7102 5.51344 12.4547 6.65425 10.2495C7.09857 9.38927 7.72601 8.67686 8.51257 8.10043C8.9749 7.76344 9.21207 7.793 9.57533 8.23346C10.1307 8.90448 10.578 9.64054 10.9143 10.4387C11.0314 10.7195 11.1214 10.7668 11.3586 10.5392C11.968 9.94501 12.6135 9.39518 13.307 8.89561C13.7003 8.61183 13.5802 8.17433 13.6402 7.81665C14.1776 4.70984 16.7294 1.91341 19.7466 1.17736C20.5842 0.973388 21.4278 0.940872 22.2834 1.08867C22.7217 1.16553 22.8568 1.42271 22.8178 1.81586C22.4725 5.43999 19.9717 8.60001 16.6634 9.43952C15.9669 9.61689 15.2644 9.64645 14.5559 9.61098C14.2617 9.5962 14.0365 9.67897 13.8113 9.85337C13.0788 10.418 12.3943 11.0328 11.7369 11.6802C11.5117 11.9019 11.4547 12.1148 11.5057 12.4399C11.932 15.1772 11.3406 17.6012 9.14302 19.4842C8.4075 20.1138 8.24238 20.0724 7.67198 19.3157C7.55489 19.162 7.43781 19.0112 7.2787 18.8073C6.97248 19.4605 6.82837 20.0991 6.66326 20.7287C6.60321 20.9534 6.79235 21.0893 6.90343 21.246C7.8431 22.5969 8.35646 24.0749 8.29642 25.7274C8.27841 26.2151 8.17033 26.6851 8.04724 27.1492C7.92716 27.6133 7.62995 27.773 7.1436 27.6429C6.23095 27.3975 6.22795 27.4094 6.33002 28.3317C6.33903 28.4026 6.35404 28.4736 6.35404 28.5445C6.36905 29.319 6.79235 29.7151 7.49785 30.061C9.27812 30.9389 10.524 32.3194 11.0614 34.2526C11.2385 34.8971 11.1454 35.0833 10.488 35.2666C10.0407 35.3907 9.58133 35.4853 9.09199 35.6036C9.45224 36.3071 9.93559 36.9072 10.4159 37.5073C10.6141 37.7556 10.8632 37.593 11.0734 37.5516C12.8837 37.1969 14.6129 37.4127 16.2581 38.2256C17.1497 38.666 17.8882 39.2898 18.4947 40.0761C18.7769 40.4426 18.7108 40.7264 18.3776 41.0013C17.7351 41.5334 17.0296 41.9679 16.2191 42.364L16.2281 42.3729ZM44.193 34.5808C44.7874 34.6251 45.4358 34.5128 46.0633 34.3561C48.1318 33.8329 49.7619 32.751 50.6716 30.7675C50.8277 30.4245 50.7736 30.33 50.3894 30.2531C48.7172 29.9191 47.096 30.0669 45.5409 30.729C44.0218 31.3764 42.845 32.3992 42.1875 33.9363C42.0855 34.1758 42.0134 34.3354 42.4037 34.3916C42.9771 34.4773 43.5415 34.5985 44.193 34.5808ZM7.8401 34.5896C8.39849 34.6192 8.92987 34.498 9.46725 34.4241C9.85453 34.3709 9.98662 34.2526 9.79148 33.8447C9.47626 33.1885 9.09199 32.5854 8.5546 32.0947C6.74431 30.4364 4.57677 29.8659 2.16906 30.1762C1.08229 30.3152 0.98922 30.2206 1.59265 31.2493C2.97063 33.6082 5.21923 34.4566 7.8401 34.5896ZM39.4796 42.1217C41.1218 42.1217 42.5958 41.6782 43.8477 40.5963C44.187 40.3037 44.271 40.1293 43.8057 39.8337C42.5568 39.0414 41.1998 38.5567 39.7288 38.4827C37.9245 38.3911 36.2733 38.8316 34.9164 40.0968C34.6672 40.3303 34.6011 40.4544 34.9434 40.6791C36.3214 41.5866 37.8164 42.101 39.4766 42.1217H39.4796ZM50.5875 19.8862C50.5875 19.7443 50.5905 19.5995 50.5875 19.4576C50.5635 18.7747 50.5185 18.7422 49.87 18.9728C48.0417 19.6261 46.6037 20.7523 45.64 22.4225C44.9705 23.5842 44.6463 24.8317 44.8504 26.1797C44.8895 26.4427 44.9555 26.5462 45.2647 26.4309C45.724 26.2595 46.1834 26.0939 46.6127 25.8604C48.9994 24.5568 50.4284 22.6294 50.5875 19.8862ZM36.3304 8.5468C37.3961 8.57045 37.4141 8.56749 37.249 7.85508C36.9278 6.47165 36.3033 5.23602 35.3096 4.19549C34.0818 2.9096 32.6017 2.13216 30.7734 2.07008C30.3891 2.05826 30.3021 2.20311 30.3801 2.53714C30.6533 3.73434 31.1006 4.85469 31.8632 5.8361C33.073 7.39985 34.6222 8.38717 36.3304 8.5468ZM7.20965 25.3697C7.24267 24.9499 7.1466 24.5124 7.03252 24.0838C6.45611 21.9052 5.05711 20.3858 3.05769 19.3689C2.58636 19.1295 1.9439 18.6358 1.60166 18.9078C1.16935 19.2536 1.34948 20.0252 1.44855 20.5986C1.91688 23.2975 3.58307 25.0711 6.05382 26.1678C7.16161 26.6585 7.20965 26.6024 7.20965 25.3697ZM45.1326 13.3859C45.1206 12.1443 44.6223 10.6397 43.3854 9.41292C43.1782 9.206 43.0642 9.16461 42.866 9.45431C42.0584 10.6367 41.5871 11.9226 41.476 13.3504C41.3319 15.2009 41.8123 16.8385 43.0642 18.2486C43.3644 18.5856 43.5505 18.624 43.8207 18.1924C44.6583 16.8533 45.1386 15.4226 45.1326 13.3888V13.3859ZM15.3124 8.54975C18.4256 8.43151 21.0885 5.63804 21.6409 2.39821C21.6799 2.17059 21.6079 2.07895 21.3587 2.076C20.8453 2.06417 20.341 2.11738 19.8516 2.26814C17.0056 3.14609 15.4565 5.16803 14.754 7.91716C14.5919 8.54975 14.6219 8.55567 15.3094 8.54975H15.3124ZM6.8674 13.8381C6.85539 15.0235 7.12859 16.1409 7.64496 17.2021C7.87912 17.681 8.08627 18.4644 8.51257 18.4703C9.07397 18.4821 9.38319 17.746 9.6774 17.2435C11.0374 14.923 10.7732 11.5295 9.113 9.4011C8.88484 9.10845 8.77676 9.26807 8.62065 9.42179C7.37777 10.6397 6.90643 12.1561 6.8674 13.8352V13.8381ZM12.4304 41.693C12.7786 41.7285 13.34 41.6487 13.8954 41.5689C14.9942 41.4122 16.0659 41.158 17.0627 40.6495C17.3358 40.5106 17.4109 40.3805 17.1407 40.147C16.7985 39.8514 16.4682 39.541 16.0629 39.3311C13.4961 38.0009 10.9923 38.264 8.5456 39.6415C7.62995 40.1559 7.63895 40.2564 8.5546 40.8299C9.6714 41.5275 10.9263 41.6664 12.4304 41.6901V41.693Z" fill="#ED0007"/>
<path d="M34.2709 14.1367L28.6389 36.5524C28.2606 38.0334 27.378 38.7754 25.997 38.7754C24.616 38.7754 23.7394 38.0334 23.3731 36.5524L17.7411 14.1367H22.1243L25.994 32.8515L29.8638 14.1367H34.2679H34.2709Z" stroke="#ED0007"/>
</svg>
