<svg width="81" height="93" viewBox="0 0 81 93" fill="none" xmlns="http://www.w3.org/2000/svg">
<path d="M80.4737 10.4511C80.4737 4.67932 75.7943 0 70.0225 0H10.4511C4.67932 0 0 4.67932 0 10.4511V82.3549C0 88.1266 4.67932 92.806 10.4511 92.806H70.0225C75.7943 92.806 80.4737 88.1266 80.4737 82.3549V10.4511ZM76.2932 82.3549C76.2932 85.8184 73.486 88.6255 70.0225 88.6255H10.4511C6.98756 88.6255 4.18045 85.8184 4.18045 82.3549V10.4511C4.18045 6.98756 6.98756 4.18045 10.4511 4.18045H70.0225C73.486 4.18045 76.2932 6.98756 76.2932 10.4511V82.3549Z" fill="#AAB5BF"/>
<path d="M28.6361 29.8902H51.6286C56.2459 29.8902 59.9895 26.1466 59.9895 21.5293C59.9895 16.912 56.2459 13.1684 51.6286 13.1684H28.6361C24.0188 13.1684 20.2752 16.912 20.2752 21.5293C20.2752 26.1466 24.0188 29.8902 28.6361 29.8902ZM28.6361 17.3488H51.6286C53.9376 17.3488 55.809 19.2202 55.809 21.5293C55.809 23.8384 53.9376 25.7097 51.6286 25.7097H28.6361C26.327 25.7097 24.4556 23.8384 24.4556 21.5293C24.4556 19.2202 26.327 17.3488 28.6361 17.3488Z" fill="#AAB5BF"/>
</svg>
