<svg width="72" height="94" viewBox="0 0 72 94" fill="none" xmlns="http://www.w3.org/2000/svg">
<path d="M3.70702 93.1031C2.65005 92.6536 1.59308 92.2138 0.912734 91.1981C0.45107 90.508 0.0817388 89.7888 0.0623004 88.9432C0.0355724 87.7016 -0.00330454 86.46 0.0258532 85.2183C0.0647302 83.4276 0.956471 82.1203 2.49454 81.2675C2.94892 81.0172 3.1433 80.7669 3.1433 80.2275C3.12872 62.9807 3.13358 45.7339 3.1433 28.4871C3.1433 27.9477 3.0048 27.6294 2.49697 27.3451C0.866568 26.4315 0.00155508 25.01 0.00155508 23.1148C0.00155508 17.0233 -0.00816417 10.9293 0.0209936 4.83775C0.0380022 1.87824 2.00129 0 4.94379 0C25.4927 0.00242981 46.044 0 66.5954 0C68.8673 0 70.556 1.22705 71.2412 3.34099C71.4331 3.93143 71.4137 4.53403 71.4137 5.13419C71.4234 10.9852 71.3918 16.8337 71.4356 22.6847C71.4526 24.8278 70.6993 26.4485 68.7579 27.4326C68.3643 27.6318 68.2963 27.9258 68.2987 28.3219C68.3133 30.0203 68.306 31.7163 68.306 33.4148C68.306 48.9024 68.306 64.3924 68.289 79.88C68.289 80.5677 68.4007 80.9953 69.0908 81.3744C70.5293 82.1616 71.3578 83.4373 71.3918 85.1309C71.4161 86.251 71.4429 87.3736 71.3991 88.4937C71.3092 90.7243 70.1599 92.204 68.0314 92.9257C67.9221 92.9621 67.8297 93.0448 67.7277 93.1031H3.70702ZM45.8132 80.5337C46.0125 80.6309 46.0611 80.677 46.1096 80.677C52.2619 80.6819 58.4142 80.6746 64.5665 80.694C65.2323 80.694 65.1861 80.3296 65.1861 79.8825C65.1861 62.8495 65.1812 45.8165 65.2055 28.7835C65.2055 28.0643 64.965 27.9404 64.3211 27.9477C61.4126 27.9817 58.5017 27.9598 55.5932 27.9696C54.2714 27.9744 54.4002 27.7533 54.388 29.1796C54.3613 32.1561 52.3251 34.1972 49.334 34.1388C48.4301 34.1218 47.966 34.3016 48.1385 35.2906C48.1701 35.4655 48.1385 35.6526 48.1264 35.8349C47.9344 38.5295 46.0027 40.3349 43.2984 40.3494C42.5718 40.3543 41.8405 40.3883 41.1164 40.3397C40.5478 40.3008 40.3972 40.4928 40.4069 41.0492C40.4409 42.806 40.4288 44.5652 40.4142 46.3219C40.3996 48.3046 39.0802 49.624 37.1218 49.641C36.213 49.6483 35.297 49.5779 34.3955 49.6556C32.5756 49.8087 30.9501 48.2245 31.0035 46.2223C31.0327 45.1021 31.0327 43.9796 31.0035 42.8594C30.9816 42.0527 31.3656 41.0055 30.8407 40.5025C30.3232 40.0044 29.2735 40.3033 28.4741 40.3713C25.8256 40.5924 23.0872 38.5368 23.2962 35.1788C23.3448 34.3988 23.1236 34.0562 22.2951 34.1486C19.7025 34.4377 16.8401 32.4234 17.0783 28.8248C17.1244 28.1372 16.9252 27.9428 16.2376 27.9501C13.2683 27.9841 10.2967 27.9963 7.32744 27.9428C6.477 27.9282 6.2243 28.1153 6.2243 29.0168C6.25589 45.9283 6.25346 62.8398 6.22916 79.7537C6.22916 80.5434 6.47214 80.711 7.20351 80.7062C12.9622 80.6794 18.7208 80.6916 24.4795 80.6867C24.8294 80.6867 25.1914 80.7353 25.534 80.5652C25.3955 80.2299 25.1015 80.106 24.878 79.9141C20.7691 76.3714 18.6382 71.9078 18.6285 66.4626C18.6212 62.9467 18.6212 59.4307 18.6309 55.9148C18.6358 54.1313 20.0183 52.7366 21.7824 52.7366C31.0254 52.7342 40.2708 52.7415 49.5138 52.7366C50.5149 52.7366 51.3678 53.0671 52.0044 53.8179C52.3445 54.2188 52.7163 54.299 53.1925 54.3038C54.2204 54.316 55.2506 54.1872 56.2784 54.3403C57.9185 54.5857 58.9876 55.7957 58.9901 57.4407C58.9974 61.0782 58.9974 64.7156 58.9925 68.3506C58.9925 68.681 58.9804 69.0188 58.9148 69.3419C58.2806 72.5371 55.7536 74.566 52.3227 74.5004C51.2949 74.481 50.6145 74.6608 50.216 75.6789C50.0241 76.1721 49.6183 76.5828 49.3024 77.0274C48.3475 78.3638 47.1204 79.4354 45.8108 80.5385L45.8132 80.5337ZM35.7052 24.7695C45.8278 24.7695 55.9504 24.7695 66.0705 24.7695C67.9051 24.7695 68.2817 24.3929 68.2841 22.5341C68.2865 16.6855 68.2865 10.837 68.2841 4.9884C68.2841 3.65687 67.7034 3.08343 66.3305 3.08343C45.9347 3.08343 25.5389 3.08343 5.14303 3.08343C3.69973 3.08343 3.16031 3.62285 3.16031 5.04672C3.15788 10.8661 3.15545 16.6831 3.16031 22.5025C3.16031 24.4269 3.51506 24.7719 5.43218 24.7719C15.5232 24.7719 25.6166 24.7719 35.7076 24.7719L35.7052 24.7695ZM35.7392 55.8443V55.8395C31.3777 55.8395 27.0138 55.8516 22.6523 55.8249C21.9573 55.82 21.7168 55.9926 21.7265 56.7337C21.7678 60.0042 21.7265 63.2771 21.7532 66.5477C21.7727 68.6786 22.1784 70.7391 23.1139 72.6757C25.9155 78.478 31.8782 81.5153 38.2614 80.3927C44.3335 79.3236 49.0716 74.2016 49.5697 68.127C49.8783 64.3463 49.6037 60.5582 49.7155 56.775C49.7374 55.9974 49.4652 55.8225 48.7363 55.8273C44.4039 55.8565 40.0716 55.8419 35.7416 55.8419L35.7392 55.8443ZM35.7319 83.8163C31.1274 83.8163 26.5205 83.8163 21.916 83.8163C16.2813 83.8163 10.6441 83.8163 5.0094 83.8188C3.69001 83.8188 3.16031 84.3703 3.15788 85.7043C3.15788 86.3409 3.15788 86.9775 3.15788 87.6141C3.16274 89.592 3.57824 90.0124 5.53666 90.0124C25.534 90.0124 45.5289 90.0124 65.5263 90.0124C65.8907 90.0124 66.2552 90.0342 66.6173 90.0099C67.7107 89.9395 68.255 89.366 68.2744 88.2653C68.289 87.4781 68.2817 86.6908 68.2817 85.9011C68.2817 84.2658 67.837 83.8163 66.1775 83.8163C56.0281 83.8163 45.8788 83.8163 35.7271 83.8163H35.7319ZM35.7101 27.9623C32.9838 27.9623 30.2576 27.9623 27.5313 27.9623C25.3493 27.9623 23.1698 27.9525 20.9878 27.9623C20.6987 27.9623 20.3245 27.78 20.2297 28.3292C19.9139 30.1807 20.5991 31.0068 22.4895 31.0068C31.1517 31.002 39.8164 31.0044 48.4787 30.9995C48.9622 30.9995 49.4458 30.9631 49.9293 30.9364C50.5198 30.9048 50.8696 30.55 51.0713 30.0398C51.3094 29.4274 51.324 28.7277 51.1151 28.1761C50.9401 27.7144 50.2476 27.9744 49.7932 27.972C45.0988 27.955 40.402 27.9623 35.7076 27.9598L35.7101 27.9623ZM35.7854 34.1559C32.9401 34.1559 30.0972 34.1704 27.2519 34.1437C26.6396 34.1388 26.4136 34.2871 26.4209 34.9455C26.4428 36.7898 26.8583 37.2344 28.7244 37.2344C33.3847 37.2344 38.0427 37.2344 42.7031 37.2393C44.5473 37.2393 44.9749 36.7898 45.0187 34.9553C45.0332 34.3211 44.868 34.134 44.2241 34.1413C41.4104 34.1753 38.5967 34.1559 35.783 34.1559H35.7854ZM55.9115 63.1508C55.9115 62.0306 55.9115 60.9105 55.9115 59.7904C55.9091 57.3484 55.9066 57.3727 53.4817 57.4213C52.8913 57.4334 52.7892 57.6473 52.7941 58.1624C52.8159 60.5849 52.7916 63.005 52.8111 65.4275C52.8256 67.2134 52.7868 68.9921 52.3057 70.7269C52.155 71.2688 52.4199 71.3271 52.8645 71.3271C54.5921 71.3198 55.8702 69.981 55.9042 68.0566C55.9309 66.4213 55.9091 64.7885 55.9115 63.1532V63.1508ZM37.2214 43.4523C37.2214 43.4523 37.2287 43.4523 37.2335 43.4523C37.2335 43.1802 37.2335 42.908 37.2335 42.6383C37.2433 40.2595 37.2433 40.279 34.8475 40.3373C34.3056 40.3494 34.1987 40.5293 34.206 41.0201C34.2303 42.6796 34.2279 44.3416 34.1914 46.0012C34.1817 46.4677 34.3518 46.5698 34.7624 46.5552C35.3966 46.5333 36.0308 46.5357 36.665 46.5552C37.0829 46.5698 37.253 46.4458 37.2335 45.989C37.1947 45.1459 37.2214 44.3003 37.2214 43.4547V43.4523Z" fill="#AAB5BF"/>
<path d="M43.4806 13.9107C43.4952 9.60746 46.9771 6.16928 51.2949 6.17414C55.5592 6.179 59.1699 9.86016 59.0192 14.2994C58.8832 18.2624 55.3235 21.7711 51.2293 21.7517C46.9528 21.7298 43.466 18.2041 43.483 13.9131L43.4806 13.9107ZM51.2414 18.554C53.7878 18.554 55.8969 16.479 55.9066 13.9641C55.9164 11.442 53.7052 9.25028 51.1928 9.29402C48.6731 9.33775 46.6296 11.3861 46.6199 13.8815C46.6102 16.5227 48.6172 18.554 51.239 18.554H51.2414Z" fill="#AAB5BF"/>
<path d="M13.973 18.5565C14.9109 18.5565 15.8464 18.5419 16.7843 18.5589C17.9263 18.5808 18.6018 19.1664 18.6188 20.1164C18.6358 21.1223 17.9724 21.7347 16.7746 21.7492C14.9012 21.7711 13.0254 21.7735 11.152 21.7492C10.0367 21.7347 9.34176 21.0883 9.35148 20.1529C9.3612 19.2077 10.0634 18.5759 11.1617 18.5565C12.0996 18.5395 13.0351 18.554 13.973 18.5565Z" fill="#AAB5BF"/>
<path d="M14.0434 12.3677C14.9838 12.3677 15.9217 12.3556 16.862 12.3702C17.936 12.3872 18.6042 12.9825 18.6212 13.9034C18.6382 14.8583 18.0307 15.4998 16.9446 15.5168C14.9449 15.5508 12.9451 15.5459 10.9454 15.4973C9.93218 15.473 9.31987 14.7951 9.35389 13.8936C9.38547 13.0043 10.0488 12.3896 11.045 12.3702C12.0437 12.3507 13.0448 12.3653 14.0459 12.3653L14.0434 12.3677Z" fill="#AAB5BF"/>
<path d="M13.9851 6.17415C14.9838 6.17415 15.9849 6.15714 16.9835 6.17901C17.9919 6.20088 18.6139 6.80833 18.6188 7.72923C18.6237 8.66713 18.0356 9.2673 17.0005 9.27702C15.0008 9.29889 13.0011 9.29889 11.0038 9.27702C9.97109 9.26487 9.35149 8.65499 9.35635 7.74624C9.35878 6.80833 10.0294 6.18873 11.0791 6.17658C12.0486 6.16443 13.0181 6.17415 13.9876 6.17658L13.9851 6.17415Z" fill="#AAB5BF"/>
<path d="M23.2743 12.3677C24.115 12.3604 24.8221 13.0627 24.8366 13.9204C24.8512 14.7927 24.1952 15.4827 23.3229 15.5046C22.5065 15.5241 21.7459 14.7927 21.7289 13.9665C21.7119 13.1598 22.4724 12.3726 23.2718 12.3677H23.2743Z" fill="#AAB5BF"/>
<path d="M23.2476 18.5589C24.0299 18.5273 24.8099 19.2684 24.8464 20.08C24.8877 20.9596 24.166 21.742 23.3107 21.7468C22.521 21.7517 21.7508 20.9911 21.7289 20.1844C21.707 19.3972 22.4627 18.5881 23.2451 18.5589H23.2476Z" fill="#AAB5BF"/>
<path d="M24.8439 7.74866C24.8439 8.61853 24.1709 9.27458 23.284 9.27215C22.4336 9.26972 21.7192 8.55535 21.7314 7.7195C21.7435 6.90065 22.5016 6.16199 23.3156 6.179C24.1806 6.19601 24.8464 6.88121 24.8464 7.75109L24.8439 7.74866Z" fill="#AAB5BF"/>
</svg>
