<svg width="62" height="62" viewBox="0 0 62 62" fill="none" xmlns="http://www.w3.org/2000/svg">
<path d="M0.00450096 61.4009V55.5317C0.184539 55.3726 0.174037 55.1371 0.23405 54.9331C0.625633 53.5933 1.3923 52.525 2.60906 51.8364C3.71779 51.2093 4.85953 50.6346 6.00278 50.072C9.07543 48.5612 12.2186 47.2214 15.5433 46.3557C16.3355 46.1487 17.1381 45.9881 18.0338 45.7841C17.3392 45.1195 17.3002 44.4323 17.5507 43.6416C17.8313 42.758 17.9963 41.8368 18.2439 40.9411C18.3159 40.68 18.2799 40.4985 18.1344 40.2839C16.49 37.8459 15.3513 35.1903 14.7496 32.3097C14.6956 32.0532 14.6071 31.9452 14.3551 32.0607C13.5269 32.4403 12.6447 32.3938 11.7715 32.3788C9.58404 32.3412 8.16774 30.8919 8.16474 28.7C8.16174 26.364 8.15874 24.0295 8.16474 21.6935C8.16924 19.8556 9.12344 18.6193 10.8908 18.1947C11.1804 18.1257 11.2749 18.0417 11.2824 17.7431C11.3094 16.5279 11.4939 15.3291 11.755 14.1454C12.3416 11.4898 13.3633 9.02328 15.0842 6.88983C17.8658 3.43759 21.6001 1.72873 25.885 1.01908C26.6412 0.894552 27.4228 0.93056 28.155 0.666504H33.067C33.1631 0.801533 33.3101 0.786529 33.4466 0.794031C35.0595 0.88255 36.6348 1.19012 38.1801 1.63871C41.5904 2.63042 44.4725 4.43831 46.5954 7.31592C48.8594 10.3856 49.8241 13.9188 50.0642 17.6771C50.0852 18.0072 50.1527 18.1302 50.4992 18.2127C52.1391 18.6028 53.1563 19.8181 53.1728 21.4369C53.1983 23.992 53.1998 26.547 53.1698 29.1021C53.1518 30.5829 52.0026 31.9932 50.6058 32.2512C50.1572 32.3337 50.0011 32.5108 49.9471 32.9219C49.7911 34.0921 49.3335 35.1393 48.6058 36.068C47.5511 37.4153 46.1423 38.2675 44.5625 38.8271C43.9774 39.0342 43.7628 39.4873 43.4403 39.9059C43.0832 40.368 43.0112 40.809 43.2107 41.3792C43.4523 42.0663 43.5198 42.8135 43.7448 43.5066C44.0119 44.3303 44.1319 45.0955 43.3292 45.7721C44.3884 46.0287 45.3547 46.2357 46.3044 46.4983C50.5068 47.6625 54.4346 49.4944 58.2439 51.5723C60.3128 52.7006 61.3691 54.516 61.3376 56.918C61.3211 58.1347 61.3346 59.353 61.3346 60.5713C61.3346 61.743 61.081 61.9951 59.8883 61.9951C40.4051 61.9951 20.9235 61.9921 1.44031 62.0011C0.855182 62.0011 0.343573 61.9305 0 61.3994L0.00450096 61.4009ZM40.8087 39.9299C40.5296 39.9419 40.3346 39.9299 40.147 39.9614C37.4675 40.4205 34.7624 40.527 32.0513 40.548C31.1481 40.5555 30.7115 40.2374 30.677 39.5698C30.6425 38.8841 31.0641 38.5451 32.0018 38.47C33.5141 38.347 35.031 38.4295 36.5463 38.305C38.5102 38.1445 40.4516 37.8804 42.3675 37.4273C42.5656 37.3808 42.7111 37.2803 42.8161 37.0778C44.0599 34.6802 44.8145 32.1342 44.9106 29.4411C45.0051 26.7496 44.9301 24.052 44.9541 21.3574C44.9841 18.0567 44.0479 15.0696 42.0239 12.462C39.1403 8.74722 35.2875 6.86432 30.617 6.82231C27.3358 6.79231 24.3442 7.85453 21.7831 9.94448C18.4254 12.6841 16.5755 16.2308 16.4255 20.5787C16.337 23.1308 16.406 25.6873 16.3925 28.2424C16.3835 29.8402 16.583 31.4095 16.9716 32.9594C18.1539 37.6704 20.8679 41.2921 24.9128 43.8997C27.1573 45.3475 29.6658 45.9206 32.3334 45.472C34.6904 45.076 36.7128 43.9522 38.5327 42.4369C39.3894 41.7242 40.1275 40.9081 40.8132 39.9284L40.8087 39.9299ZM47.9142 59.9636C51.5255 59.9636 55.1367 59.9591 58.748 59.9711C59.1336 59.9711 59.3241 59.9171 59.3076 59.461C59.2731 58.5053 59.3301 57.5451 59.2896 56.5894C59.2236 55.0771 58.5275 53.9308 57.1592 53.2377C55.9529 52.6256 54.7437 52.0164 53.5179 51.4403C49.9696 49.7735 46.3404 48.3497 42.447 47.688C42.0435 47.619 41.9114 47.775 41.7359 48.0166C39.862 50.5971 37.9911 53.1792 36.1067 55.7522C35.9191 56.0088 35.8996 56.2563 35.9567 56.5369C36.1517 57.5046 36.3557 58.4693 36.5373 59.44C36.6093 59.8271 36.7593 59.9801 37.1989 59.9771C40.7697 59.9531 44.3419 59.9636 47.9127 59.9636H47.9142ZM13.3723 59.9636C16.9656 59.9636 20.5589 59.9546 24.1521 59.9756C24.5947 59.9786 24.7358 59.8151 24.8078 59.4265C24.9833 58.4738 25.1829 57.5241 25.3764 56.5744C25.4379 56.2713 25.4289 56.0028 25.2294 55.7297C23.3555 53.1702 21.4921 50.6031 19.6317 48.0331C19.4576 47.793 19.2641 47.694 18.9715 47.7525C18.4644 47.853 17.9528 47.9266 17.4472 48.0346C12.5667 49.0758 8.13323 51.2303 3.7748 53.5633C2.84911 54.0584 2.32399 54.8895 2.14096 55.9398C1.94441 57.0725 2.10645 58.2113 2.02993 59.344C1.99542 59.8466 2.14996 59.9771 2.65106 59.9741C6.22482 59.9516 9.79858 59.9621 13.3708 59.9621L13.3723 59.9636ZM30.6935 2.70844C27.9945 2.76845 25.3359 3.06701 22.7794 4.00321C19.8492 5.07744 17.4367 6.80431 15.7384 9.47188C14.211 11.8709 13.6019 14.528 13.3723 17.3215C13.3168 17.9967 13.4789 18.2607 14.1225 18.3793C14.4451 18.4378 14.5591 18.3898 14.6101 18.0897C14.8787 16.5099 15.4053 15.0156 16.1644 13.6083C18.847 8.6437 22.9969 5.70908 28.5646 4.8914C32.2509 4.34979 35.7406 5.12995 38.9468 7.02186C42.1005 8.88525 44.3854 11.5273 45.7927 14.924C46.2113 15.9353 46.5429 16.9645 46.7244 18.0432C46.7845 18.3943 46.912 18.5968 47.2976 18.3283C47.4041 18.2532 47.5601 18.2397 47.6967 18.2172C47.9637 18.1737 48.0387 18.0492 48.0132 17.7671C47.8947 16.4604 47.7627 15.1566 47.4506 13.8768C46.3614 9.41787 43.7448 6.23869 39.5289 4.3948C36.7113 3.16304 33.7332 2.77745 30.6935 2.70694V2.70844ZM47.0635 25.1637C47.0635 25.1637 47.0665 25.1637 47.068 25.1637C47.068 26.4 47.0575 27.6347 47.071 28.871C47.08 29.7007 47.4701 30.1148 48.2953 30.1838C48.7109 30.2183 49.1325 30.2108 49.5495 30.2003C50.5053 30.1763 51.0019 29.7277 51.0109 28.7735C51.0349 26.3625 51.0319 23.95 51.0124 21.5374C51.0049 20.6523 50.6298 20.2082 49.8076 20.1091C49.278 20.0446 48.7274 20.0476 48.1978 20.1121C47.4296 20.2052 47.0695 20.6628 47.0635 21.4579C47.053 22.6942 47.0605 23.929 47.0605 25.1652L47.0635 25.1637ZM10.2562 25.1202C10.2562 25.1202 10.2667 25.1202 10.2712 25.1202C10.2712 26.415 10.2472 27.7098 10.2802 29.0045C10.2982 29.7127 10.6823 30.0848 11.3904 30.1673C11.785 30.2123 12.1856 30.2078 12.5832 30.2063C13.7654 30.2003 14.196 29.7667 14.2005 28.5799C14.205 26.667 14.2065 24.7541 14.205 22.8412C14.205 22.3041 14.2155 21.764 14.172 21.2299C14.1255 20.6568 13.7969 20.3117 13.2238 20.1572C12.7467 20.0296 12.2741 20.0866 11.8 20.0851C10.7243 20.0821 10.2742 20.5247 10.2607 21.593C10.2457 22.7677 10.2577 23.944 10.2577 25.1202H10.2562ZM19.9452 42.6124C19.8627 43.016 19.8477 43.3206 19.7382 43.5861C19.4861 44.1938 19.6407 44.6739 20.0578 45.1465C20.4253 45.5636 20.7404 46.0257 21.0675 46.4773C22.7163 48.7502 24.3697 51.0202 26.0035 53.3037C26.2976 53.7148 26.4176 53.6518 26.5992 53.2347C27.3463 51.5228 28.095 49.8095 28.8826 48.1156C29.1002 47.6475 28.9532 47.5515 28.5286 47.4885C26.9412 47.2544 25.4769 46.6753 24.0786 45.8981C22.5513 45.0504 21.2505 43.9207 19.9452 42.6094V42.6124ZM41.3428 42.734C41.3428 42.734 41.3128 42.7265 41.3023 42.734C41.2288 42.7985 41.1553 42.8645 41.0862 42.932C38.7352 45.271 36.0482 46.9964 32.6995 47.505C32.2794 47.5695 32.3109 47.775 32.4519 48.0871C33.1721 49.6804 33.8727 51.2843 34.5914 52.8791C34.9935 53.7718 35.0009 53.7658 35.5666 52.9886C37.3234 50.5731 39.0443 48.1321 40.8582 45.7601C41.5919 44.8014 42.0224 43.9012 41.3428 42.7325V42.734ZM26.8497 59.9606C29.3072 59.9606 31.7363 59.9606 34.1668 59.9621C34.4143 59.9621 34.4638 59.8751 34.4128 59.6351C34.2433 58.8414 34.0888 58.0447 33.9507 57.245C33.9042 56.9765 33.7947 56.8835 33.5231 56.885C31.6492 56.9 29.7753 56.9135 27.9014 56.9C27.5429 56.897 27.4123 57.0335 27.3538 57.3531C27.1978 58.2067 27.0268 59.0574 26.8512 59.9591L26.8497 59.9606ZM30.6815 49.2483C29.8669 51.0877 29.1302 52.7576 28.386 54.4244C28.278 54.666 28.224 54.8265 28.5991 54.8235C29.9764 54.813 31.3522 54.816 32.7295 54.8235C33.0145 54.825 33.076 54.7485 32.9575 54.4785C32.2164 52.7906 31.4857 51.0967 30.6815 49.2468V49.2483ZM45.5662 35.9915C46.6074 35.4214 47.3246 34.5932 47.7027 33.4755C48.0507 32.4478 48.0582 32.4508 47.08 32.0772C47.0425 32.0637 47.0035 32.0532 46.969 32.0337C46.7485 31.9107 46.6434 31.9917 46.6014 32.2227C46.3689 33.5025 45.9623 34.7343 45.5647 35.9915H45.5662Z" fill="white"/>
</svg>
