<svg width="84" height="94" viewBox="0 0 84 94" fill="none" xmlns="http://www.w3.org/2000/svg">
<path d="M5.32312 64.2827C5.32312 52.0384 5.31826 39.794 5.33769 27.5497C5.33769 26.884 5.19193 26.6386 4.49225 26.6702C3.74399 26.7018 2.98357 26.7723 2.23288 26.5803C0.879685 26.2329 0.0123774 25.249 0.00994792 23.8642C-0.00462868 16.8019 -0.00462868 9.74193 0.0196657 2.67957C0.0245245 1.16117 1.25382 0.0193363 2.77221 0.0144774C3.83388 0.00961857 4.89311 0.0144774 5.95477 0.0193363L12.3247 0.012048C12.5045 -0.00981689 12.6892 0.00475971 12.8689 0.00475971C35.538 0.00961857 58.2094 0.0144774 80.8785 0.0217657C82.4382 0.0217657 83.6699 1.18789 83.6723 2.73787C83.6869 9.76865 83.6869 16.7994 83.6772 23.8326C83.6772 25.2344 82.7637 26.3058 81.3838 26.5706C80.9417 26.6556 80.4825 26.6386 80.0306 26.6775C79.4986 26.7212 78.7284 26.4321 78.4879 26.8379C78.1308 27.4355 78.3786 28.2494 78.3835 28.9709C78.3859 29.345 78.6944 29.2576 78.9179 29.2794C80.4412 29.4276 81.119 30.1662 81.1214 31.6919C81.1263 33.1762 81.1263 34.6631 81.1214 36.1474C81.1166 37.4788 80.4849 38.3242 79.1803 38.4311C78.3883 38.4967 78.3543 38.8441 78.3543 39.449C78.364 49.694 78.3616 59.9365 78.3616 70.1814C78.3616 71.1823 78.3737 72.1808 78.3567 73.1817C78.3519 73.5656 78.4466 73.7356 78.8693 73.8595C81.0923 74.5058 82.3629 76.2452 82.3726 78.5726C82.3799 80.7859 82.3823 82.9966 82.3774 85.2098C82.3726 86.8108 81.6292 87.6125 80.0112 87.6393C79.3722 87.649 79.2386 87.8871 79.2872 88.4458C79.3285 88.9269 79.2556 89.4201 79.3066 89.8987C79.4646 91.4098 78.8426 92.4593 77.487 93.1031H6.20014C4.8348 92.4593 4.23716 91.3879 4.38536 89.8865C4.41208 89.6168 4.38779 89.3423 4.38536 89.0678C4.38374 88.2304 3.95616 87.7543 3.10262 87.6393C2.11384 87.5057 1.32427 86.6481 1.30969 85.55C1.27811 83.0355 1.24653 80.5186 1.31698 78.0041C1.37043 76.0995 2.78922 74.4183 4.73034 73.8668C5.23566 73.7235 5.3547 73.534 5.32069 73.07V64.2827H5.32312ZM8.15827 73.0602C8.12425 73.5583 8.34533 73.6652 8.79964 73.6627C13.7387 73.653 18.6801 73.6506 23.6192 73.6725C24.1731 73.6749 24.2727 73.466 24.2508 72.9825C24.2168 72.227 24.2241 71.4665 24.2484 70.711C24.2946 69.1804 25.1181 68.3739 26.6341 68.3617C28.0286 68.352 29.4231 68.318 30.8152 68.3739C31.4954 68.4006 31.7116 68.2208 31.6752 67.5236C31.4954 64.1054 31.3569 60.6847 31.2087 57.2641C31.1431 55.7505 31.063 54.237 31.0362 52.7235C31.0119 51.2998 31.906 50.3936 33.3563 50.3888C38.9926 50.3742 44.6313 50.3766 50.2676 50.3888C51.752 50.3912 52.663 51.1905 52.6679 52.6457C52.6679 53.4693 53.0153 53.4766 53.6275 53.4766C57.1599 53.4766 60.0169 56.3069 60.0291 59.7761C60.0412 63.43 57.1429 66.2748 53.4915 66.1971C52.0047 66.1655 52.0314 66.1655 52.012 67.6548C52.0047 68.2087 52.1456 68.386 52.7189 68.3714C54.1717 68.3301 55.627 68.3496 57.0822 68.3617C58.535 68.3739 59.3902 69.2023 59.4387 70.6551C59.4655 71.4422 59.4679 72.2318 59.446 73.0189C59.4339 73.466 59.5529 73.67 60.0485 73.67C65.0483 73.6579 70.0505 73.6579 75.0503 73.6749C75.5629 73.6749 75.5556 73.4247 75.5507 73.053C75.5362 71.8115 75.5459 70.5676 75.5459 69.3262C75.5483 59.385 75.541 49.4437 75.5775 39.5049C75.5799 38.6133 75.2446 38.4773 74.4794 38.4821C70.6603 38.5137 66.8412 38.5064 63.0222 38.504C61.1904 38.504 60.4372 37.7922 60.4008 35.9458C60.3886 35.3603 60.1773 35.2364 59.6501 35.2461C58.1949 35.2753 56.7396 35.2947 55.2868 35.2388C54.5483 35.2097 54.2543 35.3992 54.3442 36.1742C54.4365 36.9807 54.2179 37.7484 53.6931 38.3825C53.1538 39.036 52.4784 39.4588 51.5868 39.4563C50.3138 39.4515 49.0408 39.4855 47.7677 39.4563C47.2478 39.4442 47.0729 39.6142 47.0972 40.1268C47.1312 40.8824 47.1191 41.6428 47.1021 42.3984C47.0778 43.6568 46.2785 44.5484 45.0322 44.5751C42.9113 44.6189 40.7904 44.6116 38.6695 44.5703C37.4208 44.546 36.6191 43.6811 36.5778 42.4154C36.5535 41.6574 36.5462 40.8994 36.5851 40.1439C36.6118 39.6337 36.4442 39.4539 35.9243 39.466C34.7727 39.4928 33.6163 39.4053 32.4696 39.4782C30.407 39.6094 29.2943 37.8189 29.3162 36.2762C29.3599 33.3682 29.3089 30.4577 29.3454 27.5472C29.3526 26.8889 29.2093 26.6581 28.5072 26.6605C21.9915 26.6848 15.4757 26.6921 8.95998 26.6556C8.11211 26.6508 8.1364 27.0735 8.13883 27.6614C8.14612 39.8135 8.14612 51.9679 8.14369 64.1199L8.15341 73.0578L8.15827 73.0602ZM6.01308 2.71358C5.25509 2.73058 4.49468 2.76703 3.74156 2.70629C2.98357 2.64555 2.70662 2.82047 2.71391 3.6732C2.7625 9.09813 2.74063 14.5231 2.74306 19.948C2.74306 21.0096 2.77221 22.0713 2.73091 23.1305C2.70905 23.6893 2.88883 23.8715 3.4476 23.8569C4.74977 23.8205 6.05438 23.8399 7.35655 23.8424C31.3594 23.8472 55.3646 23.8521 79.3674 23.8569C80.4201 23.8569 80.9465 23.3403 80.9465 22.307C80.9465 16.1556 80.9295 10.0019 80.9708 3.85055C80.9757 2.97353 80.8275 2.69171 79.863 2.69414C57.9811 2.72815 36.0992 2.72087 14.2173 2.7233C13.6123 2.7233 13.0026 2.74273 12.4001 2.70872L6.01308 2.71844V2.71358ZM75.3953 84.9305C76.576 84.9207 77.7591 84.9305 78.9398 84.9256C79.2653 84.9256 79.6176 85.0033 79.6128 84.4591C79.5885 82.399 79.637 80.3364 79.5642 78.2787C79.5253 77.1563 78.8985 76.6096 77.7785 76.4785C77.4481 76.4396 77.1129 76.442 76.78 76.442C65.1431 76.442 53.5061 76.442 41.8691 76.442C30.1106 76.442 18.3522 76.442 6.59371 76.442C4.7109 76.442 4.07925 77.0785 4.07682 78.9516C4.07682 80.5283 4.06953 82.1026 4.08411 83.6793C4.09625 85.1855 4.04038 84.9207 5.37171 84.9207C26.3426 84.9256 47.3134 84.9232 68.2843 84.9256H75.3928L75.3953 84.9305ZM68.2989 87.6611C68.2381 87.6611 68.1774 87.6611 68.1167 87.6611C48.3289 87.6611 28.5388 87.6611 8.75105 87.6611C7.12819 87.6611 7.18163 87.6611 7.11118 89.3034C7.07474 90.1853 7.32983 90.3967 8.20928 90.3967C30.4823 90.37 52.7578 90.3773 75.0308 90.3773C76.0528 90.3773 76.563 89.8679 76.5614 88.8491C76.5614 88.0636 76.1759 87.666 75.405 87.6563L68.2989 87.6611ZM41.7865 53.1608C41.7865 53.1608 41.7865 53.1535 41.7865 53.151C39.4834 53.151 37.1803 53.1753 34.8772 53.1365C34.1022 53.1243 33.7718 53.2701 33.8204 54.1665C34.0512 58.248 34.2188 62.3319 34.3767 66.4182C34.452 68.3569 34.418 68.3569 36.3397 68.3569C40.3701 68.3569 44.4006 68.3617 48.431 68.3569C48.8318 68.3569 49.2861 68.4856 49.3129 67.7884C49.4756 63.2186 49.653 58.6488 49.8668 54.0815C49.9008 53.3454 49.6554 53.1413 48.9679 53.1486C46.5749 53.1729 44.1795 53.1583 41.7865 53.1583V53.1608ZM41.8083 36.7329V36.7402C44.7139 36.7402 47.6195 36.7135 50.5252 36.7597C51.2929 36.7718 51.5747 36.6163 51.5577 35.783C51.5042 33.0305 51.5115 30.2755 51.5577 27.5205C51.5698 26.8087 51.3123 26.6726 50.6733 26.6726C44.7723 26.6872 38.8712 26.6799 32.9676 26.6556C32.3506 26.6532 32.1319 26.8233 32.1392 27.4671C32.1732 30.3119 32.1829 33.1568 32.1416 36.0017C32.1319 36.6455 32.3506 36.7451 32.9093 36.7426C35.8757 36.7208 38.842 36.7329 41.8083 36.7329ZM41.9104 71.0948V71.0875C38.9732 71.0875 36.036 71.0875 33.0964 71.0875C31.4007 71.0875 29.7025 71.1313 28.0092 71.0705C27.2488 71.0438 27.0277 71.2625 27.0447 72.018C27.086 73.67 27.0495 73.6676 28.6603 73.6676C37.4135 73.6676 46.1643 73.6676 54.9176 73.6676C56.6643 73.6676 56.6279 73.6676 56.6643 71.9208C56.6789 71.2333 56.487 71.0705 55.8092 71.0754C51.1762 71.107 46.5433 71.0924 41.9079 71.0924L41.9104 71.0948ZM64.9876 26.6726V26.6848C61.72 26.6848 58.45 26.6969 55.1824 26.6726C54.5847 26.6678 54.3223 26.7966 54.3466 27.4646C54.3977 28.8859 54.4001 30.3095 54.3466 31.7307C54.3223 32.4012 54.5677 32.5373 55.1751 32.5203C56.6255 32.4814 58.0807 32.4668 59.5311 32.5276C60.2283 32.5567 60.4761 32.3405 60.3911 31.67C60.1967 30.1516 61.5159 29.2163 62.8618 29.2454C66.5521 29.3207 70.2449 29.2721 73.9376 29.2721C75.5677 29.2721 75.5264 29.2721 75.5702 27.6177C75.5896 26.8597 75.3588 26.6459 74.6081 26.6532C71.4013 26.6897 68.192 26.6702 64.9851 26.6702L64.9876 26.6726ZM70.7648 31.998V32.0053C69.1297 32.0053 67.4923 31.9907 65.8573 32.0101C64.9851 32.0198 63.8482 31.6408 63.3113 32.1486C62.7209 32.7098 63.2189 33.8735 63.1072 34.7627C63.01 35.5304 63.2943 35.7271 64.0547 35.7199C68.2649 35.6834 72.4775 35.7004 76.6877 35.7053C78.4005 35.7053 78.4005 35.7126 78.4005 34.0411C78.4005 33.616 78.3592 33.1884 78.4102 32.7705C78.4952 32.0951 78.1891 31.9737 77.5842 31.981C75.3127 32.0125 73.0411 31.9931 70.7672 31.9931L70.7648 31.998ZM54.0818 63.4737C55.0488 63.4251 56.193 62.8396 56.8611 61.552C57.5632 60.2013 57.4466 58.8456 56.5234 57.6406C55.6974 56.5668 54.5629 56.0955 53.1878 56.2656C52.7408 56.3214 52.5221 56.4745 52.51 56.9847C52.4663 58.6731 52.3934 60.3616 52.2768 62.0452C52.1844 63.3571 52.2428 63.4543 54.0843 63.4713L54.0818 63.4737ZM41.8666 39.4685C41.5654 39.4685 41.2641 39.4685 40.9629 39.4685C39.2064 39.4685 39.2283 39.4685 39.3133 41.2322C39.3376 41.7157 39.5052 41.8469 39.9595 41.8396C41.2253 41.8202 42.491 41.8396 43.7592 41.8396C43.9341 41.8396 44.1892 41.8955 44.2548 41.7181C44.4929 41.0816 44.4176 40.4062 44.3204 39.7649C44.2451 39.2571 43.7252 39.5073 43.4045 39.4806C42.8943 39.4393 42.3793 39.4709 41.8666 39.4709V39.4685Z" fill="#AAB5BF"/>
<path d="M21.8141 7.26877C25.932 7.26877 30.0499 7.26877 34.1654 7.26877C35.7469 7.26877 36.381 7.89071 36.3834 9.44069C36.3859 12.0742 36.3883 14.7077 36.3834 17.3412C36.381 18.6385 35.6862 19.3965 34.3864 19.3989C26 19.4135 17.6136 19.4111 9.22965 19.3941C7.93476 19.3916 7.28367 18.6968 7.27638 17.4092C7.26181 14.715 7.25938 12.0207 7.27395 9.3265C7.28124 7.82026 7.86431 7.26392 9.37298 7.26392C13.52 7.26392 17.6671 7.26392 21.8165 7.26392L21.8141 7.26877ZM21.8578 9.99217C18.1602 9.9946 14.4626 10.0092 10.765 9.98245C10.1771 9.97759 9.9852 10.1306 9.99978 10.7356C10.0386 12.4313 10.0386 14.1295 9.99978 15.8252C9.9852 16.4326 10.1893 16.5954 10.7748 16.5881C12.8957 16.5589 15.0166 16.5735 17.1399 16.5735C22.3219 16.5735 27.5038 16.5614 32.6883 16.5929C33.4438 16.5978 33.677 16.3816 33.6503 15.626C33.5969 14.0518 33.5944 12.4726 33.6576 10.8983C33.6892 10.1064 33.4001 9.96788 32.6785 9.97516C29.0733 10.0116 25.4656 9.99217 21.8603 9.99217H21.8578Z" fill="#AAB5BF"/>
<path d="M76.4035 13.2864C76.4132 16.6682 73.7773 19.3114 70.3834 19.3211C67.0842 19.3309 64.407 16.6488 64.3997 13.3253C64.3924 10.014 67.0769 7.28087 70.3396 7.27602C73.7166 7.26873 76.3938 9.92167 76.4035 13.284V13.2864ZM70.432 16.5516C72.2638 16.5443 73.6874 15.1012 73.6704 13.267C73.6558 11.5202 72.1909 10.0529 70.4344 10.0237C68.6973 9.99455 67.1352 11.5421 67.1182 13.3083C67.1012 15.0842 68.6075 16.5565 70.4344 16.5492L70.432 16.5516Z" fill="#AAB5BF"/>
<path d="M60.9377 13.3788C60.9377 16.6877 58.2532 19.3406 54.92 19.3285C51.6062 19.3163 48.9776 16.6391 48.9266 13.3302C48.8756 10.0626 51.6961 7.29306 54.8787 7.27605C58.4913 7.25419 61.1442 10.4076 60.9401 13.3812L60.9377 13.3788ZM54.9662 16.5516C56.7858 16.5468 58.241 15.0794 58.2143 13.2695C58.1876 11.4863 56.6498 9.9873 54.8811 10.0213C53.1514 10.0553 51.6743 11.5664 51.667 13.3108C51.6597 15.1085 53.1319 16.5565 54.9686 16.5516H54.9662Z" fill="#AAB5BF"/>
</svg>
