<svg width="44" height="44" viewBox="0 0 44 44" fill="none" xmlns="http://www.w3.org/2000/svg">
<path d="M43.9895 18.9026V19.9333C43.768 20.4762 43.4466 20.9422 43.0219 21.3554C42.6753 21.6928 42.6672 22.3046 43.0185 22.6397C43.45 23.0495 43.7565 23.5235 43.9895 24.0572V25.0879C43.7301 25.7307 43.3949 26.3 42.743 26.642C41.9602 27.0518 41.8328 27.574 42.285 28.3373C42.5456 28.778 42.7143 29.2463 42.6454 29.7605C42.4859 30.9335 41.8971 31.5671 40.7183 31.8758C40.0389 32.0537 39.737 32.5725 39.9264 33.2359C40.4245 34.9828 39.3502 36.4038 37.5264 36.4072C36.7574 36.4095 36.4085 36.7642 36.4131 37.5424C36.4234 39.3214 34.9669 40.4267 33.2636 39.932C32.5715 39.7312 32.0366 40.0411 31.8782 40.7355C31.4903 42.4238 29.8145 43.1481 28.3247 42.2723C27.5936 41.8419 27.0484 41.9877 26.6478 42.7199C25.8467 44.1811 24.0481 44.4359 22.8889 43.2537C22.2542 42.6063 21.7492 42.6075 21.0995 43.2594C19.9437 44.4186 18.1635 44.1753 17.3589 42.7486C16.9148 41.9613 16.404 41.827 15.6247 42.2953C14.8798 42.7429 14.1096 42.7808 13.3406 42.3871C12.6795 42.0485 12.2881 41.4872 12.1182 40.763C11.9702 40.1329 11.5673 39.7851 11.0083 39.8689C10.5378 39.9389 10.0523 40.0135 9.693 40.4026C9.50936 40.6012 9.28554 40.7619 9.07435 40.9317C7.96216 41.8247 6.56418 41.6927 5.63908 40.6046C5.23162 40.1248 4.83335 39.637 4.42818 39.155C3.23336 37.7295 2.0305 36.3097 0.842556 34.8784C-0.10091 33.7421 0.0322312 32.3395 1.1559 31.38C1.29707 31.2595 1.43366 31.1321 1.58172 31.0196C1.71027 30.922 1.70797 30.8394 1.63222 30.6971C1.18918 29.8512 1.24542 29.0328 1.76881 28.2282C2.14642 27.6463 1.97081 27.0598 1.35446 26.7097C1.24313 26.6466 1.1295 26.5835 1.02276 26.5123C-0.173219 25.702 -0.346532 23.9815 0.663504 22.9577C1.4107 22.2001 1.41414 21.8019 0.678425 21.0512C-0.405069 19.9459 -0.157151 18.1405 1.1823 17.3784C2.03738 16.8917 2.16364 16.4383 1.67698 15.597C0.868954 14.2013 1.60008 12.49 3.16105 12.1216C4.00466 11.923 4.28012 11.4444 4.03335 10.5996C3.88529 10.0912 3.87611 9.58387 4.08156 9.09147C4.52575 8.02864 5.35443 7.56724 6.48154 7.57183C7.22071 7.57412 7.58225 7.19995 7.57537 6.46308C7.55815 4.67027 8.99401 3.56153 10.6996 4.05048C11.4479 4.26511 11.9461 3.9621 12.1182 3.19309C12.2915 2.41376 12.7449 1.85824 13.4726 1.53571C14.2531 1.19024 14.9945 1.29124 15.7119 1.74002C16.2823 2.09583 16.9377 2.01089 17.2051 1.47373C17.5759 0.728833 18.1566 0.283499 18.9027 0H19.9334C20.4797 0.237588 20.9561 0.562407 21.3842 0.987081C21.7308 1.33026 22.3207 1.30846 22.6651 0.948057C23.0679 0.526826 23.5259 0.216928 24.0573 0H25.088C25.7537 0.275464 26.3402 0.626682 26.6903 1.3119C27.0507 2.01892 27.6062 2.136 28.3018 1.72395C29.8122 0.829837 31.4868 1.54949 31.8782 3.26196C32.0137 3.85421 32.5187 4.23756 33.0719 4.11245C33.5356 4.00801 34.0108 3.91389 34.362 3.52365C34.5606 3.30328 34.8119 3.12537 35.0529 2.94747C36.0446 2.2129 37.4369 2.32194 38.2357 3.25622C39.9367 5.2476 41.6228 7.25275 43.2779 9.282C43.8999 10.0453 43.9309 10.9291 43.4913 11.8174C43.2618 12.2823 42.8555 12.583 42.4779 12.9112C42.3734 13.0019 42.2414 13.0605 42.3459 13.2544C42.8256 14.1462 42.7166 14.9979 42.1852 15.8404C41.8822 16.3201 42.0084 16.9388 42.4928 17.1867C43.2342 17.5666 43.7117 18.1382 43.9895 18.9026ZM22.2037 10.3666C21.4002 10.3666 20.785 10.3862 20.1779 10.4906C19.6017 10.5905 19.0312 10.719 18.4734 10.8981C13.4324 12.5187 9.92944 17.3325 10.4012 23.1034C10.4115 23.2228 10.3897 23.3881 10.5274 23.4409C10.6514 23.4891 10.7214 23.3433 10.8052 23.2745C11.3699 22.8119 11.9254 22.3379 12.4913 21.8776C12.7541 21.6641 13.0514 21.6538 13.3234 21.8512C13.5839 22.0406 13.5713 22.2954 13.4646 22.5812C13.3957 22.766 13.2958 22.9072 13.1501 23.0277C12.7644 23.3468 12.3776 23.6647 11.9943 23.9861C8.68296 26.7637 5.3705 29.539 2.06149 32.32C1.38086 32.8916 1.33839 33.462 1.9008 34.1335C3.37224 35.8884 4.87122 37.6216 6.30593 39.4063C7.12774 40.4279 7.71999 40.4015 8.68526 39.5854C13.8651 35.2032 19.068 30.8486 24.2651 26.4871C30.1646 21.5367 36.0664 16.591 41.9671 11.643C42.5685 11.1391 42.6408 10.5273 42.1358 9.92131C40.5611 8.02864 38.9795 6.14286 37.3887 4.26396C36.8549 3.63384 36.273 3.61318 35.636 4.14804C34.5078 5.09609 33.3772 6.043 32.2478 6.98991C29.4736 9.31758 26.7006 11.6453 23.9265 13.9729C21.2189 16.2444 18.5113 18.5181 15.8014 20.7872C15.3951 21.1281 14.9991 21.1396 14.7409 20.8412C14.4838 20.5439 14.5618 20.1387 14.9544 19.807C16.4981 18.5078 18.0465 17.2119 19.5914 15.9138C21.4771 14.331 23.3629 12.7483 25.2441 11.1609C25.3233 11.0943 25.4771 11.053 25.4381 10.9118C25.4048 10.7925 25.2671 10.8361 25.1764 10.8085C24.1457 10.4986 23.0898 10.3552 22.2014 10.3655L22.2037 10.3666ZM14.843 36.0939C14.9532 36.1639 15.0083 36.2087 15.0703 36.2385C18.641 37.9383 22.3414 38.2746 26.16 37.2658C28.288 36.7033 30.2036 35.7082 31.9253 34.3355C32.3224 34.0187 32.6771 34.0359 32.9411 34.3573C33.2039 34.6764 33.1316 35.015 32.7276 35.3444C31.9712 35.9607 31.1643 36.499 30.3115 36.9719C27.0036 38.8061 23.4605 39.4419 19.7233 38.9874C17.7136 38.7429 15.8129 38.1025 14.0155 37.167C13.8812 37.097 13.7756 36.9765 13.6 37.1292C13.072 37.5906 12.5291 38.0348 11.9897 38.4812C11.8267 38.6155 11.837 38.6752 12.039 38.7659C12.7977 39.1068 13.2178 39.7174 13.4072 40.5174C13.5862 41.2749 14.2887 41.5641 14.9693 41.1842C16.4545 40.3555 17.6241 40.6643 18.4792 42.1105C18.8901 42.806 19.6269 42.9001 20.2008 42.3217C20.4028 42.1174 20.606 41.9165 20.8573 41.7742C21.818 41.2324 22.9107 41.4207 23.7463 42.2712C24.3557 42.891 25.0903 42.8336 25.5035 42.1346C26.3781 40.6551 27.5328 40.3464 29.0363 41.1877C29.7066 41.563 30.4148 41.2508 30.5939 40.499C30.9531 38.9954 32.1847 38.2689 33.6791 38.6775C34.5238 38.9082 35.1034 38.4675 35.0862 37.6055C35.0564 36.0996 36.1054 35.0506 37.5975 35.0907C38.4515 35.1137 38.9129 34.518 38.6833 33.6882C38.269 32.1892 38.9806 30.9725 40.4922 30.5926C41.2876 30.3929 41.578 29.679 41.1556 28.9685C40.3568 27.6279 40.7046 26.3057 42.0566 25.5413C42.8291 25.1051 42.9209 24.3763 42.2827 23.7462C41.1981 22.6753 41.2015 21.3106 42.2919 20.2329C42.9209 19.6119 42.8187 18.8831 42.0417 18.4423C40.7183 17.6929 40.3614 16.3591 41.1361 15.0427C41.2624 14.828 41.3622 14.6145 41.3324 14.3597C41.3198 14.2495 41.3588 14.1095 41.236 14.0498C41.1051 13.9856 41.0294 14.1221 40.9502 14.1887C40.1146 14.8854 39.2917 15.5959 38.4503 16.2845C38.2587 16.4418 38.246 16.5784 38.3172 16.793C39.1907 19.434 39.3525 22.1405 38.8945 24.8653C38.3872 27.8804 37.1316 30.5777 35.1803 32.941C34.8773 33.3082 34.5192 33.3909 34.2128 33.1648C33.873 32.9134 33.8352 32.5369 34.1485 32.1547C36.0572 29.8248 37.2463 27.1849 37.663 24.1938C37.9683 21.9981 37.8225 19.8426 37.2394 17.7066C37.1625 17.4243 37.0925 17.4197 36.8894 17.5941C36.226 18.1611 35.5557 18.7201 34.8819 19.2756C34.7304 19.4007 34.688 19.5385 34.727 19.7267C35.0265 21.1855 35.0208 22.6558 34.7729 24.1135C34.3907 26.3642 33.4851 28.3992 32.0217 30.1611C29.7652 32.879 26.8694 34.4549 23.3629 34.8669C21.3761 35.1011 19.4353 34.8371 17.5552 34.1496C17.3773 34.0841 17.2396 34.0795 17.0858 34.2104C16.3569 34.8302 15.6201 35.4408 14.843 36.0904V36.0939ZM32.1847 5.34631C31.2504 4.95836 30.7603 4.30643 30.5744 3.40084C30.5124 3.09553 30.3115 2.86827 30.0119 2.73972C29.5999 2.56297 29.2487 2.67889 28.8802 2.89582C27.6602 3.61547 26.2932 3.24933 25.5988 2.03958C25.0765 1.1294 24.4223 1.04447 23.6797 1.78937C22.7053 2.76612 21.2912 2.76727 20.3133 1.79167C19.5627 1.04332 18.9027 1.12826 18.3931 2.03844C17.7228 3.23556 16.2846 3.61547 15.1093 2.905C14.2669 2.39654 13.6356 2.65135 13.3785 3.60629C13.002 4.99853 11.7578 5.709 10.369 5.3245C9.45312 5.07084 8.90333 5.48404 8.91481 6.41832C8.93318 7.88632 7.8669 8.94915 6.41038 8.91701C5.50135 8.89635 5.0629 9.4645 5.31541 10.3334C5.73435 11.7692 4.986 13.0432 3.518 13.3956C2.72031 13.5873 2.41959 14.2932 2.83279 15.0059C3.63622 16.3936 3.29763 17.6745 1.91916 18.463C1.18459 18.8831 1.08129 19.6085 1.67239 20.203C2.81213 21.3508 2.81787 22.6512 1.68846 23.7795C1.0767 24.3901 1.17885 25.1224 1.93638 25.5424C3.27353 26.2862 3.63852 27.6474 2.84886 28.9651C2.73637 29.1522 2.63193 29.337 2.65718 29.5654C2.6721 29.7008 2.5952 29.8822 2.75474 29.9522C2.89247 30.0142 2.97741 29.8512 3.06923 29.7754C3.87381 29.1086 4.66233 28.4233 5.4761 27.7668C5.70336 27.5843 5.74697 27.4271 5.66089 27.1562C4.74612 24.2799 4.6015 21.36 5.24769 18.4148C6.28987 13.6653 8.90219 10.0028 13.0043 7.41344C15.1954 6.03038 17.5977 5.22349 20.1825 4.95951C20.7219 4.90442 21.0857 5.07888 21.1351 5.48978C21.1868 5.91445 20.8952 6.21287 20.3558 6.25878C19.8002 6.30584 19.2539 6.39651 18.7099 6.51703C14.1681 7.52592 10.7111 10.0384 8.32256 14.0223C7.08297 16.0894 6.40579 18.3448 6.21297 20.7379C6.06031 22.6294 6.23018 24.498 6.76734 26.3275C6.8385 26.5685 6.89244 26.564 7.06576 26.417C7.74179 25.842 8.42472 25.2762 9.10879 24.7115C9.24078 24.6024 9.31309 24.4888 9.26947 24.3063C9.16388 23.861 9.13174 23.4064 9.09386 22.9508C8.88727 20.4314 9.39573 18.0544 10.6089 15.8564C13.7504 10.1623 20.2203 7.69464 26.3517 9.81572C26.6191 9.90869 26.8039 9.8754 27.0094 9.69635C27.6154 9.17182 28.2237 8.65073 28.8493 8.14916C29.1132 7.93682 29.096 7.84615 28.7953 7.69923C27.5695 7.10469 26.284 6.69838 24.9503 6.44357C24.4189 6.34257 23.876 6.30125 23.348 6.18877C22.983 6.11072 22.7982 5.77901 22.8625 5.44387C22.921 5.13282 23.2619 4.87572 23.5971 4.92163C24.2169 5.00771 24.839 5.09494 25.453 5.21546C27.0564 5.5311 28.5784 6.08203 30.02 6.85677C30.1451 6.92449 30.2495 6.99106 30.3999 6.85906C30.9692 6.36093 31.5534 5.88117 32.1858 5.3486L32.1847 5.34631ZM33.5172 20.5152C33.3301 20.5393 33.2441 20.6621 33.1373 20.7517C30.5273 22.937 27.9173 25.1212 25.3084 27.3077C23.1265 29.1361 20.9469 30.9657 18.7673 32.7963C18.6823 32.8687 18.5411 32.9295 18.5584 33.05C18.5813 33.2118 18.7638 33.1854 18.8763 33.2153C21.0628 33.7995 23.2504 33.796 25.4128 33.12C30.3459 31.5774 33.5976 27.1665 33.6297 22.0004C33.6332 21.508 33.6515 21.0042 33.5184 20.5152H33.5172Z" fill="#ED0007"/>
<path d="M29.1799 16.7505C28.4441 15.8702 27.775 15.0737 27.1104 14.2725C26.7937 13.8892 26.7937 13.492 27.0978 13.2533C27.433 12.9893 27.7693 13.0433 28.0987 13.4346C29.2327 14.781 30.3575 16.1342 31.4949 17.4771C31.7245 17.748 31.8083 18.0292 31.6166 18.3356C31.4111 18.6639 31.1093 18.6834 30.7523 18.5835C29.4129 18.2059 28.0677 17.849 26.7259 17.4805C26.6548 17.461 26.5928 17.4346 26.4849 17.4954C27.1196 18.253 27.7497 19.0048 28.3799 19.7566C28.4258 19.8116 28.474 19.8644 28.5187 19.9207C28.8619 20.3454 28.8688 20.6966 28.5394 20.9697C28.218 21.236 27.8703 21.1649 27.5133 20.7413C26.3896 19.4065 25.2729 18.0647 24.148 16.7299C23.9254 16.4659 23.8072 16.1939 24.0229 15.8771C24.2387 15.5603 24.5211 15.5259 24.8872 15.6292C26.2267 16.0091 27.5753 16.3592 28.9216 16.7196C28.9733 16.7333 29.0295 16.7333 29.1799 16.7517V16.7505Z" fill="#ED0007"/>
<path d="M4.5579 33.7387C4.56594 31.846 6.10509 30.3263 8.00695 30.3321C9.8847 30.339 11.4342 31.908 11.4181 33.788C11.4032 35.6371 9.82501 37.1992 7.98284 37.1877C6.09591 37.1762 4.54987 35.6187 4.55676 33.7387H4.5579ZM10.1165 33.7214C10.0982 32.5599 9.10995 31.5854 7.95185 31.6245C6.7972 31.6635 5.87325 32.4841 5.85488 33.7834C5.83881 34.9461 6.87066 35.9148 8.01269 35.8838C9.18685 35.8528 10.1349 34.8784 10.1165 33.7203V33.7214Z" fill="#ED0007"/>
<path d="M20.8515 26.6455C18.7844 26.6351 17.3084 25.3336 17.1098 23.6394C16.9078 21.9098 18.0866 20.2489 19.791 19.8748C19.9425 19.8415 20.1032 19.8403 20.2604 19.8403C20.5979 19.8403 20.793 20.0481 20.8665 20.3465C20.9388 20.6426 20.7999 20.8768 20.5428 21.0317C20.4188 21.1063 20.2742 21.1144 20.133 21.1408C19.1965 21.3187 18.5663 22.0085 18.4022 23.0231C18.2851 23.7416 18.7397 24.6403 19.4272 25.0535C20.1881 25.5103 21.1683 25.4391 21.8731 24.8744C22.4871 24.3821 22.6776 23.5442 22.3333 22.867C22.2622 22.7281 22.2002 22.6581 22.0556 22.7924C21.888 22.9473 21.7135 23.0966 21.5299 23.2331C21.1878 23.4856 20.8171 23.4443 20.5818 23.1413C20.358 22.8521 20.3982 22.5077 20.7138 22.2311C21.1121 21.8834 21.5195 21.5448 21.9327 21.2142C22.2587 20.9537 22.6145 20.9766 22.8751 21.3083C23.698 22.3562 24.1433 23.5086 23.5258 24.8033C22.9347 26.0406 21.8731 26.5995 20.855 26.6466L20.8515 26.6455Z" fill="#ED0007"/>
<path d="M13.3659 30.7637C13.7206 31.1952 14.0201 31.5556 14.3163 31.9195C14.6044 32.2741 14.5998 32.6529 14.3071 32.9066C14.0018 33.1717 13.646 33.1281 13.3372 32.7619C12.1849 31.3949 11.0348 30.0245 9.89046 28.6506C9.58401 28.2833 9.60467 27.9436 9.95244 27.6371C10.3496 27.2882 10.7501 26.9382 11.176 26.6248C11.9943 26.0222 13.0296 26.0544 13.7929 26.6776C14.5194 27.271 14.7363 28.2455 14.3036 29.1625C14.1498 29.4873 14.1992 29.5528 14.5493 29.5815C15.0876 29.6251 15.6213 29.7376 16.1561 29.8213C16.6256 29.8948 16.8964 30.2059 16.831 30.5972C16.7679 30.9772 16.458 31.17 15.9886 31.1103C15.565 31.0563 15.1438 30.9806 14.7191 30.9335C14.2967 30.8865 13.8847 30.7464 13.3648 30.7648L13.3659 30.7637ZM13.2282 28.2087C13.219 28.1709 13.2041 28.102 13.1869 28.0331C13.0939 27.6739 12.8219 27.5384 12.4902 27.4971C12.2273 27.4638 11.3699 27.9447 11.3137 28.195C11.2586 28.4406 11.5272 28.5611 11.6546 28.7333C11.79 28.9169 11.9427 29.0879 12.0919 29.2624C12.1539 29.3347 12.2044 29.4242 12.3364 29.3852C12.6589 29.2888 13.2213 28.5772 13.2282 28.2087Z" fill="#ED0007"/>
<path d="M33.0961 16.987C32.6611 16.9399 32.505 16.6668 32.3913 16.3385C31.9081 14.9382 31.4203 13.5402 30.9348 12.1411C30.8086 11.7773 30.688 11.4123 30.5618 11.0496C30.4413 10.7041 30.4941 10.3965 30.781 10.1601C31.0645 9.92591 31.3721 9.91672 31.6958 10.0981C33.3509 11.0289 35.0105 11.9529 36.6622 12.8883C37.0846 13.1282 37.1902 13.4656 36.9973 13.8134C36.8056 14.16 36.4613 14.2358 36.0435 14.0223C35.4872 13.7384 34.9738 13.7958 34.5032 14.1945C34.416 14.2679 34.3345 14.3528 34.2381 14.4125C33.5586 14.8303 33.2292 15.325 33.6734 16.1422C33.8788 16.5198 33.4725 17.0008 33.0961 16.987ZM32.358 11.9598C32.3339 11.985 32.311 12.0103 32.2869 12.0355C32.3764 12.3006 32.4636 12.5681 32.5566 12.8321C32.8038 13.5322 33.2036 13.6275 33.756 13.1179C33.7767 13.0983 33.7985 13.08 33.8214 13.0628C33.9638 12.956 33.9638 12.8757 33.7973 12.7827C33.3141 12.5141 32.8378 12.2341 32.358 11.9598Z" fill="#ED0007"/>
<path d="M34.8532 6.94056C35.1069 6.93253 35.2813 7.06567 35.4363 7.24931C36.3717 8.36953 37.3152 9.48172 38.2426 10.61C38.432 10.8395 38.5628 10.9256 38.8015 10.6743C39.007 10.4585 39.2503 10.2748 39.4902 10.0946C39.807 9.85704 40.1708 9.89147 40.4107 10.1623C40.6403 10.4217 40.6185 10.8166 40.3212 11.0806C39.8391 11.5064 39.3433 11.9184 38.8383 12.3167C38.5203 12.5681 38.1599 12.5222 37.8902 12.2031C36.7195 10.8143 35.5556 9.41974 34.393 8.02405C34.2185 7.81516 34.1347 7.58446 34.2747 7.31244C34.3987 7.07026 34.5938 6.95663 34.8567 6.94286L34.8532 6.94056Z" fill="#ED0007"/>
<path d="M22.5973 17.2578C22.8165 17.2498 22.9841 17.3646 23.1299 17.5391C24.265 18.898 25.4059 20.2535 26.5399 21.6136C26.8796 22.0211 26.8785 22.3471 26.5594 22.626C26.2587 22.8877 25.8788 22.8268 25.5608 22.4504C24.4188 21.096 23.2814 19.7393 22.1428 18.3827C21.9488 18.1508 21.826 17.9063 21.9936 17.6033C22.1221 17.3703 22.3069 17.2395 22.5973 17.2567V17.2578Z" fill="#ED0007"/>
<path d="M18.8167 28.7803C18.8362 29.112 18.6733 29.314 18.3989 29.4242C18.0879 29.5493 17.8469 29.4162 17.6472 29.1774C16.8299 28.2041 16.0127 27.232 15.1967 26.2587C14.8478 25.8432 14.4931 25.4323 14.1579 25.0064C13.8928 24.6701 13.9295 24.2856 14.2222 24.0595C14.531 23.8219 14.8776 23.8644 15.1622 24.2019C16.3226 25.5769 17.4761 26.9565 18.6308 28.335C18.7421 28.4681 18.8431 28.607 18.8167 28.7792V28.7803Z" fill="#ED0007"/>
</svg>
