<svg width="123" height="81" viewBox="0 0 123 81" fill="none" xmlns="http://www.w3.org/2000/svg">
<path d="M0 7.90416C0.288123 7.17105 0.525023 6.41233 0.877173 5.71123C2.74037 1.98484 5.73044 0.00320136 9.93703 0.00320136C44.1916 0 78.4494 0 112.704 0C118.486 0 122.689 4.24181 122.692 10.0555C122.692 28.2232 122.692 46.3877 122.692 64.5555C122.692 70.0298 118.473 74.3452 112.986 74.4765C111.868 74.5021 110.745 74.5469 109.634 74.4637C108.715 74.3933 108.507 74.7102 108.523 75.5938C108.571 78.1549 107.047 80.1205 104.643 80.8376C104.208 80.9657 103.782 80.9817 103.346 80.9849C101.31 80.9913 99.2742 81.0009 97.2382 80.9849C94.2417 80.9593 91.9719 78.7535 92.0584 75.7698C92.0936 74.5277 91.5718 74.4669 90.6114 74.4701C70.9678 74.4893 51.3242 74.4925 31.6807 74.4669C30.8867 74.4669 30.6691 74.6622 30.6562 75.4497C30.6018 79.0512 28.5754 80.9945 24.961 80.9945C23.085 80.9945 21.209 81.0105 19.333 80.9881C16.4358 80.956 14.1372 78.7151 14.1852 75.8179C14.2044 74.6654 13.8267 74.4253 12.7766 74.4637C10.9903 74.5245 9.1687 74.6814 7.42396 74.1756C3.88645 73.1511 1.45982 70.9358 0.384163 67.3374C0.288123 67.0173 0.361754 66.5979 0 66.377C0 46.8839 0 27.3941 0 7.90416ZM46.3365 3.78721C34.3602 3.79041 22.3807 3.78721 10.4044 3.79682C9.69372 3.79682 8.97982 3.74239 8.26912 3.94408C5.27905 4.78604 3.79041 6.89893 3.78721 10.4364C3.78401 28.3225 3.84804 46.2085 3.7488 64.0945C3.72639 68.205 6.78369 70.7501 10.4973 70.7373C34.6515 70.6637 58.8058 70.6893 82.9601 70.7213C84.0902 70.7213 84.4199 70.478 84.4167 69.2999C84.3783 47.9404 84.3815 26.5809 84.4167 5.22142C84.4167 4.08494 84.1638 3.7552 82.9889 3.7584C70.7725 3.80322 58.5561 3.78721 46.3365 3.78721ZM88.1847 37.2703C88.1847 47.9724 88.1975 58.6778 88.1655 69.3799C88.1655 70.3563 88.2936 70.7405 89.4333 70.7309C97.1805 70.6669 104.928 70.7021 112.675 70.6925C116.315 70.6893 118.895 68.221 118.902 64.5747C118.934 46.3237 118.937 28.0727 118.908 9.82178C118.902 6.16262 116.437 3.79682 112.768 3.78721C104.979 3.768 97.1934 3.80002 89.4044 3.7584C88.3896 3.752 88.1591 4.06253 88.1623 5.03894C88.1975 15.7827 88.1847 26.5233 88.1847 37.2671V37.2703ZM22.4223 74.5085C21.8237 74.5085 21.2282 74.5085 20.6296 74.5085C19.9925 74.5085 19.3554 74.4989 18.7184 74.5149C18.4623 74.5213 18.1645 74.3965 17.982 74.7294C17.4602 75.6802 18.1869 77.0952 19.285 77.188C19.9989 77.2457 20.7192 77.2073 21.4363 77.2073C22.8321 77.2073 24.2279 77.2457 25.6205 77.188C26.6225 77.1464 26.9843 76.4741 26.9523 75.1904C26.9267 74.0987 26.1327 74.5533 25.6493 74.5277C24.5769 74.4669 23.498 74.5085 22.4223 74.5085ZM100.283 74.5085C99.207 74.5085 98.125 74.5949 97.0621 74.4861C95.8616 74.3612 95.6471 74.8863 95.7848 75.9107C95.9 76.7783 96.361 77.1848 97.1966 77.204C97.9137 77.2201 98.6276 77.2137 99.3447 77.2137C100.657 77.2137 101.973 77.2457 103.282 77.204C104.364 77.172 104.713 76.599 104.761 75.3505C104.809 74.1211 103.958 74.5437 103.385 74.5181C102.351 74.4733 101.317 74.5053 100.283 74.5085Z" fill="#AAB5BF"/>
<path d="M44.2589 10.7854C55.1979 10.7854 66.137 10.7854 77.076 10.7854C79.333 10.7854 79.8324 11.288 79.8324 13.4938C79.8292 29.3021 79.8292 45.1136 79.8228 60.9219C79.8228 63.1021 79.2594 63.6719 77.0664 63.6751C55.3484 63.6815 33.6303 63.6847 11.9123 63.6815C9.13672 63.6815 8.67572 63.1949 8.67572 60.3777C8.67572 44.7679 8.67572 29.158 8.67572 13.5482C8.67572 11.3841 9.27758 10.7854 11.4385 10.7854C22.3775 10.7854 33.3166 10.7854 44.2557 10.7854H44.2589ZM44.214 59.9007V59.9071C54.436 59.9071 64.6579 59.8879 74.8799 59.9359C76.0036 59.9423 76.1572 59.5774 76.154 58.5785C76.122 44.5246 76.1316 30.4674 76.1316 16.4134C76.1316 15.1798 75.5212 14.5641 74.3004 14.5662C54.055 14.5662 33.8128 14.5726 13.5674 14.5438C12.671 14.5438 12.4373 14.7519 12.4405 15.6547C12.4693 30.0288 12.4725 44.4029 12.4373 58.777C12.4373 59.7951 12.8023 59.9167 13.6698 59.9135C23.8534 59.8879 34.0337 59.8975 44.2172 59.8975L44.214 59.9007Z" fill="#AAB5BF"/>
<path d="M104.047 11.9859C107.361 11.9859 110.674 11.9795 113.988 11.9859C115.636 11.9891 116.305 12.639 116.315 14.3037C116.331 17.1785 116.328 20.0533 116.299 22.9249C116.283 24.4168 115.563 25.1275 114.09 25.1307C107.342 25.1403 100.596 25.1403 93.8479 25.1307C92.4713 25.1307 91.6486 24.3976 91.6294 23.0242C91.5845 20.0309 91.5813 17.0344 91.6422 14.0411C91.671 12.6101 92.4233 11.9827 93.8671 11.9795C97.2606 11.9731 100.654 11.9795 104.047 11.9795V11.9859ZM103.929 21.3435V21.3595C106.484 21.3595 109.038 21.3338 111.593 21.3755C112.371 21.3883 112.656 21.161 112.614 20.3574C112.55 19.1633 112.569 17.9628 112.601 16.7655C112.621 16.0868 112.454 15.7539 111.679 15.7571C106.532 15.7859 101.381 15.7859 96.2329 15.7667C95.5286 15.7667 95.3462 16.0292 95.3654 16.6791C95.4038 17.9148 95.423 19.1569 95.3589 20.3894C95.3173 21.209 95.6215 21.3787 96.3866 21.3627C98.8997 21.3146 101.416 21.3435 103.929 21.3435Z" fill="#AAB5BF"/>
<path d="M95.8616 58.8442C95.8616 54.3143 99.5623 50.5687 104.012 50.6007C108.475 50.6327 112.14 54.3687 112.147 58.8955C112.153 63.3069 108.456 66.9693 103.967 66.9885C99.5527 67.0077 95.8648 63.3037 95.8616 58.8442ZM108.337 58.8827C108.369 56.3408 106.448 54.3719 103.948 54.3815C101.627 54.3911 99.6872 56.3024 99.652 58.6169C99.6136 61.2164 101.438 63.2013 103.916 63.2461C106.32 63.2909 108.302 61.3317 108.334 58.8827H108.337Z" fill="#AAB5BF"/>
<path d="M103.945 40.7437C105.222 40.7437 106.5 40.7213 107.774 40.7501C108.971 40.7789 109.72 41.48 109.752 42.5365C109.784 43.5801 109.074 44.4669 107.928 44.4989C105.296 44.5693 102.661 44.5629 100.03 44.4989C98.8997 44.4701 98.2018 43.5737 98.2466 42.5077C98.2914 41.432 99.0277 40.7629 100.235 40.7469C101.47 40.7277 102.709 40.7437 103.945 40.7437Z" fill="#AAB5BF"/>
<path d="M103.951 37.1358C102.677 37.1358 101.4 37.1454 100.126 37.1326C99.0533 37.1198 98.3938 36.5596 98.2658 35.5031C98.1377 34.4371 98.6724 33.784 99.7032 33.4863C100.452 33.2718 101.208 33.3774 101.96 33.371C103.833 33.3518 105.706 33.323 107.579 33.3774C109.016 33.419 109.778 34.1778 109.752 35.3751C109.73 36.4988 108.949 37.123 107.537 37.1422C107.338 37.1422 107.14 37.1422 106.938 37.1422C105.943 37.1422 104.947 37.1422 103.948 37.1422V37.1358H103.951Z" fill="#AAB5BF"/>
</svg>
