<svg width="41" height="94" viewBox="0 0 41 94" fill="none" xmlns="http://www.w3.org/2000/svg">
<path d="M21.1002 0C21.3942 0.306124 21.834 0.22109 22.179 0.400877C23.7873 1.23907 24.7276 2.51216 24.73 4.36591C24.7421 10.4568 24.7446 16.5477 24.7251 22.6386C24.7251 23.2873 24.7494 23.4938 25.539 23.3456C28.1022 22.8646 30.6873 24.9734 30.5123 27.556C30.3204 30.4059 31.0736 33.0298 31.8194 35.6999C32.7475 39.026 33.0585 42.4444 33.3039 45.8822C33.5687 49.5557 33.4643 53.1952 32.9492 56.8395C32.1985 62.1481 30.629 67.2016 28.1994 71.9635C27.3879 73.5549 27.7767 75.1535 27.6576 76.7546C27.626 77.1798 27.9856 77.1117 28.2407 77.1142C29.4215 77.1214 30.6047 77.1142 31.7854 77.1166C34.4604 77.1239 36.3967 79.0238 36.3554 81.6744C36.3433 82.4786 36.404 82.9159 37.3953 83.103C39.4653 83.4966 40.7359 85.2459 40.7383 87.3572C40.7383 88.691 40.7432 90.0248 40.7383 91.3562C40.7335 92.5831 40.2136 93.1031 38.9599 93.1031C26.5352 93.1031 14.1104 93.1031 1.68565 93.1006C0.538894 93.1006 0.0165396 92.5832 0.00682138 91.451C-0.00532641 90.088 0.00196227 88.7226 0.00439182 87.3596C0.00682138 85.1779 1.3698 83.3533 3.50538 83.0326C4.47964 82.8868 4.37759 82.4155 4.37517 81.7813C4.36545 79.3493 5.97624 77.3474 8.2163 77.1433C9.47967 77.0291 10.7649 77.0558 12.0307 77.136C12.9126 77.1919 13.0997 76.9247 13.1362 76.05C13.2115 74.1622 12.8106 72.4786 11.9918 70.7511C8.52242 63.4406 6.95293 55.7025 7.32465 47.612C7.57003 42.2622 8.15799 36.9633 10.0822 31.8952C10.4248 30.9939 10.1356 29.971 10.1915 29.0089C10.2377 28.2266 10.0749 27.437 10.3033 26.662C11.0637 24.0672 13.0511 22.918 15.9253 23.4258C16.0856 23.1415 16.0055 22.833 16.0055 22.5366C16.0103 16.5963 16.0079 10.6585 16.0079 4.7182C16.0079 2.3834 16.9554 1.03013 19.1712 0.187076C19.2756 0.145773 19.3655 0.0631685 19.4627 0C20.0094 0 20.5536 0 21.1002 0ZM21.8315 42.4881C21.8315 40.6392 21.8315 38.7903 21.8315 36.9414C21.8315 34.8884 21.8315 34.92 19.7445 34.8884C19.057 34.8787 18.8869 35.0707 18.8918 35.7436C18.9234 39.8034 18.8553 43.8657 18.9306 47.9255C18.9744 50.3404 18.2649 52.4226 16.8242 54.3298C15.2353 56.4313 13.7217 58.5863 12.1595 60.7074C11.8728 61.0985 11.7051 61.48 11.8436 61.9634C12.6575 64.8133 13.6634 67.5903 14.9316 70.2701C15.1405 70.7098 15.3641 70.8362 15.8402 70.6613C18.8505 69.5607 21.8801 69.6044 24.8904 70.6442C25.4613 70.841 25.6241 70.6321 25.8354 70.1924C27.0381 67.6778 28.005 65.0806 28.7849 62.4056C29.0036 61.6549 28.921 61.1131 28.4594 60.4936C26.7562 58.2122 25.0944 55.9017 23.435 53.5863C22.366 52.0946 21.8242 50.4206 21.8291 48.5741C21.834 46.543 21.8291 44.5144 21.8291 42.4832L21.8315 42.4881ZM20.3932 90.2095C25.9059 90.2095 31.4186 90.1998 36.9337 90.2216C37.6018 90.2241 37.9589 90.122 37.8472 89.347C37.7792 88.8732 37.8326 88.38 37.8326 87.8941C37.8326 86.2614 37.4196 85.8387 35.8185 85.8363C25.5196 85.8338 15.2207 85.8314 4.92182 85.829C4.80034 85.829 4.67886 85.8241 4.55738 85.829C3.48595 85.8703 2.94416 86.3999 2.915 87.4641C2.89799 88.069 2.95873 88.6813 2.89799 89.2814C2.81782 90.0491 3.10451 90.2289 3.85524 90.224C9.36791 90.19 14.8806 90.207 20.3957 90.2095H20.3932ZM11.2508 39.128C12.6818 38.698 13.9889 38.2097 15.3641 38.059C15.9666 37.9934 16.0298 37.7383 16.02 37.25C15.9957 36.0376 15.9982 34.8277 16.0127 33.6154C16.0249 32.6071 16.591 32.024 17.575 32.0167C19.4214 32.0021 21.2703 32.0021 23.1192 32.0167C24.1809 32.024 24.7276 32.5852 24.7349 33.6445C24.7421 34.886 24.7324 36.1275 24.7324 37.369C24.7324 37.663 24.6547 37.974 25.126 38.0274C26.5959 38.1926 27.9978 38.664 29.4725 39.1353C29.4968 38.1489 29.2538 37.2743 28.9842 36.4288C28.0876 33.5984 27.3175 30.7703 27.6236 27.7431C27.7159 26.8296 27.0065 26.1858 26.2047 26.1833C25.4613 26.1833 24.8515 26.7883 24.7373 27.6386C24.6012 28.6566 24.1518 29.0769 23.1435 29.0818C21.2946 29.0891 19.4481 29.0891 17.5992 29.0818C16.5691 29.0769 16.1585 28.6955 16.0055 27.6435C15.8743 26.7421 15.3106 26.1785 14.5502 26.1858C13.763 26.1955 13.1532 26.8466 13.0924 27.748C13.0876 27.8087 13.0851 27.8695 13.0924 27.9302C13.3086 30.5857 12.9321 33.1416 11.9845 35.644C11.5788 36.7179 11.2945 37.8671 11.2508 39.128ZM20.2766 82.933C24.2149 82.933 28.1508 82.9402 32.0891 82.9208C32.5386 82.9208 33.2432 83.1953 33.3987 82.7167C33.6027 82.0947 33.6149 81.3294 33.1946 80.7026C32.7961 80.1074 32.1887 80.0078 31.5182 80.0078C24.0667 80.0151 16.6177 80.0078 9.16625 80.0126C7.83243 80.0126 7.32222 80.6054 7.26148 81.9854C7.2299 82.7216 7.40725 82.9621 8.192 82.9524C12.2202 82.9087 16.2484 82.933 20.2766 82.933ZM10.9714 57.4226C12.3295 55.547 13.5589 53.8293 14.8125 52.1262C15.3616 51.3803 15.7649 50.5712 15.8694 49.6553C16.1852 46.8783 15.9301 44.0916 16.0103 41.3098C16.0225 40.8579 15.7455 40.9453 15.4612 41.0012C13.9695 41.2928 12.5482 41.7787 11.1706 42.4176C10.8062 42.5853 10.59 42.8234 10.5584 43.234C10.2814 46.8564 9.98015 50.4813 10.4053 54.1111C10.5268 55.1485 10.5414 56.2127 10.969 57.4275L10.9714 57.4226ZM29.7786 57.4639C30.1819 56.0329 30.2427 54.7792 30.3811 53.5426C30.7626 50.1485 30.4322 46.7666 30.2014 43.3846C30.1673 42.9011 29.9949 42.612 29.5551 42.4104C28.2334 41.803 26.8607 41.3754 25.4419 41.0425C24.696 40.8676 24.7178 41.1834 24.7203 41.6961C24.7324 43.9993 24.7203 46.3025 24.7421 48.6057C24.7519 49.5508 24.8952 50.5154 25.4224 51.2977C26.7878 53.3239 28.2334 55.2943 29.7786 57.4663V57.4639ZM21.8291 15.0414C21.8291 11.6181 21.8242 8.1949 21.834 4.77165C21.834 4.09623 21.7101 3.49613 21.0832 3.1317C20.0167 2.51216 18.9185 3.31392 18.9161 4.73278C18.9088 11.1857 18.9088 17.6362 18.9112 24.0891C18.9112 26.2295 18.9161 26.2028 21.0395 26.2101C21.6712 26.2101 21.851 26.0424 21.8437 25.401C21.8121 21.9486 21.8291 18.4938 21.8267 15.0414H21.8291ZM20.2839 77.1142C20.8597 77.1142 21.4355 77.1312 22.0113 77.1093C22.8835 77.0777 24.0303 77.481 24.5551 76.966C25.1236 76.4072 24.6474 75.2434 24.7494 74.3542C24.8126 73.8148 24.5599 73.6132 24.1032 73.4625C22.0235 72.775 19.9268 72.5563 17.779 73.1224C16.0127 73.5889 16.0079 73.5719 16.0055 75.4353C16.0055 75.6783 16.0322 75.9237 15.9982 76.1618C15.8986 76.8858 16.1245 77.1846 16.9214 77.1336C18.0366 77.0607 19.1615 77.1142 20.2815 77.1142H20.2839Z" fill="#AAB5BF"/>
<path d="M21.8243 61.0256C21.8243 62.4469 21.834 63.8682 21.8218 65.2895C21.8121 66.2807 21.2485 66.8906 20.3787 66.9051C19.5138 66.9173 18.9307 66.305 18.9258 65.3065C18.9137 62.4955 18.9137 59.6821 18.9258 56.8686C18.9307 55.9114 19.5575 55.2773 20.4151 55.2991C21.2436 55.321 21.8121 55.9332 21.8194 56.854C21.8315 58.2438 21.8218 59.6359 21.8243 61.028V61.0256Z" fill="#AAB5BF"/>
</svg>
