<svg width="85" height="93" viewBox="0 0 85 93" fill="none" xmlns="http://www.w3.org/2000/svg">
<path d="M77.338 93H6.83676C6.73235 92.9455 6.63475 92.8615 6.52579 92.8411C2.81687 92.0853 0 88.8984 0 84.3542C0.0113492 59.0749 0 33.7957 0.00453968 8.5165C0.00453968 7.82874 0.0385873 7.12282 0.188397 6.45321C1.05094 2.6081 4.3354 0.0386414 8.29173 0.0386414C30.7019 0.0409112 53.112 0.0772287 75.5222 5.40485e-05C80.1753 -0.0158348 84.1816 3.47291 84.1112 8.56644C84.0136 15.6325 84.0749 22.7007 84.0749 29.7668C84.0772 47.9482 84.0749 66.1296 84.0999 84.3111C84.1044 87.2845 83.1057 89.7133 80.6861 91.511C79.676 92.26 78.482 92.5665 77.338 92.9977V93ZM42.0715 23.2886C29.7735 23.2886 17.4732 23.2977 5.17524 23.2682C4.26276 23.2682 3.96314 23.443 3.96541 24.4372C3.99492 44.893 3.98811 65.3511 3.96995 85.8069C3.96995 88.0812 5.21837 89.2094 7.35429 89.2071C30.4772 89.1685 53.6 89.164 76.7252 89.2071C78.8407 89.2116 80.1277 88.1357 80.1254 85.8545C80.0982 66.6539 80.1231 47.4511 80.1277 28.2505C80.1277 26.9022 80.0664 25.5494 80.1231 24.2034C80.1549 23.4316 79.8712 23.1888 79.1607 23.2886C79.0064 23.3091 78.8475 23.2886 78.6909 23.2886C66.4859 23.2886 54.281 23.2886 42.076 23.2886H42.0715ZM42.1169 17.673V17.6957C53.7567 17.6957 65.3964 17.6957 77.0361 17.6957C77.851 17.6957 78.6682 17.6685 79.483 17.6867C79.912 17.6957 80.0982 17.5686 80.0959 17.1033C80.0687 13.4648 80.0619 9.8262 80.0437 6.18764C80.0414 5.62245 79.7713 5.17075 79.4104 4.75991C78.6999 3.95412 77.7738 3.83836 76.7638 3.83836C53.5773 3.8497 30.3909 3.84744 7.20448 3.8497C5.06175 3.8497 3.99265 4.9188 3.98584 7.09558C3.97449 10.2007 3.98584 13.3081 3.99038 16.4133C3.99038 17.6594 3.99946 17.6708 5.21837 17.6708C17.5164 17.673 29.8166 17.6708 42.1146 17.6708L42.1169 17.673Z" fill="#AAB5BF"/>
<path d="M68.0113 56.0605C67.7298 71.8087 54.7054 82.0525 41.8309 81.8368C26.2984 81.5758 15.5053 68.5197 16.1522 54.7826C16.8468 40.0377 29.2991 29.3763 43.0521 29.9891C58.1125 30.661 68.1225 43.1043 68.0113 56.0605ZM53.6954 54.9506C55.1004 55.0209 56.3965 54.6033 57.6154 53.8769C58.9069 53.1052 60.1871 52.2971 61.6625 51.9067C62.0983 51.7909 62.1505 51.6207 62.0529 51.2053C60.9543 46.618 58.6209 42.7615 54.8916 39.9015C48.4384 34.9533 41.3179 33.9296 33.8206 37.1482C27.6126 39.813 23.7947 44.6614 22.0901 51.1826C21.997 51.5413 22.0197 51.7796 22.485 51.9022C23.9877 52.2994 25.2838 53.1415 26.6048 53.9246C27.7692 54.6146 29.0154 54.9324 30.3773 54.9733C32.2953 55.03 33.8706 54.2174 35.4254 53.2618C36.928 52.338 38.5396 51.707 40.3078 51.5095C43.7421 51.1259 46.8722 51.9067 49.7345 53.852C50.9057 54.6487 52.2359 55.0164 53.6931 54.9506H53.6954ZM62.5387 57.4292C61.7374 57.6199 61.2108 58.0285 60.6547 58.3621C55.879 61.2153 51.1441 61.1086 46.4387 58.1896C45.7237 57.7447 44.9973 57.3157 44.1666 57.1092C41.7197 56.5031 39.4839 56.9503 37.3888 58.3508C35.5003 59.6106 33.4075 60.2597 31.1195 60.3846C28.1052 60.548 25.4336 59.6537 22.939 58.0557C22.5758 57.8242 22.2399 57.4837 21.6021 57.52C22.4056 64.7586 25.8013 70.3265 32.1568 73.8107C39.1979 77.6717 46.3502 77.4016 53.1256 73.1502C58.8093 69.582 61.8509 64.2297 62.5409 57.4315L62.5387 57.4292Z" fill="#AAB5BF"/>
<path d="M57.2159 8.067C58.2101 8.067 59.2088 8.0216 60.1984 8.07835C61.5694 8.15779 62.6022 9.27455 62.6476 10.6296C62.6907 11.9235 61.751 13.1809 60.4617 13.3217C58.3326 13.5555 56.1876 13.5532 54.0608 13.3217C52.7556 13.1809 51.8227 11.928 51.8749 10.6319C51.9294 9.26547 52.9599 8.15325 54.3218 8.07835C55.2842 8.02614 56.2512 8.06927 57.2159 8.067Z" fill="#AAB5BF"/>
<path d="M71.5681 8.0693C72.5328 8.0693 73.4998 8.02844 74.4599 8.07838C75.8241 8.15101 76.8841 9.24054 76.9726 10.5797C77.0566 11.8736 76.0806 13.1787 74.7368 13.3217C72.61 13.551 70.4627 13.5373 68.3336 13.3126C67.1034 13.1833 66.15 11.9144 66.1841 10.6751C66.2227 9.31317 67.2554 8.18052 68.5833 8.07384C69.094 8.03298 69.607 8.04206 70.12 8.03525C70.6012 8.02844 71.0847 8.03525 71.5681 8.03525V8.0693Z" fill="#AAB5BF"/>
</svg>
