<svg width="50" height="15" viewBox="0 0 50 15" fill="none" xmlns="http://www.w3.org/2000/svg">
<path d="M48.9899 8.98974C49.5422 8.99538 49.9944 8.55226 50.0001 8C50.0057 7.44774 49.5626 6.99548 49.0103 6.98985L48.9899 8.98974ZM0.300145 6.78572C-0.0943437 7.17223 -0.100804 7.80537 0.285715 8.19985L6.58441 14.6284C6.97093 15.0229 7.60406 15.0294 7.99855 14.6428C8.39304 14.2563 8.3995 13.6232 8.01298 13.2287L2.41414 7.51443L8.12842 1.91559C8.52291 1.52907 8.52937 0.895939 8.14285 0.50145C7.75633 0.106961 7.1232 0.100501 6.72871 0.48702L0.300145 6.78572ZM49.0103 6.98985L1.0102 6.50005L0.989796 8.49995L48.9899 8.98974L49.0103 6.98985Z" fill="#B7B7B7"/>
</svg>
