<svg width="14" height="18" viewBox="0 0 14 18" fill="none" xmlns="http://www.w3.org/2000/svg">
<path d="M7.07971 0C7.3498 0.0457717 7.62209 0.0814208 7.88952 0.139516C9.61347 0.514932 10.9802 1.43169 11.9766 2.87657C12.5194 3.6635 12.854 4.53888 13.011 5.48776C13.2399 6.8706 12.9557 8.17421 12.454 9.44965C11.8064 11.097 10.9042 12.6066 9.90565 14.062C9.02954 15.3388 8.07164 16.5518 7.0585 17.7229C6.74288 18.0877 6.37201 18.0957 6.05552 17.7321C4.49336 15.9374 3.06691 14.0435 1.87827 11.9812C1.20063 10.8052 0.614048 9.58697 0.255115 8.26927C0.0402851 7.48279 -0.0538687 6.68355 0.0310023 5.87902C0.184389 4.42797 0.758594 3.15297 1.76202 2.07953C2.72345 1.05143 3.90545 0.412385 5.2793 0.11751C5.52375 0.0651366 5.77792 0.0655768 6.02104 0C6.37378 0 6.72697 0 7.07971 0ZM9.83316 6.50882C9.83758 4.7849 8.46682 3.25419 6.55678 3.24671C4.67415 3.23923 3.27864 4.72857 3.26715 6.49694C3.25522 8.29744 4.702 9.7815 6.55281 9.78986C8.36516 9.79778 9.83537 8.31769 9.83316 6.50882Z" fill="#F80000"/>
</svg>
