<svg width="131" height="29" viewBox="0 0 131 29" fill="none" xmlns="http://www.w3.org/2000/svg">
<path fill-rule="evenodd" clip-rule="evenodd" d="M55.5495 14.1152C56.3387 13.8157 57.0157 13.2867 57.49 12.599C57.9643 11.9113 58.2132 11.0978 58.2033 10.2674C58.2033 6.80441 55.7003 5.08771 52.2624 5.08771H43.2456V23.9123H53.0465C56.0622 23.9123 59.0175 21.8404 59.0175 18.6734C59.0175 14.9144 55.5495 14.1448 55.5495 14.1152ZM47.95 8.99469H51.4482C51.6896 8.9804 51.9314 9.01655 52.1575 9.10074C52.3836 9.18493 52.589 9.31526 52.76 9.4831C52.931 9.65095 53.0638 9.8525 53.1496 10.0744C53.2353 10.2964 53.2722 10.5337 53.2576 10.7706C53.2529 11.0074 53.1994 11.2408 53.1004 11.4567C53.0013 11.6727 52.8587 11.8667 52.6812 12.0271C52.5037 12.1875 52.2949 12.311 52.0674 12.3901C51.84 12.4692 51.5986 12.5023 51.3577 12.4873H47.95V8.99469ZM51.4784 19.9757H47.95V16.2759H51.3879C53.1068 16.2759 53.9211 17.0159 53.9211 18.111C53.9211 19.4725 52.8957 19.9757 51.4784 19.9757Z" fill="#ED0007"/>
<path fill-rule="evenodd" clip-rule="evenodd" d="M69.4473 4.57895C63.8369 4.57895 60.5438 8.95851 60.5438 14.5C60.5438 20.0713 63.8369 24.4211 69.4473 24.4211C75.0883 24.4211 78.3508 20.0713 78.3508 14.5C78.3508 8.95851 75.0883 4.57895 69.4473 4.57895ZM69.4473 19.8925C66.7031 19.8925 65.331 17.4793 65.331 14.5C65.331 11.5207 66.7031 9.13727 69.4473 9.13727C72.1916 9.13727 73.5942 11.5505 73.5942 14.5C73.5942 17.5091 72.1916 19.8925 69.4473 19.8925Z" fill="#ED0007"/>
<path fill-rule="evenodd" clip-rule="evenodd" d="M88.6754 12.5337L88.0171 12.3847C86.4011 12.057 85.1142 11.6399 85.1142 10.478C85.1142 9.22665 86.3412 8.72017 87.4185 8.72017C88.1535 8.73167 88.8781 8.89367 89.5475 9.19608C90.2168 9.49849 90.8164 9.93484 91.309 10.478L94.2716 7.55824C92.925 6.0388 90.7404 4.57895 87.3288 4.57895C83.3187 4.57895 80.2662 6.81342 80.2662 10.5375C80.2662 13.9339 82.7201 15.6023 85.7128 16.228L86.3711 16.377C88.855 16.8834 89.7827 17.2707 89.7827 18.4625C89.7827 19.5946 88.7652 20.3394 87.2091 20.3394C85.3536 20.3394 83.6778 19.535 82.3909 17.8964L79.3684 20.8757C81.0443 22.8718 83.169 24.4211 87.2689 24.4211C90.8301 24.4211 94.6308 22.3951 94.6308 18.2539C94.6906 13.9339 91.3987 13.0997 88.6754 12.5337Z" fill="#ED0007"/>
<path fill-rule="evenodd" clip-rule="evenodd" d="M105.179 19.8627C103.088 19.8627 100.908 18.1347 100.908 14.351C100.908 10.9844 102.939 9.10748 105.06 9.10748C106.733 9.10748 107.719 9.88209 108.495 11.2228L112.319 8.69038C110.407 5.80046 108.137 4.57895 105 4.57895C99.2647 4.57895 96.1579 9.0181 96.1579 14.3808C96.1579 20.0117 99.5933 24.4211 104.941 24.4211C108.704 24.4211 110.497 23.1102 112.439 20.3096L108.585 17.7176C107.808 18.9689 106.972 19.8627 105.179 19.8627Z" fill="#ED0007"/>
<path fill-rule="evenodd" clip-rule="evenodd" d="M125.248 5.08771V12.0137H119.472V5.08771H114.474V23.9123H119.472V16.4831H125.248V23.9123H130.246V5.08771H125.248Z" fill="#ED0007"/>
<path d="M14.5 0C11.6322 0 8.82875 0.850411 6.44424 2.44369C4.05973 4.03697 2.20122 6.30156 1.10375 8.95109C0.00628297 11.6006 -0.280866 14.5161 0.27862 17.3288C0.838105 20.1415 2.2191 22.7252 4.24696 24.753C6.27482 26.7809 8.85847 28.1619 11.6712 28.7214C14.4839 29.2809 17.3994 28.9937 20.0489 27.8962C22.6984 26.7988 24.963 24.9403 26.5563 22.5558C28.1496 20.1713 29 17.3678 29 14.5C28.9979 10.655 27.4696 6.96807 24.7508 4.24924C22.0319 1.53041 18.345 0.00207239 14.5 0ZM14.5 27.6463C11.8999 27.6463 9.35822 26.8752 7.19633 25.4307C5.03444 23.9862 3.34945 21.933 2.35444 19.5309C1.35943 17.1287 1.09909 14.4854 1.60634 11.9353C2.11359 9.38516 3.36566 7.04272 5.20419 5.20419C7.04273 3.36565 9.38517 2.11359 11.9353 1.60634C14.4854 1.09908 17.1287 1.35943 19.5309 2.35444C21.933 3.34944 23.9862 5.03443 25.4307 7.19633C26.8753 9.35822 27.6463 11.8999 27.6463 14.5C27.6427 17.9855 26.2565 21.3272 23.7919 23.7918C21.3272 26.2565 17.9855 27.6427 14.5 27.6463Z" fill="black"/>
<path d="M20.5298 5.5965H19.5299V10.4772H9.50039V5.5965H8.47017C6.96142 6.56842 5.72323 7.89055 4.86654 9.44443C4.00984 10.9983 3.5614 12.7354 3.5614 14.5C3.5614 16.2646 4.00984 18.0017 4.86654 19.5556C5.72323 21.1095 6.96142 22.4316 8.47017 23.4035H9.50039V18.5229H19.5299V23.4035H20.5298C22.0386 22.4316 23.2768 21.1095 24.1335 19.5556C24.9902 18.0017 25.4386 16.2646 25.4386 14.5C25.4386 12.7354 24.9902 10.9983 24.1335 9.44443C23.2768 7.89055 22.0386 6.56842 20.5298 5.5965ZM8.10656 21.4808C7.09657 20.6046 6.28816 19.5296 5.73456 18.3263C5.18097 17.1231 4.89474 15.819 4.89474 14.5C4.89474 13.181 5.18097 11.8769 5.73456 10.6737C6.28816 9.47046 7.09657 8.39536 8.10656 7.51918V21.4808ZM19.5299 17.1622H9.50039V11.8082H19.5299V17.1622ZM20.8934 21.4513V18.4933V10.4772V7.51918C21.8947 8.39743 22.6954 9.47154 23.2435 10.6717C23.7917 11.8718 24.0749 13.1712 24.0749 14.4852C24.0749 15.7993 23.7917 17.0986 23.2435 18.2987C22.6954 19.4989 21.8947 20.573 20.8934 21.4513Z" fill="black"/>
</svg>
