<svg width="18" height="18" viewBox="0 0 18 18" fill="none" xmlns="http://www.w3.org/2000/svg">
<path d="M13.6877 17.9935C12.8841 17.9114 12.1116 17.7017 11.3584 17.412C9.45244 16.6792 7.7841 15.5623 6.23754 14.2464C4.64752 12.8941 3.27744 11.3475 2.12946 9.60512C1.32908 8.39008 0.678915 7.10208 0.27551 5.69767C0.156419 5.28247 0.0721976 4.86029 0.00943379 4.43381C-0.0195341 4.23747 0.0180169 4.05455 0.124769 3.87913C0.676769 2.97254 1.35537 2.16466 2.0565 1.37394C2.42021 0.963027 2.79679 0.563913 3.23077 0.224881C3.64169 -0.0959119 3.86539 -0.0798186 4.20603 0.313931C4.60568 0.775272 4.91574 1.30152 5.23922 1.81651C5.71182 2.56914 6.17209 3.32928 6.54331 4.13877C6.58462 4.22943 6.61305 4.32652 6.65704 4.41557C6.80992 4.72457 6.72463 4.9783 6.49074 5.20736C6.17477 5.51689 5.82287 5.78458 5.49081 6.07479C4.95597 6.54203 4.93076 6.54954 5.18235 7.21366C6.23968 10.0048 8.18643 11.8931 10.9953 12.9026C11.3134 13.0169 11.5344 12.982 11.7436 12.7058C11.9769 12.3973 12.2468 12.1168 12.501 11.8239C12.5579 11.7584 12.6132 11.6908 12.6738 11.6286C13.1201 11.1731 13.2231 11.1887 13.7225 11.4006C14.605 11.775 15.4161 12.2809 16.2256 12.7873C16.6327 13.0427 17.0286 13.3162 17.4261 13.5866C17.5361 13.6617 17.6386 13.7497 17.7351 13.842C18.0581 14.1499 18.0806 14.3559 17.8113 14.7121C17.4095 15.2431 16.917 15.6878 16.4187 16.124C15.709 16.7452 14.9805 17.3438 14.1747 17.839C14.0272 17.9296 13.8781 18.0262 13.6877 17.9935Z" fill="#F80000"/>
<path d="M17.3526 8.35563C17.1987 8.35563 17.0436 8.34383 16.8913 8.35885C16.7341 8.37441 16.7089 8.31111 16.703 8.16895C16.6601 7.12503 16.4359 6.12296 15.952 5.19223C14.9279 3.22241 13.3277 1.98215 11.1717 1.46234C10.7249 1.35452 10.2657 1.30677 9.80595 1.29443C9.67613 1.29068 9.63483 1.25635 9.63858 1.12492C9.6477 0.817536 9.64931 0.509081 9.63858 0.2017C9.63322 0.0498862 9.66862 -0.00161231 9.83331 0.00214279C11.1916 0.0337929 12.4656 0.375507 13.6523 1.03158C15.3372 1.96391 16.5614 3.32112 17.329 5.08548C17.7555 6.06663 17.9685 7.09714 17.9964 8.16681C18.0001 8.30789 17.9765 8.37602 17.8145 8.35885C17.6622 8.34276 17.5071 8.35563 17.3532 8.35563H17.3526Z" fill="#F80000"/>
<path d="M14.1436 8.35583C14.0701 8.35583 13.9966 8.35583 13.9226 8.35583C13.6376 8.35583 13.4836 8.21599 13.4607 7.93633C13.3266 6.29749 11.9523 4.82067 10.3429 4.57712C10.145 4.54708 9.94758 4.51597 9.74802 4.50577C9.65468 4.50095 9.63912 4.46179 9.64019 4.38239C9.64288 4.03478 9.64717 3.68663 9.63858 3.33901C9.63483 3.19524 9.72173 3.21563 9.80703 3.21831C10.7565 3.24406 11.632 3.51765 12.4243 4.03639C13.6195 4.81906 14.3722 5.91501 14.6774 7.31191C14.7428 7.61124 14.782 7.91541 14.7825 8.22386C14.7825 8.33008 14.7509 8.36387 14.6457 8.35904C14.4789 8.351 14.3115 8.3569 14.1442 8.3569L14.1436 8.35583Z" fill="#F80000"/>
</svg>
