<svg width="16" height="16" viewBox="0 0 16 16" fill="none" xmlns="http://www.w3.org/2000/svg">
<path d="M12.1668 15.9942C11.4525 15.9213 10.7659 15.7348 10.0964 15.4773C8.40217 14.826 6.9192 13.8332 5.54448 12.6635C4.13113 11.4614 2.91328 10.0867 1.89285 8.53789C1.18141 7.45785 0.60348 6.31296 0.244897 5.0646C0.139039 4.69553 0.0641757 4.32025 0.00838559 3.94117C-0.0173637 3.76664 0.016015 3.60404 0.110906 3.44812C0.601572 2.64226 1.20477 1.92414 1.828 1.22128C2.1513 0.856024 2.48604 0.501256 2.8718 0.199894C3.23706 -0.085255 3.4359 -0.0709499 3.73869 0.279049C4.09394 0.68913 4.36955 1.15691 4.65708 1.61467C5.07718 2.28368 5.4863 2.95936 5.81628 3.67891C5.85299 3.75949 5.87826 3.8458 5.91736 3.92495C6.05326 4.19961 5.97745 4.42516 5.76954 4.62877C5.48869 4.9039 5.17588 5.14185 4.88072 5.39982C4.40531 5.81514 4.3829 5.82182 4.60654 6.41214C5.54638 8.89313 7.27683 10.5716 9.77356 11.469C10.0563 11.5706 10.2528 11.5396 10.4387 11.294C10.6462 11.0198 10.886 10.7704 11.112 10.5101C11.1626 10.4519 11.2117 10.3918 11.2656 10.3365C11.6623 9.93169 11.7539 9.94551 12.1978 10.1339C12.9822 10.4667 13.7032 10.9164 14.4227 11.3665C14.7846 11.5935 15.1366 11.8367 15.4899 12.077C15.5876 12.1437 15.6787 12.2219 15.7645 12.304C16.0516 12.5777 16.0716 12.7608 15.8323 13.0774C15.4751 13.5495 15.0374 13.9448 14.5944 14.3324C13.9635 14.8846 13.316 15.4168 12.5998 15.8569C12.4686 15.9375 12.3361 16.0233 12.1668 15.9942Z" fill="#888888"/>
<path d="M15.4245 7.42733C15.2876 7.42733 15.1498 7.41683 15.0144 7.43019C14.8747 7.44401 14.8523 7.38775 14.847 7.26139C14.8089 6.33346 14.6096 5.44272 14.1795 4.61541C13.2692 2.86446 11.8468 1.76201 9.93035 1.29995C9.53315 1.20411 9.12498 1.16167 8.71632 1.1507C8.60093 1.14737 8.56421 1.11685 8.56755 1.00002C8.57566 0.726794 8.57709 0.452612 8.56755 0.179383C8.56278 0.0444383 8.59425 -0.00133822 8.74064 0.00199965C9.948 0.0301331 11.0805 0.333879 12.1353 0.917052C13.633 1.7458 14.7211 2.9522 15.4035 4.52052C15.7826 5.39266 15.9719 6.30866 15.9967 7.25948C16 7.38489 15.979 7.44545 15.835 7.43019C15.6996 7.41588 15.5618 7.42733 15.425 7.42733H15.4245Z" fill="#888888"/>
<path d="M12.5719 7.42741C12.5066 7.42741 12.4413 7.42741 12.3755 7.42741C12.1221 7.42741 11.9852 7.30312 11.9649 7.05453C11.8457 5.59779 10.624 4.28505 9.19351 4.06857C9.01755 4.04186 8.84208 4.01421 8.66469 4.00515C8.58172 4.00085 8.5679 3.96605 8.56885 3.89547C8.57123 3.58648 8.57505 3.27701 8.56742 2.96802C8.56408 2.84023 8.64133 2.85835 8.71715 2.86073C9.56115 2.88362 10.3394 3.12681 11.0436 3.58791C12.106 4.28362 12.775 5.2578 13.0464 6.49949C13.1045 6.76556 13.1393 7.03593 13.1398 7.31011C13.1398 7.40453 13.1117 7.43457 13.0182 7.43027C12.8699 7.42312 12.7212 7.42837 12.5724 7.42837L12.5719 7.42741Z" fill="#888888"/>
</svg>
