<svg width="74" height="74" viewBox="0 0 74 74" fill="none" xmlns="http://www.w3.org/2000/svg">
<circle cx="37" cy="37" r="37" fill="#CBD3FF"/>
<path d="M55.3967 21.3572V27.5354C55.3967 28.0103 55.208 28.4658 54.8722 28.8016C54.5363 29.1375 54.0808 29.3261 53.6059 29.3261H47.3382C47.0786 29.3291 46.8215 29.2755 46.5847 29.1693C46.3478 29.063 46.1369 28.9064 45.9666 28.7106C45.7963 28.5147 45.6705 28.2841 45.5982 28.0348C45.5258 27.7855 45.5085 27.5234 45.5474 27.2668C45.6316 26.8323 45.8664 26.4416 46.2103 26.1631C46.5542 25.8847 46.9853 25.7365 47.4277 25.7446H49.4871C47.4013 23.4218 44.6858 21.7547 41.6705 20.946C38.6552 20.1373 35.4699 20.2217 32.5017 21.1889C29.5334 22.1562 26.91 23.9648 24.9501 26.3948C22.9903 28.8248 21.7783 31.7718 21.4616 34.8775C21.4171 35.3208 21.2089 35.7315 20.8778 36.0295C20.5466 36.3275 20.1163 36.4914 19.6708 36.4892C19.4198 36.4905 19.1713 36.4389 18.9415 36.338C18.7117 36.237 18.5057 36.0888 18.3368 35.9031C18.1679 35.7173 18.04 35.4981 17.9613 35.2598C17.8827 35.0214 17.855 34.7691 17.8801 34.5194C18.2562 30.7598 19.7056 27.1876 22.0555 24.2289C24.4054 21.2702 27.5567 19.0497 31.1335 17.8323C34.7104 16.6148 38.5619 16.4517 42.2289 17.3625C45.8959 18.2733 49.2235 20.2194 51.8151 22.9689V21.2677C51.8122 21.0081 51.8657 20.751 51.972 20.5142C52.0783 20.2773 52.2348 20.0664 52.4307 19.8961C52.6266 19.7257 52.8572 19.6 53.1065 19.5276C53.3558 19.4553 53.6179 19.438 53.8745 19.4769C54.3089 19.5611 54.6997 19.7958 54.9781 20.1398C55.2565 20.4837 55.4047 20.9148 55.3967 21.3572Z" fill="#4755A5"/>
<path d="M19.5814 51.6212V45.4431C19.5814 44.9681 19.77 44.5126 20.1059 44.1768C20.4417 43.841 20.8972 43.6523 21.3721 43.6523H27.6398C27.8994 43.6494 28.1565 43.7029 28.3934 43.8092C28.6302 43.9155 28.8411 44.072 29.0114 44.2679C29.1818 44.4638 29.3075 44.6944 29.3799 44.9437C29.4522 45.193 29.4695 45.455 29.4306 45.7117C29.3464 46.1461 29.1117 46.5369 28.7677 46.8153C28.4238 47.0937 27.9927 47.2419 27.5503 47.2338H25.4909C27.5767 49.5567 30.2922 51.2237 33.3075 52.0324C36.3228 52.8412 39.5081 52.7568 42.4764 51.7895C45.4446 50.8222 48.068 49.0137 50.0279 46.5836C51.9878 44.1536 53.1997 41.2067 53.5164 38.1009C53.561 37.6577 53.7691 37.2469 54.1003 36.9489C54.4314 36.6509 54.8617 36.487 55.3072 36.4892C55.5582 36.488 55.8067 36.5395 56.0365 36.6405C56.2663 36.7414 56.4724 36.8896 56.6412 37.0754C56.8101 37.2611 56.938 37.4803 57.0167 37.7187C57.0954 37.957 57.1231 38.2093 57.098 38.4591C56.7219 42.2187 55.2724 45.7908 52.9225 48.7495C50.5726 51.7082 47.4214 53.9287 43.8445 55.1462C40.2676 56.3636 36.4161 56.5267 32.7491 55.6159C29.0822 54.7052 25.7545 52.759 23.1629 50.0095V51.7107C23.1658 51.9703 23.1123 52.2274 23.006 52.4643C22.8997 52.7011 22.7432 52.912 22.5473 53.0823C22.3514 53.2527 22.1208 53.3784 21.8715 53.4508C21.6222 53.5232 21.3602 53.5405 21.1035 53.5015C20.6691 53.4173 20.2783 53.1826 19.9999 52.8387C19.7215 52.4947 19.5733 52.0636 19.5814 51.6212Z" fill="#4755A5"/>
<path d="M38.1165 34.6984C34.9827 34.0717 34.9827 33.5344 34.9827 33.0867C34.9827 32.6391 35.1617 32.5495 35.4304 32.2809C35.9243 32.0153 36.4821 31.8914 37.042 31.9227C38.0824 31.9137 39.105 32.1926 39.9968 32.7286C40.1781 32.8765 40.3894 32.9832 40.616 33.0412C40.8427 33.0993 41.0792 33.1073 41.3093 33.0646C41.5393 33.022 41.7573 32.9299 41.9482 32.7945C42.139 32.6592 42.2981 32.4839 42.4143 32.2809C42.5678 32.0978 42.681 31.8844 42.7465 31.6547C42.8121 31.4249 42.8285 31.184 42.7947 30.9474C42.7609 30.7109 42.6777 30.4842 42.5504 30.282C42.4232 30.0798 42.2548 29.9066 42.0562 29.7738C41.2048 29.2483 40.2639 28.8841 39.2805 28.6994V26.64C39.2805 26.165 39.0918 25.7096 38.756 25.3737C38.4202 25.0379 37.9647 24.8492 37.4897 24.8492C37.0148 24.8492 36.5593 25.0379 36.2235 25.3737C35.8876 25.7096 35.699 26.165 35.699 26.64V28.6098C33.0128 29.0575 31.222 30.8483 31.222 33.2658C31.222 35.6834 34.1768 37.6532 37.042 38.1904C39.9073 38.7277 39.9968 39.3544 39.9968 39.8021C39.9968 40.2498 39.0119 41.0557 37.7583 41.0557C36.44 41.0817 35.1498 40.6726 34.0873 39.8917C33.8883 39.7594 33.6649 39.6682 33.4302 39.6236C33.1954 39.579 32.9541 39.5818 32.7205 39.6318C32.4869 39.6819 32.2656 39.7782 32.0698 39.9151C31.8739 40.052 31.7075 40.2267 31.5802 40.4289C31.439 40.5968 31.3336 40.7918 31.2704 41.0019C31.2072 41.212 31.1876 41.4328 31.2128 41.6508C31.2379 41.8687 31.3073 42.0793 31.4167 42.2695C31.526 42.4597 31.6731 42.6255 31.8488 42.7569C33.001 43.5655 34.3144 44.1153 35.699 44.3686V46.3384C35.699 46.8134 35.8876 47.2689 36.2235 47.6047C36.5593 47.9405 37.0148 48.1292 37.4897 48.1292C37.9647 48.1292 38.4202 47.9405 38.756 47.6047C39.0918 47.2689 39.2805 46.8134 39.2805 46.3384V44.3686C40.2627 44.2237 41.1893 43.8222 41.9667 43.2046C42.5279 42.7925 42.9831 42.2528 43.2945 41.63C43.6059 41.0072 43.7645 40.3193 43.7574 39.623C43.7574 36.3101 40.7131 35.2357 38.1165 34.6984Z" fill="#4755A5"/>
</svg>
