<svg width="84" height="84" viewBox="0 0 84 84" fill="none" xmlns="http://www.w3.org/2000/svg">
<path fill-rule="evenodd" clip-rule="evenodd" d="M21.2988 18.1777H62.9155C64.5573 18.1777 65.8881 19.5086 65.8881 21.1504V62.7671C65.8881 64.4089 64.5573 65.7397 62.9155 65.7397H21.2988C19.6571 65.7397 18.3262 64.4089 18.3262 62.7671V21.1504C18.3262 19.5086 19.6571 18.1777 21.2988 18.1777ZM33.1895 33.0409H51.0252V50.8766H33.1895V33.0409Z" fill="url(#paint0_linear_136_2284)"/>
<path d="M29 3V12V3Z" fill="url(#paint1_linear_136_2284)"/>
<path d="M29 3V12" stroke="url(#paint2_linear_136_2284)" stroke-width="6" stroke-linecap="round" stroke-linejoin="round"/>
<path d="M29 72V81V72Z" fill="url(#paint3_linear_136_2284)"/>
<path d="M29 72V81" stroke="url(#paint4_linear_136_2284)" stroke-width="6" stroke-linecap="round" stroke-linejoin="round"/>
<path d="M42 3V12V3Z" fill="url(#paint5_linear_136_2284)"/>
<path d="M42 3V12" stroke="url(#paint6_linear_136_2284)" stroke-width="6" stroke-linecap="round" stroke-linejoin="round"/>
<path d="M42 72V81V72Z" fill="url(#paint7_linear_136_2284)"/>
<path d="M42 72V81" stroke="url(#paint8_linear_136_2284)" stroke-width="6" stroke-linecap="round" stroke-linejoin="round"/>
<path d="M55 3V12V3Z" fill="url(#paint9_linear_136_2284)"/>
<path d="M55 3V12" stroke="url(#paint10_linear_136_2284)" stroke-width="6" stroke-linecap="round" stroke-linejoin="round"/>
<path d="M55 72V81V72Z" fill="url(#paint11_linear_136_2284)"/>
<path d="M55 72V81" stroke="url(#paint12_linear_136_2284)" stroke-width="6" stroke-linecap="round" stroke-linejoin="round"/>
<path d="M3 29H12H3Z" fill="url(#paint13_linear_136_2284)"/>
<path d="M3 29H12" stroke="url(#paint14_linear_136_2284)" stroke-width="6" stroke-linecap="round" stroke-linejoin="round"/>
<path d="M72 29H81H72Z" fill="url(#paint15_linear_136_2284)"/>
<path d="M72 29H81" stroke="url(#paint16_linear_136_2284)" stroke-width="6" stroke-linecap="round" stroke-linejoin="round"/>
<path d="M3 42H12H3Z" fill="url(#paint17_linear_136_2284)"/>
<path d="M3 42H12" stroke="url(#paint18_linear_136_2284)" stroke-width="6" stroke-linecap="round" stroke-linejoin="round"/>
<path d="M72 42H81H72Z" fill="url(#paint19_linear_136_2284)"/>
<path d="M72 42H81" stroke="url(#paint20_linear_136_2284)" stroke-width="6" stroke-linecap="round" stroke-linejoin="round"/>
<path d="M3 55H12H3Z" fill="url(#paint21_linear_136_2284)"/>
<path d="M3 55H12" stroke="url(#paint22_linear_136_2284)" stroke-width="6" stroke-linecap="round" stroke-linejoin="round"/>
<path d="M72 55H81H72Z" fill="url(#paint23_linear_136_2284)"/>
<path d="M72 55H81" stroke="url(#paint24_linear_136_2284)" stroke-width="6" stroke-linecap="round" stroke-linejoin="round"/>
<defs>
<linearGradient id="paint0_linear_136_2284" x1="42.1072" y1="18.1777" x2="42.1072" y2="77.3253" gradientUnits="userSpaceOnUse">
<stop stop-color="#6E7ED7"/>
<stop offset="0.998276" stop-color="#6E7ED7" stop-opacity="0"/>
</linearGradient>
<linearGradient id="paint1_linear_136_2284" x1="29.5" y1="3" x2="29.5" y2="14.1923" gradientUnits="userSpaceOnUse">
<stop stop-color="#6E7ED7"/>
<stop offset="0.998276" stop-color="#6E7ED7" stop-opacity="0"/>
</linearGradient>
<linearGradient id="paint2_linear_136_2284" x1="29" y1="15.5" x2="29" y2="-3.5" gradientUnits="userSpaceOnUse">
<stop offset="0.152764" stop-color="#6E7ED7"/>
<stop offset="1" stop-color="#6E7ED7" stop-opacity="0"/>
</linearGradient>
<linearGradient id="paint3_linear_136_2284" x1="29.5" y1="72" x2="29.5" y2="83.1923" gradientUnits="userSpaceOnUse">
<stop stop-color="#6E7ED7"/>
<stop offset="0.998276" stop-color="#6E7ED7" stop-opacity="0"/>
</linearGradient>
<linearGradient id="paint4_linear_136_2284" x1="29" y1="68.5" x2="29" y2="88.5" gradientUnits="userSpaceOnUse">
<stop offset="0.218225" stop-color="#6E7ED7"/>
<stop offset="1" stop-color="#6E7ED7" stop-opacity="0"/>
</linearGradient>
<linearGradient id="paint5_linear_136_2284" x1="42.5" y1="3" x2="42.5" y2="14.1923" gradientUnits="userSpaceOnUse">
<stop stop-color="#6E7ED7"/>
<stop offset="0.998276" stop-color="#6E7ED7" stop-opacity="0"/>
</linearGradient>
<linearGradient id="paint6_linear_136_2284" x1="42" y1="14.5" x2="41.861" y2="-3.49893" gradientUnits="userSpaceOnUse">
<stop offset="0.105695" stop-color="#6E7ED7"/>
<stop offset="1" stop-color="#6E7ED7" stop-opacity="0"/>
</linearGradient>
<linearGradient id="paint7_linear_136_2284" x1="42.5" y1="72" x2="42.5" y2="83.1923" gradientUnits="userSpaceOnUse">
<stop stop-color="#6E7ED7"/>
<stop offset="0.998276" stop-color="#6E7ED7" stop-opacity="0"/>
</linearGradient>
<linearGradient id="paint8_linear_136_2284" x1="42" y1="69" x2="43.5249" y2="89.8887" gradientUnits="userSpaceOnUse">
<stop offset="0.214393" stop-color="#6E7ED7"/>
<stop offset="1" stop-color="#6E7ED7" stop-opacity="0"/>
</linearGradient>
<linearGradient id="paint9_linear_136_2284" x1="55.5" y1="3" x2="55.5" y2="14.1923" gradientUnits="userSpaceOnUse">
<stop stop-color="#6E7ED7"/>
<stop offset="0.998276" stop-color="#6E7ED7" stop-opacity="0"/>
</linearGradient>
<linearGradient id="paint10_linear_136_2284" x1="55" y1="16" x2="55" y2="-3" gradientUnits="userSpaceOnUse">
<stop offset="0.17908" stop-color="#6E7ED7"/>
<stop offset="1" stop-color="#6E7ED7" stop-opacity="0"/>
</linearGradient>
<linearGradient id="paint11_linear_136_2284" x1="55.5" y1="72" x2="55.5" y2="83.1923" gradientUnits="userSpaceOnUse">
<stop stop-color="#6E7ED7"/>
<stop offset="0.998276" stop-color="#6E7ED7" stop-opacity="0"/>
</linearGradient>
<linearGradient id="paint12_linear_136_2284" x1="55" y1="68.5" x2="55" y2="88.5" gradientUnits="userSpaceOnUse">
<stop offset="0.19431" stop-color="#6E7ED7"/>
<stop offset="1" stop-color="#6E7ED7" stop-opacity="0"/>
</linearGradient>
<linearGradient id="paint13_linear_136_2284" x1="7.5" y1="29" x2="7.5" y2="30.2436" gradientUnits="userSpaceOnUse">
<stop stop-color="#6E7ED7"/>
<stop offset="0.998276" stop-color="#6E7ED7" stop-opacity="0"/>
</linearGradient>
<linearGradient id="paint14_linear_136_2284" x1="14.5" y1="29" x2="-2.5" y2="29" gradientUnits="userSpaceOnUse">
<stop offset="0.2234" stop-color="#6E7ED7"/>
<stop offset="1" stop-color="#6E7ED7" stop-opacity="0"/>
</linearGradient>
<linearGradient id="paint15_linear_136_2284" x1="76.5" y1="29" x2="76.5" y2="30.2436" gradientUnits="userSpaceOnUse">
<stop stop-color="#6E7ED7"/>
<stop offset="0.998276" stop-color="#6E7ED7" stop-opacity="0"/>
</linearGradient>
<linearGradient id="paint16_linear_136_2284" x1="69" y1="29" x2="89" y2="29" gradientUnits="userSpaceOnUse">
<stop offset="0.159904" stop-color="#6E7ED7"/>
<stop offset="1" stop-color="#6E7ED7" stop-opacity="0"/>
</linearGradient>
<linearGradient id="paint17_linear_136_2284" x1="7.5" y1="42" x2="7.5" y2="43.2436" gradientUnits="userSpaceOnUse">
<stop stop-color="#6E7ED7"/>
<stop offset="0.998276" stop-color="#6E7ED7" stop-opacity="0"/>
</linearGradient>
<linearGradient id="paint18_linear_136_2284" x1="15.5" y1="42" x2="-2.5" y2="42" gradientUnits="userSpaceOnUse">
<stop offset="0.189417" stop-color="#6E7ED7"/>
<stop offset="1" stop-color="#6E7ED7" stop-opacity="0"/>
</linearGradient>
<linearGradient id="paint19_linear_136_2284" x1="76.5" y1="42" x2="76.5" y2="43.2436" gradientUnits="userSpaceOnUse">
<stop stop-color="#6E7ED7"/>
<stop offset="0.998276" stop-color="#6E7ED7" stop-opacity="0"/>
</linearGradient>
<linearGradient id="paint20_linear_136_2284" x1="67" y1="42" x2="90" y2="42" gradientUnits="userSpaceOnUse">
<stop offset="0.115091" stop-color="#6E7ED7"/>
<stop offset="1" stop-color="#6E7ED7" stop-opacity="0"/>
</linearGradient>
<linearGradient id="paint21_linear_136_2284" x1="7.5" y1="55" x2="7.5" y2="56.2436" gradientUnits="userSpaceOnUse">
<stop stop-color="#6E7ED7"/>
<stop offset="0.998276" stop-color="#6E7ED7" stop-opacity="0"/>
</linearGradient>
<linearGradient id="paint22_linear_136_2284" x1="17" y1="55" x2="-3.5" y2="55" gradientUnits="userSpaceOnUse">
<stop offset="0.138382" stop-color="#6E7ED7"/>
<stop offset="1" stop-color="#6E7ED7" stop-opacity="0"/>
</linearGradient>
<linearGradient id="paint23_linear_136_2284" x1="76.5" y1="55" x2="76.5" y2="56.2436" gradientUnits="userSpaceOnUse">
<stop stop-color="#6E7ED7"/>
<stop offset="0.998276" stop-color="#6E7ED7" stop-opacity="0"/>
</linearGradient>
<linearGradient id="paint24_linear_136_2284" x1="61.5" y1="55" x2="107" y2="55" gradientUnits="userSpaceOnUse">
<stop stop-color="#6E7ED7"/>
<stop offset="1" stop-color="#6E7ED7" stop-opacity="0"/>
</linearGradient>
</defs>
</svg>
