<svg width="82" height="46" viewBox="0 0 82 46" fill="none" xmlns="http://www.w3.org/2000/svg">
<path d="M41.4116 4.02168C42.7567 4.03367 43.6743 4.59449 44.2539 5.77605C45.78 8.88933 47.3521 11.9787 48.8734 15.0943C49.1294 15.6168 49.4457 15.8205 50.0253 15.8972C53.4809 16.3574 56.9316 16.8655 60.3824 17.364C61.6429 17.5461 62.5823 18.1621 62.9928 19.406C63.4057 20.6618 62.9542 21.678 62.0438 22.5576C59.5372 24.9734 57.0451 27.4061 54.5265 29.8075C54.1401 30.1766 54.0121 30.4978 54.1111 31.0442C54.7269 34.4187 55.2799 37.8052 55.8764 41.1846C56.1009 42.4548 55.9295 43.586 54.8404 44.4033C53.7248 45.2397 52.5584 45.1319 51.3679 44.5039C48.3132 42.8934 45.2391 41.3212 42.1965 39.6914C41.6724 39.411 41.303 39.4422 40.8031 39.7082C37.6735 41.3667 34.5343 43.0084 31.3805 44.619C29.5259 45.5657 27.3623 44.607 27.1039 42.6873C26.9952 41.882 27.1739 41.024 27.3091 40.2043C27.8138 37.1438 28.3354 34.0832 28.9005 31.0346C29.0019 30.4834 28.8643 30.1646 28.4803 29.7979C26.0051 27.4348 23.5638 25.0357 21.0886 22.675C20.0961 21.7283 19.5504 20.669 20.0454 19.3101C20.5356 17.9655 21.6464 17.4886 22.9939 17.3089C26.4205 16.8535 29.8423 16.3646 33.2592 15.8325C33.5804 15.7822 33.9475 15.3939 34.1117 15.0704C35.6861 11.981 37.2364 8.87975 38.7602 5.76646C39.3204 4.61846 40.2091 4.06243 41.4189 4.01929L41.4116 4.02168Z" fill="url(#paint0_linear_135_2251)"/>
<path d="M22.3007 32.2761C21.8781 32.058 21.1561 31.7129 20.4679 31.315C19.9801 31.0322 19.5816 31.0274 19.0649 31.303C16.6066 32.6212 14.1145 33.8795 11.649 35.1881C10.4875 35.804 9.33801 35.9214 8.25376 35.1329C7.21056 34.3756 6.90871 33.3115 7.14536 32.0364C7.63557 29.3977 8.03401 26.7422 8.54112 24.1058C8.69326 23.3125 8.54112 22.7853 7.93984 22.2268C5.96211 20.3886 4.05441 18.476 2.10082 16.6114C1.14939 15.7031 0.729211 14.6581 1.17595 13.3807C1.62511 12.0985 2.63208 11.5736 3.92401 11.3962C6.72277 11.008 9.51671 10.5982 12.3058 10.1452C12.6366 10.0925 13.0399 9.77849 13.1969 9.47651C14.4671 7.00793 15.7083 4.52258 16.9157 2.02284C17.5001 0.812521 18.3597 0.00723779 19.7434 4.7757e-05C21.1295 -0.00714227 21.9916 0.798141 22.576 2.00607C23.7448 4.42671 24.9739 6.81859 26.1499 9.23684C26.4276 9.80965 26.7271 10.2075 27.4539 10.2219C28.0745 10.2339 28.6903 10.4064 29.3085 10.6389C26.8261 11.0008 24.3461 11.3675 21.8636 11.7198C18.2994 12.2279 15.7566 14.1045 14.6047 17.491C13.4601 20.8583 14.257 23.8925 16.7732 26.4737C18.6978 28.4486 20.5765 30.4642 22.3007 32.2761Z" fill="url(#paint1_linear_135_2251)"/>
<path d="M60.2567 32.2354C60.8821 31.6411 61.51 31.0515 62.1282 30.4523C63.5505 29.0742 65.0042 27.7249 66.3758 26.2989C68.851 23.7296 69.5296 20.6691 68.3487 17.3593C67.1751 14.0638 64.6637 12.228 61.1743 11.7247C58.6774 11.3628 56.1829 10.9937 53.6812 10.5239C54.3839 10.4065 55.1035 10.3442 55.7845 10.1501C56.1274 10.0518 56.5306 9.78338 56.6852 9.4814C57.9723 6.98645 59.2352 4.47713 60.4523 1.94624C61.0222 0.759888 61.9374 0.141546 63.2124 0.129562C64.5285 0.117579 65.4727 0.747905 66.0571 1.96062C67.2476 4.43639 68.4984 6.88579 69.7034 9.35437C69.9401 9.8409 70.1936 10.1165 70.807 10.1956C73.5792 10.5527 76.3369 11.0033 79.1043 11.3939C80.3962 11.5761 81.3935 12.1225 81.8306 13.4095C82.2677 14.6966 81.8161 15.7319 80.8719 16.6355C78.899 18.5241 76.9648 20.4534 74.9677 22.3156C74.4051 22.8405 74.3205 23.351 74.4485 24.0532C74.9484 26.783 75.3927 29.52 75.8733 32.2522C76.0882 33.4697 75.6897 34.4596 74.7093 35.157C73.7555 35.8353 72.6905 35.8688 71.6353 35.3224C69.1046 34.0114 66.5642 32.7148 64.0552 31.3607C63.4515 31.0347 62.9878 31.0227 62.4131 31.3822C61.7853 31.7753 61.097 32.0725 60.4354 32.4128C60.375 32.3529 60.3146 32.293 60.2519 32.233L60.2567 32.2354Z" fill="url(#paint2_linear_135_2251)"/>
<defs>
<linearGradient id="paint0_linear_135_2251" x1="42.039" y1="2.19791" x2="36.6348" y2="63.3571" gradientUnits="userSpaceOnUse">
<stop stop-color="#6E7ED7"/>
<stop offset="1" stop-color="#6E7ED7" stop-opacity="0"/>
</linearGradient>
<linearGradient id="paint1_linear_135_2251" x1="15.5031" y1="-1.58601" x2="9.27514" y2="51.3531" gradientUnits="userSpaceOnUse">
<stop stop-color="#6E7ED7"/>
<stop offset="1" stop-color="#6E7ED7" stop-opacity="0"/>
</linearGradient>
<linearGradient id="paint2_linear_135_2251" x1="68.1901" y1="-1.45151" x2="62.0028" y2="51.3221" gradientUnits="userSpaceOnUse">
<stop stop-color="#6E7ED7"/>
<stop offset="1" stop-color="#6E7ED7" stop-opacity="0"/>
</linearGradient>
</defs>
</svg>
