<svg width="18" height="16" viewBox="0 0 18 16" fill="none" xmlns="http://www.w3.org/2000/svg">
<g opacity="0.5">
<path d="M4.6114 15.3556C6.74763 15.5416 7.83974 14.0835 8.08577 12.1693C8.50581 8.86294 7.89375 5.7066 6.14757 2.8323C4.89943 0.786083 2.93123 0.0180019 0.60298 0C0.272944 0 0.176934 0.126013 0.0869246 0.438046C-0.0990953 1.09812 0.0629215 1.72818 0.122928 2.37025C0.152931 2.67028 0.404959 2.74229 0.656985 2.74829C2.91322 2.8083 4.17936 4.86051 4.05935 7.05074C4.02334 7.70481 3.6153 8.20887 3.00323 8.25087C0.398958 8.42489 0.13493 10.4891 0.500969 12.2893C0.963017 14.5575 2.09114 15.3496 4.5994 15.3556H4.6114Z" fill="#9BA8F1"/>
<path d="M14.3983 15.3556C16.5345 15.5416 17.6266 14.0835 17.8726 12.1693C18.2927 8.86294 17.6806 5.7066 15.9344 2.8323C14.6863 0.786083 12.7241 0.0180019 10.3958 0C10.0658 0 9.9698 0.126013 9.87979 0.438046C9.69377 1.09812 9.85579 1.72818 9.9158 2.37025C9.9458 2.67028 10.1978 2.74229 10.4499 2.74829C12.7061 2.8083 13.9722 4.86051 13.8522 7.05074C13.8162 7.70481 13.4082 8.20887 12.7961 8.25087C10.1918 8.42489 9.9278 10.4891 10.2938 12.2893C10.7559 14.5575 11.884 15.3496 14.3923 15.3556H14.3983Z" fill="#9BA8F1"/>
</g>
</svg>
