<svg width="426" height="53" viewBox="0 0 426 53" fill="none" xmlns="http://www.w3.org/2000/svg">
<path fill-rule="evenodd" clip-rule="evenodd" d="M28.0712 22.9416C28.6153 21.7597 26.8708 20.9829 24.0488 19.7271C20.8786 18.3164 16.351 16.3009 12.1838 12.4269C9.18647 9.65075 6.81736 6.55789 4.97418 4.15219C2.991 1.56397 1.61775 -0.228889 0.727817 0.0236962C0.50868 0.121168 0.338225 0.425767 0.216482 1.0106C-1.91523 11.2652 12.252 20.2663 18.3196 24.1213C19.7708 25.0435 20.7581 25.6712 20.9492 25.9511C21.7454 27.1192 15.2371 23.7589 10.0813 21.097C6.95494 19.483 4.32651 18.1256 4.12442 18.1899C1.26348 19.1037 14.1438 29.85 20.2553 31.3242C22.2762 31.8115 8.71411 29.789 8.25149 29.6428C6.21839 29.0214 13.2673 34.6016 22.2032 38.1715C24.5796 39.1201 25.7179 41.0148 26.3875 42.1294C26.8196 42.8475 27.0558 43.2418 27.3042 42.8502C27.4843 42.5662 27.3236 41.5036 27.0863 39.938C26.4909 35.9978 25.4135 28.8707 28.0712 22.9416ZM71.9288 22.9416C71.3834 21.7597 73.1292 20.9829 75.9512 19.7271C79.1202 18.3164 83.649 16.3009 87.8162 12.4269C90.8123 9.65075 93.1826 6.55788 95.0258 4.15218C97.009 1.56395 98.3823 -0.228889 99.2722 0.0236962C99.4913 0.121168 99.6618 0.425767 99.7835 1.0106C101.915 11.2652 87.7481 20.2663 81.6804 24.1213C80.2293 25.0435 79.2407 25.6712 79.0508 25.9511C78.2546 27.1192 84.7629 23.759 89.9187 21.097C93.0439 19.483 95.6735 18.1256 95.8756 18.1899C98.7365 19.1037 85.8562 29.85 79.7447 31.3242C77.7238 31.8115 91.2859 29.789 91.7485 29.6428C93.7816 29.0214 86.7327 34.6016 77.7968 38.1715C75.4204 39.1201 74.2821 41.0148 73.6113 42.1294C73.1804 42.8475 72.9442 43.2418 72.6958 42.8502C72.5157 42.5662 72.6764 41.5036 72.9125 39.938C73.5079 35.9978 74.5853 28.8707 71.9288 22.9416ZM70.6104 32.2873C70.6104 43.7266 61.3446 53 49.9142 53C38.4838 53 29.218 43.7266 29.218 32.2873C29.218 20.8479 38.4838 11.5746 49.9142 11.5746C61.3446 11.5746 70.6104 20.8479 70.6104 32.2873ZM48.8453 21.6265H48.9001H50.9283H50.9831C52.8397 21.6265 54.3066 21.6265 55.4729 21.753C56.6684 21.8826 57.657 22.1537 58.5055 22.7706C59.0132 23.1401 59.46 23.5872 59.8289 24.0958C59.992 24.3195 60.132 24.555 60.2513 24.8048C60.6397 25.61 60.8089 26.5371 60.8917 27.6248C60.972 28.7025 60.972 30.023 60.972 31.643V31.6782V31.7327C60.972 33.5901 60.972 35.0587 60.8454 36.2266C60.7164 37.423 60.4461 38.4117 59.8289 39.2607C59.46 39.7692 59.0132 40.2164 58.5055 40.5859C57.657 41.2028 56.6684 41.4739 55.4729 41.6035C54.3066 41.73 52.8397 41.73 50.9831 41.73H50.9283H48.9001H48.8453C46.9887 41.73 45.5217 41.73 44.3554 41.6035C43.1599 41.4739 42.1714 41.2028 41.3228 40.5859C40.8151 40.2164 40.3684 39.7692 39.9995 39.2607C39.3822 38.4117 39.112 37.423 38.9829 36.2266C38.8563 35.0587 38.8563 33.5901 38.8563 31.7326V31.6782V31.644C38.8563 30.035 38.8563 28.7213 38.9354 27.6479C39.0158 26.5652 39.1814 25.6416 39.56 24.8389C39.6842 24.5766 39.829 24.3297 39.9995 24.0958C40.3684 23.5872 40.8151 23.1401 41.3228 22.7706C42.1714 22.1537 43.1599 21.8826 44.3554 21.753C45.5217 21.6265 46.9887 21.6265 48.8453 21.6265ZM44.5514 23.5699C43.5117 23.6828 42.8823 23.8964 42.3966 24.2491C42.0788 24.4803 41.7952 24.7553 41.5541 25.0658L43.3863 26.8986C45.0956 28.6091 46.313 29.8255 47.3612 30.6258C48.3887 31.4098 49.1435 31.7076 49.9142 31.7076C50.6848 31.7076 51.4396 31.4098 52.4671 30.6258C53.5153 29.8255 54.7327 28.6091 56.442 26.8986L58.2742 25.0658C58.0332 24.7553 57.7495 24.4803 57.4318 24.2491C56.946 23.8964 56.3166 23.6828 55.2769 23.5699C54.2202 23.4553 52.8506 23.4541 50.9283 23.4541H48.9001C46.9778 23.4541 45.6082 23.4553 44.5514 23.5699ZM58.9815 26.942L57.7337 28.1909L57.685 28.2397C56.0354 29.8905 54.7315 31.1954 53.575 32.0787C52.3856 32.9869 51.2448 33.5352 49.9142 33.5352C48.5835 33.5352 47.4428 32.9869 46.2534 32.0787C45.0968 31.1954 43.793 29.8906 42.1434 28.2397L42.0947 28.1909L40.8468 26.942C40.8091 27.1934 40.7798 27.4721 40.7567 27.7833C40.6824 28.7813 40.6825 30.0277 40.6825 31.6782C40.6825 33.6022 40.6837 34.9718 40.7981 36.0297C40.9101 37.0706 41.1244 37.7009 41.4762 38.1864C41.7331 38.5399 42.0435 38.8506 42.3966 39.1074C42.8823 39.4601 43.5117 39.6737 44.5514 39.7865C45.6082 39.9012 46.9778 39.9024 48.9001 39.9024H50.9283C52.8506 39.9024 54.2202 39.9012 55.2769 39.7865C56.3166 39.6737 56.946 39.4601 57.4318 39.1074C57.7848 38.8506 58.0953 38.5399 58.3521 38.1864C58.704 37.7009 58.9183 37.0706 59.0303 36.0297C59.1447 34.9718 59.1459 33.6022 59.1459 31.6782C59.1459 30.0159 59.1459 28.7635 59.0704 27.7624C59.0473 27.4597 59.0181 27.1878 58.9815 26.942Z" fill="#EE1C24"/>
<path d="M126 20.16C123.6 20.16 121.787 20.6933 120.56 21.76C119.333 22.8267 118.72 24.4 118.72 26.48V28.88H130.92V33.28H118.72V44H113.52V26.48C113.52 23.0933 114.6 20.44 116.76 18.52C118.947 16.5733 121.947 15.6 125.76 15.6C127.36 15.6 128.853 15.7733 130.24 16.12C131.627 16.4667 132.84 16.9733 133.88 17.64L132.24 21.88C130.587 20.7333 128.507 20.16 126 20.16ZM158.923 22.64V44H154.163V41.24C153.336 42.2533 152.31 43.0133 151.083 43.52C149.883 44.0267 148.55 44.28 147.083 44.28C145.003 44.28 143.136 43.8267 141.483 42.92C139.856 42.0133 138.576 40.7333 137.643 39.08C136.736 37.4267 136.283 35.5067 136.283 33.32C136.283 31.1333 136.736 29.2267 137.643 27.6C138.576 25.9467 139.856 24.6667 141.483 23.76C143.136 22.8533 145.003 22.4 147.083 22.4C148.47 22.4 149.736 22.64 150.883 23.12C152.056 23.6 153.07 24.3067 153.923 25.24V22.64H158.923ZM147.643 40C149.483 40 151.003 39.3867 152.203 38.16C153.403 36.9333 154.003 35.32 154.003 33.32C154.003 31.32 153.403 29.7067 152.203 28.48C151.003 27.2533 149.483 26.64 147.643 26.64C145.803 26.64 144.283 27.2533 143.083 28.48C141.91 29.7067 141.323 31.32 141.323 33.32C141.323 35.32 141.91 36.9333 143.083 38.16C144.283 39.3867 145.803 40 147.643 40ZM171.785 25.76C173.225 23.52 175.758 22.4 179.385 22.4V27.16C178.958 27.08 178.572 27.04 178.225 27.04C176.278 27.04 174.758 27.6133 173.665 28.76C172.572 29.88 172.025 31.5067 172.025 33.64V44H167.025V22.64H171.785V25.76ZM205.871 22.64V44H201.111V41.24C200.285 42.2533 199.258 43.0133 198.031 43.52C196.831 44.0267 195.498 44.28 194.031 44.28C191.951 44.28 190.085 43.8267 188.431 42.92C186.805 42.0133 185.525 40.7333 184.591 39.08C183.685 37.4267 183.231 35.5067 183.231 33.32C183.231 31.1333 183.685 29.2267 184.591 27.6C185.525 25.9467 186.805 24.6667 188.431 23.76C190.085 22.8533 191.951 22.4 194.031 22.4C195.418 22.4 196.685 22.64 197.831 23.12C199.005 23.6 200.018 24.3067 200.871 25.24V22.64H205.871ZM194.591 40C196.431 40 197.951 39.3867 199.151 38.16C200.351 36.9333 200.951 35.32 200.951 33.32C200.951 31.32 200.351 29.7067 199.151 28.48C197.951 27.2533 196.431 26.64 194.591 26.64C192.751 26.64 191.231 27.2533 190.031 28.48C188.858 29.7067 188.271 31.32 188.271 33.32C188.271 35.32 188.858 36.9333 190.031 38.16C191.231 39.3867 192.751 40 194.591 40ZM225.973 16C228.4 16 230.506 16.4 232.293 17.2C234.106 18 235.493 19.1467 236.453 20.64C237.413 22.1333 237.893 23.9067 237.893 25.96C237.893 27.9867 237.413 29.76 236.453 31.28C235.493 32.7733 234.106 33.92 232.293 34.72C230.506 35.52 228.4 35.92 225.973 35.92H219.653V44H214.453V16H225.973ZM225.733 31.52C228 31.52 229.72 31.04 230.893 30.08C232.066 29.12 232.653 27.7467 232.653 25.96C232.653 24.1733 232.066 22.8 230.893 21.84C229.72 20.88 228 20.4 225.733 20.4H219.653V31.52H225.733ZM264.968 22.64V44H260.208V41.24C259.381 42.2533 258.354 43.0133 257.128 43.52C255.928 44.0267 254.594 44.28 253.128 44.28C251.048 44.28 249.181 43.8267 247.528 42.92C245.901 42.0133 244.621 40.7333 243.688 39.08C242.781 37.4267 242.328 35.5067 242.328 33.32C242.328 31.1333 242.781 29.2267 243.688 27.6C244.621 25.9467 245.901 24.6667 247.528 23.76C249.181 22.8533 251.048 22.4 253.128 22.4C254.514 22.4 255.781 22.64 256.928 23.12C258.101 23.6 259.114 24.3067 259.968 25.24V22.64H264.968ZM253.688 40C255.528 40 257.048 39.3867 258.248 38.16C259.448 36.9333 260.048 35.32 260.048 33.32C260.048 31.32 259.448 29.7067 258.248 28.48C257.048 27.2533 255.528 26.64 253.688 26.64C251.848 26.64 250.328 27.2533 249.128 28.48C247.954 29.7067 247.368 31.32 247.368 33.32C247.368 35.32 247.954 36.9333 249.128 38.16C250.328 39.3867 251.848 40 253.688 40ZM293.75 22.64V40.76C293.75 48.28 290.056 52.04 282.67 52.04C280.723 52.04 278.856 51.7733 277.07 51.24C275.31 50.7333 273.856 49.9867 272.71 49L274.95 45.24C275.856 46.0133 276.963 46.6267 278.27 47.08C279.576 47.5333 280.95 47.76 282.39 47.76C284.576 47.76 286.176 47.2267 287.19 46.16C288.23 45.12 288.75 43.5067 288.75 41.32V40.32C287.95 41.2 286.976 41.88 285.83 42.36C284.683 42.8133 283.443 43.04 282.11 43.04C279.256 43.04 277.003 42.2533 275.35 40.68C273.723 39.1067 272.91 36.7467 272.91 33.6V22.64H277.91V32.96C277.91 34.8533 278.336 36.28 279.19 37.24C280.07 38.1733 281.31 38.64 282.91 38.64C284.696 38.64 286.11 38.0933 287.15 37C288.216 35.9067 288.75 34.32 288.75 32.24V22.64H293.75ZM322.736 22.64V44H317.976V41.24C317.15 42.2533 316.123 43.0133 314.896 43.52C313.696 44.0267 312.363 44.28 310.896 44.28C308.816 44.28 306.95 43.8267 305.296 42.92C303.67 42.0133 302.39 40.7333 301.456 39.08C300.55 37.4267 300.096 35.5067 300.096 33.32C300.096 31.1333 300.55 29.2267 301.456 27.6C302.39 25.9467 303.67 24.6667 305.296 23.76C306.95 22.8533 308.816 22.4 310.896 22.4C312.283 22.4 313.55 22.64 314.696 23.12C315.87 23.6 316.883 24.3067 317.736 25.24V22.64H322.736ZM311.456 40C313.296 40 314.816 39.3867 316.016 38.16C317.216 36.9333 317.816 35.32 317.816 33.32C317.816 31.32 317.216 29.7067 316.016 28.48C314.816 27.2533 313.296 26.64 311.456 26.64C309.616 26.64 308.096 27.2533 306.896 28.48C305.723 29.7067 305.136 31.32 305.136 33.32C305.136 35.32 305.723 36.9333 306.896 38.16C308.096 39.3867 309.616 40 311.456 40ZM357.798 22.4C360.491 22.4 362.625 23.1867 364.198 24.76C365.771 26.3067 366.558 28.64 366.558 31.76V44H361.558V32.4C361.558 30.5333 361.145 29.1333 360.318 28.2C359.491 27.24 358.305 26.76 356.758 26.76C355.078 26.76 353.731 27.32 352.718 28.44C351.705 29.5333 351.198 31.1067 351.198 33.16V44H346.198V32.4C346.198 30.5333 345.785 29.1333 344.958 28.2C344.131 27.24 342.945 26.76 341.398 26.76C339.691 26.76 338.331 27.3067 337.318 28.4C336.331 29.4933 335.838 31.08 335.838 33.16V44H330.838V22.64H335.598V25.36C336.398 24.4 337.398 23.6667 338.598 23.16C339.798 22.6533 341.131 22.4 342.598 22.4C344.198 22.4 345.611 22.7067 346.838 23.32C348.091 23.9067 349.078 24.7867 349.798 25.96C350.678 24.84 351.811 23.9733 353.198 23.36C354.585 22.72 356.118 22.4 357.798 22.4ZM395.583 22.64V44H390.823V41.24C389.996 42.2533 388.969 43.0133 387.743 43.52C386.543 44.0267 385.209 44.28 383.743 44.28C381.663 44.28 379.796 43.8267 378.143 42.92C376.516 42.0133 375.236 40.7333 374.303 39.08C373.396 37.4267 372.943 35.5067 372.943 33.32C372.943 31.1333 373.396 29.2267 374.303 27.6C375.236 25.9467 376.516 24.6667 378.143 23.76C379.796 22.8533 381.663 22.4 383.743 22.4C385.129 22.4 386.396 22.64 387.543 23.12C388.716 23.6 389.729 24.3067 390.583 25.24V22.64H395.583ZM384.303 40C386.143 40 387.663 39.3867 388.863 38.16C390.063 36.9333 390.663 35.32 390.663 33.32C390.663 31.32 390.063 29.7067 388.863 28.48C387.663 27.2533 386.143 26.64 384.303 26.64C382.463 26.64 380.943 27.2533 379.743 28.48C378.569 29.7067 377.983 31.32 377.983 33.32C377.983 35.32 378.569 36.9333 379.743 38.16C380.943 39.3867 382.463 40 384.303 40ZM412.405 34.84L408.685 38.36V44H403.685V14.32H408.685V32.24L419.045 22.64H425.045L416.125 31.6L425.885 44H419.805L412.405 34.84Z" fill="black"/>
</svg>
