<svg width="22" height="22" viewBox="0 0 22 22" fill="none" xmlns="http://www.w3.org/2000/svg">
<path d="M21.0675 20.3769C21.0675 20.9479 20.8108 21.202 20.2361 21.2038C19.2419 21.2074 18.2476 21.2065 17.2542 21.2029C16.738 21.2012 16.4839 20.9488 16.4839 20.43C16.4813 18.2104 16.4875 15.9899 16.4804 13.7702C16.4786 13.1983 16.4122 12.6299 16.221 12.0836C15.9518 11.316 15.4392 10.8095 14.6211 10.675C13.664 10.5182 12.8442 10.7661 12.2704 11.5922C11.8118 12.2536 11.6215 13.0159 11.6144 13.8039C11.594 15.9686 11.6091 18.1333 11.6108 20.2981C11.6117 21.0002 11.4081 21.2065 10.7113 21.2065C9.79405 21.2065 8.87769 21.2074 7.96132 21.2056C7.41239 21.2056 7.15032 20.9444 7.15032 20.3972C7.14944 16.2006 7.14944 12.0039 7.15032 7.80723C7.15121 7.25741 7.38937 7.01305 7.92679 7.01305C8.90956 7.01216 9.89233 7.01216 10.8751 7.01659C11.3789 7.01924 11.6064 7.22819 11.6347 7.72931C11.6516 8.03654 11.6374 8.34553 11.6374 8.71651C11.8809 8.44027 12.0703 8.19945 12.2864 7.98519C13.008 7.26803 13.9155 6.95107 14.8991 6.83774C15.7783 6.73681 16.6601 6.75806 17.5234 6.98826C19.1401 7.41943 20.106 8.50667 20.6018 10.0632C20.9498 11.1557 21.0401 12.2881 21.0542 13.4196C21.0835 15.7384 21.0675 18.0581 21.0675 20.3769Z" fill="white"/>
<path d="M5.12528 20.375C5.12528 20.9319 4.83576 21.2046 4.28329 21.2054C3.35542 21.2072 2.42754 21.2072 1.50056 21.2054C0.931262 21.2037 0.655911 20.9239 0.655911 20.3475C0.655026 18.2607 0.655911 16.173 0.655911 14.0861V7.89119C0.655911 7.25637 0.905587 6.99961 1.528 6.99961C2.44437 6.99873 3.36073 6.99784 4.27798 7.00493C4.87472 7.00935 5.12351 7.25106 5.12351 7.85223C5.12882 12.0268 5.12882 16.2004 5.12528 20.375Z" fill="white"/>
<path d="M5.76716 2.88455C5.77513 4.48885 4.51082 5.74431 2.90475 5.77441C1.52534 5.80009 0.0432202 4.72702 0.000722293 2.91465C-0.035578 1.3201 1.30134 0.00177486 2.89235 4.10847e-06C4.47894 -0.00265201 5.75919 1.28291 5.76716 2.88455Z" fill="white"/>
</svg>
