<svg width="77" height="61" viewBox="0 0 77 61" fill="none" xmlns="http://www.w3.org/2000/svg">
<path d="M0.382812 17.6684V42.432L9.26459 44.2008L18.1464 42.432V17.6684L9.26459 15.8996L0.382812 17.6684Z" fill="#1E88E5"/>
<path d="M60.3339 30.0679V54.8006C60.3339 57.7279 57.9653 60.1004 55.0429 60.1004H18.0059L16.2422 51.2673L18.0059 42.4342H42.6972V30.0679L51.5155 28.3013L60.3339 30.0679Z" fill="#4CAF50"/>
<path d="M60.3339 5.27492V29.8912H42.6972V17.5831H18.0059L16.2422 8.79153L18.0059 0H55.0429C57.9653 0 60.3339 2.36141 60.3339 5.27492Z" fill="#FBC02D"/>
<path d="M18.1464 42.2929V60.1004H5.71188C2.76846 60.1004 0.382812 57.7089 0.382812 54.7581V42.2929H18.1464Z" fill="#1565C0"/>
<path d="M18.1464 0V17.8075H0.382812L18.1464 0Z" fill="#E53935"/>
<path d="M62.2371 30.0502L60.4492 44.8368L42.5703 30.0502L60.4492 15.2636L62.2371 30.0502Z" fill="#2E7D32"/>
<path d="M76.1963 5.58465V54.5158C76.1963 55.9954 74.4692 56.8232 73.3238 55.8897L60.3359 44.9339V15.1666L73.3238 4.21077C74.4692 3.27724 76.1963 4.10509 76.1963 5.58465Z" fill="#4CAF50"/>
</svg>
