<svg width="18" height="17" viewBox="0 0 18 17" fill="none" xmlns="http://www.w3.org/2000/svg">
<path d="M16.8357 8.31938C16.8107 8.55398 16.6537 8.67464 16.3921 8.67195C16.1555 8.66925 16.0038 8.56948 15.9802 8.31871C15.8838 7.30956 15.7112 6.31793 15.3742 5.35529C14.7243 3.4981 13.4732 2.2375 11.6436 1.54316C10.7497 1.20408 9.82756 0.974208 8.87099 0.895337C8.41326 0.857586 8.24473 0.656025 8.37214 0.299418C8.45708 0.058758 8.65797 0.00145806 8.88245 0.000109829C9.74599 -0.00393487 10.5947 0.10325 11.407 0.402557C14.09 1.38946 15.8596 3.23385 16.6294 6.00649C16.7817 6.55522 16.8532 7.11339 16.8363 7.69178C16.8633 7.89536 16.8579 8.10771 16.8363 8.31938H16.8357Z" fill="white"/>
<path d="M14.7603 7.11203C14.7482 7.27382 14.7603 7.42347 14.7286 7.5738C14.6767 7.8212 14.5089 7.91086 14.2864 7.90883C14.0707 7.90748 13.9204 7.81176 13.89 7.56773C13.8118 6.92934 13.6804 6.30174 13.4775 5.68897C13.1141 4.58948 12.3874 3.852 11.3068 3.44551C10.6758 3.20822 10.0267 3.05182 9.36669 2.92509C9.05121 2.86442 8.93391 2.71611 8.96761 2.46534C9.00941 2.14851 9.16446 2.00087 9.48197 2.01908C11.9384 2.15997 14.0505 3.72864 14.6255 6.01996C14.7158 6.38128 14.7515 6.75137 14.7603 7.11203Z" fill="white"/>
<path d="M12.7936 6.59355C12.795 6.70141 12.7653 6.8032 12.7451 6.90769C12.6999 7.14633 12.5489 7.26632 12.3244 7.27845C12.0865 7.29059 11.9469 7.13689 11.8883 6.92252C11.8121 6.64276 11.7885 6.3502 11.6719 6.07988C11.3645 5.36801 10.7578 5.0869 10.052 4.94466C9.83493 4.90085 9.59899 4.86916 9.59562 4.56716C9.59292 4.30425 9.74594 4.13438 10.0547 4.07775C10.6297 3.97191 11.1191 4.20313 11.5627 4.52064C12.2024 4.97972 12.6426 5.58507 12.7754 6.38188C12.7869 6.45199 12.7876 6.52344 12.7936 6.59355Z" fill="white"/>
<path d="M16.6206 15.0716C16.0503 16.0012 15.2326 16.6342 14.1648 16.9356C13.6012 17.0953 13.0929 16.9315 12.6001 16.7239C9.56055 15.4397 6.85465 13.6614 4.58557 11.2487C2.70681 9.25062 1.26757 6.96604 0.26246 4.41856C-0.555917 2.34632 0.627832 0.772932 2.58951 0.268693C2.69063 0.243077 2.80118 0.252514 2.90702 0.245773C3.27913 0.24038 3.60069 0.365092 3.87573 0.613841C4.93341 1.57041 5.76527 2.69888 6.38816 3.97768C6.68747 4.59315 6.52837 5.11492 5.94189 5.58815C5.79022 5.71016 5.62775 5.8187 5.47608 5.94138C4.91656 6.39304 4.75747 6.91818 5.00824 7.59297C5.55023 9.05041 6.49399 10.1984 7.76673 11.0782C8.38624 11.5062 9.03137 11.8972 9.76885 12.09C10.2805 12.2235 10.7072 12.061 11.0362 11.641C11.2917 11.3141 11.5317 10.9737 11.9146 10.7694C12.5341 10.4391 13.1226 10.582 13.676 10.9042C14.6731 11.4853 15.606 12.1635 16.4709 12.9259C17.168 13.54 17.1626 14.1892 16.6206 15.0716Z" fill="white"/>
</svg>
