<svg width="271" height="59" viewBox="0 0 271 59" fill="none" xmlns="http://www.w3.org/2000/svg">
<path d="M79.553 35.7863V54.9678C79.553 55.4918 79.2868 55.7538 78.7543 55.7538H63.0719C62.438 55.7538 62.1211 55.4368 62.1211 54.803V1.56897C62.1203 1.40987 62.1794 1.25595 62.287 1.13666C62.3946 1.01737 62.5432 0.941085 62.7043 0.922404C70.7335 0.0941228 78.7163 -0.176336 86.6526 0.111027C99.9896 0.592782 112.541 3.28047 109.904 19.7109C108.965 25.606 105.466 29.2192 99.5332 29.5742C99.413 29.5882 99.3017 29.6447 99.2195 29.7335C99.1373 29.8224 99.0896 29.9377 99.085 30.0587C99.0804 30.1796 99.1193 30.2982 99.1945 30.393C99.2697 30.4879 99.3764 30.5527 99.4952 30.5757C105.035 31.3237 106.798 34.734 108.218 40.046C109.544 45.0326 110.85 50.0234 112.135 55.0185C112.262 55.5087 112.072 55.7538 111.564 55.7538H94.741C94.5709 55.7535 94.4061 55.6972 94.2728 55.5938C94.1395 55.4904 94.0454 55.3458 94.0057 55.1833L89.784 37.4217C89.4206 35.9088 88.4613 35.1524 86.9062 35.1524H80.1869C79.7643 35.1524 79.553 35.3637 79.553 35.7863ZM79.553 11.3942V23.5649C79.553 23.6365 79.5671 23.7074 79.5945 23.7735C79.6219 23.8397 79.6621 23.8998 79.7127 23.9504C79.7633 24.001 79.8234 24.0412 79.8896 24.0686C79.9557 24.096 80.0266 24.1101 80.0982 24.1101H87.3118C88.7778 24.1101 90.1838 23.5958 91.2204 22.6805C92.257 21.7651 92.8394 20.5236 92.8394 19.2291V15.73C92.8394 14.4355 92.257 13.1941 91.2204 12.2787C90.1838 11.3633 88.7778 10.8491 87.3118 10.8491H80.0982C80.0266 10.8491 79.9557 10.8632 79.8896 10.8906C79.8234 10.918 79.7633 10.9582 79.7127 11.0088C79.6621 11.0594 79.6219 11.1195 79.5945 11.1856C79.5671 11.2518 79.553 11.3227 79.553 11.3942Z" fill="#1E73B6"/>
<path d="M57.0246 53.4464C57.0246 54.7274 56.5158 55.956 55.6099 56.8619C54.7041 57.7677 53.4755 58.2766 52.1944 58.2766H4.83023C3.54918 58.2766 2.32059 57.7677 1.41474 56.8619C0.508898 55.956 0 54.7274 0 53.4464V6.08222C0 4.80116 0.508898 3.57257 1.41474 2.66673C2.32059 1.76088 3.54918 1.25198 4.83023 1.25198H52.1944C53.4755 1.25198 54.7041 1.76088 55.6099 2.66673C56.5158 3.57257 57.0246 4.80116 57.0246 6.08222V53.4464ZM24.0624 13.2071C24.0624 12.1379 23.6377 11.1125 22.8816 10.3564C22.1256 9.60034 21.1001 9.17559 20.0309 9.17559H19.2702C18.201 9.17559 17.1756 9.60034 16.4195 10.3564C15.6634 11.1125 15.2387 12.1379 15.2387 13.2071V37.4724C15.2387 38.5416 15.6634 39.5671 16.4195 40.3231C17.1756 41.0792 18.201 41.5039 19.2702 41.5039H20.0309C21.1001 41.5039 22.1256 41.0792 22.8816 40.3231C23.6377 39.5671 24.0624 38.5416 24.0624 37.4724V13.2071ZM41.8029 20.8441C41.802 20.3063 41.6951 19.774 41.4885 19.2776C41.2818 18.7811 40.9794 18.3302 40.5985 17.9507C40.2175 17.5711 39.7656 17.2702 39.2684 17.0653C38.7712 16.8604 38.2385 16.7554 37.7008 16.7564L37.0415 16.7575C35.9555 16.7595 34.9147 17.1927 34.1482 17.962C33.3816 18.7313 32.952 19.7735 32.9539 20.8596L32.9959 45.0234C32.9969 45.5612 33.1038 46.0935 33.3104 46.5899C33.5171 47.0864 33.8195 47.5373 34.2004 47.9168C34.5813 48.2964 35.0333 48.5972 35.5305 48.8022C36.0277 49.0071 36.5603 49.112 37.0981 49.1111L37.7573 49.11C38.8434 49.108 39.8841 48.6748 40.6507 47.9055C41.4173 47.1362 41.8469 46.094 41.845 45.0079L41.8029 20.8441Z" fill="#1E73B6"/>
<path d="M20.0295 9.17557H19.2688C17.0423 9.17557 15.2373 10.9805 15.2373 13.2071V37.4724C15.2373 39.6989 17.0423 41.5039 19.2688 41.5039H20.0295C22.2561 41.5039 24.061 39.6989 24.061 37.4724V13.2071C24.061 10.9805 22.2561 9.17557 20.0295 9.17557Z" fill="#1E73B6"/>
<path d="M210.168 21.4095C213.109 21.389 215.477 19.1531 215.458 16.4155C215.439 13.6779 213.04 11.4752 210.099 11.4958C207.158 11.5163 204.79 13.7522 204.809 16.4898C204.828 19.2274 207.228 21.4301 210.168 21.4095Z" fill="#1E73B6"/>
<path d="M233.272 32.2999V55.1199C233.272 55.5425 233.06 55.7538 232.638 55.7538H222.812C222.179 55.7538 221.862 55.4368 221.862 54.8029V32.4647C221.862 31.9322 221.595 31.666 221.063 31.666H218.058C217.424 31.666 217.107 31.3491 217.107 30.7152V26.5949C217.107 26.3427 217.208 26.1009 217.386 25.9225C217.564 25.7442 217.806 25.6441 218.058 25.6441H221C221.108 25.6436 221.213 25.6058 221.298 25.5368C221.383 25.4678 221.443 25.3716 221.469 25.2637L223.408 16.2752C223.462 16.0334 223.58 15.8105 223.749 15.6298C223.919 15.4491 224.134 15.3174 224.372 15.2483C229.544 13.71 234.797 13.4396 240.13 14.4369C240.722 14.5468 240.992 14.906 240.942 15.5145L240.485 20.7504C240.466 20.9534 240.373 21.1422 240.223 21.2803C240.073 21.4184 239.878 21.4962 239.674 21.4984L234.362 21.5872C233.669 21.5956 233.314 21.9464 233.297 22.6394L233.259 24.5157C233.25 25.0567 233.517 25.3271 234.058 25.3271H239.458C239.982 25.3271 240.244 25.5933 240.244 26.1258V30.7152C240.244 31.3491 239.927 31.666 239.294 31.666H233.905C233.483 31.666 233.272 31.8773 233.272 32.2999Z" fill="#1E73B6"/>
<path d="M193.969 32.2999V46.7272C193.969 47.8851 194.552 48.4641 195.718 48.4641H199.192C199.708 48.4641 199.987 48.7218 200.029 49.2374L200.536 55.1326C200.57 55.6059 200.354 55.9017 199.889 56.02C178.477 61.0785 182.888 45.5101 182.876 32.3126C182.876 31.8815 182.66 31.666 182.229 31.666H178.439C178.016 31.666 177.805 31.4547 177.805 31.0321V26.4428C177.805 26.2343 177.888 26.0344 178.035 25.887C178.182 25.7396 178.382 25.6567 178.591 25.6567L182.014 25.6187C182.244 25.6184 182.468 25.5464 182.656 25.4125C182.845 25.2787 182.988 25.0894 183.066 24.8707L185.64 17.5937C185.766 17.2387 186.016 17.0485 186.388 17.0232L193.31 16.4654C193.749 16.4316 193.969 16.6302 193.969 17.0612V24.6932C193.969 24.8614 194.036 25.0226 194.155 25.1415C194.273 25.2603 194.435 25.3271 194.603 25.3271H200.308C200.73 25.3271 200.942 25.5384 200.942 25.961V30.7152C200.942 31.3491 200.625 31.666 199.991 31.666H194.603C194.18 31.666 193.969 31.8773 193.969 32.2999Z" fill="#1E73B6"/>
<path d="M37.7004 16.7564L37.0412 16.7576C34.7796 16.7615 32.9495 18.5981 32.9534 20.8596L32.9956 45.0234C32.9996 47.285 34.8361 49.1151 37.0977 49.1112L37.7569 49.11C40.0185 49.1061 41.8486 47.2695 41.8447 45.008L41.8025 20.8442C41.7986 18.5826 39.962 16.7525 37.7004 16.7564Z" fill="#1E73B6"/>
<path d="M121.706 43.7987C122.556 50.3911 133.598 48.4007 138.226 48.0584C138.699 48.0246 138.974 48.2444 139.05 48.7177L139.848 53.8141C139.924 54.2959 139.734 54.6255 139.278 54.803C131.177 57.9344 114.429 59.2529 111.387 48.0331C109.891 42.5182 109.434 28.5473 116.356 25.9737C123.126 23.4509 136.197 22.1324 139.214 31.1463C140.398 34.6876 140.888 38.3092 140.685 42.0111C140.651 42.6281 140.326 42.9366 139.709 42.9366L122.277 43.1395C122.195 43.1385 122.114 43.1555 122.039 43.1893C121.965 43.2231 121.898 43.273 121.844 43.3355C121.79 43.398 121.75 43.4717 121.726 43.5516C121.702 43.6316 121.695 43.7158 121.706 43.7987ZM121.96 38.043L129.693 37.9923C129.818 37.9923 129.937 37.9429 130.025 37.8549C130.113 37.7669 130.162 37.6476 130.162 37.5232L130.15 35.5708C130.146 34.9724 130.042 34.3804 129.843 33.8289C129.645 33.2774 129.356 32.7771 128.993 32.3567C128.63 31.9363 128.201 31.6041 127.729 31.379C127.258 31.1539 126.753 31.0403 126.245 31.0449H125.307C124.283 31.0539 123.304 31.5409 122.587 32.399C121.869 33.257 121.47 34.416 121.478 35.6215L121.491 37.5739C121.491 37.6983 121.54 37.8176 121.628 37.9056C121.716 37.9936 121.836 38.043 121.96 38.043Z" fill="#1E73B6"/>
<path d="M162.517 33.8213L156.825 34.2396C156.233 34.2819 155.937 34.5989 155.937 35.1905V55.1199C155.937 55.5425 155.726 55.7538 155.303 55.7538H145.161C144.739 55.7538 144.527 55.5425 144.527 55.1199V26.1132C144.527 25.5892 144.794 25.3272 145.326 25.3272H153.085C153.541 25.3272 153.829 25.5469 153.947 25.9864L154.796 29.1559C154.819 29.2383 154.864 29.313 154.926 29.3719C154.988 29.4307 155.065 29.4715 155.148 29.4898C155.232 29.508 155.319 29.5031 155.4 29.4756C155.481 29.448 155.553 29.3988 155.608 29.3333C160.29 23.8988 165.991 22.686 172.71 25.6948C173.289 25.9528 173.783 26.3713 174.133 26.9012C174.484 27.4312 174.676 28.0506 174.688 28.6868L175.068 54.8917C175.077 55.4665 174.793 55.7538 174.219 55.7538H164.178C163.755 55.7538 163.544 55.5425 163.544 55.1199V34.7721C163.544 34.6406 163.518 34.5104 163.465 34.3898C163.413 34.2692 163.336 34.1607 163.239 34.0714C163.143 33.982 163.029 33.9137 162.904 33.8706C162.78 33.8276 162.648 33.8108 162.517 33.8213Z" fill="#1E73B6"/>
<path d="M259.945 37.2695L259.768 33.2C259.743 32.6422 259.451 32.3801 258.893 32.414L245.86 33.2887C245.548 33.3056 245.374 33.1619 245.341 32.8577L244.618 26.6075C244.591 26.3866 244.648 26.1639 244.778 25.9849C244.907 25.8059 245.1 25.684 245.315 25.644C254.507 23.8565 270.658 20.332 270.899 35.165C271 41.7237 271.026 48.2908 270.975 54.8663C270.967 55.4579 270.667 55.7537 270.075 55.7537H262.392C262.183 55.7549 261.981 55.678 261.825 55.5377C261.668 55.3973 261.568 55.2035 261.543 54.9931L261.365 53.1802C261.272 52.2927 260.93 52.1828 260.338 52.8505C251.756 62.473 237.29 53.6873 243.794 41.8589C245.594 38.5754 254.24 38.2204 259.299 37.9795C259.747 37.9541 259.962 37.7175 259.945 37.2695ZM259.947 44.9847C259.938 44.7568 259.884 44.5331 259.788 44.3262C259.691 44.1193 259.556 43.9334 259.388 43.779C259.22 43.6246 259.023 43.5048 258.809 43.4264C258.595 43.348 258.367 43.3126 258.139 43.3222L254.643 43.4686C254.415 43.4782 254.192 43.5325 253.985 43.6285C253.778 43.7246 253.592 43.8604 253.438 44.0283C253.283 44.1962 253.163 44.3929 253.085 44.6071C253.007 44.8213 252.971 45.0488 252.981 45.2767L253.072 47.4554C253.082 47.6833 253.136 47.907 253.232 48.1139C253.328 48.3208 253.464 48.5067 253.632 48.6611C253.8 48.8155 253.996 48.9353 254.211 49.0137C254.425 49.0921 254.652 49.1275 254.88 49.1179L258.376 48.9715C258.604 48.962 258.828 48.9076 259.035 48.8116C259.242 48.7155 259.428 48.5797 259.582 48.4118C259.736 48.2439 259.856 48.0472 259.934 47.833C260.013 47.6188 260.048 47.3913 260.039 47.1634L259.947 44.9847Z" fill="#1E73B6"/>
<path d="M214.864 25.3271H204.773C204.408 25.3271 204.113 25.6222 204.113 25.9863V55.0945C204.113 55.4586 204.408 55.7538 204.773 55.7538H214.864C215.228 55.7538 215.523 55.4586 215.523 55.0945V25.9863C215.523 25.6222 215.228 25.3271 214.864 25.3271Z" fill="#1E73B6"/>
<path d="M24.062 13.2071C24.062 12.1379 23.6373 11.1125 22.8812 10.3564C22.1251 9.60035 21.0997 9.1756 20.0305 9.1756H19.2698C18.2006 9.1756 17.1751 9.60035 16.4191 10.3564C15.663 11.1125 15.2383 12.1379 15.2383 13.2071V37.4724C15.2383 38.5416 15.663 39.5671 16.4191 40.3231C17.1751 41.0792 18.2006 41.5039 19.2698 41.5039H20.0305C21.0997 41.5039 22.1251 41.0792 22.8812 40.3231C23.6373 39.5671 24.062 38.5416 24.062 37.4724V13.2071Z" fill="white"/>
<path d="M41.8032 20.8441C41.8022 20.3063 41.6954 19.774 41.4887 19.2776C41.2821 18.7811 40.9796 18.3302 40.5987 17.9506C40.2178 17.5711 39.7658 17.2702 39.2687 17.0653C38.7715 16.8604 38.2388 16.7554 37.701 16.7564L37.0418 16.7575C35.9558 16.7594 34.915 17.1927 34.1484 17.962C33.3818 18.7312 32.9522 19.7735 32.9541 20.8595L32.9962 45.0234C32.9971 45.5611 33.104 46.0934 33.3107 46.5899C33.5173 47.0864 33.8198 47.5372 34.2007 47.9168C34.5816 48.2964 35.0336 48.5972 35.5307 48.8021C36.0279 49.0071 36.5606 49.112 37.0983 49.1111L37.7576 49.1099C38.8436 49.108 39.8844 48.6748 40.651 47.9055C41.4176 47.1362 41.8472 46.0939 41.8453 45.0079L41.8032 20.8441Z" fill="white"/>
</svg>
