<svg width="21" height="21" viewBox="0 0 21 21" fill="none" xmlns="http://www.w3.org/2000/svg">
<path d="M0.734619 18.2817C0.864479 17.873 1.1679 17.5958 1.459 17.3057C2.59759 16.1719 3.73187 15.0337 4.86799 13.8974C5.43051 13.3345 6.00165 13.2933 6.62264 13.7634C6.8005 13.576 6.97775 13.3891 7.17347 13.1827C7.13839 13.1384 7.07069 13.0499 7.00052 12.9639C6.06196 11.814 5.5019 10.505 5.34435 9.02577C5.15171 7.22019 5.55237 5.55228 6.56232 4.05029C7.65721 2.42294 9.17676 1.38064 11.0902 0.933859C11.4958 0.839216 11.9137 0.79927 12.326 0.734741C12.6313 0.734741 12.9359 0.734741 13.2412 0.734741C13.4849 0.770386 13.7299 0.798041 13.9717 0.842289C16.6539 1.33086 18.5427 2.84391 19.6616 5.3126C20.1459 6.3807 20.3349 7.52624 20.2426 8.69391C20.0487 11.1319 18.9446 13.0628 16.921 14.4511C15.9898 15.0896 14.9546 15.483 13.8413 15.6311C12.0226 15.8732 10.319 15.5235 8.76625 14.5261C8.42037 14.3042 8.09664 14.048 7.75876 13.8052C7.5889 13.9761 7.4098 14.1561 7.23132 14.3362C7.31379 14.4825 7.41842 14.6213 7.47504 14.7774C7.6449 15.2457 7.54581 15.6753 7.19993 16.0244C5.91179 17.3242 4.61996 18.6203 3.3152 19.9029C3.14719 20.0682 2.89485 20.1468 2.68129 20.2655H2.26217C2.04061 20.1376 1.79135 20.0411 1.60425 19.8752C1.25344 19.5642 0.894021 19.2477 0.737081 18.7782V18.2823L0.734619 18.2817ZM12.6153 1.53613C8.89181 1.62831 5.79239 4.7933 6.11058 8.80023C6.37461 12.1311 9.30231 15.196 13.3311 14.8819C16.7376 14.6164 19.4942 11.7636 19.4468 8.15064C19.3957 4.26846 16.2286 1.46484 12.6159 1.53613H12.6153ZM2.48742 19.5096C2.60805 19.4272 2.73422 19.3664 2.82838 19.2736C3.47953 18.6313 4.12391 17.9824 4.77075 17.3352C5.37266 16.733 5.97518 16.1325 6.57525 15.529C6.81897 15.2838 6.8165 15.0853 6.57648 14.8395C6.45647 14.7172 6.33399 14.5968 6.21275 14.4757C5.90071 14.1641 5.7247 14.1635 5.41328 14.4757C4.29069 15.5985 3.16811 16.7219 2.04553 17.8447C1.91505 17.975 1.78027 18.101 1.65718 18.2374C1.48239 18.4316 1.48178 18.6246 1.65903 18.8145C1.82766 18.9958 2.00183 19.1728 2.18524 19.3387C2.26094 19.4075 2.36618 19.4432 2.48742 19.5102V19.5096Z" fill="white"/>
<path d="M16.3959 4.61808C16.5879 4.43064 16.7682 4.25365 16.9486 4.07727C19.0423 6.04816 19.4288 9.88179 16.9738 12.3609C16.7928 12.1802 16.6119 11.9996 16.4174 11.806C17.3671 10.8239 17.8767 9.61384 17.8742 8.21326C17.8717 6.82005 17.3609 5.61674 16.3953 4.61808H16.3959Z" fill="white"/>
</svg>
