<svg width="101" height="73" viewBox="0 0 101 73" fill="none" xmlns="http://www.w3.org/2000/svg">
<path d="M95.3887 61.4612C93.9865 62.3238 92.4878 63.0739 90.9559 63.6753C80.6156 67.7359 70.007 70.8338 58.9791 72.3007C52.4173 73.1724 45.8194 73.5034 39.3541 71.6417C36.9838 70.9583 34.7162 69.8771 32.4394 68.8931C27.497 66.7549 22.5877 64.5439 17.6422 62.4118C16.8582 62.0747 16.6079 61.6647 16.6169 60.8204C16.6682 57.106 16.638 53.3946 16.638 49.6833C16.638 45.9719 16.6592 42.3334 16.623 38.6585C16.6139 37.878 16.7979 37.4406 17.5879 37.1491C28.6248 33.049 38.8897 34.0148 48.078 41.8566C51.8172 45.0456 56.232 46.309 60.9724 46.6796C64.0513 46.9195 67.1452 46.965 70.2271 47.1655C70.9056 47.208 71.566 47.5299 72.2324 47.7243C71.8555 48.4289 71.6293 49.3036 71.0744 49.8139C68.9726 51.7424 66.3129 52.5048 63.5989 53.0484C59.3923 53.8927 55.2188 53.7682 51.0815 52.5564C49.1153 51.9793 47.104 51.7212 45.0534 52.1221C43.3285 52.4562 41.866 53.176 41.3322 54.9982C40.7834 56.8752 41.5162 58.4393 42.8491 59.7058C44.6584 61.4309 47.0105 62.0899 49.3113 62.8067C51.3589 63.4475 53.4215 64.0397 55.4841 64.6229C57.8785 65.3001 60.2819 64.9053 62.6581 64.5348C71.8585 63.1073 80.8387 60.6746 89.8522 58.4028C91.0885 58.0931 92.3762 57.9928 93.6397 57.8167C93.9352 57.7772 94.3242 57.7165 94.5262 57.8622C95.2892 58.412 96.1576 58.9435 96.6251 59.7058C96.7819 59.9578 95.9797 61.0998 95.3887 61.4612Z" fill="black"/>
<path d="M12.1149 49.8291C12.1179 54.5245 12.1179 59.2199 12.1149 63.9153C12.1149 66.1081 11.3972 66.8218 9.18681 66.8309C7.26591 66.837 5.34502 66.8491 3.42111 66.8248C1.56052 66.8036 0.812672 66.0473 0.806641 64.1977C0.806641 54.5792 0.806641 44.9606 0.806641 35.342C0.809656 33.5258 1.53942 32.7544 3.30953 32.7362C5.41739 32.7149 7.52826 32.7119 9.63612 32.7392C11.3278 32.7605 12.1028 33.5592 12.1089 35.2874C12.1209 40.1346 12.1089 44.9819 12.1089 49.8291H12.1149Z" fill="black"/>
<path d="M93.8327 32.8941C93.6336 33.0581 93.4195 33.2009 93.1089 33.4287C91.8243 30.5343 89.9667 28.2868 87.5211 26.3916C89.0319 25.0553 90.2231 23.5398 90.796 21.593C92.2194 16.7488 89.3727 11.6039 84.5116 10.2828C79.5209 8.92212 74.5272 11.9046 73.2999 16.9796C72.1208 21.8572 75.3143 26.8381 80.2266 27.9102C84.581 28.8639 87.3432 31.7127 89.2129 35.7703C85.7782 37.2008 82.3435 37.6077 78.8334 36.894C72.3711 35.582 67.878 31.7825 65.2876 25.6961C64.7026 24.3264 64.1055 23.9589 62.456 23.9893C47.9001 24.2748 33.3441 24.5542 18.7911 24.8731C17.7568 24.8974 16.8853 24.6878 16.056 24.0925C15.1122 23.4213 14.12 22.817 13.0676 22.1275C14.5362 20.0623 15.9324 18.0547 17.3829 16.0928C17.8141 15.5096 19.8948 15.6281 20.51 16.2051C21.6106 17.2408 22.6811 18.3068 23.7818 19.3364C24.8493 20.3417 25.8294 20.4359 27.0416 19.6128C28.5403 18.5984 30.03 17.5658 31.4895 16.4937C32.0504 16.0806 32.4605 16.0077 33.0817 16.439C34.5684 17.4716 36.1425 18.3706 37.6442 19.382C38.7027 20.0927 39.6737 20.0167 40.6748 19.303C42.1826 18.2339 43.6813 17.1497 45.2313 16.1444C45.5359 15.95 46.1631 15.9318 46.4767 16.111C48.0358 17.0252 49.5586 18.0001 51.0603 19.0114C52.2153 19.792 53.2767 19.7738 54.3895 18.9355C55.4117 18.1671 56.5275 17.5141 57.5226 16.7093C59.0636 15.4671 60.6708 14.635 62.7516 14.8384C63.9367 14.9538 64.6393 14.1399 65.0343 13.0192C67.8026 5.21987 75.1605 0.363514 83.3808 0.891973C90.5698 1.35058 96.9899 6.34057 99.2486 13.2166C101.601 20.3903 99.4687 28.1532 93.8327 32.8972V32.8941Z" fill="black"/>
<path d="M87.1534 49.8808C85.2657 52.0554 82.407 52.2133 79.8166 50.3576C77.0152 48.3531 76.21 45.3646 75.9326 42.1422C75.9085 41.878 75.9115 41.6138 75.9115 41.3495C75.9115 41.2766 75.9417 41.2038 75.999 40.9517C80.67 42.1756 85.329 42.045 90.0182 40.3716C90.0574 43.9432 89.4874 47.2051 87.1564 49.8838L87.1534 49.8808Z" fill="black"/>
<path d="M77.805 17.6752C78.5468 15.2789 81.0799 13.9547 83.4712 14.714C85.7419 15.4338 87.1381 17.9333 86.4716 20.0866C85.7268 22.492 83.0188 24.0562 80.7874 23.3667C78.4021 22.6287 77.0632 20.0745 77.805 17.6782V17.6752Z" fill="black"/>
</svg>
