<svg width="84" height="83" viewBox="0 0 84 83" fill="none" xmlns="http://www.w3.org/2000/svg">
<path d="M65.3881 74.4807C65.8094 74.1796 65.9074 73.5892 65.6077 73.1629C63.0586 69.5612 60.5274 65.9835 57.9753 62.3759C57.4056 61.5708 57.4679 60.4766 58.1267 59.7432L59.2484 58.4969C59.9309 57.7396 61.1149 57.7396 61.8004 58.4969C62.5838 59.3616 63.3554 60.2113 64.1299 61.061C65.0201 62.036 65.3881 62.0389 66.2724 61.067C67.0202 60.2471 67.762 59.4212 68.5276 58.5744C69.2191 57.8082 70.4357 57.8559 71.0648 58.6788L83.0059 74.3048C85.4096 77.4533 83.178 82.003 79.2283 82.003H4.76872C0.899147 82.003 -1.35316 77.6113 0.890245 74.4449C4.91116 68.7682 8.92317 63.1093 12.9619 57.4057C13.5791 56.5351 14.8373 56.4606 15.5525 57.2507C16.1252 57.8857 16.689 58.5089 17.2528 59.135C18.2202 60.2023 18.6179 60.2113 19.5645 59.1678C20.3538 58.2942 21.1432 57.4206 21.9652 56.5083C22.5676 55.8374 23.6151 55.8374 24.2204 56.5023C24.9979 57.358 25.7635 58.2018 26.5262 59.0515C27.5826 60.2262 27.9416 60.2381 28.9862 59.0873C29.7518 58.2435 30.5144 57.3938 31.3097 56.5112C31.9121 55.8404 32.9596 55.8374 33.565 56.5053C34.3662 57.3878 35.1555 58.2584 35.9449 59.132C36.9123 60.2023 37.2951 60.2172 38.2536 59.1707C39.0489 58.3001 39.8382 57.4266 40.6602 56.5142C41.2626 55.8464 42.3071 55.8434 42.9125 56.5083C43.7167 57.3908 44.506 58.2614 45.2954 59.132C46.2687 60.2053 46.6337 60.2172 47.6011 59.1707C48.2272 58.491 48.8504 57.8052 49.4914 57.0956C50.1739 56.3413 51.3787 56.4129 51.9662 57.2447C55.999 62.9304 59.9902 68.5565 64.0349 74.2601C64.3465 74.6984 64.9519 74.7997 65.3851 74.4897L65.3881 74.4807Z" fill="url(#paint0_linear_135_2234)"/>
<path d="M32.3958 0C33.0843 0 33.6451 0.560521 33.6451 1.25521V3.17827C33.6451 4.11744 34.4018 4.87772 35.3366 4.87772H45.1351C46.2836 4.87772 47.2124 5.81391 47.2124 6.96477V14.3052C47.2124 15.459 46.2806 16.3922 45.1351 16.3922H34.7312C34.1615 16.3922 33.6926 16.8633 33.6896 17.4358C33.6837 21.8245 33.6718 26.2103 33.7045 30.5991C33.7074 31.0791 33.8617 31.6366 34.1348 32.0272C39.129 39.1291 44.1499 46.2102 49.1679 53.2942L49.1739 53.3001C49.4647 53.7086 49.432 54.2632 49.0967 54.6329L48.0136 55.8344C47.1857 56.7527 45.7494 56.7557 44.9185 55.8404C44.2212 55.0712 43.5327 54.3109 42.8413 53.5566C41.9807 52.6144 41.6217 52.5995 40.773 53.5178C39.5711 54.8207 38.3901 56.1415 37.126 57.5368C37.126 57.5368 37.12 57.5368 37.1171 57.5368C35.9746 56.2846 34.8855 55.0831 33.7905 53.8875C32.4908 52.4653 32.3721 52.4653 31.0456 53.9292C29.9803 55.101 28.918 56.2787 27.7784 57.5398C27.7784 57.5398 27.7725 57.5398 27.7695 57.5398C26.5173 56.1654 25.3333 54.8505 24.1344 53.5536C23.256 52.6025 22.9385 52.5995 22.072 53.5387C21.2827 54.3944 20.4993 55.256 19.6951 56.1445C19.0126 56.8988 17.8285 56.8988 17.146 56.1445L16.1875 55.0861C15.6623 54.5047 15.6148 53.6341 16.0718 52.999C16.9413 51.7945 17.7959 50.6108 18.6387 49.4182C21.8732 44.8595 25.1107 40.3008 28.3274 35.7302C30.1494 33.1423 31.1257 30.0505 31.1346 26.8811C31.1525 18.4048 31.1465 9.93135 31.1465 1.45497V1.26713C31.1465 0.575428 31.7044 0.011926 32.3958 0.011926V0Z" fill="url(#paint1_linear_135_2234)"/>
<path d="M67.7325 56.5827C67.3081 57.0508 66.8897 57.5129 66.4742 57.9721C65.7917 58.7264 64.6077 58.7234 63.9252 57.9661C63.124 57.0776 62.3406 56.213 61.5542 55.3514C60.7144 54.4331 60.3435 54.436 59.4888 55.3693C58.8538 56.061 58.2247 56.7556 57.5867 57.4623C56.6935 58.4491 55.1207 58.3537 54.3522 57.2685C53.3195 55.8135 52.2927 54.3675 51.2512 52.8976C50.9841 52.5219 50.993 52.0151 51.2719 51.6483C52.8981 49.5196 54.5243 47.3938 56.1682 45.2411C57.3374 43.7116 59.6313 43.7116 60.8005 45.2411C63.1507 48.318 65.4772 51.3591 67.8215 54.4301C68.3141 55.0741 68.2755 55.9805 67.7325 56.5827Z" fill="url(#paint2_linear_135_2234)"/>
<path d="M54.3224 21.2669H45.7345C45.1559 21.2669 44.687 20.7958 44.687 20.2144V19.3498C44.687 18.7744 45.1499 18.3063 45.7227 18.2973C46.3963 18.2884 47.0699 18.2824 47.7405 18.3182C48.8059 18.3778 49.2035 17.9008 49.1916 16.8722C49.1649 14.8686 49.1827 12.8621 49.1857 10.8555C49.1857 10.7929 49.1857 10.7303 49.1857 10.6677C49.1857 10.0893 49.6575 9.61523 50.2332 9.61523H54.2986C55.1444 9.61523 55.6399 10.5693 55.1592 11.267C54.7883 11.8037 54.4292 12.3284 54.0731 12.8531C52.0285 15.8704 52.0374 14.9491 54.0523 17.9575C54.4203 18.506 54.7912 19.0487 55.1829 19.6122C55.6637 20.3098 55.1681 21.2639 54.3224 21.2639V21.2669Z" fill="url(#paint3_linear_135_2234)"/>
<defs>
<linearGradient id="paint0_linear_135_2234" x1="52.5" y1="57.2726" x2="49.7869" y2="98.7437" gradientUnits="userSpaceOnUse">
<stop stop-color="#6E7ED7"/>
<stop offset="0.393572" stop-color="#6E7ED7" stop-opacity="0.645698"/>
<stop offset="0.717224" stop-color="#6E7ED7" stop-opacity="0"/>
</linearGradient>
<linearGradient id="paint1_linear_135_2234" x1="36.7673" y1="2.80672" x2="7.27587" y2="84.3119" gradientUnits="userSpaceOnUse">
<stop stop-color="#6E7ED7"/>
<stop offset="0.393572" stop-color="#6E7ED7" stop-opacity="0.645698"/>
<stop offset="0.717224" stop-color="#6E7ED7" stop-opacity="0"/>
</linearGradient>
<linearGradient id="paint2_linear_135_2234" x1="61.7507" y1="44.7985" x2="57.7504" y2="67.2202" gradientUnits="userSpaceOnUse">
<stop stop-color="#6E7ED7"/>
<stop offset="0.393572" stop-color="#6E7ED7" stop-opacity="0.645698"/>
<stop offset="0.717224" stop-color="#6E7ED7" stop-opacity="0"/>
</linearGradient>
<linearGradient id="paint3_linear_135_2234" x1="51.3647" y1="10.1836" x2="47.2791" y2="27.9073" gradientUnits="userSpaceOnUse">
<stop stop-color="#6E7ED7"/>
<stop offset="0.393572" stop-color="#6E7ED7" stop-opacity="0.645698"/>
<stop offset="0.717224" stop-color="#6E7ED7" stop-opacity="0"/>
</linearGradient>
</defs>
</svg>
