<svg width="217" height="45" viewBox="0 0 217 45" fill="none" xmlns="http://www.w3.org/2000/svg">
<path fill-rule="evenodd" clip-rule="evenodd" d="M27.2991 3.43402C15.4389 4.46012 7.2089 15.4739 9.59304 27.1299C9.66642 27.4886 9.79915 28.0416 9.88808 28.3591L10.0498 28.9361H13.3116H16.5732L14.3347 31.1747C12.551 32.9589 12.1018 33.4278 12.1236 33.4842C12.1485 33.5495 12.8133 34.5518 12.9475 34.7267C13.0035 34.7997 13.5838 34.2265 24.6381 23.179C31.0354 16.7855 36.4363 11.4139 36.6402 11.242C38.1391 9.97723 39.8063 9.08966 41.5739 8.61527C41.8313 8.54619 42.0683 8.48179 42.1005 8.47205C42.1651 8.45277 42.1775 8.46456 41.5097 7.91042C37.5893 4.65725 32.3257 2.99931 27.2991 3.43402ZM37.4388 28.6289C24.6006 41.4717 25.5823 40.5544 23.5605 41.5955C23.2201 41.7707 22.9569 41.9231 22.9754 41.9339C23.1271 42.0246 24.8191 42.4359 25.5634 42.5634C38.9545 44.8548 50.5733 33.2865 48.377 19.8487C48.2882 19.3056 48.0362 18.1677 47.9949 18.1237C47.9803 18.1082 43.23 22.8354 37.4388 28.6289Z" fill="#EBC304"/>
<path fill-rule="evenodd" clip-rule="evenodd" d="M43.7387 8.19C43.2568 8.24242 42.2045 8.42233 42.159 8.46015C42.1377 8.47793 41.9709 8.53035 41.7885 8.57678C40.0788 9.01148 38.3961 9.85786 36.9587 11.0064C36.5693 11.3177 33.5187 14.3419 22.5335 25.3073L8.60223 39.2133L8.94239 39.5448C11.9394 42.4661 16.6514 43.6826 20.8604 42.6218C21.6057 42.4339 22.7522 42.0392 22.8948 41.9215C22.9177 41.9024 23.1635 41.7743 23.4408 41.6367C24.3607 41.1801 25.276 40.5782 26.0226 39.9389C26.2214 39.7687 32.6321 33.3905 40.2686 25.765L54.1533 11.9007L53.792 11.571C51.7925 9.74704 49.5533 8.67563 46.8784 8.26283C46.2601 8.16735 44.3528 8.12317 43.7387 8.19ZM0.738616 29.0153C0.285565 29.19 -0.00142931 29.6212 0.00137885 30.1227C0.00418702 30.6486 -0.215224 30.4009 3.82348 34.4368L7.47166 38.0823L11.9889 33.5386L16.5061 28.9948L12.8931 28.9712C4.74044 28.918 0.955593 28.9319 0.738616 29.0153Z" fill="white"/>
<path fill-rule="evenodd" clip-rule="evenodd" d="M24.5106 23.31L13.0244 34.8061L24.5203 23.3197C30.8432 17.0025 36.0164 11.8293 36.0164 11.8239C36.0164 11.7967 35.19 12.6216 24.5106 23.31ZM37.4008 28.6339L26.8704 39.1743L37.4107 28.6436C47.2106 18.8527 47.9685 18.0936 47.9411 18.0936C47.9359 18.0936 43.1927 22.8367 37.4008 28.6339ZM26.6345 39.3985L26.4802 39.5642L26.6461 39.4101C26.7372 39.3253 26.8118 39.2506 26.8118 39.2443C26.8118 39.2149 26.7779 39.2443 26.6345 39.3985Z" fill="#94843B"/>
<path fill-rule="evenodd" clip-rule="evenodd" d="M11.6914 28.9655C12.5888 28.9713 14.0454 28.9713 14.9287 28.9655C15.812 28.9595 15.0779 28.9548 13.2975 28.9548C11.517 28.9548 10.7943 28.9595 11.6914 28.9655Z" fill="#7A6B4C"/>
<path d="M77.8283 14.36C77.7749 14.84 77.7483 15.3333 77.7483 15.84C77.7483 16.8 77.6949 17.6667 77.5883 18.44C77.4816 19.2133 77.4149 19.7467 77.3883 20.04C77.3616 20.3067 77.3216 20.5733 77.2683 20.84V21.12C77.2683 21.6 77.1616 22.08 76.9483 22.56L76.8283 24.36L76.6683 28.16V30.16C76.6683 31.1733 76.6149 31.72 76.5083 31.8L76.5483 32.84V33.28L76.5083 33.76C76.5083 33.8667 76.4816 33.92 76.4283 33.92C76.4816 34.24 76.3483 34.5867 76.0283 34.96C75.7349 35.3067 75.3616 35.5333 74.9083 35.64L74.1883 35.76C74.0816 35.76 73.9349 35.7733 73.7483 35.8C73.5616 35.8 73.4016 35.7733 73.2683 35.72C73.1349 35.6667 73.0016 35.6 72.8683 35.52C72.6016 35.36 72.4149 35.0533 72.3083 34.6C72.2283 34.4667 72.0683 33.6533 71.8283 32.16C71.8283 31.84 71.8016 31.44 71.7483 30.96L71.8683 30V29.24C71.8683 28.76 71.9216 28.4267 72.0283 28.24C71.9216 28.08 71.9883 27.7333 72.2283 27.2C72.0416 26.96 72.0549 26.4267 72.2683 25.6C72.1616 25.2533 72.1616 25.0267 72.2683 24.92C72.3216 24.76 72.3483 24.3867 72.3483 23.8L72.3883 23.4C72.3883 22.6267 72.4683 21.92 72.6283 21.28C72.5749 21.2 72.5749 20.9867 72.6283 20.64C72.6816 20.2933 72.7216 19.88 72.7483 19.4V19.12C72.7749 18.72 72.7883 18.2933 72.7883 17.84L72.8283 17.48C72.8283 17.32 72.8549 17 72.9083 16.52C72.9883 16.04 73.0549 15.5333 73.1083 15H73.0283C70.2016 15.7733 68.4683 16.16 67.8283 16.16L67.1483 16.2C66.7483 16.2 66.3349 16.1333 65.9083 16C65.6949 15.8933 65.5349 15.6133 65.4283 15.16C65.4283 14.28 65.6149 13.64 65.9883 13.24C66.3883 12.84 67.1216 12.4667 68.1883 12.12C68.4549 12.0933 70.1083 11.5333 73.1483 10.44L74.8683 10.04C75.1883 9.93333 75.6949 9.88 76.3883 9.88C77.0816 9.88 77.6549 9.8 78.1083 9.64C78.5883 9.45333 79.1083 9.32 79.6683 9.24C80.2283 9.13333 80.8149 9.02667 81.4283 8.92C81.7216 8.81333 82.2549 8.84 83.0283 9C83.3216 9 83.7883 9.30667 84.4283 9.92L84.6683 10.48C84.6683 10.64 84.7083 10.76 84.7883 10.84C84.8949 11.56 84.7349 12.0267 84.3083 12.24C84.1483 12.32 83.8683 12.4267 83.4683 12.56C82.9349 12.56 81.6016 12.8267 79.4683 13.36C79.3616 13.36 78.8283 13.44 77.8683 13.6L77.8283 14.12V14.36ZM89.6383 24.2C89.4516 23.1333 88.9316 22.64 88.0783 22.72C87.5983 22.7467 87.1849 23.0667 86.8383 23.68C86.3583 24.6133 86.1449 25.8267 86.1983 27.32C86.2783 28.7867 86.3849 29.8533 86.5183 30.52C86.6783 31.16 86.9449 31.72 87.3183 32.2C87.5316 32.5733 87.8516 32.7467 88.2783 32.72C89.0249 32.72 89.5716 32.0933 89.9183 30.84L90.2383 29.88C90.3716 29.7467 90.3983 29.6133 90.3183 29.48C90.5849 28.8133 90.7316 28.0267 90.7583 27.12C90.4916 26.9333 90.3316 26.76 90.2783 26.6C90.1183 26.1467 90.0383 25.84 90.0383 25.68C89.8516 25.5467 89.7449 25.2933 89.7183 24.92C89.6916 24.5467 89.6649 24.3067 89.6383 24.2ZM82.3183 27.96L82.4783 25.92C82.6649 24.08 83.2249 22.5067 84.1583 21.2C85.0649 20.1067 86.3449 19.5467 87.9983 19.52H88.2383C89.7849 19.52 90.9049 19.8533 91.5983 20.52C92.3449 21.1067 92.8916 21.7467 93.2383 22.44C93.6116 23.1333 93.8516 23.64 93.9583 23.96C94.0649 24.28 94.1316 24.7467 94.1583 25.36C94.2116 26.5067 93.9849 27.16 93.4783 27.32C93.8516 29.8533 93.6249 31.8667 92.7983 33.36C92.5316 33.9733 92.1449 34.64 91.6383 35.36C91.2649 35.84 90.5983 36.1067 89.6383 36.16C88.6783 36.16 87.8383 36.1067 87.1183 36C86.4249 35.8933 85.6516 35.56 84.7983 35C83.9449 34.4133 83.3449 33.4667 82.9983 32.16C82.6249 30.9067 82.3983 29.5067 82.3183 27.96ZM102.271 19.6C102.671 19.9467 102.884 20.4267 102.911 21.04C102.964 21.6533 102.951 22.08 102.871 22.32C102.817 22.56 102.711 23.3867 102.551 24.8C102.471 24.9867 102.431 25.24 102.431 25.56L102.031 29.12C102.031 30.5333 102.044 31.36 102.071 31.6C102.097 31.84 102.151 32.0267 102.231 32.16C102.257 32.2667 102.377 32.3467 102.591 32.4C102.804 32.4533 102.951 32.4 103.031 32.24C103.031 32 103.111 31.8133 103.271 31.68C103.271 31.6267 103.444 31.2533 103.791 30.56C103.791 30.4533 103.831 30.3067 103.911 30.12C104.017 29.9333 104.084 29.7733 104.111 29.64C104.164 29.48 104.204 29.3733 104.231 29.32C104.337 29.24 104.471 28.9467 104.631 28.44C104.631 28.1467 104.791 27.84 105.111 27.52C105.111 27.44 105.244 27.12 105.511 26.56L105.591 26.2C106.071 25.1867 106.297 24.48 106.271 24.08L106.471 22.12L106.871 20.52C107.244 19.6667 107.777 19.1467 108.471 18.96C108.791 18.8267 109.217 18.88 109.751 19.12C110.311 19.36 110.657 19.6 110.791 19.84C110.951 20.0533 111.031 20.2667 111.031 20.48V21.2L110.991 21.64V23.8C110.991 25.4 111.017 26.6133 111.071 27.44C111.231 29.84 111.697 31.8933 112.471 33.6C112.844 34.4533 112.684 35.1067 111.991 35.56C111.591 35.8267 111.124 35.96 110.591 35.96C109.684 35.96 109.057 35.6133 108.711 34.92C108.524 34.6533 108.351 34.2933 108.191 33.84C108.031 33.3867 107.924 33.0933 107.871 32.96C107.711 32.4267 107.604 32.1333 107.551 32.08L107.231 31.32C106.804 32.68 106.071 34.28 105.031 36.12C104.817 36.4667 104.444 36.76 103.911 37C103.431 36.8933 102.911 36.7467 102.351 36.56C102.004 36.4267 101.431 36.24 100.631 36C100.097 35.9467 99.7908 35.8667 99.7108 35.76C99.6308 35.6267 99.5641 35.5467 99.5108 35.52C99.4841 35.4667 99.4708 35.4267 99.4708 35.4C99.3908 35.2667 99.2574 35.2 99.0708 35.2C98.9641 34.96 98.8041 34.76 98.5908 34.6C98.5908 34.5733 98.5508 34.44 98.4708 34.2C98.1774 34.0133 97.9374 33.4533 97.7508 32.52C97.6174 32.3867 97.5108 31.5333 97.4308 29.96C97.3774 28.36 97.3641 27.36 97.3908 26.96C97.4441 26.56 97.4708 26.2267 97.4708 25.96C97.4174 25.8533 97.4308 25.6133 97.5108 25.24C97.5908 24.8667 97.6174 24.6133 97.5908 24.48L97.7508 22.8L98.0708 21.36C98.0708 20.96 98.2041 20.5467 98.4708 20.12C98.7374 19.6933 98.9241 19.44 99.0308 19.36C99.1374 19.1467 99.5108 18.9733 100.151 18.84C100.284 18.8667 100.457 18.8933 100.671 18.92C100.884 18.92 101.084 18.9467 101.271 19C101.457 19.0267 101.791 19.2267 102.271 19.6ZM115.429 24.2C115.429 23.96 115.403 23.68 115.349 23.36V23.08C115.376 22.8933 115.363 22.6933 115.309 22.48C115.309 22.2133 115.336 21.9733 115.389 21.76C115.389 21.2267 115.456 20.88 115.589 20.72C115.589 20.5867 115.776 20.28 116.149 19.8C116.256 19.6933 116.456 19.52 116.749 19.28C117.176 19.1467 117.469 19.0667 117.629 19.04C117.736 18.9333 118.096 18.9733 118.709 19.16C118.976 19.1867 119.389 19.28 119.949 19.44C120.136 19.4933 120.376 19.7067 120.669 20.08C120.616 20.1867 120.523 20.5867 120.389 21.28C120.283 21.9467 120.243 22.4933 120.269 22.92C120.429 22.7867 120.709 22.5067 121.109 22.08C121.509 21.6533 121.723 21.4267 121.749 21.4C122.443 21.08 123.123 20.8533 123.789 20.72C124.749 20.64 125.376 20.7067 125.669 20.92C125.909 21 126.096 21.12 126.229 21.28C126.469 21.4933 126.669 21.8667 126.829 22.4C126.989 22.9067 126.976 23.2267 126.789 23.36C126.629 23.4933 126.096 23.6 125.189 23.68C125.136 23.68 124.949 23.7867 124.629 24L122.549 25.64C122.123 25.8533 121.829 26.04 121.669 26.2L120.909 27.6C120.883 27.6533 120.856 28 120.829 28.64C120.803 29.28 120.803 29.7467 120.829 30.04C120.856 30.3067 120.856 31.2 120.829 32.72V34.44C120.829 35.3733 120.816 35.9067 120.789 36.04C120.763 36.2 120.656 36.4667 120.469 36.84C120.389 36.9733 120.136 37.04 119.709 37.04C118.669 37.8133 118.003 37.7733 117.709 36.92L117.189 36.6C116.976 36.4933 116.843 36.36 116.789 36.2C116.576 35.9067 116.469 35.7333 116.469 35.68L116.309 35.12L116.069 34.64C115.989 34.6133 115.923 34.1067 115.869 33.12C115.816 32.1067 115.789 31.4933 115.789 31.28C115.789 31.04 115.763 30.7867 115.709 30.52C115.896 30.3333 115.976 30.0133 115.949 29.56C115.949 29.1067 115.923 28.76 115.869 28.52C115.816 28.2533 115.816 28.0933 115.869 28.04C115.923 27.96 115.909 27.5867 115.829 26.92C115.749 26.8133 115.736 26.6133 115.789 26.32L115.429 24.2ZM136.02 22.92L136.42 21.44C136.42 21.3333 136.486 21.1867 136.62 21L136.9 19.8C136.98 19.56 137.113 19.3067 137.3 19.04C137.486 18.3467 137.673 17.8933 137.86 17.68C138.046 17.4667 138.233 17.1733 138.42 16.8C138.42 16.6933 138.553 16.44 138.82 16.04C139.086 15.64 139.326 15.36 139.54 15.2C139.7 14.96 139.82 14.8 139.9 14.72C140.033 14.6133 140.26 14.32 140.58 13.84C140.633 13.76 140.873 13.5733 141.3 13.28C141.433 13.0933 141.526 12.9867 141.58 12.96C141.66 12.96 141.82 12.84 142.06 12.6C142.193 12.3067 142.46 12.04 142.86 11.8C143.26 11.56 143.526 11.44 143.66 11.44C143.793 11.44 143.966 11.3467 144.18 11.16C144.206 11.16 144.26 11.1467 144.34 11.12C144.446 11.0933 144.566 11.0667 144.7 11.04C145.366 10.9333 145.766 10.84 145.9 10.76C146.033 10.68 146.193 10.6667 146.38 10.72C147.1 10.72 147.806 10.88 148.5 11.2C148.633 11.2 148.806 11.2533 149.02 11.36C149.153 11.36 149.42 11.6267 149.82 12.16C150.22 12.6933 150.446 13.08 150.5 13.32C150.366 13.3733 150.166 13.3733 149.9 13.32C148.886 12.8133 147.246 13.8267 144.98 16.36C143.806 17.7733 142.846 19.4267 142.1 21.32C141.993 21.8267 141.873 22.2133 141.74 22.48L140.78 24.92C140.593 25.0533 140.46 26.2133 140.38 28.4L140.3 29.6C140.246 30.3467 140.326 30.88 140.54 31.2C140.673 31.5733 140.833 31.8533 141.02 32.04C141.233 32.2267 141.393 32.32 141.5 32.32C141.58 32.32 141.78 32.24 142.1 32.08C142.42 31.92 142.74 31.7733 143.06 31.64C143.22 31.64 143.433 31.5067 143.7 31.24C143.78 31.24 143.886 31.1333 144.02 30.92C144.02 30.76 144.126 30.68 144.34 30.68C144.446 30.68 144.58 30.56 144.74 30.32L145.06 30.04C145.166 30.04 145.34 29.8933 145.58 29.6C145.846 29.36 146.02 29.0933 146.1 28.8C146.153 28.8 146.26 28.6933 146.42 28.48C146.633 28.3733 146.78 28.24 146.86 28.08C146.94 27.8933 147.153 27.6267 147.5 27.28C147.713 26.9867 147.94 26.7867 148.18 26.68C148.233 26.7333 148.38 26.7067 148.62 26.6C148.806 26.5467 149.006 26.3067 149.22 25.88C149.3 25.8533 149.34 25.68 149.34 25.36C149.393 25.3067 149.393 24.9067 149.34 24.16C149.18 24.16 148.9 24.2 148.5 24.28C147.726 24.4933 146.966 24.44 146.22 24.12C146.06 24.0133 145.98 23.8933 145.98 23.76C145.846 23.44 145.806 23.2 145.86 23.04C146.1 22.4267 146.366 21.9733 146.66 21.68C146.953 21.3867 147.206 21.24 147.42 21.24C147.446 21.24 147.873 21.16 148.7 21C148.833 21 149.246 20.9467 149.94 20.84C150.66 20.7333 151.06 20.7333 151.14 20.84C151.246 20.92 151.393 20.96 151.58 20.96C151.766 20.9333 152.073 21.0133 152.5 21.2C152.953 21.36 153.286 21.5867 153.5 21.88C153.793 22.8933 153.913 23.84 153.86 24.72C153.62 27.6533 153.5 29.5733 153.5 30.48C153.366 32.6133 153.3 33.9867 153.3 34.6C153.3 35.2133 153.366 35.7067 153.5 36.08C153.633 36.4533 153.58 36.9467 153.34 37.56C153.286 37.9333 153.153 38.2267 152.94 38.44C152.753 38.6533 152.473 38.7467 152.1 38.72C151.753 38.6933 151.58 38.5867 151.58 38.4C151.58 38.24 151.433 38.0933 151.14 37.96C150.82 37.6933 150.526 37.4667 150.26 37.28C150.02 37.0933 149.873 36.9733 149.82 36.92C149.606 36.8667 149.513 36.76 149.54 36.6C149.593 36.44 149.553 36.24 149.42 36C149.286 35.4667 149.14 34.3867 148.98 32.76C148.846 32.28 148.726 32.04 148.62 32.04C148.54 32.04 148.313 32.2533 147.94 32.68C147.7 33.2133 147.433 33.6 147.14 33.84C146.846 34.08 146.553 34.3333 146.26 34.6C145.593 35.2133 145.22 35.5333 145.14 35.56C145.086 35.5867 145.02 35.6267 144.94 35.68C144.673 35.84 144.34 36.0667 143.94 36.36C142.74 36.5733 141.873 36.6267 141.34 36.52C141.1 36.52 140.833 36.4 140.54 36.16C140.246 35.92 140.113 35.8 140.14 35.8V35.76C140.14 35.7067 140.06 35.6533 139.9 35.6C139.74 35.5467 139.566 35.4533 139.38 35.32C139.3 35.32 139.22 35.2533 139.14 35.12C139.086 34.9867 138.94 34.88 138.7 34.8C138.7 34.72 138.633 34.6 138.5 34.44C138.42 34.44 138.34 34.32 138.26 34.08C138.233 34.1333 138.1 34.04 137.86 33.8C137.62 33.56 137.486 33.4133 137.46 33.36C137.22 33.3067 137.1 33.2133 137.1 33.08C137.1 33.0533 136.966 32.8667 136.7 32.52L136.42 32C135.993 31.4933 135.726 30.7333 135.62 29.72C135.54 29.72 135.513 29.5333 135.54 29.16C135.566 28.7867 135.553 28.4933 135.5 28.28C135.606 27.8 135.58 27.4933 135.42 27.36C135.313 26.6667 135.313 26.2267 135.42 26.04V25.36C135.42 25.04 135.5 24.6 135.66 24.04C135.66 23.8533 135.713 23.6267 135.82 23.36C135.926 23.0667 135.993 22.92 136.02 22.92ZM164.561 24.28L164.361 23.92C164.041 23.92 163.441 24.5733 162.561 25.88C161.521 27.2933 160.787 28.6933 160.361 30.08C160.067 30.9067 159.894 31.5867 159.841 32.12C159.841 32.8933 160.001 33.4 160.321 33.64C160.454 33.64 160.601 33.5467 160.761 33.36C160.947 33.1733 161.054 33.04 161.081 32.96C161.267 32.8533 161.507 32.5467 161.801 32.04C162.147 31.5333 162.334 31.2667 162.361 31.24L162.721 30.48L163.401 29.32C163.347 29.32 163.427 29.0133 163.641 28.4C163.961 27.84 164.134 27.4133 164.161 27.12L164.561 24.28ZM156.121 33.96C156.041 32.8133 156.054 31.9333 156.161 31.32C156.774 29.08 157.254 27.3733 157.601 26.2C157.601 26.1733 157.694 25.84 157.881 25.2C158.174 24.2667 158.441 23.6533 158.681 23.36C158.681 23.28 158.787 23.0667 159.001 22.72C159.001 22.48 159.294 22.0667 159.881 21.48L160.321 21C160.801 20.5733 161.481 20.36 162.361 20.36C162.681 20.3067 163.054 20.32 163.481 20.4C164.254 20.7467 165.134 21.2667 166.121 21.96L166.521 22.2C166.734 22.2533 166.934 22.32 167.121 22.4C167.227 22.4 167.454 22.4533 167.801 22.56L168.321 22.96C168.561 23.12 168.707 23.3467 168.761 23.64C168.601 23.8 168.521 24.32 168.521 25.2C168.414 26.3467 168.494 27.6933 168.761 29.24C168.867 30.68 169.121 32.2 169.521 33.8C169.521 33.9333 169.614 34.2933 169.801 34.88C170.014 35.4667 170.107 35.84 170.081 36C170.081 36.6667 169.454 37 168.201 37C166.974 36.92 166.121 36.3867 165.641 35.4C165.614 35.2933 165.521 35.08 165.361 34.76C165.041 34.44 164.867 34.1733 164.841 33.96L164.761 33.4C164.654 33.32 164.587 33.2133 164.561 33.08C164.241 33.5333 163.841 34 163.361 34.48L162.521 35.8L162.201 36.12C162.174 36.2267 161.894 36.3467 161.361 36.48C160.827 36.64 160.441 36.6667 160.201 36.56C160.067 36.56 159.881 36.5333 159.641 36.48L157.881 35.76C157.481 35.6533 157.187 35.4667 157.001 35.2C156.654 34.9867 156.481 34.8667 156.481 34.84C156.214 34.3867 156.094 34.0933 156.121 33.96ZM172.921 24.6C172.895 24.28 172.908 23.6667 172.961 22.76L173.241 21.4L174.041 19.68L174.681 18.88C174.681 18.6667 175.375 18.3733 176.761 18H176.801C177.095 17.9733 177.548 18 178.161 18.08C178.801 18.16 179.415 18.4267 180.001 18.88C180.588 19.3067 180.988 19.6667 181.201 19.96C181.761 21.08 182.001 22.12 181.921 23.08C181.921 23.3467 181.788 23.6667 181.521 24.04C181.495 24.0933 181.295 24.1733 180.921 24.28C180.548 24.3867 180.241 24.4 180.001 24.32C179.761 24.2133 179.481 24.0533 179.161 23.84C178.841 23.6267 178.695 23.2933 178.721 22.84C178.481 22.5733 178.428 22.2267 178.561 21.8C178.615 21.48 178.575 21.24 178.441 21.08L177.961 20.88C177.801 20.9333 177.641 21.1733 177.481 21.6C177.348 22.0267 177.281 22.5467 177.281 23.16C177.281 24.28 177.561 25.2933 178.121 26.2C178.308 26.4933 178.628 26.84 179.081 27.24L179.801 28.12L180.841 29.08L181.601 30.12C181.788 30.3067 182.041 30.72 182.361 31.36C182.708 31.9733 182.881 32.5333 182.881 33.04C182.881 33.52 182.735 34.1333 182.441 34.88L182.081 35.4C182.081 35.4533 181.935 35.6267 181.641 35.92C180.841 36.72 179.975 37.2133 179.041 37.4H178.761C177.908 37.5067 177.068 37.4933 176.241 37.36L175.001 37.04C174.868 37.04 174.721 36.9867 174.561 36.88C174.401 36.8 174.255 36.7333 174.121 36.68C173.508 36.28 173.135 35.96 173.001 35.72C172.868 35.64 172.775 35.2667 172.721 34.6C172.535 34.2 172.575 33.6533 172.841 32.96C172.841 32.56 172.881 32.2533 172.961 32.04C173.468 31.4533 174.121 31.32 174.921 31.64C175.188 31.7467 175.321 31.96 175.321 32.28C175.321 32.36 175.361 32.64 175.441 33.12C175.548 33.5733 175.708 34 175.921 34.4C176.135 34.8 176.428 35 176.801 35C177.175 35 177.561 34.8533 177.961 34.56C178.388 33.7333 178.601 33.28 178.601 33.2L178.681 32.64C178.735 32.24 178.615 31.8267 178.321 31.4C178.241 31.08 178.055 30.76 177.761 30.44L177.161 29.56L176.561 29C176.455 28.9733 176.121 28.76 175.561 28.36C175.535 28.28 175.388 28.0933 175.121 27.8C174.855 27.5067 174.601 27.1467 174.361 26.72C174.121 26.2667 173.815 25.8667 173.441 25.52C173.415 25.3333 173.241 25.0267 172.921 24.6ZM197.89 33.56L197.85 34.76C197.85 35.2133 197.877 35.56 197.93 35.8C198.01 36.0133 198.05 36.2133 198.05 36.4C198.05 36.8267 197.303 36.76 195.81 36.2C195.757 36.2267 195.623 36.2133 195.41 36.16C195.197 36.1333 195.05 36.0933 194.97 36.04C194.917 35.9867 194.837 35.9333 194.73 35.88C194.33 35.7733 194.143 35.5467 194.17 35.2C194.143 35.0667 194.09 34.92 194.01 34.76C193.957 34.6 193.93 34.3733 193.93 34.08C193.957 33.7867 193.943 33.36 193.89 32.8C193.837 32.2133 193.823 31.88 193.85 31.8C194.063 30.5467 194.223 29.6933 194.33 29.24C194.597 27.8533 194.623 26.52 194.41 25.24C194.223 23.96 193.73 23.2933 192.93 23.24C192.29 23.24 191.717 23.6533 191.21 24.48C190.383 26.1067 189.97 28.9467 189.97 33C189.97 33.6667 190.05 34.3067 190.21 34.92C190.37 35.5333 190.423 36.04 190.37 36.44C190.343 36.8667 189.97 37.04 189.25 36.96C188.557 36.9067 188.103 36.8 187.89 36.64L187.41 36.4C187.09 36.4 186.89 36.2533 186.81 35.96C186.757 35.8533 186.637 35.6933 186.45 35.48L185.73 34.56C185.543 34.3467 185.463 34.16 185.49 34V33.28L185.45 33C185.263 32.8133 185.183 32.4533 185.21 31.92C185.263 31.3867 185.397 30.3733 185.61 28.88C185.903 26.8 186.05 25.2133 186.05 24.12C186.023 23.1067 186.023 22.6 186.05 22.6L186.41 18.96V17.48C186.41 15.7733 186.61 14.0933 187.01 12.44C187.143 12.1467 187.237 11.96 187.29 11.88C187.37 11.7733 187.423 11.6533 187.45 11.52C187.477 11.0933 187.623 10.7467 187.89 10.48L187.81 10.52C187.863 10.3333 188.01 10.16 188.25 10C188.703 9.76 189.41 9.81333 190.37 10.16C190.557 10.2933 190.69 10.3733 190.77 10.4C190.93 10.48 191.09 10.52 191.25 10.52C191.73 10.84 191.943 11.1333 191.89 11.4C191.89 11.4533 191.783 11.88 191.57 12.68C191.463 13.2667 191.41 13.6133 191.41 13.72C190.823 15.9333 190.423 18.3867 190.21 21.08C190.557 20.7333 190.957 20.4533 191.41 20.24C192.45 19.84 193.277 19.6533 193.89 19.68C195.81 19.8133 197.13 20.5867 197.85 22C198.543 23.1467 198.797 24.7867 198.61 26.92C198.583 27.4 198.343 29.6133 197.89 33.56ZM205.191 21.88L205.231 21.52C204.671 21.4667 204.271 21.4267 204.031 21.4C203.818 21.3467 203.458 21.2933 202.951 21.24C202.444 21.1867 202.044 21.1067 201.751 21C201.191 20.8133 200.871 20.3333 200.791 19.56C200.711 18.76 200.964 18.2667 201.551 18.08C202.084 17.9467 202.458 17.88 202.671 17.88C202.884 17.88 203.284 17.8533 203.871 17.8C204.164 17.64 204.564 17.5467 205.071 17.52L205.671 17.36C205.671 17.3867 205.778 17.36 205.991 17.28L206.191 16.44C206.191 16.0133 206.311 15.5867 206.551 15.16C206.551 14.9733 206.724 14.4533 207.071 13.6C207.071 13.4933 207.311 12.72 207.791 11.28C207.898 11.1467 208.298 10.84 208.991 10.36C209.418 10.1467 210.018 10.2933 210.791 10.8C211.218 10.9867 211.511 11.24 211.671 11.56C211.511 11.72 211.431 12.0933 211.431 12.68C211.404 12.8667 211.218 13.8533 210.871 15.64V16.76C211.084 16.7867 211.431 16.8533 211.911 16.96C212.418 17.0667 213.018 17.1867 213.711 17.32C215.044 17.5867 215.884 18.12 216.231 18.92C216.364 19.5067 216.338 19.92 216.151 20.16C215.964 20.4 215.511 20.5733 214.791 20.68C214.204 20.7067 213.431 20.72 212.471 20.72C211.538 20.72 210.844 20.7867 210.391 20.92C210.338 21.4 210.311 21.7733 210.311 22.04L210.271 22.64C210.271 22.8267 210.151 23.8133 209.911 25.6C209.751 25.84 209.618 27.08 209.511 29.32V32.24C209.511 32.72 209.551 33.1733 209.631 33.6C209.658 34.1867 209.724 34.6 209.831 34.84C209.831 35.08 209.898 35.5867 210.031 36.36C209.711 37.1333 209.178 37.52 208.431 37.52C207.711 37.52 207.071 37.2533 206.511 36.72L206.071 36.08C205.991 35.8667 205.924 35.72 205.871 35.64C205.844 35.56 205.818 35.4667 205.791 35.36C205.604 34.8267 205.458 34.4933 205.351 34.36C205.191 34.1467 205.111 33.9867 205.111 33.88C205.111 33.7733 205.111 33.64 205.111 33.48C205.058 33.0267 204.991 32.64 204.911 32.32C204.778 32.1867 204.711 31.7333 204.711 30.96C204.764 29.5467 204.764 28.7333 204.711 28.52C204.791 28.44 204.804 27.9333 204.751 27L204.871 26.12C204.871 26.0133 204.924 25.6133 205.031 24.92C204.978 24.8133 204.964 24.5333 204.991 24.08C205.018 23.6 205.058 23.2667 205.111 23.08C205.164 22.76 205.191 22.36 205.191 21.88Z" fill="white"/>
</svg>
