<svg width="33" height="33" viewBox="0 0 33 33" fill="none" xmlns="http://www.w3.org/2000/svg">
<path d="M16.4995 7.9176C11.8423 7.9176 7.9834 11.7099 7.9834 16.4337C7.9834 21.1575 11.7757 24.9499 16.4995 24.9499C21.2233 24.9499 25.0157 21.091 25.0157 16.4337C25.0157 11.7765 21.1568 7.9176 16.4995 7.9176ZM16.4995 21.8894C13.5056 21.8894 11.0439 19.4277 11.0439 16.4337C11.0439 13.4398 13.5056 10.9781 16.4995 10.9781C19.4935 10.9781 21.9552 13.4398 21.9552 16.4337C21.9552 19.4277 19.4935 21.8894 16.4995 21.8894Z" fill="#6D6D6D"/>
<path d="M25.3494 9.6472C26.415 9.6472 27.2788 8.78336 27.2788 7.71777C27.2788 6.65217 26.415 5.78833 25.3494 5.78833C24.2838 5.78833 23.4199 6.65217 23.4199 7.71777C23.4199 8.78336 24.2838 9.6472 25.3494 9.6472Z" fill="#6D6D6D"/>
<path d="M30.3387 2.72782C28.6089 0.931451 26.1472 0 23.3528 0H9.64718C3.85887 0 0 3.85887 0 9.64718V23.2863C0 26.1472 0.931452 28.6089 2.79435 30.4052C4.59073 32.1351 6.98589 33 9.71371 33H23.2863C26.1472 33 28.5423 32.0685 30.2722 30.4052C32.0686 28.6754 33 26.2137 33 23.3528V9.64718C33 6.85282 32.0686 4.45766 30.3387 2.72782ZM30.0726 23.3528C30.0726 25.4153 29.3407 27.0786 28.1431 28.2097C26.9456 29.3407 25.2823 29.9395 23.2863 29.9395H9.71371C7.71774 29.9395 6.05444 29.3407 4.85685 28.2097C3.65927 27.0121 3.06048 25.3488 3.06048 23.2863V9.64718C3.06048 7.65121 3.65927 5.9879 4.85685 4.79032C5.9879 3.65927 7.71774 3.06048 9.71371 3.06048H23.4194C25.4153 3.06048 27.0786 3.65927 28.2762 4.85685C29.4073 6.05444 30.0726 7.71774 30.0726 9.64718V23.3528Z" fill="#6D6D6D"/>
</svg>
