<svg width="66" height="50" viewBox="0 0 66 50" fill="none" xmlns="http://www.w3.org/2000/svg">
<path d="M64.4465 16.2626C64.9454 15.865 65.6875 16.2369 65.6875 16.8654V43.0933C65.6875 46.4921 62.9368 49.2495 59.5465 49.2495H6.32458C2.93424 49.2495 0.183594 46.4921 0.183594 43.0933V16.8782C0.183594 16.2369 0.912836 15.8778 1.42459 16.2754C4.29038 18.507 8.09012 21.3415 21.1397 30.8451C23.8392 32.8202 28.3938 36.9756 32.9355 36.95C37.5029 36.9884 42.147 32.7432 44.7441 30.8451C57.7937 21.3415 61.5807 18.4942 64.4465 16.2626ZM32.9355 32.833C35.9037 32.8843 40.1768 29.088 42.3261 27.5233C59.3034 15.1724 60.5956 14.0951 64.5104 11.017C65.2525 10.4399 65.6875 9.54209 65.6875 8.59301V6.15619C65.6875 2.75746 62.9368 0 59.5465 0H6.32458C2.93424 0 0.183594 2.75746 0.183594 6.15619V8.59301C0.183594 9.54209 0.61858 10.427 1.36062 11.017C5.2755 14.0823 6.56766 15.1724 23.5449 27.5233C25.6943 29.088 29.9674 32.8843 32.9355 32.833Z" fill="#FA6E6E"/>
</svg>
