<svg width="33" height="33" viewBox="0 0 33 33" fill="none" xmlns="http://www.w3.org/2000/svg">
<rect width="33" height="33" rx="6" fill="#252E60"/>
<path d="M6.73438 24.2818C6.86424 23.8731 7.16765 23.5959 7.45876 23.3059C8.59734 22.172 9.73162 21.0338 10.8677 19.8975C11.4303 19.3346 12.0014 19.2934 12.6224 19.7635C12.8003 19.5761 12.9775 19.3893 13.1732 19.1828C13.1381 19.1385 13.0704 19.05 13.0003 18.964C12.0617 17.8142 11.5017 16.5051 11.3441 15.0259C11.1515 13.2203 11.5521 11.5524 12.5621 10.0504C13.657 8.42306 15.1765 7.38077 17.09 6.93398C17.4955 6.83934 17.9134 6.79939 18.3258 6.73486C18.631 6.73486 18.9357 6.73486 19.241 6.73486C19.4847 6.77051 19.7296 6.79816 19.9715 6.84241C22.6536 7.33099 24.5424 8.84403 25.6613 11.3127C26.1457 12.3808 26.3346 13.5264 26.2423 14.694C26.0485 17.132 24.9443 19.0629 22.9207 20.4512C21.9896 21.0898 20.9544 21.4831 19.841 21.6312C18.0224 21.8733 16.3188 21.5236 14.766 20.5262C14.4201 20.3043 14.0964 20.0481 13.7585 19.8053C13.5887 19.9762 13.4096 20.1562 13.2311 20.3363C13.3135 20.4826 13.4182 20.6215 13.4748 20.7776C13.6447 21.2459 13.5456 21.6754 13.1997 22.0245C11.9115 23.3243 10.6197 24.6204 9.31496 25.903C9.14694 26.0683 8.89461 26.147 8.68105 26.2656H8.26192C8.04036 26.1378 7.7911 26.0413 7.60401 25.8753C7.2532 25.5644 6.89378 25.2479 6.73684 24.7783V24.2824L6.73438 24.2818ZM18.615 7.53625C14.8916 7.62843 11.7922 10.7934 12.1103 14.8004C12.3744 18.1313 15.3021 21.1961 19.3308 20.882C22.7373 20.6165 25.4939 17.7638 25.4465 14.1508C25.3955 10.2686 22.2284 7.46496 18.6157 7.53625H18.615ZM8.48718 25.5097C8.60781 25.4273 8.73398 25.3665 8.82814 25.2737C9.47929 24.6315 10.1237 23.9825 10.7705 23.3354C11.3724 22.7331 11.9749 22.1327 12.575 21.5292C12.8187 21.284 12.8163 21.0855 12.5762 20.8396C12.4562 20.7173 12.3337 20.5969 12.2125 20.4758C11.9005 20.1642 11.7245 20.1636 11.413 20.4758C10.2905 21.5986 9.16787 22.722 8.04529 23.8448C7.91481 23.9751 7.78003 24.1011 7.65694 24.2375C7.48215 24.4317 7.48153 24.6247 7.65878 24.8146C7.82742 24.9959 8.00159 25.1729 8.18499 25.3388C8.26069 25.4077 8.36594 25.4433 8.48718 25.5103V25.5097Z" fill="white"/>
<path d="M22.3961 10.6182C22.5881 10.4308 22.7685 10.2538 22.9488 10.0774C25.0426 12.0483 25.4291 15.8819 22.974 18.361C22.7931 18.1804 22.6121 17.9997 22.4177 17.8061C23.3673 16.824 23.8769 15.614 23.8744 14.2134C23.872 12.8202 23.3612 11.6169 22.3955 10.6182H22.3961Z" fill="white"/>
</svg>
