<svg width="115" height="80" viewBox="0 0 115 80" fill="none" xmlns="http://www.w3.org/2000/svg">
<path d="M8.09253 17.2351H0.0989805C0.0707265 17.1007 0.00950932 16.9568 0.00950932 16.8105C0.00480031 12.5809 -0.0116812 8.34889 0.0142183 4.11927C0.0259909 2.39722 0.843004 1.09743 2.4111 0.392102C3.93682 -0.294357 5.40839 -0.0749731 6.70337 1.01487C7.52745 1.70841 8.07134 2.60717 8.0784 3.68994C8.11136 8.16961 8.09253 12.6469 8.09253 17.2351Z" fill="black"/>
<path d="M104.851 78.9222C104.941 78.6721 104.882 78.3654 104.882 78.0824V42.3936L104.898 7.95032C104.901 3.62161 101.4 0.113833 97.079 0.113833L53.2475 0.0737305H9.68213C11.375 2.45629 10.9277 5.10776 10.9277 7.67432C10.9465 31.0918 10.9394 54.5069 10.9394 77.9243C10.9394 78.934 11.4566 79.4388 12.4911 79.4388C27.6541 79.4388 42.8171 79.4388 70.5131 79.4435L104.006 79.4647C104.093 79.46 104.216 79.4529 104.34 79.4459C104.526 79.4341 104.771 79.1392 104.851 78.9222ZM71.2148 46.8048C73.0937 46.7789 87.4962 46.7765 89.3727 46.8072C90.9738 46.8308 92.1581 48.0575 92.1628 49.6144C92.1652 51.1784 90.9879 52.3932 89.3892 52.4404C88.4498 52.4687 87.5103 52.4451 86.5709 52.4451C85.6314 52.4475 72.1684 52.464 71.2289 52.4428C69.6019 52.405 68.347 51.1359 68.3752 49.5837C68.4035 48.0386 69.6137 46.8284 71.2148 46.8048ZM70.8687 36.4891C72.9736 36.3759 87.6186 36.3735 89.7236 36.4985C91.2469 36.5858 92.2288 37.9163 92.1581 39.4307C92.0898 40.9051 90.9361 42.0185 89.3869 42.0633C88.7111 42.0846 88.0377 42.0798 87.362 42.0751C87.0677 42.0728 86.7757 42.068 86.4814 42.068C85.9163 42.068 72.8253 42.0775 72.2578 42.0775H72.2154C71.8576 42.0775 71.4997 42.0728 71.1418 42.061C69.6231 42.0114 68.4718 40.8815 68.38 39.3977C68.2905 37.9611 69.3594 36.5693 70.8687 36.4891ZM68.38 17.4404C68.4883 15.9496 69.6302 14.8503 71.163 14.8031C72.1307 14.7748 85.6244 14.7984 86.5921 14.7984C87.5598 14.7984 88.471 14.7748 89.4081 14.8031C90.9149 14.8503 92.0616 15.9401 92.1534 17.3673C92.2547 18.9313 91.2728 20.2783 89.7024 20.3703C87.5974 20.4929 72.9524 20.4906 70.8475 20.3703C69.3477 20.2854 68.2764 18.8676 68.38 17.4404ZM70.7345 25.2227C72.9242 25.0882 87.6587 25.0835 89.846 25.2274C91.3529 25.3265 92.2758 26.7253 92.1487 28.2563C92.0333 29.6434 90.9008 30.7096 89.4363 30.7592C88.4686 30.7922 87.5009 30.7662 86.5308 30.7662C85.5608 30.7662 72.0695 30.7945 71.1041 30.7592C69.6278 30.7049 68.5047 29.6033 68.3823 28.1478C68.2669 26.7466 69.2747 25.3123 70.7345 25.2227ZM46.6526 14.7842V13.8359C51.5641 13.258 59.1691 19.4031 61.5119 25.7817C64.4856 33.8706 61.4836 43.0329 54.2812 47.8593C47.1517 52.6362 38.3059 51.6667 32.7987 47.2578C36.8767 43.1768 40.8699 39.1052 44.9597 35.135C46.2029 33.9273 46.7114 32.6605 46.6832 30.9361C46.5984 25.5529 46.6526 20.1674 46.6526 14.7842ZM26.4698 25.1448C29.1115 18.6978 34.0913 15.0083 40.957 13.6307C40.9806 14.0058 41.0112 14.2629 41.0112 14.52C41.0112 19.7829 41.0206 25.0481 40.9947 30.3133C40.9923 30.7049 40.8322 31.2003 40.5662 31.4692C36.7919 35.2978 32.9847 39.0957 29.1869 42.9008C29.0644 43.0234 28.9302 43.1319 28.7207 43.3183C24.8075 37.5978 23.8539 31.5329 26.4698 25.1448ZM92.1605 62.1287C92.0592 63.4898 90.962 64.5655 89.5635 64.6599C89.2432 64.6811 88.9183 64.6764 88.5957 64.6764H53.3394C45.619 64.6764 37.8985 64.6787 30.1781 64.674C28.3463 64.674 27.122 63.6266 27.049 62.0367C26.9807 60.5364 27.9131 59.3498 29.3917 59.0951C29.792 59.0243 30.2087 59.029 30.6184 59.029C45.7673 59.0243 73.4469 59.0243 88.5957 59.029C89.0619 59.029 89.5399 59.0384 89.9943 59.1352C91.3905 59.43 92.2664 60.6661 92.1581 62.1287H92.1605Z" fill="black"/>
<path d="M104.006 79.4648C103.488 79.4932 104.284 79.4719 114.25 79.4719L104.006 79.4648Z" fill="black"/>
</svg>
