<svg width="105" height="88" viewBox="0 0 105 88" fill="none" xmlns="http://www.w3.org/2000/svg">
<path d="M63.0381 74.2172C64.1202 76.4444 64.9033 78.3167 65.9202 80.047C66.5565 81.1333 67.693 81.9194 68.3401 83.0056C68.8459 83.8517 69.3462 85.0853 69.0743 85.8878C68.8513 86.5537 67.5081 87.2251 66.6544 87.2306C56.9583 87.3234 47.2623 87.3288 37.5663 87.2306C36.6799 87.2197 35.4618 86.5319 35.0268 85.7895C34.7168 85.26 35.2388 83.939 35.7609 83.2622C37.811 80.5929 39.8992 77.9782 40.7312 74.3264C39.9917 74.2882 39.2956 74.2282 38.5995 74.2282C28.4304 74.2227 18.2558 74.1135 8.08672 74.2718C3.24144 74.3373 -0.0322608 70.096 0.000367456 66.1712C0.15807 46.9078 0.163508 27.6443 0.000367456 8.38631C-0.0376988 4.11767 2.88253 -0.10184 8.42932 0.0018735C14.4601 0.116504 20.4963 0.0291666 26.5325 0.0291666C49.4539 0.0291666 72.3697 0.023708 95.291 0.0346252C98.6137 0.0346252 101.61 0.946214 103.231 4.12313C103.899 5.43866 104.231 7.07624 104.237 8.5719C104.302 27.6279 104.318 46.6894 104.258 65.7455C104.242 71.215 100.822 74.2282 95.6608 74.2227C85.7582 74.2118 75.861 74.2227 65.9583 74.2227H63.0381V74.2172ZM95.4923 56.6241V8.94855H8.83717V56.6241H95.4977H95.4923Z" fill="black"/>
<path d="M65.3656 30.5866C62.7227 33.2614 60.455 35.5867 58.1548 37.8793C56.4798 39.5551 55.0877 39.6807 53.0974 38.4088C49.2527 35.947 49.2309 35.9197 45.6908 38.8564C42.4551 41.5366 39.3011 44.3151 36.0546 46.9843C34.1948 48.5127 32.683 48.4745 31.3996 47.0607C30.1054 45.6306 30.2576 43.5672 31.9815 42.0552C36.9192 37.7156 41.895 33.4142 46.9089 29.1619C48.1977 28.0702 49.6497 28.2995 51.0472 29.1728C55.0496 31.662 55.0496 31.6401 58.3505 28.3595C59.0194 27.6936 59.7916 27.1313 61.2381 25.9141C59.8079 24.8605 58.7584 24.1182 57.7469 23.3321C56.42 22.3005 56.1264 20.6956 56.8822 19.5002C57.4913 18.5395 58.9596 17.6879 60.1124 17.5951C63.3481 17.344 66.6163 17.4696 69.8683 17.5187C72.7124 17.5624 73.7619 18.6705 73.7728 21.4871C73.7837 24.7568 73.7619 28.0211 73.7782 31.2908C73.7837 32.8356 73.3595 34.0201 71.7933 34.7188C70.1511 35.4503 69.058 34.7297 68.0302 33.6435C67.1928 32.7592 66.4206 31.8039 65.3601 30.5812L65.3656 30.5866Z" fill="black"/>
</svg>
