<svg width="69" height="90" viewBox="0 0 69 90" fill="none" xmlns="http://www.w3.org/2000/svg">
<path d="M0.0252277 58.2899L3.40627 83.3126C3.59292 84.6827 4.77148 85.7037 6.16336 85.7037H11.4106C13.6197 85.7037 15.4106 83.9129 15.4106 81.7037V59.1687C15.4106 56.9596 13.6197 55.1687 11.4106 55.1687H2.78232C1.09713 55.1687 -0.198753 56.6394 0.0252277 58.2952V58.2899Z" fill="url(#paint0_linear_83_383)"/>
<path fill-rule="evenodd" clip-rule="evenodd" d="M17.2817 54.0521V55.1684V87.1635C17.2817 88.6871 18.5243 89.9197 20.0602 89.9197H55.9771C57.2303 89.9197 58.3288 89.0891 58.6595 87.8935L60.0984 82.7274C60.6309 80.8153 59.1932 78.9224 57.2084 78.9224H52.7613C51.6767 78.9224 50.7975 78.0432 50.7975 76.9586C50.7975 75.874 51.6767 74.9948 52.7613 74.9948H60.7605C61.6421 74.9948 62.4157 74.4072 62.6523 73.5579C63.0009 72.3063 62.0597 71.0672 60.7605 71.0672H55.1183C54.0337 71.0672 53.1545 70.188 53.1545 69.1034C53.1545 68.0188 54.0337 67.1396 55.1183 67.1396H62.9483C63.83 67.1396 64.6036 66.552 64.8401 65.7027C65.1887 64.4511 64.2476 63.212 62.9483 63.212H59.0459C57.9613 63.212 57.0821 62.3328 57.0821 61.2482C57.0821 60.1636 57.9613 59.2844 59.0459 59.2844H64.3491C65.696 59.2844 66.8778 58.3868 67.2391 57.0893L67.976 54.4436C68.4613 52.6873 67.1334 50.9521 65.2936 50.9521H40.2131C38.4159 50.9521 37.0934 49.2909 37.5093 47.5558C38.2773 44.3287 38.3572 39.8162 38.2772 38.1974C38.1546 35.7374 36.7414 32.6956 33.7923 32.5792C31.6912 32.4998 30.4913 34.1398 29.974 35.092C29.7713 35.4676 29.6753 35.8856 29.654 36.3088C29.2594 43.477 21.436 49.6877 18.439 51.8144C17.7084 52.3275 17.2817 53.1634 17.2817 54.0521Z" fill="url(#paint1_linear_83_383)"/>
<path d="M9.15625 37.4127C8.47836 37.4111 7.99784 37.0486 7.7406 36.3093C7.24553 34.8839 6.75045 33.4569 6.2845 32.0203C6.15992 31.6352 5.96578 31.4394 5.56292 31.3343C4.12139 30.9589 2.69441 30.5318 1.25611 30.1419C0.591154 29.9607 0.133292 29.5837 0.02004 28.8913C-0.0851227 28.2441 0.233601 27.7765 0.741618 27.4012C1.94047 26.513 3.12315 25.6053 4.32848 24.7252C4.63587 24.5003 4.76531 24.2706 4.74427 23.8758C4.66338 22.3663 4.63264 20.8536 4.56469 19.3425C4.53556 18.6792 4.72648 18.1404 5.33318 17.8233C5.93827 17.5062 6.49321 17.6583 7.02873 18.0401C8.24215 18.9073 9.47659 19.747 10.6819 20.6239C10.9958 20.852 11.2466 20.8908 11.6106 20.75C12.9987 20.2097 14.4063 19.7195 15.7961 19.1856C16.4384 18.938 17.0257 18.9445 17.5337 19.4363C18.0239 19.912 18.0465 20.4912 17.8492 21.1157C17.3945 22.5556 16.9399 23.9955 16.5273 25.4484C16.4594 25.6878 16.5273 26.0519 16.6778 26.2509C17.5612 27.4271 18.4785 28.579 19.404 29.7229C19.8408 30.2616 20.1029 30.8198 19.789 31.4977C19.4638 32.2015 18.8506 32.3519 18.1323 32.3535C16.681 32.3568 15.2282 32.4199 13.7769 32.4183C13.3773 32.4183 13.1621 32.5639 12.9567 32.8794C12.1461 34.1316 11.3097 35.366 10.4878 36.6102C10.1691 37.0907 9.76781 37.424 9.15787 37.4159L9.15625 37.4127Z" fill="url(#paint2_linear_83_383)"/>
<path d="M59.4731 37.4127C60.151 37.4111 60.6316 37.0486 60.8888 36.3093C61.3839 34.8839 61.8789 33.4569 62.3449 32.0203C62.4695 31.6352 62.6636 31.4394 63.0665 31.3343C64.508 30.9589 65.935 30.5318 67.3733 30.1419C68.0382 29.9607 68.4961 29.5837 68.6094 28.8913C68.7145 28.2441 68.3958 27.7765 67.8878 27.4012C66.6889 26.513 65.5062 25.6053 64.3009 24.7252C63.9935 24.5003 63.8641 24.2706 63.8851 23.8758C63.966 22.3663 63.9968 20.8536 64.0647 19.3425C64.0938 18.6792 63.9029 18.1404 63.2962 17.8233C62.6911 17.5062 62.1362 17.6583 61.6007 18.0401C60.3872 18.9073 59.1528 19.747 57.9475 20.6239C57.6336 20.852 57.3828 20.8908 57.0188 20.75C55.6307 20.2097 54.2231 19.7195 52.8333 19.1856C52.191 18.938 51.6037 18.9445 51.0957 19.4363C50.6055 19.912 50.5828 20.4912 50.7802 21.1157C51.2349 22.5556 51.6895 23.9955 52.102 25.4484C52.17 25.6878 52.102 26.0519 51.9516 26.2509C51.0682 27.4271 50.1509 28.579 49.2254 29.7229C48.7886 30.2616 48.5265 30.8198 48.8404 31.4977C49.1656 32.2015 49.7788 32.3519 50.4971 32.3535C51.9483 32.3568 53.4012 32.4199 54.8525 32.4183C55.2521 32.4183 55.4673 32.5639 55.6727 32.8794C56.4833 34.1316 57.3197 35.366 58.1416 36.6102C58.4603 37.0907 58.8616 37.424 59.4715 37.4159L59.4731 37.4127Z" fill="url(#paint3_linear_83_383)"/>
<path d="M28.1962 21.7488C27.5977 21.4304 27.3425 20.8853 27.4609 20.1115C27.6898 18.62 27.9195 17.1272 28.1795 15.6394C28.2494 15.2408 28.1694 14.9769 27.8625 14.6956C26.7638 13.6897 25.7022 12.6448 24.6132 11.6276C24.1102 11.1565 23.8818 10.6091 24.1055 9.94409C24.3151 9.32288 24.8155 9.05864 25.4401 8.96443C26.9152 8.73995 28.385 8.49074 29.862 8.27643C30.2389 8.2214 30.4607 8.07886 30.6267 7.72008C31.2611 6.34799 31.9414 4.99649 32.588 3.62901C32.8724 3.02906 33.2931 2.64212 33.9777 2.64555C34.6608 2.64822 35.0802 3.04215 35.375 3.63008C36.0421 4.96405 36.7405 6.28354 37.3959 7.6223C37.5666 7.97072 37.7701 8.12232 38.1577 8.16813C39.6374 8.33964 41.1109 8.56456 42.589 8.74254C43.2725 8.8241 43.7886 9.10447 44.0076 9.77678C44.2185 10.4265 43.9676 10.949 43.5011 11.4087C42.4259 12.4689 41.3507 13.5291 40.3066 14.6204C40.1346 14.8002 40.0244 15.1538 40.0643 15.4C40.2951 16.8528 40.5673 18.3 40.8504 19.7439C40.9846 20.4244 40.9552 21.0403 40.3608 21.4927C39.7442 21.9627 39.1318 21.809 38.4961 21.4745C37.2118 20.7987 35.8981 20.175 34.6161 19.495C34.2629 19.3081 34.0046 19.3362 33.6754 19.5189C32.3733 20.2468 31.0567 20.9468 29.7484 21.6621C29.242 21.9378 28.7315 22.0448 28.1961 21.7524L28.1962 21.7488Z" fill="url(#paint4_linear_83_383)"/>
<defs>
<linearGradient id="paint0_linear_83_383" x1="21.871" y1="70.4125" x2="-9.75495" y2="70.4125" gradientUnits="userSpaceOnUse">
<stop offset="0.196404" stop-color="#6E7ED7"/>
<stop offset="1" stop-color="#6E7ED7" stop-opacity="0"/>
</linearGradient>
<linearGradient id="paint1_linear_83_383" x1="17.2396" y1="71.8899" x2="88.1763" y2="72.1855" gradientUnits="userSpaceOnUse">
<stop offset="0.156349" stop-color="#6E7ED7"/>
<stop offset="0.976364" stop-color="#6E7ED7" stop-opacity="0"/>
</linearGradient>
<linearGradient id="paint2_linear_83_383" x1="4.32038" y1="18.8301" x2="21.9947" y2="42.3959" gradientUnits="userSpaceOnUse">
<stop stop-color="#5B72E9"/>
<stop offset="1" stop-color="#929FE3" stop-opacity="0"/>
</linearGradient>
<linearGradient id="paint3_linear_83_383" x1="65.5912" y1="14.9025" x2="50.2735" y2="38.0755" gradientUnits="userSpaceOnUse">
<stop offset="0.303891" stop-color="#7186FA"/>
<stop offset="1" stop-color="#7186FA" stop-opacity="0"/>
</linearGradient>
<linearGradient id="paint4_linear_83_383" x1="33.7777" y1="-1.20092" x2="33.7777" y2="25.5069" gradientUnits="userSpaceOnUse">
<stop offset="0.375019" stop-color="#7086FA"/>
<stop offset="1" stop-color="#A4B0F1" stop-opacity="0"/>
</linearGradient>
</defs>
</svg>
