<svg width="22" height="22" viewBox="0 0 22 22" fill="none" xmlns="http://www.w3.org/2000/svg">
<path d="M20.8719 7.90013C19.7904 3.41101 15.7587 0.103416 10.9562 0.00246787C9.03814 -0.0379114 7.23073 0.416794 5.57255 1.39819C2.52654 3.20209 0.803403 5.88906 0.388199 9.38538C0.160846 11.3078 0.514603 13.1635 1.35993 14.9138C1.44069 15.0815 1.46176 15.2456 1.42577 15.4195C1.20017 16.5141 0.97282 17.6087 0.744589 18.7033C0.625207 19.2766 0.494414 19.848 0.382932 20.4238C0.303929 20.8347 0.530404 21.0857 0.886795 21.0023C2.54586 20.6126 4.20492 20.2255 5.85959 19.8208C6.0492 19.7743 6.19842 19.7945 6.35906 19.8699C7.74337 20.5195 9.1979 20.8487 10.7929 20.8434C12.1658 20.8619 13.5527 20.5862 14.8642 20.0104C19.614 17.923 22.0885 12.9467 20.8719 7.90013ZM12.6249 18.3724C10.7069 18.8201 8.84239 18.6085 7.09379 17.7044C6.56184 17.4288 6.09396 17.4068 5.54621 17.5613C4.77374 17.7781 3.98722 17.9414 3.15769 18.1398C3.36661 17.1242 3.55358 16.1577 3.7704 15.1974C3.82834 14.9419 3.79761 14.7383 3.67648 14.5171C2.92946 13.1494 2.53444 11.6967 2.60555 10.1254C2.71878 7.65961 3.73617 5.64328 5.6296 4.07814C7.11486 2.85096 8.85556 2.24703 10.7701 2.25844C14.6193 2.28126 17.8127 4.85676 18.702 8.52425C19.7694 12.9291 17.0367 17.3445 12.6249 18.3724Z" fill="white"/>
<path d="M16.2478 13.7926C15.6263 14.8372 14.7933 15.5693 13.4739 15.5035C12.3266 15.4613 11.2785 15.0891 10.3138 14.4764C8.68634 13.4432 7.30028 12.1599 6.27851 10.5096C5.85979 9.83368 5.6026 9.09632 5.5113 8.30629C5.42528 7.56278 5.63069 6.90004 6.10558 6.32156C6.32152 6.05822 6.55853 5.81506 6.81924 5.59824C7.2283 5.25765 7.77254 5.35685 8.00253 5.83876C8.30801 6.47869 8.57662 7.13617 8.86366 7.78399C8.98216 8.05172 8.92598 8.29839 8.77149 8.52662C8.66703 8.68024 8.54414 8.82156 8.43178 8.96904C8.11226 9.38775 8.07626 9.65724 8.38701 10.0681C9.26833 11.232 10.3436 12.1862 11.6138 12.9104C11.986 13.1228 12.3152 13.0561 12.6216 12.7384C13.4836 11.843 13.4476 12.0431 14.4202 12.2933C14.8723 12.4092 15.3208 12.5435 15.7676 12.6795C16.2838 12.8367 16.519 13.337 16.2478 13.7926Z" fill="white"/>
</svg>
